<svg width="162" height="24" viewBox="0 0 162 24" fill="none" xmlns="http://www.w3.org/2000/svg">
<g clip-path="url(#clip0_5803_46044)">
<path d="M8.78627 17.9981L3.12202 10.9277V17.9981H0V2.12946H3.12202V9.24534L8.78627 2.12946H12.555L6.13255 9.99558L12.7334 17.9981H8.78627Z" fill="#A57F28"/>
<path d="M17.909 7.35838C18.3104 6.6915 18.8307 6.16861 19.47 5.78971C20.1241 5.4108 20.8674 5.22134 21.7 5.22134V8.56331H20.8749C19.8937 8.56331 19.1503 8.79823 18.6449 9.26808C18.1543 9.73792 17.909 10.5564 17.909 11.7234V17.9981H14.7869V5.40322H17.909V7.35838Z" fill="#A57F28"/>
<path d="M35.2874 11.4278C35.2874 11.8825 35.2577 12.2918 35.1982 12.6555H26.1666C26.241 13.5649 26.5532 14.2772 27.1032 14.7925C27.6533 15.3079 28.3298 15.5655 29.1326 15.5655C30.2922 15.5655 31.1173 15.0578 31.6079 14.0423H34.9752C34.6184 15.2548 33.9345 16.2551 32.9236 17.0433C31.9127 17.8162 30.6713 18.2027 29.1995 18.2027C28.0101 18.2027 26.9397 17.9375 25.9882 17.407C25.0516 16.8614 24.3157 16.096 23.7805 15.1108C23.2602 14.1257 23 12.9889 23 11.7007C23 10.3972 23.2602 9.25292 23.7805 8.26776C24.3009 7.2826 25.0293 6.52479 25.9659 5.99432C26.9025 5.46384 27.9804 5.19861 29.1995 5.19861C30.3739 5.19861 31.422 5.45627 32.3438 5.97158C33.2804 6.48689 34.0014 7.22197 34.5069 8.17682C35.0272 9.11651 35.2874 10.2002 35.2874 11.4278ZM32.0539 10.5185C32.039 9.70003 31.7491 9.04831 31.1842 8.56331C30.6192 8.06315 29.9279 7.81307 29.1103 7.81307C28.3372 7.81307 27.6831 8.05557 27.1478 8.54057C26.6275 9.01042 26.3079 9.66972 26.1889 10.5185H32.0539Z" fill="#A57F28"/>
<path d="M36.7634 11.6552C36.7634 10.3821 37.0087 9.25292 37.4993 8.26776C38.0048 7.2826 38.6812 6.52479 39.5286 5.99432C40.3909 5.46384 41.3498 5.19861 42.4053 5.19861C43.3271 5.19861 44.1299 5.38806 44.8138 5.76697C45.5125 6.14588 46.07 6.6233 46.4863 7.19924V5.40322H49.6306V17.9981H46.4863V16.1566C46.0849 16.7477 45.5274 17.2403 44.8138 17.6344C44.115 18.0133 43.3048 18.2027 42.383 18.2027C41.3424 18.2027 40.3909 17.9299 39.5286 17.3843C38.6812 16.8386 38.0048 16.0733 37.4993 15.0881C37.0087 14.0878 36.7634 12.9435 36.7634 11.6552ZM46.4863 11.7007C46.4863 10.9277 46.3376 10.2684 46.0403 9.72276C45.7429 9.16198 45.3415 8.73761 44.8361 8.44964C44.3306 8.14651 43.788 7.99495 43.2082 7.99495C42.6283 7.99495 42.0931 8.13893 41.6025 8.4269C41.1119 8.71487 40.7105 9.13925 40.3983 9.70003C40.101 10.2457 39.9523 10.8974 39.9523 11.6552C39.9523 12.413 40.101 13.0799 40.3983 13.6558C40.7105 14.2166 41.1119 14.6486 41.6025 14.9517C42.108 15.2548 42.6432 15.4064 43.2082 15.4064C43.788 15.4064 44.3306 15.2624 44.8361 14.9744C45.3415 14.6713 45.7429 14.2469 46.0403 13.7013C46.3376 13.1405 46.4863 12.4736 46.4863 11.7007Z" fill="#A57F28"/>
<path d="M56.3147 8.01768V14.1105C56.3147 14.5349 56.4114 14.8456 56.6046 15.0426C56.8128 15.2245 57.1547 15.3154 57.6304 15.3154H59.08V17.9981H57.1175C54.4861 17.9981 53.1704 16.6947 53.1704 14.0878V8.01768H51.6986V5.40322H53.1704V2.2886H56.3147V5.40322H59.08V8.01768H56.3147Z" fill="#A57F28"/>
<path d="M64.4475 5.40322V17.9981H61.3255V5.40322H64.4475Z" fill="#A57F28"/>
<path d="M72.6834 15.0654L75.8054 5.40322H79.1282L74.5566 17.9981H70.7656L66.2164 5.40322H69.5614L72.6834 15.0654Z" fill="#A57F28"/>
<path d="M92.3663 11.4278C92.3663 11.8825 92.3365 12.2918 92.2771 12.6555H83.2455C83.3198 13.5649 83.632 14.2772 84.1821 14.7925C84.7322 15.3079 85.4086 15.5655 86.2114 15.5655C87.371 15.5655 88.1961 15.0578 88.6867 14.0423H92.0541C91.6973 15.2548 91.0134 16.2551 90.0025 17.0433C88.9915 17.8162 87.7501 18.2027 86.2783 18.2027C85.089 18.2027 84.0186 17.9375 83.0671 17.407C82.1305 16.8614 81.3946 16.096 80.8594 15.1108C80.339 14.1257 80.0789 12.9889 80.0789 11.7007C80.0789 10.3972 80.339 9.25292 80.8594 8.26776C81.3797 7.2826 82.1082 6.52479 83.0448 5.99432C83.9814 5.46384 85.0593 5.19861 86.2783 5.19861C87.4528 5.19861 88.5009 5.45627 89.4226 5.97158C90.3593 6.48689 91.0803 7.22197 91.5858 8.17682C92.1061 9.11651 92.3663 10.2002 92.3663 11.4278ZM89.1327 10.5185C89.1179 9.70003 88.828 9.04831 88.263 8.56331C87.6981 8.06315 87.0068 7.81307 86.1891 7.81307C85.4161 7.81307 84.7619 8.05557 84.2267 8.54057C83.7064 9.01042 83.3867 9.66972 83.2678 10.5185H89.1327Z" fill="#A57F28"/>
<path d="M99.3727 18.2027C98.3618 18.2027 97.4549 18.0208 96.6521 17.6571C95.8493 17.2782 95.21 16.7704 94.7343 16.1339C94.2734 15.4973 94.0207 14.7925 93.9761 14.0196H97.1204C97.1799 14.5046 97.4103 14.9062 97.8117 15.2245C98.228 15.5428 98.7409 15.7019 99.3504 15.7019C99.9451 15.7019 100.406 15.5807 100.733 15.3382C101.075 15.0957 101.246 14.785 101.246 14.4061C101.246 13.9968 101.038 13.6937 100.622 13.4967C100.22 13.2845 99.5734 13.0571 98.6814 12.8146C97.7597 12.5873 97.0015 12.3524 96.4068 12.1099C95.827 11.8674 95.3215 11.4961 94.8904 10.9959C94.4741 10.4957 94.266 9.82128 94.266 8.97253C94.266 8.27534 94.4592 7.63877 94.8458 7.06283C95.2472 6.48689 95.8121 6.0322 96.5406 5.69877C97.2839 5.36533 98.1536 5.19861 99.1497 5.19861C100.622 5.19861 101.796 5.57752 102.673 6.33533C103.55 7.07799 104.033 8.08588 104.123 9.35901H101.134C101.09 8.85886 100.882 8.46479 100.51 8.17682C100.153 7.8737 99.67 7.72213 99.0605 7.72213C98.4956 7.72213 98.057 7.82823 97.7448 8.04041C97.4475 8.2526 97.2988 8.54815 97.2988 8.92706C97.2988 9.35143 97.5069 9.6773 97.9232 9.90464C98.3395 10.1168 98.9862 10.3366 99.8633 10.5639C100.755 10.7913 101.491 11.0262 102.071 11.2687C102.651 11.5112 103.149 11.8901 103.565 12.4054C103.996 12.9056 104.219 13.5725 104.234 14.4061C104.234 15.1336 104.033 15.7853 103.632 16.3612C103.246 16.9372 102.681 17.3919 101.937 17.7253C101.209 18.0436 100.354 18.2027 99.3727 18.2027Z" fill="#A57F28"/>
<path d="M109.919 7.22197C110.32 6.64604 110.87 6.16861 111.569 5.78971C112.283 5.39564 113.093 5.19861 114 5.19861C115.055 5.19861 116.007 5.46384 116.854 5.99432C117.717 6.52479 118.393 7.2826 118.884 8.26776C119.389 9.23776 119.642 10.3669 119.642 11.6552C119.642 12.9435 119.389 14.0878 118.884 15.0881C118.393 16.0733 117.717 16.8386 116.854 17.3843C116.007 17.9299 115.055 18.2027 114 18.2027C113.093 18.2027 112.29 18.0133 111.591 17.6344C110.908 17.2554 110.35 16.778 109.919 16.2021V24H106.797V5.40322H109.919V7.22197ZM116.453 11.6552C116.453 10.8974 116.297 10.2457 115.985 9.70003C115.687 9.13925 115.286 8.71487 114.78 8.4269C114.29 8.13893 113.755 7.99495 113.175 7.99495C112.61 7.99495 112.075 8.14651 111.569 8.44964C111.079 8.73761 110.677 9.16198 110.365 9.72276C110.068 10.2835 109.919 10.9428 109.919 11.7007C109.919 12.4585 110.068 13.1178 110.365 13.6786C110.677 14.2393 111.079 14.6713 111.569 14.9744C112.075 15.2624 112.61 15.4064 113.175 15.4064C113.755 15.4064 114.29 15.2548 114.78 14.9517C115.286 14.6486 115.687 14.2166 115.985 13.6558C116.297 13.095 116.453 12.4282 116.453 11.6552Z" fill="#A57F28"/>
<path d="M121.108 11.6552C121.108 10.3821 121.353 9.25292 121.844 8.26776C122.349 7.2826 123.026 6.52479 123.873 5.99432C124.735 5.46384 125.694 5.19861 126.75 5.19861C127.671 5.19861 128.474 5.38806 129.158 5.76697C129.857 6.14588 130.414 6.6233 130.831 7.19924V5.40322H133.975V17.9981H130.831V16.1566C130.429 16.7477 129.872 17.2403 129.158 17.6344C128.459 18.0133 127.649 18.2027 126.727 18.2027C125.687 18.2027 124.735 17.9299 123.873 17.3843C123.026 16.8386 122.349 16.0733 121.844 15.0881C121.353 14.0878 121.108 12.9435 121.108 11.6552ZM130.831 11.7007C130.831 10.9277 130.682 10.2684 130.385 9.72276C130.087 9.16198 129.686 8.73761 129.18 8.44964C128.675 8.14651 128.132 7.99495 127.552 7.99495C126.973 7.99495 126.437 8.13893 125.947 8.4269C125.456 8.71487 125.055 9.13925 124.743 9.70003C124.445 10.2457 124.297 10.8974 124.297 11.6552C124.297 12.413 124.445 13.0799 124.743 13.6558C125.055 14.2166 125.456 14.6486 125.947 14.9517C126.452 15.2548 126.988 15.4064 127.552 15.4064C128.132 15.4064 128.675 15.2624 129.18 14.9744C129.686 14.6713 130.087 14.2469 130.385 13.7013C130.682 13.1405 130.831 12.4736 130.831 11.7007Z" fill="#A57F28"/>
<path d="M136.221 11.7007C136.221 10.3972 136.481 9.2605 137.002 8.29049C137.522 7.30533 138.243 6.54752 139.165 6.01705C140.087 5.47142 141.142 5.19861 142.332 5.19861C143.863 5.19861 145.127 5.59267 146.123 6.3808C147.134 7.15377 147.81 8.24503 148.152 9.65456H144.785C144.606 9.10893 144.301 8.68456 143.87 8.38143C143.454 8.06315 142.934 7.90401 142.309 7.90401C141.417 7.90401 140.711 8.23745 140.191 8.90432C139.67 9.55605 139.41 10.4882 139.41 11.7007C139.41 12.898 139.67 13.8301 140.191 14.497C140.711 15.1487 141.417 15.4746 142.309 15.4746C143.573 15.4746 144.398 14.8986 144.785 13.7468H148.152C147.81 15.1108 147.134 16.1945 146.123 16.9978C145.112 17.8011 143.848 18.2027 142.332 18.2027C141.142 18.2027 140.087 17.9375 139.165 17.407C138.243 16.8614 137.522 16.1036 137.002 15.1336C136.481 14.1484 136.221 13.0041 136.221 11.7007Z" fill="#A57F28"/>
<path d="M161.924 11.4278C161.924 11.8825 161.894 12.2918 161.834 12.6555H152.803C152.877 13.5649 153.189 14.2772 153.739 14.7925C154.29 15.3079 154.966 15.5655 155.769 15.5655C156.928 15.5655 157.754 15.0578 158.244 14.0423H161.611C161.255 15.2548 160.571 16.2551 159.56 17.0433C158.549 17.8162 157.308 18.2027 155.836 18.2027C154.646 18.2027 153.576 17.9375 152.624 17.407C151.688 16.8614 150.952 16.096 150.417 15.1108C149.896 14.1257 149.636 12.9889 149.636 11.7007C149.636 10.3972 149.896 9.25292 150.417 8.26776C150.937 7.2826 151.666 6.52479 152.602 5.99432C153.539 5.46384 154.617 5.19861 155.836 5.19861C157.01 5.19861 158.058 5.45627 158.98 5.97158C159.917 6.48689 160.638 7.22197 161.143 8.17682C161.663 9.11651 161.924 10.2002 161.924 11.4278ZM158.69 10.5185C158.675 9.70003 158.385 9.04831 157.82 8.56331C157.255 8.06315 156.564 7.81307 155.747 7.81307C154.973 7.81307 154.319 8.05557 153.784 8.54057C153.264 9.01042 152.944 9.66972 152.825 10.5185H158.69Z" fill="#A57F28"/>
<path d="M64.8043 1.98926C64.8043 3.0879 63.9307 3.97853 62.853 3.97853C61.7754 3.97853 60.9018 3.0879 60.9018 1.98926C60.9018 0.890624 61.7754 0 62.853 0C63.9307 0 64.8043 0.890624 64.8043 1.98926Z" fill="#FFA300"/>
</g>
<defs>
<clipPath id="clip0_5803_46044">
<rect width="162" height="24" fill="white"/>
</clipPath>
</defs>
</svg>
