<svg width="213" height="49" viewBox="0 0 213 49" fill="none" xmlns="http://www.w3.org/2000/svg">
<path d="M87.5433 33.7927C87.6597 33.6535 87.7815 33.5572 87.9086 33.5037C88.0462 33.4502 88.1786 33.4234 88.3057 33.4234C88.5598 33.4234 88.7769 33.5144 88.9569 33.6964C89.1369 33.8783 89.2269 34.103 89.2269 34.3706V44.0027C89.2269 44.2595 89.1369 44.4843 88.9569 44.6769C88.7769 44.8589 88.5598 44.9498 88.3057 44.9498C88.0409 44.9498 87.8186 44.8589 87.6386 44.6769C87.4586 44.4843 87.3686 44.2595 87.3686 44.0027V42.4455H82.6639C82.4204 42.4455 82.2139 42.3599 82.0445 42.1886C81.8751 42.0174 81.7904 41.8087 81.7904 41.5626C81.7904 41.3164 81.8751 41.1077 82.0445 40.9365C82.2139 40.7652 82.4204 40.6796 82.6639 40.6796H87.3686V36.7626L80.8565 44.6288C80.7718 44.7144 80.6659 44.7893 80.5388 44.8535C80.4118 44.9177 80.29 44.9498 80.1735 44.9498C79.93 44.9498 79.7235 44.8642 79.5541 44.693C79.3847 44.5217 79.3 44.3131 79.3 44.0669C79.3 43.9706 79.3105 43.8796 79.3317 43.794C79.3635 43.6977 79.4217 43.596 79.5064 43.489L87.5433 33.7927Z" fill="#2B7BA1"/>
<path d="M91.2634 37.3565C91.2634 37.1104 91.3481 36.9017 91.5175 36.7305C91.6869 36.5592 91.8934 36.4736 92.137 36.4736C92.3805 36.4736 92.587 36.5592 92.7564 36.7305C92.9258 36.9017 93.0105 37.1104 93.0105 37.3565V41.8355L97.2195 36.7626C97.389 36.5699 97.5902 36.4736 97.8231 36.4736C98.0561 36.4736 98.2519 36.5485 98.4108 36.6984C98.5696 36.8482 98.649 37.0408 98.649 37.2763C98.649 37.4689 98.5855 37.6455 98.4584 37.806L92.7882 44.6448C92.6187 44.8482 92.4017 44.9498 92.137 44.9498C91.8934 44.9498 91.6869 44.8642 91.5175 44.693C91.3481 44.511 91.2634 44.297 91.2634 44.0508V37.3565Z" fill="#2B7BA1"/>
<path d="M99.8254 37.3565C99.8254 37.1104 99.9101 36.9017 100.079 36.7305C100.249 36.5592 100.455 36.4736 100.699 36.4736C100.942 36.4736 101.149 36.5592 101.318 36.7305C101.488 36.9017 101.573 37.1104 101.573 37.3565V44.0508C101.573 44.297 101.488 44.511 101.318 44.693C101.149 44.8642 100.942 44.9498 100.699 44.9498C100.455 44.9498 100.249 44.8642 100.079 44.693C99.9101 44.511 99.8254 44.297 99.8254 44.0508V37.3565ZM100.699 35.5425C100.413 35.5425 100.169 35.4408 99.9683 35.2375C99.7671 35.0234 99.6665 34.7773 99.6665 34.499C99.6665 34.2101 99.7671 33.9639 99.9683 33.7606C100.169 33.5572 100.413 33.4556 100.699 33.4556C100.985 33.4556 101.228 33.5572 101.43 33.7606C101.631 33.9639 101.731 34.2101 101.731 34.499C101.731 34.7773 101.631 35.0234 101.43 35.2375C101.228 35.4408 100.985 35.5425 100.699 35.5425Z" fill="#2B7BA1"/>
<path d="M103.61 40.198C103.61 39.6201 103.7 39.101 103.88 38.6408C104.071 38.1806 104.325 37.79 104.642 37.4689C104.971 37.1479 105.352 36.9017 105.786 36.7305C106.22 36.5485 106.686 36.4576 107.184 36.4576C107.681 36.4576 108.147 36.5485 108.581 36.7305C109.016 36.9017 109.391 37.1479 109.709 37.4689C110.037 37.79 110.291 38.1806 110.471 38.6408C110.662 39.101 110.757 39.6201 110.757 40.198V44.0508C110.757 44.297 110.673 44.511 110.503 44.693C110.334 44.8642 110.127 44.9498 109.884 44.9498C109.64 44.9498 109.434 44.8642 109.264 44.693C109.095 44.511 109.01 44.297 109.01 44.0508V40.1338C109.01 39.4596 108.83 38.9512 108.47 38.6087C108.121 38.2662 107.692 38.095 107.184 38.095C106.675 38.095 106.241 38.2662 105.881 38.6087C105.532 38.9512 105.357 39.4596 105.357 40.1338V44.0508C105.357 44.297 105.272 44.511 105.103 44.693C104.934 44.8642 104.727 44.9498 104.484 44.9498C104.24 44.9498 104.034 44.8642 103.864 44.693C103.695 44.511 103.61 44.297 103.61 44.0508V40.198Z" fill="#2B7BA1"/>
<path d="M113.046 43.9385V37.3565C113.046 37.1104 113.131 36.9017 113.3 36.7305C113.47 36.5592 113.676 36.4736 113.92 36.4736C114.163 36.4736 114.37 36.5592 114.539 36.7305C114.709 36.9017 114.793 37.1104 114.793 37.3565V41.8355L119.002 36.7626C119.172 36.5699 119.373 36.4736 119.606 36.4736C119.839 36.4736 120.035 36.5485 120.194 36.6984C120.352 36.8482 120.432 37.0408 120.432 37.2763C120.432 37.4903 120.368 37.6669 120.241 37.806L112.03 47.711C111.85 47.9037 111.648 48 111.426 48C111.183 48 110.981 47.9251 110.823 47.7753C110.664 47.6254 110.584 47.4328 110.584 47.1973C110.584 47.0047 110.648 46.8281 110.775 46.6676L113.046 43.9385Z" fill="#2B7BA1"/>
<path d="M127.211 43.9706C126.861 44.2809 126.459 44.5271 126.003 44.709C125.559 44.8803 125.082 44.9659 124.574 44.9659C124.002 44.9659 123.467 44.8589 122.97 44.6448C122.483 44.4201 122.059 44.1151 121.699 43.7298C121.35 43.3445 121.069 42.895 120.857 42.3813C120.656 41.8676 120.556 41.3111 120.556 40.7117C120.556 40.1231 120.656 39.5719 120.857 39.0582C121.069 38.5338 121.35 38.079 121.699 37.6937C122.059 37.3084 122.483 37.0087 122.97 36.7947C123.467 36.5699 124.002 36.4576 124.574 36.4576C125.082 36.4576 125.559 36.5485 126.003 36.7305C126.459 36.9017 126.861 37.1479 127.211 37.4689V37.3565C127.211 37.1104 127.295 36.9017 127.465 36.7305C127.634 36.5592 127.841 36.4736 128.084 36.4736C128.328 36.4736 128.534 36.5592 128.704 36.7305C128.873 36.9017 128.958 37.1104 128.958 37.3565V44.0508C128.958 44.297 128.873 44.511 128.704 44.693C128.534 44.8642 128.328 44.9498 128.084 44.9498C127.841 44.9498 127.634 44.8642 127.465 44.693C127.295 44.511 127.211 44.297 127.211 44.0508V43.9706ZM124.765 43.3284C125.103 43.3284 125.421 43.2642 125.718 43.1358C126.014 42.9967 126.273 42.8147 126.496 42.59C126.718 42.3545 126.893 42.0763 127.02 41.7552C127.147 41.4341 127.211 41.0863 127.211 40.7117V40.5993C127.189 40.2462 127.115 39.9198 126.988 39.6201C126.861 39.3097 126.686 39.0422 126.464 38.8174C126.242 38.5927 125.982 38.4161 125.686 38.2877C125.4 38.1592 125.093 38.095 124.765 38.095C124.426 38.095 124.108 38.1646 123.812 38.3037C123.515 38.4321 123.256 38.6141 123.033 38.8495C122.811 39.0743 122.636 39.3472 122.509 39.6683C122.382 39.9893 122.319 40.3371 122.319 40.7117C122.319 41.0863 122.382 41.4341 122.509 41.7552C122.636 42.0763 122.811 42.3545 123.033 42.59C123.256 42.8147 123.515 42.9967 123.812 43.1358C124.108 43.2642 124.426 43.3284 124.765 43.3284Z" fill="#2B7BA1"/>
<path d="M137.308 43.9706C136.959 44.2809 136.556 44.5271 136.101 44.709C135.656 44.8803 135.18 44.9659 134.671 44.9659C134.1 44.9659 133.565 44.8589 133.067 44.6448C132.58 44.4201 132.157 44.1151 131.797 43.7298C131.447 43.3445 131.167 42.895 130.955 42.3813C130.754 41.8676 130.653 41.3111 130.653 40.7117C130.653 40.1231 130.754 39.5719 130.955 39.0582C131.167 38.5338 131.447 38.079 131.797 37.6937C132.157 37.3084 132.58 37.0087 133.067 36.7947C133.565 36.5699 134.1 36.4576 134.671 36.4576C135.18 36.4576 135.656 36.5485 136.101 36.7305C136.556 36.9017 136.959 37.1479 137.308 37.4689V37.3565C137.308 37.1104 137.393 36.9017 137.562 36.7305C137.732 36.5592 137.938 36.4736 138.182 36.4736C138.425 36.4736 138.632 36.5592 138.801 36.7305C138.97 36.9017 139.055 37.1104 139.055 37.3565V44.0508C139.055 44.297 138.97 44.511 138.801 44.693C138.632 44.8642 138.425 44.9498 138.182 44.9498C137.938 44.9498 137.732 44.8642 137.562 44.693C137.393 44.511 137.308 44.297 137.308 44.0508V43.9706ZM134.862 43.3284C135.201 43.3284 135.519 43.2642 135.815 43.1358C136.112 42.9967 136.371 42.8147 136.593 42.59C136.816 42.3545 136.99 42.0763 137.117 41.7552C137.245 41.4341 137.308 41.0863 137.308 40.7117V40.5993C137.287 40.2462 137.213 39.9198 137.086 39.6201C136.959 39.3097 136.784 39.0422 136.562 38.8174C136.339 38.5927 136.08 38.4161 135.783 38.2877C135.497 38.1592 135.19 38.095 134.862 38.095C134.523 38.095 134.206 38.1646 133.909 38.3037C133.613 38.4321 133.353 38.6141 133.131 38.8495C132.908 39.0743 132.734 39.3472 132.607 39.6683C132.48 39.9893 132.416 40.3371 132.416 40.7117C132.416 41.0863 132.48 41.4341 132.607 41.7552C132.734 42.0763 132.908 42.3545 133.131 42.59C133.353 42.8147 133.613 42.9967 133.909 43.1358C134.206 43.2642 134.523 43.3284 134.862 43.3284Z" fill="#2B7BA1"/>
<path d="M144.206 34.4683C144.206 34.2188 144.294 34.0057 144.469 33.8289C144.654 33.6522 144.87 33.5638 145.118 33.5638H149.287C149.524 33.5638 149.719 33.647 149.874 33.8133C150.038 33.9693 150.121 34.1668 150.121 34.4059C150.121 34.645 150.038 34.8478 149.874 35.0141C149.719 35.1805 149.524 35.2636 149.287 35.2636H146.029V38.1643H149.287C149.524 38.1643 149.719 38.2475 149.874 38.4138C150.038 38.5802 150.121 38.7829 150.121 39.022C150.121 39.2611 150.038 39.4639 149.874 39.6302C149.719 39.7862 149.524 39.8641 149.287 39.8641H146.029V42.7648H149.287C149.524 42.7648 149.719 42.848 149.874 43.0143C150.038 43.1807 150.121 43.3834 150.121 43.6225C150.121 43.8616 150.038 44.0644 149.874 44.2307C149.719 44.3971 149.524 44.4802 149.287 44.4802H145.118C144.87 44.4802 144.654 44.3919 144.469 44.2151C144.294 44.028 144.206 43.8096 144.206 43.5601V34.4683Z" fill="#2B7BA1"/>
<path d="M157.877 43.6693C157.537 43.9708 157.146 44.2099 156.703 44.3867C156.271 44.553 155.808 44.6362 155.314 44.6362C154.758 44.6362 154.238 44.5322 153.754 44.3243C153.28 44.106 152.869 43.8097 152.519 43.4354C152.179 43.0611 151.906 42.6244 151.7 42.1254C151.505 41.6264 151.407 41.0857 151.407 40.5035C151.407 39.9317 151.505 39.3963 151.7 38.8973C151.906 38.3878 152.179 37.946 152.519 37.5717C152.869 37.1974 153.28 36.9063 153.754 36.6984C154.238 36.48 154.758 36.3709 155.314 36.3709C155.808 36.3709 156.271 36.4593 156.703 36.636C157.146 36.8023 157.537 37.0415 157.877 37.3534V34.2812C157.877 34.042 157.959 33.8393 158.124 33.673C158.289 33.5066 158.489 33.4234 158.726 33.4234C158.963 33.4234 159.164 33.5066 159.328 33.673C159.493 33.8393 159.575 34.042 159.575 34.2812V43.7473C159.575 43.9864 159.493 44.1943 159.328 44.3711C159.164 44.5374 158.963 44.6206 158.726 44.6206C158.489 44.6206 158.289 44.5374 158.124 44.3711C157.959 44.1943 157.877 43.9864 157.877 43.7473V43.6693ZM155.499 43.0455C155.828 43.0455 156.137 42.9831 156.425 42.8584C156.714 42.7232 156.966 42.5465 157.182 42.3281C157.398 42.0994 157.568 41.8291 157.692 41.5172C157.815 41.2053 157.877 40.8674 157.877 40.5035V40.3944C157.856 40.0513 157.784 39.7342 157.661 39.4431C157.537 39.1416 157.367 38.8817 157.151 38.6633C156.935 38.445 156.683 38.2735 156.395 38.1487C156.117 38.0239 155.818 37.9616 155.499 37.9616C155.169 37.9616 154.861 38.0291 154.572 38.1643C154.284 38.2891 154.032 38.4658 153.816 38.6945C153.6 38.9129 153.43 39.178 153.306 39.4899C153.183 39.8018 153.121 40.1397 153.121 40.5035C153.121 40.8674 153.183 41.2053 153.306 41.5172C153.43 41.8291 153.6 42.0994 153.816 42.3281C154.032 42.5465 154.284 42.7232 154.572 42.8584C154.861 42.9831 155.169 43.0455 155.499 43.0455Z" fill="#2B7BA1"/>
<path d="M163.663 35.2636H161.61C161.373 35.2636 161.172 35.1805 161.008 35.0141C160.843 34.8478 160.76 34.645 160.76 34.4059C160.76 34.1668 160.843 33.9693 161.008 33.8133C161.172 33.647 161.373 33.5638 161.61 33.5638H167.539C167.776 33.5638 167.977 33.647 168.142 33.8133C168.306 33.9693 168.389 34.1668 168.389 34.4059C168.389 34.645 168.306 34.8478 168.142 35.0141C167.977 35.1805 167.776 35.2636 167.539 35.2636H165.486V43.7005C165.486 43.95 165.393 44.1683 165.208 44.3555C165.033 44.5322 164.822 44.6206 164.575 44.6206C164.327 44.6206 164.111 44.5322 163.926 44.3555C163.751 44.1683 163.663 43.95 163.663 43.7005V35.2636Z" fill="#2B7BA1"/>
<path d="M171.604 44.6362C171.017 44.6362 170.472 44.5322 169.967 44.3243C169.473 44.106 169.041 43.8097 168.67 43.4354C168.31 43.0611 168.027 42.6244 167.821 42.1254C167.615 41.6264 167.512 41.0857 167.512 40.5035C167.512 39.9317 167.615 39.3963 167.821 38.8973C168.027 38.3878 168.31 37.946 168.67 37.5717C169.041 37.1974 169.473 36.9063 169.967 36.6984C170.472 36.48 171.017 36.3709 171.604 36.3709C172.211 36.3709 172.741 36.4748 173.194 36.6828C173.647 36.8803 174.008 37.0986 174.275 37.3378C174.481 37.5249 174.584 37.7432 174.584 37.9928C174.584 38.1071 174.564 38.2111 174.522 38.3046C174.491 38.3982 174.43 38.5022 174.337 38.6166L170.677 43.0455C170.523 43.2326 170.327 43.3262 170.091 43.3262C169.854 43.3262 169.658 43.2534 169.504 43.1079C169.36 42.9623 169.288 42.7752 169.288 42.5465C169.288 42.4529 169.298 42.3645 169.319 42.2813C169.349 42.1878 169.401 42.1046 169.473 42.0318L172.623 38.2423C172.489 38.1487 172.33 38.0811 172.144 38.0395C171.959 37.9876 171.779 37.9616 171.604 37.9616C171.274 37.9616 170.966 38.0291 170.677 38.1643C170.389 38.2891 170.137 38.4658 169.921 38.6945C169.705 38.9232 169.535 39.1936 169.411 39.5055C169.288 39.8174 169.226 40.15 169.226 40.5035C169.226 40.857 169.288 41.1897 169.411 41.5016C169.535 41.8031 169.699 42.0682 169.905 42.2969C170.122 42.5257 170.374 42.7076 170.662 42.8428C170.95 42.9779 171.264 43.0455 171.604 43.0455C171.964 43.0455 172.278 42.9779 172.546 42.8428C172.824 42.7076 173.055 42.5413 173.241 42.3437C173.364 42.2398 173.477 42.1514 173.58 42.0786C173.683 41.9954 173.817 41.9539 173.982 41.9539C174.219 41.9539 174.414 42.0318 174.569 42.1878C174.733 42.3437 174.816 42.5413 174.816 42.7804C174.816 42.9675 174.733 43.1547 174.569 43.3418C174.27 43.7057 173.864 44.0124 173.349 44.2619C172.844 44.5114 172.263 44.6362 171.604 44.6362Z" fill="#2B7BA1"/>
<path d="M179.837 44.6362C179.251 44.6362 178.705 44.5322 178.201 44.3243C177.706 44.106 177.274 43.8097 176.903 43.4354C176.543 43.0611 176.26 42.6244 176.054 42.1254C175.848 41.6264 175.745 41.0857 175.745 40.5035C175.745 39.9317 175.848 39.3963 176.054 38.8973C176.26 38.3878 176.543 37.946 176.903 37.5717C177.274 37.1974 177.706 36.9063 178.201 36.6984C178.705 36.48 179.251 36.3709 179.837 36.3709C180.486 36.3709 181.068 36.4956 181.582 36.7452C182.097 36.9843 182.504 37.2806 182.802 37.6341C182.967 37.8316 183.049 38.0291 183.049 38.2267C183.049 38.4658 182.967 38.6581 182.802 38.8037C182.648 38.9492 182.452 39.022 182.215 39.022C182.04 39.022 181.901 38.9856 181.798 38.9128C181.706 38.8401 181.603 38.7569 181.49 38.6633C181.294 38.4658 181.062 38.2995 180.795 38.1643C180.527 38.0291 180.208 37.9616 179.837 37.9616C179.508 37.9616 179.199 38.0291 178.911 38.1643C178.623 38.2891 178.37 38.4658 178.154 38.6945C177.938 38.9232 177.768 39.1936 177.645 39.5055C177.521 39.8174 177.459 40.15 177.459 40.5035C177.459 40.857 177.521 41.1897 177.645 41.5016C177.768 41.8031 177.938 42.0682 178.154 42.2969C178.37 42.5257 178.623 42.7076 178.911 42.8428C179.199 42.9779 179.508 43.0455 179.837 43.0455C180.198 43.0455 180.512 42.9779 180.779 42.8428C181.057 42.7076 181.289 42.5413 181.474 42.3437C181.587 42.2502 181.695 42.1618 181.798 42.0786C181.901 41.9954 182.04 41.9539 182.215 41.9539C182.452 41.9539 182.648 42.0318 182.802 42.1878C182.967 42.3437 183.049 42.5413 183.049 42.7804C183.049 42.9675 182.967 43.1547 182.802 43.3418C182.504 43.7057 182.097 44.0124 181.582 44.2619C181.078 44.5114 180.496 44.6362 179.837 44.6362Z" fill="#2B7BA1"/>
<path d="M184.65 34.2812C184.65 34.042 184.732 33.8393 184.897 33.673C185.062 33.5066 185.262 33.4234 185.499 33.4234C185.736 33.4234 185.937 33.5066 186.101 33.673C186.266 33.8393 186.348 34.042 186.348 34.2812V37.0571C186.596 36.8595 186.884 36.6984 187.213 36.5736C187.543 36.4385 187.908 36.3709 188.31 36.3709C188.773 36.3709 189.2 36.4593 189.591 36.636C189.993 36.8023 190.343 37.0415 190.641 37.3534C190.94 37.6653 191.171 38.0447 191.336 38.4918C191.511 38.9388 191.599 39.4431 191.599 40.0045V43.7473C191.599 43.9864 191.516 44.1943 191.352 44.3711C191.187 44.5374 190.986 44.6206 190.749 44.6206C190.513 44.6206 190.312 44.5374 190.147 44.3711C189.982 44.1943 189.9 43.9864 189.9 43.7473V39.9421C189.9 39.2871 189.725 38.7933 189.375 38.4606C189.035 38.1279 188.618 37.9616 188.124 37.9616C187.877 37.9616 187.646 38.0032 187.429 38.0863C187.224 38.1695 187.038 38.2943 186.873 38.4606C186.709 38.6269 186.58 38.8349 186.487 39.0844C186.395 39.3339 186.348 39.6198 186.348 39.9421V43.7473C186.348 43.9864 186.266 44.1943 186.101 44.3711C185.937 44.5374 185.736 44.6206 185.499 44.6206C185.262 44.6206 185.062 44.5374 184.897 44.3711C184.732 44.1943 184.65 43.9864 184.65 43.7473V34.2812Z" fill="#2B7BA1"/>
<path d="M64.9512 38.5119C65.4757 38.6122 65.9206 38.9083 66.2859 39.4001C66.6511 39.8919 66.8338 40.4489 66.8338 41.0711C66.8338 41.6031 66.7027 42.0848 66.4404 42.5164C66.1875 42.9379 65.8176 43.2741 65.3305 43.525C64.8435 43.7659 64.2769 43.8863 63.6306 43.8863H59.725V33.4234H63.448C64.113 33.4234 64.6843 33.5439 65.1619 33.7848C65.6396 34.0256 66.0002 34.3518 66.2437 34.7633C66.4872 35.1648 66.609 35.6164 66.609 36.1182C66.609 36.7204 66.4591 37.2222 66.1594 37.6237C65.8597 38.0251 65.457 38.3212 64.9512 38.5119ZM61.3266 37.8194H63.3075C63.832 37.8194 64.2394 37.6939 64.5297 37.443C64.8295 37.1821 64.9793 36.8107 64.9793 36.329C64.9793 35.8573 64.8295 35.4909 64.5297 35.23C64.2394 34.959 63.832 34.8235 63.3075 34.8235H61.3266V37.8194ZM63.4901 42.4863C64.0333 42.4863 64.4595 42.3457 64.7686 42.0647C65.0777 41.7837 65.2322 41.3923 65.2322 40.8905C65.2322 40.3786 65.0683 39.9722 64.7405 39.6711C64.4127 39.37 63.9771 39.2194 63.4339 39.2194H61.3266V42.4863H63.4901Z" fill="#8B8B8B"/>
<path d="M75.5425 35.5913L70.794 47.7854H69.1362L70.7097 43.7508L67.661 35.5913H69.4453L71.6229 41.9142L73.8848 35.5913H75.5425Z" fill="#8B8B8B"/>
<path d="M11.3457 21.3009L4.67612 13.3259V21.3009H1V3.40192H4.67612V11.4283L11.3457 3.40192H15.7833L8.22095 12.2745L15.9933 21.3009H11.3457Z" fill="#A57F28"/>
<path d="M22.0874 9.29987C22.5601 8.54767 23.1728 7.95787 23.9255 7.53048C24.6957 7.10309 25.571 6.8894 26.5513 6.8894V10.659H25.5798C24.4244 10.659 23.5491 10.9239 22.954 11.4539C22.3763 11.9839 22.0874 12.907 22.0874 14.2234V21.3009H18.4113V7.09455H22.0874V9.29987Z" fill="#A57F28"/>
<path d="M42.5502 13.89C42.5502 14.4029 42.5152 14.8645 42.4452 15.2747H31.8107C31.8982 16.3005 32.2658 17.104 32.9135 17.6852C33.5612 18.2665 34.3577 18.5571 35.303 18.5571C36.6684 18.5571 37.64 17.9844 38.2177 16.839H42.1826C41.7625 18.2066 40.9572 19.3349 39.7669 20.2239C38.5765 21.0958 37.1148 21.5317 35.3818 21.5317C33.9814 21.5317 32.721 21.2325 31.6006 20.6342C30.4978 20.0188 29.6313 19.1554 29.0011 18.0442C28.3884 16.933 28.0821 15.6509 28.0821 14.1977C28.0821 12.7275 28.3884 11.4368 29.0011 10.3256C29.6138 9.21439 30.4715 8.35961 31.5744 7.76127C32.6772 7.16293 33.9463 6.86376 35.3818 6.86376C36.7647 6.86376 37.9988 7.15438 39.0842 7.73563C40.187 8.31688 41.036 9.14601 41.6312 10.223C42.2439 11.2829 42.5502 12.5053 42.5502 13.89ZM38.7428 12.8643C38.7253 11.9411 38.3839 11.206 37.7187 10.659C37.0535 10.0948 36.2395 9.81273 35.2767 9.81273C34.3665 9.81273 33.5962 10.0863 32.966 10.6333C32.3534 11.1633 31.977 11.9069 31.837 12.8643H38.7428Z" fill="#A57F28"/>
<path d="M44.2882 14.1464C44.2882 12.7104 44.577 11.4368 45.1547 10.3256C45.7499 9.21439 46.5464 8.35961 47.5442 7.76127C48.5595 7.16293 49.6886 6.86376 50.9314 6.86376C52.0168 6.86376 52.9621 7.07745 53.7673 7.50484C54.5901 7.93223 55.2465 8.47074 55.7367 9.12037V7.09455H59.439V21.3009H55.7367V19.2238C55.264 19.8905 54.6076 20.4461 53.7673 20.8906C52.9446 21.318 51.9905 21.5317 50.9052 21.5317C49.6798 21.5317 48.5595 21.224 47.5442 20.6086C46.5464 19.9931 45.7499 19.1298 45.1547 18.0186C44.577 16.8903 44.2882 15.5996 44.2882 14.1464ZM55.7367 14.1977C55.7367 13.3259 55.5616 12.5822 55.2115 11.9668C54.8614 11.3342 54.3888 10.8556 53.7936 10.5307C53.1984 10.1888 52.5594 10.0179 51.8767 10.0179C51.194 10.0179 50.5638 10.1803 49.9862 10.5051C49.4085 10.8299 48.9358 11.3086 48.5682 11.9411C48.2181 12.5566 48.0431 13.2917 48.0431 14.1464C48.0431 15.0012 48.2181 15.7534 48.5682 16.4031C48.9358 17.0356 49.4085 17.5228 49.9862 17.8647C50.5813 18.2066 51.2115 18.3776 51.8767 18.3776C52.5594 18.3776 53.1984 18.2152 53.7936 17.8904C54.3888 17.5485 54.8614 17.0698 55.2115 16.4543C55.5616 15.8218 55.7367 15.0696 55.7367 14.1977Z" fill="#A57F28"/>
<path d="M67.3095 10.0435V16.9159C67.3095 17.3946 67.4232 17.7451 67.6508 17.9673C67.8959 18.1724 68.2985 18.275 68.8587 18.275H70.5655V21.3009H68.2548C65.1563 21.3009 63.6071 19.8307 63.6071 16.8903V10.0435H61.8741V7.09455H63.6071V3.58142H67.3095V7.09455H70.5655V10.0435H67.3095Z" fill="#A57F28"/>
<path d="M76.8856 7.09455V21.3009H73.2095V7.09455H76.8856Z" fill="#A57F28"/>
<path d="M86.5833 17.9929L90.2594 7.09455H94.1718L88.7889 21.3009H84.3251L78.9684 7.09455H82.9071L86.5833 17.9929Z" fill="#A57F28"/>
<path d="M109.759 13.89C109.759 14.4029 109.724 14.8645 109.654 15.2747H99.0199C99.1074 16.3005 99.4751 17.104 100.123 17.6852C100.77 18.2665 101.567 18.5571 102.512 18.5571C103.878 18.5571 104.849 17.9844 105.427 16.839H109.392C108.972 18.2066 108.166 19.3349 106.976 20.2239C105.786 21.0958 104.324 21.5317 102.591 21.5317C101.191 21.5317 99.9302 21.2325 98.8098 20.6342C97.707 20.0188 96.8405 19.1554 96.2103 18.0442C95.5976 16.933 95.2913 15.6509 95.2913 14.1977C95.2913 12.7275 95.5976 11.4368 96.2103 10.3256C96.823 9.21439 97.6808 8.35961 98.7836 7.76127C99.8864 7.16293 101.156 6.86376 102.591 6.86376C103.974 6.86376 105.208 7.15438 106.293 7.73563C107.396 8.31688 108.245 9.14601 108.84 10.223C109.453 11.2829 109.759 12.5053 109.759 13.89ZM105.952 12.8643C105.935 11.9411 105.593 11.206 104.928 10.659C104.263 10.0948 103.449 9.81273 102.486 9.81273C101.576 9.81273 100.805 10.0863 100.175 10.6333C99.5626 11.1633 99.1862 11.9069 99.0462 12.8643H105.952Z" fill="#A57F28"/>
<path d="M118.009 21.5317C116.819 21.5317 115.751 21.3266 114.806 20.9163C113.861 20.4889 113.108 19.9162 112.548 19.1982C112.005 18.4802 111.707 17.6852 111.655 16.8133H115.357C115.427 17.3604 115.699 17.8134 116.171 18.1724C116.661 18.5314 117.265 18.7109 117.983 18.7109C118.683 18.7109 119.226 18.5742 119.611 18.3007C120.014 18.0271 120.215 17.6767 120.215 17.2493C120.215 16.7877 119.97 16.4458 119.48 16.2235C119.007 15.9842 118.246 15.7278 117.195 15.4543C116.11 15.1978 115.217 14.9328 114.517 14.6593C113.834 14.3858 113.239 13.9669 112.732 13.4028C112.241 12.8386 111.996 12.0779 111.996 11.1205C111.996 10.3341 112.224 9.61614 112.679 8.96651C113.152 8.31688 113.817 7.80401 114.675 7.42791C115.55 7.05181 116.574 6.86376 117.747 6.86376C119.48 6.86376 120.863 7.29115 121.896 8.14592C122.928 8.9836 123.497 10.1205 123.602 11.5565H120.084C120.031 10.9923 119.786 10.5478 119.349 10.223C118.928 9.88111 118.359 9.71016 117.642 9.71016C116.977 9.71016 116.46 9.82983 116.093 10.0692C115.742 10.3085 115.567 10.6419 115.567 11.0693C115.567 11.5479 115.812 11.9155 116.303 12.1719C116.793 12.4113 117.554 12.6591 118.587 12.9156C119.637 13.172 120.504 13.437 121.187 13.7105C121.869 13.984 122.456 14.4114 122.946 14.9927C123.454 15.5568 123.716 16.309 123.734 17.2493C123.734 18.0699 123.497 18.805 123.025 19.4546C122.57 20.1042 121.904 20.6171 121.029 20.9932C120.171 21.3522 119.165 21.5317 118.009 21.5317Z" fill="#A57F28"/>
<path d="M130.427 9.14601C130.9 8.49638 131.548 7.95787 132.37 7.53048C133.211 7.086 134.165 6.86376 135.233 6.86376C136.475 6.86376 137.596 7.16293 138.594 7.76127C139.609 8.35961 140.405 9.21439 140.983 10.3256C141.578 11.4197 141.876 12.6933 141.876 14.1464C141.876 15.5996 141.578 16.8903 140.983 18.0186C140.405 19.1298 139.609 19.9931 138.594 20.6086C137.596 21.224 136.475 21.5317 135.233 21.5317C134.165 21.5317 133.219 21.318 132.397 20.8906C131.591 20.4632 130.935 19.9247 130.427 19.2751V28.0707H126.751V7.09455H130.427V9.14601ZM138.121 14.1464C138.121 13.2917 137.937 12.5566 137.57 11.9411C137.219 11.3086 136.747 10.8299 136.152 10.5051C135.574 10.1803 134.944 10.0179 134.261 10.0179C133.596 10.0179 132.966 10.1888 132.37 10.5307C131.793 10.8556 131.32 11.3342 130.953 11.9668C130.602 12.5993 130.427 13.343 130.427 14.1977C130.427 15.0525 130.602 15.7962 130.953 16.4287C131.32 17.0612 131.793 17.5485 132.37 17.8904C132.966 18.2152 133.596 18.3776 134.261 18.3776C134.944 18.3776 135.574 18.2066 136.152 17.8647C136.747 17.5228 137.219 17.0356 137.57 16.4031C137.937 15.7705 138.121 15.0183 138.121 14.1464Z" fill="#A57F28"/>
<path d="M143.602 14.1464C143.602 12.7104 143.891 11.4368 144.468 10.3256C145.064 9.21439 145.86 8.35961 146.858 7.76127C147.873 7.16293 149.002 6.86376 150.245 6.86376C151.331 6.86376 152.276 7.07745 153.081 7.50484C153.904 7.93223 154.56 8.47074 155.05 9.12037V7.09455H158.753V21.3009H155.05V19.2238C154.578 19.8905 153.921 20.4461 153.081 20.8906C152.258 21.318 151.304 21.5317 150.219 21.5317C148.994 21.5317 147.873 21.224 146.858 20.6086C145.86 19.9931 145.064 19.1298 144.468 18.0186C143.891 16.8903 143.602 15.5996 143.602 14.1464ZM155.05 14.1977C155.05 13.3259 154.875 12.5822 154.525 11.9668C154.175 11.3342 153.702 10.8556 153.107 10.5307C152.512 10.1888 151.873 10.0179 151.19 10.0179C150.508 10.0179 149.878 10.1803 149.3 10.5051C148.722 10.8299 148.25 11.3086 147.882 11.9411C147.532 12.5566 147.357 13.2917 147.357 14.1464C147.357 15.0012 147.532 15.7534 147.882 16.4031C148.25 17.0356 148.722 17.5228 149.3 17.8647C149.895 18.2066 150.525 18.3776 151.19 18.3776C151.873 18.3776 152.512 18.2152 153.107 17.8904C153.702 17.5485 154.175 17.0698 154.525 16.4543C154.875 15.8218 155.05 15.0696 155.05 14.1977Z" fill="#A57F28"/>
<path d="M161.398 14.1977C161.398 12.7275 161.704 11.4454 162.317 10.3512C162.93 9.24003 163.779 8.38526 164.864 7.78692C165.949 7.17148 167.192 6.86376 168.593 6.86376C170.396 6.86376 171.884 7.30824 173.056 8.19721C174.247 9.06908 175.043 10.3 175.446 11.8898H171.481C171.271 11.2744 170.912 10.7957 170.404 10.4538C169.914 10.0948 169.302 9.91531 168.566 9.91531C167.516 9.91531 166.684 10.2914 166.072 11.0436C165.459 11.7787 165.153 12.8301 165.153 14.1977C165.153 15.5483 165.459 16.5997 166.072 17.3519C166.684 18.087 167.516 18.4545 168.566 18.4545C170.054 18.4545 171.026 17.8049 171.481 16.5056H175.446C175.043 18.0442 174.247 19.2666 173.056 20.1726C171.866 21.0787 170.378 21.5317 168.593 21.5317C167.192 21.5317 165.949 21.2325 164.864 20.6342C163.779 20.0188 162.93 19.164 162.317 18.0699C161.704 16.9587 161.398 15.6679 161.398 14.1977Z" fill="#A57F28"/>
<path d="M191.662 13.89C191.662 14.4029 191.627 14.8645 191.557 15.2747H180.922C181.01 16.3005 181.377 17.104 182.025 17.6852C182.673 18.2665 183.469 18.5571 184.415 18.5571C185.78 18.5571 186.752 17.9844 187.329 16.839H191.294C190.874 18.2066 190.069 19.3349 188.879 20.2239C187.688 21.0958 186.226 21.5317 184.493 21.5317C183.093 21.5317 181.833 21.2325 180.712 20.6342C179.609 20.0188 178.743 19.1554 178.113 18.0442C177.5 16.933 177.194 15.6509 177.194 14.1977C177.194 12.7275 177.5 11.4368 178.113 10.3256C178.725 9.21439 179.583 8.35961 180.686 7.76127C181.789 7.16293 183.058 6.86376 184.493 6.86376C185.876 6.86376 187.11 7.15438 188.196 7.73563C189.299 8.31688 190.148 9.14601 190.743 10.223C191.356 11.2829 191.662 12.5053 191.662 13.89ZM187.854 12.8643C187.837 11.9411 187.496 11.206 186.83 10.659C186.165 10.0948 185.351 9.81273 184.388 9.81273C183.478 9.81273 182.708 10.0863 182.078 10.6333C181.465 11.1633 181.089 11.9069 180.949 12.8643H187.854Z" fill="#A57F28"/>
<path d="M77.3058 3.24379C77.3058 4.48299 76.2771 5.48757 75.0082 5.48757C73.7393 5.48757 72.7106 4.48299 72.7106 3.24379C72.7106 2.00458 73.7393 1 75.0082 1C76.2771 1 77.3058 2.00458 77.3058 3.24379Z" fill="#F89500"/>
<path d="M205.5 0.900391C207.322 0.900394 208.973 1.63874 210.167 2.83301C211.361 4.02727 212.1 5.67757 212.1 7.5C212.1 9.32249 211.361 10.9727 210.167 12.167C208.973 13.3613 207.322 14.0996 205.5 14.0996C203.678 14.0996 202.027 13.3613 200.833 12.167C199.639 10.9727 198.9 9.3225 198.9 7.5C198.9 5.67756 199.639 4.02727 200.833 2.83301C202.027 1.63874 203.678 0.900391 205.5 0.900391ZM205.5 1.90234C203.954 1.90234 202.555 2.52884 201.542 3.54199C200.529 4.55517 199.902 5.95408 199.902 7.5C199.902 9.04592 200.529 10.4449 201.542 11.458C202.555 12.4711 203.954 13.0977 205.5 13.0977C207.046 13.0977 208.445 12.4711 209.458 11.458C210.471 10.4449 211.098 9.04591 211.098 7.5C211.098 5.95409 210.471 4.55516 209.458 3.54199C208.445 2.52885 207.046 1.90235 205.5 1.90234ZM205.014 3.97852C205.187 3.97852 205.332 3.98188 205.451 3.99121C205.565 4.00029 205.669 4.01067 205.76 4.01953L205.768 4.02051V4.02148C206.039 4.06954 206.28 4.14365 206.492 4.24512H206.493C206.704 4.34866 206.883 4.47961 207.029 4.64062C207.177 4.80164 207.287 4.98614 207.359 5.19434L207.406 5.35352C207.447 5.51568 207.467 5.68947 207.467 5.87305C207.467 6.10808 207.435 6.32421 207.37 6.51758V6.51855C207.304 6.70804 207.21 6.87816 207.087 7.02637L207.086 7.02734C206.962 7.17363 206.816 7.30054 206.646 7.4082L206.646 7.40918C206.534 7.47839 206.414 7.53937 206.286 7.59473C206.332 7.62416 206.377 7.65542 206.42 7.69043C206.469 7.73114 206.516 7.77601 206.562 7.82422L206.69 7.97852L206.691 7.97949C206.774 8.09033 206.853 8.21689 206.925 8.35742C206.996 8.49703 207.068 8.65451 207.139 8.8291L207.749 10.3311L207.75 10.333C207.797 10.455 207.831 10.5497 207.846 10.6074L207.864 10.6836C207.869 10.7082 207.871 10.7315 207.871 10.7529C207.871 10.7952 207.863 10.8342 207.845 10.8711C207.819 10.9227 207.772 10.9542 207.724 10.9736L207.722 10.9746C207.677 10.9911 207.617 11.0031 207.551 11.0107C207.483 11.0185 207.394 11.0215 207.288 11.0215C207.194 11.0215 207.114 11.0186 207.051 11.0107C206.989 11.003 206.932 10.9898 206.883 10.9678H206.881C206.833 10.9453 206.791 10.9126 206.76 10.8672V10.8662C206.733 10.829 206.714 10.7848 206.699 10.7422L206.074 9.13574C206.002 8.95557 205.926 8.7913 205.849 8.6416C205.774 8.49684 205.686 8.37405 205.584 8.27051H205.583C205.486 8.16999 205.368 8.09257 205.231 8.03418V8.0332C205.1 7.97882 204.936 7.9502 204.739 7.9502H204.234V10.7529C204.234 10.7768 204.231 10.8 204.224 10.8223L204.19 10.8867C204.175 10.9078 204.156 10.9249 204.136 10.9385L204.071 10.9707C204.029 10.9864 203.977 10.9983 203.916 11.0078H203.915C203.849 11.0178 203.771 11.0215 203.682 11.0215C203.592 11.0215 203.514 11.0179 203.447 11.0078H203.446C203.387 10.9985 203.334 10.9862 203.291 10.9707V10.9717C203.244 10.9553 203.2 10.9291 203.169 10.8848C203.14 10.8446 203.129 10.7978 203.129 10.7529V4.44629C203.129 4.2946 203.169 4.1626 203.275 4.08008L203.276 4.0791L203.344 4.03516C203.413 3.99764 203.488 3.97852 203.566 3.97852H205.014ZM204.234 7.01758H205.018C205.248 7.01758 205.443 6.98955 205.604 6.93652C205.767 6.88063 205.901 6.80574 206.004 6.71387C206.109 6.62042 206.184 6.51171 206.233 6.38672L206.266 6.28809C206.293 6.18761 206.308 6.07956 206.308 5.96387C206.308 5.7133 206.252 5.50712 206.145 5.3418C206.043 5.18465 205.867 5.06269 205.601 4.98633C205.561 4.97491 205.518 4.96501 205.472 4.95703L205.322 4.9375C205.215 4.92716 205.075 4.92188 204.897 4.92188H204.234V7.01758Z" fill="#151207" stroke="#151207" stroke-width="0.2"/>
</svg>
