<svg width="201" height="46" viewBox="0 0 201 46" fill="none" xmlns="http://www.w3.org/2000/svg">
<path d="M84.0012 32.3546C84.1142 32.221 84.2324 32.1285 84.3558 32.0771C84.4894 32.0257 84.6178 32 84.7412 32C84.9878 32 85.1985 32.0874 85.3733 32.2621C85.548 32.4369 85.6353 32.6527 85.6353 32.9097V42.1608C85.6353 42.4075 85.548 42.6233 85.3733 42.8084C85.1985 42.9831 84.9878 43.0705 84.7412 43.0705C84.4842 43.0705 84.2684 42.9831 84.0937 42.8084C83.919 42.6233 83.8316 42.4075 83.8316 42.1608V40.6652H79.2652C79.0288 40.6652 78.8284 40.583 78.6639 40.4185C78.4995 40.254 78.4173 40.0536 78.4173 39.8172C78.4173 39.5808 78.4995 39.3803 78.6639 39.2159C78.8284 39.0514 79.0288 38.9692 79.2652 38.9692H83.8316V35.2071L77.5108 42.7621C77.4286 42.8443 77.3258 42.9163 77.2025 42.978C77.0792 43.0396 76.961 43.0705 76.8479 43.0705C76.6115 43.0705 76.4111 42.9883 76.2467 42.8238C76.0822 42.6593 76 42.4589 76 42.2225C76 42.13 76.0103 42.0426 76.0308 41.9604C76.0617 41.8678 76.1182 41.7702 76.2004 41.6674L84.0012 32.3546Z" fill="#2B7BA1"/>
<path d="M87.612 35.7775C87.612 35.5411 87.6942 35.3407 87.8587 35.1762C88.0231 35.0117 88.2235 34.9295 88.4599 34.9295C88.6963 34.9295 88.8967 35.0117 89.0612 35.1762C89.2256 35.3407 89.3078 35.5411 89.3078 35.7775V40.0793L93.3932 35.2071C93.5577 35.022 93.7529 34.9295 93.979 34.9295C94.2052 34.9295 94.3953 35.0015 94.5495 35.1454C94.7036 35.2893 94.7807 35.4743 94.7807 35.7004C94.7807 35.8855 94.719 36.0551 94.5957 36.2093L89.092 42.7775C88.9276 42.9728 88.7169 43.0705 88.4599 43.0705C88.2235 43.0705 88.0231 42.9883 87.8587 42.8238C87.6942 42.649 87.612 42.4435 87.612 42.207V35.7775Z" fill="#2B7BA1"/>
<path d="M95.9225 35.7775C95.9225 35.5411 96.0047 35.3407 96.1692 35.1762C96.3336 35.0117 96.534 34.9295 96.7704 34.9295C97.0068 34.9295 97.2072 35.0117 97.3716 35.1762C97.5361 35.3407 97.6183 35.5411 97.6183 35.7775V42.207C97.6183 42.4435 97.5361 42.649 97.3716 42.8238C97.2072 42.9883 97.0068 43.0705 96.7704 43.0705C96.534 43.0705 96.3336 42.9883 96.1692 42.8238C96.0047 42.649 95.9225 42.4435 95.9225 42.207V35.7775ZM96.7704 34.0352C96.4929 34.0352 96.2565 33.9376 96.0612 33.7423C95.866 33.5367 95.7683 33.3003 95.7683 33.033C95.7683 32.7555 95.866 32.5191 96.0612 32.3238C96.2565 32.1285 96.4929 32.0308 96.7704 32.0308C97.0479 32.0308 97.2843 32.1285 97.4796 32.3238C97.6748 32.5191 97.7725 32.7555 97.7725 33.033C97.7725 33.3003 97.6748 33.5367 97.4796 33.7423C97.2843 33.9376 97.0479 34.0352 96.7704 34.0352Z" fill="#2B7BA1"/>
<path d="M99.596 38.5066C99.596 37.9515 99.6833 37.453 99.858 37.011C100.043 36.569 100.29 36.1938 100.598 35.8855C100.917 35.5771 101.287 35.3407 101.708 35.1762C102.129 35.0015 102.582 34.9141 103.065 34.9141C103.548 34.9141 104 35.0015 104.421 35.1762C104.843 35.3407 105.208 35.5771 105.516 35.8855C105.835 36.1938 106.081 36.569 106.256 37.011C106.441 37.453 106.533 37.9515 106.533 38.5066V42.207C106.533 42.4435 106.451 42.649 106.287 42.8238C106.122 42.9883 105.922 43.0705 105.685 43.0705C105.449 43.0705 105.249 42.9883 105.084 42.8238C104.92 42.649 104.838 42.4435 104.838 42.207V38.4449C104.838 37.7974 104.663 37.3091 104.313 36.9802C103.974 36.6512 103.558 36.4868 103.065 36.4868C102.571 36.4868 102.15 36.6512 101.801 36.9802C101.461 37.3091 101.292 37.7974 101.292 38.4449V42.207C101.292 42.4435 101.21 42.649 101.045 42.8238C100.881 42.9883 100.68 43.0705 100.444 43.0705C100.207 43.0705 100.007 42.9883 99.8426 42.8238C99.6782 42.649 99.596 42.4435 99.596 42.207V38.5066Z" fill="#2B7BA1"/>
<path d="M108.755 42.0991V35.7775C108.755 35.5411 108.837 35.3407 109.002 35.1762C109.166 35.0117 109.366 34.9295 109.603 34.9295C109.839 34.9295 110.04 35.0117 110.204 35.1762C110.369 35.3407 110.451 35.5411 110.451 35.7775V40.0793L114.536 35.2071C114.701 35.022 114.896 34.9295 115.122 34.9295C115.348 34.9295 115.538 35.0015 115.692 35.1454C115.847 35.2893 115.924 35.4743 115.924 35.7004C115.924 35.906 115.862 36.0756 115.739 36.2093L107.768 45.7225C107.594 45.9075 107.398 46 107.182 46C106.946 46 106.751 45.928 106.597 45.7841C106.442 45.6402 106.365 45.4552 106.365 45.2291C106.365 45.0441 106.427 44.8745 106.55 44.7203L108.755 42.0991Z" fill="#2B7BA1"/>
<path d="M122.503 42.13C122.164 42.428 121.774 42.6645 121.332 42.8392C120.9 43.0037 120.437 43.0859 119.944 43.0859C119.389 43.0859 118.87 42.9831 118.387 42.7775C117.914 42.5617 117.503 42.2687 117.154 41.8987C116.815 41.5286 116.542 41.0969 116.337 40.6035C116.141 40.1101 116.044 39.5756 116.044 39C116.044 38.4347 116.141 37.9053 116.337 37.4119C116.542 36.9082 116.815 36.4714 117.154 36.1013C117.503 35.7313 117.914 35.4435 118.387 35.2379C118.87 35.022 119.389 34.9141 119.944 34.9141C120.437 34.9141 120.9 35.0015 121.332 35.1762C121.774 35.3407 122.164 35.5771 122.503 35.8855V35.7775C122.503 35.5411 122.585 35.3407 122.75 35.1762C122.914 35.0117 123.115 34.9295 123.351 34.9295C123.588 34.9295 123.788 35.0117 123.952 35.1762C124.117 35.3407 124.199 35.5411 124.199 35.7775V42.207C124.199 42.4435 124.117 42.649 123.952 42.8238C123.788 42.9883 123.588 43.0705 123.351 43.0705C123.115 43.0705 122.914 42.9883 122.75 42.8238C122.585 42.649 122.503 42.4435 122.503 42.207V42.13ZM120.129 41.5132C120.458 41.5132 120.766 41.4515 121.054 41.3282C121.342 41.1946 121.594 41.0198 121.81 40.804C122.025 40.5778 122.195 40.3106 122.318 40.0022C122.442 39.6938 122.503 39.3598 122.503 39V38.8921C122.483 38.5529 122.411 38.2394 122.287 37.9515C122.164 37.6535 121.994 37.3965 121.779 37.1806C121.563 36.9648 121.311 36.7952 121.023 36.6718C120.746 36.5485 120.448 36.4868 120.129 36.4868C119.8 36.4868 119.492 36.5536 119.204 36.6872C118.916 36.8106 118.665 36.9853 118.449 37.2115C118.233 37.4273 118.063 37.6894 117.94 37.9978C117.817 38.3062 117.755 38.6402 117.755 39C117.755 39.3598 117.817 39.6938 117.94 40.0022C118.063 40.3106 118.233 40.5778 118.449 40.804C118.665 41.0198 118.916 41.1946 119.204 41.3282C119.492 41.4515 119.8 41.5132 120.129 41.5132Z" fill="#2B7BA1"/>
<path d="M132.304 42.13C131.965 42.428 131.574 42.6645 131.133 42.8392C130.701 43.0037 130.238 43.0859 129.745 43.0859C129.19 43.0859 128.671 42.9831 128.188 42.7775C127.715 42.5617 127.304 42.2687 126.955 41.8987C126.615 41.5286 126.343 41.0969 126.138 40.6035C125.942 40.1101 125.845 39.5756 125.845 39C125.845 38.4347 125.942 37.9053 126.138 37.4119C126.343 36.9082 126.615 36.4714 126.955 36.1013C127.304 35.7313 127.715 35.4435 128.188 35.2379C128.671 35.022 129.19 34.9141 129.745 34.9141C130.238 34.9141 130.701 35.0015 131.133 35.1762C131.574 35.3407 131.965 35.5771 132.304 35.8855V35.7775C132.304 35.5411 132.386 35.3407 132.551 35.1762C132.715 35.0117 132.916 34.9295 133.152 34.9295C133.388 34.9295 133.589 35.0117 133.753 35.1762C133.918 35.3407 134 35.5411 134 35.7775V42.207C134 42.4435 133.918 42.649 133.753 42.8238C133.589 42.9883 133.388 43.0705 133.152 43.0705C132.916 43.0705 132.715 42.9883 132.551 42.8238C132.386 42.649 132.304 42.4435 132.304 42.207V42.13ZM129.93 41.5132C130.259 41.5132 130.567 41.4515 130.855 41.3282C131.143 41.1946 131.395 41.0198 131.61 40.804C131.826 40.5778 131.996 40.3106 132.119 40.0022C132.243 39.6938 132.304 39.3598 132.304 39V38.8921C132.284 38.5529 132.212 38.2394 132.088 37.9515C131.965 37.6535 131.795 37.3965 131.58 37.1806C131.364 36.9648 131.112 36.7952 130.824 36.6718C130.547 36.5485 130.249 36.4868 129.93 36.4868C129.601 36.4868 129.293 36.5536 129.005 36.6872C128.717 36.8106 128.465 36.9853 128.25 37.2115C128.034 37.4273 127.864 37.6894 127.741 37.9978C127.618 38.3062 127.556 38.6402 127.556 39C127.556 39.3598 127.618 39.6938 127.741 40.0022C127.864 40.3106 128.034 40.5778 128.25 40.804C128.465 41.0198 128.717 41.1946 129.005 41.3282C129.293 41.4515 129.601 41.5132 129.93 41.5132Z" fill="#2B7BA1"/>
<path d="M139 33.0035C139 32.7639 139.085 32.5592 139.255 32.3894C139.435 32.2197 139.644 32.1348 139.884 32.1348H143.931C144.161 32.1348 144.351 32.2147 144.501 32.3745C144.66 32.5242 144.74 32.714 144.74 32.9436C144.74 33.1733 144.66 33.368 144.501 33.5278C144.351 33.6875 144.161 33.7674 143.931 33.7674H140.769V36.5533H143.931C144.161 36.5533 144.351 36.6332 144.501 36.793C144.66 36.9527 144.74 37.1475 144.74 37.3771C144.74 37.6068 144.66 37.8015 144.501 37.9613C144.351 38.111 144.161 38.1859 143.931 38.1859H140.769V40.9719H143.931C144.161 40.9719 144.351 41.0517 144.501 41.2115C144.66 41.3713 144.74 41.566 144.74 41.7957C144.74 42.0253 144.66 42.22 144.501 42.3798C144.351 42.5396 144.161 42.6195 143.931 42.6195H139.884C139.644 42.6195 139.435 42.5346 139.255 42.3648C139.085 42.1851 139 41.9754 139 41.7357V33.0035Z" fill="#2B7BA1"/>
<path d="M152.269 41.8406C151.939 42.1302 151.559 42.3598 151.13 42.5296C150.71 42.6894 150.26 42.7692 149.781 42.7692C149.241 42.7692 148.737 42.6694 148.267 42.4697C147.807 42.26 147.408 41.9754 147.068 41.6159C146.738 41.2564 146.474 40.8371 146.274 40.3578C146.084 39.8785 145.989 39.3592 145.989 38.8C145.989 38.2509 146.084 37.7366 146.274 37.2573C146.474 36.768 146.738 36.3436 147.068 35.9842C147.408 35.6247 147.807 35.3451 148.267 35.1454C148.737 34.9357 149.241 34.8309 149.781 34.8309C150.26 34.8309 150.71 34.9157 151.13 35.0855C151.559 35.2453 151.939 35.4749 152.269 35.7745V32.8238C152.269 32.5941 152.349 32.3994 152.509 32.2397C152.669 32.0799 152.863 32 153.093 32C153.323 32 153.518 32.0799 153.678 32.2397C153.838 32.3994 153.918 32.5941 153.918 32.8238V41.9155C153.918 42.1451 153.838 42.3449 153.678 42.5146C153.518 42.6744 153.323 42.7543 153.093 42.7543C152.863 42.7543 152.669 42.6744 152.509 42.5146C152.349 42.3449 152.269 42.1451 152.269 41.9155V41.8406ZM149.961 41.2415C150.28 41.2415 150.58 41.1816 150.86 41.0617C151.14 40.9319 151.385 40.7622 151.594 40.5525C151.804 40.3328 151.969 40.0732 152.089 39.7736C152.209 39.4741 152.269 39.1495 152.269 38.8V38.6952C152.249 38.3657 152.179 38.0611 152.059 37.7815C151.939 37.492 151.774 37.2423 151.564 37.0326C151.355 36.8229 151.11 36.6582 150.83 36.5384C150.56 36.4185 150.27 36.3586 149.961 36.3586C149.641 36.3586 149.341 36.4235 149.061 36.5533C148.782 36.6732 148.537 36.8429 148.327 37.0626C148.117 37.2723 147.952 37.5269 147.832 37.8265C147.713 38.126 147.653 38.4506 147.653 38.8C147.653 39.1495 147.713 39.4741 147.832 39.7736C147.952 40.0732 148.117 40.3328 148.327 40.5525C148.537 40.7622 148.782 40.9319 149.061 41.0617C149.341 41.1816 149.641 41.2415 149.961 41.2415Z" fill="#2B7BA1"/>
<path d="M157.885 33.7674H155.892C155.662 33.7674 155.467 33.6875 155.308 33.5278C155.148 33.368 155.068 33.1733 155.068 32.9436C155.068 32.714 155.148 32.5242 155.308 32.3745C155.467 32.2147 155.662 32.1348 155.892 32.1348H161.647C161.877 32.1348 162.072 32.2147 162.232 32.3745C162.392 32.5242 162.472 32.714 162.472 32.9436C162.472 33.1733 162.392 33.368 162.232 33.5278C162.072 33.6875 161.877 33.7674 161.647 33.7674H159.654V41.8705C159.654 42.1102 159.564 42.3199 159.384 42.4996C159.214 42.6694 159.01 42.7543 158.77 42.7543C158.53 42.7543 158.32 42.6694 158.14 42.4996C157.97 42.3199 157.885 42.1102 157.885 41.8705V33.7674Z" fill="#2B7BA1"/>
<path d="M165.593 42.7692C165.023 42.7692 164.494 42.6694 164.004 42.4697C163.524 42.26 163.105 41.9754 162.745 41.6159C162.395 41.2564 162.12 40.8371 161.921 40.3578C161.721 39.8785 161.621 39.3592 161.621 38.8C161.621 38.2509 161.721 37.7366 161.921 37.2573C162.12 36.768 162.395 36.3436 162.745 35.9842C163.105 35.6247 163.524 35.3451 164.004 35.1454C164.494 34.9357 165.023 34.8309 165.593 34.8309C166.182 34.8309 166.697 34.9307 167.136 35.1304C167.576 35.3201 167.926 35.5298 168.186 35.7595C168.385 35.9392 168.485 36.1489 168.485 36.3886C168.485 36.4984 168.465 36.5983 168.425 36.6881C168.395 36.778 168.335 36.8779 168.246 36.9877L164.693 41.2415C164.544 41.4212 164.354 41.5111 164.124 41.5111C163.894 41.5111 163.704 41.4412 163.554 41.3014C163.414 41.1616 163.344 40.9818 163.344 40.7622C163.344 40.6723 163.354 40.5874 163.374 40.5075C163.404 40.4177 163.454 40.3378 163.524 40.2679L166.582 36.6282C166.452 36.5384 166.297 36.4734 166.117 36.4335C165.937 36.3836 165.763 36.3586 165.593 36.3586C165.273 36.3586 164.973 36.4235 164.693 36.5533C164.414 36.6732 164.169 36.8429 163.959 37.0626C163.749 37.2823 163.584 37.5419 163.464 37.8414C163.344 38.141 163.285 38.4605 163.285 38.8C163.285 39.1395 163.344 39.4591 163.464 39.7586C163.584 40.0482 163.744 40.3028 163.944 40.5225C164.154 40.7422 164.399 40.9169 164.678 41.0468C164.958 41.1766 165.263 41.2415 165.593 41.2415C165.942 41.2415 166.247 41.1766 166.507 41.0468C166.777 40.9169 167.002 40.7572 167.181 40.5675C167.301 40.4676 167.411 40.3827 167.511 40.3128C167.611 40.2329 167.741 40.193 167.901 40.193C168.131 40.193 168.32 40.2679 168.47 40.4177C168.63 40.5675 168.71 40.7572 168.71 40.9868C168.71 41.1666 168.63 41.3463 168.47 41.5261C168.181 41.8755 167.786 42.1701 167.286 42.4098C166.797 42.6494 166.232 42.7692 165.593 42.7692Z" fill="#2B7BA1"/>
<path d="M173.584 42.7692C173.015 42.7692 172.485 42.6694 171.996 42.4697C171.516 42.26 171.096 41.9754 170.737 41.6159C170.387 41.2564 170.112 40.8371 169.912 40.3578C169.712 39.8785 169.612 39.3592 169.612 38.8C169.612 38.2509 169.712 37.7366 169.912 37.2573C170.112 36.768 170.387 36.3436 170.737 35.9842C171.096 35.6247 171.516 35.3451 171.996 35.1454C172.485 34.9357 173.015 34.8309 173.584 34.8309C174.214 34.8309 174.778 34.9507 175.278 35.1903C175.777 35.42 176.172 35.7046 176.462 36.0441C176.622 36.2338 176.702 36.4235 176.702 36.6132C176.702 36.8429 176.622 37.0276 176.462 37.1674C176.312 37.3072 176.122 37.3771 175.892 37.3771C175.723 37.3771 175.588 37.3422 175.488 37.2723C175.398 37.2024 175.298 37.1225 175.188 37.0326C174.998 36.8429 174.773 36.6831 174.514 36.5533C174.254 36.4235 173.944 36.3586 173.584 36.3586C173.265 36.3586 172.965 36.4235 172.685 36.5533C172.405 36.6732 172.16 36.8429 171.951 37.0626C171.741 37.2823 171.576 37.5419 171.456 37.8414C171.336 38.141 171.276 38.4605 171.276 38.8C171.276 39.1395 171.336 39.4591 171.456 39.7586C171.576 40.0482 171.741 40.3028 171.951 40.5225C172.16 40.7422 172.405 40.9169 172.685 41.0468C172.965 41.1766 173.265 41.2415 173.584 41.2415C173.934 41.2415 174.239 41.1766 174.499 41.0468C174.768 40.9169 174.993 40.7572 175.173 40.5675C175.283 40.4776 175.388 40.3927 175.488 40.3128C175.588 40.2329 175.723 40.193 175.892 40.193C176.122 40.193 176.312 40.2679 176.462 40.4177C176.622 40.5675 176.702 40.7572 176.702 40.9868C176.702 41.1666 176.622 41.3463 176.462 41.5261C176.172 41.8755 175.777 42.1701 175.278 42.4098C174.788 42.6494 174.224 42.7692 173.584 42.7692Z" fill="#2B7BA1"/>
<path d="M178.255 32.8238C178.255 32.5941 178.335 32.3994 178.495 32.2397C178.655 32.0799 178.85 32 179.08 32C179.31 32 179.504 32.0799 179.664 32.2397C179.824 32.3994 179.904 32.5941 179.904 32.8238V35.4899C180.144 35.3002 180.424 35.1454 180.743 35.0256C181.063 34.8958 181.418 34.8309 181.808 34.8309C182.257 34.8309 182.672 34.9157 183.052 35.0855C183.441 35.2453 183.781 35.4749 184.071 35.7745C184.361 36.074 184.585 36.4385 184.745 36.8679C184.915 37.2972 185 37.7815 185 38.3207V41.9155C185 42.1451 184.92 42.3449 184.76 42.5146C184.6 42.6744 184.405 42.7543 184.176 42.7543C183.946 42.7543 183.751 42.6744 183.591 42.5146C183.431 42.3449 183.351 42.1451 183.351 41.9155V38.2608C183.351 37.6318 183.181 37.1574 182.842 36.8379C182.512 36.5184 182.107 36.3586 181.628 36.3586C181.388 36.3586 181.163 36.3986 180.953 36.4784C180.753 36.5583 180.574 36.6782 180.414 36.8379C180.254 36.9977 180.129 37.1974 180.039 37.437C179.949 37.6767 179.904 37.9513 179.904 38.2608V41.9155C179.904 42.1451 179.824 42.3449 179.664 42.5146C179.504 42.6744 179.31 42.7543 179.08 42.7543C178.85 42.7543 178.655 42.6744 178.495 42.5146C178.335 42.3449 178.255 42.1451 178.255 41.9155V32.8238Z" fill="#2B7BA1"/>
<path d="M62.0727 36.8872C62.5818 36.9836 63.0136 37.2679 63.3682 37.7402C63.7227 38.2126 63.9 38.7476 63.9 39.3452C63.9 39.8561 63.7727 40.3188 63.5182 40.7333C63.2727 41.1381 62.9136 41.461 62.4409 41.702C61.9682 41.9334 61.4182 42.049 60.7909 42.049H57V32H60.6136C61.2591 32 61.8136 32.1157 62.2773 32.347C62.7409 32.5784 63.0909 32.8916 63.3273 33.2869C63.5636 33.6724 63.6818 34.1062 63.6818 34.5882C63.6818 35.1665 63.5364 35.6485 63.2455 36.0341C62.9546 36.4196 62.5636 36.704 62.0727 36.8872ZM58.5545 36.222H60.4773C60.9864 36.222 61.3818 36.1016 61.6636 35.8606C61.9545 35.6099 62.1 35.2533 62.1 34.7906C62.1 34.3375 61.9545 33.9857 61.6636 33.7351C61.3818 33.4748 60.9864 33.3447 60.4773 33.3447H58.5545V36.222ZM60.6545 40.7043C61.1818 40.7043 61.5955 40.5694 61.8955 40.2995C62.1955 40.0296 62.3455 39.6537 62.3455 39.1717C62.3455 38.6801 62.1864 38.2897 61.8682 38.0005C61.55 37.7113 61.1273 37.5667 60.6 37.5667H58.5545V40.7043H60.6545Z" fill="#8B8B8B"/>
<path d="M72.353 34.0821L67.7439 45.7939H66.1348L67.662 41.9189L64.703 34.0821H66.4348L68.5484 40.1549L70.7439 34.0821H72.353Z" fill="#8B8B8B"/>
<path d="M10.0418 19.4979L3.56814 11.8383V19.4979H0V2.30691H3.56814V10.0158L10.0418 2.30691H14.349L7.00885 10.8285L14.5529 19.4979H10.0418Z" fill="#A57F28"/>
<path d="M20.468 7.97158C20.9268 7.24913 21.5215 6.68266 22.2521 6.27218C22.9997 5.8617 23.8493 5.65646 24.8008 5.65646V9.27692H23.8578C22.7363 9.27692 21.8868 9.53142 21.3091 10.0404C20.7484 10.5494 20.468 11.4361 20.468 12.7003V19.4979H16.8999V5.85349H20.468V7.97158Z" fill="#A57F28"/>
<path d="M40.3297 12.3802C40.3297 12.8727 40.2958 13.3161 40.2278 13.7101H29.9057C29.9906 14.6953 30.3474 15.467 30.9761 16.0253C31.6048 16.5835 32.3779 16.8626 33.2954 16.8626C34.6207 16.8626 35.5637 16.3126 36.1244 15.2125H39.9729C39.5651 16.5261 38.7835 17.6097 37.6281 18.4635C36.4727 19.3009 35.054 19.7196 33.3719 19.7196C32.0126 19.7196 30.7892 19.4323 29.7018 18.8576C28.6313 18.2665 27.7903 17.4373 27.1786 16.3701C26.5839 15.3028 26.2866 14.0714 26.2866 12.6757C26.2866 11.2637 26.5839 10.024 27.1786 8.95674C27.7733 7.88948 28.6058 7.06852 29.6763 6.49384C30.7467 5.91916 31.9786 5.63183 33.3719 5.63183C34.7142 5.63183 35.912 5.91095 36.9655 6.46921C38.0359 7.02747 38.86 7.8238 39.4377 8.85822C40.0324 9.87622 40.3297 11.0502 40.3297 12.3802ZM36.6342 11.395C36.6172 10.5084 36.2858 9.80233 35.6402 9.27692C34.9945 8.73508 34.2044 8.46416 33.2699 8.46416C32.3864 8.46416 31.6388 8.72687 31.0271 9.25229C30.4324 9.76129 30.0671 10.4755 29.9312 11.395H36.6342Z" fill="#A57F28"/>
<path d="M42.0166 12.6265C42.0166 11.2472 42.297 10.024 42.8577 8.95674C43.4354 7.88948 44.2085 7.06852 45.177 6.49384C46.1625 5.91916 47.2584 5.63183 48.4648 5.63183C49.5182 5.63183 50.4357 5.83707 51.2173 6.24755C52.0159 6.65803 52.6531 7.17524 53.1288 7.79918V5.85349H56.7225V19.4979H53.1288V17.503C52.6701 18.1434 52.0329 18.677 51.2173 19.1039C50.4188 19.5144 49.4927 19.7196 48.4393 19.7196C47.2499 19.7196 46.1625 19.4241 45.177 18.833C44.2085 18.2419 43.4354 17.4127 42.8577 16.3454C42.297 15.2618 42.0166 14.0221 42.0166 12.6265ZM53.1288 12.6757C53.1288 11.8383 52.9589 11.1241 52.6191 10.533C52.2793 9.92548 51.8205 9.46574 51.2428 9.15377C50.6651 8.82539 50.045 8.66119 49.3823 8.66119C48.7196 8.66119 48.108 8.81718 47.5473 9.12914C46.9865 9.44111 46.5278 9.90085 46.171 10.5084C45.8312 11.0995 45.6612 11.8055 45.6612 12.6265C45.6612 13.4474 45.8312 14.1699 46.171 14.7938C46.5278 15.4013 46.9865 15.8693 47.5473 16.1977C48.125 16.5261 48.7366 16.6902 49.3823 16.6902C50.045 16.6902 50.6651 16.5343 51.2428 16.2223C51.8205 15.8939 52.2793 15.4342 52.6191 14.8431C52.9589 14.2356 53.1288 13.5131 53.1288 12.6757Z" fill="#A57F28"/>
<path d="M64.3617 8.68582V15.2864C64.3617 15.7461 64.4722 16.0827 64.693 16.2962C64.9309 16.4932 65.3217 16.5917 65.8654 16.5917H67.5221V19.4979H65.2792C62.2718 19.4979 60.7681 18.0859 60.7681 15.2618V8.68582H59.086V5.85349H60.7681V2.47932H64.3617V5.85349H67.5221V8.68582H64.3617Z" fill="#A57F28"/>
<path d="M73.6566 5.85349V19.4979H70.0885V5.85349H73.6566Z" fill="#A57F28"/>
<path d="M83.0694 16.3208L86.6375 5.85349H90.435L85.2102 19.4979H80.8775L75.6782 5.85349H79.5012L83.0694 16.3208Z" fill="#A57F28"/>
<path d="M105.565 12.3802C105.565 12.8727 105.531 13.3161 105.463 13.7101H95.1407C95.2257 14.6953 95.5825 15.467 96.2112 16.0253C96.8398 16.5835 97.6129 16.8626 98.5304 16.8626C99.8558 16.8626 100.799 16.3126 101.359 15.2125H105.208C104.8 16.5261 104.019 17.6097 102.863 18.4635C101.708 19.3009 100.289 19.7196 98.6069 19.7196C97.2476 19.7196 96.0242 19.4323 94.9368 18.8576C93.8664 18.2665 93.0253 17.4373 92.4136 16.3701C91.8189 15.3028 91.5216 14.0714 91.5216 12.6757C91.5216 11.2637 91.8189 10.024 92.4136 8.95674C93.0083 7.88948 93.8409 7.06852 94.9113 6.49384C95.9818 5.91916 97.2136 5.63183 98.6069 5.63183C99.9492 5.63183 101.147 5.91095 102.201 6.46921C103.271 7.02747 104.095 7.8238 104.673 8.85822C105.267 9.87622 105.565 11.0502 105.565 12.3802ZM101.869 11.395C101.852 10.5084 101.521 9.80233 100.875 9.27692C100.23 8.73508 99.4395 8.46416 98.505 8.46416C97.6214 8.46416 96.8738 8.72687 96.2621 9.25229C95.6674 9.76129 95.3021 10.4755 95.1662 11.395H101.869Z" fill="#A57F28"/>
<path d="M113.572 19.7196C112.417 19.7196 111.381 19.5226 110.463 19.1285C109.545 18.718 108.815 18.168 108.271 17.4784C107.744 16.7888 107.456 16.0253 107.405 15.1879H110.998C111.066 15.7133 111.33 16.1484 111.788 16.4932C112.264 16.838 112.85 17.0104 113.547 17.0104C114.227 17.0104 114.753 16.8791 115.127 16.6164C115.518 16.3536 115.713 16.017 115.713 15.6066C115.713 15.1632 115.475 14.8349 115 14.6214C114.541 14.3915 113.802 14.1452 112.782 13.8825C111.729 13.6362 110.862 13.3817 110.183 13.119C109.52 12.8563 108.942 12.4541 108.45 11.9122C107.974 11.3704 107.736 10.6397 107.736 9.72024C107.736 8.96495 107.957 8.27534 108.399 7.6514C108.857 7.02747 109.503 6.53489 110.336 6.17366C111.185 5.81244 112.179 5.63183 113.318 5.63183C115 5.63183 116.342 6.04231 117.344 6.86328C118.347 7.66782 118.899 8.75971 119.001 10.1389H115.586C115.535 9.59709 115.297 9.17019 114.872 8.85822C114.464 8.52984 113.912 8.36564 113.216 8.36564C112.57 8.36564 112.069 8.48058 111.712 8.71045C111.372 8.94032 111.202 9.2605 111.202 9.67098C111.202 10.1307 111.44 10.4837 111.916 10.73C112.391 10.9599 113.131 11.198 114.133 11.4443C115.153 11.6906 115.994 11.9451 116.656 12.2078C117.319 12.4705 117.888 12.881 118.364 13.4392C118.857 13.9811 119.111 14.7035 119.128 15.6066C119.128 16.3947 118.899 17.1007 118.44 17.7247C117.999 18.3486 117.353 18.8412 116.503 19.2024C115.671 19.5472 114.694 19.7196 113.572 19.7196Z" fill="#A57F28"/>
<path d="M125.626 7.82381C126.084 7.19987 126.713 6.68266 127.512 6.27218C128.327 5.84528 129.253 5.63183 130.29 5.63183C131.496 5.63183 132.583 5.91916 133.552 6.49384C134.537 7.06852 135.311 7.88948 135.871 8.95674C136.449 10.0076 136.738 11.2308 136.738 12.6265C136.738 14.0221 136.449 15.2618 135.871 16.3454C135.311 17.4127 134.537 18.2419 133.552 18.833C132.583 19.4241 131.496 19.7196 130.29 19.7196C129.253 19.7196 128.336 19.5144 127.537 19.1039C126.756 18.6934 126.118 18.1762 125.626 17.5523V26H122.057V5.85349H125.626V7.82381ZM133.093 12.6265C133.093 11.8055 132.915 11.0995 132.558 10.5084C132.218 9.90085 131.759 9.44111 131.182 9.12914C130.621 8.81718 130.009 8.66119 129.347 8.66119C128.701 8.66119 128.089 8.82539 127.512 9.15377C126.951 9.46574 126.492 9.92548 126.135 10.533C125.796 11.1405 125.626 11.8548 125.626 12.6757C125.626 13.4967 125.796 14.2109 126.135 14.8184C126.492 15.426 126.951 15.8939 127.512 16.2223C128.089 16.5343 128.701 16.6902 129.347 16.6902C130.009 16.6902 130.621 16.5261 131.182 16.1977C131.759 15.8693 132.218 15.4013 132.558 14.7938C132.915 14.1863 133.093 13.4638 133.093 12.6265Z" fill="#A57F28"/>
<path d="M138.413 12.6265C138.413 11.2472 138.694 10.024 139.254 8.95674C139.832 7.88948 140.605 7.06852 141.574 6.49384C142.559 5.91916 143.655 5.63183 144.861 5.63183C145.915 5.63183 146.832 5.83707 147.614 6.24755C148.412 6.65803 149.05 7.17524 149.525 7.79918V5.85349H153.119V19.4979H149.525V17.503C149.067 18.1434 148.429 18.677 147.614 19.1039C146.815 19.5144 145.889 19.7196 144.836 19.7196C143.646 19.7196 142.559 19.4241 141.574 18.833C140.605 18.2419 139.832 17.4127 139.254 16.3454C138.694 15.2618 138.413 14.0221 138.413 12.6265ZM149.525 12.6757C149.525 11.8383 149.355 11.1241 149.016 10.533C148.676 9.92548 148.217 9.46574 147.639 9.15377C147.062 8.82539 146.441 8.66119 145.779 8.66119C145.116 8.66119 144.504 8.81718 143.944 9.12914C143.383 9.44111 142.924 9.90085 142.567 10.5084C142.228 11.0995 142.058 11.8055 142.058 12.6265C142.058 13.4474 142.228 14.1699 142.567 14.7938C142.924 15.4013 143.383 15.8693 143.944 16.1977C144.521 16.5261 145.133 16.6902 145.779 16.6902C146.441 16.6902 147.062 16.5343 147.639 16.2223C148.217 15.8939 148.676 15.4342 149.016 14.8431C149.355 14.2356 149.525 13.5131 149.525 12.6757Z" fill="#A57F28"/>
<path d="M155.686 12.6757C155.686 11.2637 155.984 10.0322 156.578 8.98137C157.173 7.91411 157.997 7.09315 159.051 6.51847C160.104 5.92737 161.31 5.63183 162.67 5.63183C164.42 5.63183 165.864 6.05873 167.002 6.91253C168.158 7.74992 168.931 8.93211 169.322 10.4591H165.473C165.269 9.86801 164.921 9.40827 164.428 9.07988C163.953 8.73508 163.358 8.56268 162.644 8.56268C161.625 8.56268 160.818 8.9239 160.223 9.64635C159.628 10.3524 159.331 11.3622 159.331 12.6757C159.331 13.9728 159.628 14.9826 160.223 15.7051C160.818 16.4111 161.625 16.7641 162.644 16.7641C164.089 16.7641 165.032 16.1402 165.473 14.8923H169.322C168.931 16.3701 168.158 17.544 167.002 18.4143C165.847 19.2845 164.403 19.7196 162.67 19.7196C161.31 19.7196 160.104 19.4323 159.051 18.8576C157.997 18.2665 157.173 17.4455 156.578 16.3947C155.984 15.3274 155.686 14.0878 155.686 12.6757Z" fill="#A57F28"/>
<path d="M185.061 12.3802C185.061 12.8727 185.027 13.3161 184.959 13.7101H174.637C174.722 14.6953 175.079 15.467 175.708 16.0253C176.336 16.5835 177.11 16.8626 178.027 16.8626C179.352 16.8626 180.295 16.3126 180.856 15.2125H184.705C184.297 16.5261 183.515 17.6097 182.36 18.4635C181.204 19.3009 179.786 19.7196 178.104 19.7196C176.744 19.7196 175.521 19.4323 174.433 18.8576C173.363 18.2665 172.522 17.4373 171.91 16.3701C171.316 15.3028 171.018 14.0714 171.018 12.6757C171.018 11.2637 171.316 10.024 171.91 8.95674C172.505 7.88948 173.338 7.06852 174.408 6.49384C175.478 5.91916 176.71 5.63183 178.104 5.63183C179.446 5.63183 180.644 5.91095 181.697 6.46921C182.768 7.02747 183.592 7.8238 184.169 8.85822C184.764 9.87622 185.061 11.0502 185.061 12.3802ZM181.366 11.395C181.349 10.5084 181.018 9.80233 180.372 9.27692C179.726 8.73508 178.936 8.46416 178.002 8.46416C177.118 8.46416 176.37 8.72687 175.759 9.25229C175.164 9.76129 174.799 10.4755 174.663 11.395H181.366Z" fill="#A57F28"/>
<path d="M74.0644 2.15504C74.0644 3.34523 73.0659 4.31007 71.8343 4.31007C70.6027 4.31007 69.6042 3.34523 69.6042 2.15504C69.6042 0.964843 70.6027 0 71.8343 0C73.0659 0 74.0644 0.964843 74.0644 2.15504Z" fill="#F89500"/>
<path d="M193.459 0H189.689C189.522 4.40401e-09 189.362 0.058703 189.245 0.163195C189.127 0.267687 189.061 0.409409 189.061 0.557183C189.061 0.704957 189.127 0.846679 189.245 0.951171C189.362 1.05566 189.522 1.11437 189.689 1.11437H190.946V5.01425C190.946 5.16202 191.012 5.30374 191.13 5.40823C191.247 5.51273 191.407 5.57143 191.574 5.57143C191.741 5.57143 191.901 5.51273 192.018 5.40823C192.136 5.30374 192.202 5.16202 192.202 5.01425V1.11437H193.459C193.626 1.11437 193.786 1.05566 193.904 0.951171C194.022 0.846679 194.088 0.704957 194.088 0.557183C194.088 0.409409 194.022 0.267687 193.904 0.163195C193.786 0.058703 193.626 4.40401e-09 193.459 0ZM200.95 0.345515C200.886 0.209373 200.764 0.101187 200.61 0.0446602C200.457 -0.01102 200.286 -0.01102 200.133 0.0446602C200.056 0.0714028 199.985 0.110982 199.925 0.161793L198.172 1.72169L196.419 0.161793C196.359 0.111047 196.289 0.0712427 196.212 0.0446602C196.059 -0.0110933 195.887 -0.0110933 195.734 0.0446602C195.58 0.101087 195.459 0.209395 195.395 0.345515C195.363 0.412372 195.345 0.484577 195.344 0.557317V5.01425C195.344 5.16198 195.411 5.30367 195.529 5.40814C195.646 5.51261 195.806 5.5713 195.973 5.5713C196.139 5.5713 196.299 5.51261 196.417 5.40814C196.535 5.30367 196.601 5.16198 196.601 5.01425V1.8998L197.726 2.90265C197.785 2.95483 197.854 2.99625 197.931 3.02451C198.007 3.05278 198.089 3.06733 198.172 3.06733C198.255 3.06733 198.337 3.05278 198.414 3.02451C198.49 2.99625 198.56 2.95483 198.618 2.90265L199.743 1.8998V5.01425C199.743 5.16202 199.809 5.30374 199.927 5.40823C200.045 5.51273 200.205 5.57143 200.372 5.57143C200.538 5.57143 200.698 5.51273 200.816 5.40823C200.934 5.30374 201 5.16202 201 5.01425V0.557317C200.999 0.484475 200.982 0.412516 200.95 0.345515Z" fill="#151207"/>
</svg>
