<svg width="176" height="40" viewBox="0 0 176 40" fill="none" xmlns="http://www.w3.org/2000/svg">
<path d="M8.83739 18.1028L3.14019 10.9913V18.1028H0V2.14185H3.14019V9.29913L8.83739 2.14185H12.628L6.16823 10.0537L12.8075 18.1028H8.83739Z" fill="#A57F28"/>
<path d="M18.0131 7.40119C18.4169 6.73043 18.9402 6.2045 19.5832 5.82339C20.2412 5.44228 20.9888 5.25172 21.8262 5.25172V8.61313H20.9963C20.0094 8.61313 19.2617 8.84942 18.7533 9.32199C18.2599 9.79457 18.0131 10.6178 18.0131 11.7916V18.1028H14.873V5.43465H18.0131V7.40119Z" fill="#A57F28"/>
<path d="M35.4927 11.4943C35.4927 11.9517 35.4628 12.3633 35.403 12.7291H26.3189C26.3936 13.6438 26.7077 14.3603 27.2609 14.8786C27.8142 15.3969 28.4946 15.6561 29.3021 15.6561C30.4684 15.6561 31.2983 15.1454 31.7918 14.124H35.1787C34.8198 15.3436 34.132 16.3497 33.1151 17.1424C32.0983 17.9199 30.8497 18.3086 29.3693 18.3086C28.1731 18.3086 27.0964 18.0418 26.1394 17.5083C25.1974 16.9595 24.4572 16.1896 23.9189 15.1987C23.3955 14.2079 23.1338 13.0645 23.1338 11.7687C23.1338 10.4577 23.3955 9.30675 23.9189 8.31586C24.4422 7.32497 25.1749 6.56274 26.117 6.02919C27.0591 5.49563 28.1432 5.22885 29.3693 5.22885C30.5506 5.22885 31.6049 5.48801 32.532 6.00632C33.474 6.52463 34.1992 7.26399 34.7077 8.22439C35.231 9.16955 35.4927 10.2595 35.4927 11.4943ZM32.2404 10.5797C32.2254 9.75646 31.9338 9.10095 31.3656 8.61313C30.7974 8.11006 30.102 7.85853 29.2796 7.85853C28.502 7.85853 27.8441 8.10244 27.3058 8.59026C26.7824 9.06284 26.4609 9.72597 26.3413 10.5797H32.2404Z" fill="#A57F28"/>
<path d="M36.9773 11.723C36.9773 10.4425 37.224 9.30675 37.7175 8.31586C38.2259 7.32497 38.9063 6.56274 39.7586 6.02919C40.6259 5.49563 41.5904 5.22885 42.6521 5.22885C43.5792 5.22885 44.3866 5.41941 45.0745 5.80052C45.7773 6.18163 46.338 6.66183 46.7567 7.24112V5.43465H49.9193V18.1028H46.7567V16.2506C46.353 16.8451 45.7922 17.3406 45.0745 17.7369C44.3717 18.1181 43.5567 18.3086 42.6296 18.3086C41.5829 18.3086 40.6259 18.0342 39.7586 17.4854C38.9063 16.9366 38.2259 16.1668 37.7175 15.1759C37.224 14.1697 36.9773 13.0188 36.9773 11.723ZM46.7567 11.7687C46.7567 10.9913 46.6072 10.3281 46.3081 9.77933C46.0091 9.21528 45.6053 8.78844 45.0969 8.49879C44.5885 8.1939 44.0427 8.04146 43.4595 8.04146C42.8764 8.04146 42.338 8.18628 41.8446 8.47593C41.3511 8.76557 40.9474 9.19242 40.6334 9.75646C40.3343 10.3053 40.1848 10.9608 40.1848 11.723C40.1848 12.4852 40.3343 13.156 40.6334 13.7353C40.9474 14.2993 41.3511 14.7338 41.8446 15.0387C42.353 15.3436 42.8913 15.496 43.4595 15.496C44.0427 15.496 44.5885 15.3512 45.0969 15.0615C45.6053 14.7567 46.0091 14.3298 46.3081 13.781C46.6072 13.217 46.7567 12.5462 46.7567 11.7687Z" fill="#A57F28"/>
<path d="M56.6424 8.06433V14.1926C56.6424 14.6195 56.7396 14.932 56.9339 15.1301C57.1433 15.3131 57.4872 15.4045 57.9657 15.4045H59.4237V18.1028H57.4498C54.8031 18.1028 53.4797 16.7918 53.4797 14.1697V8.06433H51.9994V5.43465H53.4797V2.30191H56.6424V5.43465H59.4237V8.06433H56.6424Z" fill="#A57F28"/>
<path d="M64.8224 5.43465V18.1028H61.6823V5.43465H64.8224Z" fill="#A57F28"/>
<path d="M73.1063 15.153L76.2464 5.43465H79.5885L74.9904 18.1028H71.1773L66.6016 5.43465H69.9661L73.1063 15.153Z" fill="#A57F28"/>
<path d="M92.9036 11.4943C92.9036 11.9517 92.8737 12.3633 92.8139 12.7291H83.7298C83.8046 13.6438 84.1186 14.3603 84.6719 14.8786C85.2251 15.3969 85.9055 15.6561 86.713 15.6561C87.8793 15.6561 88.7092 15.1454 89.2027 14.124H92.5896C92.2307 15.3436 91.5429 16.3497 90.5261 17.1424C89.5092 17.9199 88.2607 18.3086 86.7803 18.3086C85.584 18.3086 84.5074 18.0418 83.5504 17.5083C82.6083 16.9595 81.8681 16.1896 81.3298 15.1987C80.8064 14.2079 80.5448 13.0645 80.5448 11.7687C80.5448 10.4577 80.8064 9.30675 81.3298 8.31586C81.8532 7.32497 82.5859 6.56274 83.5279 6.02919C84.47 5.49563 85.5541 5.22885 86.7803 5.22885C87.9616 5.22885 89.0158 5.48801 89.9429 6.00632C90.8849 6.52463 91.6102 7.26399 92.1186 8.22439C92.642 9.16955 92.9036 10.2595 92.9036 11.4943ZM89.6513 10.5797C89.6363 9.75646 89.3448 9.10095 88.7765 8.61313C88.2083 8.11006 87.513 7.85853 86.6906 7.85853C85.913 7.85853 85.255 8.10244 84.7167 8.59026C84.1934 9.06284 83.8719 9.72597 83.7522 10.5797H89.6513Z" fill="#A57F28"/>
<path d="M99.9508 18.3086C98.934 18.3086 98.0219 18.1257 97.2144 17.7598C96.4069 17.3787 95.7639 16.868 95.2854 16.2277C94.8219 15.5875 94.5677 14.8786 94.5228 14.1011H97.6854C97.7452 14.589 97.977 14.9929 98.3807 15.3131C98.7994 15.6332 99.3153 15.7933 99.9284 15.7933C100.527 15.7933 100.99 15.6713 101.319 15.4274C101.663 15.1835 101.835 14.871 101.835 14.4899C101.835 14.0783 101.626 13.7734 101.207 13.5752C100.803 13.3618 100.153 13.1331 99.2555 12.8892C98.3284 12.6605 97.5658 12.4242 96.9677 12.1803C96.3845 11.9364 95.8761 11.5629 95.4424 11.0599C95.0237 10.5568 94.8144 9.87842 94.8144 9.02473C94.8144 8.32348 95.0088 7.68321 95.3976 7.10392C95.8013 6.52463 96.3695 6.0673 97.1022 5.73192C97.8499 5.39654 98.7247 5.22885 99.7265 5.22885C101.207 5.22885 102.388 5.60997 103.27 6.37219C104.153 7.11917 104.639 8.13293 104.728 9.41346H101.723C101.678 8.91039 101.469 8.51404 101.095 8.22439C100.736 7.9195 100.25 7.76706 99.6368 7.76706C99.0686 7.76706 98.6275 7.87377 98.3134 8.08719C98.0144 8.30061 97.8649 8.59788 97.8649 8.97899C97.8649 9.40584 98.0742 9.7336 98.4929 9.96226C98.9116 10.1757 99.562 10.3967 100.444 10.6254C101.341 10.8541 102.082 11.0904 102.665 11.3343C103.248 11.5782 103.749 11.9593 104.168 12.4776C104.601 12.9807 104.826 13.6514 104.841 14.4899C104.841 15.2216 104.639 15.8771 104.235 16.4564C103.846 17.0357 103.278 17.493 102.53 17.8284C101.798 18.1485 100.938 18.3086 99.9508 18.3086Z" fill="#A57F28"/>
<path d="M110.558 7.26399C110.962 6.6847 111.515 6.2045 112.218 5.82339C112.936 5.42703 113.751 5.22885 114.663 5.22885C115.725 5.22885 116.682 5.49563 117.534 6.02919C118.401 6.56274 119.082 7.32497 119.575 8.31586C120.084 9.29151 120.338 10.4272 120.338 11.723C120.338 13.0188 120.084 14.1697 119.575 15.1759C119.082 16.1668 118.401 16.9366 117.534 17.4854C116.682 18.0342 115.725 18.3086 114.663 18.3086C113.751 18.3086 112.943 18.1181 112.241 17.7369C111.553 17.3558 110.992 16.8756 110.558 16.2963V24.1396H107.418V5.43465H110.558V7.26399ZM117.13 11.723C117.13 10.9608 116.973 10.3053 116.659 9.75646C116.36 9.19242 115.957 8.76557 115.448 8.47593C114.955 8.18628 114.416 8.04146 113.833 8.04146C113.265 8.04146 112.727 8.1939 112.218 8.49879C111.725 8.78844 111.321 9.21528 111.007 9.77933C110.708 10.3434 110.558 11.0065 110.558 11.7687C110.558 12.531 110.708 13.1941 111.007 13.7581C111.321 14.3222 111.725 14.7567 112.218 15.0615C112.727 15.3512 113.265 15.496 113.833 15.496C114.416 15.496 114.955 15.3436 115.448 15.0387C115.957 14.7338 116.36 14.2993 116.659 13.7353C116.973 13.1712 117.13 12.5005 117.13 11.723Z" fill="#A57F28"/>
<path d="M121.812 11.723C121.812 10.4425 122.059 9.30675 122.552 8.31586C123.061 7.32497 123.741 6.56274 124.594 6.02919C125.461 5.49563 126.425 5.22885 127.487 5.22885C128.414 5.22885 129.222 5.41941 129.909 5.80052C130.612 6.18163 131.173 6.66183 131.592 7.24112V5.43465H134.754V18.1028H131.592V16.2506C131.188 16.8451 130.627 17.3406 129.909 17.7369C129.207 18.1181 128.392 18.3086 127.465 18.3086C126.418 18.3086 125.461 18.0342 124.594 17.4854C123.741 16.9366 123.061 16.1668 122.552 15.1759C122.059 14.1697 121.812 13.0188 121.812 11.723ZM131.592 11.7687C131.592 10.9913 131.442 10.3281 131.143 9.77933C130.844 9.21528 130.44 8.78844 129.932 8.49879C129.424 8.1939 128.878 8.04146 128.295 8.04146C127.711 8.04146 127.173 8.18628 126.68 8.47593C126.186 8.76557 125.782 9.19242 125.468 9.75646C125.169 10.3053 125.02 10.9608 125.02 11.723C125.02 12.4852 125.169 13.156 125.468 13.7353C125.782 14.2993 126.186 14.7338 126.68 15.0387C127.188 15.3436 127.726 15.496 128.295 15.496C128.878 15.496 129.424 15.3512 129.932 15.0615C130.44 14.7567 130.844 14.3298 131.143 13.781C131.442 13.217 131.592 12.5462 131.592 11.7687Z" fill="#A57F28"/>
<path d="M137.014 11.7687C137.014 10.4577 137.275 9.31437 137.799 8.33873C138.322 7.34784 139.047 6.58561 139.975 6.05205C140.902 5.50325 141.963 5.22885 143.16 5.22885C144.7 5.22885 145.971 5.62521 146.973 6.41792C147.99 7.19539 148.67 8.29299 149.014 9.71073H145.627C145.447 9.16193 145.141 8.73508 144.707 8.43019C144.289 8.11006 143.765 7.94999 143.137 7.94999C142.24 7.94999 141.53 8.28537 141.006 8.95613C140.483 9.61164 140.221 10.5492 140.221 11.7687C140.221 12.973 140.483 13.9106 141.006 14.5813C141.53 15.2369 142.24 15.5646 143.137 15.5646C144.408 15.5646 145.238 14.9853 145.627 13.8267H149.014C148.67 15.1987 147.99 16.2887 146.973 17.0967C145.956 17.9046 144.685 18.3086 143.16 18.3086C141.963 18.3086 140.902 18.0418 139.975 17.5083C139.047 16.9595 138.322 16.1973 137.799 15.2216C137.275 14.2307 137.014 13.0798 137.014 11.7687Z" fill="#A57F28"/>
<path d="M162.866 11.4943C162.866 11.9517 162.836 12.3633 162.776 12.7291H153.692C153.767 13.6438 154.081 14.3603 154.634 14.8786C155.187 15.3969 155.868 15.6561 156.675 15.6561C157.841 15.6561 158.671 15.1454 159.165 14.124H162.552C162.193 15.3436 161.505 16.3497 160.488 17.1424C159.471 17.9199 158.223 18.3086 156.742 18.3086C155.546 18.3086 154.469 18.0418 153.512 17.5083C152.57 16.9595 151.83 16.1896 151.292 15.1987C150.768 14.2079 150.507 13.0645 150.507 11.7687C150.507 10.4577 150.768 9.30675 151.292 8.31586C151.815 7.32497 152.548 6.56274 153.49 6.02919C154.432 5.49563 155.516 5.22885 156.742 5.22885C157.924 5.22885 158.978 5.48801 159.905 6.00632C160.847 6.52463 161.572 7.26399 162.081 8.22439C162.604 9.16955 162.866 10.2595 162.866 11.4943ZM159.613 10.5797C159.598 9.75646 159.307 9.10095 158.739 8.61313C158.17 8.11006 157.475 7.85853 156.653 7.85853C155.875 7.85853 155.217 8.10244 154.679 8.59026C154.155 9.06284 153.834 9.72597 153.714 10.5797H159.613Z" fill="#A57F28"/>
<path d="M65.1813 2.00084C65.1813 3.10587 64.3026 4.00167 63.2187 4.00167C62.1348 4.00167 61.2561 3.10587 61.2561 2.00084C61.2561 0.895805 62.1348 0 63.2187 0C64.3026 0 65.1813 0.895805 65.1813 2.00084Z" fill="#FFA300"/>
<path d="M54.3644 32.7224C54.8124 32.8012 55.1924 33.0335 55.5044 33.4195C55.8164 33.8055 55.9724 34.2426 55.9724 34.731C55.9724 35.1484 55.8604 35.5265 55.6364 35.8652C55.4204 36.196 55.1044 36.4599 54.6884 36.6568C54.2724 36.8459 53.7884 36.9404 53.2364 36.9404H49.9004V28.7289H53.0804C53.6484 28.7289 54.1364 28.8234 54.5444 29.0125C54.9524 29.2015 55.2604 29.4575 55.4684 29.7804C55.6764 30.0955 55.7804 30.45 55.7804 30.8438C55.7804 31.3164 55.6524 31.7102 55.3964 32.0253C55.1404 32.3404 54.7964 32.5727 54.3644 32.7224ZM51.2684 32.1789H52.9604C53.4084 32.1789 53.7564 32.0805 54.0044 31.8835C54.2604 31.6787 54.3884 31.3873 54.3884 31.0092C54.3884 30.639 54.2604 30.3515 54.0044 30.1467C53.7564 29.934 53.4084 29.8277 52.9604 29.8277H51.2684V32.1789ZM53.1164 35.8416C53.5804 35.8416 53.9444 35.7313 54.2084 35.5108C54.4724 35.2902 54.6044 34.983 54.6044 34.5892C54.6044 34.1875 54.4644 33.8685 54.1844 33.6322C53.9044 33.3959 53.5324 33.2777 53.0684 33.2777H51.2684V35.8416H53.1164Z" fill="#8B8B8B"/>
<path d="M63.411 30.4303L59.355 40.0005H57.939L59.283 36.8341L56.679 30.4303H58.203L60.063 35.3926L61.995 30.4303H63.411Z" fill="#8B8B8B"/>
<path d="M72.5885 35.2627H69.0965L68.4965 36.9404H67.0685L70.0565 28.7171H71.6405L74.6285 36.9404H73.1885L72.5885 35.2627ZM72.2045 34.1638L70.8485 30.3476L69.4805 34.1638H72.2045Z" fill="#2B7BA1"/>
<path d="M78.4837 35.7353L80.3557 30.4303H81.8077L79.2877 36.9404H77.6557L75.1477 30.4303H76.6117L78.4837 35.7353Z" fill="#2B7BA1"/>
<path d="M83.5378 29.5678C83.2898 29.5678 83.0818 29.4851 82.9138 29.3197C82.7458 29.1542 82.6618 28.9495 82.6618 28.7053C82.6618 28.4611 82.7458 28.2563 82.9138 28.0909C83.0818 27.9255 83.2898 27.8428 83.5378 27.8428C83.7778 27.8428 83.9818 27.9255 84.1498 28.0909C84.3178 28.2563 84.4018 28.4611 84.4018 28.7053C84.4018 28.9495 84.3178 29.1542 84.1498 29.3197C83.9818 29.4851 83.7778 29.5678 83.5378 29.5678ZM84.2098 30.4303V36.9404H82.8418V30.4303H84.2098Z" fill="#2B7BA1"/>
<path d="M89.3419 30.3239C89.8619 30.3239 90.3259 30.4303 90.7339 30.643C91.1499 30.8556 91.4739 31.1707 91.7059 31.5882C91.9379 32.0056 92.0539 32.5097 92.0539 33.1005V36.9404H90.6979V33.3013C90.6979 32.7185 90.5499 32.2734 90.2539 31.9662C89.9579 31.6512 89.5539 31.4936 89.0419 31.4936C88.5299 31.4936 88.1219 31.6512 87.8179 31.9662C87.5219 32.2734 87.3739 32.7185 87.3739 33.3013V36.9404H86.0059V30.4303H87.3739V31.1746C87.5979 30.9068 87.8819 30.6981 88.2259 30.5484C88.5779 30.3988 88.9499 30.3239 89.3419 30.3239Z" fill="#2B7BA1"/>
<path d="M99.7508 30.4303L95.6948 40.0005H94.2788L95.6228 36.8341L93.0188 30.4303H94.5428L96.4028 35.3926L98.3348 30.4303H99.7508Z" fill="#2B7BA1"/>
<path d="M100.327 33.6558C100.327 33.002 100.463 32.4231 100.735 31.919C101.015 31.4149 101.391 31.025 101.863 30.7493C102.343 30.4657 102.871 30.3239 103.447 30.3239C103.967 30.3239 104.419 30.4263 104.803 30.6311C105.195 30.8281 105.507 31.0762 105.739 31.3755V30.4303H107.119V36.9404H105.739V35.9716C105.507 36.2788 105.191 36.5347 104.791 36.7395C104.391 36.9443 103.935 37.0467 103.423 37.0467C102.855 37.0467 102.335 36.905 101.863 36.6214C101.391 36.3299 101.015 35.9282 100.735 35.4162C100.463 34.8964 100.327 34.3096 100.327 33.6558ZM105.739 33.6794C105.739 33.2305 105.643 32.8406 105.451 32.5097C105.267 32.1789 105.023 31.9269 104.719 31.7536C104.415 31.5803 104.087 31.4936 103.735 31.4936C103.383 31.4936 103.055 31.5803 102.751 31.7536C102.447 31.919 102.199 32.1671 102.007 32.4979C101.823 32.8209 101.731 33.2068 101.731 33.6558C101.731 34.1048 101.823 34.4986 102.007 34.8373C102.199 35.176 102.447 35.4359 102.751 35.6171C103.063 35.7904 103.391 35.877 103.735 35.877C104.087 35.877 104.415 35.7904 104.719 35.6171C105.023 35.4438 105.267 35.1918 105.451 34.8609C105.643 34.5222 105.739 34.1284 105.739 33.6794Z" fill="#2B7BA1"/>
<path d="M108.46 33.6558C108.46 33.002 108.596 32.4231 108.868 31.919C109.148 31.4149 109.524 31.025 109.996 30.7493C110.476 30.4657 111.004 30.3239 111.58 30.3239C112.1 30.3239 112.552 30.4263 112.936 30.6311C113.328 30.8281 113.64 31.0762 113.872 31.3755V30.4303H115.252V36.9404H113.872V35.9716C113.64 36.2788 113.324 36.5347 112.924 36.7395C112.524 36.9443 112.068 37.0467 111.556 37.0467C110.988 37.0467 110.468 36.905 109.996 36.6214C109.524 36.3299 109.148 35.9282 108.868 35.4162C108.596 34.8964 108.46 34.3096 108.46 33.6558ZM113.872 33.6794C113.872 33.2305 113.776 32.8406 113.584 32.5097C113.4 32.1789 113.156 31.9269 112.852 31.7536C112.548 31.5803 112.22 31.4936 111.868 31.4936C111.516 31.4936 111.188 31.5803 110.884 31.7536C110.58 31.919 110.332 32.1671 110.14 32.4979C109.956 32.8209 109.864 33.2068 109.864 33.6558C109.864 34.1048 109.956 34.4986 110.14 34.8373C110.332 35.176 110.58 35.4359 110.884 35.6171C111.196 35.7904 111.524 35.877 111.868 35.877C112.22 35.877 112.548 35.7904 112.852 35.6171C113.156 35.4438 113.4 35.1918 113.584 34.8609C113.776 34.5222 113.872 34.1284 113.872 33.6794Z" fill="#2B7BA1"/>
<path d="M121.534 29.8159V32.2262H124.414V33.325H121.534V35.8416H124.774V36.9404H120.166V28.7171H124.774V29.8159H121.534Z" fill="#2B7BA1"/>
<path d="M126.003 33.6558C126.003 33.002 126.139 32.4231 126.411 31.919C126.691 31.4149 127.067 31.025 127.539 30.7493C128.019 30.4657 128.551 30.3239 129.135 30.3239C129.567 30.3239 129.991 30.4185 130.407 30.6075C130.831 30.7887 131.167 31.0328 131.415 31.34V28.1972H132.795V36.9404H131.415V35.9597C131.191 36.2748 130.879 36.5347 130.479 36.7395C130.087 36.9443 129.635 37.0467 129.123 37.0467C128.547 37.0467 128.019 36.905 127.539 36.6214C127.067 36.3299 126.691 35.9282 126.411 35.4162C126.139 34.8964 126.003 34.3096 126.003 33.6558ZM131.415 33.6794C131.415 33.2305 131.319 32.8406 131.127 32.5097C130.943 32.1789 130.699 31.9269 130.395 31.7536C130.091 31.5803 129.763 31.4936 129.411 31.4936C129.059 31.4936 128.731 31.5803 128.427 31.7536C128.123 31.919 127.875 32.1671 127.683 32.4979C127.499 32.8209 127.407 33.2068 127.407 33.6558C127.407 34.1048 127.499 34.4986 127.683 34.8373C127.875 35.176 128.123 35.4359 128.427 35.6171C128.739 35.7904 129.067 35.877 129.411 35.877C129.763 35.877 130.091 35.7904 130.395 35.6171C130.699 35.4438 130.943 35.1918 131.127 34.8609C131.319 34.5222 131.415 34.1284 131.415 33.6794Z" fill="#2B7BA1"/>
<path d="M139.98 28.7289V29.8277H137.76V36.9404H136.392V29.8277H134.16V28.7289H139.98Z" fill="#2B7BA1"/>
<path d="M147.425 33.5258C147.425 33.77 147.409 33.9906 147.377 34.1875H142.325C142.365 34.7073 142.561 35.1248 142.913 35.4399C143.265 35.7549 143.697 35.9125 144.209 35.9125C144.945 35.9125 145.465 35.6092 145.769 35.0027H147.245C147.045 35.6014 146.681 36.0936 146.153 36.4796C145.633 36.8577 144.985 37.0467 144.209 37.0467C143.577 37.0467 143.009 36.9089 142.505 36.6332C142.009 36.3496 141.617 35.9558 141.329 35.4517C141.049 34.9397 140.909 34.349 140.909 33.6794C140.909 33.0099 141.045 32.4231 141.317 31.919C141.597 31.407 141.985 31.0132 142.481 30.7375C142.985 30.4618 143.561 30.3239 144.209 30.3239C144.833 30.3239 145.389 30.4578 145.877 30.7257C146.365 30.9935 146.745 31.3715 147.017 31.8599C147.289 32.3404 147.425 32.8957 147.425 33.5258ZM145.997 33.1005C145.989 32.6043 145.809 32.2065 145.457 31.9072C145.105 31.6079 144.669 31.4582 144.149 31.4582C143.677 31.4582 143.273 31.6079 142.937 31.9072C142.601 32.1986 142.401 32.5964 142.337 33.1005H145.997Z" fill="#2B7BA1"/>
<path d="M148.315 33.6794C148.315 33.0099 148.451 32.4231 148.723 31.919C149.003 31.407 149.387 31.0132 149.875 30.7375C150.363 30.4618 150.923 30.3239 151.555 30.3239C152.355 30.3239 153.015 30.513 153.535 30.8911C154.063 31.2613 154.419 31.793 154.603 32.4861H153.127C153.007 32.1632 152.815 31.9111 152.551 31.7299C152.287 31.5488 151.955 31.4582 151.555 31.4582C150.995 31.4582 150.547 31.6551 150.211 32.0489C149.883 32.4349 149.719 32.9784 149.719 33.6794C149.719 34.3805 149.883 34.9279 150.211 35.3217C150.547 35.7156 150.995 35.9125 151.555 35.9125C152.347 35.9125 152.871 35.5698 153.127 34.8846H154.603C154.411 35.5462 154.051 36.074 153.523 36.4678C152.995 36.8538 152.339 37.0467 151.555 37.0467C150.923 37.0467 150.363 36.9089 149.875 36.6332C149.387 36.3496 149.003 35.9558 148.723 35.4517C148.451 34.9397 148.315 34.349 148.315 33.6794Z" fill="#2B7BA1"/>
<path d="M159.387 30.3239C159.891 30.3239 160.339 30.4303 160.731 30.643C161.131 30.8556 161.443 31.1707 161.667 31.5882C161.899 32.0056 162.015 32.5097 162.015 33.1005V36.9404H160.659V33.3013C160.659 32.7185 160.511 32.2734 160.215 31.9662C159.919 31.6512 159.515 31.4936 159.003 31.4936C158.491 31.4936 158.083 31.6512 157.779 31.9662C157.483 32.2734 157.335 32.7185 157.335 33.3013V36.9404H155.967V28.1972H157.335V31.1864C157.567 30.9108 157.859 30.6981 158.211 30.5484C158.571 30.3988 158.963 30.3239 159.387 30.3239Z" fill="#2B7BA1"/>
<path d="M169.363 0H166.045C165.899 4.08889e-09 165.758 0.0545026 165.654 0.151518C165.55 0.248533 165.492 0.380114 165.492 0.517315C165.492 0.654515 165.55 0.786096 165.654 0.883112C165.758 0.980127 165.899 1.03463 166.045 1.03463H167.151V4.65546C167.151 4.79266 167.209 4.92424 167.313 5.02126C167.417 5.11827 167.558 5.17278 167.704 5.17278C167.851 5.17278 167.992 5.11827 168.095 5.02126C168.199 4.92424 168.257 4.79266 168.257 4.65546V1.03463H169.363C169.51 1.03463 169.651 0.980127 169.754 0.883112C169.858 0.786096 169.916 0.654515 169.916 0.517315C169.916 0.380114 169.858 0.248533 169.754 0.151518C169.651 0.0545026 169.51 4.08889e-09 169.363 0ZM175.955 0.320792C175.899 0.194392 175.792 0.0939472 175.657 0.0414646C175.522 -0.0102315 175.371 -0.0102315 175.236 0.0414646C175.169 0.0662937 175.106 0.103041 175.054 0.150216L173.511 1.5985L171.968 0.150216C171.915 0.103101 171.853 0.0661451 171.786 0.0414646C171.651 -0.0102995 171.5 -0.0102995 171.365 0.0414646C171.23 0.0938541 171.123 0.194412 171.067 0.320792C171.038 0.382865 171.023 0.449904 171.022 0.517439V4.65546C171.022 4.79263 171.081 4.92418 171.184 5.02117C171.288 5.11816 171.429 5.17265 171.575 5.17265C171.722 5.17265 171.863 5.11816 171.966 5.02117C172.07 4.92418 172.128 4.79263 172.128 4.65546V1.76386L173.118 2.69495C173.17 2.7434 173.231 2.78186 173.298 2.8081C173.366 2.83434 173.438 2.84785 173.511 2.84785C173.584 2.84785 173.656 2.83434 173.724 2.8081C173.791 2.78186 173.852 2.7434 173.904 2.69495L174.894 1.76386V4.65546C174.894 4.79266 174.952 4.92424 175.056 5.02126C175.159 5.11827 175.3 5.17278 175.447 5.17278C175.593 5.17278 175.734 5.11827 175.838 5.02126C175.941 4.92424 176 4.79266 176 4.65546V0.517439C175.999 0.449809 175.984 0.382999 175.955 0.320792Z" fill="#1C1C1C"/>
</svg>
