<svg width="54" height="54" viewBox="0 0 54 54" fill="none" xmlns="http://www.w3.org/2000/svg">
<rect width="54" height="54" rx="27" fill="#5DAEFA"/>
<path d="M38.5955 18.5507C37.9042 18.5507 37.3244 18.3325 36.8561 17.8961C36.3878 17.4597 36.1536 16.9195 36.1536 16.2753C36.1536 15.6312 36.3878 15.0909 36.8561 14.6545C37.3244 14.2182 37.9042 14 38.5955 14C39.2644 14 39.8331 14.2182 40.3014 14.6545C40.7697 15.0909 41.0038 15.6312 41.0038 16.2753C41.0038 16.9195 40.7697 17.4597 40.3014 17.8961C39.8331 18.3325 39.2644 18.5507 38.5955 18.5507ZM40.4686 20.826V38H36.6554V20.826H40.4686Z" fill="white"/>
<path d="M9.06721 34.224C8.83812 33.5789 9.21362 32.8829 9.90593 32.6694L43.2645 22.3834C43.9568 22.1699 44.7037 22.5198 44.9328 23.1649C45.1619 23.81 44.7864 24.506 44.0941 24.7195L10.7355 35.0055C10.0432 35.219 9.2963 34.8691 9.06721 34.224Z" fill="white"/>
<path d="M33.967 37.7867L25.5488 16.4607H21.2914L12.8409 37.7867H16.7759L23.4201 20.0508L30.0966 37.7867H33.967Z" fill="white"/>
</svg>
