<svg width="54" height="54" viewBox="0 0 54 54" fill="none" xmlns="http://www.w3.org/2000/svg">
<circle cx="27" cy="27" r="27" fill="#A47764"/>
<g clip-path="url(#clip0_7283_21699)">
<path d="M27.345 30.0303C24.7048 30.0303 23.584 27.2029 23.555 27.2462C27.0524 17.4045 18.9211 15.4311 16.0617 21.2974C15.9917 21.487 15.9276 21.6761 15.8689 21.8638C15.6085 22.6985 15.3625 23.5096 15.0342 24.2392C11.811 31.403 17.3618 35.2086 27.345 35.2086C37.3282 35.2086 42.8791 31.403 39.6561 24.2392C39.3278 23.5096 39.0816 22.6985 38.8212 21.8638C38.7626 21.6761 38.6986 21.487 38.6286 21.2974C35.4321 14.7398 27.4236 18.5596 31.1353 27.2462C31.1353 27.2462 30.0261 30.0303 27.345 30.0303ZM38.6284 21.297L38.6233 21.2835C38.6247 21.2878 38.6265 21.2923 38.6284 21.297ZM16.0668 21.2835L16.0619 21.297C16.0637 21.2923 16.0654 21.2878 16.0668 21.2835Z" fill="white"/>
<path d="M24.0389 26.032C27.0569 17.0976 19.7311 14.6726 16.4609 20.4377C17.9541 17.4179 21.1008 14.5781 27.276 14.5781C33.4512 14.5781 36.5979 17.4179 38.0911 20.4377C34.821 14.6726 27.4951 17.0976 30.5131 26.032C29.6253 25.1718 28.4821 24.502 27.276 24.502C26.0699 24.502 24.9267 25.1718 24.0389 26.032Z" fill="white"/>
<path d="M23.5391 27.2654C23.8449 26.8442 25.3373 24.9375 27.2715 24.9375C29.2058 24.9375 30.6982 26.8442 31.004 27.2654C30.8516 27.2892 29.8559 27.4278 27.2715 27.4278C24.6872 27.4278 23.6915 27.2892 23.5391 27.2654Z" fill="white"/>
<path d="M23.5366 27.2754C23.6726 27.4009 24.8032 28.3682 27.2762 28.3682C29.7491 28.3682 30.8797 27.4009 31.0158 27.2754C31.0176 27.2778 31.0193 27.2803 31.0211 27.2825C30.9219 27.5045 29.9774 29.448 27.2762 29.448C24.5749 29.448 23.6304 27.5045 23.5312 27.2825C23.5331 27.2803 23.5347 27.2778 23.5366 27.2754Z" fill="white"/>
<path d="M20.6952 26.3074C21.9853 26.3074 23.031 24.8406 23.031 23.0311C23.031 21.2217 21.9853 19.7549 20.6952 19.7549C19.4052 19.7549 18.3594 21.2217 18.3594 23.0311C18.3594 24.8406 19.4052 26.3074 20.6952 26.3074Z" fill="white"/>
<path d="M22.7547 23.2736C22.7698 21.7059 21.8759 20.4263 20.7582 20.4155C19.6404 20.4048 18.7221 21.6669 18.707 23.2347C18.6919 24.8024 19.5858 26.082 20.7035 26.0927C21.8213 26.1035 22.7396 24.8413 22.7547 23.2736Z" fill="white"/>
<path d="M20.752 20.7472C20.6593 20.7459 20.5667 20.7559 20.4765 20.7772C20.0476 20.8773 19.7081 21.2095 19.482 21.5737C19.1786 22.0622 19.0382 22.6576 19.0315 23.2289C19.0248 23.8022 19.1519 24.4033 19.4451 24.9006C19.6636 25.2713 19.9972 25.6133 20.4257 25.7235C20.5134 25.7459 20.6034 25.7582 20.694 25.7594C20.7864 25.7606 20.8791 25.7506 20.9693 25.7294C21.3981 25.6294 21.7379 25.297 21.9639 24.933C22.2671 24.4446 22.4075 23.849 22.4145 23.2779C22.4212 22.7043 22.2939 22.1032 22.0009 21.606C21.7824 21.2352 21.4488 20.8933 21.0201 20.7831C20.9323 20.7606 20.8426 20.7484 20.752 20.7472Z" fill="#A47764"/>
<path d="M33.0625 35.6318C33.6489 37.0078 36.6624 39.724 38.8207 41.2347C39.0151 41.3708 39.2024 41.4971 39.3806 41.6116C43.4862 44.2543 39.574 36.5428 36.1351 34.71C35.231 35.0936 34.2023 35.4012 33.0625 35.6318Z" fill="white"/>
<path d="M32.958 35.653C33.5061 37.4731 37.799 41.6532 38.5054 42.24C37.3171 45.1518 33.8762 47.736 27.2761 47.736C20.6761 47.736 17.2352 45.1518 16.0469 42.24C16.7565 41.6505 21.086 37.4345 21.602 35.6279C23.286 35.9699 25.2131 36.1437 27.3427 36.1437C29.4196 36.1437 31.3039 35.9785 32.958 35.653Z" fill="white"/>
<path d="M21.4949 35.6063C20.934 36.9744 17.8973 39.714 15.7261 41.2337C15.5317 41.3698 15.3444 41.4961 15.1662 41.6106C11.0369 44.2686 15.0183 36.4523 18.4715 34.6777C19.3609 35.0621 20.3729 35.3721 21.4949 35.6063Z" fill="white"/>
<path d="M21.522 22.9609C21.9397 22.9609 22.2784 22.5082 22.2784 21.9497C22.2784 21.3912 21.9397 20.9385 21.522 20.9385C21.1043 20.9385 20.7656 21.3912 20.7656 21.9497C20.7656 22.5082 21.1043 22.9609 21.522 22.9609Z" fill="white"/>
<path d="M33.8593 26.3074C35.1493 26.3074 36.1951 24.8406 36.1951 23.0311C36.1951 21.2217 35.1493 19.7549 33.8593 19.7549C32.5692 19.7549 31.5234 21.2217 31.5234 23.0311C31.5234 24.8406 32.5692 26.3074 33.8593 26.3074Z" fill="white"/>
<path d="M33.8597 26.0923C34.9775 26.0815 35.8714 24.8019 35.8563 23.2342C35.8412 21.6665 34.9229 20.4043 33.8051 20.4151C32.6874 20.4259 31.7935 21.7054 31.8086 23.2732C31.8236 24.8409 32.742 26.103 33.8597 26.0923Z" fill="#A47764"/>
<path d="M33.0376 22.9609C33.4554 22.9609 33.794 22.5082 33.794 21.9497C33.794 21.3912 33.4554 20.9385 33.0376 20.9385C32.6199 20.9385 32.2812 21.3912 32.2812 21.9497C32.2812 22.5082 32.6199 22.9609 33.0376 22.9609Z" fill="white"/>
</g>
<path d="M34.1578 12.5245L34.1478 10.8018L35.8047 9.87468L26.78 5.11523L17.8047 9.96987L21.4031 12.0359L21.4103 13.2635L21.411 13.3616L21.4439 13.3459C21.406 13.3973 21.3817 13.4503 21.3824 13.5032C21.3853 14.107 23.8226 14.5848 26.8309 14.5684C29.8377 14.5527 32.2714 14.047 32.2693 13.4446C32.2693 13.3916 32.2414 13.3401 32.2042 13.2872L32.2371 13.3029V13.2049L32.2306 11.9723L33.7909 11.0015L33.7995 12.5267C33.6278 12.6004 33.5084 12.7692 33.5098 12.9667C33.5112 13.2257 33.7215 13.4353 33.9826 13.4331C34.2452 13.4317 34.4534 13.2199 34.4519 12.9617C34.4504 12.7642 34.3303 12.5968 34.1578 12.5245ZM26.8287 14.1528C24.1596 14.1678 21.9948 13.8744 21.9926 13.5003C21.9905 13.1262 24.1524 12.8121 26.8216 12.7985C29.4914 12.7835 31.6555 13.0754 31.6569 13.4488C31.659 13.8216 29.4985 14.1385 26.8287 14.1528ZM32.1076 10.9721C31.7463 10.5923 30.4514 9.58926 26.8044 9.61005C23.1523 9.62938 21.8739 10.6445 21.5169 11.0301L21.5148 10.6667C21.5148 10.6667 22.5507 9.09069 26.8016 9.0685C31.0503 9.04558 32.1055 10.6095 32.1055 10.6095L32.1076 10.9721ZM33.6027 13.5361L33.4189 16.2038C33.9876 15.3103 34.4627 15.6429 34.4627 15.6429L34.457 14.5873L34.4512 13.5318C33.8402 13.7715 33.6027 13.5361 33.6027 13.5361Z" fill="white"/>
<defs>
<clipPath id="clip0_7283_21699">
<rect width="27.7395" height="33.1573" fill="white" transform="translate(13.4062 14.5811)"/>
</clipPath>
</defs>
</svg>
