<svg width="46" height="46" viewBox="0 0 46 46" fill="none" xmlns="http://www.w3.org/2000/svg">
<path d="M31.3778 9.23754C31.3752 8.889 31.0737 8.56116 31.0717 8.21261L31.0674 7.48813C31.0657 7.1952 31.2234 6.9245 31.479 6.78146C32.0357 6.46998 32.0257 5.66551 31.4615 5.36796L25.5677 2.25972C24.2614 1.57078 22.6974 1.579 21.3984 2.28163L17.0806 4.6171C15.8379 5.28923 15.8154 7.06431 17.0406 7.76775C17.5975 8.0875 17.9424 8.67923 17.9461 9.32139L17.9475 9.54843L17.9481 9.63881C17.9482 9.64374 17.9533 9.64695 17.9578 9.64483C17.9641 9.6418 17.9705 9.64945 17.9667 9.65531C17.9366 9.70131 17.9181 9.74827 17.9187 9.79523C17.9217 10.417 20.4317 10.9091 23.5296 10.8922C26.626 10.876 29.1323 10.3552 29.1302 9.73483C29.1302 9.68766 29.1086 9.64161 29.078 9.59473C29.0741 9.58875 29.0806 9.58116 29.087 9.58424C29.0917 9.58645 29.097 9.58309 29.097 9.57799V9.48803L29.0927 8.66938C29.0912 8.3893 29.2352 8.12853 29.473 7.98057L29.7243 7.82423C30.1498 7.55952 30.7008 7.86361 30.7036 8.3647C30.705 8.62224 30.5057 8.84885 30.4294 9.09481C30.4149 9.14148 30.4072 9.19116 30.4076 9.24274C30.4091 9.50945 30.6257 9.72526 30.8946 9.72307C31.165 9.72156 31.3793 9.50349 31.3778 9.23754ZM23.5274 10.4642C20.7787 10.4796 18.5493 10.1775 18.5472 9.79229C18.545 9.40697 20.7713 9.08356 23.52 9.06954C26.2695 9.05408 28.498 9.35464 28.4995 9.73921C28.5017 10.1231 26.2768 10.4494 23.5274 10.4642ZM28.9617 6.85524C28.9624 6.97495 28.8099 7.0401 28.7154 6.96654C28.1193 6.5023 26.6752 5.76794 23.5023 5.78603C20.3261 5.80284 18.8933 6.55108 18.3031 7.02251C18.2095 7.09727 18.056 7.03394 18.0553 6.91415C18.0551 6.8881 18.062 6.86359 18.078 6.84303C18.253 6.61794 19.482 5.2493 23.4995 5.22834C27.5146 5.20668 28.7602 6.56111 28.9382 6.78429C28.9544 6.80469 28.9616 6.82915 28.9617 6.85524ZM30.7975 9.93284C30.584 9.9157 30.4805 10.1607 30.4658 10.3744L30.376 11.6765C30.3597 11.9137 31.0097 11.9016 31.2435 11.9445C31.4266 11.9782 31.3875 11.7414 31.3865 11.5552L31.383 10.9117L31.3791 10.1894C31.3782 10.0137 30.9726 9.9469 30.7975 9.93284Z" fill="white"/>
<g clip-path="url(#clip0_7289_21102)">
<path d="M23.5676 27.6109C20.9983 27.6109 19.9077 24.8595 19.8795 24.9016C23.2829 15.3246 15.3701 13.4041 12.5876 19.1128C12.5195 19.2972 12.4571 19.4813 12.3999 19.664C12.1466 20.4762 11.9071 21.2655 11.5876 21.9755C8.45107 28.9468 13.8527 32.65 23.5676 32.65C33.2825 32.65 38.6841 28.9468 35.5478 21.9755C35.2283 21.2655 34.9887 20.4762 34.7353 19.664C34.6783 19.4813 34.616 19.2972 34.5479 19.1128C31.4373 12.7314 23.6441 16.4486 27.256 24.9016C27.256 24.9016 26.1766 27.6109 23.5676 27.6109ZM34.5477 19.1124L34.5427 19.0993C34.5441 19.1034 34.5459 19.1078 34.5477 19.1124ZM12.5925 19.0993L12.5878 19.1124C12.5895 19.1078 12.5911 19.1034 12.5925 19.0993Z" fill="white"/>
<path d="M20.3431 23.7203C23.2799 15.026 16.151 12.6661 12.9688 18.2763C14.4218 15.3377 17.4839 12.5742 23.4931 12.5742C29.5024 12.5742 32.5645 15.3377 34.0175 18.2763C30.8353 12.6661 23.7064 15.026 26.6432 23.7203C25.7793 22.8832 24.6668 22.2313 23.4931 22.2313C22.3195 22.2313 21.207 22.8832 20.3431 23.7203Z" fill="white"/>
<path d="M19.8594 24.9206C20.157 24.5108 21.6092 22.6553 23.4915 22.6553C25.3738 22.6553 26.8261 24.5108 27.1237 24.9206C26.9754 24.9438 26.0064 25.0786 23.4915 25.0786C20.9766 25.0786 20.0077 24.9438 19.8594 24.9206Z" fill="white"/>
<path d="M19.8567 24.9307C19.9892 25.0528 21.0894 25.9941 23.4958 25.9941C25.9023 25.9941 27.0025 25.0528 27.1349 24.9307C27.1367 24.933 27.1383 24.9354 27.1401 24.9376C27.0436 25.1536 26.1245 27.0449 23.4958 27.0449C20.8672 27.0449 19.9481 25.1536 19.8516 24.9376C19.8533 24.9354 19.8549 24.933 19.8567 24.9307Z" fill="white"/>
<path d="M17.0934 23.9877C18.3487 23.9877 19.3664 22.5603 19.3664 20.7995C19.3664 19.0387 18.3487 17.6113 17.0934 17.6113C15.838 17.6113 14.8203 19.0387 14.8203 20.7995C14.8203 22.5603 15.838 23.9877 17.0934 23.9877Z" fill="white"/>
<path d="M19.0983 21.0354C19.113 19.5098 18.2431 18.2646 17.1554 18.2541C16.0677 18.2437 15.1741 19.4719 15.1594 20.9975C15.1447 22.523 16.0146 23.7682 17.1023 23.7787C18.19 23.7892 19.0836 22.5609 19.0983 21.0354Z" fill="white"/>
<path d="M17.151 18.5772C17.0609 18.5761 16.9707 18.5858 16.883 18.6064C16.4656 18.7039 16.1352 19.0272 15.9152 19.3816C15.62 19.8569 15.4834 20.4363 15.4768 20.9923C15.4703 21.5502 15.594 22.1351 15.8793 22.619C16.0919 22.9798 16.4166 23.3126 16.8335 23.4198C16.9189 23.4416 17.0065 23.4535 17.0946 23.4547C17.1846 23.4559 17.2747 23.4462 17.3625 23.4255C17.7798 23.3283 18.1104 23.0048 18.3304 22.6506C18.6255 22.1752 18.7621 21.5957 18.7688 21.0399C18.7754 20.4818 18.6515 19.8968 18.3664 19.413C18.1537 19.0522 17.8291 18.7194 17.4119 18.6122C17.3265 18.5904 17.2392 18.5784 17.151 18.5772Z" fill="#A47764"/>
<path d="M29.1328 33.0631C29.7035 34.4021 32.6359 37.0453 34.7362 38.5154C34.9254 38.6478 35.1077 38.7707 35.281 38.8821C39.2764 41.4538 35.4693 33.9496 32.1228 32.166C31.243 32.5393 30.2419 32.8387 29.1328 33.0631Z" fill="white"/>
<path d="M29.0269 33.083C29.5602 34.8541 33.7378 38.9219 34.4252 39.4929C33.2688 42.3265 29.9204 44.8412 23.4977 44.8412C17.0751 44.8412 13.7267 42.3265 12.5703 39.4929C13.2609 38.9193 17.474 34.8166 17.9762 33.0586C19.6148 33.3914 21.4902 33.5605 23.5625 33.5605C25.5836 33.5605 27.4172 33.3997 29.0269 33.083Z" fill="white"/>
<path d="M17.8712 33.0374C17.3254 34.3687 14.3703 37.0347 12.2575 38.5135C12.0683 38.646 11.886 38.7689 11.7127 38.8803C7.69433 41.4668 11.5687 33.8606 14.9291 32.1338C15.7945 32.5079 16.7794 32.8095 17.8712 33.0374Z" fill="white"/>
<path d="M17.9001 20.7317C18.3066 20.7317 18.6361 20.2912 18.6361 19.7477C18.6361 19.2042 18.3066 18.7637 17.9001 18.7637C17.4936 18.7637 17.1641 19.2042 17.1641 19.7477C17.1641 20.2912 17.4936 20.7317 17.9001 20.7317Z" fill="white"/>
<path d="M29.9059 23.9877C31.1612 23.9877 32.1789 22.5603 32.1789 20.7995C32.1789 19.0387 31.1612 17.6113 29.9059 17.6113C28.6505 17.6113 27.6328 19.0387 27.6328 20.7995C27.6328 22.5603 28.6505 23.9877 29.9059 23.9877Z" fill="white"/>
<path d="M29.8976 23.7781C30.9853 23.7676 31.8552 22.5224 31.8405 20.9968C31.8258 19.4713 30.9322 18.243 29.8445 18.2535C28.7568 18.264 27.8869 19.5092 27.9016 21.0347C27.9163 22.5603 28.8099 23.7886 29.8976 23.7781Z" fill="#A47764"/>
<path d="M29.1032 20.7317C29.5097 20.7317 29.8393 20.2912 29.8393 19.7477C29.8393 19.2042 29.5097 18.7637 29.1032 18.7637C28.6967 18.7637 28.3672 19.2042 28.3672 19.7477C28.3672 20.2912 28.6967 20.7317 29.1032 20.7317Z" fill="white"/>
</g>
<defs>
<clipPath id="clip0_7289_21102">
<rect width="26.9939" height="32.2661" fill="white" transform="translate(10 12.5762)"/>
</clipPath>
</defs>
</svg>
