<svg width="54" height="54" viewBox="0 0 54 54" fill="none" xmlns="http://www.w3.org/2000/svg">
<circle cx="27" cy="27" r="27" fill="#9A9A9A"/>
<path d="M14.0967 25.5493H13.3467H14.0967ZM14.0967 28.0869L13.5684 28.6193C13.8608 28.9094 14.3325 28.9094 14.6249 28.6193L14.0967 28.0869ZM17.1825 26.0817C17.4766 25.7899 17.4784 25.3151 17.1867 25.021C16.8949 24.727 16.4201 24.7251 16.126 25.0169L17.1825 26.0817ZM12.0673 25.0169C11.7733 24.7251 11.2984 24.727 11.0067 25.021C10.7149 25.3151 10.7168 25.7899 11.0108 26.0817L12.0673 25.0169ZM37.171 19.3443C37.388 19.6972 37.8499 19.8074 38.2027 19.5905C38.5556 19.3735 38.6658 18.9116 38.4489 18.5588L37.171 19.3443ZM26.8847 12.1113C19.4134 12.1113 13.3467 18.1222 13.3467 25.5493H14.8467C14.8467 18.9617 20.2307 13.6113 26.8847 13.6113V12.1113ZM13.3467 25.5493L13.3467 28.0869L14.8467 28.0869L14.8467 25.5493H13.3467ZM14.6249 28.6193L17.1825 26.0817L16.126 25.0169L13.5684 27.5545L14.6249 28.6193ZM14.6249 27.5545L12.0673 25.0169L11.0108 26.0817L13.5684 28.6193L14.6249 27.5545ZM38.4489 18.5588C36.0719 14.6924 31.7811 12.1113 26.8847 12.1113V13.6113C31.2422 13.6113 35.0576 15.9066 37.171 19.3443L38.4489 18.5588Z" fill="white"/>
<path d="M39.4211 25.042L39.9483 24.5086C39.6562 24.2198 39.1861 24.2198 38.8939 24.5086L39.4211 25.042ZM36.3265 27.0462C36.0319 27.3373 36.0291 27.8122 36.3203 28.1068C36.6115 28.4014 37.0864 28.4042 37.381 28.113L36.3265 27.0462ZM41.4613 28.113C41.7559 28.4042 42.2307 28.4014 42.5219 28.1068C42.8131 27.8122 42.8103 27.3373 42.5157 27.0462L41.4613 28.113ZM16.2554 33.7834C16.0379 33.4309 15.5758 33.3215 15.2233 33.5391C14.8708 33.7566 14.7614 34.2187 14.9789 34.5712L16.2554 33.7834ZM26.5842 41.0175C34.0798 41.0175 40.1711 35.0094 40.1711 27.5796H38.6711C38.6711 34.1645 33.2679 39.5175 26.5842 39.5175V41.0175ZM40.1711 27.5796V25.042H38.6711V27.5796H40.1711ZM38.8939 24.5086L36.3265 27.0462L37.381 28.113L39.9483 25.5754L38.8939 24.5086ZM38.8939 25.5754L41.4613 28.113L42.5157 27.0462L39.9483 24.5086L38.8939 25.5754ZM14.9789 34.5712C17.3651 38.4377 21.6714 41.0175 26.5842 41.0175V39.5175C22.2076 39.5175 18.3769 37.221 16.2554 33.7834L14.9789 34.5712Z" fill="white"/>
<path d="M29.5405 22C30.2956 22 30.8997 22.3086 31.3528 22.9259C31.7843 23.5679 32 24.3951 32 25.4074C32 26.7901 31.6764 28.037 31.0291 29.1481C30.3603 30.284 29.3463 31.2346 27.9871 32L27.6311 31.4074C28.2783 30.963 28.8716 30.3333 29.411 29.5185C29.9288 28.7284 30.1877 27.9259 30.1877 27.1111C30.1877 26.8889 30.1338 26.7037 30.0259 26.5556C29.918 26.4321 29.7562 26.3704 29.5405 26.3704C29.0011 26.3704 28.548 26.1481 28.1812 25.7037C27.7929 25.284 27.5987 24.7654 27.5987 24.1481C27.5987 23.5309 27.7929 23.0123 28.1812 22.5926C28.548 22.1975 29.0011 22 29.5405 22ZM23.9417 22C24.6969 22 25.301 22.3086 25.754 22.9259C26.1855 23.5679 26.4013 24.3951 26.4013 25.4074C26.4013 26.7901 26.0777 28.037 25.4304 29.1481C24.7616 30.284 23.7476 31.2346 22.3883 32L22.0324 31.4074C22.6796 30.963 23.2729 30.3333 23.8123 29.5185C24.3301 28.7284 24.589 27.9259 24.589 27.1111C24.589 26.8889 24.5351 26.7037 24.4272 26.5556C24.3193 26.4321 24.1575 26.3704 23.9417 26.3704C23.4024 26.3704 22.9493 26.1481 22.5825 25.7037C22.1942 25.284 22 24.7654 22 24.1481C22 23.5309 22.1942 23.0123 22.5825 22.5926C22.9493 22.1975 23.4024 22 23.9417 22Z" fill="white"/>
</svg>
