<svg width="54" height="54" viewBox="0 0 54 54" fill="none" xmlns="http://www.w3.org/2000/svg">
<circle cx="27" cy="27" r="27" fill="#00B700"/>
<path d="M26.9683 16.5123C26.9683 17.2254 26.7066 17.8379 26.1831 18.3499C25.6595 18.8619 24.8291 19.191 23.6918 19.3372C24.1612 20.032 24.3959 20.9828 24.3959 22.1896C24.3959 23.6157 23.8904 24.7402 22.8795 25.563C21.8866 26.3858 20.6229 26.7972 19.0885 26.7972C18.4567 26.7972 17.879 26.7423 17.3555 26.6326C16.2001 26.7057 15.6224 27.1628 15.6224 28.0039C15.6224 28.4793 15.812 28.8267 16.1911 29.0461C16.5882 29.2655 17.211 29.3752 18.0595 29.3752H21.0923C22.5545 29.3752 23.6377 29.6769 24.3417 30.2803C25.0638 30.8837 25.4249 31.9167 25.4249 33.3794C25.4249 34.4034 25.1631 35.345 24.6396 36.2043C24.1341 37.0637 23.394 37.7402 22.4191 38.2339C21.4443 38.7458 20.2799 39.0018 18.926 39.0018C16.8861 39.0018 15.3787 38.691 14.4039 38.0693C13.4471 37.4477 12.9688 36.6249 12.9688 35.601C12.9688 34.9793 13.2034 34.4308 13.6728 33.9554C14.1422 33.48 14.783 33.2423 15.5954 33.2423C15.7578 33.2423 16.0918 33.2789 16.5973 33.352C16.0376 33.9554 15.7578 34.6685 15.7578 35.4913C15.7578 36.2775 16.0286 36.9631 16.5702 37.5482C17.1118 38.1333 17.9963 38.4259 19.2239 38.4259C20.289 38.4259 21.2367 38.2156 22.0671 37.7951C22.9156 37.3928 23.5655 36.8626 24.0168 36.2043C24.4681 35.5461 24.6937 34.8696 24.6937 34.1748C24.6937 33.4069 24.45 32.8492 23.9626 32.5018C23.4752 32.1727 22.6087 32.0081 21.3631 32.0081H18.0595C16.7958 32.0081 15.8391 31.7613 15.1892 31.2676C14.5574 30.7557 14.2414 30.006 14.2414 29.0187C14.2414 28.3605 14.422 27.7845 14.783 27.2908C15.1621 26.7789 15.6405 26.4498 16.2182 26.3035C14.6476 25.627 13.8623 24.2557 13.8623 22.1896C13.8623 20.7451 14.3588 19.6115 15.3517 18.7887C16.3445 17.9659 17.5901 17.5545 19.0885 17.5545C20.984 17.5545 22.356 17.9568 23.2044 18.7613C23.7099 18.6699 24.089 18.5053 24.3417 18.2676C24.5945 18.0116 24.7208 17.7282 24.7208 17.4174C24.7208 17.1249 24.6396 16.9055 24.4771 16.7592C24.3146 16.5946 24.1251 16.5123 23.9085 16.5123C23.9085 16.1101 24.0529 15.7627 24.3417 15.4702C24.6486 15.1593 25.0097 15.0039 25.4249 15.0039C25.8762 15.0039 26.2462 15.141 26.5351 15.4153C26.8239 15.6896 26.9683 16.0552 26.9683 16.5123ZM21.8505 21.5039C21.8505 20.3886 21.6158 19.5292 21.1465 18.9258C20.6951 18.3225 20.0092 18.0208 19.0885 18.0208C17.3013 18.0208 16.4077 19.1818 16.4077 21.5039V22.8478C16.4077 23.9266 16.6243 24.7768 17.0576 25.3984C17.5089 26.0201 18.1859 26.3309 19.0885 26.3309C20.0092 26.3309 20.6951 26.0201 21.1465 25.3984C21.6158 24.7768 21.8505 23.9266 21.8505 22.8478V21.5039Z" fill="white"/>
<path d="M28.5247 28.6822C28.5247 27.5421 29.4532 26.6179 30.5987 26.6179H38.8947C40.0402 26.6179 40.9687 27.5421 40.9687 28.6822V36.9396C40.9687 38.0797 40.0402 39.0039 38.8947 39.0039H30.5987C29.4532 39.0039 28.5247 38.0797 28.5247 36.9396V28.6822Z" fill="white"/>
<path fill-rule="evenodd" clip-rule="evenodd" d="M39.2799 29.47C39.4709 29.6737 39.4654 30.0004 39.2676 30.1997L33.5619 35.9478C33.4585 36.052 33.3169 36.1051 33.1737 36.0934C33.0304 36.0817 32.8995 36.0064 32.8145 35.8868L30.939 33.2482C30.7764 33.0195 30.8244 32.6963 31.0462 32.5264C31.268 32.3564 31.5796 32.404 31.7421 32.6327L33.2805 34.7969L38.5759 29.4621C38.7737 29.2628 39.0889 29.2664 39.2799 29.47Z" fill="#00B700"/>
</svg>
