<svg width="54" height="54" viewBox="0 0 54 54" fill="none" xmlns="http://www.w3.org/2000/svg">
<circle cx="27" cy="27" r="27" fill="#A57F28"/>
<path fill-rule="evenodd" clip-rule="evenodd" d="M28.1061 37H25.8939C22.4474 37 20.7241 37 19.549 35.9882C18.374 34.9764 18.1303 33.2827 17.6428 29.8952L17.3641 27.9579C16.9846 25.3208 16.7949 24.0023 17.3354 22.8749C17.8758 21.7476 19.0262 21.0623 21.3269 19.6918L22.7117 18.8669C24.801 17.6223 25.8457 17 27 17C28.1543 17 29.199 17.6223 31.2882 18.8669L32.6731 19.6918C34.9738 21.0623 36.1242 21.7476 36.6646 22.8749C37.2051 24.0023 37.0154 25.3208 36.6359 27.9579L36.3572 29.8952C35.8697 33.2827 35.626 34.9764 34.451 35.9882C33.2759 37 31.5526 37 28.1061 37ZM23.3976 30.5532C23.6442 30.2204 24.1139 30.1506 24.4467 30.3973C25.1751 30.9371 26.0542 31.2498 27.0001 31.2498C27.946 31.2498 28.8251 30.9371 29.5535 30.3973C29.8863 30.1506 30.356 30.2204 30.6026 30.5532C30.8493 30.8859 30.7795 31.3557 30.4467 31.6023C29.4743 32.3231 28.2851 32.7498 27.0001 32.7498C25.7151 32.7498 24.5259 32.3231 23.5535 31.6023C23.2207 31.3557 23.1509 30.8859 23.3976 30.5532Z" fill="white"/>
</svg>
