<svg width="54" height="54" viewBox="0 0 54 54" fill="none" xmlns="http://www.w3.org/2000/svg">
<rect width="54" height="54" rx="27" transform="matrix(-1 0 0 1 54 0)" fill="#45B5AA"/>
<path d="M30.3965 11.762C24.4705 11.0502 20.0347 12.2936 18.0967 15.7767C16.1565 19.2576 16.0102 22.3147 16.1592 22.8821C16.3088 23.4475 16.933 24.502 16.9424 24.5179C16.9366 24.5263 13.9615 28.888 14.1455 29.598C14.3334 30.3045 16.3469 30.6867 16.3789 30.6927C16.3789 30.6927 16.5641 31.1874 16.1904 32.1458C15.8181 33.1061 16.8838 34.219 17.2051 34.6087C17.5207 34.9957 16.7573 36.2054 17.0166 36.8821C17.2772 37.5553 18.5085 38.3732 19.9238 38.1966C21.3408 38.0178 23.1587 37.7004 23.79 37.5921C25.2151 40.7901 21.7793 42.4271 21.7793 42.4271H39.8516C39.8124 42.397 34.6081 38.3928 34.7178 34.0042C34.7841 31.5497 39.852 28.4239 39.8271 21.6038C39.8108 18.1739 36.3212 12.4728 30.3965 11.762ZM32.5303 27.1468H30.5557V19.0384H32.5303V27.1468ZM29.4316 27.1468H27.3408L26.8555 25.7142H23.8291L23.3447 27.1468H21.2773L24.2109 19.0384H26.498L29.4316 27.1468ZM24.3496 24.1897H26.3477L25.3428 21.221L24.3496 24.1897Z" fill="white"/>
</svg>