<svg width="54" height="54" viewBox="0 0 54 54" fill="none" xmlns="http://www.w3.org/2000/svg">
<circle cx="27" cy="27" r="27" fill="#C12C52"/>
<path d="M15.0795 30.4955L15.7451 32.9793C16.522 35.8787 16.9104 37.3284 17.791 38.2686C18.4864 39.011 19.3862 39.5305 20.3768 39.7615C21.6314 40.054 23.0811 39.6656 25.9805 38.8887C28.8798 38.1118 30.3295 37.7234 31.2698 36.8427C31.3478 36.7697 31.4234 36.6943 31.4964 36.6168C31.0667 36.5808 30.6334 36.5116 30.1929 36.424C29.2979 36.2461 28.2345 35.9611 26.9768 35.6241L26.8395 35.5873L26.8077 35.5788C25.4392 35.2121 24.2959 34.9052 23.3829 34.5754C22.4229 34.2286 21.5506 33.801 20.8098 33.1072C19.7891 32.1512 19.0747 30.9139 18.7571 29.5518C18.5267 28.5634 18.5926 27.5942 18.7722 26.5894C18.9444 25.6265 19.2536 24.4725 19.6241 23.0899L19.6241 23.0899L20.3112 20.5257L20.3354 20.4355C17.8661 21.1007 16.5664 21.4943 15.6996 22.3061C14.9572 23.0014 14.4377 23.9013 14.2067 24.8918C13.9142 26.1464 14.3027 27.5961 15.0795 30.4955Z" fill="white"/>
<path d="M19.7611 14.3568L19.9664 13.9009L19.9664 13.9009L19.7611 14.3568ZM20.498 14.6887L20.954 14.4836C21.0098 14.6076 21.0126 14.7491 20.9619 14.8753C20.9111 15.0015 20.8111 15.1016 20.6849 15.1525L20.498 14.6887ZM18.8652 15.886C18.6091 15.9893 18.3178 15.8654 18.2145 15.6092C18.1113 15.3531 18.2352 15.0618 18.4913 14.9586L18.8652 15.886ZM19.2979 13.2398C19.1846 12.988 19.2969 12.692 19.5487 12.5787C19.8005 12.4654 20.0965 12.5777 20.2098 12.8295L19.2979 13.2398ZM14.8249 19.4899C14.9327 19.7441 14.814 20.0376 14.5598 20.1454C14.3056 20.2532 14.0121 20.1345 13.9043 19.8803L14.8249 19.4899ZM13.9477 16.2053C14.9835 13.9059 17.6763 12.8693 19.9664 13.9009L19.5557 14.8126C17.7759 14.0109 15.6714 14.8134 14.8594 16.616L13.9477 16.2053ZM19.9664 13.9009L20.7033 14.2328L20.2926 15.1446L19.5557 14.8126L19.9664 13.9009ZM20.6849 15.1525L18.8652 15.886L18.4913 14.9586L20.311 14.225L20.6849 15.1525ZM20.042 14.8939L19.2979 13.2398L20.2098 12.8295L20.954 14.4836L20.042 14.8939ZM13.9043 19.8803C13.4238 18.7473 13.4005 17.42 13.9477 16.2053L14.8594 16.616C14.4309 17.5674 14.4493 18.604 14.8249 19.4899L13.9043 19.8803Z" fill="white"/>
<path d="M35.138 39.5374L35.0587 40.0311L35.0587 40.0311L35.138 39.5374ZM34.3399 39.4093L33.9533 39.7263C33.8671 39.6212 33.8274 39.4854 33.8434 39.3503C33.8595 39.2152 33.9299 39.0925 34.0384 39.0104L34.3399 39.4093ZM35.6036 37.8273C35.8239 37.6608 36.1375 37.7044 36.304 37.9247C36.4705 38.145 36.4269 38.4586 36.2066 38.6251L35.6036 37.8273ZM35.8767 40.4948C36.0518 40.7083 36.0206 41.0233 35.8071 41.1984C35.5935 41.3735 35.2785 41.3424 35.1034 41.1289L35.8767 40.4948ZM38.5632 33.2938C38.3928 33.0766 38.4308 32.7623 38.6481 32.5919C38.8653 32.4214 39.1796 32.4594 39.3501 32.6767L38.5632 33.2938ZM40.2674 36.2356C39.8676 38.7257 37.5387 40.4292 35.0587 40.0311L35.2172 39.0437C37.1446 39.3531 38.9666 38.0292 39.28 36.0771L40.2674 36.2356ZM35.0587 40.0311L34.2607 39.903L34.4192 38.9156L35.2172 39.0437L35.0587 40.0311ZM34.0384 39.0104L35.6036 37.8273L36.2066 38.6251L34.6414 39.8082L34.0384 39.0104ZM34.7266 39.0923L35.8767 40.4948L35.1034 41.1289L33.9533 39.7263L34.7266 39.0923ZM39.3501 32.6767C40.1095 33.645 40.4785 34.9201 40.2674 36.2356L39.28 36.0771C39.4454 35.0469 39.157 34.051 38.5632 33.2938L39.3501 32.6767Z" fill="white"/>
<path fill-rule="evenodd" clip-rule="evenodd" d="M22.2435 20.9415C23.0766 17.8324 23.4932 16.2779 24.5018 15.3259C25.0566 14.8022 25.7264 14.4156 26.4574 14.1969C27.786 13.7994 29.3406 14.2159 32.4497 15.049C35.5588 15.8821 37.1134 16.2986 38.0653 17.3072C38.589 17.8621 38.9757 18.5318 39.1944 19.2628C39.5919 20.5915 39.1753 22.1461 38.3423 25.2552L37.6887 27.6942C36.8556 30.8033 36.4391 32.3578 35.4305 33.3097C34.8756 33.8335 34.2059 34.2201 33.4749 34.4388C32.1462 34.8363 30.5917 34.4198 27.4826 33.5867C24.3734 32.7536 22.8189 32.3371 21.867 31.3285C21.3432 30.7736 20.9566 30.1039 20.7379 29.3729C20.3404 28.0442 20.7569 26.4896 21.59 23.3805L22.2435 20.9415ZM24.3966 18.5401C24.5109 18.1135 24.9494 17.8604 25.376 17.9747L30.5453 19.3598C30.9719 19.4741 31.2251 19.9126 31.1108 20.3392C30.9965 20.7657 30.558 21.0189 30.1314 20.9046L24.9621 19.5195C24.5355 19.4052 24.2823 18.9667 24.3966 18.5401ZM29.8203 22.0657C29.3937 21.9514 28.9552 22.2045 28.8409 22.6311C28.7266 23.0577 28.9798 23.4962 29.4064 23.6105L35.868 25.3419C36.2946 25.4562 36.7331 25.203 36.8474 24.7765C36.9617 24.3499 36.7086 23.9114 36.282 23.7971L29.8203 22.0657ZM22.9465 23.9546C23.0608 23.528 23.4993 23.2748 23.9259 23.3891L35.5569 26.5056C35.9835 26.6199 36.2366 27.0584 36.1223 27.485C36.008 27.9116 35.5695 28.1648 35.143 28.0504L23.5119 24.9339C23.0853 24.8196 22.8322 24.3811 22.9465 23.9546ZM28.3702 27.4802C27.9436 27.3658 27.5052 27.619 27.3908 28.0456C27.2765 28.4722 27.5297 28.9107 27.9563 29.025L34.418 30.7564C34.8446 30.8707 35.283 30.6175 35.3973 30.1909C35.5116 29.7643 35.2585 29.3259 34.8319 29.2116L28.3702 27.4802Z" fill="white"/>
</svg>
