<svg width="54" height="54" viewBox="0 0 54 54" fill="none" xmlns="http://www.w3.org/2000/svg">
<circle cx="27" cy="27" r="27" fill="#F89500"/>
<path d="M13.7109 20.8187C13.7109 16.4548 13.7109 14.2729 15.0828 12.9172C16.4546 11.5615 18.6625 11.5615 23.0783 11.5615C27.4941 11.5615 29.702 11.5615 31.0738 12.9172C32.4456 14.2729 32.4456 16.4548 32.4456 20.8187V33.1615C32.4456 37.5254 32.4456 39.7073 31.0738 41.063C29.702 42.4187 27.4941 42.4187 23.0783 42.4187C18.6625 42.4187 16.4546 42.4187 15.0828 41.063C13.7109 39.7073 13.7109 37.5254 13.7109 33.1615V20.8187Z" fill="white" stroke="#F89500" stroke-width="0.8"/>
<ellipse cx="33.2816" cy="26.6488" rx="6.28163" ry="6.28163" fill="white" stroke="#F89500"/>
<path d="M38.9219 32.2715L40.2443 33.5939" stroke="white" stroke-width="1.5" stroke-linecap="round"/>
<path d="M17.7188 17.7314H26.9754M17.7188 22.1026H23.5651M17.7188 26.4738H24.5394M17.7188 30.845H20.6419M17.7188 35.2163H25.5138" stroke="#F89500" stroke-linecap="round"/>
</svg>
