<svg width="46" height="46" viewBox="0 0 46 46" fill="none" xmlns="http://www.w3.org/2000/svg">
<path d="M5 14.5008C5 8.60786 5 5.6614 6.85255 3.8307C8.70509 2 11.6867 2 17.65 2C23.6132 2 26.5948 2 28.4474 3.8307C30.2999 5.6614 30.2999 8.60786 30.2999 14.5008V31.1685C30.2999 37.0615 30.2999 40.0079 28.4474 41.8386C26.5948 43.6693 23.6132 43.6693 17.65 43.6693C11.6867 43.6693 8.70509 43.6693 6.85255 41.8386C5 40.0079 5 37.0615 5 31.1685V14.5008Z" fill="white" stroke="#F89500" stroke-width="1.5"/>
<ellipse cx="31.3423" cy="22.3899" rx="8.48292" ry="8.48268" fill="white" stroke="#F89500" stroke-width="1.5"/>
<path d="M38.9297 29.9824L40.7156 31.7682" stroke="white" stroke-width="1.5" stroke-linecap="round"/>
<path d="M10.3672 10.333H22.8677M10.3672 16.2359H18.2622M10.3672 22.1387H19.5781M10.3672 28.0415H14.3147M10.3672 33.9444H20.8939" stroke="#F89500" stroke-width="1.5" stroke-linecap="round"/>
</svg>
