<svg width="46" height="46" viewBox="0 0 46 46" fill="none" xmlns="http://www.w3.org/2000/svg">
<path d="M31.204 4.19043L30.4688 13.74L31.204 24.6538V29.0136L38.3971 24.6538H41.8315V4.19043H31.204Z" fill="white"/>
<path d="M20.5703 4.19043H31.1978V24.6538H20.5703V4.19043Z" fill="white"/>
<path d="M36.451 13.0662V10.8609H32.3067V8.75586H31.204L30.4688 11.0156L31.204 13.0662H32.6263C32.4177 14.0235 31.9392 14.9535 31.204 15.7313L30.4688 17.1218L31.204 18.5622C32.4289 19.338 34.1437 19.989 36.451 19.989V17.7837C35.1075 17.7837 33.9528 17.505 32.996 17.0382C33.9947 15.9042 34.646 14.5169 34.8674 13.0663H36.451V13.0662Z" fill="#EAB825"/>
<path d="M29.7702 13.0662H31.1925V8.75586H30.0898V10.8609H25.9453V13.0662H27.529C27.7504 14.5168 28.4018 15.904 29.4004 17.0381C28.4436 17.505 27.2888 17.7836 25.9453 17.7836V19.9889C28.2526 19.9889 29.9674 19.3379 31.1924 18.5621V15.7312C30.4573 14.9535 29.9788 14.0235 29.7702 13.0662Z" fill="#EAB825"/>
<path fill-rule="evenodd" clip-rule="evenodd" d="M4.1875 37.4673V17.0039H15.1938V17.0277L15.1955 17.0039H26.1794V37.4673H15.1955L15.1938 37.4435V37.4673H15.1879V41.827L7.99482 37.4673H4.1875Z" fill="white"/>
<path d="M4.1875 17.0039V16.7539H3.9375V17.0039H4.1875ZM4.1875 37.4673H3.9375V37.7173H4.1875V37.4673ZM15.1938 17.0039H15.4438V16.7539H15.1938V17.0039ZM15.1938 17.0277H14.9438L15.4432 17.0456L15.1938 17.0277ZM15.1955 17.0039V16.7539H14.9628L14.9462 16.986L15.1955 17.0039ZM26.1794 17.0039H26.4294V16.7539H26.1794V17.0039ZM26.1794 37.4673V37.7173H26.4294V37.4673H26.1794ZM15.1955 37.4673L14.9462 37.4852L14.9628 37.7173H15.1955V37.4673ZM15.1938 37.4435L15.4432 37.4256L14.9438 37.4435H15.1938ZM15.1938 37.4673V37.7173H15.4438V37.4673H15.1938ZM15.1879 37.4673V37.2173H14.9379V37.4673H15.1879ZM15.1879 41.827L15.0584 42.0408L15.4379 42.2709V41.827H15.1879ZM7.99482 37.4673L8.1244 37.2535L8.06467 37.2173H7.99482V37.4673ZM3.9375 17.0039V37.4673H4.4375V17.0039H3.9375ZM15.1938 16.7539H4.1875V17.2539H15.1938V16.7539ZM15.4438 17.0277V17.0039H14.9438V17.0277H15.4438ZM14.9462 16.986L14.9445 17.0098L15.4432 17.0456L15.4449 17.0218L14.9462 16.986ZM26.1794 16.7539H15.1955V17.2539H26.1794V16.7539ZM26.4294 37.4673V17.0039H25.9294V37.4673H26.4294ZM15.1955 37.7173H26.1794V37.2173H15.1955V37.7173ZM14.9445 37.4614L14.9462 37.4852L15.4449 37.4494L15.4432 37.4256L14.9445 37.4614ZM15.4438 37.4673V37.4435H14.9438V37.4673H15.4438ZM15.1879 37.7173H15.1938V37.2173H15.1879V37.7173ZM15.4379 41.827V37.4673H14.9379V41.827H15.4379ZM7.86524 37.6811L15.0584 42.0408L15.3175 41.6132L8.1244 37.2535L7.86524 37.6811ZM4.1875 37.7173H7.99482V37.2173H4.1875V37.7173Z" fill="#EAB825"/>
<path fill-rule="evenodd" clip-rule="evenodd" d="M15.2024 21.9268L16.1444 21.9258L19.9212 31.9333L17.8579 32.712L16.9612 30.3361H15.2024L15.2022 30.336V30.3382H13.4276L12.5219 32.716L10.4609 31.931L14.2703 21.9298L15.2016 21.9288L15.2024 21.9268ZM15.2022 25.6763V25.6787L14.2675 28.1329H15.2009L15.2024 28.1309H16.1289L15.2025 25.6763L15.2024 25.6766L15.2022 25.6763Z" fill="#EAB825"/>
</svg>
