<svg width="54" height="54" viewBox="0 0 54 54" fill="none" xmlns="http://www.w3.org/2000/svg">
<circle cx="27" cy="27" r="27" fill="#EAB825"/>
<path d="M33.0791 12.9795L32.5312 20.0965L33.0791 28.2302V31.4794L38.4396 28.2302H40.999V12.9795H33.0791Z" fill="white"/>
<path d="M25.1562 12.9795H33.0761V28.2302H25.1562V12.9795Z" fill="white"/>
<path d="M36.9894 19.5942V17.9507H33.9009V16.3818H33.0791L32.5312 18.0659L33.0791 19.5942H34.1391C33.9837 20.3076 33.6271 21.0008 33.0791 21.5804L32.5312 22.6167L33.0791 23.6902C33.992 24.2683 35.2699 24.7535 36.9894 24.7535V23.11C35.9882 23.11 35.1276 22.9023 34.4146 22.5544C35.1588 21.7092 35.6442 20.6754 35.8092 19.5942H36.9894V19.5942Z" fill="#EAB825"/>
<path d="M32.0066 19.5942H33.0666V16.3818H32.2448V17.9507H29.1562V19.5942H30.3365C30.5014 20.6753 30.9868 21.7091 31.731 22.5543C31.018 22.9023 30.1575 23.1099 29.1562 23.1099V24.7535C30.8757 24.7535 32.1536 24.2683 33.0665 23.6901V21.5803C32.5187 21.0008 32.1621 20.3076 32.0066 19.5942Z" fill="#EAB825"/>
<path fill-rule="evenodd" clip-rule="evenodd" d="M12.9453 37.78V22.5293H21.141H21.1475H29.3264V37.78L21.1475 37.78H21.1431V41.0292L15.7826 37.78H12.9453Z" fill="white"/>
<path d="M12.9453 22.5293V22.2793H12.6953V22.5293H12.9453ZM12.9453 37.78H12.6953V38.03H12.9453V37.78ZM29.3264 22.5293H29.5764V22.2793H29.3264V22.5293ZM29.3264 37.78V38.03H29.5764V37.78H29.3264ZM21.1475 37.78V38.03V37.78ZM21.1431 37.78V37.53H20.8931V37.78H21.1431ZM21.1431 41.0292L21.0135 41.243L21.3931 41.473V41.0292H21.1431ZM15.7826 37.78L15.9122 37.5662L15.8525 37.53H15.7826V37.78ZM12.6953 22.5293V37.78H13.1953V22.5293H12.6953ZM21.141 22.2793H12.9453V22.7793H21.141V22.2793ZM21.1475 22.2793H21.141V22.7793H21.1475V22.2793ZM29.3264 22.2793H21.1475V22.7793H29.3264V22.2793ZM29.5764 37.78V22.5293H29.0764V37.78H29.5764ZM21.1475 38.03L29.3264 38.03V37.53L21.1475 37.53V38.03ZM21.1431 38.03H21.1475V37.53H21.1431V38.03ZM21.3931 41.0292V37.78H20.8931V41.0292H21.3931ZM15.653 37.9938L21.0135 41.243L21.2727 40.8154L15.9122 37.5662L15.653 37.9938ZM12.9453 38.03H15.7826V37.53H12.9453V38.03Z" fill="#EAB825"/>
<path fill-rule="evenodd" clip-rule="evenodd" d="M21.1391 26.1971L21.8411 26.1963L24.6557 33.6546L23.1181 34.2349L22.4499 32.4643H21.1427V32.4653H19.8202L19.1452 34.2374L17.6094 33.6524L20.4482 26.1988L21.1387 26.1981L21.1391 26.1971ZM21.1412 28.9967L20.4461 30.8218H21.1383L21.1391 30.8208H21.8296L21.1412 28.9967Z" fill="#EAB825"/>
</svg>
