<svg width="115" height="44" viewBox="0 0 115 44" fill="none" xmlns="http://www.w3.org/2000/svg">
<path d="M0.443161 84.9985L2.84889 76.4881C2.95652 76.0975 3.0768 75.6989 3.35536 75.3612C3.73521 74.9015 4.37463 74.6046 4.98872 74.3239C8.44537 72.7414 11.902 71.1589 15.3587 69.5764C16.6438 68.9865 18.0746 68.3723 19.575 68.535C20.9678 68.6855 22.2023 69.5032 23.6014 69.3811C25.678 69.1981 26.387 67.2169 26.3237 65.6629C26.2984 64.9551 26.2161 64.2269 26.5263 63.5556C27.3113 61.8348 30.2868 61.1026 31.1352 59.3981C31.3757 58.918 31.4264 58.3932 31.7303 57.9336C32.6229 56.5952 35.0603 56.4813 37.0672 56.4243C39.0741 56.3714 41.5747 55.8507 41.8406 54.3699C41.8913 54.0729 41.847 53.7597 42.0306 53.4912C42.4927 52.8281 43.8159 53.0397 44.7718 52.8159C46.3355 52.4498 46.7281 50.9487 47.8676 50.0699C47.8739 50.0618 47.8866 50.0577 47.8929 50.0537H40.4162V47.1206H40.91V46.9579C39.9984 46.3517 39.245 45.8473 39.245 45.8473V41.108H38.3777L39.4666 40.0421L40.2389 37.3409L40.6694 35.8317L41.0999 37.3409L41.8723 40.0421L42.9612 41.108H42.0116V45.8473L44.0374 47.0555V46.5144H45.8417V47.1247H46.9876V46.5144H47.3928V41.7467L43.8475 39.1065V30.0346H42.1762V27.9437H42.3978V27.5084H43.2081V27.9437H43.7969V27.5084H44.6072V27.9437H45.12V27.5084H45.9304V27.9437H46.5191V27.5084H47.3295V27.9437H47.4624V27.6711H47.8423V27.5084H48.0512V27.2806H48.7413V26.947H49.2477V26.5442H49.7732V26.1537H50.5139V25.751H51.052V25.3157H51.6978V24.9129H52.3752V24.4654H52.9893V23.9163H53.5907V23.4362H53.9136V21.0605H50.6025L54.0592 17.6717C52.698 16.7768 49.9758 14.9543 49.9758 14.9543V10.215H49.1085L50.1974 9.14912L50.9697 6.44791L51.4002 4.93865L51.8307 6.44791L52.6031 9.14912L53.692 10.215H52.7424V14.9543L54.9645 16.2764L57.6931 6.70827L59.3328 0.968203L60.9725 6.70827L62.0424 6.07771V3.20158H61.4663L62.1247 2.55476L62.5932 0.915318L62.8527 0L63.1123 0.915318L63.5808 2.55476L64.2392 3.20158H63.7137V6.07771C63.7137 6.07771 62.093 7.16389 61.2574 7.70901L63.9037 16.9964L68.044 21.0564H64.4165V24.8438H64.4861V25.0675H64.752V24.8438H65.1698V25.0675H65.4737V24.8438H65.8916V25.0675H66.0562V24.8438H66.474V25.0675H66.7779V24.8438H67.1957V25.0675H67.4616V24.8438H67.8794V25.0675H68.1833V24.8438H68.6012V25.0675H68.8671V24.8438H69.2849V25.0675H69.5888V24.8438H70.0066V25.0675H70.3105V24.8438H70.6587V22.8138H69.2596L71.0132 21.0971L72.2541 16.7483L72.9441 14.3196L73.6342 16.7483L74.875 21.0971L76.6287 22.8138H75.0966V30.4415L71.5767 33.8302V36.5517H73.1594V37.2189H74.4129V36.5517H76.3818V37.2189H77.8126V36.5517H79.7815V37.2189H80.1423V40.4164H75.3499V43.6139L69.6774 47.8366V49.4313C70.6524 50.2937 69.9813 52.0918 71.8679 52.9054C72.2224 53.0559 72.6339 53.1373 72.9568 53.3244C73.6595 53.7312 73.7038 54.6303 73.0328 55.0696C73.3113 56.3023 75.3499 56.7335 77.0022 56.9776C78.7115 57.2298 80.4082 57.5593 82.0669 57.9661C82.2758 58.0149 82.4911 58.0719 82.6367 58.1898C82.8709 58.377 82.8709 58.6658 82.8329 58.9221C82.7316 59.6096 82.4721 60.293 82.529 60.9806C82.586 61.6721 83.0672 62.4125 83.9598 62.6159C84.4853 62.738 85.302 62.921 85.0551 63.2831C88.3851 63.1407 91.7151 62.9942 95.0451 62.8519C96.6089 62.7827 98.3498 62.7583 99.5274 63.5272C102.148 65.2317 99.6477 69.0394 102.237 70.7684C102.889 71.2077 103.756 71.4111 104.579 71.643C106.523 72.1963 108.353 72.9814 109.973 73.9537C111.005 74.572 112.024 75.3897 111.999 76.3742C111.993 76.7037 111.866 77.0413 112.012 77.3505C112.252 77.8672 113.101 78.0584 113.582 78.4692C114.05 78.8638 114.145 79.4293 114.215 79.9541C114.532 82.2973 114.74 84.6446 115 86.9959H20.5943C20.6702 86.9593 20.7399 86.9227 20.8095 86.8861C25.4627 84.7626 30.7363 83.5381 36.0416 82.6634C46.1519 81.1094 56.4079 79.9663 66.7146 79.474C74.1786 79.1486 82.719 79.1893 90.1957 78.9655C91.9177 78.8801 93.8106 78.7743 95.5516 78.2862C95.9378 78.1641 96.3493 78.0177 96.6975 77.8265C97.7231 77.2732 98.1726 76.3091 97.6978 75.4182C97.2356 74.5395 96.0707 73.8357 95.0705 73.4736C93.4434 72.8553 91.7404 72.6804 90.0501 72.359C84.5233 71.2443 78.8002 70.9311 73.2353 70.7765C63.0617 70.569 52.2676 70.4388 42.4927 68.2258C41.3025 67.9573 39.992 67.6563 38.8588 67.339C38.1308 67.1111 37.2381 66.8386 36.9849 66.265C36.719 65.6751 38.5549 65.2724 39.1437 65.0975C42.7649 64.1374 46.5824 64.1008 50.4506 63.995C51.7548 63.9625 53.0779 63.9218 54.4011 63.8445C60.9218 63.4702 67.4616 63.3319 73.9571 62.4369C74.6851 62.3352 75.4765 62.2172 76.0779 61.7901C76.616 61.424 76.9009 60.7771 76.5274 60.2768C75.8373 59.4021 74.4635 59.0604 73.2353 58.8163C65.3028 57.36 56.9714 57.3437 49.1401 55.6554L48.2095 55.4439C47.3168 55.2649 46.4748 54.911 45.9367 54.3658C45.0377 53.4709 46.1963 52.82 47.3611 52.5678C48.583 52.2789 49.8935 52.2423 51.1723 52.1976C52.2929 52.1813 53.9452 52.0552 55.0848 51.9738L58.9846 51.6972C59.6367 51.6524 60.3584 51.6443 60.9028 51.327C61.5423 50.9893 61.7448 50.5012 61.6056 50.0577H61.4473C61.5992 50.5012 61.2764 50.9527 60.7889 51.2049C60.2571 51.5019 59.5987 51.4816 58.9656 51.5223L55.0595 51.7379L53.1096 51.8477C51.8054 51.9209 50.5012 51.8843 49.1908 51.9697C47.3358 52.0348 43.8982 52.7671 45.4809 54.6018C46.0886 55.2486 47.0383 55.6676 48.0196 55.8832L48.9565 56.1111C56.8004 57.9336 65.0622 58.0678 72.9505 59.6381C73.7165 59.7845 75.3688 60.232 75.4765 60.8097C75.4638 60.9195 75.3309 61.0456 75.2169 61.1311C74.9257 61.3385 74.3622 61.4362 73.7292 61.5053C68.6202 62.1318 63.4225 62.2864 58.2059 62.4613C55.6039 62.5427 53.0209 62.6851 50.4063 62.6932C46.4811 62.7339 42.3154 62.7339 38.4853 63.698C36.529 64.1292 34.155 65.073 35.0666 66.9118C35.858 68.4089 38.1687 68.8726 39.9351 69.3445C48.0765 71.5047 56.7055 72.2654 65.2711 72.6153C73.0328 72.9244 81.82 73.0261 89.1954 74.6615C90.6515 74.9707 92.2406 75.1497 93.5257 75.6541C93.7663 75.7517 93.9752 75.8575 94.1462 75.9674C93.9752 76.008 93.7853 76.0487 93.5827 76.0813C91.924 76.3498 89.9172 76.3864 88.1255 76.3904C81.3009 76.4352 73.324 76.3294 66.5056 76.5166C58.6047 76.7525 50.7102 77.4319 42.8979 78.3106C34.7691 79.2137 26.0262 80.3934 18.6887 83.5299C16.8021 84.2703 14.8585 85.4826 14.0229 87H0C0.120285 86.3328 0.303886 85.6657 0.48748 85.0148L0.443161 84.9985ZM50.3873 43.3454V44.2648L51.6155 44.0939L51.6535 43.321L50.4759 42.9833C50.4189 43.0973 50.3873 43.2193 50.3873 43.3454ZM73.7355 24.2702L72.9568 24.2051L72.9188 25.0472L73.7418 24.9821V24.2702H73.7355ZM71.9755 23.9122V23.9203L72.6972 23.9813L72.7289 23.2654C72.2984 23.3101 71.9692 23.5827 71.9692 23.9122H71.9755ZM71.9755 24.1197V25.1163L72.6466 25.0635L72.6909 24.1766L71.9755 24.1156V24.1197ZM72.6339 25.2669L71.9755 25.3197V25.6818H72.6149L72.6339 25.2669ZM55.1797 22.9114L55.9141 22.7853L55.8572 22.0083L55.1797 21.9188V22.9114ZM49.5643 32.6667L49.6782 33.8424L51.0204 33.7936V32.7562L49.5643 32.6667ZM47.8993 32.3616L49.2731 32.447L49.1718 31.4178C48.526 31.5032 48.0195 31.8816 47.8993 32.3616ZM51.0204 35.132L49.7985 35.0425L49.8682 35.734H51.0204V35.132ZM47.8739 34.7048L49.5073 34.8228L49.4313 34.0539L47.8739 34.1068V34.7048ZM47.8739 34.9041V35.734H49.5959L49.5263 35.0221L47.8739 34.9041ZM49.6972 34.0417L49.7732 34.8391L51.014 34.9286V33.9929L49.6972 34.0376V34.0417ZM59.5037 29.1559L60.9915 29.3878L60.9725 28.5132L59.5037 28.501V29.16V29.1559ZM60.9218 26.0072C60.3014 26.052 59.7949 26.3652 59.5924 26.7843L60.9408 26.89L60.9218 26.0032V26.0072ZM62.6502 27.2277L61.2131 27.1138L61.2384 28.3138L62.6502 28.3261V27.2277ZM62.6375 27.0243C62.5489 26.4751 61.9411 26.0439 61.1941 26.0032L61.2131 26.9104L62.6375 27.0243ZM62.6502 28.5254L61.2447 28.5132L61.2637 29.4285L62.6502 29.6441V28.5254ZM60.9978 29.5912L59.5037 29.3593V30.3357H61.0105L60.9978 29.5912ZM59.5037 27.1707V28.2976L60.9662 28.3098L60.9408 27.0934L59.5227 26.9795C59.5101 27.0405 59.4974 27.1056 59.4974 27.1707H59.5037ZM62.6502 29.8475L61.27 29.6319L61.2827 30.3316H62.6502V29.8475ZM55.7495 36.4378L57.1043 36.2222V34.9245L55.7495 34.953V36.4419V36.4378ZM58.896 34.8838L57.3702 34.9163V36.1775L58.896 35.9334V34.8838ZM58.896 34.6845V34.119C58.896 33.9888 58.8643 33.8586 58.8137 33.7407L57.3639 33.9237V34.7129L58.896 34.6804V34.6845ZM58.6997 33.5535C58.4401 33.1996 57.9337 32.9596 57.3576 32.9515V33.7244L58.6997 33.5535ZM55.7748 33.9278L57.098 33.761V32.9677C56.4206 33.041 55.8888 33.4315 55.7748 33.9319V33.9278ZM55.7495 34.7496L57.098 34.7211V33.9603L55.7495 34.1312V34.7496ZM58.896 37.284V36.1408L57.3766 36.3849V37.284H58.896ZM57.1107 36.4256L55.7495 36.6412V37.2799H57.1107V36.4215V36.4256ZM56.9397 22.1426L56.1294 22.0368L56.18 22.7324L56.9397 22.5982V22.1385V22.1426ZM56.9397 21.9392V21.8863C56.9397 21.5283 56.5535 21.2395 56.0724 21.2313L56.1167 21.8334L56.9397 21.9392ZM56.9397 22.8057L56.1927 22.9358L56.2433 23.6559H56.9397V22.8057ZM55.8065 21.2598C55.5153 21.3249 55.2937 21.4957 55.2114 21.7114L55.8445 21.7927L55.8065 21.2557V21.2598ZM64.3911 36.5395H66.2904V37.2067H67.0311V36.9178L64.3911 35.2133V36.5395ZM57.4082 40.9941L56.6612 41.1893V41.9379L57.4082 42.1779V40.99V40.9941ZM57.3955 40.7866C57.3449 40.4937 57.041 40.2659 56.6548 40.2252V40.9819L57.3955 40.7866ZM51.8814 44.0451L53.2615 43.8539V43.7726L51.9194 43.3861L51.8814 44.0451ZM51.9257 43.1746L53.2615 43.5569V43.3373C53.2615 42.784 52.6981 42.3365 51.9763 42.2796L51.9257 43.1786V43.1746ZM51.8687 44.2485L51.8054 45.4974C52.2802 45.4771 52.7804 45.4567 53.2615 45.4323V44.0533L51.8687 44.2485ZM50.5899 42.7921L51.6598 43.1013L51.7041 42.2755C51.2293 42.304 50.8178 42.5033 50.5899 42.7921ZM46.6647 37.3002L46.038 37.1823L46.0886 38.3905H46.6647V37.3002ZM46.6647 37.0928V36.9178C46.6647 36.6331 46.3735 36.4053 46 36.3768L46.0253 36.9748L46.6647 37.0928ZM45.7341 36.3971C45.4682 36.4541 45.2656 36.6168 45.215 36.8243L45.7594 36.926L45.7404 36.3971H45.7341ZM47.8739 32.5691V33.9034L49.4123 33.8505L49.2921 32.6464L47.8739 32.5569V32.5691ZM49.5453 32.4633L51.0204 32.5569C51.0077 31.9182 50.3113 31.4015 49.4503 31.4015C49.4503 31.4015 49.4503 31.4015 49.444 31.4015L49.5516 32.4633H49.5453ZM55.1797 23.66H55.9711L55.9268 22.9847L55.1797 23.1148V23.66ZM57.6804 13.2253L58.9909 13.3799L58.9529 12.5216C58.3768 12.5663 57.8957 12.8429 57.6741 13.2253H57.6804ZM59.0416 14.5963L57.5538 14.6451V16.0242L59.0985 16.0933L59.0352 14.6003L59.0416 14.5963ZM57.5538 13.685V14.4417L59.0289 14.3929L58.9973 13.5793L57.5918 13.4165C57.5665 13.502 57.5475 13.5915 57.5475 13.681L57.5538 13.685ZM59.1112 16.2886L57.5538 16.2194V16.8459H59.1302L59.1049 16.2886H59.1112ZM60.7003 16.8459V16.3578L59.3771 16.3008L59.4024 16.8459H60.7003ZM59.3011 14.3847L60.7003 14.34V13.7786L59.2695 13.6118L59.3011 14.3847ZM59.3075 14.5841L59.3708 16.0974L60.7003 16.1544V14.5393L59.3075 14.5841ZM70.5954 27.9192C70.2029 27.0487 68.962 26.4059 67.4933 26.4059C66.0245 26.4059 64.79 27.0405 64.3911 27.907V34.7699H64.9483V35.1726H65.594V35.6079H66.1321V36.0107H66.8728V36.4012H67.0311V33.0898L70.5954 30.4374V27.9233V27.9192ZM70.6144 41.7182L71.3741 41.7589L71.3867 41.0551L70.6144 40.9574V41.7182ZM71.3867 40.8517V40.2211C71.0069 40.2537 70.6967 40.4693 70.627 40.754L71.3867 40.8517ZM71.8932 42.6416L72.3743 42.1819V42.0151L71.64 41.9745L71.6273 42.6416H71.8932ZM72.3743 42.5074L72.2351 42.6416H72.3743V42.5074ZM71.3614 42.6416L71.3741 41.9623L70.6207 41.9216V42.6457H71.3677L71.3614 42.6416ZM71.64 41.7751L72.3743 41.8158V41.1812L71.6526 41.0876L71.64 41.7711V41.7751ZM64.1442 49.5696C64.2265 49.5614 64.3152 49.5533 64.3975 49.5452V47.1979L62.0234 47.2915L62.1563 49.5696H64.1442ZM64.3975 46.9985V44.9442L61.8778 44.9076L62.0044 47.088L64.3911 46.9945L64.3975 46.9985ZM64.3975 44.7448V44.4153C64.3975 43.3617 63.2516 42.5074 61.8335 42.5074C61.8018 42.5074 61.7702 42.5074 61.7385 42.5074L61.8651 44.7001L64.3911 44.7367L64.3975 44.7448ZM61.6119 44.9035L59.2758 44.8709V47.1979L61.7449 47.1043L61.6119 44.9076V44.9035ZM61.5992 44.7042L61.4726 42.5318C60.2318 42.662 59.2758 43.4552 59.2758 44.4153V44.6675L61.5992 44.7001V44.7042ZM57.4082 42.6416V42.4016L56.6738 42.1616V42.6416H57.4082ZM56.3953 41.2666L55.6482 41.466V41.6124L56.4016 41.8565V41.2666H56.3953ZM56.3953 41.0551V40.2293C55.9711 40.2781 55.6482 40.5466 55.6482 40.872V41.2504L56.3953 41.0551ZM53.2678 46.2337V45.6398C52.698 45.6683 52.2106 45.6886 51.7991 45.7049L51.7738 46.2297H53.2678V46.2337ZM51.6091 44.2933L50.3936 44.4641V45.5544C50.7165 45.5462 51.109 45.534 51.5458 45.5178L51.6091 44.2973V44.2933ZM45.8291 38.3946L45.7784 37.1375L45.215 37.0317V38.3946H45.8291ZM53.9136 24.2783L48.6463 27.6792V27.9355H49.2351V27.5002H50.0454V27.9355H50.6342V27.5002H51.4445V27.9355H51.9573V27.5002H52.7677V27.9355H53.3565V27.5002H53.9199V24.2824L53.9136 24.2783ZM53.9136 30.0224H52.6347V36.5476H53.0589V37.2148H53.9136V30.0224ZM59.2315 12.5175L59.2695 13.4084L60.7003 13.5752C60.6306 13.0016 60.0102 12.55 59.2315 12.5175ZM73.0074 23.2654L72.9694 24.0017L73.7418 24.0668V23.9122C73.7418 23.5867 73.4253 23.3182 73.0074 23.2694V23.2654ZM73.7418 25.1774L72.9125 25.2424L72.8935 25.6777H73.7418V25.1774ZM71.678 40.2293L71.6653 40.8883L72.387 40.9819V40.872C72.387 40.5547 72.0831 40.2903 71.678 40.2293ZM61.9031 49.5736L61.7702 47.3037L59.2948 47.3972V49.5696H61.9094L61.9031 49.5736ZM56.4206 42.6457V42.0762L55.6609 41.828V42.6416H56.4206V42.6457ZM51.5142 46.2378L51.5395 45.7212C51.052 45.7415 50.6848 45.7496 50.3999 45.7537V46.2378H51.5142Z" fill="#2B1C07"/>
</svg>
