<svg width="20" height="20" viewBox="0 0 20 20" fill="none" xmlns="http://www.w3.org/2000/svg">
<g clip-path="url(#clip0_14306_41406)">
<path d="M19.5965 8.35763C18.5501 5.12724 16.0932 4.46751 14.2505 4.46751C13.0903 4.46751 12.1348 4.71775 11.7708 4.8315L11.6116 4.877L11.4751 4.786C11.2476 4.64951 10.9973 4.53576 10.7471 4.46751C11.2703 2.26083 13.7045 1.51011 13.7045 1.51011L12.5898 0.327148C12.5898 0.327148 11.9073 0.395396 10.9063 1.19162C9.90537 2.01059 9.65513 4.05803 9.65513 4.05803C9.65513 4.05803 9.67787 4.19452 9.74612 4.39926C9.38213 4.44476 9.01815 4.58126 8.69966 4.80875L8.56316 4.89975L8.40392 4.8315C8.38117 4.8315 7.22096 4.42201 5.765 4.42201C3.89957 4.42201 1.4654 5.10449 0.418931 8.31213C-0.468289 10.9965 0.0776929 14.1132 1.82938 16.5246C3.19434 18.4128 5.01428 19.482 6.83422 19.482C7.35745 19.482 7.88068 19.391 8.38117 19.209L8.54041 19.1408L8.67691 19.2318C9.49588 19.8005 10.6333 19.8233 11.4751 19.2773L11.6116 19.1863L11.7708 19.2318C12.2258 19.3683 12.7035 19.4593 13.1813 19.4593C14.0912 19.4593 15.0012 19.1863 15.8429 18.6858C16.7074 18.1853 17.4809 17.4346 18.1633 16.5019C19.915 14.1132 20.461 10.9965 19.5965 8.35763ZM15.6837 7.9254C14.2505 12.5207 11.4523 9.72259 11.4523 9.72259L15.6837 7.9254ZM8.76791 9.69984C8.76791 9.69984 5.96975 12.498 4.53654 7.90265L8.76791 9.69984ZM14.8647 15.3189L14.0912 14.4999L11.5206 16.1834L9.99636 14.9322L8.49491 16.1834L5.9015 14.4999L5.10528 15.3189L2.53461 11.3605L5.10528 12.9985L5.9015 12.1795L8.47217 13.863L9.97361 12.6117L11.4751 13.863L14.0912 12.1795L14.8875 12.9985L17.4581 11.3605L14.8647 15.3189Z" fill="white"/>
</g>
<defs>
<clipPath id="clip0_14306_41406">
<rect width="20" height="20" fill="white"/>
</clipPath>
</defs>
</svg>
