<svg width="22" height="22" viewBox="0 0 22 22" fill="none" xmlns="http://www.w3.org/2000/svg">
<g clip-path="url(#clip0_14306_41392)">
<path d="M21.5562 9.19291C20.4051 5.63948 17.7025 4.91377 15.6755 4.91377C14.3993 4.91377 13.3483 5.18904 12.9479 5.31416L12.7727 5.36421L12.6226 5.26411C12.3723 5.11397 12.0971 4.98885 11.8218 4.91377C12.3974 2.48643 15.0749 1.66063 15.0749 1.66063L13.8488 0.359375C13.8488 0.359375 13.098 0.434448 11.997 1.31029C10.8959 2.21116 10.6206 4.46334 10.6206 4.46334C10.6206 4.46334 10.6457 4.61348 10.7207 4.8387C10.3203 4.88875 9.91996 5.0389 9.56962 5.28914L9.41948 5.38923L9.24431 5.31416C9.21929 5.31416 7.94305 4.86373 6.34151 4.86373C4.28952 4.86373 1.61194 5.61445 0.460825 9.14286C-0.515118 12.0957 0.0854622 15.524 2.01232 18.1766C3.51377 20.2536 5.51571 21.4297 7.51764 21.4297C8.0932 21.4297 8.66875 21.3296 9.21929 21.1294L9.39446 21.0544L9.5446 21.1545C10.4455 21.7801 11.6967 21.8051 12.6226 21.2045L12.7727 21.1044L12.9479 21.1545C13.4484 21.3046 13.9739 21.4047 14.4994 21.4047C15.5004 21.4047 16.5013 21.1044 17.4272 20.5539C18.3781 20.0033 19.229 19.1776 19.9797 18.1516C21.9065 15.524 22.5071 12.0957 21.5562 9.19291ZM17.252 8.71745C15.6755 13.7723 12.5976 10.6944 12.5976 10.6944L17.252 8.71745ZM9.6447 10.6693C9.6447 10.6693 6.56672 13.7473 4.9902 8.69242L9.6447 10.6693ZM16.3512 16.8503L15.5004 15.9494L12.6726 17.8012L10.996 16.4249L9.34441 17.8012L6.49165 15.9494L5.6158 16.8503L2.78807 12.4961L5.6158 14.2978L6.49165 13.397L9.31938 15.2488L10.971 13.8724L12.6226 15.2488L15.5004 13.397L16.3762 14.2978L19.2039 12.4961L16.3512 16.8503Z" fill="#F58F00"/>
</g>
<defs>
<clipPath id="clip0_14306_41392">
<rect width="22" height="22" fill="white"/>
</clipPath>
</defs>
</svg>
