<svg width="98" height="44" viewBox="0 0 98 44" fill="none" xmlns="http://www.w3.org/2000/svg">
<path opacity="0.41" d="M83.1088 10.5833C81.2047 2.76147 81.7925 -5.65501 84.7728 -13.1464L97.0913 -17.3918L97.1741 -17.4166L97.0499 -17.7553L84.9549 -13.5842C85.0211 -13.7494 85.0791 -13.9063 85.1536 -14.0715L85.1784 -14.1458L84.8473 -14.278L84.8141 -14.2037C84.5161 -13.5264 79.7394 -14.7983 77.7608 -15.4921L77.5621 -15.5582C75.6415 -16.2686 73.7705 -17.0449 71.6843 -17.9205C70.9558 -18.2261 70.2273 -18.5317 69.4988 -18.829C67.6609 -19.5889 65.0946 -20.8526 64.0349 -23.1075C62.9587 -25.3788 62.6027 -28.4762 62.2798 -31.2018C62.255 -31.3835 62.2384 -31.5653 62.2136 -31.747C62.1722 -32.1104 62.1308 -32.4655 62.0811 -32.8042L62.0563 -32.9446L68.1908 -47.308L68.1245 -47.341C68.0666 -47.3658 68.0086 -47.3906 67.9341 -47.4154L67.8596 -47.4401L61.5844 -32.7546C61.2202 -32.4573 60.8808 -32.1765 60.5662 -31.9122C58.985 -30.5658 57.4865 -29.2939 55.2761 -29.5169C53.5294 -29.6986 51.6584 -30.6154 49.5722 -32.3334C49.4563 -32.4325 49.2824 -32.5977 49.0424 -32.8537C48.4463 -33.4567 47.6433 -34.2826 46.981 -34.3239L46.3187 -51H46.2359C46.1945 -51 46.1449 -51 46.1035 -50.9917H45.9545L46.6167 -34.2909L40.8797 -33.308C40.2588 -33.2006 39.6958 -33.0933 39.1743 -32.8703L34.6045 -48.9516L34.5797 -49.0342L34.2237 -48.9351L38.8349 -32.7133C38.2968 -32.449 37.651 -32.0608 37.2702 -31.4744C34.4389 -27.0308 30.2003 -24.0986 25.9285 -23.6443C25.1917 -23.5617 24.4467 -23.0579 23.7347 -22.1411C23.6105 -21.9759 23.5112 -21.8107 23.4284 -21.6538L9.83496 -32.9694L9.76874 -33.0272L9.53694 -32.7464L23.2628 -21.3151C23.1801 -21.1334 23.0973 -20.9352 23.0145 -20.737L22.9648 -20.6296C21.5823 -17.2019 19.6368 -14.0632 17.1864 -11.3128L17.1118 -11.222L0.52983 -16.6898L0.455322 -16.7146L0.430487 -16.6402C0.405651 -16.5742 0.389094 -16.5081 0.364258 -16.442L0.347701 -16.3677L17.3685 -10.7512C20.8372 -4.30045 20.1418 4.23168 15.6714 10.0051L15.4727 10.2612L15.6465 10.2777L0.0745073 15.6464L0 15.6712L0.0248358 15.7455C0.0413929 15.8116 0.0662287 15.8777 0.0827859 15.9355L0.107622 16.0098L16.3585 10.4098C18.9828 10.9467 21.5078 12.6482 24.0907 15.5886C26.0279 17.8021 27.6836 20.2552 29.0165 22.8818C30.1837 25.1779 31.1192 27.6227 31.7815 30.1502C31.8312 30.3484 31.8726 30.6127 31.9222 30.8853L31.9471 31.0505C32.1127 32.0829 32.3196 33.3714 33.0564 33.8505C33.0812 33.867 33.1144 33.8835 33.1392 33.9L27.667 46.7023L27.6339 46.7767L27.7084 46.8097C27.7664 46.8427 27.8326 46.8675 27.8988 46.8923L27.9734 46.9171L33.4786 34.0239C34.1492 34.1726 34.9439 33.7844 35.5234 33.4953L35.689 33.4127C35.9125 33.3053 36.1278 33.2062 36.3265 33.1484C38.5286 32.4298 40.9293 32.2729 43.2556 32.6941C43.9262 32.8097 49.1334 35.0481 49.3073 35.3785L49.357 35.3537L49.3901 35.3867L50.0192 51.3029V51.3772H50.0937C50.1186 51.3772 50.1517 51.3772 50.1765 51.3772C50.2014 51.3772 50.2345 51.3772 50.2593 51.3772H50.3752L49.746 35.362C51.9564 33.5862 55.3093 33.3549 57.7349 34.8168L57.9418 34.9325L57.9998 34.7177C57.9998 34.7177 57.9998 34.7012 58.0081 34.6929L62.2302 49.5436L62.255 49.6262L62.611 49.5271L58.2399 34.1313C59.4486 31.0092 62.2302 28.1927 65.881 26.4169C69.4243 24.6823 73.3814 23.9307 76.875 23.2782L88.3822 32.8511L88.4484 32.9006L88.4981 32.8345C88.4981 32.8345 88.5395 32.785 88.5561 32.7602C88.5809 32.7354 88.5975 32.7106 88.6223 32.6859L88.672 32.6198L77.3303 23.1791H77.4048L77.4131 22.9891C77.5621 20.7012 77.7194 18.339 78.5473 16.1502C79.4662 13.7302 81.1385 11.9709 83.1336 11.3184L83.2909 11.2688L83.2578 11.1036C83.2412 11.0541 83.2329 11.0128 83.2247 10.9632L97.7619 15.7703L97.8364 15.7951L97.8612 15.7207C97.886 15.6546 97.9109 15.5803 97.9274 15.5142L97.944 15.4399L83.1253 10.5502L83.1088 10.5833ZM78.0919 16.3567C77.3386 18.5042 77.1813 20.8417 77.0488 22.9065C77.0406 22.9065 77.024 22.9065 77.0157 22.9065C76.9992 22.9065 76.9743 22.9065 76.9578 22.9148L70.4508 17.4965C71.1296 13.6145 74.2672 10.3438 78.1002 9.52605L78.4976 9.4352L82.8025 10.8558C82.8025 10.8558 82.819 10.9302 82.8273 10.9715C82.8273 11.0045 82.8438 11.0293 82.8438 11.0623C80.8156 11.7892 79.1185 13.6145 78.1913 16.0676L78.0919 16.3567ZM17.8569 -10.586L26.1024 -7.86032C27.1372 -2.74765 26.3342 2.81929 23.9003 7.43639L16.3419 10.0381L16.2509 10.0216C16.2509 10.0216 16.1681 10.0051 16.1267 9.99685C20.4978 4.15734 21.1766 -4.06918 17.8486 -10.586H17.8569ZM48.794 -32.5977C49.0258 -32.3582 49.2079 -32.1765 49.3487 -32.0608C51.5011 -30.2933 53.43 -29.3434 55.2513 -29.1617C57.6107 -28.9139 59.2416 -30.3015 60.8062 -31.6479L60.9967 -31.8048C61.096 -31.8874 61.1871 -31.97 61.2864 -32.0443L58.4386 -25.3623C58.2895 -25.3706 58.1488 -25.3623 57.9998 -25.3375C57.6604 -25.2797 57.3292 -25.2219 56.9898 -25.1558C56.758 -25.1145 56.5262 -25.0732 56.2861 -25.0237C54.8953 -24.7594 53.4631 -24.4703 52.0392 -24.5033C50.102 -24.5281 48.3718 -25.1724 47.3039 -26.2709L47.0058 -33.9523C47.5274 -33.8945 48.3139 -33.085 48.794 -32.5894V-32.5977ZM46.6912 -26.4526C46.7658 -26.3535 46.8403 -26.2709 46.9313 -26.1718L46.9562 -26.1387L47.2459 -18.9034C47.2459 -18.9034 47.1797 -18.9034 47.1548 -18.9034C47.0969 -18.9034 47.0307 -18.9034 46.9727 -18.9034C46.8651 -18.8951 46.7492 -18.8868 46.6416 -18.8786H46.5505C45.1432 -18.8786 43.8765 -19.7128 42.7092 -20.5718L41.0866 -26.2874C42.7672 -25.1806 45.1266 -25.2467 46.7161 -26.4608L46.6912 -26.4526ZM52.4283 15.06C52.2959 15.1591 52.18 15.2582 52.0558 15.3738C52.0641 15.0352 52.1137 14.6718 52.1965 14.2753L52.4283 15.0682V15.06ZM35.1592 21.3042C35.0764 20.9325 34.9025 20.6104 34.7204 20.2635C32.1623 15.4895 28.5694 11.1367 24.3225 7.66765L26.9468 6.7591C26.9468 6.7591 26.9468 6.81692 26.9468 6.8417C27.0213 7.25467 27.4518 7.60157 28.3873 8.01455C31.7318 9.49302 34.8115 11.4918 37.5434 13.9449C38.6196 14.9113 39.7703 16.1007 40.0767 17.5956L35.9953 27.1602C35.5814 25.7065 35.2006 24.162 35.2088 22.6257V22.5762C35.2088 22.5183 35.2088 22.4523 35.2088 22.3944C35.2088 22.0558 35.2254 21.6759 35.1343 21.3042H35.1592ZM52.0309 -24.1482C52.0723 -24.1482 52.122 -24.1482 52.1634 -24.1482C53.5542 -24.1482 54.9284 -24.4042 56.2613 -24.6603L56.3606 -24.6768C56.9319 -24.7924 57.4948 -24.8998 58.0495 -24.9824C58.124 -24.9906 58.1985 -24.9989 58.273 -25.0072L55.0112 -17.3506C53.2065 -16.632 51.0458 -16.8715 49.4977 -17.9618C49.448 -18.0031 49.4066 -18.0361 49.357 -18.0691C49.3073 -18.1022 49.2659 -18.1352 49.2162 -18.1765C48.8188 -18.4821 48.4463 -18.7464 47.9993 -18.8538C47.8751 -18.8868 47.7426 -18.9034 47.6019 -18.9034L47.3287 -25.767C48.4711 -24.7511 50.1683 -24.1647 52.0309 -24.1482ZM34.3644 -5.5146L30.7881 -6.69572C32.8908 -7.66209 34.2568 -10.0821 33.9919 -12.3783L37.5351 -9.42963C37.6841 -8.59542 37.4275 -7.69513 36.8232 -6.96002C36.2188 -6.22492 35.3827 -5.78717 34.53 -5.76239H34.2402L34.3727 -5.50634L34.3644 -5.5146ZM47.9248 -18.5069C48.3221 -18.4078 48.6864 -18.1352 49.001 -17.8957C49.0506 -17.8544 49.1003 -17.8213 49.1583 -17.78C49.2079 -17.747 49.2493 -17.714 49.299 -17.6727C50.8637 -16.5659 52.9581 -16.2685 54.8208 -16.888L53.1072 -12.8656C51.1865 -12.3783 49.0589 -13.1217 47.933 -14.6827L47.8503 -14.7901L47.7757 -14.757L47.6267 -18.5482C47.7343 -18.5482 47.8337 -18.5317 47.933 -18.5069H47.9248ZM73.4394 5.61928C74.052 6.74258 75.004 7.56853 75.8733 8.188L70.6495 6.46176L70.6246 6.42872C69.3663 5.05763 68.2984 3.5131 67.454 1.84467C67.3215 1.56384 67.1808 1.28301 67.1145 0.977409C66.9655 0.349686 67.1228 -0.344116 67.3215 -1.00488C68.0666 -3.59838 69.2421 -6.06799 70.8316 -8.34763L76.1547 -10.1813C75.0454 -7.33171 73.9195 -4.3913 73.1745 -1.34352C72.6612 0.729626 72.2307 3.3892 73.4476 5.61928H73.4394ZM54.1668 -10.206C54.738 -9.42137 55.5825 -8.89276 56.4103 -8.43848C58.3806 -7.35648 60.4999 -6.51401 62.7352 -5.95236L58.4386 -4.46564C55.6901 -4.46564 52.9581 -6.09277 51.6336 -8.52108L53.3638 -12.5765L53.4135 -12.593C53.4714 -12.6096 53.5376 -12.6261 53.5956 -12.6426C53.3969 -11.8579 53.6121 -10.9411 54.1585 -10.206H54.1668ZM45.8551 -7.85206C45.9213 -7.36474 45.3832 -6.96828 44.9279 -6.73702C44.1828 -6.34882 43.3881 -6.01018 42.5602 -5.72935L41.5337 -6.58009C42.4774 -6.48097 43.4378 -6.77005 44.1497 -7.36474C44.8534 -7.95117 45.3004 -8.83495 45.3832 -9.75175L45.8386 -8.1494H45.8054L45.8634 -7.86032L45.8551 -7.85206ZM52.925 -12.4609L51.3686 -8.81017L51.2941 -8.77713C50.3338 -8.37241 49.1086 -8.6202 48.3884 -9.36356L48.3304 -9.43789C48.2393 -9.53701 48.1317 -9.64438 47.9993 -9.69394C47.9827 -9.7022 47.9744 -9.71046 47.9579 -9.71046L47.784 -14.2532C48.9679 -12.8078 51.0375 -12.081 52.925 -12.4526V-12.4609ZM48.6781 1.8777V1.89422C48.6781 1.89422 48.6698 1.90248 48.6698 1.91074C48.6119 1.88596 48.5457 1.86944 48.4711 1.86118C48.4629 1.86118 48.4463 1.86118 48.438 1.86118H48.4298L48.3884 0.836998L48.6864 1.8777H48.6781ZM38.4209 -3.79662L40.2339 -3.20192C40.4989 -2.87154 40.5651 -2.37597 40.4409 -1.69043C40.2257 -0.501049 39.6958 0.638767 38.9094 1.6134C38.6776 1.919 38.57 2.15852 38.57 2.38153L37.7669 2.6541C37.858 2.45587 37.9987 2.24938 38.1312 2.05941L38.1809 1.99333C38.2968 1.82814 38.4044 1.67947 38.4789 1.52254C38.8018 0.861778 39.017 0.176235 39.1163 -0.49279C39.2736 -1.67391 39.017 -2.86328 38.4292 -3.80487L38.4209 -3.79662ZM56.2199 -1.05444C55.9798 -0.558868 55.7232 0.027565 55.7315 0.663551C55.7315 1.00219 55.8391 1.34909 56.0129 1.62992L54.7132 1.20042C54.2827 0.523136 54.2496 -0.426712 54.6387 -1.28571C55.0361 -2.17774 55.806 -2.87154 56.4269 -3.38364L57.9584 -3.91225C57.2961 -3.0037 56.7083 -2.04559 56.2282 -1.05444H56.2199ZM48.438 -1.0214L49.0093 -2.36771C49.2079 -1.97125 49.5391 -1.6739 49.9282 -1.53349L48.438 -1.0214ZM50.4746 -1.72346L50.4911 -1.74825C50.4911 -1.74825 50.5077 -1.74824 50.516 -1.73998L50.4746 -1.72346ZM54.2993 -1.44264C53.9267 -0.616684 53.8936 0.291866 54.1999 1.02697L53.488 0.787441C53.0492 0.308388 52.7677 -0.121109 52.6187 -0.567127C52.4366 -1.12052 52.478 -1.69043 52.7346 -2.12818L55.5162 -3.09455C54.945 -2.54116 54.5476 -2.00429 54.2993 -1.4509V-1.44264ZM54.0178 1.34083L54.3986 1.46473C54.0923 1.84467 53.9267 2.37327 53.935 2.93492C53.935 3.25705 53.993 3.55439 54.0675 3.84348L52.3538 2.41457C52.2959 2.15026 52.3538 1.8777 52.4945 1.66296C52.7015 1.35735 53.1154 1.1839 53.4714 1.24998L54.0344 1.35735L54.0178 1.34083ZM50.2014 0.390984C50.2842 0.26709 50.4497 0.201012 50.5905 0.225792L51.3604 0.473579C51.3604 0.473579 51.4018 0.531395 51.4266 0.556175C51.4266 0.564434 51.4432 0.580956 51.4514 0.589214C51.2196 0.64703 51.0044 0.7957 50.8719 0.985672C50.8471 1.02697 50.814 1.06827 50.7891 1.11782L50.1434 0.580952C50.1434 0.514877 50.1683 0.448799 50.2014 0.390984ZM52.2876 -0.451492C52.3952 -0.11285 52.5856 0.225792 52.8505 0.580952L51.5673 0.159718C51.4183 -0.0385132 51.319 -0.228485 51.261 -0.418453C51.1203 -0.831432 51.17 -1.26093 51.3769 -1.55001L51.4597 -1.67391L52.2793 -1.95473C52.1137 -1.47568 52.1137 -0.947063 52.2793 -0.443233L52.2876 -0.451492ZM50.9216 -0.302822C50.9547 -0.203705 50.9961 -0.11285 51.0458 -0.0137329L50.7229 -0.121109C50.4994 -0.368896 50.3587 -0.575386 50.2842 -0.790134C50.2345 -0.947067 50.2262 -1.11226 50.251 -1.26093L50.9464 -1.50046C50.7974 -1.15356 50.7891 -0.715797 50.9216 -0.302822ZM51.17 1.20042C51.3024 1.00219 51.5756 0.894817 51.8074 0.936111L52.3704 1.02697L52.0227 0.688328L52.8919 0.977409C52.6104 1.07653 52.3704 1.24998 52.2131 1.47298C52.1468 1.56384 52.0889 1.66296 52.0558 1.77033C52.0144 1.8777 51.9978 1.99334 51.9895 2.11723L51.0955 1.38213C51.112 1.31606 51.1369 1.25824 51.17 1.20868V1.20042ZM50.0524 0.0440826C49.9944 0.0853806 49.9447 0.134937 49.9116 0.192757C49.8868 0.234051 49.8537 0.283607 49.8371 0.333164L49.1252 -0.261524L50.0524 0.0523415V0.0440826ZM49.8702 -1.12878C49.8702 -0.971844 49.8868 -0.814915 49.9365 -0.674503C49.9778 -0.542347 50.0358 -0.426712 50.1103 -0.311077L48.7857 -0.748837L49.8702 -1.12051V-1.12878ZM49.2907 1.4482C49.4894 1.2252 49.7626 1.09304 50.0358 1.08479H50.1765L50.7064 1.51428C50.6981 1.62166 50.7064 1.72077 50.7312 1.81989C50.309 1.89422 49.9116 2.11723 49.6053 2.44761C49.4977 2.5715 49.4066 2.6954 49.3321 2.82755L49.0589 1.84467C49.1086 1.696 49.1914 1.56384 49.2907 1.43995V1.4482ZM50.4249 -1.78954L50.2345 -1.82258C49.7378 -1.91343 49.3156 -2.34293 49.2162 -2.85503L49.3901 -3.27626C49.5142 -2.67331 49.8951 -2.11992 50.4166 -1.78954H50.4249ZM48.1897 -4.36652L48.1731 -4.3913L48.1234 -5.77065C48.5291 -5.33289 49.1583 -5.09336 49.7957 -5.1264L49.2824 -3.92877C48.8602 -3.86269 48.4215 -4.03614 48.1897 -4.36652ZM48.2145 -3.48275L48.198 -3.87095C48.4629 -3.67272 48.794 -3.55709 49.1169 -3.55709L49.0258 -3.34234L48.9513 -3.31756C48.7112 -3.23496 48.4132 -3.3093 48.2145 -3.49101V-3.48275ZM48.8437 -2.9211L48.2807 -1.59957L48.2228 -3.03673C48.4215 -2.94588 48.6367 -2.90458 48.8437 -2.9211ZM46.3601 1.93552C46.1283 1.34083 45.7061 0.828739 45.1597 0.481838L47.7757 -0.418453L46.6499 2.20808C46.5671 2.25764 46.5257 2.27416 46.5008 2.27416C46.4843 2.24938 46.4346 2.16678 46.3518 1.92725L46.3601 1.93552ZM46.0455 -2.82199C46.2111 -2.86329 46.3932 -2.9211 46.5753 -3.02022C46.8154 -3.16063 47.0058 -3.35886 47.1217 -3.58187L47.7343 -1.41786L46.0455 -2.82199ZM46.8899 -3.96181C46.8485 -3.71402 46.6664 -3.47449 46.4015 -3.32582C46.1614 -3.19367 45.8882 -3.14411 45.6978 -3.11933L45.3501 -3.40841C45.615 -3.47449 45.8386 -3.56535 46.0372 -3.68098C46.4098 -3.88747 46.6995 -4.20133 46.8485 -4.55649L46.9313 -4.24263L46.8817 -3.96181H46.8899ZM47.4115 -1.21137L45.2508 -1.92995C45.4743 -2.11166 45.6316 -2.36771 45.6895 -2.64854L47.4032 -1.21137H47.4115ZM42.3698 -2.49986L43.6447 -2.07862C43.8269 -1.07096 43.5868 -0.00547791 42.9824 0.861778L41.335 1.42343C42.1132 0.308388 42.4857 -1.104 42.3781 -2.49986H42.3698ZM44.1083 0.399242L44.1994 0.424023L43.4957 0.663551C43.9428 -0.137627 44.1332 -1.07922 44.0255 -1.96299L44.8368 -1.69868C44.8865 -1.01314 44.6796 -0.327599 44.2739 0.184494L44.1083 0.390984V0.399242ZM45.3584 -2.91284C45.3667 -2.59898 45.1845 -2.28511 44.9114 -2.12818L44.812 -2.07037L44.2739 -2.25208C44.5554 -2.5329 44.7375 -2.91284 44.7789 -3.29278C44.8203 -3.29278 44.8534 -3.30104 44.8948 -3.3093L45.3667 -2.9211V-2.90458L45.3584 -2.91284ZM46.5836 -4.94469C46.5174 -4.57301 46.2442 -4.20959 45.8468 -3.99485C45.5654 -3.83791 45.2508 -3.75531 44.9859 -3.70576L43.6861 -4.79602C44.1249 -4.86209 44.6961 -4.99425 45.2259 -5.2916C45.7144 -5.56416 46.0952 -5.97714 46.3104 -6.43141L46.6333 -5.27508L46.5753 -4.94469H46.5836ZM44.4146 -3.63142V-3.45797C44.4146 -3.06151 44.2077 -2.64028 43.8682 -2.38423L42.3202 -2.89632C42.3202 -2.89632 42.3202 -2.89632 42.3202 -2.90458C42.8914 -3.268 43.2805 -3.88747 43.3798 -4.56475L44.5057 -3.62317H44.4064L44.4146 -3.63142ZM40.8052 1.50602L40.7058 1.62992L38.9508 2.2246C38.9839 2.10897 39.0584 1.97682 39.1826 1.82815C40.0021 0.812222 40.5568 -0.385414 40.7886 -1.64087C40.888 -2.21078 40.8714 -2.68157 40.7224 -3.05325L41.9973 -2.63202C42.1629 -1.14529 41.7324 0.357944 40.8217 1.50602H40.8052ZM47.6433 -0.757095L44.7209 0.250572C44.7209 0.250572 44.6961 0.242313 44.6878 0.234051C45.0355 -0.286301 45.2177 -0.914028 45.2011 -1.55827L47.6516 -0.748837L47.6433 -0.757095ZM47.6185 -3.46623H47.6598C47.6598 -3.46623 47.7178 -3.46623 47.7261 -3.46623C47.7261 -3.46623 47.7509 -3.43319 47.7675 -3.41668L47.8006 -3.36712C47.8006 -3.36712 47.8254 -3.33408 47.842 -3.32582L47.8834 -2.186L47.5191 -3.47449C47.5191 -3.47449 47.5853 -3.46623 47.6185 -3.46623ZM47.7178 -3.82965C47.7178 -3.82965 47.6764 -3.82965 47.6598 -3.82965H47.6185C47.5439 -3.82965 47.486 -3.84617 47.4032 -3.87921L47.2625 -4.35826C47.3701 -4.32523 47.4694 -4.31697 47.5605 -4.32523H47.6185C47.6681 -4.32523 47.7178 -4.32523 47.7509 -4.3087C47.7592 -4.3087 47.784 -4.27567 47.8006 -4.25089L47.8254 -3.80487C47.8254 -3.80487 47.7509 -3.82139 47.7178 -3.82139V-3.82965ZM47.6019 -4.68039H47.5688C47.4198 -4.68039 47.279 -4.72995 47.1383 -4.80428L46.683 -6.40664C46.923 -6.27448 47.188 -6.20015 47.4446 -6.20015H47.5439C47.6185 -6.2084 47.6764 -6.2084 47.7178 -6.20015L47.7757 -4.67213C47.7757 -4.67213 47.7012 -4.67213 47.6764 -4.67213C47.6516 -4.67213 47.6185 -4.67213 47.6019 -4.67213V-4.68039ZM44.7044 4.9833C44.158 3.53787 43.0156 2.32372 41.6165 1.696L42.8417 1.27475L42.9245 1.30779C44.009 1.64643 44.9279 2.5302 45.3418 3.61221C45.4826 3.99215 45.5736 4.22342 45.7392 4.32253L45.11 5.79273C45.0024 5.75143 44.8782 5.42931 44.7044 4.99156V4.9833ZM43.3881 1.08479L44.6878 0.630512C45.3004 0.936115 45.7723 1.45646 46.0041 2.06767L46.0207 2.10071C46.1366 2.3898 46.2028 2.55499 46.3684 2.62106C46.4015 2.62932 46.4263 2.63758 46.4512 2.63758L45.8882 3.96737C45.822 3.86825 45.7392 3.64525 45.673 3.48006C45.2756 2.42283 44.4064 1.52254 43.3881 1.08479ZM49.7543 0.754402C49.4646 0.82048 49.1997 0.977413 48.9927 1.20868C48.9513 1.25824 48.9099 1.3078 48.8768 1.35735L48.3801 -0.377155L49.7543 0.762665V0.754402ZM49.8454 2.69539C50.1517 2.36501 50.5656 2.16679 50.963 2.15853L51.2693 2.14201L51.112 1.88596L52.0061 2.62932C52.0061 2.62932 52.0061 2.6541 52.0144 2.66236C51.41 2.74496 50.8305 3.05056 50.3752 3.53787C50.1103 3.82696 49.9033 4.1656 49.7792 4.52902L49.4563 3.3892C49.5308 3.12489 49.6633 2.88537 49.8371 2.68714L49.8454 2.69539ZM55.7646 -3.54883L52.7512 -2.50812L52.6684 -2.52464C51.3769 -2.75591 50.3421 -4.05266 50.4083 -5.35767V-5.62197L50.3669 -5.60546L50.8554 -6.74528C51.2196 -5.83672 51.9564 -5.04381 52.9664 -4.49868C53.8522 -4.01136 54.8539 -3.74706 55.7646 -3.54057V-3.54883ZM52.1303 -2.30163L50.9878 -1.90517C50.2096 -2.17774 49.6467 -2.97892 49.6964 -3.78009V-4.0444L50.0606 -4.89513C50.2014 -3.76357 51.0458 -2.69809 52.1303 -2.30163ZM49.9282 -5.50634C49.299 -5.38245 48.6119 -5.63849 48.2559 -6.13407L48.2145 -6.18363C48.1814 -6.24144 48.1317 -6.291 48.0738 -6.35707L48.0324 -7.57123C48.6533 -6.92699 49.6715 -6.66268 50.5408 -6.92699L49.9282 -5.50634ZM47.5771 -6.56356C47.5771 -6.56356 47.5357 -6.56356 47.5191 -6.56356H47.4529C47.4529 -6.56356 47.4529 -6.56356 47.4446 -6.56356C47.1052 -6.56356 46.7575 -6.72876 46.5174 -7.00132L46.3435 -7.60427C46.7823 -7.50516 47.2376 -7.51342 47.6681 -7.64557L47.7095 -6.56356C47.6598 -6.56356 47.6185 -6.57183 47.5771 -6.57183V-6.56356ZM46.12 -6.99306C46.029 -6.44793 45.6233 -5.91932 45.0355 -5.58894C44.4726 -5.27507 43.8186 -5.15944 43.297 -5.09336L42.85 -5.46505C43.6364 -5.73761 44.3815 -6.05973 45.0686 -6.41489C45.4163 -6.58834 45.8468 -6.86917 46.0621 -7.25737L46.1283 -7.03436V-6.99306H46.12ZM43.0404 -4.83732C43.0238 -4.15178 42.6265 -3.48275 42.0304 -3.15237L41.9228 -3.08629V-3.01196L40.8217 -3.37538C41.5834 -3.7801 42.2043 -4.42434 42.6016 -5.20074L43.0404 -4.82906V-4.83732ZM40.5237 3.11663C40.2919 3.00926 40.027 2.93493 39.7869 2.86885C39.522 2.79451 39.2322 2.70366 39.0584 2.58802L41.1115 1.8777C42.5685 2.41457 43.8103 3.6535 44.3732 5.11544L44.3898 5.16501C44.5968 5.71014 44.7209 6.024 44.9776 6.12311L44.5471 7.13078C44.158 6.32134 43.206 5.12371 43.1315 5.03285C42.4029 4.22342 41.5089 3.55439 40.5237 3.11663ZM47.5108 1.91074H47.4943H47.4777H47.4612C47.3453 1.919 47.2376 1.95204 47.1383 1.98508L47.9744 0.03582L48.0489 1.96856C48.0489 1.96856 48.0158 1.98507 47.9993 1.99333C47.8337 1.95203 47.6102 1.92726 47.5191 1.919L47.5108 1.91074ZM47.4115 3.48006H47.3701H47.3535C47.0389 3.50483 46.7326 3.60395 46.4594 3.76914C46.4263 3.79392 46.3932 3.81044 46.3518 3.83522L46.9396 2.47239C46.9396 2.47239 46.9562 2.45587 46.9727 2.44761L46.9976 2.43109C47.1631 2.34023 47.3287 2.29068 47.486 2.27416C47.5191 2.27416 47.7592 2.31546 47.8668 2.33198H47.9082L47.9579 2.53847L48.0738 2.42283L48.1152 3.59569C47.9248 3.54613 47.6267 3.51309 47.4115 3.49657V3.48006ZM50.6567 3.79392C51.1037 3.3066 51.6998 3.02578 52.2958 3.00926H52.4697L54.0592 4.33079C53.2231 4.33905 52.3538 4.71899 51.7164 5.37149C51.2859 5.80925 50.9547 6.35438 50.7395 6.99037C50.6898 7.12252 50.6484 7.26294 50.6153 7.40335L50.0275 5.33846C50.0441 4.77681 50.2676 4.23167 50.665 3.79392H50.6567ZM54.5311 4.2482C54.4069 3.83522 54.291 3.38094 54.2827 2.92667C54.2744 2.37328 54.4483 1.89422 54.7629 1.59688L56.311 2.10897C55.8556 2.47239 55.4997 2.97622 55.301 3.55439C55.1685 3.92607 55.1106 4.33079 55.1189 4.73551L54.5311 4.2482ZM57.1637 2.00986L56.7911 1.86118C56.3027 1.67122 56.0709 1.10131 56.0709 0.64703C56.0709 0.110157 56.2944 -0.418453 56.5262 -0.905769C57.0892 -2.06211 57.768 -3.14411 58.5379 -4.127L63.2236 -5.73761C62.3875 -4.50694 61.2947 -2.87154 60.8559 -1.09574C60.4503 0.539654 60.6821 2.21635 61.4768 3.4305L57.1719 2.00986H57.1637ZM56.4269 -3.78009H56.4186C55.4334 -3.98658 54.2082 -4.25089 53.1485 -4.8208C52.0723 -5.41549 51.319 -6.291 51.0789 -7.24085L51.4432 -8.11636C52.7181 -5.96888 55.0692 -4.45738 57.561 -4.1683L56.4269 -3.78009ZM48.1234 -8.02551L48.0407 -8.16592L48.0075 -8.1494L47.9661 -9.28922C47.9661 -9.28922 48.0407 -9.22314 48.0655 -9.19011L48.1069 -9.14055C48.852 -8.35589 50.1103 -8.04203 51.1534 -8.36415L50.7395 -7.38952C49.8785 -6.96003 48.6781 -7.24911 48.1234 -8.03377V-8.02551ZM40.3333 -3.54057L38.7769 -4.05266C39.2571 -4.18481 39.7041 -4.44086 40.0849 -4.80428C40.5816 -5.2916 40.8962 -5.91106 40.9707 -6.56356L42.3119 -5.44852C41.9062 -4.59779 41.1943 -3.90399 40.3333 -3.54057ZM39.6213 4.57032C39.4723 4.46294 39.2736 4.34731 39.0584 4.22342L38.959 4.1656C38.4458 3.87652 37.7504 3.48832 37.6759 3.07534L38.6941 2.72018C38.8845 2.96796 39.2654 3.09186 39.6958 3.22401C39.9856 3.30661 40.2008 3.38094 40.383 3.45528C41.3267 3.88478 42.1877 4.52076 42.8665 5.28064C43.1315 5.56973 44.2491 7.09774 44.3484 7.6181L43.504 9.59213C43.1315 8.70836 41.9973 7.03993 41.989 7.02341C41.3184 6.1066 40.5237 5.28064 39.6296 4.57858L39.6213 4.57032ZM45.9131 5.42931C45.7889 5.50365 45.6813 5.56146 45.5902 5.61928L46.1366 4.33905C46.269 4.28949 46.4263 4.19864 46.6416 4.07475C46.8651 3.94259 47.1135 3.86 47.3701 3.83522C47.428 3.83522 47.8254 3.90129 48.0241 3.93433L48.0821 4.1243L48.14 4.06648L48.1814 5.17326C47.8834 5.10719 47.3949 5.05763 47.2211 5.03285H47.1797L47.1631 5.02459H47.1466C46.7161 5.06589 46.2856 5.19804 45.9131 5.42105V5.42931ZM45.6895 -9.90869C46.2359 -9.57831 46.8485 -9.41311 47.4529 -9.41311H47.5108C47.5108 -9.41311 47.5688 -9.41311 47.5936 -9.41311L47.6516 -8.00899C47.188 -7.85206 46.683 -7.85206 46.2276 -8.00073L45.6813 -9.90869H45.6895ZM37.8332 -3.98658C38.57 -3.07803 38.9011 -1.81432 38.7272 -0.534088C38.6445 0.101898 38.4458 0.746143 38.1312 1.37387C38.0567 1.52254 37.9408 1.68773 37.8083 1.86944C37.6014 2.17504 37.3778 2.48891 37.3033 2.81104L32.5928 4.43816C33.7518 3.48005 34.6459 2.20809 35.1343 0.82048C35.7635 -1.00488 35.7138 -3.07803 34.9936 -4.91165L37.8249 -3.97832L37.8332 -3.98658ZM38.7769 4.48772C39.017 4.61988 39.2488 4.75203 39.3978 4.86766C40.2671 5.55321 41.037 6.35438 41.691 7.24641C42.0718 7.75851 43.3053 9.77384 43.2722 10.0134L43.3136 10.0299V10.0547H43.297L41.7075 13.7715C40.7803 11.4918 39.7207 9.69125 38.4706 8.26234C36.8977 6.47002 34.9522 5.21456 32.9488 4.70247L37.3199 3.19097C37.4689 3.74436 38.1891 4.15734 38.7769 4.48772ZM46.3684 6.57739C45.7723 6.69302 45.259 7.00689 44.8782 7.27945L45.375 6.1066C45.5654 6.04878 45.7972 5.91662 46.0952 5.73491C46.4263 5.54494 46.7989 5.42105 47.1714 5.38801C47.2459 5.38801 47.8834 5.48713 48.1566 5.53669L48.1897 5.64406L48.2476 7.04819C47.7012 6.54435 46.9148 6.47828 46.3684 6.57739ZM48.645 2.34023L48.8934 2.68714L49.092 3.40572V3.45528C49.092 3.45528 49.0755 3.48005 49.0755 3.49657C48.9679 3.44701 48.852 3.41397 48.7361 3.40572C48.7112 3.40572 48.6947 3.40572 48.6698 3.40572C48.6036 3.40572 48.5374 3.40572 48.4711 3.4305L48.4215 2.2246C48.5208 2.23286 48.5953 2.28242 48.645 2.3485V2.34023ZM49.3735 4.38034L49.5722 5.06589C49.4232 4.99155 49.2659 4.95026 49.1169 4.94199C49.092 4.94199 49.0589 4.94199 49.0341 4.94199C48.8685 4.94199 48.7029 4.9833 48.5374 5.04937L48.4877 3.80218C48.5457 3.7774 48.6202 3.76088 48.7029 3.76914C48.8685 3.78566 49.0093 3.86 49.092 3.98389L49.3735 4.38861V4.38034ZM50.8388 8.06411C50.9382 7.37856 51.2196 6.39568 51.973 5.62754C52.627 4.95026 53.5625 4.60336 54.3903 4.71073L54.5145 4.72725L55.1768 5.26412C55.1768 5.26412 55.1768 5.31368 55.1851 5.33846C54.142 5.38802 53.0906 6.00748 52.3538 7.02341C51.7991 7.77503 51.4597 8.64228 51.1865 9.48475L50.814 8.16322L50.8305 8.06411H50.8388ZM47.486 -9.77654H47.4446C47.4446 -9.77654 47.4446 -9.77654 47.4363 -9.77654C46.7658 -9.77654 46.0869 -10.0243 45.5405 -10.4703L44.2739 -14.8975V-14.9388C44.2905 -14.9966 44.2987 -15.0544 44.307 -15.1122C45.1349 -14.4019 46.327 -14.088 47.4032 -14.311L47.5853 -9.78479H47.4943L47.486 -9.77654ZM49.7543 5.71014L50.2179 7.35379C50.0689 7.2299 49.8868 7.106 49.6715 7.02341C49.506 6.95733 49.3321 6.92429 49.1583 6.92429C48.9679 6.92429 48.7775 6.96559 48.6119 7.03992L48.5457 5.43757C48.7029 5.32193 48.8851 5.27238 49.0838 5.2889C49.3321 5.31368 49.5556 5.42931 49.6881 5.61102L49.7543 5.71014ZM52.6601 7.24641C53.3721 6.27179 54.3655 5.70188 55.3341 5.70188C55.3672 5.70188 55.392 5.70188 55.4252 5.70188L55.6818 5.7184L55.6652 5.6771L58.8691 8.33667C58.8691 8.33667 58.8691 8.39449 58.8773 8.41927C58.8773 8.46057 58.8773 8.50187 58.8939 8.55143C58.8525 8.55143 58.8194 8.55143 58.778 8.55143C56.9981 8.55143 55.2513 9.22871 53.9433 10.4346C53.1982 11.1284 52.6022 12.0039 52.2048 12.9951L51.3852 10.1125C51.7329 9.03048 52.064 8.07237 52.6684 7.25467L52.6601 7.24641ZM55.5162 5.07415C55.3341 3.98389 55.8308 2.83581 56.7415 2.24938L61.8825 3.94259C61.8825 3.94259 61.8825 3.95085 61.8907 3.95911C60.9553 4.15734 60.0943 4.76029 59.5148 5.62754C59.0595 6.30482 58.8277 7.0647 58.8277 7.83284L55.5245 5.08241L55.5162 5.07415ZM61.2036 -1.00488C61.6341 -2.76417 62.6772 -4.30045 63.6872 -5.77891L63.7948 -5.93584L70.2355 -8.15766C68.7785 -5.97714 67.6775 -3.60664 66.949 -1.104C66.742 -0.410194 66.5681 0.333168 66.7337 1.06001C66.8082 1.39865 66.9572 1.69599 67.1062 2.00159C67.8679 3.51309 68.8199 4.942 69.9458 6.23049L62.0811 3.62873C61.1125 2.50543 60.7731 0.729626 61.1953 -1.00488H61.2036ZM45.0355 -10.9164L44.9031 -11.0402L44.9859 -10.5034C45.1514 -9.44615 44.7209 -8.32285 43.9014 -7.62905C43.0983 -6.96003 41.9311 -6.73702 40.9293 -7.05914L38.2305 -9.314C39.729 -9.40485 41.2025 -10.0243 42.287 -11.0402C43.1646 -11.8579 43.8103 -12.9399 44.1166 -14.1128L45.0355 -10.8998V-10.9164ZM37.0798 -6.74528C37.651 -7.43082 37.9491 -8.28156 37.9159 -9.11577L40.6313 -6.85265C40.6313 -6.2084 40.3416 -5.56416 39.8283 -5.06859C39.3399 -4.58953 38.7024 -4.31697 38.065 -4.31697C38.0401 -4.31697 38.0236 -4.31697 38.007 -4.31697L34.8115 -5.37419C34.8115 -5.37419 34.7949 -5.40723 34.7866 -5.42375C34.7866 -5.42375 34.7866 -5.43201 34.7866 -5.44027C35.6476 -5.53938 36.4755 -6.01018 37.0798 -6.74528ZM27.3276 6.61869L30.5894 5.49539L30.6556 5.62754L30.7301 5.5945C31.0033 5.47061 31.2848 5.32193 31.5331 5.17326L32.5514 4.8181L32.5183 4.95026L32.6011 4.96677C34.6293 5.42105 36.6162 6.66824 38.1974 8.47709C39.4806 9.94729 40.5651 11.8305 41.5089 14.2175L40.3002 17.0423C39.8531 15.6629 38.7769 14.5644 37.7752 13.6641C35.0267 11.2027 31.914 9.18741 28.528 7.67591C27.7416 7.32901 27.3359 7.03992 27.2945 6.76736C27.2945 6.7178 27.2945 6.67651 27.3193 6.61043L27.3276 6.61869ZM45.8634 9.15437C45.1763 9.15437 44.4974 9.30304 43.8848 9.60039L44.5885 7.965L44.6299 7.93196C45.1183 7.51072 45.7227 7.0647 46.4512 6.92429C47.1549 6.78388 47.8834 7.03992 48.2145 7.54376L48.2807 7.64288L48.3718 9.90599C47.6516 9.41042 46.7575 9.15437 45.8634 9.15437ZM55.3589 -17.1193C55.4086 -17.1358 55.45 -17.1523 55.4997 -17.1771C55.8639 -15.3187 57.619 -14.0302 58.9187 -13.2208C62.4537 -11.0155 66.4854 -9.43789 70.5833 -8.6615L63.3478 -6.17537C60.9553 -6.73702 58.6786 -7.60427 56.5842 -8.76887C55.8391 -9.17359 55.0029 -9.69394 54.4483 -10.429C53.8688 -11.2054 53.7198 -12.1718 54.0592 -12.8821L54.2744 -13.3199L53.8191 -13.1217C53.7281 -13.0804 53.637 -13.0473 53.5459 -13.0225L55.2844 -17.0862C55.2844 -17.0862 55.3424 -17.111 55.3672 -17.1193H55.3589ZM44.2905 -15.6326L43.9924 -15.9464V-15.9216L42.8334 -20.0101C43.8848 -19.2503 45.1266 -18.5234 46.5008 -18.5234H46.5174C46.6664 -18.5234 46.8237 -18.5317 46.9727 -18.5482C47.0307 -18.5482 47.0803 -18.5482 47.1383 -18.5482C47.1714 -18.5482 47.2045 -18.5482 47.2376 -18.5482L47.3949 -14.6662C46.2856 -14.4184 45.0438 -14.7983 44.2905 -15.6243V-15.6326ZM34.7949 0.696587C34.1989 2.38153 32.9571 3.89303 31.3924 4.83463L27.6753 6.1066C27.8409 5.93315 28.0479 5.75143 28.2879 5.52842L28.3045 5.51191C28.4452 5.37975 28.6025 5.23109 28.7681 5.08241C30.2169 3.72784 31.2351 2.28242 31.7981 0.779182C32.7584 -1.76476 32.2782 -4.64735 30.6556 -6.3736L34.53 -5.09336C35.333 -3.27626 35.4241 -1.17833 34.7784 0.688328L34.7949 0.696587ZM48.5043 15.1591C48.5043 15.1591 48.4794 15.1591 48.4629 15.1591C48.1483 15.1591 47.8337 14.9608 47.5605 14.7791L47.4446 14.7048C46.4015 14.0523 45.1432 13.7137 43.8931 13.7137C43.2556 13.7137 42.6182 13.8045 42.0138 13.978L43.6447 10.1455C45.0604 9.22045 47.0224 9.29479 48.3387 10.3272L48.3884 10.3603L48.5788 15.1425C48.5788 15.1425 48.5374 15.1425 48.5125 15.1425L48.5043 15.1591ZM49.5391 7.34553C49.8702 7.47768 50.1434 7.75024 50.4166 8.03933L50.9878 10.0547C50.458 9.84818 49.9116 9.71603 49.3735 9.64995C49.3156 9.64995 49.2576 9.64169 49.1997 9.64169C49.0341 9.64169 48.8685 9.66646 48.7278 9.71602L48.6367 7.4529C48.8934 7.23816 49.2824 7.24642 49.5474 7.35379L49.5391 7.34553ZM54.1834 10.6906C55.4997 9.48475 57.3458 8.81573 59.1174 8.90659L59.3823 8.9231L59.2995 8.68357L63.265 11.9874C60.8394 11.8222 58.4551 12.5986 56.3441 13.2841C55.0029 13.7219 53.8026 14.1431 52.7346 14.8535L52.3704 13.5815C52.7346 12.4665 53.3803 11.4423 54.1916 10.6989L54.1834 10.6906ZM59.8128 5.82577C60.4089 4.92548 61.303 4.35557 62.2716 4.25646L62.6689 4.21516L62.6441 4.19864L69.6974 6.53609C67.1394 7.18034 64.9538 9.14611 64.0846 11.624C64.0349 11.7644 63.9935 11.9131 63.9438 12.0535C63.9273 12.0535 63.9107 12.0535 63.8859 12.0535L59.2002 8.14671C59.1174 7.35379 59.3244 6.52783 59.8045 5.82577H59.8128ZM75.865 -10.4703L71.1628 -8.85146L71.1959 -8.90102L70.9227 -8.95058C66.7668 -9.71046 62.6772 -11.288 59.1009 -13.5181C57.8011 -14.3358 56.0378 -15.6243 55.8143 -17.4662L55.7811 -17.7222L55.5493 -17.5983C55.5493 -17.5983 55.4997 -17.5736 55.4748 -17.5653L58.629 -24.9493C58.629 -24.9493 58.6538 -24.9328 58.6704 -24.9246C58.7697 -24.8172 58.7945 -24.652 58.8277 -24.462C59.3989 -20.8361 62.5282 -18.35 65.6823 -16.1034C68.6709 -13.9724 72.0568 -11.5606 75.8733 -10.4786L75.865 -10.4703ZM42.0304 -11.3046C40.9128 -10.2556 39.3978 -9.6609 37.858 -9.6609C37.8414 -9.6609 37.8249 -9.6609 37.8166 -9.6609L33.9836 -12.8491C37.6759 -13.9311 40.8714 -16.7641 42.3698 -20.291L43.9096 -14.8644C43.6944 -13.4933 43.0238 -12.2296 42.0304 -11.3046ZM30.25 -6.86917L26.6239 -8.06681C28.4866 -10.1152 29.7201 -12.7335 30.0927 -15.4509C30.1175 -15.4509 30.1423 -15.4674 30.1672 -15.4756C30.192 -15.4839 30.2169 -15.4921 30.2417 -15.5004L33.5531 -12.7417C34.0333 -10.363 32.5266 -7.68687 30.2417 -6.87743L30.25 -6.86917ZM31.4752 0.663551C30.9371 2.10897 29.9437 3.51309 28.5363 4.83463L28.4866 4.87592C28.3376 5.01633 28.1969 5.14022 28.0644 5.26412C27.6174 5.66058 27.2366 6.00748 27.0544 6.33786L24.3639 7.26294C26.6736 2.6954 27.4352 -2.74765 26.4749 -7.74468L29.8443 -6.6379L30.0099 -6.50575C31.8726 -4.94469 32.4769 -1.99603 31.4752 0.655289V0.663551ZM48.5291 21.2629C46.3767 19.1815 43.4543 17.8847 40.474 17.6865C40.474 17.67 40.4657 17.6535 40.4575 17.6369L41.8317 14.424C43.5868 13.8045 45.6647 14.0275 47.2542 15.0269L47.3784 15.1095C47.7012 15.3077 48.0572 15.5308 48.4711 15.5308H48.496C48.496 15.5308 48.5539 15.5308 48.587 15.5225L48.7775 20.5856C48.6864 20.8169 48.6036 21.0481 48.5125 21.2711L48.5291 21.2629ZM49.3404 10.0051C49.9447 10.0794 50.5242 10.2364 51.0706 10.4759L51.1286 10.4924L52.0061 13.5815C51.8323 14.1431 51.7329 14.6965 51.6998 15.2169C51.1865 15.0765 50.5574 14.9195 49.9282 14.9195C49.655 14.9195 49.3735 14.9526 49.1086 15.0269C49.0672 15.0269 49.0258 15.0434 48.9844 15.06C48.9761 15.06 48.9596 15.06 48.9513 15.0682L48.7526 10.096C48.9016 9.99685 49.1583 9.98859 49.3487 10.0134L49.3404 10.0051ZM77.1896 8.62576C75.9312 7.85762 74.5321 6.88299 73.7457 5.44583C72.6032 3.33964 73.0172 0.754402 73.5056 -1.26093C74.2755 -4.38304 75.4511 -7.40604 76.5935 -10.3299L84.3092 -12.9895C81.4365 -5.58068 80.8653 2.72844 82.6948 10.4429L77.1896 8.63402V8.62576ZM42.138 -20.6792C40.6893 -17.0449 37.4358 -14.1624 33.6442 -13.1382L30.6722 -15.616C33.4124 -16.442 35.4489 -18.3334 36.6824 -19.7954C38.2802 -21.662 39.4558 -23.7765 40.7058 -26.1387L42.2125 -20.8526L42.138 -20.6792ZM49.0175 15.4151L49.1831 15.3738C50.0441 15.1426 50.963 15.3903 51.7743 15.6133C50.5077 16.811 49.6964 18.4133 49.1252 19.7679L48.9513 15.4399C48.9513 15.4399 48.9927 15.4234 49.0175 15.4151ZM56.46 13.6228C58.5793 12.929 61.2202 12.07 63.7617 12.3839L70.0617 17.6369L70.0286 17.8021C64.5564 16.3732 58.3309 18.7024 55.1602 23.3773L52.8422 15.2086C53.9267 14.4653 55.2099 14.0358 56.46 13.6228ZM64.2584 12.3343V12.293C65.0035 9.49302 67.5119 7.21338 70.3763 6.74258L77.0157 8.93137C77.1979 9.047 77.3883 9.15437 77.5704 9.26175C74.3748 10.1125 71.6015 12.6812 70.4839 15.8777C70.3432 16.2741 70.2273 16.7119 70.1279 17.224L64.2501 12.326L64.2584 12.3343ZM76.4776 -10.6768C72.4956 -11.6845 68.9938 -14.1871 65.9059 -16.3924C62.8097 -18.5977 59.7466 -21.0426 59.2002 -24.5198C59.1754 -24.7429 59.1257 -24.9906 58.9518 -25.1641C58.9104 -25.2137 58.8525 -25.2467 58.8028 -25.2797L61.7997 -32.3004C61.8411 -31.9535 61.8825 -31.5983 61.9239 -31.2266V-31.1688C62.2467 -28.4184 62.611 -25.3045 63.7203 -22.9671C64.8462 -20.5883 67.4871 -19.2833 69.3746 -18.5069C70.0783 -18.2178 70.7902 -17.9205 71.4939 -17.6314L71.5601 -17.6066C73.6546 -16.7311 75.5339 -15.9464 77.4379 -15.2444C77.4876 -15.2196 82.8935 -13.4025 84.6237 -13.7411C84.5824 -13.642 84.541 -13.5429 84.5078 -13.4355L76.4942 -10.6768H76.4776ZM36.4175 -20.0267C35.1674 -18.5564 33.0978 -16.6485 30.3493 -15.8969L23.7264 -21.4143C23.8175 -21.5877 23.9168 -21.7529 24.041 -21.9181C24.7033 -22.7606 25.3573 -23.2231 25.9865 -23.2809C30.3741 -23.7517 34.7121 -26.7417 37.5931 -31.2762C37.9159 -31.78 38.4789 -32.1269 38.959 -32.3664L40.5816 -26.6508C39.4392 -24.5033 38.1395 -22.0668 36.4175 -20.0349V-20.0267ZM29.9188 -15.7812L29.7864 -15.7482L29.7698 -15.616C29.4138 -12.8656 28.172 -10.2308 26.268 -8.19896L17.6168 -11.0568C17.6168 -11.0568 17.592 -11.0981 17.5837 -11.1228C17.5837 -11.1394 17.5672 -11.1559 17.5589 -11.1724C19.9845 -13.9228 21.9217 -17.0615 23.3042 -20.4892L23.3539 -20.6131C23.4119 -20.77 23.4781 -20.9269 23.5443 -21.0839L29.9023 -15.7895L29.9188 -15.7812ZM23.9251 7.7998C28.1886 11.244 31.8063 15.6051 34.4058 20.4204C34.5879 20.7673 34.737 21.0564 34.8115 21.3785C34.886 21.6924 34.886 22.031 34.8777 22.3614V22.4027C34.8777 22.477 34.8777 22.5596 34.8777 22.634C34.8694 24.4015 35.3579 26.1525 35.7883 27.6971L33.2882 33.5696C33.2882 33.5696 33.2634 33.5614 33.2551 33.5531C32.6425 33.1567 32.4438 31.8929 32.3031 30.9679C32.2451 30.6127 32.1954 30.2988 32.1375 30.0511C31.4669 27.4989 30.5314 25.0292 29.3476 22.7083C27.9982 20.0487 26.3176 17.5709 24.3722 15.349C21.9217 12.549 19.5126 10.8558 17.0125 10.1786L23.9417 7.79155L23.9251 7.7998ZM47.4612 22.8405L47.3701 22.7992C46.7409 22.5266 46.1283 22.2788 45.4577 22.1549C44.1083 21.9071 42.7175 21.9567 41.4343 22.3119C41.0452 22.4192 40.6065 22.5762 40.2505 22.8652C39.9359 23.1213 39.729 23.4517 39.5054 23.8233L39.4144 23.9555C38.6279 25.2275 37.5682 26.3756 36.343 27.2758L40.2919 18.0334H40.3167C43.3715 18.1986 46.3353 19.5366 48.4711 21.7089L48.6781 21.8989L48.7692 21.6428C48.7857 21.5933 48.8106 21.5355 48.8354 21.4859L48.9099 23.3526C48.4132 23.2369 47.9248 23.0387 47.4612 22.8405ZM52.5277 15.4234L54.7049 23.0965C53.5708 22.4853 52.4449 22.7992 51.4597 23.08C50.6898 23.2947 49.9861 23.4682 49.2824 23.3856L49.1665 20.6186C49.8951 18.7685 50.8719 16.7036 52.5359 15.4069L52.5277 15.4234ZM51.5508 23.4352C52.6767 23.113 53.7363 22.8157 54.8539 23.6169L57.8425 34.1148C57.8094 34.1808 57.7846 34.2469 57.7514 34.3213L57.7183 34.4121C55.2513 33.041 52.0061 33.2475 49.7295 34.9325L49.2824 23.7655C50.0937 23.8481 50.905 23.6251 51.5508 23.4434V23.4352ZM55.3507 23.7408C58.4551 18.9998 64.6723 16.6706 70.1362 18.1986L70.3349 18.2564L70.3597 18.0499C70.3597 18.0004 70.3763 17.9508 70.3846 17.9012L76.5024 22.9891C73.0751 23.6416 69.209 24.3933 65.7154 26.103C62.106 27.8623 59.3989 30.5136 58.066 33.5779L55.2927 23.8399L55.3507 23.749V23.7408ZM40.9128 -32.9446L46.6499 -33.9357L46.9313 -26.7334C46.9313 -26.7334 46.8899 -26.783 46.8651 -26.816L46.7492 -26.9812L46.6002 -26.849C45.019 -25.5193 42.5188 -25.511 40.9211 -26.8078L40.8962 -26.8325L39.2819 -32.5234C39.7869 -32.7464 40.3581 -32.8537 40.9045 -32.9529L40.9128 -32.9446ZM36.2106 32.8098C35.9456 32.9006 35.6476 33.041 35.3744 33.1814C34.8032 33.454 34.1492 33.7596 33.6276 33.6935L36.0781 27.9284H36.0864C37.5434 26.9372 38.8018 25.6405 39.729 24.1537L39.8117 24.0216C39.9856 23.7408 40.1926 23.3939 40.474 23.1543C40.7803 22.9065 41.1611 22.7744 41.5254 22.6753C42.7424 22.3284 44.0752 22.2788 45.3915 22.5183C46.0372 22.6422 46.6664 22.9065 47.2211 23.1378C47.7095 23.3443 48.2642 23.5838 48.8437 23.716C48.8685 23.716 48.8934 23.716 48.9182 23.7242L49.3652 34.9903C48.2311 34.1974 43.6778 32.4133 43.3136 32.3472C42.4361 32.1903 41.5502 32.1077 40.6727 32.1077C39.1495 32.1077 37.6345 32.339 36.2023 32.8015L36.2106 32.8098ZM49.4397 35.3289L49.4646 35.3537L49.4397 35.3207V35.3289Z" fill="#FFFDFD"/>
</svg>
