<svg width="22" height="30" viewBox="0 0 22 30" fill="none" xmlns="http://www.w3.org/2000/svg">
<path d="M13.7809 19.5309C13.9129 19.1773 13.9938 18.7942 14.0193 18.3926L18.691 17.037L22 11.2794L18.1885 16.5582L14.0108 17.6449C13.9853 17.4128 13.9384 17.1881 13.8788 16.9744L15.8846 14.2301L14.2493 7.96041L15.1436 14.138L13.5466 16.1787C13.0399 15.2726 12.1882 14.6574 11.2044 14.58V-58H10.7956V14.58C9.81611 14.6574 8.96013 15.2689 8.45335 16.1787L6.85637 14.138L7.75068 7.96041L6.11536 14.2301L8.12118 16.9744C8.0573 17.1881 8.01471 17.4128 7.98916 17.6449L3.81146 16.5582L0 11.2794L3.30894 17.037L7.98064 18.3926C8.00619 18.7942 8.0871 19.181 8.21912 19.5309L3.99883 21.498L1.86527 27.6572L4.59078 21.8958L8.55129 20.1866C8.69182 20.4113 8.85366 20.6176 9.03678 20.8018L6.8947 23.7267L8.52149 30L7.63143 23.8224L9.61169 21.2991C9.54781 21.4907 9.50948 21.7006 9.50948 21.918C9.50948 22.3932 9.67131 22.8241 9.93534 23.1409C10.2079 22.9273 10.5826 22.791 11 22.791C11.4173 22.791 11.7921 22.9236 12.0604 23.1409C12.3244 22.8241 12.4905 22.3932 12.4905 21.918C12.4905 21.7006 12.4522 21.4907 12.3883 21.2991L14.3686 23.8224L13.4785 30L15.1053 23.7267L12.9632 20.8018C13.1463 20.6213 13.3082 20.415 13.4487 20.1866L17.4092 21.8958L20.1347 27.6572L18.0012 21.498L13.7809 19.5309Z" fill="#2B1C07"/>
</svg>
