<svg width="206" height="70" viewBox="0 0 206 70" fill="none" xmlns="http://www.w3.org/2000/svg">
<path opacity="0.1" d="M225.71 67.6246C220.539 46.4613 222.135 23.689 230.229 3.41962L263.684 -8.06712L263.909 -8.13416L263.572 -9.05042L230.724 2.23519C230.904 1.78823 231.061 1.36362 231.263 0.916672L231.331 0.715546L230.431 0.357979L230.341 0.559105C229.532 2.39162 216.559 -1.04993 211.186 -2.92714L210.646 -3.10593C205.43 -5.02783 200.349 -7.12851 194.683 -9.49737C192.704 -10.3242 190.726 -11.1511 188.747 -11.9556C183.756 -14.0116 176.786 -17.4308 173.908 -23.5317C170.986 -29.6774 170.019 -38.0578 169.142 -45.4325C169.074 -45.9242 169.029 -46.4158 168.962 -46.9075C168.85 -47.8908 168.737 -48.8517 168.602 -49.768L168.535 -50.1479L185.195 -89.0106L185.015 -89.1C184.858 -89.167 184.7 -89.234 184.498 -89.3011L184.296 -89.3681L167.253 -49.6339C166.264 -48.8294 165.342 -48.0695 164.488 -47.3544C160.194 -43.7117 156.124 -40.2702 150.121 -40.8736C145.377 -41.3652 140.296 -43.8458 134.63 -48.4941C134.315 -48.7623 133.843 -49.2093 133.191 -49.9021C131.572 -51.5334 129.391 -53.7682 127.593 -53.8799L125.794 -99H125.569C125.457 -99 125.322 -99 125.21 -98.9777H124.805L126.604 -53.7906L111.023 -51.1312C109.336 -50.8407 107.807 -50.5501 106.391 -49.9468L93.9802 -93.4578L93.9128 -93.6812L92.946 -93.4131L105.469 -49.5221C104.008 -48.807 102.254 -47.7567 101.22 -46.17C93.5306 -34.1469 82.0191 -26.2135 70.4177 -24.9843C68.4167 -24.7609 66.3932 -23.3977 64.4596 -20.9171C64.1224 -20.4701 63.8526 -20.0231 63.6278 -19.5985L26.7102 -50.2149L26.5303 -50.3714L25.9008 -49.6115L63.1781 -18.6823C62.9533 -18.1906 62.7284 -17.6543 62.5036 -17.1179L62.3687 -16.8274C58.614 -7.55312 53.3304 0.939018 46.6753 8.38081L46.473 8.62663L1.43893 -6.16756L1.23658 -6.2346L1.16913 -6.03347C1.10168 -5.85469 1.05672 -5.67591 0.989265 -5.49713L0.944299 -5.296L47.17 9.90046C56.5905 27.354 54.7019 50.4392 42.5609 66.0603L42.0213 66.7531L42.4934 66.7977L0.20235 81.3238L0 81.3908L0.0674499 81.5919C0.112417 81.7707 0.179866 81.9495 0.224833 82.1059L0.292283 82.3071L44.427 67.1553C51.5542 68.6079 58.4116 73.2115 65.4264 81.1673C70.6875 87.1565 75.1842 93.7938 78.804 100.9C81.9741 107.113 84.5147 113.728 86.3134 120.566C86.4483 121.103 86.5607 121.818 86.6956 122.555L86.7631 123.002C87.2127 125.796 87.7748 129.282 89.7758 130.578C89.8433 130.623 89.9332 130.668 90.0007 130.712L75.1392 165.351L75.0493 165.552L75.2516 165.642C75.409 165.731 75.5889 165.798 75.7687 165.865L75.9711 165.932L90.9225 131.047C92.7436 131.45 94.902 130.399 96.4759 129.617L96.9255 129.394C97.5326 129.103 98.1171 128.835 98.6567 128.679C104.637 126.734 111.157 126.31 117.475 127.449C119.296 127.762 133.438 133.819 133.911 134.712L134.045 134.645L134.135 134.735L135.844 177.799V178H136.046C136.114 178 136.204 178 136.271 178C136.339 178 136.429 178 136.496 178H136.811L135.102 134.668C141.105 129.863 150.211 129.237 156.799 133.193L157.361 133.506L157.518 132.925C157.518 132.925 157.518 132.88 157.541 132.858L169.007 173.039L169.074 173.262L170.041 172.994L158.17 131.338C161.453 122.891 169.007 115.27 178.922 110.465C188.545 105.772 199.292 103.739 208.78 101.973L240.032 127.874L240.212 128.008L240.347 127.829C240.347 127.829 240.459 127.695 240.504 127.628C240.571 127.561 240.616 127.494 240.684 127.427L240.819 127.248L210.017 101.705H210.219L210.241 101.191C210.646 95.0006 211.073 88.6091 213.322 82.687C215.817 76.1391 220.359 71.379 225.777 69.6136L226.205 69.4795L226.115 69.0325C226.07 68.8984 226.047 68.7867 226.025 68.6526L265.505 81.659L265.708 81.726L265.775 81.5249C265.843 81.3461 265.91 81.145 265.955 80.9662L266 80.7651L225.755 67.5352L225.71 67.6246ZM212.085 83.2457C210.039 89.0561 209.612 95.3805 209.252 100.967C209.23 100.967 209.185 100.967 209.162 100.967C209.117 100.967 209.05 100.967 209.005 100.99L191.333 86.3297C193.177 75.8262 201.698 66.9765 212.107 64.7641L213.187 64.5183L224.878 68.3621C224.878 68.3621 224.923 68.5632 224.945 68.675C224.945 68.7643 224.99 68.8314 224.99 68.9208C219.482 70.8874 214.873 75.8262 212.355 82.4635L212.085 83.2457ZM48.4965 10.3474L70.8899 17.7222C73.7003 31.5554 71.5194 46.6178 64.9093 59.1101L44.382 66.1497L44.1347 66.105C44.1347 66.105 43.9099 66.0603 43.7975 66.0379C55.6687 50.2381 57.5123 27.9798 48.474 10.3474H48.4965ZM132.517 -49.2093C133.146 -48.5612 133.641 -48.0695 134.023 -47.7567C139.869 -42.9743 145.107 -40.4043 150.054 -39.9126C156.461 -39.2422 160.891 -42.9966 165.14 -46.6393L165.657 -47.0639C165.927 -47.2874 166.174 -47.5109 166.444 -47.712L158.71 -29.6327C158.305 -29.655 157.923 -29.6327 157.518 -29.5656C156.596 -29.4092 155.697 -29.2528 154.775 -29.074C154.146 -28.9622 153.516 -28.8505 152.864 -28.7164C149.087 -28.0013 145.197 -27.2191 141.33 -27.3085C136.069 -27.3755 131.37 -29.1187 128.47 -32.0909L127.66 -52.8743C129.077 -52.7179 131.213 -50.5278 132.517 -49.1869V-49.2093ZM126.806 -32.5826C127.008 -32.3144 127.211 -32.0909 127.458 -31.8227L127.525 -31.7334L128.312 -12.1568C128.312 -12.1568 128.132 -12.1568 128.065 -12.1568C127.908 -12.1568 127.728 -12.1568 127.57 -12.1568C127.278 -12.1344 126.963 -12.1121 126.671 -12.0897H126.424C122.601 -12.0897 119.162 -14.3468 115.991 -16.671L111.585 -32.1356C116.149 -29.141 122.557 -29.3198 126.873 -32.6049L126.806 -32.5826ZM142.387 79.7371C142.027 80.0052 141.712 80.2734 141.375 80.5863C141.398 79.67 141.532 78.6867 141.757 77.614L142.387 79.7594V79.7371ZM95.4866 96.632C95.2618 95.6263 94.7896 94.7547 94.295 93.8161C87.3476 80.8992 77.5899 69.1219 66.056 59.7359L73.1832 57.2776C73.1832 57.2776 73.1832 57.4341 73.1832 57.5011C73.3855 58.6185 74.5546 59.5571 77.0953 60.6745C86.1785 64.6747 94.5423 70.0829 101.962 76.7201C104.885 79.3348 108.01 82.5529 108.842 86.5978L97.7574 112.476C96.6332 108.543 95.599 104.364 95.6215 100.208V100.074C95.6215 99.9171 95.6215 99.7383 95.6215 99.5819C95.6215 98.6656 95.6665 97.6376 95.4191 96.632H95.4866ZM141.308 -26.3475C141.42 -26.3475 141.555 -26.3475 141.667 -26.3475C145.445 -26.3475 149.177 -27.0403 152.797 -27.7331L153.066 -27.7778C154.618 -28.0907 156.147 -28.3812 157.653 -28.6047C157.855 -28.627 158.058 -28.6494 158.26 -28.6717L149.402 -7.95538C144.5 -6.01112 138.632 -6.65921 134.428 -9.60912C134.293 -9.72085 134.18 -9.81023 134.045 -9.89963C133.911 -9.98901 133.798 -10.0784 133.663 -10.1901C132.584 -11.017 131.572 -11.7321 130.358 -12.0227C130.021 -12.1121 129.661 -12.1568 129.279 -12.1568L128.537 -30.7277C131.64 -27.9789 136.249 -26.3923 141.308 -26.3475ZM93.3282 24.0689L83.6154 20.8732C89.3262 18.2585 93.0359 11.7106 92.3165 5.49796L101.939 13.4761C102.344 15.7332 101.647 18.1691 100.006 20.1581C98.3645 22.147 96.0937 23.3314 93.7779 23.3985H92.991L93.3507 24.0913L93.3282 24.0689ZM130.156 -11.0841C131.235 -10.8159 132.224 -10.0784 133.079 -9.43033C133.214 -9.31859 133.348 -9.22919 133.506 -9.11746C133.641 -9.02807 133.753 -8.93867 133.888 -8.82693C138.137 -5.83234 143.826 -5.02782 148.884 -6.7039L144.23 4.17944C139.014 5.49796 133.236 3.48666 130.178 -0.737061L129.954 -1.02759L129.751 -0.938194L129.346 -11.1958C129.639 -11.1958 129.909 -11.1511 130.178 -11.0841H130.156ZM199.449 54.1936C201.113 57.2329 203.699 59.4677 206.06 61.1438L191.873 56.4731L191.805 56.3837C188.388 52.674 185.487 48.495 183.194 43.9807C182.834 43.2209 182.452 42.4611 182.272 41.6342C181.867 39.9358 182.295 38.0586 182.834 36.2708C184.858 29.2536 188.05 22.5716 192.367 16.4036L206.824 11.4424C203.811 19.1524 200.753 27.1082 198.73 35.3545C197.336 40.9638 196.167 48.1597 199.472 54.1936H199.449ZM147.108 11.3754C148.66 13.4984 150.953 14.9287 153.201 16.1578C158.552 19.0854 164.308 21.3648 170.378 22.8845L158.71 26.9071C151.245 26.9071 143.826 22.5046 140.228 15.9343L144.927 4.9616L145.062 4.91691C145.22 4.87222 145.4 4.82752 145.557 4.78283C145.017 6.90586 145.602 9.38646 147.086 11.3754H147.108ZM124.535 17.7445C124.715 19.063 123.253 20.1357 122.017 20.7614C119.993 21.8118 117.835 22.728 115.587 23.4879L112.799 21.1861C115.362 21.4542 117.97 20.6721 119.903 19.063C121.815 17.4763 123.029 15.0851 123.253 12.6045L124.49 16.94H124.4L124.558 17.7222L124.535 17.7445ZM143.736 5.27447L139.509 15.1522L139.307 15.2416C136.699 16.3366 133.371 15.6662 131.415 13.6549L131.258 13.4537C131.01 13.1856 130.718 12.8951 130.358 12.761C130.313 12.7386 130.291 12.7163 130.246 12.7163L129.774 0.425018C132.989 4.33587 138.61 6.30247 143.736 5.29682V5.27447ZM132.202 44.0701V44.1148C132.202 44.1148 132.179 44.1372 132.179 44.1595C132.022 44.0925 131.842 44.0478 131.64 44.0254C131.617 44.0254 131.572 44.0254 131.55 44.0254H131.527L131.415 41.2543L132.224 44.0701H132.202ZM104.345 28.7172L109.269 30.3263C109.988 31.2202 110.168 32.561 109.831 34.4159C109.246 37.634 107.807 40.718 105.672 43.355C105.042 44.1819 104.75 44.8299 104.75 45.4333L102.569 46.1708C102.816 45.6345 103.198 45.0758 103.558 44.5618L103.693 44.383C104.008 43.936 104.3 43.5338 104.502 43.1092C105.379 41.3214 105.964 39.4665 106.234 37.6563C106.661 34.4606 105.964 31.2425 104.368 28.6949L104.345 28.7172ZM152.684 36.1367C152.032 37.4775 151.335 39.0642 151.358 40.785C151.358 41.7013 151.65 42.6399 152.122 43.3997L148.592 42.2376C147.423 40.4051 147.333 37.8351 148.39 35.5109C149.469 33.0974 151.56 31.2202 153.246 29.8346L157.406 28.4044C155.607 30.8626 154.011 33.455 152.707 36.1367H152.684ZM131.55 36.2261L133.101 32.5834C133.641 33.6561 134.54 34.4606 135.597 34.8405L131.55 36.2261ZM137.081 34.3265L137.126 34.2595C137.126 34.2595 137.171 34.2595 137.193 34.2818L137.081 34.3265ZM147.468 35.0863C146.456 37.3211 146.366 39.7794 147.198 41.7683L145.265 41.1202C144.073 39.8241 143.309 38.662 142.904 37.4552C142.409 35.9579 142.522 34.4159 143.219 33.2315L150.773 30.6168C149.222 32.1141 148.143 33.5667 147.468 35.064V35.0863ZM146.704 42.6175L147.738 42.9527C146.906 43.9807 146.456 45.411 146.479 46.9306C146.479 47.8022 146.636 48.6067 146.838 49.3889L142.184 45.5227C142.027 44.8076 142.184 44.0701 142.567 43.4891C143.129 42.6622 144.253 42.1929 145.22 42.3717L146.749 42.6622L146.704 42.6175ZM136.339 40.0475C136.564 39.7123 137.013 39.5335 137.395 39.6006L139.486 40.271C139.486 40.271 139.599 40.4274 139.666 40.4945C139.666 40.5168 139.711 40.5615 139.734 40.5839C139.104 40.7403 138.52 41.1426 138.16 41.6566C138.092 41.7683 138.003 41.8801 137.935 42.0141L136.181 40.5615C136.181 40.3828 136.249 40.204 136.339 40.0475ZM142.005 37.7681C142.297 38.6843 142.814 39.6006 143.533 40.5615L140.049 39.4218C139.644 38.8855 139.374 38.3714 139.217 37.8575C138.834 36.7401 138.969 35.578 139.531 34.7958L139.756 34.4606L141.982 33.7008C141.532 34.9969 141.532 36.4272 141.982 37.7904L142.005 37.7681ZM138.295 38.1703C138.385 38.4385 138.497 38.6843 138.632 38.9525L137.755 38.662C137.148 37.9915 136.766 37.4328 136.564 36.8518C136.429 36.4272 136.406 35.9802 136.474 35.578L138.362 34.9299C137.958 35.8685 137.935 37.0529 138.295 38.1703ZM138.969 42.2376C139.329 41.7013 140.071 41.4107 140.701 41.5225L142.229 41.7683L141.285 40.8521L143.646 41.6342C142.881 41.9024 142.229 42.3717 141.802 42.9751C141.622 43.2209 141.465 43.4891 141.375 43.7796C141.263 44.0701 141.218 44.383 141.195 44.7182L138.767 42.7293C138.812 42.5505 138.879 42.394 138.969 42.26V42.2376ZM135.934 39.1089C135.777 39.2207 135.642 39.3548 135.552 39.5112C135.484 39.6229 135.394 39.757 135.35 39.8911L133.416 38.2821L135.934 39.1313V39.1089ZM135.439 35.9355C135.439 36.3602 135.484 36.7848 135.619 37.1647C135.732 37.5222 135.889 37.8351 136.091 38.148L132.494 36.9635L135.439 35.9579V35.9355ZM133.866 42.908C134.405 42.3046 135.147 41.9471 135.889 41.9247H136.271L137.71 43.0868C137.688 43.3773 137.71 43.6455 137.778 43.9137C136.631 44.1148 135.552 44.7182 134.72 45.6121C134.428 45.9473 134.18 46.2825 133.978 46.6401L133.236 43.9807C133.371 43.5785 133.596 43.2209 133.866 42.8857V42.908ZM136.946 34.1477L136.429 34.0583C135.08 33.8125 133.933 32.6504 133.663 31.2649L134.135 30.1251C134.473 31.7565 135.507 33.2538 136.923 34.1477H136.946ZM130.875 27.1752L130.83 27.1082L130.695 23.3761C131.797 24.5606 133.506 25.2086 135.237 25.1192L133.843 28.3597C132.696 28.5385 131.505 28.0692 130.875 27.1752ZM130.943 29.5665L130.898 28.5161C131.617 29.0524 132.517 29.3653 133.393 29.3653L133.146 29.9464L132.944 30.0134C132.292 30.2369 131.482 30.0358 130.943 29.5441V29.5665ZM132.652 31.0861L131.123 34.6617L130.965 30.7732C131.505 31.0191 132.089 31.1308 132.652 31.0861ZM125.907 44.2265C125.277 42.6175 124.13 41.232 122.646 40.2934L129.751 37.8575L126.693 44.964C126.469 45.0981 126.356 45.1428 126.289 45.1428C126.244 45.0758 126.109 44.8523 125.884 44.2042L125.907 44.2265ZM125.052 31.3543C125.502 31.2425 125.996 31.0861 126.491 30.8179C127.143 30.438 127.66 29.9017 127.975 29.2983L129.639 35.1534L125.052 31.3543ZM127.345 28.2703C127.233 28.9407 126.738 29.5888 126.019 29.9911C125.367 30.3486 124.625 30.4827 124.108 30.5497L123.164 29.7676C123.883 29.5888 124.49 29.343 125.03 29.0301C126.041 28.4714 126.828 27.6222 127.233 26.6612L127.458 27.5105L127.323 28.2703H127.345ZM128.762 35.7121L122.894 33.7678C123.501 33.2762 123.928 32.5834 124.085 31.8236L128.739 35.7121H128.762ZM115.07 32.2258L118.532 33.3656C119.027 36.092 118.375 38.9748 116.733 41.3214L112.259 42.841C114.373 39.8241 115.384 36.0026 115.092 32.2258H115.07ZM119.791 40.0699L120.038 40.1369L118.127 40.785C119.341 38.6173 119.859 36.0696 119.566 33.6784L121.77 34.3936C121.904 36.2484 121.342 38.1033 120.241 39.4888L119.791 40.0475V40.0699ZM123.186 31.1084C123.209 31.9577 122.714 32.8069 121.972 33.2315L121.702 33.3879L120.241 32.8963C121.005 32.1364 121.5 31.1084 121.612 30.0804C121.725 30.0804 121.815 30.0581 121.927 30.0358L123.209 31.0861V31.1308L123.186 31.1084ZM126.514 25.6109C126.334 26.6165 125.592 27.5998 124.513 28.1809C123.748 28.6055 122.894 28.829 122.174 28.9631L118.644 26.0132C119.836 25.8344 121.387 25.4768 122.826 24.6723C124.153 23.9348 125.187 22.8174 125.772 21.5883L126.648 24.717L126.491 25.6109H126.514ZM120.623 29.1642V29.6335C120.623 30.7062 120.061 31.8459 119.139 32.5387L114.935 31.1531C114.935 31.1531 114.935 31.1531 114.935 31.1308C116.486 30.1475 117.543 28.4714 117.813 26.6389L120.87 29.1865H120.6L120.623 29.1642ZM110.82 43.0645L110.55 43.3997L105.784 45.0087C105.874 44.6958 106.076 44.3383 106.413 43.936C108.639 41.1873 110.146 37.9468 110.775 34.55C111.045 33.008 111 31.7342 110.595 30.7285L114.058 31.8683C114.507 35.8909 113.338 39.9581 110.865 43.0645H110.82ZM129.391 36.9412L121.455 39.6676C121.455 39.6676 121.387 39.6453 121.365 39.6229C122.309 38.215 122.804 36.5166 122.759 34.7735L129.414 36.9635L129.391 36.9412ZM129.324 29.6111H129.436C129.436 29.6111 129.594 29.6111 129.616 29.6111C129.616 29.6111 129.684 29.7005 129.729 29.7452L129.819 29.8793C129.819 29.8793 129.886 29.9687 129.931 29.9911L130.043 33.075L129.054 29.5888C129.054 29.5888 129.234 29.6111 129.324 29.6111ZM129.594 28.6278C129.594 28.6278 129.481 28.6278 129.436 28.6278H129.324C129.122 28.6278 128.964 28.5832 128.739 28.4938L128.357 27.1976C128.649 27.287 128.919 27.3093 129.167 27.287H129.324C129.459 27.287 129.594 27.287 129.684 27.3317C129.706 27.3317 129.774 27.4211 129.819 27.4881L129.886 28.6949C129.886 28.6949 129.684 28.6502 129.594 28.6502V28.6278ZM129.279 26.326H129.189C128.784 26.326 128.402 26.1919 128.02 25.9908L126.783 21.6554C127.435 22.0129 128.155 22.2141 128.852 22.2141H129.122C129.324 22.1917 129.481 22.1917 129.594 22.2141L129.751 26.3484C129.751 26.3484 129.549 26.3484 129.481 26.3484C129.414 26.3484 129.324 26.3484 129.279 26.3484V26.326ZM121.41 52.4729C119.926 48.562 116.823 45.2769 113.024 43.5785L116.351 42.4387L116.576 42.5281C119.521 43.4444 122.017 45.8356 123.141 48.7631C123.523 49.7911 123.771 50.4169 124.22 50.685L122.512 54.6629C122.219 54.5512 121.882 53.6796 121.41 52.4952V52.4729ZM117.835 41.9247L121.365 40.6956C123.029 41.5225 124.31 42.9304 124.94 44.5841L124.985 44.6735C125.299 45.4557 125.479 45.9026 125.929 46.0814C126.019 46.1038 126.086 46.1261 126.154 46.1261L124.625 49.7241C124.445 49.4559 124.22 48.8525 124.04 48.4056C122.961 45.5451 120.6 43.1092 117.835 41.9247ZM135.125 41.0308C134.338 41.2096 133.618 41.6342 133.056 42.26C132.944 42.394 132.831 42.5281 132.741 42.6622L131.392 37.9692L135.125 41.0532V41.0308ZM135.372 46.2825C136.204 45.3886 137.328 44.8523 138.407 44.8299L139.239 44.7852L138.812 44.0925L141.24 46.1038C141.24 46.1038 141.24 46.1708 141.263 46.1931C139.621 46.4166 138.048 47.2435 136.811 48.562C136.091 49.3442 135.529 50.2604 135.192 51.2437L134.315 48.1597C134.518 47.4446 134.877 46.7965 135.35 46.2602L135.372 46.2825ZM151.448 29.3877L143.264 32.2035L143.039 32.1588C139.531 31.5331 136.721 28.0245 136.901 24.4935V23.7784L136.788 23.8231L138.115 20.7391C139.104 23.1973 141.105 25.3427 143.848 26.8177C146.254 28.1362 148.974 28.8513 151.448 29.41V29.3877ZM141.577 32.7622L138.475 33.8349C136.361 33.0974 134.832 30.9297 134.967 28.7619V28.0468L135.957 25.745C136.339 28.8066 138.632 31.6895 141.577 32.7622ZM135.597 24.0913C133.888 24.4265 132.022 23.7337 131.055 22.3928L130.943 22.2587C130.853 22.1023 130.718 21.9682 130.561 21.7894L130.448 18.5043C132.134 20.2475 134.9 20.9626 137.261 20.2474L135.597 24.0913ZM129.212 21.2308C129.212 21.2308 129.099 21.2308 129.054 21.2308H128.874C128.874 21.2308 128.874 21.2308 128.852 21.2308C127.93 21.2308 126.986 20.7838 126.334 20.0463L125.862 18.4149C127.053 18.6831 128.29 18.6608 129.459 18.3032L129.571 21.2308C129.436 21.2308 129.324 21.2084 129.212 21.2084V21.2308ZM125.254 20.0687C125.007 21.5436 123.906 22.9739 122.309 23.8678C120.78 24.717 119.004 25.0299 117.588 25.2086L116.374 24.203C118.509 23.4655 120.533 22.594 122.399 21.633C123.343 21.1637 124.513 20.4039 125.097 19.3535L125.277 19.9569V20.0687H125.254ZM116.891 25.9014C116.846 27.7563 115.767 29.5665 114.148 30.4604L113.855 30.6391V30.8403L110.865 29.857C112.934 28.7619 114.62 27.0188 115.699 24.9181L116.891 25.9238V25.9014ZM110.056 47.4223C109.426 47.1317 108.707 46.9306 108.055 46.7518C107.335 46.5507 106.548 46.3049 106.076 45.992L111.652 44.0701C115.609 45.5227 118.982 48.8749 120.511 52.8304L120.555 52.9645C121.118 54.4395 121.455 55.2887 122.152 55.5568L120.983 58.2833C119.926 56.0932 117.34 52.8528 117.138 52.6069C115.159 50.4169 112.731 48.6067 110.056 47.4223ZM129.032 44.1595H128.987H128.942H128.897C128.582 44.1819 128.29 44.2713 128.02 44.3606L130.291 39.0866L130.493 44.3159C130.493 44.3159 130.403 44.3606 130.358 44.383C129.909 44.2712 129.301 44.2042 129.054 44.1819L129.032 44.1595ZM128.762 48.4056H128.649H128.605C127.75 48.4726 126.918 48.7408 126.176 49.1877C126.086 49.2548 125.996 49.2995 125.884 49.3665L127.48 45.6792C127.48 45.6792 127.525 45.6345 127.57 45.6121L127.638 45.5674C128.087 45.3216 128.537 45.1875 128.964 45.1428C129.054 45.1428 129.706 45.2545 129.998 45.2992H130.111L130.246 45.8579L130.561 45.5451L130.673 48.7184C130.156 48.5844 129.346 48.4949 128.762 48.4503V48.4056ZM137.575 49.2548C138.789 47.9363 140.408 47.1765 142.027 47.1318H142.499L146.816 50.7074C144.545 50.7297 142.184 51.7577 140.453 53.5232C139.284 54.7076 138.385 56.1826 137.8 57.9034C137.665 58.2609 137.553 58.6408 137.463 59.0207L135.867 53.4338C135.912 51.9142 136.519 50.4392 137.598 49.2548H137.575ZM148.098 50.4839C147.76 49.3665 147.446 48.1374 147.423 46.9083C147.401 45.411 147.873 44.1148 148.727 43.3103L152.931 44.6958C151.695 45.6791 150.728 47.0424 150.188 48.6067C149.829 49.6123 149.671 50.7074 149.694 51.8024L148.098 50.4839ZM155.247 44.4277L154.235 44.0254C152.909 43.5114 152.279 41.9694 152.279 40.7403C152.279 39.2877 152.886 37.8575 153.516 36.5389C155.045 33.4103 156.889 30.4827 158.979 27.8233L171.705 23.4655C169.434 26.7953 166.466 31.2202 165.275 36.0249C164.173 40.4498 164.803 44.9864 166.961 48.2715L155.27 44.4277H155.247ZM153.246 28.7619H153.224C150.548 28.2032 147.221 27.4881 144.343 25.9461C141.42 24.3371 139.374 21.9682 138.722 19.3982L139.711 17.0294C143.174 22.8398 149.559 26.9294 156.326 27.7116L153.246 28.7619ZM130.695 17.2752L130.471 16.8953L130.381 16.94L130.268 13.856C130.268 13.856 130.471 14.0348 130.538 14.1242L130.65 14.2583C132.674 16.3813 136.091 17.2305 138.924 16.3589L137.8 18.996C135.462 20.1581 132.202 19.3759 130.695 17.2529V17.2752ZM109.539 29.41L105.312 28.0245C106.616 27.6669 107.83 26.9741 108.864 25.9908C110.213 24.6723 111.068 22.9962 111.27 21.2308L114.912 24.2477C113.81 26.5495 111.877 28.4267 109.539 29.41ZM107.605 51.3555C107.2 51.065 106.661 50.7521 106.076 50.4169L105.806 50.2604C104.412 49.4783 102.524 48.4279 102.322 47.3105L105.087 46.3496C105.604 47.02 106.638 47.3552 107.807 47.7128C108.594 47.9363 109.179 48.1374 109.674 48.3385C112.237 49.5006 114.575 51.2214 116.419 53.2774C117.138 54.0595 120.173 58.1939 120.443 59.6018L118.15 64.9429C117.138 62.5517 114.058 58.0374 114.035 57.9928C112.214 55.5121 110.056 53.2774 107.628 51.3778L107.605 51.3555ZM124.692 53.6796C124.355 53.8808 124.063 54.0372 123.816 54.1936L125.299 50.7297C125.659 50.5957 126.086 50.3498 126.671 50.0146C127.278 49.657 127.952 49.4336 128.649 49.3665C128.807 49.3665 129.886 49.5453 130.426 49.6347L130.583 50.1487L130.74 49.9923L130.853 52.9868C130.043 52.8081 128.717 52.674 128.245 52.6069H128.132L128.087 52.5846H128.042C126.873 52.6963 125.704 53.0539 124.692 53.6573V53.6796ZM124.085 12.1799C125.569 13.0738 127.233 13.5208 128.874 13.5208H129.032C129.032 13.5208 129.189 13.5208 129.257 13.5208L129.414 17.3199C128.155 17.7445 126.783 17.7445 125.547 17.3422L124.063 12.1799H124.085ZM102.749 28.2032C104.75 30.6615 105.649 34.0807 105.177 37.5446C104.952 39.2654 104.412 41.0085 103.558 42.7069C103.356 43.1092 103.041 43.5561 102.681 44.0478C102.119 44.8746 101.512 45.7238 101.31 46.5954L88.5168 50.9979C91.6644 48.4056 94.0926 44.964 95.4191 41.2096C97.1279 36.2708 96.993 30.6615 95.0369 25.7003L102.726 28.2256L102.749 28.2032ZM105.312 51.132C105.964 51.4896 106.593 51.8471 106.998 52.16C109.359 54.0148 111.45 56.1826 113.226 58.5961C114.26 59.9817 117.61 65.4345 117.52 66.0826L117.633 66.1273V66.1944H117.588L113.271 76.2508C110.753 70.0829 107.875 65.2111 104.48 61.3449C100.208 56.4955 94.9245 53.0986 89.4836 51.713L101.355 47.6234C101.759 49.1207 103.715 50.2381 105.312 51.132ZM125.929 56.786C124.31 57.0988 122.916 57.948 121.882 58.6855L123.231 55.5121C123.748 55.3557 124.378 54.9981 125.187 54.5065C126.086 53.9925 127.098 53.6573 128.11 53.5679C128.312 53.5679 130.043 53.8361 130.785 53.9702L130.875 54.2607L131.033 58.0598C129.549 56.6966 127.413 56.5178 125.929 56.786ZM132.112 45.3216L132.786 46.2602L133.326 48.2044V48.3385C133.326 48.3385 133.281 48.4056 133.281 48.4503C132.989 48.3162 132.674 48.2268 132.359 48.2044C132.292 48.2044 132.247 48.2044 132.179 48.2044C131.999 48.2044 131.82 48.2045 131.64 48.2715L131.505 45.0087C131.775 45.0311 131.977 45.1651 132.112 45.3439V45.3216ZM134.09 50.8415L134.63 52.6963C134.225 52.4952 133.798 52.3835 133.393 52.3611C133.326 52.3611 133.236 52.3611 133.169 52.3611C132.719 52.3611 132.269 52.4729 131.82 52.6516L131.685 49.2771C131.842 49.2101 132.044 49.1654 132.269 49.1877C132.719 49.2324 133.101 49.4336 133.326 49.7688L134.09 50.8638V50.8415ZM138.07 60.8085C138.34 58.9537 139.104 56.2943 141.15 54.216C142.926 52.3835 145.467 51.4449 147.715 51.7354L148.053 51.7801L149.851 53.2327C149.851 53.2327 149.851 53.3668 149.874 53.4338C147.041 53.5679 144.185 55.244 142.184 57.9928C140.678 60.0264 139.756 62.3729 139.014 64.6524L138.003 61.0767L138.048 60.8085H138.07ZM128.964 12.5375H128.852C128.852 12.5375 128.852 12.5375 128.829 12.5375C127.008 12.5375 125.165 11.8671 123.681 10.6603L120.241 -1.3181V-1.42985C120.286 -1.58628 120.308 -1.74271 120.331 -1.89915C122.579 0.0227585 125.817 0.871971 128.739 0.268585L129.234 12.5151H128.987L128.964 12.5375ZM135.125 54.4395L136.384 58.8867C135.979 58.5514 135.484 58.2162 134.9 57.9928C134.45 57.814 133.978 57.7246 133.506 57.7246C132.989 57.7246 132.472 57.8363 132.022 58.0374L131.842 53.702C132.269 53.3891 132.764 53.255 133.304 53.2997C133.978 53.3668 134.585 53.6796 134.945 54.1713L135.125 54.4395ZM143.016 58.5961C144.95 55.9591 147.648 54.4171 150.278 54.4171C150.368 54.4171 150.436 54.4171 150.526 54.4171L151.223 54.4618L151.178 54.3501L159.879 61.546C159.879 61.546 159.879 61.7025 159.901 61.7695C159.901 61.8812 159.901 61.993 159.946 62.1271C159.834 62.1271 159.744 62.1271 159.631 62.1271C154.798 62.1271 150.054 63.9596 146.501 67.2224C144.478 69.0996 142.859 71.4684 141.78 74.1501L139.554 66.3508C140.498 63.4232 141.398 60.8309 143.039 58.6185L143.016 58.5961ZM150.773 52.7187C150.278 49.7688 151.627 46.6625 154.101 45.0758L168.063 49.657C168.063 49.657 168.063 49.6794 168.085 49.7018C165.545 50.2381 163.206 51.8695 161.632 54.216C160.396 56.0485 159.766 58.1045 159.766 60.1828L150.796 52.741L150.773 52.7187ZM166.219 36.2708C167.388 31.5107 170.221 27.354 172.964 23.3538L173.256 22.9292L190.748 16.9176C186.791 22.8174 183.801 29.2312 181.822 36.0026C181.26 37.8798 180.788 39.8911 181.238 41.8577C181.44 42.774 181.845 43.5785 182.25 44.4053C184.318 48.495 186.904 52.3611 189.961 55.8474L168.602 48.8078C165.972 45.7685 165.05 40.9638 166.197 36.2708H166.219ZM122.309 9.4535L121.949 9.11828L122.174 10.5709C122.624 13.4314 121.455 16.4707 119.229 18.3479C117.048 20.1581 113.878 20.7614 111.157 19.8899L103.828 13.789C107.897 13.5431 111.899 11.8671 114.845 9.11828C117.228 6.90586 118.982 3.9783 119.814 0.804924L122.309 9.4982V9.4535ZM100.703 20.7391C102.254 18.8842 103.063 16.5824 102.974 14.3253L110.348 20.4486C110.348 22.1917 109.561 23.9348 108.167 25.2757C106.841 26.5719 105.109 27.3093 103.378 27.3093C103.311 27.3093 103.266 27.3093 103.221 27.3093L94.5423 24.4488C94.5423 24.4488 94.4973 24.3594 94.4749 24.3147C94.4749 24.3147 94.4749 24.2924 94.4749 24.27C96.8131 24.0019 99.0614 22.728 100.703 20.7391ZM74.2174 56.8977L83.0758 53.8584L83.2557 54.216L83.458 54.1266C84.2 53.7914 84.9644 53.3891 85.6389 52.9868L88.4044 52.0259L88.3144 52.3835L88.5393 52.4281C94.0477 53.6573 99.4437 57.0318 103.738 61.9259C107.223 65.9038 110.168 70.9991 112.731 77.4576L109.449 85.1005C108.235 81.3685 105.312 78.3962 102.591 75.9603C95.1269 69.3007 86.6731 63.8479 77.4775 59.7582C75.3416 58.8196 74.2399 58.0374 74.1275 57.3C74.1275 57.1659 74.1275 57.0541 74.1949 56.8754L74.2174 56.8977ZM124.558 63.7585C122.691 63.7585 120.848 64.1607 119.184 64.9652L121.095 60.5404L121.208 60.451C122.534 59.3113 124.175 58.1045 126.154 57.7246C128.065 57.3447 130.043 58.0374 130.943 59.4007L131.123 59.6688L131.37 65.7921C129.414 64.4512 126.986 63.7585 124.558 63.7585ZM150.346 -7.32964C150.481 -7.37434 150.593 -7.41904 150.728 -7.48608C151.717 -2.45784 156.484 1.0284 160.014 3.21848C169.614 9.18533 180.563 13.4537 191.693 15.5544L172.042 22.2811C165.545 20.7614 159.362 18.4149 153.673 15.2639C151.65 14.1689 149.379 12.761 147.873 10.772C146.299 8.67133 145.894 6.05665 146.816 4.13474L147.401 2.95032L146.164 3.48666C145.917 3.5984 145.669 3.68779 145.422 3.75484L150.144 -7.24025C150.144 -7.24025 150.301 -7.3073 150.368 -7.32964H150.346ZM120.286 -3.30704L119.476 -4.15627V-4.08922L116.329 -15.1513C119.184 -13.0954 122.556 -11.1287 126.289 -11.1287H126.334C126.738 -11.1287 127.166 -11.1511 127.57 -11.1958C127.728 -11.1958 127.863 -11.1958 128.02 -11.1958C128.11 -11.1958 128.2 -11.1958 128.29 -11.1958L128.717 -0.692368C125.704 -0.0219345 122.332 -1.04993 120.286 -3.28471V-3.30704ZM94.4973 40.8744C92.8785 45.4333 89.506 49.523 85.2567 52.0706L75.1617 55.5121C75.6114 55.0428 76.1734 54.5512 76.8255 53.9478L76.8704 53.9031C77.2526 53.5455 77.6798 53.1433 78.1295 52.741C82.0641 49.076 84.8295 45.1652 86.3584 41.0979C88.9664 34.2148 87.6624 26.4154 83.2557 21.7448L93.7779 25.2086C95.9587 30.1251 96.2061 35.8015 94.4524 40.8521L94.4973 40.8744ZM131.73 80.0052C131.73 80.0052 131.662 80.0052 131.617 80.0052C130.763 80.0052 129.909 79.4689 129.167 78.9773L128.852 78.7761C126.019 77.0107 122.601 76.0944 119.206 76.0944C117.475 76.0944 115.744 76.3402 114.103 76.8095L118.532 66.4402C122.377 63.9372 127.705 64.1384 131.28 66.9318L131.415 67.0212L131.932 79.9605C131.932 79.9605 131.82 79.9605 131.752 79.9605L131.73 80.0052ZM134.54 58.8643C135.439 59.2219 136.181 59.9593 136.923 60.7415L138.475 66.1944C137.036 65.6357 135.552 65.2781 134.09 65.0993C133.933 65.0993 133.776 65.077 133.618 65.077C133.169 65.077 132.719 65.144 132.337 65.2781L132.089 59.1548C132.786 58.5738 133.843 58.5961 134.563 58.8867L134.54 58.8643ZM147.153 67.9151C150.728 64.6524 155.742 62.8422 160.553 63.088L161.273 63.1327L161.048 62.4846L171.817 71.4237C165.23 70.9768 158.755 73.0775 153.021 74.9323C149.379 76.1167 146.119 77.2565 143.219 79.1784L142.229 75.7368C143.219 72.7199 144.972 69.9488 147.176 67.9375L147.153 67.9151ZM162.442 54.7523C164.061 52.3164 166.489 50.7744 169.119 50.5063L170.199 50.3945L170.131 50.3498L189.287 56.6742C182.34 58.4173 176.404 63.7361 174.043 70.4404C173.908 70.8203 173.796 71.2226 173.661 71.6025C173.616 71.6025 173.571 71.6025 173.504 71.6025L160.778 61.032C160.553 58.8867 161.115 56.6519 162.419 54.7523H162.442ZM206.037 10.6603L193.266 15.0404L193.356 14.9063L192.614 14.7723C181.328 12.7163 170.221 8.44785 160.508 2.41396C156.978 0.201538 152.189 -3.2847 151.582 -8.26824L151.493 -8.96103L150.863 -8.62581C150.863 -8.62581 150.728 -8.55876 150.661 -8.53642L159.227 -28.5153C159.227 -28.5153 159.294 -28.4706 159.339 -28.4482C159.609 -28.1577 159.676 -27.7108 159.766 -27.1968C161.318 -17.3861 169.816 -10.6595 178.383 -4.58087C186.499 1.18484 195.695 7.71037 206.06 10.6379L206.037 10.6603ZM114.148 8.40315C111.112 11.2413 106.998 12.8504 102.816 12.8504C102.771 12.8504 102.726 12.8504 102.704 12.8504L92.294 4.22414C102.322 1.29659 111 -6.36869 115.07 -15.9112L119.251 -1.22871C118.667 2.481 116.846 5.90021 114.148 8.40315ZM82.154 20.4039L72.3063 17.1635C77.3651 11.6212 80.7151 4.53699 81.7268 -2.8154C81.7943 -2.8154 81.8617 -2.86009 81.9292 -2.88245C81.9966 -2.90479 82.0641 -2.92713 82.1315 -2.94949L91.1248 4.51466C92.4289 10.9508 88.3369 18.1915 82.1315 20.3815L82.154 20.4039ZM85.4815 40.785C84.0201 44.6959 81.3221 48.495 77.5 52.0706L77.3651 52.1823C76.9604 52.5623 76.5781 52.8975 76.2184 53.2327C75.0043 54.3054 73.9701 55.244 73.4754 56.1379L66.1684 58.6408C72.4412 46.2825 74.5097 31.5554 71.9016 18.035L81.0523 21.0296L81.502 21.3872C86.5607 25.6109 88.202 33.589 85.4815 40.7626V40.785ZM131.797 96.5202C125.951 90.8886 118.015 87.38 109.921 86.8436C109.921 86.799 109.898 86.7543 109.876 86.7096L113.608 78.0163C118.375 76.3402 124.018 76.9436 128.335 79.6477L128.672 79.8712C129.549 80.4075 130.516 81.0109 131.64 81.0109H131.707C131.707 81.0109 131.865 81.0109 131.955 80.9886L132.472 94.6877C132.224 95.3134 131.999 95.9392 131.752 96.5426L131.797 96.5202ZM134.001 66.0603C135.642 66.2614 137.216 66.686 138.7 67.3341L138.857 67.3788L141.24 75.7368C140.768 77.2565 140.498 78.7538 140.408 80.1617C139.014 79.7818 137.306 79.3572 135.597 79.3572C134.855 79.3572 134.09 79.4465 133.371 79.6477C133.259 79.6477 133.146 79.6924 133.034 79.7371C133.011 79.7371 132.966 79.7371 132.944 79.7594L132.404 66.3061C132.809 66.0379 133.506 66.0156 134.023 66.0826L134.001 66.0603ZM209.634 62.3282C206.217 60.2499 202.417 57.6128 200.281 53.7243C197.179 48.0257 198.303 41.0308 199.629 35.578C201.72 27.1305 204.913 18.9513 208.016 11.0402L228.97 3.84422C221.168 23.8901 219.617 46.3719 224.586 67.2447L209.634 62.3505V62.3282ZM114.44 -16.9615C110.505 -7.12851 101.67 0.670837 91.3722 3.44196L83.3006 -3.26236C90.7426 -5.49713 96.2735 -10.6148 99.6235 -14.5703C103.963 -19.6209 107.155 -25.3419 110.55 -31.7334L114.642 -17.4308L114.44 -16.9615ZM133.124 80.698L133.573 80.5863C135.912 79.9606 138.407 80.631 140.611 81.2344C137.171 84.4748 134.967 88.8103 133.416 92.4753L132.944 80.7651C132.944 80.7651 133.056 80.7204 133.124 80.698ZM153.336 75.8486C159.092 73.9714 166.264 71.6472 173.166 72.4964L190.276 86.7096L190.186 87.1565C175.325 83.2904 158.417 89.5924 149.806 102.241L143.511 80.1393C146.456 78.128 149.941 76.966 153.336 75.8486ZM174.515 72.3623V72.2506C176.539 64.6747 183.351 58.5067 191.131 57.2329L209.162 63.1551C209.657 63.4679 210.174 63.7585 210.669 64.049C201.99 66.3508 194.458 73.3009 191.423 81.9495C191.041 83.0222 190.726 84.2066 190.456 85.5922L174.493 72.34L174.515 72.3623ZM207.701 10.1016C196.886 7.37517 187.376 0.603798 178.99 -5.36304C170.581 -11.3299 162.262 -17.9448 160.778 -27.3532C160.711 -27.9566 160.576 -28.627 160.104 -29.0963C159.991 -29.2304 159.834 -29.3198 159.699 -29.4092L167.838 -48.4048C167.95 -47.4662 168.063 -46.5052 168.175 -45.4996V-45.3431C169.052 -37.9013 170.041 -29.4762 173.054 -23.1518C176.112 -16.7157 183.284 -13.1847 188.41 -11.0841C190.321 -10.3019 192.255 -9.49737 194.166 -8.7152L194.346 -8.64816C200.034 -6.2793 205.138 -4.15627 210.309 -2.25671C210.444 -2.18967 225.125 2.72683 229.824 1.81058C229.712 2.07875 229.6 2.34692 229.51 2.63745L207.746 10.1016H207.701ZM98.9041 -15.196C95.5091 -11.2181 89.8883 -6.05582 82.4238 -4.02218L64.4372 -18.9505C64.6845 -19.4198 64.9543 -19.8667 65.2915 -20.3137C67.0902 -22.5931 68.8664 -23.8446 70.5751 -24.001C82.4912 -25.2749 94.2725 -33.3647 102.097 -45.6336C102.974 -46.9969 104.502 -47.9355 105.806 -48.5835L110.213 -33.1189C107.11 -27.3085 103.581 -20.7159 98.9041 -15.2184V-15.196ZM81.2547 -3.7093L80.8949 -3.61992L80.85 -3.26236C79.8832 4.17944 76.5107 11.3084 71.3395 16.8059L47.8445 9.07359C47.8445 9.07359 47.777 8.96185 47.7545 8.89481C47.7545 8.85011 47.7096 8.80541 47.6871 8.76072C54.2747 1.31892 59.5358 -7.1732 63.2905 -16.4475L63.4254 -16.7827C63.5828 -17.2073 63.7627 -17.6319 63.9425 -18.0565L81.2097 -3.73166L81.2547 -3.7093ZM64.9768 60.0934C76.5557 69.4124 86.3809 81.212 93.4406 94.2408C93.9353 95.1794 94.34 95.9615 94.5423 96.8331C94.7447 97.6823 94.7447 98.5986 94.7222 99.4925V99.6042C94.7222 99.8053 94.7222 100.029 94.7222 100.23C94.6997 105.012 96.0262 109.75 97.1953 113.929L90.4054 129.818C90.4054 129.818 90.3379 129.796 90.3154 129.774C88.6517 128.701 88.1121 125.282 87.7299 122.779C87.5725 121.818 87.4376 120.969 87.2802 120.298C85.459 113.393 82.9184 106.711 79.7033 100.431C76.0385 93.2351 71.4744 86.5308 66.1909 80.5192C59.5358 72.9434 52.9931 68.3621 46.2032 66.5296L65.0217 60.0711L64.9768 60.0934ZM128.897 100.789L128.649 100.677C126.941 99.9394 125.277 99.269 123.456 98.9338C119.791 98.2633 116.014 98.3974 112.529 99.3584C111.472 99.6489 110.281 100.074 109.314 100.856C108.459 101.548 107.897 102.442 107.29 103.448L107.043 103.806C104.907 107.247 102.029 110.353 98.7017 112.789L109.426 87.7822H109.494C117.79 88.2292 125.839 91.8495 131.64 97.727L132.202 98.241L132.449 97.5482C132.494 97.4141 132.562 97.2577 132.629 97.1236L132.831 102.174C131.482 101.861 130.156 101.325 128.897 100.789ZM142.657 80.7204L148.57 101.481C145.489 99.8277 142.432 100.677 139.756 101.437C137.665 102.018 135.754 102.487 133.843 102.264L133.528 94.7771C135.507 89.7712 138.16 84.1843 142.679 80.6757L142.657 80.7204ZM140.004 102.398C143.061 101.526 145.939 100.722 148.974 102.889L157.091 131.293C157.001 131.472 156.933 131.651 156.844 131.852L156.754 132.098C150.054 128.388 141.24 128.947 135.057 133.506L133.843 103.292C136.046 103.515 138.25 102.912 140.004 102.42V102.398ZM150.323 103.225C158.755 90.3969 175.64 84.0949 190.479 88.2292L191.018 88.3857L191.086 87.827C191.086 87.6929 191.131 87.5588 191.153 87.4247L207.768 101.191C198.46 102.956 187.96 104.99 178.472 109.616C168.67 114.376 161.318 121.55 157.698 129.841L150.166 103.493L150.323 103.247V103.225ZM111.112 -50.1479L126.693 -52.8296L127.458 -33.3424C127.458 -33.3424 127.345 -33.4765 127.278 -33.5659L126.963 -34.0128L126.559 -33.6553C122.264 -30.0573 115.474 -30.0349 111.135 -33.5435L111.068 -33.6106L106.683 -49.0081C108.055 -49.6115 109.606 -49.9021 111.09 -50.1702L111.112 -50.1479ZM98.342 127.762C97.6225 128.008 96.8131 128.388 96.0712 128.768C94.5198 129.505 92.7436 130.332 91.3272 130.154L97.9823 114.555H98.0047C101.962 111.873 105.379 108.365 107.897 104.342L108.122 103.984C108.594 103.225 109.156 102.286 109.921 101.638C110.753 100.967 111.787 100.61 112.776 100.342C116.081 99.4031 119.701 99.269 123.276 99.9171C125.03 100.252 126.738 100.967 128.245 101.593C129.571 102.152 131.078 102.8 132.652 103.157C132.719 103.157 132.786 103.158 132.854 103.18L134.068 133.662C130.988 131.517 118.622 126.69 117.633 126.511C115.249 126.086 112.844 125.863 110.46 125.863C106.324 125.863 102.209 126.489 98.3195 127.74L98.342 127.762ZM134.27 134.578L134.338 134.645L134.27 134.556V134.578Z" fill="black"/>
</svg>
