<svg width="24" height="23" viewBox="0 0 24 23" fill="none" xmlns="http://www.w3.org/2000/svg">
<path d="M16.0305 6.77338C15.9836 6.76453 15.9377 6.76352 15.8902 6.75713C15.8581 6.75107 15.8259 6.74501 15.7938 6.73896C15.6094 6.71186 15.4238 6.70491 15.2374 6.71566C15.2196 6.71486 15.2019 6.71406 15.1861 6.71619C15.0022 6.64585 14.8121 6.59474 14.6129 6.56485C14.4982 6.54833 14.3871 6.54014 14.2721 6.53886C14.1627 6.50804 14.0524 6.48215 13.9377 6.46564C13.8433 6.45039 13.7495 6.44546 13.6557 6.44052C13.5651 6.41836 13.4721 6.39573 13.3772 6.38295C13.2101 6.35911 13.0427 6.3505 12.878 6.35514C12.8632 6.35234 12.8493 6.34462 12.8349 6.33937C13.1246 5.4816 13.6735 4.76954 14.2839 4.03081C14.5027 3.76623 15.0282 3.27401 15.2563 3.32719C14.5324 3.1602 13.8625 2.76126 13.3712 2.20231C12.8453 3.1863 12.5476 4.19546 12.3962 5.22966C12.3651 5.1499 12.3262 5.0712 12.2794 4.99357C12.1346 4.77005 11.8723 4.66711 11.621 4.61466C11.6237 4.50557 11.6085 4.39568 11.5673 4.28852C11.4393 3.98917 11.1239 3.81505 10.8004 3.75154C10.7882 3.68044 10.7652 3.61238 10.723 3.55092C10.6411 3.42845 10.5158 3.34621 10.3762 3.31227C10.3514 3.13174 10.2556 2.96077 10.1953 2.79141C9.7614 1.83296 8.88672 1.06669 7.86426 0.812848C9.01854 1.15524 9.93926 2.13917 10.2177 3.29768C10.1738 3.2996 10.1294 3.30399 10.0857 3.31868C10.0287 3.33597 9.99204 3.40807 9.99559 3.45716C10.0112 3.68691 10.2799 3.67385 10.3563 3.49965C10.4376 3.53026 10.5093 3.58454 10.5496 3.65586C10.5637 3.67635 10.5743 3.70129 10.5801 3.72531C10.509 3.7221 10.437 3.72382 10.369 3.7314C10.0246 3.77864 9.90822 4.31482 10.2876 4.39397C10.5211 4.40484 10.6963 4.23651 10.7658 4.03045C11.0431 4.10818 11.2996 4.26866 11.2914 4.57038C10.9081 4.49815 10.5287 4.70444 10.3234 5.03274C9.96131 5.60926 10.6638 6.09334 11.1706 5.72757C11.3848 5.56915 11.4839 5.31514 11.5431 5.0689C11.6184 5.09073 11.6882 5.11408 11.7369 5.1411C11.8755 5.22074 11.8998 5.30941 11.9461 5.47105C12.0118 5.72044 12.0617 5.97195 12.1057 6.22745C12.0722 6.22877 12.0391 6.22764 12.0051 6.23142C11.8486 6.17899 11.6848 6.13792 11.5182 6.11162C11.4233 6.09884 11.3299 6.09144 11.2361 6.08651C11.1456 6.06434 11.0525 6.04172 10.9576 6.02893C10.843 6.01242 10.7318 6.00422 10.6169 6.00294C10.5075 5.97213 10.3971 5.94624 10.2824 5.92972C10.0832 5.89983 9.88186 5.89501 9.68218 5.90835C9.4958 5.83755 9.30324 5.78598 9.10156 5.75561C9.04222 5.74443 8.98396 5.7411 8.92569 5.73776C8.84162 5.72192 8.76002 5.70654 8.67549 5.69316C5.22421 5.1753 1.95154 7.93532 1.37254 11.8503C0.79353 15.7652 3.13066 19.3556 6.59075 19.8674C6.67528 19.8808 6.75827 19.8888 6.84374 19.8973C6.90061 19.908 6.95949 19.9216 7.0193 19.9304C7.21851 19.9603 7.41988 19.9651 7.61955 19.9517C7.80593 20.0225 7.99849 20.0741 8.20017 20.1045C8.31484 20.121 8.42596 20.1292 8.54094 20.1305C8.65036 20.1613 8.31377 19.9093 8.42597 19.9253C8.5204 19.9406 8.75376 19.8979 8.85004 19.9033C8.9289 19.3626 9.5948 19.9595 9.68969 19.9723C9.85675 19.9961 9.77034 20.3188 9.93555 20.3117C10.0743 20.3634 10.2159 20.4002 10.3627 20.4228C10.5095 20.4454 10.6571 20.4502 10.8021 20.4419C10.9586 20.4943 11.3424 19.9932 11.5095 20.0171C11.6039 20.0323 11.8219 20.2747 11.9162 20.2772C12.0068 20.2994 12.0265 20.4662 12.121 20.4814C12.2356 20.498 12.0758 20.6666 12.1879 20.6699C12.2973 20.7007 12.4076 20.7266 12.5223 20.7431C12.719 20.7725 12.9179 20.7769 13.1147 20.7656C13.132 20.7688 13.1488 20.7745 13.1632 20.7798C13.3381 20.8433 13.5163 20.8897 13.7007 20.9168C13.7328 20.9228 13.7659 20.924 13.7985 20.9276C13.8455 20.9364 13.89 20.9448 13.937 20.9536C17.3971 21.4655 20.6698 18.7055 21.2463 14.7901C21.8253 10.8751 19.4882 7.28479 16.0281 6.77291L16.0305 6.77338ZM10.3267 4.15923C10.3124 4.15397 10.3144 4.1569 10.3073 4.14027C10.2822 3.98774 10.4241 3.96861 10.557 3.98346C10.5108 4.07924 10.4298 4.15572 10.3267 4.15923ZM10.8847 5.46472C10.7347 5.50015 10.5497 5.42197 10.6793 5.25017C10.7458 5.15566 10.9045 5.01992 11.0203 5.0035C11.0775 4.99899 11.1436 5.00126 11.2142 5.00692C11.1971 5.05721 11.1824 5.10796 11.1632 5.15532C11.1017 5.29154 11.0283 5.42297 10.8847 5.46472Z" fill="white"/>
<path d="M12.3933 9.94895C12.3065 9.78477 12.2909 9.59579 12.2798 9.41021C12.1042 6.91784 12.0974 4.50823 13.3101 2.24434C13.8018 2.80083 14.4713 3.20223 15.1952 3.36922C14.9671 3.31604 14.4416 3.80827 14.2227 4.07284C13.4456 5.01715 12.7646 5.91331 12.5967 7.13043C12.5219 7.67699 12.4466 8.22602 12.3718 8.77258C12.3504 8.92657 12.2945 9.11481 12.1422 9.13454" fill="url(#paint0_linear_14306_41675)"/>
<g style="mix-blend-mode:multiply" opacity="0.3">
<path d="M13.7182 2.70237C13.6516 2.74334 13.619 2.82129 13.5922 2.89526C13.5319 3.0521 13.4737 3.21187 13.4134 3.36871C13.18 3.98223 12.9186 4.60833 12.7971 5.25313C12.747 5.51893 12.7336 5.79418 12.6612 6.05578C12.5978 6.28339 12.492 6.50555 12.4859 6.74142C12.3267 6.59419 12.279 6.35838 12.2937 6.14453C12.3293 5.61605 12.4434 5.09217 12.5313 4.57102C12.6538 3.83974 12.9053 3.17101 13.2566 2.51599C13.3 2.43498 13.3583 2.39754 13.4444 2.45709C13.5464 2.52728 13.6411 2.60884 13.7241 2.69838C13.7241 2.69838 13.7187 2.69991 13.7157 2.70191L13.7182 2.70237Z" fill="#020202"/>
</g>
<path d="M12.1587 7.22929C12.1241 6.65192 12.0338 6.07167 11.8884 5.51164C11.842 5.34999 11.8198 5.26425 11.6791 5.18168C11.5212 5.09585 11.1602 5.02782 10.9522 5.04469C10.8364 5.0611 10.6777 5.19684 10.6112 5.29135C10.482 5.46069 10.6665 5.54133 10.8166 5.5059C10.9606 5.46169 11.0336 5.33272 11.0951 5.1965C11.1583 5.03766 11.2121 4.83373 11.2304 4.66897C11.2815 4.28869 10.9371 4.11929 10.6051 4.04654C10.4606 4.01166 10.2096 3.98475 10.2411 4.18438C10.2487 4.19855 10.2462 4.19808 10.2606 4.20334C10.4776 4.19326 10.602 3.87266 10.4864 3.69797C10.4093 3.56366 10.2243 3.48548 10.0704 3.52783C10.0871 3.52078 10.1038 3.51373 10.1012 3.50049C10.1012 3.50049 10.1002 3.50541 10.1043 3.51127C10.1669 3.50522 10.1693 3.42414 10.1598 3.36627C9.8886 2.19638 8.96478 1.20168 7.80061 0.857422C8.82307 1.11126 9.69528 1.87707 10.1292 2.83552C10.2043 3.04845 10.3426 3.26565 10.3109 3.50178C10.2631 3.7145 9.9497 3.74718 9.93241 3.49927C9.92839 3.45264 9.96302 3.37761 10.0225 3.36079C10.2585 3.29058 10.5192 3.38814 10.6549 3.5921C10.8739 3.91115 10.6411 4.45343 10.2269 4.43655C9.84504 4.35694 9.96191 3.81829 10.3082 3.77397C10.7384 3.71996 11.3168 3.89777 11.5016 4.33016C11.5922 4.5562 11.5551 4.79387 11.5088 5.01197C11.4495 5.28621 11.3544 5.58686 11.1128 5.76815C10.6065 6.13147 9.90353 5.64985 10.2657 5.07332C10.4709 4.74502 10.8499 4.5412 11.2336 4.61096C11.5467 4.63429 12.006 4.71065 12.2142 5.03276C12.3999 5.3379 12.4351 5.64016 12.5269 5.96837C12.6206 6.36829 12.6876 6.77339 12.731 7.18168L12.1592 7.22683L12.1587 7.22929Z" fill="url(#paint1_linear_14306_41675)"/>
<path d="M13.8363 13.7489C13.2573 17.6639 9.9846 20.4239 6.52698 19.9125C3.06689 19.4006 0.729299 15.8127 1.30877 11.8953C1.88778 7.98037 5.16044 5.22035 8.61806 5.73176C12.0781 6.24363 14.4128 9.83352 13.8363 13.7489Z" fill="url(#paint2_linear_14306_41675)"/>
<path d="M13.8722 21C17.3323 21.5118 20.6056 18.7519 21.1833 14.8357C21.761 10.9195 19.4243 7.32991 15.9642 6.81817C12.504 6.30644 9.23074 9.06632 8.65305 12.9825C8.07536 16.8987 10.412 20.4883 13.8722 21Z" fill="url(#paint3_linear_14306_41675)"/>
<g style="mix-blend-mode:multiply" opacity="0.13">
<path d="M6.95168 19.9765C9.36842 20.3339 11.7959 17.4489 12.3736 13.5327C12.9513 9.61651 11.4604 6.15205 9.04369 5.79463C6.62695 5.43721 4.19949 8.32218 3.6218 12.2384C3.04411 16.1546 4.53495 19.6191 6.95168 19.9765Z" fill="#751900"/>
</g>
<g style="mix-blend-mode:multiply" opacity="0.13">
<path d="M8.80325 20.2509C11.22 20.6083 13.6474 17.7233 14.2251 13.8071C14.8028 9.89092 13.312 6.42646 10.8953 6.06904C8.47851 5.71162 6.05105 8.59659 5.47336 12.5128C4.89567 16.429 6.38651 19.8935 8.80325 20.2509Z" fill="#751900"/>
</g>
<g style="mix-blend-mode:multiply" opacity="0.13">
<path d="M11.7876 20.6913C14.2044 21.0487 16.6318 18.1638 17.2095 14.2476C17.7872 10.3314 16.2964 6.86689 13.8796 6.50947C11.4629 6.15205 9.03543 9.03702 8.45774 12.9532C7.88004 16.8694 9.37088 20.3339 11.7876 20.6913Z" fill="#751900"/>
</g>
<g style="mix-blend-mode:multiply" opacity="0.13">
<path d="M13.6392 20.9657C16.0559 21.3232 18.4834 18.4382 19.0611 14.522C19.6388 10.6058 18.1479 7.1413 15.7312 6.78388C13.3145 6.42646 10.887 9.31143 10.3093 13.2276C9.73161 17.1439 11.2224 20.6083 13.6392 20.9657Z" fill="#751900"/>
</g>
<path d="M8.13137 20.1513C10.5481 20.5087 12.9756 17.6237 13.5533 13.7075C14.131 9.79131 12.6401 6.32685 10.2234 5.96943C7.80664 5.61201 5.37918 8.49698 4.80149 12.4132C4.22379 16.3294 5.71464 19.7939 8.13137 20.1513Z" fill="url(#paint4_linear_14306_41675)"/>
<path d="M17.8762 14.3485C17.2972 18.2634 14.8713 21.1499 12.4527 20.7909C10.0366 20.4325 8.54369 16.9681 9.1227 13.0531C9.70171 9.13818 12.1276 6.25172 14.5462 6.61066C16.9624 6.96913 18.4552 10.4335 17.8762 14.3485Z" fill="url(#paint5_linear_14306_41675)"/>
<g style="mix-blend-mode:multiply" opacity="0.13">
<path d="M9.36575 20.3329C11.7825 20.6903 14.2099 17.8054 14.7876 13.8892C15.3653 9.97295 13.8745 6.50849 11.4578 6.15107C9.04101 5.79365 6.61355 8.67862 6.03586 12.5948C5.45817 16.511 6.94901 19.9755 9.36575 20.3329Z" fill="#751900"/>
</g>
<g style="mix-blend-mode:multiply" opacity="0.13">
<path d="M11.2173 20.6073C13.634 20.9648 16.0615 18.0798 16.6392 14.1636C17.2169 10.2474 15.726 6.7829 13.3093 6.42549C10.8926 6.06807 8.46511 8.95304 7.88742 12.8692C7.30973 16.7855 8.80057 20.2499 11.2173 20.6073Z" fill="#751900"/>
</g>
<path d="M10.2912 20.4707C12.4165 20.785 14.6077 17.8651 15.1854 13.9489C15.7631 10.0327 14.5085 6.60317 12.3832 6.28885C10.2579 5.97453 8.06668 8.89444 7.48899 12.8107C6.91129 16.7269 8.16588 20.1564 10.2912 20.4707Z" fill="url(#paint6_linear_14306_41675)"/>
<path d="M18.5447 12.4887C18.5269 12.6102 18.4992 12.7298 18.4651 12.8432C18.4307 12.197 17.9201 11.5911 17.1574 11.2359C17.2319 10.7045 16.8609 10.2141 16.328 10.1341C15.7952 10.0541 15.2988 10.4192 15.2143 10.9487C14.3824 11.0697 13.7195 11.5029 13.5004 12.1089C13.4999 11.9891 13.5098 11.8686 13.5276 11.7471C13.731 10.3685 15.0192 9.41598 16.4018 9.62045C17.7868 9.82538 18.7457 11.1096 18.5422 12.4882L18.5447 12.4887Z" fill="#FDB121"/>
<path d="M9.59157 11.1654C9.57379 11.2869 9.54612 11.4066 9.51196 11.5199C9.47754 10.8738 8.96696 10.2679 8.2043 9.91262C8.27882 9.38129 7.90778 8.89087 7.37492 8.81084C6.84205 8.73081 6.34563 9.09599 6.26121 9.62546C5.42929 9.74647 4.76642 10.1797 4.54723 10.7857C4.54678 10.6658 4.55668 10.5454 4.57446 10.4238C4.77792 9.04522 6.06611 8.09273 7.44866 8.2972C8.83369 8.50214 9.79257 9.78633 9.5891 11.1649L9.59157 11.1654Z" fill="#FDB121"/>
<path d="M17.5155 14.6124C17.113 17.3323 13.9747 19.1212 10.4993 18.609C7.02689 18.0947 4.53562 15.4718 4.93559 12.7515C4.99125 12.3746 5.10038 12.0129 5.25912 11.6733C5.39382 12.6569 5.8911 13.5916 6.65389 14.3674L6.59814 16.1306L7.88787 15.3466C8.7295 15.8671 9.72923 16.2415 10.8256 16.4023C11.9239 16.5659 12.9869 16.4961 13.9411 16.2427L14.9508 17.3657L15.4079 15.6603C16.3593 15.1362 17.1047 14.3872 17.5202 13.4869C17.571 13.8558 17.5716 14.2331 17.5159 14.61L17.5155 14.6124Z" fill="#FDB121"/>
<path d="M18.615 12.0053C18.5972 12.1268 18.5696 12.2464 18.5354 12.3598C18.501 11.7136 17.9904 11.1077 17.2277 10.7525C17.3023 10.2211 16.9312 9.73072 16.3984 9.65069C15.8655 9.57066 15.3691 9.93584 15.2847 10.4653C14.4527 10.5863 13.7899 11.0195 13.5707 11.6255C13.5702 11.5057 13.5801 11.3852 13.5979 11.2637C13.8014 9.88506 15.0896 8.93258 16.4721 9.13705C17.8547 9.34152 18.816 10.6262 18.6125 12.0048L18.615 12.0053Z" fill="#FFFCF3"/>
<path d="M9.66189 10.6801C9.64411 10.8016 9.61644 10.9212 9.58228 11.0346C9.54785 10.3884 9.03727 9.78252 8.27461 9.42727C8.34913 8.89594 7.9781 8.40552 7.44523 8.32549C6.91236 8.24546 6.41594 8.61064 6.33153 9.14011C5.4996 9.26112 4.83673 9.69432 4.61755 10.3003C4.61709 10.1805 4.62699 10.06 4.64477 9.93848C4.84823 8.55987 6.13643 7.60738 7.51898 7.81185C8.90153 8.01632 9.86288 9.30098 9.65941 10.6796L9.66189 10.6801Z" fill="#FFFCF3"/>
<path d="M17.5858 14.1261C17.1833 16.846 14.045 18.6348 10.5697 18.1226C7.0972 17.6084 4.60593 14.9855 5.0059 12.2652C5.06156 11.8883 5.17069 11.5266 5.32943 11.187C5.46414 12.1706 5.96141 13.1053 6.7242 13.881L6.66846 15.6443L7.95819 14.8603C8.79981 15.3808 9.79954 15.7552 10.8959 15.9159C11.9942 16.0796 13.0572 16.0098 14.0114 15.7563L15.0211 16.8794L15.4782 15.1739C16.4296 14.6498 17.175 13.9009 17.5905 13.0006C17.6413 13.3695 17.6419 13.7468 17.5863 14.1236L17.5858 14.1261Z" fill="#FFFCF3"/>
<path d="M10.1362 14.032L11.5415 11.2896L11.9071 14.3632L10.1362 14.032Z" fill="#FDB121"/>
<path d="M10.2727 13.7042L11.5507 11.2156L11.8808 14.0021L10.2727 13.7042Z" fill="#FFFCF3"/>
<defs>
<linearGradient id="paint0_linear_14306_41675" x1="14.3466" y1="0.384834" x2="13.0663" y2="9.031" gradientUnits="userSpaceOnUse">
<stop stop-color="#B3B2B2"/>
<stop offset="1" stop-color="#231F20"/>
</linearGradient>
<linearGradient id="paint1_linear_14306_41675" x1="10.8798" y1="-0.128116" x2="9.59954" y2="8.51805" gradientUnits="userSpaceOnUse">
<stop stop-color="#B3B2B2"/>
<stop offset="1" stop-color="#231F20"/>
</linearGradient>
<linearGradient id="paint2_linear_14306_41675" x1="8.5705" y1="6.06989" x2="6.47699" y2="20.2085" gradientUnits="userSpaceOnUse">
<stop stop-color="#FF9A48"/>
<stop offset="0.51" stop-color="#F84600"/>
<stop offset="1" stop-color="#C5523F"/>
</linearGradient>
<linearGradient id="paint3_linear_14306_41675" x1="15.9148" y1="7.15265" x2="13.8238" y2="21.2916" gradientUnits="userSpaceOnUse">
<stop stop-color="#FF9A48"/>
<stop offset="0.51" stop-color="#F84600"/>
<stop offset="1" stop-color="#C5523F"/>
</linearGradient>
<linearGradient id="paint4_linear_14306_41675" x1="10.174" y1="6.30391" x2="8.08298" y2="20.4429" gradientUnits="userSpaceOnUse">
<stop stop-color="#FF9A48"/>
<stop offset="0.51" stop-color="#F84600"/>
<stop offset="1" stop-color="#C5523F"/>
</linearGradient>
<linearGradient id="paint5_linear_14306_41675" x1="14.499" y1="6.94893" x2="12.4055" y2="21.0875" gradientUnits="userSpaceOnUse">
<stop stop-color="#FF9A48"/>
<stop offset="0.51" stop-color="#F84600"/>
<stop offset="1" stop-color="#C5523F"/>
</linearGradient>
<linearGradient id="paint6_linear_14306_41675" x1="12.3338" y1="6.62333" x2="10.2428" y2="20.7623" gradientUnits="userSpaceOnUse">
<stop stop-color="#FF9A48"/>
<stop offset="0.51" stop-color="#F84600"/>
<stop offset="1" stop-color="#C5523F"/>
</linearGradient>
</defs>
</svg>
