<svg width="22" height="21" viewBox="0 0 22 21" fill="none" xmlns="http://www.w3.org/2000/svg">
<path d="M12.4908 5.06354C12.4496 5.07273 12.412 5.08792 12.3713 5.09928C12.343 5.10557 12.3148 5.11187 12.2866 5.11816C12.1275 5.16046 11.9744 5.21955 11.8269 5.29327C11.8122 5.29882 11.7975 5.30436 11.7854 5.31159C11.6116 5.31862 11.4395 5.34342 11.2673 5.38862C11.1685 5.41521 11.0754 5.4473 10.9816 5.48636C10.8821 5.4995 10.7835 5.51697 10.6846 5.54355C10.6026 5.5641 10.5248 5.59281 10.4469 5.62152C10.3657 5.63511 10.2822 5.64918 10.2008 5.67189C10.0568 5.7108 9.91796 5.76219 9.78584 5.8234C9.77282 5.8263 9.75884 5.82489 9.74534 5.82563C9.68136 5.02831 9.87869 4.25883 10.1165 3.44631C10.2019 3.15522 10.4569 2.57239 10.6606 2.53602C10.0147 2.65289 9.33176 2.56267 8.73804 2.28025C8.65421 3.26245 8.76446 4.18547 9.00224 5.07779C8.94921 5.02387 8.89016 4.97357 8.82508 4.92688C8.62959 4.79592 8.3808 4.80382 8.15852 4.84887C8.12262 4.7594 8.07201 4.67547 8.00114 4.60287C7.79289 4.40448 7.47612 4.37313 7.1914 4.43438C7.1567 4.38091 7.11428 4.3337 7.0586 4.29851C6.9494 4.22766 6.81899 4.20461 6.69386 4.22572C6.61072 4.08784 6.47332 3.98247 6.36534 3.866C5.67888 3.23928 4.70162 2.92226 3.78309 3.07276C4.83951 2.94818 5.93004 3.42582 6.56006 4.26917C6.5251 4.28604 6.49062 4.30506 6.46024 4.33224C6.41998 4.36616 6.41538 4.43747 6.43539 4.47608C6.52817 4.65715 6.74178 4.55282 6.74301 4.38478C6.81968 4.38128 6.89682 4.40035 6.95443 4.44417C6.97299 4.4559 6.99034 4.47243 7.00336 4.48993C6.94453 4.51212 6.88667 4.53863 6.83411 4.56849C6.57107 4.72692 6.66355 5.20277 6.99914 5.13471C7.1925 5.06211 7.27594 4.86439 7.26055 4.67286C7.51272 4.63928 7.77693 4.68009 7.87548 4.92788C7.53917 5.0029 7.30311 5.30267 7.25097 5.64076C7.15805 6.23505 7.89716 6.38302 8.18099 5.90937C8.29964 5.70607 8.29148 5.46532 8.25367 5.24478C8.32238 5.23625 8.38723 5.23085 8.43617 5.23581C8.57647 5.25211 8.62709 5.31564 8.72108 5.43069C8.86136 5.61023 8.98958 5.797 9.11442 5.98905C9.08766 6.00182 9.06041 6.01243 9.03413 6.02736C8.88876 6.03939 8.74146 6.06318 8.59705 6.09993C8.51556 6.12264 8.43721 6.14919 8.35934 6.1779C8.27809 6.19149 8.19468 6.20556 8.11319 6.22827C8.01435 6.25486 7.92129 6.28696 7.8275 6.32601C7.72794 6.33916 7.62933 6.35662 7.53049 6.3832C7.35835 6.42841 7.1932 6.49472 7.03577 6.57518C6.85978 6.5827 6.68548 6.60798 6.51118 6.65367C6.4591 6.66528 6.41064 6.6829 6.36218 6.70051C6.28841 6.71696 6.21681 6.73294 6.14352 6.75155C3.16129 7.53472 1.46713 10.9165 2.36236 14.2964C3.25758 17.6764 6.40685 19.7759 9.39414 18.9848C9.46743 18.9662 9.53759 18.9437 9.60992 18.9208C9.65982 18.9097 9.71238 18.9002 9.76397 18.8864C9.9361 18.8412 10.1013 18.7749 10.2587 18.6945C10.4347 18.6869 10.609 18.6617 10.7833 18.616C10.8821 18.5894 10.9752 18.5573 11.069 18.5182C11.1685 18.5051 10.8074 18.4179 10.9041 18.3918C10.9861 18.3712 11.1606 18.2552 11.2407 18.226C11.1161 17.7596 11.8648 18.012 11.9463 17.9893C12.0903 17.9503 12.1326 18.2424 12.2643 18.179C12.3949 18.1726 12.5227 18.1531 12.6498 18.1202C12.7768 18.0874 12.8983 18.0399 13.0131 17.9825C13.1585 17.9705 13.2953 17.4299 13.4392 17.391C13.5211 17.3704 13.7827 17.4912 13.8601 17.4603C13.9413 17.4467 14.0156 17.5753 14.0975 17.5547C14.1964 17.5281 14.1255 17.7208 14.2176 17.6844C14.3171 17.6712 14.4157 17.6537 14.5146 17.6272C14.6845 17.5824 14.8475 17.5166 15.0033 17.4388C15.0184 17.4354 15.0341 17.4342 15.0476 17.4334C15.2118 17.424 15.3726 17.3995 15.5317 17.3572C15.5599 17.3509 15.5872 17.3403 15.6149 17.3318C15.6561 17.3226 15.6952 17.3139 15.7364 17.3047C18.7237 16.5136 20.4178 13.1319 19.5205 9.75239C18.6252 6.37244 15.476 4.27292 12.4887 5.06402L12.4908 5.06354ZM6.94903 4.93052C6.93553 4.93127 6.93819 4.93294 6.92662 4.92192C6.85311 4.80683 6.9616 4.74182 7.07467 4.70753C7.07056 4.80139 7.03149 4.89172 6.94903 4.93052ZM7.85725 5.79569C7.74779 5.87679 7.57036 5.87783 7.61571 5.69315C7.6367 5.59325 7.71821 5.42771 7.80646 5.37402C7.8513 5.35041 7.90579 5.32919 7.9651 5.30916C7.9687 5.35596 7.97448 5.40228 7.97544 5.4474C7.973 5.57944 7.95924 5.71173 7.85725 5.79569Z" fill="white"/>
<path d="M10.6452 8.90959C10.5175 8.8066 10.4389 8.65864 10.3652 8.51186C9.35351 6.54985 8.50769 4.59618 8.70264 2.33553C9.29588 2.61579 9.97931 2.70817 10.6252 2.59129C10.4215 2.62767 10.1665 3.21049 10.0811 3.50159C9.77961 4.53915 9.53933 5.5041 9.82746 6.55067C9.95732 7.02045 10.0877 7.49239 10.2175 7.96217C10.2539 8.09462 10.2741 8.26693 10.1574 8.33604" fill="url(#paint0_linear_14306_41755)"/>
<g style="mix-blend-mode:multiply" opacity="0.3">
<path d="M9.20119 2.56248C9.16141 2.61897 9.16211 2.69362 9.1662 2.76299C9.17196 2.91133 9.18037 3.06134 9.18613 3.20968C9.21062 3.78912 9.21678 4.38851 9.343 4.95432C9.39503 5.18755 9.48009 5.41568 9.51259 5.65327C9.54052 5.86014 9.53204 6.0774 9.60939 6.27098C9.42884 6.20698 9.30785 6.0322 9.2452 5.85348C9.08979 5.41207 8.99971 4.94702 8.88938 4.49328C8.73376 3.85696 8.7047 3.2264 8.76147 2.57216C8.76848 2.49125 8.80272 2.44054 8.89336 2.45886C9.00063 2.48027 9.10598 2.51345 9.20457 2.5572C9.20457 2.5572 9.20071 2.56032 9.19902 2.56297L9.20119 2.56248Z" fill="#020202"/>
</g>
<path d="M9.50982 6.78335C9.2804 6.32671 9.00469 5.8872 8.69137 5.48328C8.59737 5.36823 8.5494 5.30639 8.40645 5.2884C8.24831 5.27381 7.93152 5.34447 7.76854 5.43071C7.6803 5.4844 7.59879 5.64994 7.57779 5.74984C7.53196 5.93236 7.70987 5.93348 7.81933 5.85238C7.92084 5.76626 7.93509 5.63613 7.93752 5.5041C7.93345 5.35311 7.906 5.1688 7.86336 5.02869C7.77229 4.70215 7.43358 4.68476 7.13874 4.74147C7.00928 4.76355 6.79615 4.82923 6.89135 4.98029C6.90244 4.98915 6.90027 4.98963 6.91377 4.98889C7.08639 4.90504 7.0756 4.60139 6.92085 4.49989C6.81142 4.41776 6.63399 4.4188 6.5238 4.50686C6.53489 4.49531 6.54598 4.48377 6.53923 4.47394C6.53923 4.47394 6.5402 4.47826 6.5455 4.48161C6.5942 4.45488 6.56794 4.38819 6.53998 4.34455C5.91189 3.48944 4.81509 3.00413 3.75 3.13064C4.66852 2.98015 5.64361 3.29764 6.33008 3.92437C6.4653 4.07103 6.65331 4.19912 6.70993 4.40186C6.74533 4.59119 6.5023 4.72702 6.40181 4.5318C6.38229 4.49535 6.38423 4.42237 6.42667 4.38797C6.59376 4.24868 6.83941 4.23695 7.02068 4.3552C7.3097 4.53784 7.30984 5.05922 6.96774 5.18995C6.62998 5.2585 6.53701 4.78049 6.8027 4.62373C7.13301 4.4299 7.66459 4.37252 7.9654 4.65907C8.11773 4.81099 8.17049 5.01685 8.20902 5.21002C8.25647 5.45335 8.28415 5.73055 8.15127 5.96196C7.86696 6.43346 7.12833 6.28764 7.22126 5.69335C7.27339 5.35527 7.50994 5.05766 7.84577 4.98048C8.10807 4.89022 8.50755 4.79204 8.78885 4.98093C9.04604 5.16386 9.18004 5.39694 9.369 5.63137C9.58447 5.92336 9.78017 6.22882 9.95778 6.54513L9.50934 6.78119L9.50982 6.78335Z" fill="url(#paint1_linear_14306_41755)"/>
<path d="M13.1462 11.4895C14.0414 14.8695 12.3473 18.2512 9.36215 19.0418C6.37485 19.8329 3.22607 17.7356 2.33036 14.3535C1.43513 10.9735 3.12929 7.59175 6.11442 6.80114C9.10171 6.01004 12.2488 8.11004 13.1462 11.4895Z" fill="url(#paint2_linear_14306_41755)"/>
<path d="M15.7032 17.3638C18.6905 16.5725 20.3852 13.1906 19.4885 9.81013C18.5918 6.42961 15.4431 4.33058 12.4558 5.12182C9.46855 5.91305 7.77382 9.29492 8.67056 12.6754C9.56729 16.056 12.7159 18.155 15.7032 17.3638Z" fill="url(#paint3_linear_14306_41755)"/>
<g style="mix-blend-mode:multiply" opacity="0.13">
<path d="M9.72839 18.9452C11.8149 18.3925 12.7793 15.2041 11.8826 11.8236C10.9859 8.44306 8.56749 6.15061 6.48102 6.70325C4.39455 7.25589 3.43007 10.4443 4.32681 13.8249C5.22354 17.2054 7.64191 19.4978 9.72839 18.9452Z" fill="#751900"/>
</g>
<g style="mix-blend-mode:multiply" opacity="0.13">
<path d="M11.3299 18.5214C13.4164 17.9687 14.3809 14.7803 13.4842 11.3997C12.5874 8.01923 10.1691 5.72678 8.08258 6.27942C5.99611 6.83206 5.03164 10.0205 5.92837 13.401C6.82511 16.7815 9.24348 19.074 11.3299 18.5214Z" fill="#751900"/>
</g>
<g style="mix-blend-mode:multiply" opacity="0.13">
<path d="M13.9003 17.8407C15.9867 17.2881 16.9512 14.0996 16.0545 10.7191C15.1577 7.33857 12.7394 5.04612 10.6529 5.59875C8.56642 6.15139 7.60195 9.33985 8.49868 12.7204C9.39542 16.1009 11.8138 18.3933 13.9003 17.8407Z" fill="#751900"/>
</g>
<g style="mix-blend-mode:multiply" opacity="0.13">
<path d="M15.5018 17.4169C17.5883 16.8642 18.5528 13.6758 17.656 10.2953C16.7593 6.91474 14.3409 4.62229 12.2545 5.17493C10.168 5.72756 9.20351 8.91602 10.1002 12.2965C10.997 15.677 13.4154 17.9695 15.5018 17.4169Z" fill="#751900"/>
</g>
<path d="M10.7518 18.6756C12.8383 18.123 13.8028 14.9346 12.906 11.554C12.0093 8.17353 9.59093 5.88108 7.50446 6.43372C5.41798 6.98635 4.45351 10.1748 5.35025 13.5553C6.24698 16.9358 8.66535 19.2283 10.7518 18.6756Z" fill="url(#paint4_linear_14306_41755)"/>
<path d="M16.641 10.5654C17.5363 13.9453 16.5736 17.1344 14.485 17.6865C12.3987 18.2381 9.9787 15.9464 9.08347 12.5664C8.18824 9.18648 9.15095 5.99736 11.2395 5.4453C13.3258 4.89372 15.7458 7.1854 16.641 10.5654Z" fill="url(#paint5_linear_14306_41755)"/>
<g style="mix-blend-mode:multiply" opacity="0.13">
<path d="M11.8143 18.3934C13.9008 17.8408 14.8653 14.6523 13.9685 11.2718C13.0718 7.8913 10.6534 5.59885 8.56696 6.15149C6.48048 6.70413 5.51601 9.89258 6.41275 13.2731C7.30948 16.6536 9.72785 18.9461 11.8143 18.3934Z" fill="#751900"/>
</g>
<g style="mix-blend-mode:multiply" opacity="0.13">
<path d="M13.4159 17.9696C15.5024 17.417 16.4668 14.2285 15.5701 10.848C14.6734 7.46747 12.255 5.17502 10.1685 5.72766C8.08205 6.2803 7.11757 9.46875 8.01431 12.8493C8.91104 16.2298 11.3294 18.5222 13.4159 17.9696Z" fill="#751900"/>
</g>
<path d="M12.6166 18.1821C14.4514 17.6961 15.2119 14.5616 14.3152 11.1811C13.4184 7.80061 11.2041 5.45413 9.36919 5.94013C7.53433 6.42612 6.77382 9.56055 7.67056 12.9411C8.56729 16.3216 10.7817 18.6681 12.6166 18.1821Z" fill="url(#paint6_linear_14306_41755)"/>
<path d="M16.5176 8.82748C16.5455 8.93233 16.5648 9.03912 16.5766 9.14304C16.3233 8.63051 15.6975 8.3167 14.9545 8.29428C14.8297 7.83698 14.3575 7.56826 13.8971 7.68912C13.4366 7.80998 13.1609 8.27953 13.2771 8.73878C12.6439 9.12713 12.2569 9.70995 12.2903 10.2783C12.2481 10.1812 12.2142 10.0799 12.1862 9.97509C11.8706 8.78502 12.5842 7.56259 13.7778 7.24644C14.9736 6.92981 16.1998 7.63789 16.5154 8.82796L16.5176 8.82748Z" fill="#FDB121"/>
<path d="M8.79101 10.8763C8.81896 10.9812 8.83822 11.0879 8.85002 11.1919C8.59674 10.6793 7.97097 10.3655 7.22798 10.3431C7.10318 9.8858 6.63097 9.61709 6.17049 9.73795C5.71002 9.85881 5.43439 10.3284 5.5505 10.7876C4.91737 11.176 4.53034 11.7588 4.56375 12.3272C4.52158 12.23 4.4876 12.1288 4.45966 12.0239C4.14406 10.8338 4.85762 9.61142 6.05124 9.29527C7.24703 8.97864 8.47325 9.68672 8.78884 10.8768L8.79101 10.8763Z" fill="#FDB121"/>
<path d="M16.4307 10.9078C17.0525 13.256 15.1287 15.8026 12.1289 16.5988C9.13076 17.3923 6.19373 16.1318 5.56977 13.7841C5.48353 13.4587 5.44598 13.127 5.4564 12.796C5.90877 13.5475 6.63839 14.1328 7.52813 14.4966L8.09777 15.9474L8.87134 14.8612C9.73605 14.9902 10.6782 14.9455 11.6242 14.6937C12.5729 14.4435 13.4114 14.0161 14.0976 13.4777L15.3089 14.0372L15.0852 12.4933C15.6748 11.7361 16.0187 10.8682 16.042 9.99246C16.2119 10.2742 16.344 10.5803 16.4302 10.9056L16.4307 10.9078Z" fill="#FDB121"/>
<path d="M16.4082 8.40951C16.4361 8.51436 16.4554 8.62115 16.4672 8.72507C16.2139 8.21254 15.5882 7.89873 14.8452 7.87632C14.7204 7.41901 14.2482 7.15029 13.7877 7.27115C13.3272 7.39201 13.0516 7.86157 13.1677 8.32081C12.5346 8.70916 12.1475 9.29198 12.1809 9.86035C12.1388 9.76321 12.1048 9.66197 12.0768 9.55712C11.7613 8.36705 12.4748 7.14462 13.6684 6.82847C14.862 6.51232 16.0904 7.21992 16.406 8.40999L16.4082 8.40951Z" fill="#FFFCF3"/>
<path d="M8.67382 10.4564C8.70177 10.5612 8.72104 10.668 8.73283 10.7719C8.47955 10.2594 7.85378 9.94561 7.11079 9.92319C6.986 9.46588 6.51378 9.19716 6.0533 9.31802C5.59283 9.43888 5.3172 9.90844 5.43331 10.3677C4.80018 10.756 4.41315 11.3389 4.44656 11.9072C4.40439 11.8101 4.37042 11.7088 4.34247 11.604C4.02688 10.4139 4.74043 9.1915 5.93405 8.87535C7.12767 8.5592 8.35606 9.2668 8.67165 10.4569L8.67382 10.4564Z" fill="#FFFCF3"/>
<path d="M16.3213 10.4888C16.9431 12.8371 15.0194 15.3836 12.0195 16.1798C9.02139 16.9733 6.08436 15.7129 5.4604 13.3651C5.37415 13.0398 5.3366 12.7081 5.34703 12.377C5.79939 13.1285 6.52902 13.7139 7.41876 14.0776L7.9884 15.5284L8.76196 14.4422C9.62667 14.5713 10.5688 14.5266 11.5148 14.2747C12.4635 14.0246 13.302 13.5972 13.9882 13.0587L15.1995 13.6182L14.9758 12.0744C15.5654 11.3172 15.9093 10.4493 15.9326 9.57351C16.1025 9.85526 16.2346 10.1613 16.3208 10.4867L16.3213 10.4888Z" fill="#FFFCF3"/>
<path d="M10.2404 13.011L10.4248 10.2947L11.7934 12.6622L10.2404 13.011Z" fill="#FDB121"/>
<path d="M10.2347 12.6965L10.4044 10.2306L11.6441 12.3775L10.2347 12.6965Z" fill="#FFFCF3"/>
<defs>
<linearGradient id="paint0_linear_14306_41755" x1="8.89558" y1="0.464582" x2="10.8715" y2="7.92973" gradientUnits="userSpaceOnUse">
<stop stop-color="#B3B2B2"/>
<stop offset="1" stop-color="#231F20"/>
</linearGradient>
<linearGradient id="paint1_linear_14306_41755" x1="5.90589" y1="1.25683" x2="7.88178" y2="8.72198" gradientUnits="userSpaceOnUse">
<stop stop-color="#B3B2B2"/>
<stop offset="1" stop-color="#231F20"/>
</linearGradient>
<linearGradient id="paint2_linear_14306_41755" x1="6.19373" y1="7.09221" x2="9.42478" y2="19.2996" gradientUnits="userSpaceOnUse">
<stop stop-color="#FF9A48"/>
<stop offset="0.51" stop-color="#F84600"/>
<stop offset="1" stop-color="#C5523F"/>
</linearGradient>
<linearGradient id="paint3_linear_14306_41755" x1="12.5324" y1="5.41054" x2="15.7656" y2="17.6173" gradientUnits="userSpaceOnUse">
<stop stop-color="#FF9A48"/>
<stop offset="0.51" stop-color="#F84600"/>
<stop offset="1" stop-color="#C5523F"/>
</linearGradient>
<linearGradient id="paint4_linear_14306_41755" x1="7.58105" y1="6.72244" x2="10.8142" y2="18.9292" gradientUnits="userSpaceOnUse">
<stop stop-color="#FF9A48"/>
<stop offset="0.51" stop-color="#F84600"/>
<stop offset="1" stop-color="#C5523F"/>
</linearGradient>
<linearGradient id="paint5_linear_14306_41755" x1="11.3191" y1="5.73636" x2="14.5502" y2="17.9437" gradientUnits="userSpaceOnUse">
<stop stop-color="#FF9A48"/>
<stop offset="0.51" stop-color="#F84600"/>
<stop offset="1" stop-color="#C5523F"/>
</linearGradient>
<linearGradient id="paint6_linear_14306_41755" x1="9.44578" y1="6.22885" x2="12.679" y2="18.4356" gradientUnits="userSpaceOnUse">
<stop stop-color="#FF9A48"/>
<stop offset="0.51" stop-color="#F84600"/>
<stop offset="1" stop-color="#C5523F"/>
</linearGradient>
</defs>
</svg>
