<svg width="98" height="43" viewBox="0 0 98 43" fill="none" xmlns="http://www.w3.org/2000/svg">
<path opacity="0.41" d="M83.1088 61.5833C81.2047 53.7615 81.7925 45.345 84.7728 37.8536L97.0913 33.6082L97.1741 33.5834L97.0499 33.2447L84.9549 37.4158C85.0211 37.2506 85.0791 37.0937 85.1536 36.9285L85.1784 36.8542L84.8473 36.722L84.8141 36.7963C84.5161 37.4736 79.7394 36.2017 77.7608 35.5079L77.5621 35.4418C75.6415 34.7314 73.7705 33.9551 71.6843 33.0795C70.9558 32.7739 70.2273 32.4683 69.4988 32.171C67.6609 31.4111 65.0946 30.1474 64.0349 27.8925C62.9587 25.6212 62.6027 22.5238 62.2798 19.7982C62.255 19.6165 62.2384 19.4347 62.2136 19.253C62.1722 18.8896 62.1308 18.5345 62.0811 18.1958L62.0563 18.0554L68.1908 3.69202L68.1245 3.65898C68.0666 3.63421 68.0086 3.60943 67.9341 3.58465L67.8596 3.55987L61.5844 18.2454C61.2202 18.5427 60.8808 18.8235 60.5662 19.0878C58.985 20.4342 57.4865 21.7061 55.2761 21.4831C53.5294 21.3014 51.6584 20.3846 49.5722 18.6666C49.4563 18.5675 49.2824 18.4023 49.0424 18.1463C48.4463 17.5433 47.6433 16.7174 46.981 16.6761L46.3187 0H46.2359C46.1945 0 46.1449 0 46.1035 0.00825956H45.9545L46.6167 16.7091L40.8797 17.692C40.2588 17.7994 39.6958 17.9067 39.1743 18.1297L34.6045 2.04837L34.5797 1.96578L34.2237 2.06489L38.8349 18.2867C38.2968 18.551 37.651 18.9392 37.2702 19.5256C34.4389 23.9692 30.2003 26.9014 25.9285 27.3557C25.1917 27.4383 24.4467 27.9421 23.7347 28.8589C23.6105 29.0241 23.5112 29.1893 23.4284 29.3462L9.83496 18.0306L9.76874 17.9728L9.53694 18.2536L23.2628 29.6849C23.1801 29.8666 23.0973 30.0648 23.0145 30.263L22.9648 30.3704C21.5823 33.7981 19.6368 36.9368 17.1864 39.6872L17.1118 39.778L0.52983 34.3102L0.455322 34.2854L0.430487 34.3598C0.405651 34.4258 0.389094 34.4919 0.364258 34.558L0.347701 34.6323L17.3685 40.2488C20.8372 46.6996 20.1418 55.2317 15.6714 61.0051L15.4727 61.2612L15.6465 61.2777L0.0745073 66.6464L0 66.6712L0.0248358 66.7455C0.0413929 66.8116 0.0662287 66.8777 0.0827859 66.9355L0.107622 67.0098L16.3585 61.4098C18.9828 61.9467 21.5078 63.6482 24.0907 66.5886C26.0279 68.8021 27.6836 71.2552 29.0165 73.8818C30.1837 76.1779 31.1192 78.6227 31.7815 81.1502C31.8312 81.3484 31.8726 81.6127 31.9222 81.8853L31.9471 82.0505C32.1127 83.0829 32.3196 84.3714 33.0564 84.8505C33.0812 84.867 33.1144 84.8835 33.1392 84.9L27.667 97.7023L27.6339 97.7767L27.7084 97.8097C27.7664 97.8427 27.8326 97.8675 27.8988 97.8923L27.9734 97.9171L33.4786 85.0239C34.1492 85.1726 34.9439 84.7844 35.5234 84.4953L35.689 84.4127C35.9125 84.3053 36.1278 84.2062 36.3265 84.1484C38.5286 83.4298 40.9293 83.2729 43.2556 83.6941C43.9262 83.8097 49.1334 86.0481 49.3073 86.3785L49.357 86.3537L49.3901 86.3867L50.0192 102.303V102.377H50.0937C50.1186 102.377 50.1517 102.377 50.1765 102.377C50.2014 102.377 50.2345 102.377 50.2593 102.377H50.3752L49.746 86.362C51.9564 84.5862 55.3093 84.3549 57.7349 85.8168L57.9418 85.9325L57.9998 85.7177C57.9998 85.7177 57.9998 85.7012 58.0081 85.6929L62.2302 100.544L62.255 100.626L62.611 100.527L58.2399 85.1313C59.4486 82.0092 62.2302 79.1927 65.881 77.4169C69.4243 75.6823 73.3814 74.9307 76.875 74.2782L88.3822 83.8511L88.4484 83.9006L88.4981 83.8345C88.4981 83.8345 88.5395 83.785 88.5561 83.7602C88.5809 83.7354 88.5975 83.7106 88.6223 83.6859L88.672 83.6198L77.3303 74.1791H77.4048L77.4131 73.9891C77.5621 71.7012 77.7194 69.339 78.5473 67.1502C79.4662 64.7302 81.1385 62.9709 83.1336 62.3184L83.2909 62.2688L83.2578 62.1036C83.2412 62.0541 83.2329 62.0128 83.2247 61.9632L97.7619 66.7703L97.8364 66.7951L97.8612 66.7207C97.886 66.6546 97.9109 66.5803 97.9274 66.5142L97.944 66.4399L83.1253 61.5502L83.1088 61.5833ZM78.0919 67.3567C77.3386 69.5042 77.1813 71.8417 77.0488 73.9065C77.0406 73.9065 77.024 73.9065 77.0157 73.9065C76.9992 73.9065 76.9743 73.9065 76.9578 73.9148L70.4508 68.4965C71.1296 64.6145 74.2672 61.3438 78.1002 60.5261L78.4976 60.4352L82.8025 61.8558C82.8025 61.8558 82.819 61.9302 82.8273 61.9715C82.8273 62.0045 82.8438 62.0293 82.8438 62.0623C80.8156 62.7892 79.1185 64.6145 78.1913 67.0676L78.0919 67.3567ZM17.8569 40.414L26.1024 43.1397C27.1372 48.2523 26.3342 53.8193 23.9003 58.4364L16.3419 61.0381L16.2509 61.0216C16.2509 61.0216 16.1681 61.0051 16.1267 60.9968C20.4978 55.1573 21.1766 46.9308 17.8486 40.414H17.8569ZM48.794 18.4023C49.0258 18.6418 49.2079 18.8235 49.3487 18.9392C51.5011 20.7067 53.43 21.6566 55.2513 21.8383C57.6107 22.0861 59.2416 20.6985 60.8062 19.3521L60.9967 19.1952C61.096 19.1126 61.1871 19.03 61.2864 18.9557L58.4386 25.6377C58.2895 25.6294 58.1488 25.6377 57.9998 25.6625C57.6604 25.7203 57.3292 25.7781 56.9898 25.8442C56.758 25.8855 56.5262 25.9268 56.2861 25.9763C54.8953 26.2406 53.4631 26.5297 52.0392 26.4967C50.102 26.4719 48.3718 25.8276 47.3039 24.7291L47.0058 17.0477C47.5274 17.1055 48.3139 17.915 48.794 18.4106V18.4023ZM46.6912 24.5474C46.7658 24.6465 46.8403 24.7291 46.9313 24.8282L46.9562 24.8613L47.2459 32.0966C47.2459 32.0966 47.1797 32.0966 47.1548 32.0966C47.0969 32.0966 47.0307 32.0966 46.9727 32.0966C46.8651 32.1049 46.7492 32.1132 46.6416 32.1214H46.5505C45.1432 32.1214 43.8765 31.2872 42.7092 30.4282L41.0866 24.7126C42.7672 25.8194 45.1266 25.7533 46.7161 24.5392L46.6912 24.5474ZM52.4283 66.06C52.2959 66.1591 52.18 66.2582 52.0558 66.3738C52.0641 66.0352 52.1137 65.6718 52.1965 65.2753L52.4283 66.0682V66.06ZM35.1592 72.3042C35.0764 71.9325 34.9025 71.6104 34.7204 71.2635C32.1623 66.4895 28.5694 62.1367 24.3225 58.6677L26.9468 57.7591C26.9468 57.7591 26.9468 57.8169 26.9468 57.8417C27.0213 58.2547 27.4518 58.6016 28.3873 59.0146C31.7318 60.493 34.8115 62.4918 37.5434 64.9449C38.6196 65.9113 39.7703 67.1007 40.0767 68.5956L35.9953 78.1602C35.5814 76.7065 35.2006 75.162 35.2088 73.6257V73.5762C35.2088 73.5183 35.2088 73.4523 35.2088 73.3944C35.2088 73.0558 35.2254 72.6759 35.1343 72.3042H35.1592ZM52.0309 26.8518C52.0723 26.8518 52.122 26.8518 52.1634 26.8518C53.5542 26.8518 54.9284 26.5958 56.2613 26.3397L56.3606 26.3232C56.9319 26.2076 57.4948 26.1002 58.0495 26.0176C58.124 26.0094 58.1985 26.0011 58.273 25.9928L55.0112 33.6494C53.2065 34.368 51.0458 34.1285 49.4977 33.0382C49.448 32.9969 49.4066 32.9639 49.357 32.9309C49.3073 32.8978 49.2659 32.8648 49.2162 32.8235C48.8188 32.5179 48.4463 32.2536 47.9993 32.1462C47.8751 32.1132 47.7426 32.0966 47.6019 32.0966L47.3287 25.233C48.4711 26.2489 50.1683 26.8353 52.0309 26.8518ZM34.3644 45.4854L30.7881 44.3043C32.8908 43.3379 34.2568 40.9179 33.9919 38.6217L37.5351 41.5704C37.6841 42.4046 37.4275 43.3049 36.8232 44.04C36.2188 44.7751 35.3827 45.2128 34.53 45.2376H34.2402L34.3727 45.4937L34.3644 45.4854ZM47.9248 32.4931C48.3221 32.5922 48.6864 32.8648 49.001 33.1043C49.0506 33.1456 49.1003 33.1787 49.1583 33.22C49.2079 33.253 49.2493 33.286 49.299 33.3273C50.8637 34.4341 52.9581 34.7315 54.8208 34.112L53.1072 38.1344C51.1865 38.6217 49.0589 37.8783 47.933 36.3173L47.8503 36.2099L47.7757 36.243L47.6267 32.4518C47.7343 32.4518 47.8337 32.4683 47.933 32.4931H47.9248ZM73.4394 56.6193C74.052 57.7426 75.004 58.5685 75.8733 59.188L70.6495 57.4618L70.6246 57.4287C69.3663 56.0576 68.2984 54.5131 67.454 52.8447C67.3215 52.5638 67.1808 52.283 67.1145 51.9774C66.9655 51.3497 67.1228 50.6559 67.3215 49.9951C68.0666 47.4016 69.2421 44.932 70.8316 42.6524L76.1547 40.8187C75.0454 43.6683 73.9195 46.6087 73.1745 49.6565C72.6612 51.7296 72.2307 54.3892 73.4476 56.6193H73.4394ZM54.1668 40.794C54.738 41.5786 55.5825 42.1072 56.4103 42.5615C58.3806 43.6435 60.4999 44.486 62.7352 45.0476L58.4386 46.5344C55.6901 46.5344 52.9581 44.9072 51.6336 42.4789L53.3638 38.4235L53.4135 38.407C53.4714 38.3904 53.5376 38.3739 53.5956 38.3574C53.3969 39.1421 53.6121 40.0589 54.1585 40.794H54.1668ZM45.8551 43.1479C45.9213 43.6353 45.3832 44.0317 44.9279 44.263C44.1828 44.6512 43.3881 44.9898 42.5602 45.2706L41.5337 44.4199C42.4774 44.519 43.4378 44.2299 44.1497 43.6353C44.8534 43.0488 45.3004 42.1651 45.3832 41.2482L45.8386 42.8506H45.8054L45.8634 43.1397L45.8551 43.1479ZM52.925 38.5391L51.3686 42.1898L51.2941 42.2229C50.3338 42.6276 49.1086 42.3798 48.3884 41.6364L48.3304 41.5621C48.2393 41.463 48.1317 41.3556 47.9993 41.3061C47.9827 41.2978 47.9744 41.2895 47.9579 41.2895L47.784 36.7468C48.9679 38.1922 51.0375 38.919 52.925 38.5474V38.5391ZM48.6781 52.8777V52.8942C48.6781 52.8942 48.6698 52.9025 48.6698 52.9107C48.6119 52.886 48.5457 52.8694 48.4711 52.8612C48.4629 52.8612 48.4463 52.8612 48.438 52.8612H48.4298L48.3884 51.837L48.6864 52.8777H48.6781ZM38.4209 47.2034L40.2339 47.7981C40.4989 48.1285 40.5651 48.624 40.4409 49.3096C40.2257 50.499 39.6958 51.6388 38.9094 52.6134C38.6776 52.919 38.57 53.1585 38.57 53.3815L37.7669 53.6541C37.858 53.4559 37.9987 53.2494 38.1312 53.0594L38.1809 52.9933C38.2968 52.8281 38.4044 52.6795 38.4789 52.5225C38.8018 51.8618 39.017 51.1762 39.1163 50.5072C39.2736 49.3261 39.017 48.1367 38.4292 47.1951L38.4209 47.2034ZM56.2199 49.9456C55.9798 50.4411 55.7232 51.0276 55.7315 51.6636C55.7315 52.0022 55.8391 52.3491 56.0129 52.6299L54.7132 52.2004C54.2827 51.5231 54.2496 50.5733 54.6387 49.7143C55.0361 48.8223 55.806 48.1285 56.4269 47.6164L57.9584 47.0878C57.2961 47.9963 56.7083 48.9544 56.2282 49.9456H56.2199ZM48.438 49.9786L49.0093 48.6323C49.2079 49.0287 49.5391 49.3261 49.9282 49.4665L48.438 49.9786ZM50.4746 49.2765L50.4911 49.2518C50.4911 49.2518 50.5077 49.2518 50.516 49.26L50.4746 49.2765ZM54.2993 49.5574C53.9267 50.3833 53.8936 51.2919 54.1999 52.027L53.488 51.7874C53.0492 51.3084 52.7677 50.8789 52.6187 50.4329C52.4366 49.8795 52.478 49.3096 52.7346 48.8718L55.5162 47.9054C54.945 48.4588 54.5476 48.9957 54.2993 49.5491V49.5574ZM54.0178 52.3408L54.3986 52.4647C54.0923 52.8447 53.9267 53.3733 53.935 53.9349C53.935 54.257 53.993 54.5544 54.0675 54.8435L52.3538 53.4146C52.2959 53.1503 52.3538 52.8777 52.4945 52.663C52.7015 52.3574 53.1154 52.1839 53.4714 52.25L54.0344 52.3574L54.0178 52.3408ZM50.2014 51.391C50.2842 51.2671 50.4497 51.201 50.5905 51.2258L51.3604 51.4736C51.3604 51.4736 51.4018 51.5314 51.4266 51.5562C51.4266 51.5644 51.4432 51.581 51.4514 51.5892C51.2196 51.647 51.0044 51.7957 50.8719 51.9857C50.8471 52.027 50.814 52.0683 50.7891 52.1178L50.1434 51.581C50.1434 51.5149 50.1683 51.4488 50.2014 51.391ZM52.2876 50.5485C52.3952 50.8871 52.5856 51.2258 52.8505 51.581L51.5673 51.1597C51.4183 50.9615 51.319 50.7715 51.261 50.5815C51.1203 50.1686 51.17 49.7391 51.3769 49.45L51.4597 49.3261L52.2793 49.0453C52.1137 49.5243 52.1137 50.0529 52.2793 50.5568L52.2876 50.5485ZM50.9216 50.6972C50.9547 50.7963 50.9961 50.8871 51.0458 50.9863L50.7229 50.8789C50.4994 50.6311 50.3587 50.4246 50.2842 50.2099C50.2345 50.0529 50.2262 49.8877 50.251 49.7391L50.9464 49.4995C50.7974 49.8464 50.7891 50.2842 50.9216 50.6972ZM51.17 52.2004C51.3024 52.0022 51.5756 51.8948 51.8074 51.9361L52.3704 52.027L52.0227 51.6883L52.8919 51.9774C52.6104 52.0765 52.3704 52.25 52.2131 52.473C52.1468 52.5638 52.0889 52.663 52.0558 52.7703C52.0144 52.8777 51.9978 52.9933 51.9895 53.1172L51.0955 52.3821C51.112 52.3161 51.1369 52.2582 51.17 52.2087V52.2004ZM50.0524 51.0441C49.9944 51.0854 49.9447 51.1349 49.9116 51.1928C49.8868 51.2341 49.8537 51.2836 49.8371 51.3332L49.1252 50.7385L50.0524 51.0523V51.0441ZM49.8702 49.8712C49.8702 50.0282 49.8868 50.1851 49.9365 50.3255C49.9778 50.4577 50.0358 50.5733 50.1103 50.6889L48.7857 50.2512L49.8702 49.8795V49.8712ZM49.2907 52.4482C49.4894 52.2252 49.7626 52.093 50.0358 52.0848H50.1765L50.7064 52.5143C50.6981 52.6217 50.7064 52.7208 50.7312 52.8199C50.309 52.8942 49.9116 53.1172 49.6053 53.4476C49.4977 53.5715 49.4066 53.6954 49.3321 53.8275L49.0589 52.8447C49.1086 52.696 49.1914 52.5638 49.2907 52.4399V52.4482ZM50.4249 49.2105L50.2345 49.1774C49.7378 49.0866 49.3156 48.6571 49.2162 48.145L49.3901 47.7237C49.5142 48.3267 49.8951 48.8801 50.4166 49.2105H50.4249ZM48.1897 46.6335L48.1731 46.6087L48.1234 45.2294C48.5291 45.6671 49.1583 45.9066 49.7957 45.8736L49.2824 47.0712C48.8602 47.1373 48.4215 46.9639 48.1897 46.6335ZM48.2145 47.5173L48.198 47.1291C48.4629 47.3273 48.794 47.4429 49.1169 47.4429L49.0258 47.6577L48.9513 47.6824C48.7112 47.765 48.4132 47.6907 48.2145 47.509V47.5173ZM48.8437 48.0789L48.2807 49.4004L48.2228 47.9633C48.4215 48.0541 48.6367 48.0954 48.8437 48.0789ZM46.3601 52.9355C46.1283 52.3408 45.7061 51.8287 45.1597 51.4818L47.7757 50.5815L46.6499 53.2081C46.5671 53.2576 46.5257 53.2742 46.5008 53.2742C46.4843 53.2494 46.4346 53.1668 46.3518 52.9273L46.3601 52.9355ZM46.0455 48.178C46.2111 48.1367 46.3932 48.0789 46.5753 47.9798C46.8154 47.8394 47.0058 47.6411 47.1217 47.4181L47.7343 49.5821L46.0455 48.178ZM46.8899 47.0382C46.8485 47.286 46.6664 47.5255 46.4015 47.6742C46.1614 47.8063 45.8882 47.8559 45.6978 47.8807L45.3501 47.5916C45.615 47.5255 45.8386 47.4347 46.0372 47.319C46.4098 47.1125 46.6995 46.7987 46.8485 46.4435L46.9313 46.7574L46.8817 47.0382H46.8899ZM47.4115 49.7886L45.2508 49.07C45.4743 48.8883 45.6316 48.6323 45.6895 48.3515L47.4032 49.7886H47.4115ZM42.3698 48.5001L43.6447 48.9214C43.8269 49.929 43.5868 50.9945 42.9824 51.8618L41.335 52.4234C42.1132 51.3084 42.4857 49.896 42.3781 48.5001H42.3698ZM44.1083 51.3992L44.1994 51.424L43.4957 51.6636C43.9428 50.8624 44.1332 49.9208 44.0255 49.037L44.8368 49.3013C44.8865 49.9869 44.6796 50.6724 44.2739 51.1845L44.1083 51.391V51.3992ZM45.3584 48.0872C45.3667 48.401 45.1845 48.7149 44.9114 48.8718L44.812 48.9296L44.2739 48.7479C44.5554 48.4671 44.7375 48.0872 44.7789 47.7072C44.8203 47.7072 44.8534 47.699 44.8948 47.6907L45.3667 48.0789V48.0954L45.3584 48.0872ZM46.5836 46.0553C46.5174 46.427 46.2442 46.7904 45.8468 47.0052C45.5654 47.1621 45.2508 47.2447 44.9859 47.2942L43.6861 46.204C44.1249 46.1379 44.6961 46.0057 45.2259 45.7084C45.7144 45.4358 46.0952 45.0229 46.3104 44.5686L46.6333 45.7249L46.5753 46.0553H46.5836ZM44.4146 47.3686V47.542C44.4146 47.9385 44.2077 48.3597 43.8682 48.6158L42.3202 48.1037C42.3202 48.1037 42.3202 48.1037 42.3202 48.0954C42.8914 47.732 43.2805 47.1125 43.3798 46.4352L44.5057 47.3768H44.4064L44.4146 47.3686ZM40.8052 52.506L40.7058 52.6299L38.9508 53.2246C38.9839 53.109 39.0584 52.9768 39.1826 52.8281C40.0021 51.8122 40.5568 50.6146 40.7886 49.3591C40.888 48.7892 40.8714 48.3184 40.7224 47.9467L41.9973 48.368C42.1629 49.8547 41.7324 51.3579 40.8217 52.506H40.8052ZM47.6433 50.2429L44.7209 51.2506C44.7209 51.2506 44.6961 51.2423 44.6878 51.2341C45.0355 50.7137 45.2177 50.086 45.2011 49.4417L47.6516 50.2512L47.6433 50.2429ZM47.6185 47.5338H47.6598C47.6598 47.5338 47.7178 47.5338 47.7261 47.5338C47.7261 47.5338 47.7509 47.5668 47.7675 47.5833L47.8006 47.6329C47.8006 47.6329 47.8254 47.6659 47.842 47.6742L47.8834 48.814L47.5191 47.5255C47.5191 47.5255 47.5853 47.5338 47.6185 47.5338ZM47.7178 47.1703C47.7178 47.1703 47.6764 47.1703 47.6598 47.1703H47.6185C47.5439 47.1703 47.486 47.1538 47.4032 47.1208L47.2625 46.6417C47.3701 46.6748 47.4694 46.683 47.5605 46.6748H47.6185C47.6681 46.6748 47.7178 46.6748 47.7509 46.6913C47.7592 46.6913 47.784 46.7243 47.8006 46.7491L47.8254 47.1951C47.8254 47.1951 47.7509 47.1786 47.7178 47.1786V47.1703ZM47.6019 46.3196H47.5688C47.4198 46.3196 47.279 46.2701 47.1383 46.1957L46.683 44.5934C46.923 44.7255 47.188 44.7999 47.4446 44.7999H47.5439C47.6185 44.7916 47.6764 44.7916 47.7178 44.7999L47.7757 46.3279C47.7757 46.3279 47.7012 46.3279 47.6764 46.3279C47.6516 46.3279 47.6185 46.3279 47.6019 46.3279V46.3196ZM44.7044 55.9833C44.158 54.5379 43.0156 53.3237 41.6165 52.696L42.8417 52.2748L42.9245 52.3078C44.009 52.6464 44.9279 53.5302 45.3418 54.6122C45.4826 54.9921 45.5736 55.2234 45.7392 55.3225L45.11 56.7927C45.0024 56.7514 44.8782 56.4293 44.7044 55.9916V55.9833ZM43.3881 52.0848L44.6878 51.6305C45.3004 51.9361 45.7723 52.4565 46.0041 53.0677L46.0207 53.1007C46.1366 53.3898 46.2028 53.555 46.3684 53.6211C46.4015 53.6293 46.4263 53.6376 46.4512 53.6376L45.8882 54.9674C45.822 54.8683 45.7392 54.6452 45.673 54.4801C45.2756 53.4228 44.4064 52.5225 43.3881 52.0848ZM49.7543 51.7544C49.4646 51.8205 49.1997 51.9774 48.9927 52.2087C48.9513 52.2582 48.9099 52.3078 48.8768 52.3574L48.3801 50.6228L49.7543 51.7627V51.7544ZM49.8454 53.6954C50.1517 53.365 50.5656 53.1668 50.963 53.1585L51.2693 53.142L51.112 52.886L52.0061 53.6293C52.0061 53.6293 52.0061 53.6541 52.0144 53.6624C51.41 53.745 50.8305 54.0506 50.3752 54.5379C50.1103 54.827 49.9033 55.1656 49.7792 55.529L49.4563 54.3892C49.5308 54.1249 49.6633 53.8854 49.8371 53.6871L49.8454 53.6954ZM55.7646 47.4512L52.7512 48.4919L52.6684 48.4754C51.3769 48.2441 50.3421 46.9473 50.4083 45.6423V45.378L50.3669 45.3945L50.8554 44.2547C51.2196 45.1633 51.9564 45.9562 52.9664 46.5013C53.8522 46.9886 54.8539 47.2529 55.7646 47.4594V47.4512ZM52.1303 48.6984L50.9878 49.0948C50.2096 48.8223 49.6467 48.0211 49.6964 47.2199V46.9556L50.0606 46.1049C50.2014 47.2364 51.0458 48.3019 52.1303 48.6984ZM49.9282 45.4937C49.299 45.6175 48.6119 45.3615 48.2559 44.8659L48.2145 44.8164C48.1814 44.7586 48.1317 44.709 48.0738 44.6429L48.0324 43.4288C48.6533 44.073 49.6715 44.3373 50.5408 44.073L49.9282 45.4937ZM47.5771 44.4364C47.5771 44.4364 47.5357 44.4364 47.5191 44.4364H47.4529C47.4529 44.4364 47.4529 44.4364 47.4446 44.4364C47.1052 44.4364 46.7575 44.2712 46.5174 43.9987L46.3435 43.3957C46.7823 43.4948 47.2376 43.4866 47.6681 43.3544L47.7095 44.4364C47.6598 44.4364 47.6185 44.4282 47.5771 44.4282V44.4364ZM46.12 44.0069C46.029 44.5521 45.6233 45.0807 45.0355 45.4111C44.4726 45.7249 43.8186 45.8406 43.297 45.9066L42.85 45.535C43.6364 45.2624 44.3815 44.9403 45.0686 44.5851C45.4163 44.4117 45.8468 44.1308 46.0621 43.7426L46.1283 43.9656V44.0069H46.12ZM43.0404 46.1627C43.0238 46.8482 42.6265 47.5173 42.0304 47.8476L41.9228 47.9137V47.988L40.8217 47.6246C41.5834 47.2199 42.2043 46.5757 42.6016 45.7993L43.0404 46.1709V46.1627ZM40.5237 54.1166C40.2919 54.0093 40.027 53.9349 39.7869 53.8689C39.522 53.7945 39.2322 53.7037 39.0584 53.588L41.1115 52.8777C42.5685 53.4146 43.8103 54.6535 44.3732 56.1154L44.3898 56.165C44.5968 56.7101 44.7209 57.024 44.9776 57.1231L44.5471 58.1308C44.158 57.3213 43.206 56.1237 43.1315 56.0329C42.4029 55.2234 41.5089 54.5544 40.5237 54.1166ZM47.5108 52.9107H47.4943H47.4777H47.4612C47.3453 52.919 47.2376 52.952 47.1383 52.9851L47.9744 51.0358L48.0489 52.9686C48.0489 52.9686 48.0158 52.9851 47.9993 52.9933C47.8337 52.952 47.6102 52.9273 47.5191 52.919L47.5108 52.9107ZM47.4115 54.4801H47.3701H47.3535C47.0389 54.5048 46.7326 54.6039 46.4594 54.7691C46.4263 54.7939 46.3932 54.8104 46.3518 54.8352L46.9396 53.4724C46.9396 53.4724 46.9562 53.4559 46.9727 53.4476L46.9976 53.4311C47.1631 53.3402 47.3287 53.2907 47.486 53.2742C47.5191 53.2742 47.7592 53.3155 47.8668 53.332H47.9082L47.9579 53.5385L48.0738 53.4228L48.1152 54.5957C47.9248 54.5461 47.6267 54.5131 47.4115 54.4966V54.4801ZM50.6567 54.7939C51.1037 54.3066 51.6998 54.0258 52.2958 54.0093H52.4697L54.0592 55.3308C53.2231 55.3391 52.3538 55.719 51.7164 56.3715C51.2859 56.8093 50.9547 57.3544 50.7395 57.9904C50.6898 58.1225 50.6484 58.2629 50.6153 58.4033L50.0275 56.3385C50.0441 55.7768 50.2676 55.2317 50.665 54.7939H50.6567ZM54.5311 55.2482C54.4069 54.8352 54.291 54.3809 54.2827 53.9267C54.2744 53.3733 54.4483 52.8942 54.7629 52.5969L56.311 53.109C55.8556 53.4724 55.4997 53.9762 55.301 54.5544C55.1685 54.9261 55.1106 55.3308 55.1189 55.7355L54.5311 55.2482ZM57.1637 53.0099L56.7911 52.8612C56.3027 52.6712 56.0709 52.1013 56.0709 51.647C56.0709 51.1102 56.2944 50.5815 56.5262 50.0942C57.0892 48.9379 57.768 47.8559 58.5379 46.873L63.2236 45.2624C62.3875 46.4931 61.2947 48.1285 60.8559 49.9043C60.4503 51.5397 60.6821 53.2163 61.4768 54.4305L57.1719 53.0099H57.1637ZM56.4269 47.2199H56.4186C55.4334 47.0134 54.2082 46.7491 53.1485 46.1792C52.0723 45.5845 51.319 44.709 51.0789 43.7592L51.4432 42.8836C52.7181 45.0311 55.0692 46.5426 57.561 46.8317L56.4269 47.2199ZM48.1234 42.9745L48.0407 42.8341L48.0075 42.8506L47.9661 41.7108C47.9661 41.7108 48.0407 41.7769 48.0655 41.8099L48.1069 41.8595C48.852 42.6441 50.1103 42.958 51.1534 42.6358L50.7395 43.6105C49.8785 44.04 48.6781 43.7509 48.1234 42.9662V42.9745ZM40.3333 47.4594L38.7769 46.9473C39.2571 46.8152 39.7041 46.5591 40.0849 46.1957C40.5816 45.7084 40.8962 45.0889 40.9707 44.4364L42.3119 45.5515C41.9062 46.4022 41.1943 47.096 40.3333 47.4594ZM39.6213 55.5703C39.4723 55.4629 39.2736 55.3473 39.0584 55.2234L38.959 55.1656C38.4458 54.8765 37.7504 54.4883 37.6759 54.0753L38.6941 53.7202C38.8845 53.968 39.2654 54.0919 39.6958 54.224C39.9856 54.3066 40.2008 54.3809 40.383 54.4553C41.3267 54.8848 42.1877 55.5208 42.8665 56.2806C43.1315 56.5697 44.2491 58.0977 44.3484 58.6181L43.504 60.5921C43.1315 59.7084 41.9973 58.0399 41.989 58.0234C41.3184 57.1066 40.5237 56.2806 39.6296 55.5786L39.6213 55.5703ZM45.9131 56.4293C45.7889 56.5037 45.6813 56.5615 45.5902 56.6193L46.1366 55.3391C46.269 55.2895 46.4263 55.1986 46.6416 55.0747C46.8651 54.9426 47.1135 54.86 47.3701 54.8352C47.428 54.8352 47.8254 54.9013 48.0241 54.9343L48.0821 55.1243L48.14 55.0665L48.1814 56.1733C47.8834 56.1072 47.3949 56.0576 47.2211 56.0329H47.1797L47.1631 56.0246H47.1466C46.7161 56.0659 46.2856 56.198 45.9131 56.4211V56.4293ZM45.6895 41.0913C46.2359 41.4217 46.8485 41.5869 47.4529 41.5869H47.5108C47.5108 41.5869 47.5688 41.5869 47.5936 41.5869L47.6516 42.991C47.188 43.1479 46.683 43.1479 46.2276 42.9993L45.6813 41.0913H45.6895ZM37.8332 47.0134C38.57 47.922 38.9011 49.1857 38.7272 50.4659C38.6445 51.1019 38.4458 51.7461 38.1312 52.3739C38.0567 52.5225 37.9408 52.6877 37.8083 52.8694C37.6014 53.175 37.3778 53.4889 37.3033 53.811L32.5928 55.4382C33.7518 54.4801 34.6459 53.2081 35.1343 51.8205C35.7635 49.9951 35.7138 47.922 34.9936 46.0883L37.8249 47.0217L37.8332 47.0134ZM38.7769 55.4877C39.017 55.6199 39.2488 55.752 39.3978 55.8677C40.2671 56.5532 41.037 57.3544 41.691 58.2464C42.0718 58.7585 43.3053 60.7738 43.2722 61.0134L43.3136 61.0299V61.0547H43.297L41.7075 64.7715C40.7803 62.4918 39.7207 60.6912 38.4706 59.2623C36.8977 57.47 34.9522 56.2146 32.9488 55.7025L37.3199 54.191C37.4689 54.7444 38.1891 55.1573 38.7769 55.4877ZM46.3684 57.5774C45.7723 57.693 45.259 58.0069 44.8782 58.2795L45.375 57.1066C45.5654 57.0488 45.7972 56.9166 46.0952 56.7349C46.4263 56.5449 46.7989 56.4211 47.1714 56.388C47.2459 56.388 47.8834 56.4871 48.1566 56.5367L48.1897 56.6441L48.2476 58.0482C47.7012 57.5444 46.9148 57.4783 46.3684 57.5774ZM48.645 53.3402L48.8934 53.6871L49.092 54.4057V54.4553C49.092 54.4553 49.0755 54.4801 49.0755 54.4966C48.9679 54.447 48.852 54.414 48.7361 54.4057C48.7112 54.4057 48.6947 54.4057 48.6698 54.4057C48.6036 54.4057 48.5374 54.4057 48.4711 54.4305L48.4215 53.2246C48.5208 53.2329 48.5953 53.2824 48.645 53.3485V53.3402ZM49.3735 55.3803L49.5722 56.0659C49.4232 55.9916 49.2659 55.9503 49.1169 55.942C49.092 55.942 49.0589 55.942 49.0341 55.942C48.8685 55.942 48.7029 55.9833 48.5374 56.0494L48.4877 54.8022C48.5457 54.7774 48.6202 54.7609 48.7029 54.7691C48.8685 54.7857 49.0093 54.86 49.092 54.9839L49.3735 55.3886V55.3803ZM50.8388 59.0641C50.9382 58.3786 51.2196 57.3957 51.973 56.6275C52.627 55.9503 53.5625 55.6034 54.3903 55.7107L54.5145 55.7273L55.1768 56.2641C55.1768 56.2641 55.1768 56.3137 55.1851 56.3385C54.142 56.388 53.0906 57.0075 52.3538 58.0234C51.7991 58.775 51.4597 59.6423 51.1865 60.4848L50.814 59.1632L50.8305 59.0641H50.8388ZM47.486 41.2235H47.4446C47.4446 41.2235 47.4446 41.2235 47.4363 41.2235C46.7658 41.2235 46.0869 40.9757 45.5405 40.5297L44.2739 36.1025V36.0612C44.2905 36.0034 44.2987 35.9456 44.307 35.8878C45.1349 36.5981 46.327 36.912 47.4032 36.689L47.5853 41.2152H47.4943L47.486 41.2235ZM49.7543 56.7101L50.2179 58.3538C50.0689 58.2299 49.8868 58.106 49.6715 58.0234C49.506 57.9573 49.3321 57.9243 49.1583 57.9243C48.9679 57.9243 48.7775 57.9656 48.6119 58.0399L48.5457 56.4376C48.7029 56.3219 48.8851 56.2724 49.0838 56.2889C49.3321 56.3137 49.5556 56.4293 49.6881 56.611L49.7543 56.7101ZM52.6601 58.2464C53.3721 57.2718 54.3655 56.7019 55.3341 56.7019C55.3672 56.7019 55.392 56.7019 55.4252 56.7019L55.6818 56.7184L55.6652 56.6771L58.8691 59.3367C58.8691 59.3367 58.8691 59.3945 58.8773 59.4193C58.8773 59.4606 58.8773 59.5019 58.8939 59.5514C58.8525 59.5514 58.8194 59.5514 58.778 59.5514C56.9981 59.5514 55.2513 60.2287 53.9433 61.4346C53.1982 62.1284 52.6022 63.0039 52.2048 63.9951L51.3852 61.1125C51.7329 60.0305 52.064 59.0724 52.6684 58.2547L52.6601 58.2464ZM55.5162 56.0742C55.3341 54.9839 55.8308 53.8358 56.7415 53.2494L61.8825 54.9426C61.8825 54.9426 61.8825 54.9509 61.8907 54.9591C60.9553 55.1573 60.0943 55.7603 59.5148 56.6275C59.0595 57.3048 58.8277 58.0647 58.8277 58.8328L55.5245 56.0824L55.5162 56.0742ZM61.2036 49.9951C61.6341 48.2358 62.6772 46.6996 63.6872 45.2211L63.7948 45.0642L70.2355 42.8423C68.7785 45.0229 67.6775 47.3934 66.949 49.896C66.742 50.5898 66.5681 51.3332 66.7337 52.06C66.8082 52.3987 66.9572 52.696 67.1062 53.0016C67.8679 54.5131 68.8199 55.942 69.9458 57.2305L62.0811 54.6287C61.1125 53.5054 60.7731 51.7296 61.1953 49.9951H61.2036ZM45.0355 40.0836L44.9031 39.9598L44.9859 40.4966C45.1514 41.5538 44.7209 42.6771 43.9014 43.3709C43.0983 44.04 41.9311 44.263 40.9293 43.9409L38.2305 41.686C39.729 41.5951 41.2025 40.9757 42.287 39.9598C43.1646 39.1421 43.8103 38.0601 44.1166 36.8872L45.0355 40.1002V40.0836ZM37.0798 44.2547C37.651 43.5692 37.9491 42.7184 37.9159 41.8842L40.6313 44.1473C40.6313 44.7916 40.3416 45.4358 39.8283 45.9314C39.3399 46.4105 38.7024 46.683 38.065 46.683C38.0401 46.683 38.0236 46.683 38.007 46.683L34.8115 45.6258C34.8115 45.6258 34.7949 45.5928 34.7866 45.5763C34.7866 45.5763 34.7866 45.568 34.7866 45.5597C35.6476 45.4606 36.4755 44.9898 37.0798 44.2547ZM27.3276 57.6187L30.5894 56.4954L30.6556 56.6275L30.7301 56.5945C31.0033 56.4706 31.2848 56.3219 31.5331 56.1733L32.5514 55.8181L32.5183 55.9503L32.6011 55.9668C34.6293 56.421 36.6162 57.6682 38.1974 59.4771C39.4806 60.9473 40.5651 62.8305 41.5089 65.2175L40.3002 68.0423C39.8531 66.6629 38.7769 65.5644 37.7752 64.6641C35.0267 62.2027 31.914 60.1874 28.528 58.6759C27.7416 58.329 27.3359 58.0399 27.2945 57.7674C27.2945 57.7178 27.2945 57.6765 27.3193 57.6104L27.3276 57.6187ZM45.8634 60.1544C45.1763 60.1544 44.4974 60.303 43.8848 60.6004L44.5885 58.965L44.6299 58.932C45.1183 58.5107 45.7227 58.0647 46.4512 57.9243C47.1549 57.7839 47.8834 58.0399 48.2145 58.5438L48.2807 58.6429L48.3718 60.906C47.6516 60.4104 46.7575 60.1544 45.8634 60.1544ZM55.3589 33.8807C55.4086 33.8642 55.45 33.8477 55.4997 33.8229C55.8639 35.6813 57.619 36.9698 58.9187 37.7792C62.4537 39.9845 66.4854 41.5621 70.5833 42.3385L63.3478 44.8246C60.9553 44.263 58.6786 43.3957 56.5842 42.2311C55.8391 41.8264 55.0029 41.3061 54.4483 40.571C53.8688 39.7946 53.7198 38.8282 54.0592 38.1179L54.2744 37.6801L53.8191 37.8783C53.7281 37.9196 53.637 37.9527 53.5459 37.9775L55.2844 33.9138C55.2844 33.9138 55.3424 33.889 55.3672 33.8807H55.3589ZM44.2905 35.3674L43.9924 35.0536V35.0784L42.8334 30.9899C43.8848 31.7497 45.1266 32.4766 46.5008 32.4766H46.5174C46.6664 32.4766 46.8237 32.4683 46.9727 32.4518C47.0307 32.4518 47.0803 32.4518 47.1383 32.4518C47.1714 32.4518 47.2045 32.4518 47.2376 32.4518L47.3949 36.3338C46.2856 36.5816 45.0438 36.2017 44.2905 35.3757V35.3674ZM34.7949 51.6966C34.1989 53.3815 32.9571 54.893 31.3924 55.8346L27.6753 57.1066C27.8409 56.9331 28.0479 56.7514 28.2879 56.5284L28.3045 56.5119C28.4452 56.3798 28.6025 56.2311 28.7681 56.0824C30.2169 54.7278 31.2351 53.2824 31.7981 51.7792C32.7584 49.2352 32.2782 46.3527 30.6556 44.6264L34.53 45.9066C35.333 47.7237 35.4241 49.8217 34.7784 51.6883L34.7949 51.6966ZM48.5043 66.1591C48.5043 66.1591 48.4794 66.1591 48.4629 66.1591C48.1483 66.1591 47.8337 65.9608 47.5605 65.7791L47.4446 65.7048C46.4015 65.0523 45.1432 64.7137 43.8931 64.7137C43.2556 64.7137 42.6182 64.8045 42.0138 64.978L43.6447 61.1455C45.0604 60.2205 47.0224 60.2948 48.3387 61.3272L48.3884 61.3603L48.5788 66.1425C48.5788 66.1425 48.5374 66.1425 48.5125 66.1425L48.5043 66.1591ZM49.5391 58.3455C49.8702 58.4777 50.1434 58.7502 50.4166 59.0393L50.9878 61.0547C50.458 60.8482 49.9116 60.716 49.3735 60.6499C49.3156 60.6499 49.2576 60.6417 49.1997 60.6417C49.0341 60.6417 48.8685 60.6665 48.7278 60.716L48.6367 58.4529C48.8934 58.2382 49.2824 58.2464 49.5474 58.3538L49.5391 58.3455ZM54.1834 61.6906C55.4997 60.4848 57.3458 59.8157 59.1174 59.9066L59.3823 59.9231L59.2995 59.6836L63.265 62.9874C60.8394 62.8222 58.4551 63.5986 56.3441 64.2841C55.0029 64.7219 53.8026 65.1431 52.7346 65.8535L52.3704 64.5815C52.7346 63.4665 53.3803 62.4423 54.1916 61.6989L54.1834 61.6906ZM59.8128 56.8258C60.4089 55.9255 61.303 55.3556 62.2716 55.2565L62.6689 55.2152L62.6441 55.1986L69.6974 57.5361C67.1394 58.1803 64.9538 60.1461 64.0846 62.624C64.0349 62.7644 63.9935 62.9131 63.9438 63.0535C63.9273 63.0535 63.9107 63.0535 63.8859 63.0535L59.2002 59.1467C59.1174 58.3538 59.3244 57.5278 59.8045 56.8258H59.8128ZM75.865 40.5297L71.1628 42.1485L71.1959 42.099L70.9227 42.0494C66.7668 41.2895 62.6772 39.712 59.1009 37.4819C57.8011 36.6642 56.0378 35.3757 55.8143 33.5338L55.7811 33.2778L55.5493 33.4017C55.5493 33.4017 55.4997 33.4264 55.4748 33.4347L58.629 26.0507C58.629 26.0507 58.6538 26.0672 58.6704 26.0754C58.7697 26.1828 58.7945 26.348 58.8277 26.538C59.3989 30.1639 62.5282 32.65 65.6823 34.8966C68.6709 37.0276 72.0568 39.4394 75.8733 40.5214L75.865 40.5297ZM42.0304 39.6954C40.9128 40.7444 39.3978 41.3391 37.858 41.3391C37.8414 41.3391 37.8249 41.3391 37.8166 41.3391L33.9836 38.1509C37.6759 37.0689 40.8714 34.2359 42.3698 30.709L43.9096 36.1356C43.6944 37.5067 43.0238 38.7704 42.0304 39.6954ZM30.25 44.1308L26.6239 42.9332C28.4866 40.8848 29.7201 38.2665 30.0927 35.5491C30.1175 35.5491 30.1423 35.5326 30.1672 35.5244C30.192 35.5161 30.2169 35.5079 30.2417 35.4996L33.5531 38.2583C34.0333 40.637 32.5266 43.3131 30.2417 44.1226L30.25 44.1308ZM31.4752 51.6636C30.9371 53.109 29.9437 54.5131 28.5363 55.8346L28.4866 55.8759C28.3376 56.0163 28.1969 56.1402 28.0644 56.2641C27.6174 56.6606 27.2366 57.0075 27.0544 57.3379L24.3639 58.2629C26.6736 53.6954 27.4352 48.2523 26.4749 43.2553L29.8443 44.3621L30.0099 44.4943C31.8726 46.0553 32.4769 49.004 31.4752 51.6553V51.6636ZM48.5291 72.2629C46.3767 70.1815 43.4543 68.8847 40.474 68.6865C40.474 68.67 40.4657 68.6535 40.4575 68.6369L41.8317 65.424C43.5868 64.8045 45.6647 65.0275 47.2542 66.0269L47.3784 66.1095C47.7012 66.3077 48.0572 66.5308 48.4711 66.5308H48.496C48.496 66.5308 48.5539 66.5308 48.587 66.5225L48.7775 71.5856C48.6864 71.8169 48.6036 72.0481 48.5125 72.2711L48.5291 72.2629ZM49.3404 61.0051C49.9447 61.0794 50.5242 61.2364 51.0706 61.4759L51.1286 61.4924L52.0061 64.5815C51.8323 65.1431 51.7329 65.6965 51.6998 66.2169C51.1865 66.0765 50.5574 65.9195 49.9282 65.9195C49.655 65.9195 49.3735 65.9526 49.1086 66.0269C49.0672 66.0269 49.0258 66.0434 48.9844 66.06C48.9761 66.06 48.9596 66.06 48.9513 66.0682L48.7526 61.096C48.9016 60.9968 49.1583 60.9886 49.3487 61.0134L49.3404 61.0051ZM77.1896 59.6258C75.9312 58.8576 74.5321 57.883 73.7457 56.4458C72.6032 54.3396 73.0172 51.7544 73.5056 49.7391C74.2755 46.617 75.4511 43.594 76.5935 40.6701L84.3092 38.0105C81.4365 45.4193 80.8653 53.7284 82.6948 61.4429L77.1896 59.634V59.6258ZM42.138 30.3208C40.6893 33.9551 37.4358 36.8376 33.6442 37.8618L30.6722 35.384C33.4124 34.558 35.4489 32.6666 36.6824 31.2046C38.2802 29.338 39.4558 27.2235 40.7058 24.8613L42.2125 30.1474L42.138 30.3208ZM49.0175 66.4151L49.1831 66.3738C50.0441 66.1426 50.963 66.3903 51.7743 66.6133C50.5077 67.811 49.6964 69.4133 49.1252 70.7679L48.9513 66.4399C48.9513 66.4399 48.9927 66.4234 49.0175 66.4151ZM56.46 64.6228C58.5793 63.929 61.2202 63.07 63.7617 63.3839L70.0617 68.6369L70.0286 68.8021C64.5564 67.3732 58.3309 69.7024 55.1602 74.3773L52.8422 66.2086C53.9267 65.4653 55.2099 65.0358 56.46 64.6228ZM64.2584 63.3343V63.293C65.0035 60.493 67.5119 58.2134 70.3763 57.7426L77.0157 59.9314C77.1979 60.047 77.3883 60.1544 77.5704 60.2617C74.3748 61.1125 71.6015 63.6812 70.4839 66.8777C70.3432 67.2741 70.2273 67.7119 70.1279 68.224L64.2501 63.326L64.2584 63.3343ZM76.4776 40.3232C72.4956 39.3155 68.9938 36.8129 65.9059 34.6076C62.8097 32.4023 59.7466 29.9574 59.2002 26.4802C59.1754 26.2571 59.1257 26.0094 58.9518 25.8359C58.9104 25.7863 58.8525 25.7533 58.8028 25.7203L61.7997 18.6996C61.8411 19.0465 61.8825 19.4017 61.9239 19.7734V19.8312C62.2467 22.5816 62.611 25.6955 63.7203 28.0329C64.8462 30.4117 67.4871 31.7167 69.3746 32.4931C70.0783 32.7822 70.7902 33.0795 71.4939 33.3686L71.5601 33.3934C73.6546 34.2689 75.5339 35.0536 77.4379 35.7556C77.4876 35.7804 82.8935 37.5975 84.6237 37.2589C84.5824 37.358 84.541 37.4571 84.5078 37.5645L76.4942 40.3232H76.4776ZM36.4175 30.9733C35.1674 32.4436 33.0978 34.3515 30.3493 35.1031L23.7264 29.5857C23.8175 29.4123 23.9168 29.2471 24.041 29.0819C24.7033 28.2394 25.3573 27.7769 25.9865 27.7191C30.3741 27.2483 34.7121 24.2583 37.5931 19.7238C37.9159 19.22 38.4789 18.8731 38.959 18.6336L40.5816 24.3492C39.4392 26.4967 38.1395 28.9332 36.4175 30.9651V30.9733ZM29.9188 35.2188L29.7864 35.2518L29.7698 35.384C29.4138 38.1344 28.172 40.7692 26.268 42.801L17.6168 39.9432C17.6168 39.9432 17.592 39.9019 17.5837 39.8772C17.5837 39.8606 17.5672 39.8441 17.5589 39.8276C19.9845 37.0772 21.9217 33.9385 23.3042 30.5108L23.3539 30.3869C23.4119 30.23 23.4781 30.0731 23.5443 29.9161L29.9023 35.2105L29.9188 35.2188ZM23.9251 58.7998C28.1886 62.244 31.8063 66.6051 34.4058 71.4204C34.5879 71.7673 34.737 72.0564 34.8115 72.3785C34.886 72.6924 34.886 73.031 34.8777 73.3614V73.4027C34.8777 73.477 34.8777 73.5596 34.8777 73.634C34.8694 75.4015 35.3579 77.1525 35.7883 78.6971L33.2882 84.5696C33.2882 84.5696 33.2634 84.5614 33.2551 84.5531C32.6425 84.1567 32.4438 82.8929 32.3031 81.9679C32.2451 81.6127 32.1954 81.2988 32.1375 81.0511C31.4669 78.4989 30.5314 76.0292 29.3476 73.7083C27.9982 71.0487 26.3176 68.5709 24.3722 66.349C21.9217 63.549 19.5126 61.8558 17.0125 61.1786L23.9417 58.7915L23.9251 58.7998ZM47.4612 73.8405L47.3701 73.7992C46.7409 73.5266 46.1283 73.2788 45.4577 73.1549C44.1083 72.9071 42.7175 72.9567 41.4343 73.3119C41.0452 73.4192 40.6065 73.5762 40.2505 73.8652C39.9359 74.1213 39.729 74.4517 39.5054 74.8233L39.4144 74.9555C38.6279 76.2275 37.5682 77.3756 36.343 78.2758L40.2919 69.0334H40.3167C43.3715 69.1986 46.3353 70.5366 48.4711 72.7089L48.6781 72.8989L48.7692 72.6428C48.7857 72.5933 48.8106 72.5355 48.8354 72.4859L48.9099 74.3526C48.4132 74.2369 47.9248 74.0387 47.4612 73.8405ZM52.5277 66.4234L54.7049 74.0965C53.5708 73.4853 52.4449 73.7992 51.4597 74.08C50.6898 74.2947 49.9861 74.4682 49.2824 74.3856L49.1665 71.6186C49.8951 69.7685 50.8719 67.7036 52.5359 66.4069L52.5277 66.4234ZM51.5508 74.4352C52.6767 74.113 53.7363 73.8157 54.8539 74.6169L57.8425 85.1148C57.8094 85.1808 57.7846 85.2469 57.7514 85.3213L57.7183 85.4121C55.2513 84.041 52.0061 84.2475 49.7295 85.9325L49.2824 74.7655C50.0937 74.8481 50.905 74.6251 51.5508 74.4434V74.4352ZM55.3507 74.7408C58.4551 69.9998 64.6723 67.6706 70.1362 69.1986L70.3349 69.2564L70.3597 69.0499C70.3597 69.0004 70.3763 68.9508 70.3846 68.9012L76.5024 73.9891C73.0751 74.6416 69.209 75.3933 65.7154 77.103C62.106 78.8623 59.3989 81.5136 58.066 84.5779L55.2927 74.8399L55.3507 74.749V74.7408ZM40.9128 18.0554L46.6499 17.0643L46.9313 24.2666C46.9313 24.2666 46.8899 24.217 46.8651 24.184L46.7492 24.0188L46.6002 24.151C45.019 25.4807 42.5188 25.489 40.9211 24.1922L40.8962 24.1675L39.2819 18.4766C39.7869 18.2536 40.3581 18.1463 40.9045 18.0471L40.9128 18.0554ZM36.2106 83.8098C35.9456 83.9006 35.6476 84.041 35.3744 84.1814C34.8032 84.454 34.1492 84.7596 33.6276 84.6935L36.0781 78.9284H36.0864C37.5434 77.9372 38.8018 76.6405 39.729 75.1537L39.8117 75.0216C39.9856 74.7408 40.1926 74.3939 40.474 74.1543C40.7803 73.9065 41.1611 73.7744 41.5254 73.6753C42.7424 73.3284 44.0752 73.2788 45.3915 73.5183C46.0372 73.6422 46.6664 73.9065 47.2211 74.1378C47.7095 74.3443 48.2642 74.5838 48.8437 74.716C48.8685 74.716 48.8934 74.716 48.9182 74.7242L49.3652 85.9903C48.2311 85.1974 43.6778 83.4133 43.3136 83.3472C42.4361 83.1903 41.5502 83.1077 40.6727 83.1077C39.1495 83.1077 37.6345 83.339 36.2023 83.8015L36.2106 83.8098ZM49.4397 86.3289L49.4646 86.3537L49.4397 86.3207V86.3289Z" fill="#FFFDFD"/>
</svg>
