<svg width="55" height="44" viewBox="0 0 55 44" fill="none" xmlns="http://www.w3.org/2000/svg">
<path d="M39.6207 74.5453C39.7378 74.1947 39.775 73.8014 39.7211 73.4248C39.8307 73.308 39.9255 73.1688 39.9961 73.013C40.0277 72.9407 40.0593 72.8646 40.037 72.7607C40.0184 72.6624 39.9478 72.5566 39.8735 72.4657C39.5798 72.1151 39.184 71.937 38.8587 71.8962C38.7714 71.8869 38.6859 71.8832 38.6023 71.8443C38.4907 71.7905 38.3941 71.6736 38.3086 71.5771C38.2231 71.4807 38.1488 71.4046 38.0521 71.4287C38.0373 71.5567 37.9053 71.6142 37.7548 71.5901C37.6172 71.5233 37.4834 71.4361 37.3645 71.3341C37.2716 71.2172 37.2009 71.0781 37.16 70.9427C37.0727 70.6718 37.0969 70.3898 37.2548 70.2655C37.2901 70.234 37.3347 70.2118 37.3533 70.1691C37.3924 70.0967 37.3403 69.965 37.2604 69.9001C37.1898 69.8444 37.1099 69.8407 37.0299 69.8426C37.0262 69.8296 37.0225 69.8185 37.0169 69.8073C37.043 69.7183 37.0578 69.6181 37.0467 69.5049C37.0337 69.3751 36.9835 69.2378 36.9129 69.1246C36.7698 68.8946 36.5672 68.7518 36.3795 68.6664C36.3107 68.7184 36.2438 68.7703 36.1769 68.8204C36.2419 68.7592 36.1695 68.6071 36.0802 68.518C35.9873 68.4253 35.8777 68.3622 35.7922 68.2602C35.6063 68.032 35.6435 67.7518 35.6212 67.5033C35.5952 67.2528 35.3777 66.8929 35.203 66.982C35.2235 66.7018 35.1528 66.3957 35.032 66.1156C34.9187 65.8503 34.757 65.6036 34.5581 65.4385C34.5525 65.4032 34.547 65.368 34.5414 65.3327C34.4448 64.7094 34.35 64.0861 34.2924 63.4609C34.4503 63.3144 34.6715 63.2624 34.809 63.0732C34.9001 62.9508 34.941 62.7281 34.8536 62.5723C34.7384 62.5167 34.6287 62.4629 34.5135 62.4072C34.7719 61.897 34.7365 61.1791 34.6919 60.5187C34.6864 60.4315 34.6789 60.335 34.6362 60.2627C34.5971 60.1977 34.5377 60.1643 34.4819 60.1328C34.2701 60.0159 34.0582 59.9009 33.85 59.7803C33.863 59.6022 33.8798 59.4241 33.9021 59.2479C33.7831 59.2498 33.6753 59.0643 33.7106 58.9066C33.7255 58.8268 33.7701 58.7656 33.8073 58.7062C33.9783 58.4316 34.0749 58.0588 34.0452 57.6896C34.0024 57.6525 33.9578 57.6154 33.9151 57.582C33.785 57.1572 33.8352 56.6433 34.0415 56.3057C34.1158 56.1869 34.2162 56.0812 34.2347 55.9179C34.2775 55.5506 33.9076 55.2538 33.8835 54.8846C33.8686 54.6398 34.0099 54.4672 34.0954 54.2743C34.1808 54.0795 34.1715 53.7289 33.995 53.6398C33.9132 53.6992 33.8203 53.7326 33.7218 53.7437C33.7013 53.5193 33.6586 53.3152 33.5898 53.1538C34.5265 52.4377 37.0225 50.5251 37.0225 50.5251C37.3663 50.2616 37.7046 50.0038 38.0168 49.7199C38.2343 49.5956 38.4406 49.4547 38.6803 49.3842C38.8996 49.3211 39.1338 49.3229 39.3605 49.297C40.3604 49.1801 41.2023 48.5141 41.8193 47.7294C41.8862 47.7758 41.9513 47.8221 42.0182 47.8685C42.1464 47.7591 42.2747 47.6496 42.4029 47.542C42.5051 47.4548 42.6092 47.3639 42.6594 47.2378C42.7077 47.1116 42.6798 46.9428 42.5609 46.8723C42.3992 46.7777 42.2133 46.9131 42.0907 47.0448C41.7803 47.3769 41.4458 47.7665 40.9849 47.7813C40.8492 47.785 40.708 47.7554 40.5779 47.7925C40.4273 47.8351 40.3177 47.9576 40.1987 48.0577C39.8344 48.3583 39.4627 48.3638 39.0799 48.3564C39.1914 48.1227 39.2657 47.8778 39.3011 47.6292C39.3717 47.4975 39.446 47.3602 39.5241 47.2192C40.9923 46.6868 41.732 45.1099 42.6687 44.0655C43.3693 43.2288 44.4399 43.1119 45.2818 42.4088C46.3448 41.5035 45.8189 40.2513 45.8839 39.0919C45.9229 38.7876 46.04 38.5205 46.2816 38.3461C46.6626 38.066 47.2704 37.9769 47.709 37.7135C48.6029 37.2182 48.445 36.0513 48.6178 35.1924C48.681 34.8418 48.8538 34.5134 49.1772 34.3501C48.4617 34.6488 48.458 35.5671 48.3074 36.222C48.0082 37.8953 46.973 37.3258 45.8914 38.0474C45.646 38.2422 45.462 38.5242 45.3821 38.8321C45.0792 39.8135 45.659 41.088 44.7502 41.7577C44.2075 42.1343 43.5013 42.2567 42.8675 42.5795C42.507 42.765 42.1762 43.0043 41.89 43.2622C41.7134 43.418 41.5461 43.5906 41.3826 43.7687C41.4681 43.6036 41.5443 43.4514 41.6112 43.316C42.3416 41.8412 42.0591 40.704 41.7636 39.2087C41.4439 37.3981 41.994 35.5133 43.2151 34.1999C44.1815 33.2296 49.4151 34.9623 48.917 33.4838C49.0378 33.3502 50.2366 32.0275 50.2366 32.0275C50.4968 31.74 50.7458 31.4673 50.9205 31.0907C50.967 30.9961 50.9986 30.8977 51.0209 30.8013C51.0264 30.8031 51.0301 30.805 51.0301 30.805C51.0878 30.6584 51.1658 30.4655 51.2532 30.2503C51.8014 29.9052 52.0542 29.1817 52.3906 28.666C52.6415 28.256 53.0466 28.1187 53.3533 27.7533C53.7399 27.2858 53.5187 26.8053 53.5224 26.3137C53.5317 26.182 53.5726 26.0614 53.66 25.9686C53.7993 25.8184 54.0279 25.7312 54.1915 25.5846C54.5223 25.3027 54.4405 24.8277 54.4907 24.453C54.5093 24.3009 54.5688 24.1488 54.6877 24.0541C54.4219 24.2378 54.4368 24.6237 54.3904 24.9112C54.3067 25.6366 53.9034 25.4845 53.5057 25.8777C53.4165 25.9798 53.3514 26.1133 53.3254 26.2488C53.2269 26.6847 53.4704 27.1708 53.1377 27.527C52.9388 27.731 52.6731 27.8405 52.437 28.0278C52.3032 28.1354 52.1824 28.2634 52.0784 28.3952C52.0133 28.4749 51.9538 28.5621 51.8944 28.6493C51.9241 28.5733 51.9501 28.5028 51.9724 28.4415C52.2233 27.7626 52.0951 27.3099 51.9575 26.7088C51.8051 25.9779 51.9799 25.1413 52.4203 24.4901C52.7883 23.9781 53.1637 23.4531 52.8701 22.8372C52.6842 22.4587 52.385 22.2398 52.0895 22.0042C51.242 21.3345 50.3852 20.6648 49.4764 20.0934C49.4894 19.7076 49.5954 19.3124 49.7831 18.9599C50.0061 18.5852 50.1808 18.2457 50.086 17.8098C50.1213 18.0008 50.1046 18.2105 50.0396 18.4034C49.9764 18.5982 49.8537 18.7633 49.7515 18.9414C49.5433 19.3069 49.4188 19.7298 49.3984 20.1472C50.1975 20.6945 50.9465 21.316 51.6881 21.9504C52.1099 22.3474 52.9927 22.8557 52.6452 23.646C52.5448 23.8705 52.3683 24.0764 52.201 24.3102C51.768 24.9094 51.5338 25.6755 51.5543 26.4028C51.5561 26.937 51.7996 27.4268 51.6936 27.9499C51.6174 28.321 51.4074 28.7124 51.2587 29.0704L50.8722 29.9479C50.835 29.8978 50.7941 29.8496 50.7458 29.8069C50.6361 29.703 50.4949 29.5917 50.3834 29.5008C50.0637 29.2355 49.6493 28.9072 49.337 28.64C48.5044 27.9258 48.5936 27.2264 49.6418 26.6643C49.8444 26.5586 50.0674 26.412 50.1864 26.1764C50.4243 25.67 50.2607 25.1079 50.0284 24.7034C49.6976 24.1246 49.062 23.9447 48.5676 23.5904C48.3242 23.4197 48.0937 23.2268 47.8818 23.0097C47.7759 22.9003 47.6644 22.7964 47.6477 22.6387C47.6272 22.481 47.6755 22.3085 47.7071 22.1378C47.7722 21.7909 47.7666 21.4384 47.6923 21.1156C47.7517 21.444 47.7406 21.7946 47.6625 22.1322C47.6253 22.2992 47.5659 22.4736 47.5789 22.6572C47.59 22.8409 47.7127 22.9689 47.8149 23.0876C48.0194 23.3214 48.2442 23.5329 48.484 23.7221C49.1623 24.2489 49.9058 24.4289 50.0284 25.5086C50.0935 26.3081 49.5619 26.2451 49.0787 26.6068C48.5639 26.9704 48.2312 27.5696 48.4468 28.1948C48.6215 28.7068 49.0081 29.0333 49.3631 29.3598C49.5303 29.5138 49.8686 29.8218 50.0358 29.9757C50.1455 30.0778 50.27 30.1854 50.3555 30.2744C50.4224 30.3486 50.4614 30.4043 50.48 30.4989C50.5153 30.8755 50.0693 31.2836 49.8258 31.5359C49.8258 31.5359 48.8854 32.4876 48.5862 32.79C48.1364 32.0331 47.5008 31.4636 46.8764 30.8662C44.7391 28.8385 42.5795 26.8109 40.2656 24.9836C40.3437 24.0783 40.6652 23.1971 41.1912 22.4624C41.8138 21.6926 42.31 20.9783 42.1074 19.8968C42.178 20.3699 42.1111 20.854 41.9197 21.2752C41.732 21.7018 41.3975 22.0283 41.1094 22.3994C40.524 23.1563 40.1523 24.0894 40.0519 25.0652C42.0758 26.7756 43.9659 28.6382 45.83 30.5267C46.8857 31.6843 47.7164 32.2909 48.0732 33.3001C48.2665 33.8418 43.7949 32.4969 42.6557 33.6545C41.4737 34.8585 40.7637 36.5373 40.7377 38.27C40.6856 39.5371 41.2636 40.8209 40.931 42.0026C40.6894 42.8392 40.1002 43.6592 39.6728 44.4254L38.8457 45.8297C38.7732 45.7277 38.6933 45.6275 38.6023 45.5329C38.3272 45.2287 37.9722 44.8947 37.6897 44.6202C36.885 43.828 35.8386 42.8318 35.0525 42.0397C32.9579 39.9174 33.2683 38.3053 36.0691 37.5261C36.6081 37.3796 37.2084 37.1514 37.5429 36.6561C38.2194 35.582 37.8551 34.1683 37.2957 33.0905C36.4966 31.547 34.8573 30.7939 33.6084 29.6956C32.9895 29.1669 32.4115 28.5862 31.8819 27.9629C31.6198 27.6475 31.3355 27.3452 31.3094 26.963C31.2741 26.5808 31.4191 26.1968 31.5213 25.8073C31.7295 25.0207 31.7536 24.184 31.5975 23.3807C31.7164 24.1896 31.6495 25.0133 31.4079 25.7701C31.2908 26.1467 31.118 26.527 31.1329 26.9686C31.1422 27.4101 31.447 27.7755 31.6997 28.1095C32.2071 28.768 32.7702 29.3877 33.378 29.959C35.0897 31.56 37.0095 32.3726 37.2102 34.9902C37.292 36.9139 35.9093 36.4873 34.612 37.0939C33.8983 37.3981 33.3055 37.8786 32.9654 38.489C32.6123 38.207 32.1848 37.8638 32.1848 37.8638C31.9841 37.6987 31.6198 37.4334 31.6031 37.1625C31.6049 37.0939 31.6272 37.0512 31.6663 36.9937C31.7164 36.9232 31.7945 36.8397 31.8596 36.7618C31.9618 36.6412 32.1681 36.4019 32.2703 36.2813C32.4877 36.0272 32.7275 35.7712 32.7944 35.3964C32.878 34.9382 32.5751 34.5301 32.1681 34.3019C31.7834 34.0719 31.4117 34.1479 31.3689 33.5747C31.3373 32.7974 31.8465 32.6249 32.2721 32.2093C32.4227 32.0609 32.5602 31.8958 32.6792 31.7177C32.7386 31.6268 32.8111 31.5285 32.8 31.3968C32.7888 31.2651 32.7275 31.1445 32.6829 31.0276C32.59 30.792 32.5435 30.5434 32.5491 30.3041C32.5323 30.5397 32.5676 30.7901 32.6531 31.0332C32.694 31.1537 32.7479 31.2743 32.7516 31.3875C32.7572 31.5007 32.6885 31.5804 32.6253 31.6658C32.4989 31.8327 32.3558 31.9848 32.1997 32.1203C31.8874 32.4023 31.4544 32.5674 31.2816 33.0015C31.1626 33.3038 31.1069 33.7138 31.3336 34.0607C31.4451 34.2221 31.6198 34.313 31.7759 34.3761C32.5862 34.7138 32.7275 35.2072 32.2127 35.7656C32.0194 35.9734 31.7611 36.2331 31.5622 36.4409C31.4934 36.5132 31.4042 36.6004 31.3373 36.6802C31.3076 36.7136 31.2834 36.7507 31.263 36.7896L30.8894 36.1867C30.7444 35.9419 30.5512 35.6729 30.4564 35.415C30.3226 35.0477 30.4415 34.6859 30.3839 34.3038C30.3188 33.7843 30.0661 33.2501 29.6907 32.8493C29.5457 32.6935 29.397 32.5562 29.3004 32.4023C28.9658 31.8587 29.5383 31.4431 29.7947 31.1352C30.2538 30.638 30.7184 30.1501 31.2277 29.7123C31.1663 29.4155 31.0307 29.1224 30.8411 28.8738C30.7482 28.7532 30.6441 28.6419 30.5772 28.5065C30.5084 28.3729 30.475 28.2263 30.4787 28.0872C30.4582 28.4044 30.6218 28.6363 30.8225 28.8905C30.9953 29.1298 31.1143 29.4062 31.1663 29.6808C30.5809 30.1427 30.0456 30.6696 29.516 31.1983C29.332 31.3838 29.1424 31.5563 29.0513 31.8383C28.9119 32.2947 29.2372 32.6471 29.5569 32.9903C29.9434 33.4281 30.1609 34.0144 30.133 34.5449C30.1014 34.9809 30.0605 35.313 30.3151 35.7805C30.3374 35.8231 30.3653 35.8732 30.395 35.927C30.343 35.8658 30.2891 35.8083 30.2334 35.7545C30.1441 35.6654 30.0438 35.582 29.936 35.5133C29.7483 35.3927 29.5457 35.3315 29.3803 35.1979C29.1034 34.9642 29.2223 34.6024 29.1052 34.2982C29.0718 34.2036 29.0105 34.1108 28.9361 34.044C28.609 33.788 28.3377 33.9198 28.1983 33.4077C28.1332 33.2055 28.1016 32.931 27.8916 32.8141C27.9883 32.8753 28.0477 32.9792 28.0775 33.0868C28.1555 33.3502 28.15 33.6934 28.4176 33.8752C28.5495 33.9698 28.7224 34.0199 28.8395 34.1183C28.9138 34.1795 28.9547 34.263 28.977 34.3557C29.0346 34.7063 28.9305 35.0607 29.2576 35.3723C29.5178 35.6153 29.8208 35.6896 30.0456 35.966C30.343 36.3129 30.6032 36.8119 31.0325 37.0271C31.118 37.1755 31.1961 37.3091 31.2537 37.4093C31.2537 37.4093 31.2574 37.4074 31.2593 37.4056C31.2853 37.4742 31.3187 37.541 31.3633 37.6059C31.5287 37.8638 31.7369 38.0437 31.9543 38.2329C31.9543 38.2329 32.4301 38.6485 32.7702 38.9435C32.6215 39.4128 32.6104 39.9415 32.7888 40.5166C33.1865 41.8208 34.1623 42.7947 35.0525 43.752C35.4725 44.2046 36.32 45.1081 36.7419 45.5607C37.0151 45.8594 37.3292 46.1766 37.541 46.4364C37.7064 46.6478 37.805 46.8 37.8421 47.0337C37.8942 47.9427 36.6824 48.6755 36.0208 49.1467C36.0208 49.1467 34.6194 50.1114 33.4579 50.9109C33.391 50.0668 33.233 49.2302 32.9338 48.4084C32.5082 47.1858 31.7982 46.0709 30.8876 45.1507C30.4694 44.7111 29.7576 44.2065 29.4361 43.8317C29.2223 43.5832 29.1368 43.3661 29.0569 43.0415C28.8952 42.2419 28.8543 41.1585 28.5607 40.3237C28.3172 39.5204 27.9585 38.7524 27.5051 38.0437C27.5366 37.899 27.5682 37.7562 27.5998 37.6115C27.6184 37.528 27.637 37.4427 27.6259 37.3573C27.611 37.2404 27.5422 37.1347 27.4697 37.0382C27.1612 36.6301 26.7431 36.3129 26.4364 35.9029C26.3491 35.786 26.2357 35.6469 26.0963 35.6747C26.0443 35.6858 26.0015 35.7192 25.9662 35.76C25.8826 35.8602 25.8621 36.0031 25.8937 36.1348C25.8324 36.0773 25.7692 36.0216 25.706 35.9678C25.1522 35.4948 24.4794 35.057 23.8568 34.7416C23.814 34.7193 23.7732 34.6971 23.7304 34.6748C23.7546 34.4689 23.8419 34.2667 23.9256 34.0181C24.4682 32.6675 24.3028 31.0295 23.4981 29.768C23.6784 29.2801 23.7527 28.7569 23.7193 28.2412C23.697 27.6179 23.433 26.9704 23.171 26.4287C22.9703 25.9724 22.7435 25.4863 22.9182 25.0355C23.1078 24.6014 23.6468 24.2842 24.0185 23.9744C24.4608 23.6275 24.9254 23.3678 25.4458 23.1581C25.8863 22.9819 26.3546 22.5663 26.1967 22.0228C26.1 21.6035 25.7395 21.2622 25.8119 20.8299C25.8528 20.5294 26.258 20.5517 26.3862 20.3068C26.5256 20.0786 26.6353 19.7669 26.7505 19.5239L27.0943 18.7429L26.6929 19.4942L26.4922 19.869C26.3899 20.0452 26.3212 20.2493 26.1428 20.3457C26.0164 20.407 25.851 20.4329 25.7469 20.5535C25.522 20.8058 25.5871 21.1898 25.7023 21.4811C25.8138 21.7668 26.0182 22.11 25.8714 22.3957C25.7265 22.6906 25.2042 22.8223 24.8864 22.9392C24.1932 23.1952 23.604 23.6126 23.0019 24.0263C22.4294 24.3955 22.0559 25.0541 22.2008 25.7831C22.2938 26.3953 22.5874 26.9315 22.7342 27.488C22.8532 27.9351 22.8532 28.4174 22.7473 28.8627C22.3793 28.5139 21.9685 28.2115 21.5671 27.9536C20.688 27.3823 19.7513 26.9185 19.0172 26.1931C18.4411 25.6236 18.0935 24.8185 17.3817 24.3695C16.6234 23.8482 15.3782 23.5533 15.3206 22.4829C15.3615 21.9708 15.7871 21.687 16.025 21.2381C16.1718 20.9913 16.2294 20.6426 16.1477 20.3587C16.0789 20.0767 15.9785 19.8523 15.9915 19.6241C16.0101 19.1232 16.3335 18.6872 16.5156 18.2216C16.6197 17.9749 16.6829 17.7133 16.7238 17.448C16.8781 16.3906 16.5528 15.259 15.841 14.4594C16.6736 15.502 16.865 16.9768 16.3298 18.1326C16.1123 18.6112 15.7555 19.0304 15.7091 19.5981C15.6589 20.0934 16.038 20.6055 15.7091 21.0433C15.434 21.4681 14.9155 21.8595 14.8764 22.4365C14.8244 23.0746 15.237 23.6256 15.7035 24.0059C16.1347 24.3454 16.629 24.5606 17.0472 24.8741C17.6791 25.3398 17.9541 26.13 18.4987 26.6977C20.2438 28.5881 23.184 29.1409 23.1022 32.2205C23.119 32.8364 22.8011 33.4152 22.6004 34.0014C21.976 33.5357 21.4296 32.9031 20.8125 32.3689C20.4557 32.0535 20.0896 31.753 19.7123 31.471C16.1105 28.8089 12.4288 27.5548 9.59639 25.0559C9.52763 24.8259 9.2061 23.7388 9.2061 23.7388C9.13548 23.4902 8.98866 23.0654 9.13176 22.8427C9.17451 22.7908 9.21725 22.7704 9.2823 22.7481C9.36408 22.7222 9.47745 22.7036 9.57966 22.6795C9.73578 22.6461 10.0462 22.5793 10.2023 22.5459C10.5312 22.4754 10.8806 22.4161 11.1557 22.1601C11.4939 21.8502 11.4791 21.3475 11.2728 20.9264C11.0888 20.5183 10.7338 20.3569 11.033 19.8801C11.4605 19.2494 11.9846 19.4163 12.5793 19.3403C12.7912 19.3124 13.0012 19.2642 13.2056 19.1937C13.3078 19.1584 13.4249 19.1232 13.4918 19.0119C13.5606 18.9024 13.5792 18.7707 13.6108 18.652C13.6721 18.4108 13.7781 18.1882 13.9212 18.0046C13.7706 18.1789 13.6517 18.3978 13.581 18.6409C13.5457 18.7614 13.5197 18.8876 13.4565 18.9785C13.3952 19.0713 13.2911 19.0935 13.1889 19.1232C12.9863 19.1789 12.7782 19.2141 12.57 19.2289C12.1463 19.266 11.6891 19.138 11.2932 19.3774C11.0182 19.5443 10.7319 19.8337 10.7171 20.2418C10.7152 20.4348 10.8081 20.6092 10.8992 20.752C11.375 21.4978 11.204 21.9708 10.4513 22.1063C10.1688 22.1563 9.80269 22.2064 9.51648 22.2528C9.41797 22.2677 9.29345 22.2843 9.18938 22.3085C9.14477 22.3177 9.10388 22.3326 9.06486 22.3493L9.1076 21.6536C9.1299 21.3735 9.12619 21.0488 9.19867 20.7891C9.30275 20.4218 9.61312 20.2066 9.78782 19.8708C10.0369 19.4219 10.1391 18.8524 10.061 18.3144C10.0313 18.1047 9.98854 17.9099 9.99783 17.7318C10.0369 17.1067 10.7561 17.1178 11.1483 17.0288C11.8192 16.91 12.4901 16.8024 13.1685 16.7598C13.2911 16.4908 13.3487 16.1791 13.3376 15.8712C13.332 15.7209 13.3078 15.5706 13.332 15.4259C13.3543 15.2812 13.4101 15.1439 13.4956 15.0363C13.2948 15.2738 13.293 15.5539 13.3116 15.8712C13.3153 16.1624 13.2521 16.45 13.135 16.6967C12.3786 16.7134 11.6259 16.8098 10.8769 16.9119C10.6167 16.949 10.3565 16.9731 10.1186 17.1401C9.73578 17.4165 9.80083 17.8858 9.86588 18.3459C9.93092 18.921 9.76923 19.5109 9.43656 19.9116C9.15407 20.2363 8.92733 20.4719 8.86599 20.9913C8.86042 21.0396 8.85299 21.0952 8.84741 21.1546C8.83998 21.0767 8.82882 20.9987 8.81581 20.9227C8.79351 20.8002 8.7582 20.6741 8.70988 20.5572C8.62439 20.3513 8.49243 20.1825 8.43296 19.9803C8.34003 19.6315 8.65041 19.4182 8.73032 19.1084C8.7582 19.0137 8.76192 18.9062 8.73776 18.8078C8.6151 18.4127 8.31402 18.3552 8.49615 17.8691C8.5612 17.6725 8.69501 17.4369 8.58722 17.2198C8.63182 17.3256 8.61881 17.4424 8.58164 17.5445C8.49243 17.7986 8.288 18.0658 8.40322 18.3663C8.45712 18.5203 8.57235 18.6613 8.61138 18.8078C8.6374 18.9006 8.62253 18.9915 8.58536 19.0768C8.42924 19.3866 8.13374 19.6037 8.22481 20.0433C8.29915 20.3884 8.5073 20.6259 8.53332 20.9783C8.57792 21.4291 8.50358 21.9745 8.73404 22.3975C8.71917 22.5645 8.70616 22.7166 8.69501 22.8298C8.69501 22.8298 8.70059 22.8298 8.70245 22.8298C8.68572 22.8984 8.67271 22.9708 8.67085 23.0487C8.65784 23.3492 8.72475 23.6145 8.79537 23.8928C8.79537 23.8928 8.86785 24.1803 8.92918 24.4252C8.74705 24.2397 8.56863 24.0486 8.39393 23.8482C7.38662 22.6943 6.53356 21.2881 5.88865 19.4627C5.582 18.6427 5.22144 17.7912 5.01329 16.9508C4.83116 16.1772 4.7531 15.3035 5.30879 14.7135C5.61545 14.3982 6.07264 14.1978 6.29381 13.7303C6.41647 13.4669 6.43505 13.1422 6.32726 12.864C5.88865 11.788 4.42972 11.4671 4.39626 10.2408C4.41485 9.41157 4.63601 8.48957 4.83115 7.67517C5.15082 6.39698 5.82918 5.24679 7.01491 4.65315C7.7769 4.22832 8.62439 3.92779 9.33062 3.39723C10.3881 2.59766 11.0237 1.26753 10.9959 -0.0830078C10.9754 1.25825 10.3175 2.53644 9.25071 3.28963C8.53332 3.79237 7.68769 4.05765 6.90712 4.46022C5.63775 5.04273 4.8739 6.24486 4.49662 7.56757C4.26245 8.44876 4.00969 9.31139 3.96137 10.2353C3.93907 10.725 4.19368 11.2611 4.53379 11.6118C4.96497 12.1201 5.5727 12.4614 5.81803 13.0347C5.9983 13.6821 5.24003 13.8676 4.8739 14.2739C4.68991 14.452 4.54494 14.669 4.43529 14.9028C3.96695 16.0325 4.35166 17.3144 4.71964 18.4257C5.1564 19.7335 5.59872 21.0284 6.23805 22.2751C6.26221 22.3252 6.29009 22.3715 6.31611 22.4216C5.5727 21.828 4.89249 21.4978 3.67144 21.5349C3.05441 21.5349 2.71802 21.3215 2.17719 21.0006C1.87426 20.8281 1.51185 20.6815 1.14758 20.7001C0.954291 20.7093 0.794458 20.7539 0.658786 20.7854C0.0436177 21.0099 -0.502786 20.4552 -0.657043 19.8634C-0.813159 19.3069 -0.753686 18.7188 -0.783422 18.1326C-0.802007 17.8228 -0.854046 17.4758 -1.07335 17.1846C-1.24619 16.9583 -1.52311 16.795 -1.80189 16.7987C-1.68666 16.1717 -2.03234 15.476 -2.62335 15.2107C-3.07126 14.9863 -3.58049 14.8824 -3.86856 14.4427C-3.95777 14.3054 -4.01166 14.1403 -3.98936 13.9752C-4.02096 14.1366 -3.98007 14.311 -3.89458 14.4575C-3.47641 15.194 -2.33342 15.1606 -2.07881 16.0214C-1.97287 16.3127 -1.97659 16.6373 -2.09182 16.9045L-2.20333 17.1605L-1.93013 17.077C-1.367 16.975 -1.11981 17.6298 -1.15141 18.1288C-1.18114 18.9859 -1.3577 20.1231 -0.677486 20.8874C-0.452606 21.1564 -0.119932 21.3865 0.274074 21.431C0.601172 21.4774 0.90411 21.3531 1.18289 21.3568C1.70885 21.3939 2.10657 21.8744 2.64182 22.1118C3.24027 22.4031 3.9019 22.3474 4.48175 22.4624C4.72522 22.5107 4.93523 22.609 5.15082 22.7426C6.07822 23.3585 6.83835 24.568 7.99993 24.939C8.104 25.0411 8.21737 25.1301 8.33446 25.1988C8.89016 25.7739 9.49417 26.3026 10.1298 26.796C10.1298 26.809 10.1316 26.822 10.1316 26.835C10.1316 26.8758 10.1224 26.9148 10.1447 26.9611C10.1837 27.0465 10.3063 27.1096 10.3825 27.104C10.4234 27.1021 10.455 27.0854 10.481 27.065C10.5535 27.1188 10.6279 27.1726 10.7022 27.2264C10.8676 27.4138 11.0906 27.5733 11.3155 27.6587C11.6408 27.8813 11.9716 28.0983 12.3061 28.3117C12.334 28.3599 12.3637 28.41 12.3953 28.4564C12.5217 28.6419 12.8562 28.8311 12.9269 28.7013C12.9269 28.7013 12.9306 28.7031 12.9324 28.705C13.1053 28.9832 13.4454 29.2244 13.7762 29.3431C13.5959 29.3394 13.3952 29.3023 13.2391 29.3635C13.1666 29.3932 13.1053 29.4693 13.122 29.5491C13.1443 29.6622 13.2855 29.6975 13.3971 29.7179C13.9119 29.8125 14.4007 30.0778 14.7686 30.4618C14.8467 30.5434 14.921 30.6306 15.0177 30.6825C15.211 30.7846 15.4284 30.7252 15.6459 30.6825C15.644 30.7549 15.6459 30.831 15.6737 30.9107C15.7146 31.0332 15.8447 31.1834 15.986 31.2224C16.0752 31.189 16.1607 31.1556 16.2499 31.1222C16.471 31.5637 16.958 31.9589 17.4096 32.3225C17.4691 32.3707 17.536 32.4227 17.6029 32.4431C17.6642 32.4598 17.7144 32.4449 17.7609 32.4338C17.9374 32.3837 18.1121 32.3355 18.2868 32.2854L18.6213 32.6212C18.6715 32.5507 18.8407 32.5896 18.9336 32.6935C18.9819 32.7455 19.0061 32.8048 19.0339 32.8605C19.1603 33.1128 19.3982 33.3669 19.6695 33.5376C19.7123 33.5283 19.755 33.519 19.7941 33.5098C20.1453 33.647 20.491 33.9754 20.61 34.2889C20.6527 34.4021 20.6731 34.519 20.7661 34.6247C20.9408 34.8269 21.2307 34.8473 21.4593 34.9865C21.5169 35.0365 21.5727 35.0866 21.6303 35.1349C21.7362 35.2684 21.7641 35.4243 21.8217 35.569C21.8886 35.7359 22.0931 35.9567 22.2417 35.9307C22.2566 35.8213 22.3105 35.7322 22.3941 35.671C22.658 35.8324 22.9164 35.9771 23.158 36.1144C23.2323 36.1533 23.3048 36.196 23.3773 36.2387C23.3568 36.3593 23.3383 36.4817 23.3215 36.6023C23.3141 36.6616 23.3067 36.721 23.3327 36.7896C23.3568 36.8546 23.4126 36.9195 23.4684 36.9789C23.6839 37.2052 23.9702 37.3851 24.2341 37.4668C24.3047 37.4872 24.3753 37.5039 24.4422 37.5484C24.6281 37.6745 24.7433 37.9788 24.8976 37.9658C24.9124 37.8267 25.1094 37.8192 25.2785 37.9287C25.4458 38.04 25.5741 38.2274 25.6558 38.4092C25.7562 38.6262 25.8064 38.86 25.7339 39.0065C25.719 39.0418 25.6949 39.0715 25.6949 39.1178C25.6949 39.2013 25.7729 39.2959 25.8454 39.3219C25.916 39.3497 25.9774 39.3275 26.0368 39.3071C26.0387 39.4406 26.061 39.5853 26.1 39.73C25.4291 39.5557 24.7452 39.4443 24.0612 39.4035C23.3829 39.359 22.6934 39.3924 22.0354 39.4759C21.3868 39.5575 20.7735 39.6447 20.1992 39.5575C19.0061 39.3423 17.8278 38.617 16.8056 37.9157C15.7537 37.157 14.7984 36.2479 14.0029 35.2109C13.5848 34.6841 13.2632 34.1145 12.8432 33.5784C11.9734 32.4746 10.5703 31.8439 9.20982 31.9032C8.56677 31.8995 7.94789 32.2557 7.32343 32.1017C6.7287 31.9273 6.17858 31.4951 5.73254 31.0499C5.27162 30.5824 4.91665 30.0221 4.66575 29.4118C4.46874 28.9573 4.27918 28.4712 3.93907 28.0909C3.40381 27.4713 2.4411 27.1967 2.2218 26.3397C2.46341 27.36 3.72906 27.6271 4.1528 28.5491C4.31077 28.8367 4.42414 29.1483 4.5468 29.4563C5.02072 30.7085 5.98343 31.8773 7.26395 32.3485C7.92558 32.5451 8.58164 32.2056 9.23026 32.2242C10.4718 32.2112 11.7411 32.8234 12.4957 33.8474C12.8822 34.3743 13.2038 34.979 13.5996 35.5115C14.7928 37.1699 16.3688 38.565 18.1511 39.5482C20.6081 40.9915 21.5968 40.0751 24.0259 40.3033C24.9477 40.3905 25.8584 40.6131 26.7245 40.9563C26.7561 41.1529 26.6873 41.3329 26.6539 41.511C26.6204 41.7206 26.704 42.0712 26.8527 42.0471C26.7802 42.2642 26.7579 42.535 26.8081 42.8114C26.8546 43.086 26.9902 43.355 27.1705 43.4774C27.1872 43.5368 27.217 43.5943 27.256 43.6314C27.2672 43.6203 27.2802 43.6091 27.2913 43.5961C27.3434 43.8021 27.4084 44.008 27.4976 44.2139C27.6128 44.5107 27.8043 44.7964 28.0254 45.0617C27.9901 45.1749 27.9455 45.2825 27.9585 45.4197C27.9715 45.5477 28.0607 45.7203 28.1871 45.7908C28.2819 45.7796 28.3748 45.7685 28.4696 45.7592C28.57 46.2323 28.9101 46.722 29.174 47.197C29.2093 47.26 29.2465 47.3287 29.3004 47.3695C29.3487 47.4066 29.4007 47.414 29.4491 47.4233C29.6312 47.4511 29.8152 47.4826 29.9973 47.5197C30.0494 47.6682 30.0977 47.8166 30.1404 47.965C30.2203 47.9279 30.3542 48.0466 30.3857 48.182C30.4025 48.2507 30.395 48.3119 30.3913 48.3731C30.3746 48.6495 30.4508 48.9797 30.6013 49.2636C30.6441 49.2784 30.6868 49.2933 30.7259 49.3081C30.9656 49.6012 31.0957 50.0668 31.0046 50.3767C30.973 50.488 30.9173 50.5844 30.9191 50.7124C30.9191 50.8553 30.9916 50.9814 31.0585 51.1169C31.1292 51.2504 31.1942 51.3933 31.1905 51.5491C31.1849 51.6919 31.1199 51.7958 31.0492 51.8904C30.8058 51.6326 30.6051 51.4359 30.5995 51.4434C30.5382 51.5324 30.5958 51.6548 30.6274 51.7624C30.6924 51.9813 30.6199 52.2318 30.4508 52.3746C30.4025 52.4154 30.3449 52.4525 30.3263 52.5138C30.3133 52.5546 30.3226 52.601 30.3337 52.6436C30.3913 52.8625 30.5103 53.0647 30.5642 53.2855C30.6051 53.4543 30.6051 53.6287 30.6311 53.7994C30.6775 54.0925 30.8058 54.3745 30.9953 54.6082C30.7444 56.0664 30.4173 57.5746 30.2798 59.196C30.2761 59.2331 30.2742 59.2702 30.2724 59.3091L26.8044 58.4112C26.1632 58.2369 25.0462 58.0013 24.6727 57.4169C24.5928 57.2629 24.5872 57.1479 24.6002 56.9828C24.6206 56.7806 24.6838 56.5209 24.7284 56.2815C24.7991 55.9161 24.9459 55.1889 25.0184 54.8234C25.1689 54.0517 25.3678 53.2558 25.0425 52.3579C24.6522 51.2616 23.4851 50.6494 22.3198 50.5343C21.2028 50.3934 20.4929 50.9202 19.6863 49.6903C18.6436 48.0002 19.5302 47.1283 19.9279 45.7982C20.0673 45.3233 20.1565 44.8279 20.1918 44.3178C20.2067 44.0599 20.242 43.7724 20.0505 43.4923C19.8628 43.2103 19.5803 43.0025 19.335 42.7854C18.8388 42.3513 18.4262 41.8449 18.1418 41.3125C18.3983 41.8486 18.7905 42.3717 19.2774 42.83C19.519 43.0563 19.7848 43.2733 19.9316 43.5201C20.0859 43.7668 20.0357 44.0098 20.0078 44.2584C19.9427 44.7519 19.8257 45.2249 19.6603 45.6757C19.3387 46.6015 18.6083 47.3825 18.7793 48.5067C18.8983 49.2914 19.2941 50.2524 20.216 50.8052C20.6564 51.0556 21.1489 51.089 21.5652 51.0798C23.7378 51.0501 24.6615 52.011 24.2489 53.7419C24.0928 54.3893 23.8568 55.213 23.6877 55.8641C23.6263 56.0886 23.5464 56.3669 23.5018 56.6099C23.4795 56.7119 23.4721 56.8158 23.4758 56.9197L21.9184 55.9421C21.2976 55.5376 20.5468 55.1295 20.0152 54.6472C19.2681 53.9626 19.0711 53.0443 18.4689 52.2541C17.6772 51.1651 16.4655 50.2245 15.1534 49.6958C14.6441 49.4899 14.1535 49.3285 13.752 49.0799C12.3507 48.1987 13.0681 46.7276 13.2354 45.8C13.6034 44.2603 13.9992 42.7316 14.5512 41.2735C14.0475 40.6743 13.3896 40.1549 12.6685 39.7857C12.3173 39.6057 11.9511 39.461 11.6389 39.2273C11.3248 38.9973 11.0646 38.7041 10.8992 38.3925C11.2523 39.1123 11.8954 39.4722 12.6444 39.8413C13.3153 40.2068 13.9174 40.704 14.3746 41.2605C13.687 42.8467 13.1889 44.5293 12.7057 46.2082C12.5403 46.7962 12.347 47.3621 12.505 48.0707C12.7745 49.2191 13.9174 49.6847 15.0363 50.1392C16.419 50.7403 17.6215 51.8292 18.2236 53.0314C18.6994 54.0313 19.0265 54.8012 20.1621 55.597C20.2643 55.6694 20.3832 55.751 20.5133 55.84C20.3275 55.7584 20.1416 55.6805 19.9558 55.6137C19.6528 55.5042 19.3313 55.4133 19.0135 55.3651C18.4559 55.2798 17.9411 55.3354 17.4189 55.1981C16.5287 54.944 16.3354 54.0313 15.6979 53.4673C15.5083 53.2892 15.2611 53.1445 15.0158 53.0666C13.9881 52.8124 13.5699 53.3634 12.6258 52.3635C12.2336 51.9776 11.8192 51.3988 11.2207 51.3432C11.5051 51.3858 11.7634 51.5621 11.9623 51.7699C12.4604 52.28 12.8785 53.0462 13.6833 53.1927C14.0866 53.2762 14.5233 53.2206 14.8969 53.3263C15.1329 53.3912 15.3281 53.5378 15.4897 53.7233C16.051 54.4431 16.2703 55.3317 17.3668 55.7065C18.2311 55.994 18.9782 55.8679 19.8108 56.2667C20.8887 56.7528 22.0763 57.6098 23.2714 57.6729C23.6412 57.9178 23.9739 58.1385 24.2248 58.3074C24.2248 58.3074 24.2285 58.3036 24.2322 58.2962C24.3753 58.4205 24.5333 58.5355 24.708 58.6376C25.3882 59.0513 26.0628 59.2498 26.7691 59.4613C26.7691 59.4613 27.2226 59.5967 27.8154 59.7748C27.466 60.0308 27.0664 60.3257 27.0664 60.3257C26.862 60.4723 26.5256 60.7469 26.2636 60.6819C26.1985 60.6597 26.1632 60.6244 26.1167 60.5688C26.061 60.4983 25.9997 60.3981 25.9383 60.3109C25.8473 60.1755 25.6651 59.9028 25.5722 59.7673C25.3789 59.4798 25.1875 59.17 24.8437 58.9919C24.4236 58.773 23.9646 58.9455 23.6523 59.2739C23.3438 59.5781 23.3327 59.964 22.7733 59.8323C22.0224 59.6319 21.9722 59.0828 21.6712 58.5448C21.5634 58.3537 21.437 58.1719 21.292 58.0013C21.2196 57.9159 21.1415 57.8157 21.0133 57.7879C20.885 57.7582 20.7549 57.7824 20.6323 57.7916C20.3851 57.812 20.136 57.7824 19.9093 57.7044C20.1305 57.7916 20.3795 57.8324 20.6323 57.8232C20.7568 57.8176 20.885 57.8028 20.9928 57.8343C21.1025 57.8621 21.1638 57.9549 21.2307 58.0402C21.3627 58.2146 21.476 58.3983 21.5708 58.5893C21.7697 58.9789 21.8291 59.4501 22.2046 59.7451C22.4666 59.9529 22.8476 60.1272 23.2305 60.0122C23.4107 59.9529 23.5371 59.81 23.6338 59.6764C24.1411 58.99 24.6467 58.9993 25.0648 59.6672C25.2209 59.9176 25.4105 60.2478 25.5629 60.502C25.6149 60.591 25.6781 60.7023 25.7413 60.7914C25.7673 60.8303 25.7971 60.8637 25.8287 60.8953L25.167 61.0771C24.8994 61.1457 24.5983 61.2515 24.3288 61.2682C23.9479 61.2886 23.6263 61.0641 23.2472 61.0047C22.7342 60.9138 22.1655 60.9992 21.6972 61.244C21.5151 61.3386 21.3496 61.4425 21.1805 61.4908C20.5839 61.654 20.3163 60.9713 20.0803 60.63C19.7086 60.0345 19.348 59.4353 19.0451 58.8101C18.7477 58.7804 18.4355 58.8249 18.1549 58.9344C18.0173 58.9882 17.8872 59.0568 17.7441 59.0828C17.601 59.1088 17.4523 59.0995 17.3185 59.0531C17.6177 59.1681 17.8779 59.0791 18.166 58.9604C18.4355 58.8639 18.7254 58.8324 19.0005 58.862C19.309 59.5707 19.6918 60.2497 20.0766 60.9231C20.2122 61.1568 20.3349 61.3943 20.5839 61.5668C20.9891 61.8395 21.3998 61.628 21.8031 61.4203C22.3105 61.1754 22.922 61.1401 23.4238 61.3257C23.8345 61.4889 24.143 61.6262 24.6485 61.5205C24.695 61.5112 24.7489 61.4982 24.8083 61.4852C24.7377 61.5186 24.6708 61.552 24.6058 61.5891C24.5017 61.6485 24.3976 61.7227 24.3065 61.8061C24.1486 61.9527 24.0426 62.1308 23.8772 62.2514C23.5892 62.4499 23.2714 62.2254 22.9517 62.2514C22.8532 62.2551 22.751 62.2866 22.6692 62.3404C22.3495 62.5816 22.4146 62.884 21.8905 62.8673C21.6823 62.8691 21.411 62.819 21.253 62.9879C21.3329 62.9137 21.4463 62.8858 21.5559 62.8895C21.8254 62.8932 22.1544 63.0008 22.3886 62.7949C22.5094 62.6947 22.5967 62.5408 22.7175 62.4573C22.7937 62.4035 22.8829 62.3887 22.9777 62.3961C23.3252 62.4443 23.6431 62.6539 24.0148 62.4276C24.3065 62.2477 24.4459 61.975 24.7619 61.8395C25.1633 61.654 25.7004 61.5501 26.0015 61.1977C26.1632 61.1587 26.3082 61.1235 26.4178 61.0975L26.416 61.0901C26.4866 61.0845 26.5591 61.0715 26.6315 61.0492C26.9159 60.9658 27.1371 60.8174 27.3675 60.6615C27.3675 60.6615 28.0868 60.181 28.425 59.9529C29.1517 60.1699 29.923 60.4 30.2984 60.5131C30.6645 65.2103 33.9076 74.9405 36.0189 77.8642L37.5187 76.7511C37.5336 76.7622 37.5466 76.7734 37.5633 76.7826C37.7585 76.8754 37.9666 76.7214 38.1172 76.5749C38.7286 75.9831 39.3419 75.3449 39.6151 74.5305L39.6207 74.5453Z" fill="#2B1C07"/>
<path d="M12.3349 27.299C12.2624 27.1098 12.2327 26.8983 12.2531 26.6924C12.1899 26.6312 12.136 26.5588 12.0933 26.4753C12.0747 26.4364 12.0561 26.3956 12.0654 26.3399C12.0728 26.2861 12.1081 26.2267 12.1472 26.1748C12.2977 25.9782 12.5096 25.8706 12.6861 25.8409C12.7326 25.8335 12.7809 25.8297 12.8255 25.8056C12.885 25.7741 12.9352 25.7073 12.9779 25.6535C13.0225 25.5997 13.0616 25.5552 13.1136 25.5663C13.1248 25.635 13.1972 25.6646 13.279 25.6479C13.3515 25.609 13.4221 25.5589 13.4853 25.4995C13.5336 25.4346 13.5689 25.3567 13.5875 25.2825C13.6284 25.1341 13.608 24.9801 13.5188 24.9152C13.4983 24.8985 13.4742 24.8873 13.463 24.8651C13.4407 24.8261 13.4649 24.7538 13.5076 24.7167C13.5448 24.6851 13.5894 24.6814 13.6321 24.6796C13.6321 24.6721 13.6358 24.6666 13.6377 24.6592C13.621 24.6109 13.6098 24.5571 13.6135 24.494C13.6173 24.4236 13.6414 24.3475 13.6767 24.2844C13.7492 24.1564 13.8551 24.0729 13.9555 24.0228C13.9945 24.0488 14.0317 24.0766 14.0689 24.1026C14.0317 24.0711 14.0689 23.9876 14.1153 23.9357C14.1637 23.8837 14.2231 23.8466 14.2659 23.7891C14.3607 23.6611 14.3346 23.509 14.3402 23.3735C14.3477 23.2363 14.4592 23.0359 14.5558 23.0786C14.5372 22.9265 14.5688 22.7595 14.6283 22.6018C14.684 22.4553 14.7658 22.3161 14.8699 22.2215C14.8718 22.203 14.8736 22.1825 14.8755 22.164C14.9126 21.8227 14.9498 21.4813 14.9665 21.14C14.8773 21.0639 14.7547 21.0416 14.6766 20.9415C14.6246 20.8765 14.5967 20.756 14.6394 20.6706C14.7008 20.6372 14.7602 20.6057 14.8197 20.5723C14.6673 20.2996 14.6692 19.91 14.6766 19.5483C14.6766 19.5 14.6803 19.4481 14.7008 19.4073C14.7212 19.372 14.7528 19.3516 14.7807 19.3331C14.8941 19.2644 15.0056 19.1958 15.1152 19.1253C15.1041 19.0288 15.0911 18.9324 15.0743 18.8359C15.1394 18.8359 15.1933 18.7301 15.171 18.6467C15.1598 18.604 15.1357 18.5706 15.1134 18.5391C15.013 18.3925 14.9517 18.194 14.9591 17.9918C14.9814 17.9714 15.0056 17.9491 15.0279 17.9306C15.0873 17.6968 15.0483 17.4167 14.9275 17.2386C14.8848 17.1755 14.8272 17.1199 14.8123 17.0327C14.7807 16.8342 14.974 16.6635 14.9777 16.4632C14.9796 16.3296 14.8996 16.2387 14.8476 16.1348C14.7956 16.0309 14.7937 15.8398 14.8866 15.7879C14.9331 15.8176 14.9851 15.8343 15.0372 15.838C15.0427 15.7156 15.0613 15.6024 15.0948 15.5133C14.5688 15.146 13.1638 14.1647 13.1638 14.1647C12.9705 14.0292 12.7809 13.8975 12.6044 13.7491C12.4836 13.6879 12.3665 13.6137 12.2345 13.5821C12.1137 13.5525 11.9873 13.5599 11.8628 13.5506C11.3164 13.5117 10.8406 13.1685 10.4875 12.7566C10.4522 12.7844 10.4169 12.8104 10.3834 12.8382C10.311 12.7826 10.2385 12.7251 10.166 12.6694C10.1084 12.6249 10.0489 12.5767 10.0192 12.5099C9.98943 12.4431 10.0006 12.3503 10.0638 12.3077C10.1493 12.252 10.2533 12.3225 10.324 12.3911C10.5005 12.5637 10.692 12.7677 10.9429 12.7659C11.0172 12.7659 11.0934 12.7455 11.164 12.7622C11.2477 12.7807 11.309 12.8457 11.3777 12.8976C11.584 13.0516 11.7848 13.046 11.9929 13.033C11.926 12.9087 11.8795 12.777 11.8554 12.6434C11.8126 12.573 11.7699 12.5006 11.7234 12.4264C10.9113 12.1722 10.4708 11.3319 9.93554 10.7846C9.5341 10.3449 8.94866 10.3078 8.47288 9.94608C7.87258 9.47859 8.12906 8.78477 8.06587 8.15587C8.03799 7.99077 7.96737 7.84978 7.8317 7.75887C7.61797 7.61603 7.28529 7.58078 7.03997 7.44907C6.54189 7.20048 6.5995 6.56231 6.48427 6.09853C6.44153 5.90931 6.33931 5.73492 6.15903 5.6533C6.5549 5.798 6.57906 6.29703 6.67756 6.65136C6.88014 7.55481 7.43026 7.21903 8.03613 7.5882C8.17366 7.68838 8.28146 7.83679 8.33164 8.0019C8.52121 8.52876 8.23499 9.23556 8.74609 9.57876C9.05088 9.7717 9.43746 9.81993 9.79057 9.98133C9.99129 10.0741 10.1771 10.1947 10.3388 10.3301C10.4392 10.4099 10.534 10.5008 10.6269 10.5935C10.5767 10.5063 10.5303 10.4247 10.4912 10.3524C10.0582 9.56763 10.1846 8.9406 10.311 8.12063C10.4411 7.12813 10.0972 6.11523 9.40028 5.42883C8.85202 4.92423 6.0438 5.99279 6.27984 5.17467C6.21107 5.10418 5.52714 4.41407 5.52714 4.41407C5.37846 4.2638 5.23535 4.12096 5.13313 3.9206C5.10525 3.87051 5.08667 3.81857 5.0718 3.76477C5.06808 3.76477 5.06622 3.76663 5.06622 3.76663C5.03091 3.68871 4.98445 3.58482 4.93241 3.4698C4.62576 3.29542 4.4715 2.9077 4.2745 2.63499C4.12767 2.41794 3.90465 2.35301 3.72809 2.16193C3.50693 1.91706 3.61472 1.64992 3.60171 1.38278C3.59428 1.31228 3.56826 1.24735 3.51808 1.19726C3.43816 1.11935 3.31179 1.07668 3.22072 1.00062C3.03487 0.854063 3.06646 0.594344 3.03115 0.392135C3.01814 0.310509 2.98097 0.228884 2.91406 0.178796C3.06274 0.273407 3.0646 0.483036 3.0962 0.637012C3.15939 1.0303 3.37497 0.937545 3.60171 1.14161C3.65375 1.19541 3.69092 1.2659 3.70765 1.33825C3.77084 1.57386 3.65003 1.84285 3.8396 2.03022C3.95297 2.13596 4.0998 2.18976 4.23361 2.28623C4.30795 2.34188 4.37857 2.40867 4.43805 2.47731C4.47522 2.51998 4.51053 2.5645 4.54398 2.61088C4.5254 2.57006 4.51053 2.53296 4.49566 2.49957C4.34326 2.13596 4.40088 1.88737 4.46221 1.55716C4.52725 1.15645 4.41203 0.705653 4.15741 0.360598C3.94554 0.0897484 3.72809 -0.184812 3.87306 -0.528012C3.96412 -0.739497 4.12396 -0.863791 4.27821 -0.999216C4.72426 -1.38508 5.17402 -1.7691 5.65537 -2.10117C5.63865 -2.3108 5.57174 -2.52414 5.46209 -2.70965C5.33199 -2.90815 5.22792 -3.08995 5.27066 -3.32926C5.25579 -3.22352 5.27066 -3.11036 5.30969 -3.00833C5.34872 -2.90444 5.41934 -2.81725 5.47882 -2.72264C5.60148 -2.52785 5.67953 -2.30152 5.69998 -2.07519C5.2781 -1.75797 4.88595 -1.40178 4.49752 -1.03817C4.27821 -0.811848 3.80987 -0.513171 4.01802 -0.0920553C4.07749 0.0285282 4.17971 0.136126 4.27636 0.258565C4.5254 0.573937 4.67222 0.985779 4.67779 1.38278C4.68895 1.67403 4.56814 1.94674 4.63877 2.22872C4.68895 2.42907 4.81161 2.63685 4.90267 2.82793L5.13313 3.29728C5.15172 3.26945 5.17216 3.24162 5.19818 3.21751C5.25579 3.15814 5.33013 3.09507 5.38775 3.04312C5.55501 2.891 5.77246 2.70178 5.93601 2.54966C6.37276 2.14153 6.30585 1.76308 5.72228 1.48295C5.60891 1.42916 5.48439 1.35681 5.41377 1.23066C5.27252 0.959806 5.34872 0.651854 5.46395 0.425528C5.62935 0.102734 5.97132 -0.0104284 6.23151 -0.214494C6.35975 -0.312816 6.48056 -0.424124 6.59021 -0.546563C6.6441 -0.609637 6.70358 -0.667148 6.70915 -0.754338C6.71659 -0.839675 6.68685 -0.932431 6.66455 -1.02519C6.6218 -1.21256 6.61623 -1.40364 6.64782 -1.58173C6.62366 -1.40178 6.63853 -1.2107 6.68871 -1.0289C6.71287 -0.937996 6.75004 -0.84524 6.74632 -0.745062C6.74446 -0.644885 6.68128 -0.572535 6.62924 -0.50575C6.5233 -0.374035 6.40621 -0.253452 6.27984 -0.143999C5.923 0.158388 5.52342 0.275262 5.48253 0.865194C5.46581 1.30115 5.75388 1.25477 6.02522 1.44029C6.31515 1.6258 6.51029 1.94303 6.40807 2.28994C6.3263 2.57377 6.12186 2.75929 5.93787 2.94666C5.85052 3.03385 5.67396 3.21008 5.58661 3.29913C5.529 3.35664 5.46395 3.41786 5.4212 3.4698C5.38589 3.51247 5.3673 3.54401 5.35801 3.59595C5.34686 3.80187 5.59962 4.01336 5.73901 4.14507C5.73901 4.14507 6.27426 4.64039 6.44339 4.79808C6.67012 4.37511 7.0028 4.05046 7.32804 3.71097C8.44315 2.55708 9.56941 1.40133 10.7849 0.351321C10.7198 -0.140289 10.5247 -0.611493 10.2217 -0.999216C9.86491 -1.40364 9.57684 -1.78023 9.66233 -2.37387C9.63632 -2.11601 9.68278 -1.85258 9.79801 -1.62811C9.90952 -1.39993 10.1009 -1.23111 10.2664 -1.03632C10.6027 -0.639319 10.8276 -0.140287 10.9057 0.390281C9.84447 1.36979 8.86131 2.42907 7.89303 3.50134C7.34662 4.1562 6.90987 4.50682 6.73889 5.06522C6.64782 5.36575 9.04902 4.52538 9.69579 5.12829C10.3686 5.75533 10.7942 6.65322 10.8499 7.59377C10.9094 8.28202 10.625 8.99439 10.8351 9.62885C10.9875 10.0778 11.3257 10.51 11.5785 10.9163L12.0635 11.6602C12.1007 11.6027 12.1416 11.5471 12.1881 11.4933C12.3312 11.3207 12.5152 11.1297 12.662 10.9757C13.082 10.5249 13.6265 9.95721 14.0354 9.50827C15.1245 8.30243 14.9164 7.43423 13.3738 7.07619C13.0764 7.0094 12.7456 6.89995 12.5505 6.63837C12.1565 6.0707 12.3219 5.29155 12.5988 4.69234C12.9965 3.83341 13.87 3.38447 14.5242 2.75743C14.8476 2.45504 15.1487 2.12483 15.4219 1.77236C15.5575 1.59426 15.7044 1.42359 15.7099 1.21396C15.7192 1.00618 15.6319 0.800264 15.5668 0.590634C15.4349 0.167664 15.4014 -0.286844 15.4683 -0.728367C15.4237 -0.284989 15.4795 0.160243 15.6282 0.566518C15.7007 0.768727 15.8047 0.970938 15.8066 1.21211C15.8122 1.45327 15.6542 1.65919 15.526 1.84656C15.2658 2.21759 14.974 2.56821 14.658 2.89286C13.7641 3.80558 12.74 4.29348 12.6936 5.72194C12.6936 6.77194 13.437 6.5048 14.1581 6.80534C14.554 6.95375 14.8885 7.20048 15.0873 7.52513C15.2732 7.36188 15.4962 7.16523 15.4962 7.16523C15.6022 7.07062 15.7936 6.9185 15.7954 6.77009C15.7917 6.73299 15.7787 6.71072 15.7564 6.68104C15.7267 6.64394 15.6839 6.60127 15.6449 6.5586C15.5854 6.49553 15.4683 6.36938 15.4089 6.30816C15.2843 6.17459 15.1487 6.04102 15.1022 5.83881C15.0446 5.59208 15.2007 5.36204 15.4182 5.22847C15.6207 5.0949 15.827 5.12644 15.8345 4.81292C15.8345 4.38995 15.552 4.30832 15.3104 4.09127C15.2249 4.01336 15.1468 3.92802 15.0762 3.83341C15.0409 3.78518 15 3.73323 15.0037 3.66088C15.0056 3.58853 15.0372 3.52175 15.0595 3.45682C15.1041 3.32696 15.1245 3.18968 15.1152 3.05982C15.1301 3.18782 15.1152 3.3251 15.0762 3.45867C15.0557 3.52546 15.0297 3.59224 15.0316 3.65346C15.0316 3.71468 15.0706 3.75735 15.1078 3.80187C15.1803 3.88906 15.262 3.96884 15.3494 4.03933C15.526 4.18589 15.7657 4.26566 15.8698 4.49569C15.9423 4.65709 15.9813 4.87971 15.8679 5.07264C15.8122 5.16354 15.7174 5.21734 15.6356 5.25444C15.2026 5.45665 15.1375 5.72936 15.4312 6.02061C15.5408 6.13007 15.6895 6.26364 15.801 6.37309C15.84 6.41019 15.8902 6.45657 15.9293 6.49739C15.946 6.51408 15.9608 6.53449 15.972 6.55489L16.1597 6.21726C16.2322 6.07998 16.3307 5.92971 16.3772 5.78687C16.4403 5.58466 16.3679 5.38987 16.3902 5.18024C16.4143 4.8964 16.5388 4.59958 16.7321 4.3714C16.8083 4.28235 16.8845 4.20444 16.9347 4.1191C17.1038 3.81486 16.7823 3.60337 16.6355 3.44198C16.3734 3.18226 16.1095 2.9281 15.8215 2.70178C15.8475 2.53853 15.9144 2.37527 16.011 2.23614C16.0593 2.1675 16.1132 2.10443 16.1467 2.03022C16.1802 1.95601 16.195 1.87439 16.1913 1.80018C16.2099 1.97271 16.1263 2.10257 16.024 2.24541C15.9367 2.38084 15.8772 2.53296 15.8568 2.68323C16.1857 2.92068 16.4905 3.19524 16.7916 3.4698C16.8957 3.56627 17.0035 3.65532 17.0592 3.80744C17.1466 4.05232 16.9775 4.25267 16.812 4.44561C16.6132 4.69419 16.5073 5.01699 16.5351 5.30639C16.563 5.54385 16.5927 5.72194 16.4664 5.98351C16.4552 6.00763 16.4403 6.03546 16.4255 6.06514C16.4534 6.03175 16.4794 5.99835 16.5091 5.96682C16.5556 5.91673 16.6076 5.86849 16.6652 5.82768C16.7656 5.75718 16.8734 5.71823 16.9589 5.64217C17.1038 5.5086 17.0295 5.31381 17.0871 5.14499C17.102 5.09305 17.1336 5.0411 17.1726 5.00215C17.3436 4.85373 17.4941 4.92052 17.5592 4.63854C17.5889 4.52723 17.6001 4.37696 17.7116 4.30832C17.6614 4.34357 17.6317 4.40294 17.6168 4.46045C17.5815 4.60515 17.5926 4.79251 17.4514 4.89826C17.3826 4.95391 17.2878 4.98359 17.2284 5.0411C17.1893 5.07635 17.1689 5.12273 17.1596 5.17467C17.1373 5.36575 17.2023 5.55683 17.0314 5.73492C16.8957 5.8722 16.7321 5.92044 16.6169 6.07627C16.4626 6.27291 16.3344 6.55118 16.1058 6.67733C16.0631 6.76081 16.024 6.83502 15.9943 6.89067C15.9943 6.89067 15.9924 6.89067 15.9906 6.89067C15.9776 6.92777 15.9608 6.96488 15.9385 7.00198C15.8549 7.14668 15.7453 7.24871 15.6319 7.35817C15.6319 7.35817 15.3828 7.59562 15.2044 7.76444C15.2974 8.01674 15.3159 8.30429 15.2323 8.62151C15.0483 9.3413 14.5391 9.89414 14.0782 10.4358C13.8607 10.6918 13.4203 11.2039 13.2028 11.4617C13.0616 11.6305 12.898 11.8105 12.7884 11.957C12.7029 12.0758 12.6545 12.1611 12.6397 12.2891C12.6341 12.7863 13.3106 13.1555 13.6823 13.3948C13.6823 13.3948 14.4685 13.8864 15.1189 14.2927C15.1357 13.8307 15.2007 13.3725 15.3438 12.918C15.5464 12.2427 15.9051 11.6176 16.379 11.0963C16.5965 10.8477 16.9719 10.5546 17.1373 10.3431C17.2469 10.2021 17.2897 10.0834 17.325 9.90341C17.3938 9.4656 17.39 8.87381 17.5294 8.41188C17.6428 7.96851 17.8194 7.54182 18.0498 7.14668C18.0294 7.06877 18.0089 6.99085 17.9885 6.91479C17.9773 6.87027 17.9643 6.82389 17.968 6.77751C17.9736 6.71258 18.0071 6.65322 18.0442 6.59941C18.2022 6.36938 18.4215 6.18758 18.5795 5.95754C18.6241 5.89261 18.6836 5.81284 18.7579 5.82582C18.7858 5.82953 18.8118 5.84809 18.8304 5.87035C18.8787 5.92415 18.8936 6.00021 18.8787 6.07256C18.9103 6.04102 18.9438 6.00763 18.9772 5.97609C19.2671 5.70524 19.6221 5.45109 19.9548 5.26372C19.9771 5.25073 19.9994 5.23775 20.0217 5.22476C20.005 5.11345 19.9511 5.00586 19.899 4.87229C19.5719 4.15064 19.6221 3.25461 20.0291 2.54966C19.9195 2.28808 19.8656 2.0061 19.873 1.72412C19.8693 1.38463 19.9994 1.02474 20.1276 0.724204C20.2261 0.470051 20.3377 0.201057 20.2317 -0.0401106C20.1183 -0.272002 19.8173 -0.431544 19.6073 -0.591085C19.3582 -0.769178 19.0999 -0.899038 18.81 -1.00107C18.5665 -1.08641 18.3007 -1.3016 18.3732 -1.60028C18.4159 -1.83032 18.6037 -2.0251 18.5535 -2.25885C18.5237 -2.42025 18.3044 -2.39984 18.2282 -2.5297C18.1465 -2.65028 18.0796 -2.81725 18.0108 -2.94711L17.8045 -3.36451L18.0405 -2.96566L18.1595 -2.7653C18.2189 -2.67255 18.2617 -2.56309 18.3602 -2.51301C18.4308 -2.48147 18.52 -2.47219 18.5795 -2.40912C18.7077 -2.2774 18.6817 -2.06777 18.626 -1.90452C18.5721 -1.74683 18.4698 -1.5539 18.5553 -1.40364C18.6408 -1.24595 18.9289 -1.18844 19.1036 -1.13093C19.4865 -1.00849 19.8173 -0.795151 20.1555 -0.585521C20.477 -0.398152 20.6945 -0.0493879 20.6332 0.351321C20.5978 0.687101 20.4492 0.985779 20.3841 1.29188C20.3302 1.53861 20.3414 1.80018 20.4101 2.04135C20.6016 1.84285 20.819 1.66847 21.0309 1.5182C21.4955 1.18613 21.9936 0.911572 22.3764 0.499733C22.6757 0.17694 22.8466 -0.270147 23.2221 -0.531721C23.6217 -0.834108 24.2926 -1.02333 24.2981 -1.6077C24.2647 -1.88597 24.0249 -2.03067 23.8856 -2.26813C23.8001 -2.39799 23.7592 -2.58721 23.7982 -2.74304C23.8298 -2.89702 23.8781 -3.02317 23.8651 -3.14746C23.8428 -3.42017 23.657 -3.64835 23.5473 -3.89879C23.4841 -4.03051 23.4432 -4.1715 23.4154 -4.31434C23.3057 -4.88572 23.4562 -5.50905 23.8242 -5.9617C23.3949 -5.37362 23.3261 -4.56664 23.6477 -3.95073C23.7778 -3.69658 23.9822 -3.47582 24.0212 -3.16787C24.0603 -2.89887 23.867 -2.61133 24.0565 -2.38129C24.2164 -2.15682 24.5082 -1.95647 24.5435 -1.64295C24.5862 -1.29604 24.3762 -0.986229 24.1309 -0.769178C23.9041 -0.574389 23.6402 -0.444531 23.4209 -0.264583C23.0883 0.0044117 22.9582 0.44037 22.6757 0.761308C21.7706 1.83172 20.1853 2.20275 20.3023 3.87793C20.3079 4.21371 20.4956 4.52167 20.6183 4.83518C20.9472 4.56619 21.2297 4.21 21.5513 3.90391C21.739 3.72396 21.9304 3.55143 22.1293 3.38818C24.0249 1.85213 25.9987 1.08225 27.4799 -0.346208C27.5115 -0.474213 27.6602 -1.07157 27.6602 -1.07157C27.6918 -1.20885 27.7624 -1.44259 27.6788 -1.56132C27.6546 -1.58915 27.6305 -1.59842 27.5952 -1.60956C27.5506 -1.62069 27.4874 -1.62996 27.4316 -1.63924C27.3461 -1.65408 27.1751 -1.6819 27.0896 -1.69675C26.9094 -1.72828 26.7179 -1.75055 26.5618 -1.88412C26.3704 -2.04551 26.3667 -2.31822 26.4689 -2.55196C26.56 -2.77829 26.7495 -2.87476 26.573 -3.12706C26.3258 -3.46098 26.0452 -3.35709 25.7181 -3.38306C25.6028 -3.39234 25.4876 -3.4146 25.3742 -3.44799C25.3185 -3.46469 25.2534 -3.48139 25.2144 -3.53889C25.1754 -3.5964 25.1605 -3.66875 25.1419 -3.73183C25.1029 -3.86169 25.0397 -3.98042 24.9579 -4.07688C25.0453 -3.98598 25.114 -3.86911 25.1586 -3.73925C25.1809 -3.67432 25.1977 -3.60754 25.2348 -3.5593C25.2702 -3.51107 25.3278 -3.49994 25.3835 -3.48695C25.495 -3.46098 25.6084 -3.44614 25.7236 -3.44428C25.9559 -3.43501 26.2013 -3.51478 26.4224 -3.39419C26.5767 -3.31071 26.7384 -3.15859 26.757 -2.93783C26.7625 -2.83394 26.7161 -2.73562 26.6696 -2.65585C26.428 -2.23845 26.5321 -1.98429 26.9465 -1.93049C27.1008 -1.91009 27.3015 -1.89154 27.4595 -1.87298C27.5134 -1.86742 27.5821 -1.86185 27.6379 -1.85072C27.6621 -1.84701 27.6844 -1.83959 27.7067 -1.83032L27.6676 -2.20876C27.6491 -2.36088 27.6435 -2.53712 27.597 -2.67811C27.532 -2.87476 27.3573 -2.98606 27.255 -3.16416C27.1082 -3.40162 27.0395 -3.70957 27.0692 -4.00453C27.0803 -4.11955 27.0989 -4.22715 27.0896 -4.32362C27.0543 -4.66311 26.6622 -4.63899 26.4466 -4.6798C26.0786 -4.72804 25.7106 -4.7707 25.3408 -4.77812C25.2683 -4.92283 25.2274 -5.08979 25.2274 -5.25861C25.2274 -5.34023 25.2367 -5.42186 25.22 -5.50163C25.2051 -5.57954 25.1698 -5.65375 25.1215 -5.7094C25.2367 -5.58511 25.2441 -5.43299 25.2423 -5.25861C25.2479 -5.10092 25.2887 -4.94509 25.3575 -4.81337C25.7701 -4.82265 26.1808 -4.7874 26.5916 -4.7503C26.7347 -4.73731 26.8759 -4.72989 27.0097 -4.64456C27.2253 -4.50356 27.2012 -4.2457 27.177 -3.9934C27.1547 -3.67988 27.2569 -3.36266 27.4483 -3.15117C27.61 -2.9805 27.7383 -2.85806 27.7847 -2.57608C27.7884 -2.55011 27.794 -2.52043 27.7996 -2.48703C27.8015 -2.5297 27.8052 -2.57237 27.8107 -2.61318C27.82 -2.67997 27.8368 -2.75046 27.8591 -2.81539C27.9018 -2.93041 27.9687 -3.02502 27.9966 -3.13633C28.0393 -3.32741 27.8646 -3.43686 27.8145 -3.60382C27.7977 -3.65391 27.7922 -3.71328 27.8033 -3.76708C27.8609 -3.98598 28.0226 -4.02309 27.913 -4.28466C27.8739 -4.3904 27.794 -4.5147 27.8479 -4.63528C27.8256 -4.57777 27.8349 -4.51284 27.8591 -4.45904C27.9148 -4.32362 28.0319 -4.18263 27.9762 -4.01566C27.9501 -3.93033 27.8907 -3.85056 27.8739 -3.77079C27.8628 -3.7207 27.8739 -3.67061 27.8944 -3.62609C27.9873 -3.46098 28.1527 -3.34967 28.1137 -3.1085C28.0821 -2.91928 27.9743 -2.78385 27.9687 -2.59278C27.9557 -2.34604 28.0096 -2.05108 27.8944 -1.81547C27.9055 -1.72457 27.9167 -1.64295 27.926 -1.58173C27.926 -1.58173 27.9241 -1.58173 27.9223 -1.58173C27.9334 -1.54463 27.9408 -1.50567 27.9446 -1.463C27.9594 -1.29975 27.9278 -1.15319 27.8962 -1.00107C27.8962 -1.00107 27.8646 -0.843385 27.8368 -0.70796C27.9315 -0.813703 28.0245 -0.9213 28.1137 -1.03446C28.6341 -1.68562 29.0652 -2.47219 29.3719 -3.48139C29.5187 -3.93589 29.6953 -4.4071 29.7882 -4.86903C29.87 -5.29385 29.8904 -5.77248 29.5745 -6.08043C29.3998 -6.24554 29.1452 -6.34386 29.0151 -6.59245C28.9426 -6.73344 28.924 -6.90967 28.976 -7.06365C29.1898 -7.65915 29.9759 -7.86878 29.9648 -8.53848C29.935 -8.98928 29.7919 -9.48646 29.6674 -9.92427C29.463 -10.6125 29.0652 -11.221 28.4055 -11.516C27.9799 -11.7293 27.5115 -11.8722 27.1157 -12.1449C26.5209 -12.5548 26.1437 -13.2635 26.1251 -14C26.1678 -13.2709 26.5562 -12.5901 27.1565 -12.2061C27.5598 -11.9501 28.0263 -11.8258 28.4594 -11.6254C29.1637 -11.3397 29.6079 -10.7016 29.8458 -9.99105C29.9945 -9.51799 30.1525 -9.05421 30.2008 -8.55147C30.225 -8.28433 30.0986 -7.98751 29.922 -7.78901C29.7009 -7.50146 29.3775 -7.30111 29.2567 -6.98388C29.173 -6.62769 29.5912 -6.54421 29.8012 -6.33273C29.9053 -6.23997 29.9889 -6.12495 30.0558 -6.00066C30.3383 -5.39774 30.1581 -4.69093 29.9852 -4.07688C29.7789 -3.35338 29.5689 -2.63916 29.2511 -1.94533C29.2381 -1.91751 29.2251 -1.89154 29.2121 -1.86371C29.6024 -2.20505 29.9648 -2.39984 30.6301 -2.41097C30.9665 -2.42581 31.1431 -2.55011 31.4311 -2.73748C31.5928 -2.83765 31.7843 -2.9267 31.985 -2.92484C32.0909 -2.92484 32.1783 -2.90444 32.2526 -2.8896C32.5927 -2.782 32.8771 -3.09737 32.9458 -3.42388C33.0164 -3.72997 32.9718 -4.04906 32.9737 -4.36814C32.9756 -4.53696 32.996 -4.72618 33.1094 -4.89129C33.1986 -5.01744 33.3435 -5.1139 33.4959 -5.11947C33.4179 -5.45896 33.5907 -5.84483 33.9048 -6.00251C34.1427 -6.13608 34.4178 -6.20472 34.5646 -6.4496C34.6111 -6.52566 34.6352 -6.61842 34.6185 -6.70746C34.6408 -6.62027 34.6203 -6.52381 34.5795 -6.44218C34.3694 -6.0322 33.7468 -6.02292 33.6279 -5.54801C33.5777 -5.38661 33.587 -5.21037 33.6558 -5.06753L33.7227 -4.93025L33.5721 -4.9692C33.2636 -5.01187 33.1447 -4.64827 33.1744 -4.37742C33.2116 -3.91178 33.3343 -3.29587 32.983 -2.86548C32.8659 -2.71336 32.6912 -2.58165 32.4775 -2.5464C32.3009 -2.51301 32.1318 -2.57422 31.9813 -2.56495C31.695 -2.53156 31.4906 -2.26071 31.2044 -2.11972C30.8847 -1.94719 30.5242 -1.96203 30.2119 -1.88412C30.08 -1.85072 29.9685 -1.79321 29.8551 -1.7153C29.3663 -1.35726 28.9816 -0.681988 28.3571 -0.451951C28.3033 -0.394442 28.2438 -0.342498 28.1806 -0.301685C27.8925 0.0248184 27.5766 0.327205 27.242 0.611041C27.242 0.618462 27.242 0.625882 27.242 0.631448C27.242 0.653709 27.2495 0.674116 27.2383 0.700088C27.2179 0.748322 27.1547 0.785423 27.1119 0.783568C27.0896 0.783568 27.0729 0.774293 27.058 0.765018C27.019 0.796555 26.98 0.826237 26.9428 0.857774C26.8573 0.963517 26.7384 1.05627 26.6194 1.10822C26.4485 1.23622 26.2738 1.36237 26.0972 1.48666C26.0823 1.51449 26.0693 1.54046 26.0526 1.56829C25.9875 1.67218 25.811 1.78349 25.7701 1.71485C25.7701 1.71485 25.7701 1.71485 25.7682 1.71485C25.6809 1.87068 25.5025 2.00981 25.3241 2.08216C25.4226 2.0766 25.5303 2.05062 25.6158 2.08216C25.6567 2.097 25.6902 2.13596 25.6846 2.18048C25.6753 2.2417 25.5991 2.26582 25.5396 2.27881C25.2609 2.34188 25.0025 2.49771 24.8111 2.71662C24.7702 2.763 24.733 2.81309 24.681 2.84277C24.5788 2.90399 24.458 2.87616 24.339 2.85761C24.3428 2.89657 24.3428 2.93738 24.3297 2.9819C24.3093 3.04869 24.2424 3.13403 24.1662 3.15814C24.116 3.14145 24.0696 3.1266 24.0194 3.10991C23.9097 3.35664 23.6532 3.58111 23.4172 3.79074C23.3856 3.81857 23.3503 3.84825 23.315 3.86124C23.2815 3.87237 23.2537 3.86495 23.2295 3.86124C23.131 3.83898 23.0362 3.81486 22.9396 3.7926L22.7667 3.98368C22.7389 3.94657 22.6459 3.97255 22.5976 4.03191C22.5716 4.06159 22.5604 4.09498 22.5474 4.12467C22.4842 4.26566 22.3616 4.4085 22.2166 4.50868C22.1925 4.50497 22.1701 4.50126 22.1478 4.49755C21.9601 4.58103 21.7799 4.76654 21.7222 4.94093C21.7018 5.004 21.6925 5.06707 21.646 5.12829C21.555 5.24331 21.3989 5.26186 21.2762 5.34163C21.2465 5.36946 21.2167 5.39914 21.187 5.42697C21.1331 5.50303 21.1219 5.58837 21.0941 5.66814C21.0625 5.76089 20.9547 5.88519 20.8748 5.87406C20.8636 5.8147 20.832 5.76832 20.7856 5.73678C20.6462 5.83139 20.5086 5.91673 20.3804 5.9965C20.3414 6.02061 20.3023 6.04473 20.2633 6.06885C20.2763 6.13378 20.2893 6.20056 20.3023 6.26549C20.3079 6.29703 20.3135 6.32857 20.3023 6.36752C20.2912 6.40277 20.2615 6.43987 20.2336 6.47327C20.1221 6.60127 19.9715 6.70701 19.8284 6.7571C19.7912 6.77009 19.7522 6.78122 19.7169 6.80719C19.6184 6.87954 19.5627 7.04836 19.479 7.04465C19.4679 6.96859 19.3601 6.97044 19.2709 7.03352C19.1817 7.09845 19.1166 7.20419 19.0776 7.30437C19.0274 7.42495 19.007 7.55296 19.0497 7.63087C19.059 7.64942 19.072 7.66612 19.0739 7.69024C19.0739 7.73661 19.0348 7.78856 18.9977 7.80525C18.9605 7.82195 18.9252 7.81082 18.8936 7.80154C18.8954 7.87389 18.8862 7.95366 18.8694 8.03344C19.23 7.92213 19.5998 7.84607 19.9715 7.80711C20.3395 7.7663 20.7168 7.76815 21.0755 7.79783C21.4305 7.82752 21.7669 7.85905 22.0772 7.79783C22.7221 7.65313 23.3466 7.23016 23.8837 6.82389C24.4375 6.38608 24.9356 5.86849 25.3445 5.28413C25.5601 4.9873 25.7199 4.67008 25.9374 4.36769C26.3834 3.74622 27.1324 3.36963 27.8758 3.36963C28.2252 3.35293 28.5709 3.53102 28.9073 3.4327C29.2269 3.32325 29.515 3.07466 29.7473 2.82236C29.9871 2.55708 30.1655 2.24356 30.2881 1.90407C30.3848 1.65177 30.4759 1.38278 30.6524 1.16758C30.9293 0.81696 31.446 0.646288 31.5445 0.173229C31.4367 0.735334 30.7546 0.909718 30.5465 1.42173C30.4684 1.58313 30.4127 1.7538 30.3532 1.92448C30.1246 2.61644 29.6302 3.27687 28.9444 3.56442C28.5895 3.68686 28.2233 3.51804 27.8721 3.54401C27.1956 3.56627 26.5191 3.92988 26.1344 4.50497C25.9374 4.79994 25.7757 5.13757 25.5731 5.43625C24.9635 6.36753 24.1402 7.16523 23.1923 7.74218C21.8895 8.58627 21.3301 8.11135 20.0124 8.29316C19.5125 8.3618 19.0218 8.5065 18.5591 8.71242C18.546 8.82001 18.5888 8.91648 18.6111 9.01295C18.6353 9.12611 18.5962 9.31904 18.5163 9.30977C18.5609 9.42664 18.5795 9.5732 18.5591 9.72532C18.5405 9.87559 18.4736 10.0259 18.3769 10.0963C18.3695 10.1297 18.3546 10.1613 18.3342 10.1817C18.3286 10.1761 18.3212 10.1706 18.3137 10.1631C18.2914 10.2763 18.2598 10.3895 18.2171 10.5045C18.1613 10.6677 18.0647 10.8291 17.9495 10.9775C17.9718 11.0388 17.9978 11.0963 17.9941 11.1705C17.9903 11.241 17.9457 11.3374 17.8788 11.3782C17.8268 11.3745 17.7766 11.3708 17.7246 11.369C17.6818 11.6287 17.5071 11.9032 17.377 12.1685C17.3585 12.2038 17.3399 12.2427 17.312 12.265C17.286 12.2854 17.2581 12.2928 17.2321 12.2965C17.1336 12.3151 17.0351 12.3373 16.9366 12.3633C16.9124 12.4449 16.8901 12.5266 16.8697 12.6101C16.8251 12.5915 16.7544 12.6601 16.7414 12.7343C16.734 12.7715 16.7396 12.8048 16.7414 12.8382C16.7563 12.9885 16.7228 13.1703 16.6485 13.328C16.6262 13.3373 16.6039 13.3465 16.5816 13.354C16.4589 13.5191 16.3976 13.7751 16.4552 13.942C16.4757 14.0014 16.5072 14.0534 16.5091 14.122C16.5128 14.1999 16.4757 14.2704 16.4422 14.3446C16.4069 14.4188 16.3753 14.4986 16.3809 14.5821C16.3883 14.66 16.4255 14.7138 16.4664 14.7657C16.5927 14.6192 16.6968 14.5079 16.7005 14.5116C16.7358 14.5579 16.708 14.6266 16.6931 14.686C16.6634 14.8065 16.708 14.9401 16.8046 15.0143C16.8325 15.0347 16.8641 15.0551 16.8752 15.0867C16.8827 15.1089 16.879 15.133 16.8752 15.1572C16.8492 15.2777 16.7897 15.3909 16.7656 15.5115C16.747 15.6042 16.7526 15.6989 16.7414 15.7935C16.7228 15.9549 16.6596 16.1107 16.563 16.2424C16.734 17.029 16.9496 17.8415 17.0629 18.7227C17.0648 18.7431 17.0667 18.7635 17.0704 18.7839L18.9363 18.2126C19.282 18.1031 19.8823 17.9473 20.0719 17.6208C20.1128 17.5354 20.1109 17.4724 20.0998 17.3833C20.083 17.2739 20.044 17.1347 20.0124 17.0049C19.9641 16.8082 19.8674 16.4149 19.821 16.2183C19.7206 15.8027 19.5924 15.3724 19.7485 14.877C19.9344 14.2704 20.5551 13.9105 21.187 13.8196C21.791 13.7157 22.1906 13.9866 22.5995 13.2965C23.1254 12.3522 22.6218 11.8977 22.3746 11.1835C22.2872 10.9293 22.2278 10.6603 22.1962 10.3839C22.1813 10.2448 22.1553 10.0889 22.2538 9.93124C22.3486 9.77355 22.4991 9.65297 22.6273 9.53053C22.8875 9.28194 23.0994 8.99625 23.2407 8.69943C23.1143 8.9981 22.9136 9.29122 22.6589 9.55279C22.5326 9.68265 22.3932 9.80509 22.3188 9.94423C22.2408 10.0815 22.2742 10.2132 22.2947 10.3486C22.3411 10.6158 22.4173 10.8699 22.5177 11.1111C22.7147 11.6064 23.131 12.0146 23.0641 12.6305C23.0176 13.0609 22.8262 13.5933 22.3374 13.9161C22.1032 14.0626 21.8356 14.0923 21.6089 14.0979C20.4269 14.1331 19.9455 14.6785 20.2131 15.6098C20.3135 15.9586 20.4622 16.4001 20.57 16.7507C20.609 16.8713 20.6592 17.0216 20.6889 17.1514C20.7038 17.2071 20.7094 17.2627 20.7112 17.3202L21.5345 16.7507C21.8635 16.5151 22.2612 16.2758 22.54 15.9994C22.9303 15.6098 23.0158 15.1034 23.3243 14.66C23.7294 14.0478 24.3669 13.5079 25.0676 13.1889C25.3389 13.0646 25.6028 12.9644 25.8166 12.8197C26.5581 12.3058 26.1325 11.5229 26.0191 11.0221C25.7812 10.1928 25.5303 9.37099 25.194 8.58998C25.4541 8.25234 25.7998 7.95366 26.1827 7.73476C26.3704 7.62902 26.5655 7.54183 26.7309 7.4064C26.8964 7.27283 27.0302 7.10772 27.1138 6.93334C26.9391 7.33405 26.5971 7.54554 26.1994 7.76444C25.8426 7.97964 25.5266 8.26347 25.2906 8.57885C25.7032 9.42479 26.0136 10.3301 26.3184 11.2317C26.4224 11.5471 26.5414 11.8513 26.4726 12.2409C26.3537 12.8716 25.7422 13.1536 25.1456 13.4282C24.4078 13.7881 23.7796 14.4095 23.4804 15.0792C23.2444 15.6339 23.0864 16.0625 22.488 16.5225C22.4341 16.5633 22.3709 16.6116 22.3021 16.6635C22.4006 16.6134 22.501 16.5671 22.5995 16.5281C22.7612 16.4613 22.9359 16.4038 23.1068 16.3704C23.4079 16.311 23.6886 16.3277 23.9711 16.2406C24.4505 16.081 24.5323 15.5801 24.8669 15.2573C24.9654 15.1553 25.0973 15.0718 25.2293 15.0236C25.7831 14.8603 26.0229 15.1516 26.5135 14.5839C26.7179 14.365 26.9279 14.0385 27.2532 13.9958C27.1008 14.0255 26.9633 14.1276 26.8592 14.2463C26.6009 14.5357 26.3908 14.9624 25.9578 15.0625C25.7404 15.1182 25.5006 15.0978 25.3017 15.1646C25.1754 15.2054 25.0713 15.2907 24.9877 15.3946C24.6996 15.8009 24.6011 16.2888 24.0138 16.5188C23.551 16.6969 23.1403 16.645 22.698 16.8824C22.1218 17.1718 21.4974 17.6672 20.8487 17.7302C20.6536 17.8731 20.477 18.0011 20.3451 18.0975C20.3451 18.0975 20.3451 18.0957 20.3414 18.092C20.267 18.1625 20.1834 18.2293 20.0905 18.2886C19.7299 18.5298 19.3675 18.6541 18.9884 18.7858C18.9884 18.7858 18.7449 18.8711 18.4271 18.9806C18.6222 19.1123 18.849 19.2626 18.849 19.2626C18.9642 19.3368 19.1538 19.4778 19.295 19.437C19.3303 19.4221 19.3489 19.4036 19.3712 19.372C19.3991 19.3331 19.4307 19.2774 19.4623 19.2273C19.5088 19.1513 19.6017 18.9991 19.6481 18.9231C19.7466 18.7617 19.8433 18.5892 20.0254 18.4834C20.2484 18.3536 20.5031 18.437 20.6796 18.6077C20.8543 18.7654 20.8692 18.975 21.1703 18.8915C21.5736 18.7635 21.5884 18.4649 21.739 18.1643C21.7929 18.0567 21.8579 17.9547 21.9323 17.8601C21.9694 17.8119 22.0103 17.7562 22.0791 17.7376C22.1478 17.7191 22.2185 17.7284 22.2854 17.7302C22.421 17.7358 22.5549 17.7135 22.6775 17.6653C22.5586 17.7172 22.4248 17.7469 22.2872 17.7469C22.2185 17.7469 22.1497 17.7414 22.0902 17.7618C22.0308 17.7803 22.001 17.8304 21.9657 17.8805C21.8988 17.9788 21.8412 18.0808 21.7947 18.1884C21.6962 18.4055 21.6739 18.6634 21.4769 18.8322C21.3394 18.9509 21.1368 19.0566 20.9249 19.0028C20.8264 18.975 20.754 18.899 20.6982 18.8303C20.4046 18.4686 20.1295 18.4871 19.9195 18.86C19.8414 18.9991 19.7448 19.1847 19.6686 19.3275C19.6426 19.3776 19.611 19.4388 19.5794 19.4889C19.5664 19.5112 19.5515 19.5297 19.5348 19.5483L19.899 19.6317C20.0459 19.6633 20.2131 19.7134 20.36 19.7152C20.5681 19.7152 20.7372 19.5872 20.9417 19.5464C21.2186 19.4833 21.5308 19.5167 21.791 19.6392C21.8932 19.6855 21.9843 19.7393 22.0791 19.7597C22.408 19.834 22.5363 19.4574 22.6571 19.2644C22.8448 18.9324 23.0269 18.5966 23.1775 18.2497C23.3392 18.2274 23.5101 18.2422 23.6644 18.296C23.7406 18.322 23.8131 18.3573 23.8911 18.3665C23.9692 18.3777 24.051 18.3665 24.1216 18.3406C23.9618 18.4092 23.8187 18.3684 23.6588 18.3109C23.5101 18.2645 23.3503 18.2534 23.2016 18.2775C23.0511 18.6708 22.8578 19.0492 22.6645 19.424C22.5957 19.5557 22.5344 19.6874 22.4043 19.7857C22.1906 19.9434 21.962 19.8395 21.7371 19.7356C21.4546 19.615 21.1219 19.6095 20.8525 19.7226C20.6332 19.821 20.4696 19.9044 20.1908 19.8581C20.1648 19.8544 20.1351 19.8488 20.1035 19.8432C20.1425 19.8599 20.1797 19.8766 20.2168 19.8952C20.2763 19.9249 20.3339 19.962 20.3841 20.0065C20.4733 20.0825 20.5347 20.1771 20.6276 20.2384C20.7893 20.3404 20.9565 20.2105 21.1312 20.2161C21.1851 20.2161 21.2409 20.2309 21.2874 20.2569C21.4676 20.3812 21.4398 20.5463 21.7241 20.5259C21.8375 20.5222 21.9843 20.487 22.0735 20.576C22.0289 20.537 21.9657 20.5259 21.9062 20.5296C21.7594 20.5389 21.5829 20.6038 21.4509 20.4981C21.3821 20.4461 21.332 20.3645 21.265 20.3218C21.2223 20.294 21.174 20.2885 21.1219 20.294C20.9342 20.3293 20.767 20.4499 20.5588 20.3367C20.3953 20.2458 20.3135 20.1011 20.1369 20.0343C19.9139 19.9434 19.6203 19.8989 19.4456 19.7152C19.3564 19.6967 19.2764 19.6818 19.217 19.6707V19.667C19.1779 19.667 19.1389 19.6614 19.098 19.6503C18.94 19.6113 18.8174 19.5353 18.6891 19.4574C18.6891 19.4574 18.2859 19.2125 18.0963 19.0975C17.706 19.2329 17.2915 19.3776 17.0908 19.4462C17.0035 22.0119 15.4739 27.3843 14.3941 29.0261L13.5504 28.4566C13.5504 28.4566 13.5355 28.4696 13.5262 28.4752C13.4221 28.5308 13.305 28.451 13.2195 28.375C12.872 28.067 12.5226 27.735 12.3553 27.2972L12.3349 27.299Z" fill="#2B1C07"/>
</svg>
