<svg width="375" height="44" viewBox="0 0 375 44" fill="none" xmlns="http://www.w3.org/2000/svg">
<g clip-path="url(#clip0_16163_47314)">
<rect width="375" height="44" fill="#FFEFD1"/>
<g filter="url(#filter0_dii_16163_47314)">
<rect width="1572" height="18" transform="translate(-544.023 18.4922) rotate(1.80289)" fill="#D9971C"/>
<path d="M-43.9205 46.2417L-43.7418 40.5645L-41.5349 40.6339C-40.8313 40.6561 -40.2968 40.7983 -39.9315 41.0606C-39.5661 41.3176 -39.3918 41.7126 -39.4086 42.2456C-39.4159 42.4802 -39.4704 42.6839 -39.5719 42.8568C-39.6732 43.0244 -39.8187 43.1558 -40.0085 43.2513C-40.1929 43.3468 -40.4161 43.4012 -40.678 43.4143L-40.6775 43.3983C-40.204 43.4452 -39.8459 43.5952 -39.6031 43.8483C-39.3548 44.0962 -39.2369 44.4201 -39.2495 44.8199C-39.2661 45.3477 -39.4651 45.7363 -39.8464 45.9857C-40.2223 46.23 -40.7541 46.3413 -41.4417 46.3197L-43.9205 46.2417ZM-42.6739 45.2884L-41.4665 45.3264C-41.1733 45.3356 -40.9369 45.2844 -40.7573 45.1727C-40.5722 45.0557 -40.4759 44.8774 -40.4683 44.6375C-40.4608 44.3976 -40.5457 44.2135 -40.7231 44.0852C-40.895 43.9517 -41.1275 43.8804 -41.4207 43.8711L-42.6281 43.8331L-42.6739 45.2884ZM-42.6004 42.9536L-41.6409 42.9838C-41.3424 42.9932 -41.1033 42.942 -40.9237 42.8303C-40.7388 42.7187 -40.6429 42.5536 -40.636 42.3351C-40.6286 42.1005 -40.7112 41.9272 -40.8837 41.815C-41.0508 41.6977 -41.2889 41.6342 -41.5981 41.6244L-42.5576 41.5942L-42.6004 42.9536ZM-38.1384 46.4237L-37.9597 40.7465L-36.7443 40.7847L-36.9127 46.1341L-37.5624 45.4173L-34.2761 45.5207L-34.3083 46.5442L-38.1384 46.4237ZM-33.8658 46.5582L-31.6401 40.9454L-30.2008 40.9907L-28.3326 46.7323L-29.5959 46.6926L-29.9737 45.4721L-32.1566 45.4034L-32.6104 46.5977L-33.8658 46.5582ZM-31.7813 44.4147L-30.2781 44.462L-30.9608 42.2474L-31.7813 44.4147ZM-25.3582 46.954C-25.8753 46.9377 -26.3327 46.8059 -26.7305 46.5586C-27.1229 46.3115 -27.4268 45.9631 -27.6421 45.5134C-27.852 45.0639 -27.9473 44.53 -27.9278 43.9117C-27.9088 43.3093 -27.7831 42.7903 -27.5506 42.3548C-27.318 41.9139 -26.9952 41.5772 -26.5824 41.3447C-26.1695 41.1123 -25.6912 41.0046 -25.1475 41.0217C-24.4065 41.045 -23.8366 41.2471 -23.4377 41.6278C-23.0333 42.0034 -22.7832 42.5315 -22.6872 43.2122L-23.9521 43.2204C-24.0048 42.8612 -24.1347 42.5797 -24.3417 42.3757C-24.5486 42.1664 -24.8279 42.0563 -25.1797 42.0452C-25.4836 42.0356 -25.7446 42.1075 -25.9629 42.2607C-26.1811 42.4139 -26.3509 42.6353 -26.472 42.925C-26.5932 43.2146 -26.66 43.5567 -26.6724 43.9512C-26.685 44.351 -26.6399 44.6992 -26.5372 44.9959C-26.429 45.2875 -26.2707 45.5139 -26.0624 45.6752C-25.854 45.8365 -25.6032 45.9218 -25.31 45.931C-24.9262 45.9431 -24.627 45.8458 -24.4124 45.6391C-24.1923 45.4273 -24.0496 45.1303 -23.9842 44.7481L-22.7143 44.8361C-22.8035 45.2976 -22.9625 45.6874 -23.1913 46.0057C-23.4201 46.324 -23.7159 46.5655 -24.0786 46.7302C-24.4359 46.895 -24.8625 46.9696 -25.3582 46.954ZM-21.7759 46.9387L-21.5972 41.2615L-20.3818 41.2998L-20.4598 43.7785L-18.3188 41.3647L-16.9035 41.4093L-19.0692 43.8463L-16.9542 47.0905L-18.3376 47.0469L-19.8945 44.6368L-20.5079 45.3058L-20.5605 46.977L-21.7759 46.9387ZM-14.1237 47.1796L-13.945 41.5024L-10.027 41.6257L-10.0592 42.6492L-13.4335 42.543L-12.7399 41.8685L-12.8217 44.4672L-13.4768 43.9183L-10.2464 44.02L-10.2781 45.0275L-13.5085 44.9258L-12.8202 44.4192L-12.9083 47.2178L-14.1237 47.1796ZM-9.24738 47.3331L-9.06868 41.6559L-6.58191 41.7341C-6.16612 41.7472 -5.80848 41.8279 -5.50899 41.976C-5.20417 42.1244 -4.97316 42.3291 -4.81597 42.5901C-4.6586 42.8459 -4.58537 43.147 -4.59628 43.4935C-4.6045 43.7547 -4.66777 43.9848 -4.78609 44.1839C-4.89908 44.3831 -5.05354 44.5436 -5.24948 44.6655C-5.44008 44.7876 -5.65849 44.8607 -5.90471 44.885L-5.92643 44.8123C-5.54795 44.8242 -5.26269 44.9159 -5.07066 45.0874C-4.87846 45.2535 -4.77432 45.5049 -4.75823 45.8416L-4.66565 47.4773L-5.90503 47.4383L-5.96368 45.9957C-5.97279 45.7766 -6.03706 45.6145 -6.15647 45.5094C-6.27039 45.3991 -6.47128 45.3394 -6.75914 45.3304L-7.96654 45.2923L-8.03198 47.3713L-9.24738 47.3331ZM-7.93458 44.2769L-6.79914 44.3126C-6.50595 44.3218 -6.2773 44.2623 -6.11318 44.1341C-5.94357 44.0007 -5.85482 43.8087 -5.84693 43.5582C-5.83888 43.3023 -5.91546 43.1078 -6.07669 42.9747C-6.23775 42.8362 -6.47553 42.762 -6.79004 42.7521L-7.8855 42.7176L-7.93458 44.2769ZM-3.5121 47.5136L-3.3334 41.8364L-2.118 41.8747L-2.2967 47.5518L-3.5121 47.5136ZM-1.06425 47.5906L-0.885545 41.9135L1.07348 41.9751C1.99569 42.0041 2.69687 42.2743 3.17702 42.7857C3.65734 43.2917 3.88315 44.0005 3.85446 44.9121C3.82594 45.8183 3.55874 46.5089 3.05288 46.9839C2.55235 47.459 1.84898 47.6823 0.942761 47.6538L-1.06425 47.5906ZM0.183369 46.6054L0.927001 46.6288C1.47606 46.6461 1.88581 46.5123 2.15624 46.2273C2.43217 45.9372 2.57987 45.4829 2.59933 44.8646C2.6188 44.2462 2.49988 43.7862 2.24257 43.4846C1.99076 43.1779 1.59033 43.0159 1.04127 42.9986L0.297636 42.9752L0.183369 46.6054ZM4.07508 47.7524L6.30077 42.1397L7.74006 42.185L9.60834 47.9266L8.34497 47.8868L7.96718 46.6663L5.78426 46.5976L5.33046 47.7919L4.07508 47.7524ZM6.15955 45.6089L7.66281 45.6562L6.98014 43.4417L6.15955 45.6089ZM11.1871 47.9763L11.2565 45.7694L9.39074 42.2369L10.7341 42.2792L11.9015 44.6051L13.2049 42.357L14.5482 42.3993L12.4719 45.8076L12.4025 48.0145L11.1871 47.9763Z" fill="#151207"/>
<path d="M19.2862 48.3593C18.7958 48.3438 18.3773 48.248 18.0306 48.0716C17.684 47.8953 17.4168 47.6548 17.2289 47.35C17.0411 47.0453 16.9402 46.69 16.9263 46.284L18.1515 46.2665C18.1764 46.4914 18.2344 46.6854 18.3253 46.8483C18.4217 47.0061 18.5513 47.1275 18.714 47.2127C18.8821 47.298 19.0887 47.3446 19.3339 47.3523C19.5365 47.3587 19.7078 47.34 19.8479 47.2964C19.9934 47.253 20.1049 47.1844 20.1826 47.0908C20.2604 46.9919 20.3016 46.8705 20.3061 46.7266C20.3103 46.5933 20.2819 46.4777 20.221 46.3797C20.1602 46.2764 20.0404 46.1819 19.8617 46.0963C19.6831 46.0053 19.4192 45.9142 19.0699 45.8232C18.5883 45.696 18.2005 45.5584 17.9063 45.4104C17.6175 45.2626 17.4097 45.0826 17.283 44.8705C17.1564 44.6531 17.0982 44.3845 17.1082 44.0646C17.119 43.7235 17.211 43.4275 17.3843 43.1769C17.563 42.9264 17.8145 42.7342 18.1388 42.6003C18.4632 42.4665 18.8466 42.4065 19.2891 42.4204C19.7582 42.4352 20.1527 42.5303 20.4727 42.7058C20.7926 42.8813 21.0387 43.1158 21.2109 43.4094C21.3884 43.7031 21.49 44.0371 21.5155 44.4115L20.2981 44.4372C20.2883 44.2394 20.2404 44.0672 20.1543 43.9204C20.0684 43.7683 19.9494 43.6498 19.7973 43.565C19.6452 43.4802 19.4599 43.4343 19.2414 43.4274C18.9642 43.4187 18.7437 43.4731 18.5799 43.5907C18.4214 43.7084 18.3391 43.8659 18.3329 44.0632C18.3285 44.2018 18.3595 44.3201 18.4258 44.4183C18.4976 44.5112 18.615 44.595 18.778 44.6695C18.9464 44.7441 19.1842 44.8183 19.4914 44.892C20.0158 45.0152 20.4273 45.1643 20.7259 45.3391C21.0301 45.5087 21.2426 45.7075 21.3635 45.9354C21.4844 46.1633 21.5403 46.4212 21.5312 46.7091C21.5202 47.0609 21.4199 47.3646 21.2304 47.6201C21.0465 47.8704 20.787 48.0597 20.4522 48.1879C20.1226 48.3162 19.734 48.3734 19.2862 48.3593ZM21.8703 48.3125L24.096 42.6998L25.5353 42.7451L27.4036 48.4867L26.1402 48.447L25.7624 47.2265L23.5795 47.1578L23.1257 48.3521L21.8703 48.3125ZM23.9548 46.1691L25.4581 46.2164L24.7754 44.0018L23.9548 46.1691ZM28.1781 48.5111L28.3568 42.8339L29.5722 42.8722L29.4039 48.2215L28.7541 47.5047L32.0405 47.6082L32.0083 48.6317L28.1781 48.5111ZM32.789 48.6562L32.9677 42.979L36.9177 43.1034L36.8855 44.1269L34.1509 44.0408L34.1098 45.3442L36.7485 45.4272L36.7168 46.4347L34.0781 46.3517L34.0366 47.671L36.8352 47.7591L36.803 48.7826L32.789 48.6562Z" fill="white"/>
<path d="M54.0326 49.3237L54.2113 43.6465L56.4182 43.716C57.1219 43.7381 57.6563 43.8803 58.0216 44.1426C58.387 44.3996 58.5613 44.7946 58.5446 45.3277C58.5372 45.5622 58.4827 45.7659 58.3813 45.9388C58.2799 46.1064 58.1344 46.2379 57.9446 46.3333C57.7602 46.4289 57.537 46.4832 57.2752 46.4963L57.2757 46.4803C57.7491 46.5272 58.1072 46.6772 58.35 46.9303C58.5984 47.1783 58.7162 47.5021 58.7036 47.9019C58.687 48.4297 58.488 48.8183 58.1067 49.0677C57.7308 49.312 57.199 49.4234 56.5114 49.4017L54.0326 49.3237ZM55.2792 48.3704L56.4866 48.4084C56.7798 48.4177 57.0162 48.3664 57.1958 48.2547C57.3809 48.1378 57.4772 47.9594 57.4848 47.7195C57.4923 47.4796 57.4074 47.2955 57.23 47.1672C57.0581 47.0337 56.8256 46.9624 56.5324 46.9532L55.325 46.9152L55.2792 48.3704ZM55.3527 46.0356L56.3122 46.0658C56.6108 46.0752 56.8498 46.024 57.0294 45.9123C57.2144 45.8007 57.3103 45.6357 57.3171 45.4171C57.3245 45.1825 57.2419 45.0092 57.0694 44.897C56.9023 44.7797 56.6642 44.7162 56.355 44.7065L55.3955 44.6763L55.3527 46.0356ZM59.8147 49.5057L59.9934 43.8285L61.2088 43.8668L61.0405 49.2161L60.3907 48.4993L63.6771 48.6028L63.6448 49.6263L59.8147 49.5057ZM64.0873 49.6402L66.313 44.0274L67.7523 44.0727L69.6206 49.8144L68.3572 49.7746L67.9794 48.5541L65.7965 48.4854L65.3427 49.6797L64.0873 49.6402ZM66.1718 47.4967L67.675 47.544L66.9924 45.3294L66.1718 47.4967ZM72.5949 50.036C72.0778 50.0198 71.6204 49.888 71.2226 49.6407C70.8302 49.3935 70.5264 49.0451 70.3111 48.5955C70.1011 48.146 70.0059 47.6121 70.0253 46.9937C70.0443 46.3913 70.17 45.8724 70.4025 45.4368C70.6351 44.9959 70.9579 44.6592 71.3708 44.4267C71.7836 44.1943 72.2619 44.0866 72.8056 44.1037C73.5466 44.1271 74.1165 44.3291 74.5154 44.7098C74.9198 45.0854 75.17 45.6135 75.2659 46.2942L74.001 46.3024C73.9483 45.9433 73.8184 45.6617 73.6114 45.4578C73.4046 45.2485 73.1252 45.1383 72.7734 45.1272C72.4696 45.1177 72.2085 45.1895 71.9902 45.3427C71.772 45.4959 71.6023 45.7173 71.4811 46.007C71.3599 46.2967 71.2931 46.6387 71.2807 47.0332C71.2681 47.433 71.3132 47.7813 71.4159 48.078C71.5241 48.3695 71.6824 48.596 71.8908 48.7573C72.0991 48.9186 72.3499 49.0038 72.6431 49.013C73.0269 49.0251 73.3261 48.9278 73.5407 48.7211C73.7608 48.5093 73.9036 48.2123 73.969 47.8302L75.2388 47.9182C75.1496 48.3796 74.9906 48.7694 74.7618 49.0877C74.533 49.406 74.2373 49.6475 73.8746 49.8122C73.5172 49.977 73.0906 50.0516 72.5949 50.036ZM76.1773 50.0207L76.356 44.3435L77.5714 44.3818L77.4933 46.8606L79.6343 44.4467L81.0496 44.4913L78.8839 46.9284L80.9989 50.1725L79.6156 50.129L78.0586 47.7188L77.4453 48.3878L77.3927 50.059L76.1773 50.0207ZM83.8294 50.2616L84.0081 44.5844L87.9262 44.7077L87.894 45.7312L84.5196 45.625L85.2132 44.9505L85.1314 47.5492L84.4763 47.0003L87.7067 47.102L87.675 48.1095L84.4446 48.0078L85.1329 47.5012L85.0448 50.2999L83.8294 50.2616ZM88.7057 50.4151L88.8844 44.7379L91.3712 44.8162C91.787 44.8293 92.1446 44.9099 92.4441 45.0581C92.749 45.2064 92.98 45.4111 93.1372 45.6722C93.2945 45.9279 93.3678 46.229 93.3568 46.5755C93.3486 46.8367 93.2854 47.0668 93.167 47.2659C93.054 47.4651 92.8996 47.6257 92.7036 47.7476C92.513 47.8696 92.2946 47.9428 92.0484 47.967L92.0267 47.8943C92.4052 47.9062 92.6904 47.9979 92.8825 48.1694C93.0747 48.3355 93.1788 48.5869 93.1949 48.9236L93.2875 50.5593L92.0481 50.5203L91.9894 49.0777C91.9803 48.8587 91.9161 48.6966 91.7967 48.5914C91.6827 48.4811 91.4818 48.4214 91.194 48.4124L89.9866 48.3744L89.9211 50.4534L88.7057 50.4151ZM90.0185 47.3589L91.154 47.3946C91.4472 47.4039 91.6758 47.3443 91.8399 47.2161C92.0096 47.0827 92.0983 46.8907 92.1062 46.6402C92.1142 46.3843 92.0377 46.1898 91.8764 46.0567C91.7154 45.9182 91.4776 45.844 91.1631 45.8341L90.0676 45.7997L90.0185 47.3589ZM94.441 50.5956L94.6197 44.9184L95.8351 44.9567L95.6564 50.6339L94.441 50.5956ZM96.8889 50.6727L97.0676 44.9955L99.0266 45.0571C99.9488 45.0862 100.65 45.3564 101.13 45.8677C101.61 46.3738 101.836 47.0825 101.808 47.9941C101.779 48.9003 101.512 49.5909 101.006 50.0659C100.505 50.5411 99.8021 50.7644 98.8959 50.7358L96.8889 50.6727ZM98.1365 49.6874L98.8801 49.7108C99.4292 49.7281 99.8389 49.5943 100.109 49.3093C100.385 49.0192 100.533 48.5649 100.552 47.9466C100.572 47.3282 100.453 46.8683 100.196 46.5667C99.9439 46.2599 99.5435 46.0979 98.9944 46.0806L98.2508 46.0572L98.1365 49.6874ZM102.028 50.8344L104.254 45.2217L105.693 45.267L107.561 51.0086L106.298 50.9688L105.92 49.7484L103.737 49.6796L103.284 50.874L102.028 50.8344ZM104.113 48.691L105.616 48.7383L104.933 46.5237L104.113 48.691ZM109.14 51.0583L109.21 48.8514L107.344 45.3189L108.687 45.3612L109.855 47.6871L111.158 45.439L112.501 45.4813L110.425 48.8897L110.356 51.0966L109.14 51.0583Z" fill="#151207"/>
<path d="M117.239 51.4413C116.749 51.4259 116.33 51.33 115.984 51.1537C115.637 50.9773 115.37 50.7368 115.182 50.4321C114.994 50.1274 114.893 49.772 114.879 49.366L116.105 49.3486C116.13 49.5735 116.187 49.7674 116.278 49.9303C116.375 50.0881 116.504 50.2096 116.667 50.2947C116.835 50.3801 117.042 50.4266 117.287 50.4343C117.49 50.4407 117.661 50.4221 117.801 50.3785C117.946 50.335 118.058 50.2665 118.136 50.1729C118.214 50.0739 118.255 49.9525 118.259 49.8086C118.263 49.6753 118.235 49.5597 118.174 49.4617C118.113 49.3584 117.994 49.264 117.815 49.1783C117.636 49.0873 117.372 48.9963 117.023 48.9052C116.541 48.778 116.154 48.6404 115.859 48.4924C115.571 48.3446 115.363 48.1646 115.236 47.9526C115.11 47.7351 115.051 47.4665 115.061 47.1467C115.072 46.8055 115.164 46.5096 115.337 46.2589C115.516 46.0084 115.768 45.8162 116.092 45.6824C116.416 45.5485 116.8 45.4885 117.242 45.5025C117.711 45.5172 118.106 45.6123 118.426 45.7878C118.746 45.9633 118.992 46.1978 119.164 46.4914C119.342 46.7851 119.443 47.1192 119.469 47.4935L118.251 47.5192C118.241 47.3215 118.194 47.1492 118.107 47.0024C118.021 46.8503 117.902 46.7318 117.75 46.647C117.598 46.5622 117.413 46.5163 117.194 46.5095C116.917 46.5007 116.697 46.5551 116.533 46.6727C116.375 46.7905 116.292 46.9479 116.286 47.1452C116.282 47.2838 116.313 47.4021 116.379 47.5003C116.451 47.5933 116.568 47.677 116.731 47.7515C116.9 47.8262 117.137 47.9003 117.445 47.974C117.969 48.0973 118.38 48.2463 118.679 48.4211C118.983 48.5908 119.196 48.7895 119.317 49.0175C119.438 49.2454 119.493 49.5033 119.484 49.7911C119.473 50.1429 119.373 50.4466 119.184 50.7021C119 50.9524 118.74 51.1417 118.405 51.2699C118.076 51.3983 117.687 51.4554 117.239 51.4413ZM119.823 51.3946L122.049 45.7818L123.488 45.8271L125.357 51.5688L124.093 51.529L123.716 50.3085L121.533 50.2398L121.079 51.4341L119.823 51.3946ZM121.908 49.2511L123.411 49.2984L122.729 47.0838L121.908 49.2511ZM126.131 51.5931L126.31 45.9159L127.525 45.9542L127.357 51.3036L126.707 50.5868L129.994 50.6902L129.961 51.7137L126.131 51.5931ZM130.742 51.7383L130.921 46.0611L134.871 46.1854L134.839 47.2089L132.104 47.1228L132.063 48.4262L134.702 48.5092L134.67 49.5167L132.031 49.4337L131.99 50.753L134.788 50.8411L134.756 51.8646L130.742 51.7383Z" fill="white"/>
</g>
<path d="M19.2422 21.3226C19.7711 21.2819 20.3 21.2412 20.8696 21.2412C21.4392 21.2412 22.0902 21.3226 22.8226 21.4854C23.5549 21.6481 24.0838 21.9329 24.4907 22.3398C24.9382 22.7873 25.1417 23.3162 25.1417 23.8859C25.1417 24.4555 24.9789 25.0251 24.6941 25.554C24.3686 26.1236 23.9211 26.6932 23.2701 27.2628C21.4392 28.931 19.0794 29.7854 16.1907 29.7854C15.4176 29.7854 14.726 29.704 14.1564 29.5413C13.5461 29.3785 13.1799 29.2564 12.9765 29.1344C12.8137 29.0123 12.5696 28.8496 12.3255 28.6462C12.0814 28.4427 12 28.3207 12.1627 28.3207C12.2441 28.3207 12.4475 28.402 12.773 28.5241C13.1392 28.6462 13.7902 28.7275 14.726 28.7275C15.6618 28.7275 16.6789 28.6055 17.7775 28.402C18.876 28.1986 19.7711 27.8731 20.5441 27.4256C21.3172 26.978 21.9275 26.4898 22.375 25.9609C22.9039 25.3099 23.1887 24.6589 23.1887 23.9672C23.1887 23.601 23.1074 23.2349 22.9039 22.8687C22.7005 22.5025 22.3343 22.2177 21.724 22.0143C21.1544 21.8109 20.6255 21.7295 20.1373 21.7295C19.649 21.7295 19.1608 21.7295 18.5505 21.8109C17.9402 21.8515 17.2078 22.055 16.2721 22.3805C15.3363 22.706 14.726 23.1128 14.4412 23.5197C14.1157 23.9672 13.8716 24.3741 13.6275 24.781C13.424 25.1471 13.1799 25.554 12.9765 26.0015C12.7324 26.4491 12.5696 26.7746 12.4475 26.978C12.3662 27.1814 12.2441 27.2628 12.1627 27.2628C12.0814 27.2628 12 27.2221 12 27.1001C12 26.6525 12.5289 25.554 13.6275 23.8859C14.726 22.2177 15.7431 20.7123 16.7603 19.4104C17.7368 18.1084 18.3471 17.4574 18.5098 17.4574C18.5912 17.4574 18.6726 17.4574 18.7132 17.5795C18.7539 17.6608 18.7946 17.7422 18.7946 17.8236C17.0451 20.0207 15.9873 21.3633 15.6211 21.8109C20.7476 20.9564 23.8804 19.7359 24.9789 18.1491C25.1417 17.8643 25.2231 17.6202 25.2231 17.376C25.2231 17.1319 25.101 16.9285 24.8976 16.7251C24.45 16.3182 23.5956 16.1148 22.375 16.1148C21.1544 16.1148 19.527 16.3996 17.5333 16.9692C15.5397 17.5388 14.1564 18.1491 13.3426 18.8408C13.0985 19.0442 13.0172 19.1662 13.0985 19.2883C13.1799 19.4104 13.1799 19.4917 13.1392 19.4917C13.0985 19.4917 13.0578 19.4917 12.9765 19.451C12.6917 19.2883 12.4882 19.0849 12.4069 18.8001C12.3255 18.5153 12.2848 18.3525 12.2848 18.2305C12.2848 18.1084 12.2848 18.027 12.4069 17.9457C13.0172 17.0912 14.4005 16.3182 16.5976 15.6265C18.7946 14.9349 20.4628 14.6094 21.6427 14.6094C23.9618 14.6094 25.4265 15.0162 26.0368 15.7893C26.2809 16.0741 26.403 16.4403 26.403 16.7657C26.403 17.2947 26.1181 17.8643 25.4672 18.4746C24.0431 19.8172 21.9681 20.7937 19.3235 21.404L19.2422 21.3226Z" fill="#151207"/>
<path d="M26.6932 27.7138C26.6932 28.08 26.8966 28.2835 27.2628 28.2835C27.4662 28.2835 27.8324 28.2021 28.3207 27.9986C28.8089 27.8359 29.4192 27.429 30.1922 26.8187C30.9653 26.2084 31.4942 25.7609 31.7383 25.4761C32.0231 25.1913 32.1452 25.0692 32.2265 25.0692C32.2672 25.0692 32.3079 25.1099 32.3079 25.1913C32.3079 25.2727 32.2672 25.3133 32.1859 25.3947C31.0059 26.6153 29.9888 27.4697 29.2158 28.0393C28.4427 28.5683 27.7104 28.8124 27.0187 28.8124C26.4491 28.8124 26.0422 28.6903 25.8388 28.4055C25.6354 28.1207 25.5133 27.8359 25.5133 27.4697C25.5133 26.8594 25.7574 26.0864 26.205 25.1913C25.3912 26.0457 24.9844 26.3305 24.9844 26.0457C24.9844 26.005 25.0251 25.9236 25.1064 25.8423C25.7574 25.3133 26.4898 24.5403 27.2221 23.5232C28.6055 21.733 29.704 20.1055 30.477 18.7629C30.6398 18.478 30.6805 18.3153 30.6805 18.1526C30.6805 17.8678 30.5177 17.7864 30.1922 17.9898C29.826 18.1526 29.6226 18.2339 29.6226 18.1932C29.6226 18.1526 29.6226 18.1119 29.704 18.0305C30.0295 17.7864 30.5177 17.5423 31.0873 17.3388C31.6976 17.1354 32.1452 17.0133 32.552 16.9727C33.1216 16.9727 33.4471 17.1761 33.4471 17.5016C33.4471 17.705 33.3658 17.9898 33.1623 18.356C32.9589 18.7222 32.3893 19.4138 31.4128 20.431C30.4363 21.4888 29.8667 22.1398 29.6633 22.3839C28.1986 24.2962 27.3035 25.7609 26.8966 26.9001C26.8153 27.1849 26.7339 27.429 26.7339 27.6325L26.6932 27.7138Z" fill="#151207"/>
<path d="M39.0181 25.3549C39.0181 25.3549 38.6927 25.7211 38.5299 25.9245C38.3672 26.1279 38.1637 26.4127 37.9196 26.7789C37.6755 27.1451 37.5534 27.4299 37.5534 27.7147C37.5534 27.9995 37.6755 28.0809 37.8789 28.0809C38.0824 28.0809 38.4485 27.9588 38.9368 27.674C39.9132 27.1044 41.0118 26.2907 42.1917 25.1515C42.3137 25.0294 42.4358 24.9887 42.4765 25.0701V25.1515C42.4765 25.1515 42.4765 25.2328 42.3951 25.3142C39.9946 27.5926 38.2451 28.7319 37.1466 28.7319C36.8211 28.7319 36.5363 28.6098 36.3328 28.4064C36.1294 28.2029 36.0074 27.9181 36.0074 27.6333C36.0074 27.3485 36.1294 26.901 36.3735 26.2907C35.7226 27.0637 35.0716 27.674 34.3392 28.1216C33.6069 28.5284 33.0373 28.7725 32.6304 28.7725C32.2235 28.7725 31.8574 28.6505 31.5725 28.4064C31.2877 28.1622 31.125 27.8368 31.125 27.5113C31.125 26.4534 31.5726 25.4769 32.5083 24.4598C33.2 23.7274 34.0951 23.1985 35.1123 22.873C35.5598 22.7103 36.048 22.6289 36.4549 22.6289C36.8618 22.6289 37.3093 22.751 37.7569 22.9951C38.1637 23.2392 38.4485 23.524 38.5299 23.8902C38.9368 23.8902 39.2623 24.0529 39.425 24.3377C39.425 24.3784 39.4657 24.4598 39.4657 24.5412C39.4657 24.6225 39.425 24.7446 39.3029 24.8667C39.1809 24.9887 39.0588 25.1515 38.9368 25.3142L39.0181 25.3549ZM37.4721 23.2392C37.1873 23.2392 36.8211 23.3206 36.4142 23.524C35.7226 23.8088 35.0309 24.3784 34.3799 25.1108C33.3627 26.3314 32.8338 27.1858 32.8338 27.7554C32.8338 28.0402 32.9559 28.2029 33.2 28.2029C33.4034 28.2029 33.7289 28.0809 34.1765 27.8368C34.624 27.5926 35.2343 27.1044 35.9667 26.3314C36.0074 26.2907 36.1701 26.1279 36.4549 25.8838C36.7397 25.6397 36.9838 25.3956 37.1873 25.1921C37.8382 24.5005 38.1637 24.0122 38.1637 23.7274C38.1637 23.4426 37.9196 23.2799 37.4721 23.2799V23.2392Z" fill="#151207"/>
<path d="M47.5124 23.6028C47.5124 23.318 47.3904 23.1959 47.1056 23.1959C46.8615 23.1959 46.4953 23.318 46.0071 23.5214C45.5188 23.7248 44.9492 24.2131 44.3389 24.9048C43.6066 25.7998 43.2404 26.5729 43.2404 27.2646C43.2404 27.7935 43.4438 28.119 43.81 28.3224C43.932 28.3631 44.0948 28.4038 44.2575 28.4038C44.8271 28.4038 45.5188 28.1597 46.2919 27.6714C47.0649 27.1832 48.0821 26.3695 49.3026 25.2302C49.5061 25.0268 49.5874 25.0268 49.5874 25.2302C49.5874 25.3116 49.5468 25.393 49.4654 25.4744C47.7566 27.0611 46.4953 28.0376 45.6816 28.4038C44.8678 28.7699 44.2575 28.9734 43.7693 28.9734C42.1419 28.9734 41.3281 28.4038 41.3281 27.1832C41.3281 25.9626 41.857 24.9454 42.9556 24.091C44.0134 23.2366 45.1526 22.7891 46.2919 22.7891C47.0242 22.7891 47.5124 22.9518 47.7566 23.2773C47.9193 23.44 48.0007 23.6435 48.0007 23.8062C48.0007 23.969 47.96 24.1724 47.8379 24.4165C47.7159 24.6199 47.5938 24.7013 47.3497 24.7013C47.1056 24.7013 47.1056 24.5793 47.2683 24.2945C47.4311 24.0097 47.5124 23.8062 47.5124 23.6028Z" fill="#151207"/>
<path d="M49.7196 26.6493C49.3534 27.5851 49.15 28.3581 49.15 29.0091C49.15 29.6601 49.2313 30.067 49.4348 30.2704C49.4348 30.3111 49.4755 30.3518 49.4348 30.3925C49.4348 30.3925 49.3941 30.3925 49.3534 30.3925C49.3534 30.3925 49.3534 30.3925 49.3127 30.3925C48.8652 30.0263 48.621 29.6194 48.5397 29.1719C48.5397 29.0091 48.499 28.8464 48.499 28.6836C48.499 27.8699 48.7431 26.8528 49.2313 25.6728C48.5397 26.3645 48.1735 26.6493 48.1328 26.4866C48.1328 26.3645 48.2549 26.2018 48.4176 26.039C48.5804 25.8763 49.0279 25.388 49.6382 24.615C51.0215 21.5228 52.8931 18.9189 55.1309 16.8032C56.3108 15.7047 57.3686 15.1758 58.3451 15.1758C59.1181 15.1758 59.5657 15.5013 59.7284 16.1523C59.7284 16.2336 59.7691 16.3557 59.7691 16.4777C59.7691 17.6576 58.5892 19.0817 56.1887 20.7091C55.375 21.2787 54.6019 21.6856 53.9103 22.0111C53.7475 22.0925 53.6255 22.0518 53.6255 22.0111C53.6255 21.9297 53.6661 21.8483 53.8289 21.767C54.4799 21.4822 55.2122 21.0346 56.026 20.4243C56.8397 19.8547 57.572 19.2037 58.223 18.5121C58.874 17.8204 59.2402 17.2915 59.2402 16.8846C59.2402 16.6405 59.1181 16.5184 58.8333 16.5184C58.5485 16.5184 58.1823 16.6812 57.6941 16.966C56.3108 17.8204 54.7647 19.3258 53.0965 21.4822C52.0387 22.8248 51.225 24.0454 50.5333 25.1439C51.5098 23.842 52.5269 22.9876 53.5441 22.54C53.951 22.4179 54.2764 22.3366 54.5206 22.3366C54.7647 22.3366 55.0088 22.3773 55.2122 22.4586C55.5784 22.6214 55.7818 22.9062 55.7818 23.313C55.7818 24.0047 55.375 24.6557 54.5206 25.266C54.0323 25.5915 53.5034 25.8356 52.8931 25.9983C52.2828 26.1204 51.8353 26.2018 51.5098 26.2018C51.1843 26.2018 50.9402 26.1611 50.7367 26.0797C51.1843 26.6493 51.7539 27.1376 52.4862 27.5851C53.2186 27.992 53.7882 28.2361 54.2358 28.2361C54.5206 28.2361 54.7647 28.1547 54.9274 28.0327C55.0902 27.9106 55.1715 27.7885 55.1715 27.6665C55.1715 27.5851 55.1715 27.5444 55.2122 27.5444C55.2122 27.5444 55.2529 27.5444 55.2529 27.5851C55.2529 28.0733 54.8867 28.3988 54.1137 28.6023C53.8289 28.6836 53.422 28.7243 52.9338 28.7243C52.4456 28.7243 51.9166 28.5616 51.347 28.2768C50.4519 27.8699 49.8416 27.3817 49.5568 26.7714L49.7196 26.6493ZM54.3578 23.842C54.3578 23.3537 54.1137 23.1096 53.6661 23.1096C53.1372 23.1096 52.5269 23.3944 51.876 24.0047C51.225 24.5743 50.7367 25.0626 50.4519 25.4694C50.4519 25.5508 50.5333 25.6322 50.6147 25.7542C50.7774 25.8763 50.9809 25.917 51.1843 25.917C51.3877 25.917 51.7539 25.8356 52.2421 25.7135C52.7304 25.5915 53.2186 25.3474 53.6661 24.9812C54.1137 24.615 54.3578 24.2488 54.3578 23.842Z" fill="#151207"/>
<path d="M70.1432 17.2336H66.5646V21.3169H69.6385V23.1062H66.5646V29.2541H64.5V15.3984H70.1432V17.2336Z" fill="#151207"/>
<path d="M78.4004 29.2541H76.2441L73.9501 22.831V21.5922H75.9688V17.1877H73.3537V29.2541H71.2891V15.3984H76.7946C77.6205 15.3984 78.0334 15.8114 78.0334 16.6831V21.7298C78.0334 22.3263 77.8499 22.6933 77.437 22.8768C77.2076 22.9686 76.7946 23.0145 76.1064 23.0145L78.4004 29.3V29.2541Z" fill="#151207"/>
<path d="M81.799 29.2541H79.7344V15.3984H81.799V29.2541Z" fill="#151207"/>
<path d="M90.3732 26.639C90.3732 27.4648 90.1438 28.1071 89.6391 28.5659C89.1344 29.0247 88.4921 29.2541 87.6663 29.2541H83.4453V15.3984H87.6663C88.4921 15.3984 89.1344 15.6278 89.6391 16.0866C90.1438 16.5454 90.3732 17.1877 90.3732 18.0136V26.639ZM88.3086 26.3178V18.3806C88.3086 17.6007 87.8957 17.2336 87.0698 17.2336H85.5558V27.5107H87.0239C87.8498 27.5107 88.3086 27.0978 88.3086 26.3178Z" fill="#151207"/>
<path d="M99.0077 29.2541H96.9431L96.5302 26.639H93.915L93.5021 29.2541H91.4375L94.0985 15.3984H96.2549L98.9159 29.2541H99.0077ZM96.2549 24.8497L95.2455 18.61L94.2362 24.8497H96.2549Z" fill="#151207"/>
<path d="M107.125 15.4902L105.29 21.271C105.06 21.8216 104.785 22.7851 104.372 24.1615V29.2541H102.307V24.1615C102.216 23.7027 102.078 23.198 101.895 22.6933C101.573 21.8216 101.39 21.3169 101.39 21.271L99.5547 15.4902C99.5547 15.4902 99.5547 15.4902 99.5547 15.3984H101.665L103.317 21.4087L104.969 15.3984H107.079V15.4902H107.125Z" fill="#151207"/>
<path d="M117.992 29C117.992 27.9139 118.143 26.9668 118.447 26.1585C118.75 25.3377 119.261 24.5926 119.981 23.9233C120.701 23.2413 121.673 22.5783 122.898 21.9343C123.504 21.6059 123.991 21.3155 124.357 21.0629C124.723 20.8103 124.988 20.5514 125.152 20.2862C125.317 20.0084 125.399 19.68 125.399 19.3012C125.399 18.9223 125.317 18.594 125.152 18.3161C124.988 18.0257 124.742 17.7984 124.414 17.6342C124.098 17.47 123.7 17.3879 123.22 17.3879C122.45 17.3879 121.837 17.6089 121.383 18.0509C120.941 18.4803 120.669 19.0991 120.568 19.9074L118.03 19.7558C118.156 18.354 118.668 17.2553 119.564 16.4597C120.473 15.6515 121.692 15.2474 123.22 15.2474C124.205 15.2474 125.051 15.4179 125.759 15.7588C126.466 16.0872 127.003 16.5544 127.369 17.1606C127.748 17.7668 127.937 18.4677 127.937 19.2633C127.937 19.9452 127.817 20.5325 127.577 21.025C127.35 21.5175 126.971 21.9721 126.441 22.3889C125.923 22.793 125.222 23.2287 124.338 23.696C123.227 24.2895 122.393 24.8641 121.837 25.4198C121.282 25.9628 120.985 26.4427 120.947 26.8594H127.937V29H117.992ZM135.304 29.3031C134.167 29.3031 133.176 29.0189 132.33 28.4507C131.496 27.8824 130.852 27.0741 130.397 26.0259C129.943 24.9778 129.715 23.7338 129.715 22.2942C129.715 20.8545 129.943 19.6106 130.397 18.5624C130.852 17.5016 131.496 16.687 132.33 16.1188C133.176 15.5378 134.167 15.2474 135.304 15.2474C136.465 15.2474 137.463 15.5378 138.297 16.1188C139.13 16.687 139.774 17.4953 140.229 18.5435C140.683 19.5916 140.911 20.8419 140.911 22.2942C140.911 23.7338 140.683 24.9778 140.229 26.0259C139.774 27.0741 139.13 27.8824 138.297 28.4507C137.463 29.0189 136.465 29.3031 135.304 29.3031ZM135.304 27.1625C136.289 27.1625 137.046 26.7521 137.577 25.9312C138.107 25.0977 138.372 23.8854 138.372 22.2942C138.372 21.2334 138.252 20.3367 138.012 19.6043C137.773 18.8718 137.425 18.3225 136.971 17.9562C136.529 17.5774 135.973 17.3879 135.304 17.3879C134.66 17.3879 134.11 17.5774 133.656 17.9562C133.201 18.3225 132.854 18.8718 132.614 19.6043C132.374 20.3367 132.254 21.2334 132.254 22.2942C132.254 23.8854 132.519 25.0977 133.049 25.9312C133.58 26.7521 134.331 27.1625 135.304 27.1625ZM145.619 22.0669C144.735 22.0669 144.002 21.789 143.421 21.2334C142.84 20.6777 142.55 19.8442 142.55 18.7329C142.55 17.6216 142.84 16.7881 143.421 16.2324C144.002 15.6767 144.735 15.3989 145.619 15.3989C146.515 15.3989 147.248 15.6767 147.816 16.2324C148.397 16.7881 148.687 17.6216 148.687 18.7329C148.687 19.8442 148.397 20.6777 147.816 21.2334C147.248 21.789 146.515 22.0669 145.619 22.0669ZM145.619 20.703C146.061 20.703 146.389 20.5388 146.604 20.2104C146.831 19.8695 146.945 19.377 146.945 18.7329C146.945 18.0888 146.831 17.6026 146.604 17.2743C146.389 16.9333 146.061 16.7628 145.619 16.7628C145.189 16.7628 144.861 16.9333 144.634 17.2743C144.406 17.6026 144.293 18.0888 144.293 18.7329C144.293 19.377 144.406 19.8695 144.634 20.2104C144.861 20.5388 145.189 20.703 145.619 20.703ZM153.499 29.1515C152.615 29.1515 151.882 28.8737 151.301 28.3181C150.721 27.7624 150.43 26.9289 150.43 25.8176C150.43 24.7063 150.721 23.8728 151.301 23.3171C151.882 22.7614 152.615 22.4836 153.499 22.4836C154.395 22.4836 155.128 22.7614 155.696 23.3171C156.265 23.8728 156.549 24.7063 156.549 25.8176C156.549 26.9289 156.265 27.7624 155.696 28.3181C155.128 28.8737 154.395 29.1515 153.499 29.1515ZM153.499 27.7876C153.941 27.7876 154.269 27.6235 154.484 27.2951C154.711 26.9542 154.825 26.4616 154.825 25.8176C154.825 25.1735 154.711 24.6873 154.484 24.359C154.269 24.018 153.941 23.8475 153.499 23.8475C153.069 23.8475 152.741 24.018 152.514 24.359C152.286 24.6873 152.173 25.1735 152.173 25.8176C152.173 26.4616 152.286 26.9542 152.514 27.2951C152.741 27.6235 153.069 27.7876 153.499 27.7876ZM144.198 29L153.253 15.5505H154.92L145.865 29H144.198Z" fill="#EC020A"/>
<path d="M165.904 26.7949C165.381 26.7949 164.901 26.7076 164.465 26.4896C164.029 26.3151 163.68 26.0098 163.331 25.6173C162.982 25.1812 162.764 24.7451 162.59 24.2217C162.415 23.6983 162.328 23.1314 162.328 22.4772C162.328 21.823 162.415 21.256 162.59 20.7327C162.764 20.2093 163.026 19.7296 163.331 19.3371C163.637 18.9445 163.985 18.6829 164.422 18.5084C164.858 18.2904 165.337 18.2031 165.861 18.2031C166.384 18.2031 166.864 18.2904 167.3 18.5084C167.736 18.6829 168.085 18.9882 168.39 19.3371C168.696 19.7296 168.957 20.2093 169.132 20.7327C169.306 21.256 169.393 21.823 169.393 22.4772C169.393 23.1314 169.306 23.6983 169.132 24.2217C168.957 24.7451 168.739 25.1812 168.39 25.6173C168.085 26.0098 167.736 26.2715 167.3 26.446C166.864 26.664 166.428 26.7512 165.861 26.7512L165.904 26.7949ZM165.904 25.1812C166.384 25.1812 166.777 24.9631 167.082 24.4398C167.387 23.96 167.518 23.3058 167.518 22.5208C167.518 21.7358 167.387 21.038 167.082 20.5582C166.777 20.0785 166.384 19.8604 165.861 19.8604C165.337 19.8604 164.989 20.0785 164.683 20.6018C164.378 21.0816 164.247 21.7358 164.247 22.5208C164.247 23.3058 164.422 24.0036 164.683 24.4398C164.989 24.9195 165.381 25.1812 165.904 25.1812Z" fill="#151207"/>
<path d="M170.969 26.5781V18.3789H176.856V19.9926H172.8V21.6063H176.551V23.1327H172.8V26.6217H170.969V26.5781Z" fill="#151207"/>
<path d="M178.438 26.5781V18.3789H184.325V19.9926H180.269V21.6063H184.02V23.1327H180.269V26.6217H178.438V26.5781Z" fill="#151207"/>
<path d="M196.072 26.1633C195.514 26.1633 195.027 26.0544 194.612 25.8367C194.204 25.6189 193.887 25.3092 193.663 24.9076C193.445 24.4993 193.336 24.0195 193.336 23.4682V18.7414H194.214V23.4682C194.214 24.0535 194.374 24.5061 194.694 24.826C195.02 25.1459 195.48 25.3058 196.072 25.3058C196.657 25.3058 197.11 25.1459 197.43 24.826C197.756 24.5061 197.92 24.0535 197.92 23.4682V18.7414H198.798V23.4682C198.798 24.0195 198.685 24.4993 198.461 24.9076C198.243 25.3092 197.93 25.6189 197.522 25.8367C197.113 26.0544 196.63 26.1633 196.072 26.1633ZM202.375 26.1225C201.892 26.1225 201.48 26.0442 201.14 25.8877C200.807 25.7312 200.545 25.5168 200.354 25.2445C200.17 24.9655 200.065 24.649 200.038 24.2951L200.936 24.2339C200.99 24.5605 201.13 24.8226 201.355 25.0199C201.579 25.2105 201.919 25.3058 202.375 25.3058C202.743 25.3058 203.036 25.2479 203.253 25.1322C203.478 25.0097 203.59 24.8158 203.59 24.5503C203.59 24.4074 203.556 24.2883 203.488 24.193C203.42 24.0977 203.287 24.0161 203.09 23.948C202.893 23.8731 202.6 23.8017 202.212 23.7336C201.695 23.6383 201.286 23.5226 200.987 23.3865C200.694 23.2436 200.483 23.07 200.354 22.8659C200.232 22.6549 200.17 22.4064 200.17 22.1206C200.17 21.6374 200.347 21.2426 200.701 20.9364C201.055 20.6233 201.559 20.4667 202.212 20.4667C202.654 20.4667 203.025 20.5484 203.325 20.7118C203.631 20.8683 203.869 21.0793 204.039 21.3447C204.216 21.6033 204.332 21.8892 204.387 22.2023L203.488 22.2635C203.447 22.073 203.372 21.9062 203.264 21.7633C203.155 21.6136 203.012 21.4979 202.835 21.4162C202.658 21.3277 202.447 21.2835 202.202 21.2835C201.814 21.2835 201.528 21.3583 201.344 21.5081C201.161 21.6578 201.069 21.8484 201.069 22.0798C201.069 22.2567 201.109 22.403 201.191 22.5187C201.28 22.6276 201.419 22.7195 201.61 22.7944C201.8 22.8624 202.056 22.9237 202.375 22.9781C202.927 23.0734 203.355 23.1891 203.662 23.3253C203.968 23.4614 204.182 23.6281 204.305 23.8255C204.427 24.0229 204.489 24.2645 204.489 24.5503C204.489 24.8838 204.393 25.1697 204.203 25.4079C204.019 25.6393 203.767 25.8162 203.447 25.9387C203.134 26.0613 202.777 26.1225 202.375 26.1225ZM207.772 26.1225C207.262 26.1225 206.82 26.0068 206.445 25.7754C206.078 25.544 205.792 25.2173 205.588 24.7953C205.39 24.3666 205.292 23.8663 205.292 23.2946C205.292 22.7229 205.39 22.2261 205.588 21.8041C205.792 21.3821 206.074 21.0555 206.435 20.8241C206.802 20.5858 207.235 20.4667 207.732 20.4667C208.201 20.4667 208.616 20.579 208.977 20.8036C209.338 21.0214 209.617 21.3413 209.814 21.7633C210.018 22.1853 210.12 22.6991 210.12 23.3048V23.5601H206.19C206.224 24.1386 206.377 24.5741 206.649 24.8668C206.928 25.1595 207.303 25.3058 207.772 25.3058C208.126 25.3058 208.416 25.2241 208.64 25.0608C208.872 24.8906 209.031 24.6694 209.12 24.3972L210.039 24.4687C209.896 24.9519 209.624 25.35 209.222 25.6631C208.827 25.9694 208.344 26.1225 207.772 26.1225ZM206.19 22.8046H209.181C209.14 22.2805 208.987 21.896 208.722 21.651C208.463 21.406 208.133 21.2835 207.732 21.2835C207.316 21.2835 206.973 21.4128 206.7 21.6714C206.435 21.9232 206.265 22.301 206.19 22.8046ZM215.914 26C215.424 26 215.06 25.8877 214.822 25.6631C214.591 25.4385 214.475 25.088 214.475 24.6116V19.3233H215.333V24.5912C215.333 24.8362 215.387 25.0063 215.496 25.1016C215.605 25.1969 215.772 25.2445 215.996 25.2445H216.772V26H215.914ZM213.679 21.3447V20.5893H216.772V21.3447H213.679ZM217.872 26V18.7516H218.73V21.7837L218.627 21.7633C218.695 21.4638 218.811 21.2188 218.975 21.0282C219.138 20.8377 219.339 20.6981 219.577 20.6097C219.815 20.5144 220.077 20.4667 220.363 20.4667C220.751 20.4667 221.078 20.5552 221.343 20.7322C221.615 20.9023 221.819 21.1439 221.956 21.457C222.098 21.7633 222.17 22.1172 222.17 22.5187V26H221.312V22.7638C221.312 22.2397 221.217 21.8518 221.027 21.5999C220.843 21.3481 220.56 21.2222 220.179 21.2222C219.744 21.2222 219.393 21.3549 219.128 21.6204C218.862 21.8858 218.73 22.2703 218.73 22.774V26H217.872ZM223.704 26V20.5893H224.562V26H223.704ZM223.684 19.7419V18.7414H224.582V19.7419H223.684ZM228.067 26.1225C227.584 26.1225 227.172 26.0442 226.832 25.8877C226.498 25.7312 226.236 25.5168 226.046 25.2445C225.862 24.9655 225.757 24.649 225.729 24.2951L226.628 24.2339C226.682 24.5605 226.822 24.8226 227.046 25.0199C227.271 25.2105 227.611 25.3058 228.067 25.3058C228.435 25.3058 228.727 25.2479 228.945 25.1322C229.17 25.0097 229.282 24.8158 229.282 24.5503C229.282 24.4074 229.248 24.2883 229.18 24.193C229.112 24.0977 228.979 24.0161 228.782 23.948C228.585 23.8731 228.292 23.8017 227.904 23.7336C227.387 23.6383 226.978 23.5226 226.679 23.3865C226.386 23.2436 226.175 23.07 226.046 22.8659C225.923 22.6549 225.862 22.4064 225.862 22.1206C225.862 21.6374 226.039 21.2426 226.393 20.9364C226.747 20.6233 227.251 20.4667 227.904 20.4667C228.346 20.4667 228.717 20.5484 229.017 20.7118C229.323 20.8683 229.561 21.0793 229.731 21.3447C229.908 21.6033 230.024 21.8892 230.078 22.2023L229.18 22.2635C229.139 22.073 229.064 21.9062 228.955 21.7633C228.847 21.6136 228.704 21.4979 228.527 21.4162C228.35 21.3277 228.139 21.2835 227.894 21.2835C227.506 21.2835 227.22 21.3583 227.036 21.5081C226.852 21.6578 226.761 21.8484 226.761 22.0798C226.761 22.2567 226.801 22.403 226.883 22.5187C226.972 22.6276 227.111 22.7195 227.302 22.7944C227.492 22.8624 227.747 22.9237 228.067 22.9781C228.619 23.0734 229.047 23.1891 229.354 23.3253C229.66 23.4614 229.874 23.6281 229.997 23.8255C230.119 24.0229 230.181 24.2645 230.181 24.5503C230.181 24.8838 230.085 25.1697 229.895 25.4079C229.711 25.6393 229.459 25.8162 229.139 25.9387C228.826 26.0613 228.469 26.1225 228.067 26.1225ZM236.116 26.1225C235.613 26.1225 235.174 26.0068 234.799 25.7754C234.432 25.544 234.146 25.2173 233.942 24.7953C233.737 24.3666 233.635 23.8663 233.635 23.2946C233.635 22.7229 233.737 22.2261 233.942 21.8041C234.146 21.3821 234.432 21.0555 234.799 20.8241C235.174 20.5858 235.613 20.4667 236.116 20.4667C236.531 20.4667 236.899 20.5416 237.219 20.6913C237.545 20.8343 237.811 21.0453 238.015 21.3243C238.219 21.6033 238.352 21.9436 238.413 22.3452L237.515 22.4064C237.454 22.0457 237.297 21.7701 237.045 21.5795C236.793 21.3821 236.484 21.2835 236.116 21.2835C235.619 21.2835 235.231 21.4638 234.952 21.8245C234.673 22.1784 234.534 22.6685 234.534 23.2946C234.534 23.9208 234.673 24.4142 234.952 24.7749C235.231 25.1288 235.619 25.3058 236.116 25.3058C236.484 25.3058 236.793 25.2037 237.045 24.9995C237.297 24.7953 237.454 24.4891 237.515 24.0807L238.413 24.142C238.352 24.5435 238.219 24.894 238.015 25.1935C237.811 25.4861 237.545 25.7141 237.219 25.8775C236.899 26.0408 236.531 26.1225 236.116 26.1225ZM241.59 26.1225C241.093 26.1225 240.657 26.0068 240.283 25.7754C239.908 25.544 239.619 25.2173 239.415 24.7953C239.211 24.3666 239.109 23.8663 239.109 23.2946C239.109 22.7161 239.211 22.2159 239.415 21.7939C239.619 21.3719 239.908 21.0453 240.283 20.8139C240.657 20.5824 241.093 20.4667 241.59 20.4667C242.086 20.4667 242.519 20.5824 242.886 20.8139C243.26 21.0453 243.55 21.3719 243.754 21.7939C243.958 22.2159 244.06 22.7161 244.06 23.2946C244.06 23.8663 243.958 24.3666 243.754 24.7953C243.55 25.2173 243.26 25.544 242.886 25.7754C242.519 26.0068 242.086 26.1225 241.59 26.1225ZM241.59 25.3058C242.086 25.3058 242.471 25.1288 242.743 24.7749C243.022 24.4142 243.162 23.9208 243.162 23.2946C243.162 22.6685 243.022 22.1784 242.743 21.8245C242.471 21.4638 242.086 21.2835 241.59 21.2835C241.093 21.2835 240.705 21.4638 240.426 21.8245C240.147 22.1784 240.007 22.6685 240.007 23.2946C240.007 23.9208 240.147 24.4142 240.426 24.7749C240.705 25.1288 241.093 25.3058 241.59 25.3058ZM247.148 26.1225C246.678 26.1225 246.27 26.0068 245.923 25.7754C245.583 25.544 245.321 25.2173 245.137 24.7953C244.953 24.3734 244.861 23.8731 244.861 23.2946C244.861 22.7161 244.953 22.2159 245.137 21.7939C245.321 21.3719 245.583 21.0453 245.923 20.8139C246.27 20.5824 246.678 20.4667 247.148 20.4667C247.509 20.4667 247.839 20.545 248.138 20.7016C248.438 20.8513 248.662 21.0657 248.812 21.3447V18.7516H249.67V26H248.894L248.863 25.1833C248.713 25.4759 248.485 25.7073 248.179 25.8775C247.873 26.0408 247.529 26.1225 247.148 26.1225ZM247.322 25.3058C247.641 25.3058 247.91 25.2241 248.128 25.0608C248.353 24.8974 248.523 24.666 248.639 24.3666C248.754 24.0603 248.812 23.703 248.812 23.2946C248.812 22.8727 248.754 22.5119 248.639 22.2125C248.523 21.913 248.353 21.685 248.128 21.5285C247.91 21.3651 247.641 21.2835 247.322 21.2835C246.845 21.2835 246.464 21.4638 246.178 21.8245C245.899 22.1784 245.76 22.6685 245.76 23.2946C245.76 23.914 245.899 24.404 246.178 24.7647C246.464 25.1254 246.845 25.3058 247.322 25.3058ZM253.314 26.1225C252.803 26.1225 252.361 26.0068 251.987 25.7754C251.619 25.544 251.333 25.2173 251.129 24.7953C250.932 24.3666 250.833 23.8663 250.833 23.2946C250.833 22.7229 250.932 22.2261 251.129 21.8041C251.333 21.3821 251.616 21.0555 251.976 20.8241C252.344 20.5858 252.776 20.4667 253.273 20.4667C253.743 20.4667 254.158 20.579 254.519 20.8036C254.879 21.0214 255.158 21.3413 255.356 21.7633C255.56 22.1853 255.662 22.6991 255.662 23.3048V23.5601H251.731C251.766 24.1386 251.919 24.5741 252.191 24.8668C252.47 25.1595 252.844 25.3058 253.314 25.3058C253.668 25.3058 253.957 25.2241 254.182 25.0608C254.413 24.8906 254.573 24.6694 254.661 24.3972L255.58 24.4687C255.437 24.9519 255.165 25.35 254.764 25.6631C254.369 25.9694 253.886 26.1225 253.314 26.1225ZM251.731 22.8046H254.723C254.682 22.2805 254.529 21.896 254.263 21.651C254.005 21.406 253.675 21.2835 253.273 21.2835C252.858 21.2835 252.514 21.4128 252.242 21.6714C251.976 21.9232 251.806 22.301 251.731 22.8046Z" fill="#292929"/>
<rect x="261.43" y="10.8945" width="102.418" height="23.209" rx="11.6045" fill="#151207"/>
<path d="M272.932 26V18.7516H275.535C276.406 18.7516 277.063 18.9082 277.506 19.2213C277.948 19.5343 278.169 20.0312 278.169 20.7118C278.169 21.018 278.105 21.2869 277.975 21.5183C277.846 21.7497 277.655 21.9334 277.404 22.0696C277.159 22.1989 276.866 22.2669 276.526 22.2737L276.515 22.2329C277.135 22.2465 277.615 22.4167 277.955 22.7433C278.302 23.0632 278.475 23.4852 278.475 24.0093C278.475 24.6694 278.254 25.1663 277.812 25.4998C277.37 25.8333 276.74 26 275.923 26H272.932ZM274.035 25.0097H275.893C276.349 25.0097 276.703 24.9179 276.954 24.7341C277.213 24.5435 277.342 24.2679 277.342 23.9072C277.342 23.5533 277.213 23.2776 276.954 23.0802C276.703 22.8829 276.349 22.7842 275.893 22.7842H274.035V25.0097ZM274.035 21.845H275.515C275.998 21.845 276.372 21.7531 276.638 21.5693C276.903 21.3856 277.036 21.1269 277.036 20.7934C277.036 20.4395 276.907 20.1775 276.648 20.0073C276.396 19.8304 276.019 19.7419 275.515 19.7419H274.035V21.845ZM279.961 26V18.7516H281.063V25.5916L280.481 24.9893H284.596V26H279.961ZM285.039 26L287.653 18.7516H289.051L291.665 26H290.491L289.827 24.1113H286.867L286.213 26H285.039ZM287.214 23.1109H289.49L288.347 19.8032L287.214 23.1109ZM295.282 26.1633C294.628 26.1633 294.053 26.0136 293.556 25.7141C293.06 25.4079 292.672 24.9723 292.393 24.4074C292.114 23.8425 291.974 23.1687 291.974 22.386C291.974 21.6101 292.11 20.9398 292.382 20.3749C292.661 19.8032 293.049 19.3642 293.546 19.0579C294.043 18.7448 294.625 18.5883 295.292 18.5883C296.19 18.5883 296.888 18.8129 297.385 19.2621C297.882 19.7113 298.205 20.334 298.355 21.1303L297.201 21.1916C297.106 20.6947 296.902 20.3068 296.588 20.0278C296.275 19.7419 295.843 19.599 295.292 19.599C294.85 19.599 294.465 19.7113 294.138 19.9359C293.818 20.1605 293.567 20.4804 293.383 20.8955C293.206 21.3107 293.117 21.8075 293.117 22.386C293.117 22.9645 293.206 23.4614 293.383 23.8765C293.567 24.2917 293.822 24.6082 294.149 24.826C294.475 25.0438 294.853 25.1527 295.282 25.1527C295.867 25.1527 296.32 24.9995 296.64 24.6933C296.966 24.3802 297.17 23.9514 297.252 23.4069L298.406 23.4682C298.317 24.0195 298.14 24.4959 297.875 24.8974C297.609 25.299 297.259 25.6121 296.823 25.8367C296.388 26.0544 295.874 26.1633 295.282 26.1633ZM299.591 26V18.7516H300.694V22.2125L303.746 18.7516H305.083L302.307 21.9164L305.267 26H303.971L301.571 22.6923L300.694 23.6724V26H299.591ZM306.191 26V18.7516H310.897V19.7623H306.712L307.293 19.16V22.4881L306.712 21.9675H310.713V22.9475H306.712L307.293 22.4269V26H306.191ZM312.083 26V18.7516H314.972C315.489 18.7516 315.935 18.8401 316.309 19.0171C316.684 19.194 316.973 19.4458 317.177 19.7725C317.381 20.0992 317.483 20.4872 317.483 20.9364C317.483 21.263 317.409 21.5557 317.259 21.8143C317.116 22.073 316.922 22.2805 316.677 22.4371C316.439 22.5868 316.184 22.6719 315.911 22.6923L315.86 22.6004C316.316 22.6004 316.67 22.7059 316.922 22.9169C317.174 23.1211 317.32 23.4444 317.361 23.8867L317.555 26H316.442L316.269 24.0297C316.248 23.737 316.15 23.5226 315.973 23.3865C315.796 23.2436 315.506 23.1721 315.105 23.1721H313.186V26H312.083ZM313.186 22.1614H314.993C315.408 22.1614 315.734 22.0593 315.973 21.8552C316.218 21.6442 316.34 21.3481 316.34 20.967C316.34 20.579 316.218 20.283 315.973 20.0788C315.728 19.8678 315.37 19.7623 314.901 19.7623H313.186V22.1614ZM319.022 26V18.7516H320.124V26H319.022ZM321.704 26V18.7516H324.031C325.168 18.7516 326.043 19.0681 326.655 19.7011C327.268 20.3272 327.574 21.2222 327.574 22.386C327.574 23.543 327.271 24.4346 326.665 25.0608C326.066 25.6869 325.209 26 324.093 26H321.704ZM322.806 24.9893H324.031C324.834 24.9893 325.433 24.7749 325.828 24.3461C326.23 23.9106 326.43 23.2572 326.43 22.386C326.43 21.5013 326.23 20.8445 325.828 20.4157C325.433 19.9801 324.834 19.7623 324.031 19.7623H322.806V24.9893ZM327.879 26L330.493 18.7516H331.891L334.505 26H333.331L332.667 24.1113H329.706L329.053 26H327.879ZM330.054 23.1109H332.33L331.187 19.8032L330.054 23.1109ZM336.437 26V23.0904L333.895 18.7516H335.16L336.988 21.9879L338.825 18.7516H340.091L337.539 23.0904V26H336.437ZM340.62 26C340.62 25.4555 340.701 24.9689 340.865 24.5401C341.028 24.1113 341.307 23.7132 341.702 23.3457C342.097 22.9781 342.641 22.6106 343.335 22.2431C343.669 22.073 343.934 21.9164 344.132 21.7735C344.336 21.6238 344.482 21.4706 344.571 21.3141C344.659 21.1576 344.703 20.967 344.703 20.7424C344.703 20.511 344.652 20.3136 344.55 20.1503C344.455 19.9801 344.312 19.8474 344.121 19.7521C343.931 19.65 343.689 19.599 343.397 19.599C342.934 19.599 342.566 19.7249 342.294 19.9767C342.029 20.2217 341.862 20.5756 341.794 21.0384L340.65 20.967C340.732 20.2387 341.008 19.6602 341.477 19.2315C341.954 18.8027 342.593 18.5883 343.397 18.5883C343.914 18.5883 344.353 18.6802 344.713 18.8639C345.081 19.0409 345.36 19.2893 345.551 19.6092C345.748 19.9291 345.847 20.3 345.847 20.722C345.847 21.0895 345.785 21.406 345.663 21.6714C345.54 21.9368 345.336 22.1853 345.05 22.4167C344.765 22.6413 344.377 22.8829 343.887 23.1415C343.26 23.475 342.787 23.8051 342.468 24.1318C342.148 24.4516 341.977 24.7375 341.957 24.9893H345.847V26H340.62ZM349.779 26.1633C349.18 26.1633 348.659 26.0102 348.217 25.7039C347.774 25.3977 347.434 24.9621 347.196 24.3972C346.957 23.8323 346.838 23.1619 346.838 22.386C346.838 21.6101 346.957 20.9398 347.196 20.3749C347.441 19.8032 347.781 19.3642 348.217 19.0579C348.659 18.7448 349.18 18.5883 349.779 18.5883C350.384 18.5883 350.905 18.7448 351.341 19.0579C351.783 19.3642 352.123 19.7998 352.361 20.3647C352.606 20.9296 352.729 21.6033 352.729 22.386C352.729 23.1619 352.61 23.8323 352.372 24.3972C352.133 24.9621 351.793 25.3977 351.351 25.7039C350.908 26.0102 350.384 26.1633 349.779 26.1633ZM349.779 25.1527C350.357 25.1527 350.803 24.9144 351.116 24.438C351.429 23.9616 351.586 23.2776 351.586 22.386C351.586 21.7871 351.514 21.2801 351.371 20.8649C351.235 20.4497 351.031 20.1367 350.759 19.9257C350.493 19.7079 350.167 19.599 349.779 19.599C349.397 19.599 349.071 19.7079 348.799 19.9257C348.533 20.1367 348.329 20.4497 348.186 20.8649C348.05 21.2801 347.982 21.7871 347.982 22.386C347.982 23.2776 348.138 23.9616 348.451 24.438C348.764 24.9144 349.207 25.1527 349.779 25.1527Z" fill="white"/>
<g filter="url(#filter1_dii_16163_47314)">
<rect width="984" height="18" transform="translate(102.109 -21) rotate(2)" fill="#D9971C"/>
<path d="M308.294 -1.7919L308.492 -7.46844L310.699 -7.39138C311.403 -7.36681 311.936 -7.22275 312.301 -6.95921C312.665 -6.701 312.838 -6.30539 312.82 -5.77238C312.812 -5.53786 312.756 -5.33432 312.654 -5.16178C312.552 -4.99457 312.406 -4.86358 312.216 -4.76883C312.032 -4.67388 311.808 -4.62031 311.546 -4.60811L311.547 -4.6241C312.02 -4.57556 312.378 -4.42432 312.62 -4.17038C312.867 -3.9216 312.984 -3.59732 312.97 -3.19757C312.952 -2.66989 312.751 -2.28198 312.369 -2.03383C311.992 -1.79083 311.46 -1.68134 310.773 -1.70535L308.294 -1.7919ZM309.544 -2.74086L310.751 -2.6987C311.044 -2.68846 311.281 -2.7389 311.461 -2.85002C311.646 -2.96628 311.743 -3.14434 311.752 -3.3842C311.76 -3.62405 311.676 -3.80844 311.499 -3.93736C311.327 -4.07142 311.095 -4.14357 310.802 -4.15381L309.595 -4.19597L309.544 -2.74086ZM309.625 -5.07543L310.585 -5.04193C310.883 -5.03151 311.123 -5.08185 311.303 -5.19297C311.488 -5.30391 311.584 -5.46864 311.592 -5.68717C311.6 -5.9217 311.518 -6.09533 311.346 -6.20808C311.179 -6.32596 310.942 -6.39031 310.632 -6.4011L309.673 -6.4346L309.625 -5.07543ZM314.076 -1.59L314.274 -7.26654L315.489 -7.22411L315.302 -1.87537L314.655 -2.5944L317.941 -2.47965L317.905 -1.45627L314.076 -1.59ZM318.348 -1.44082L320.593 -7.04589L322.032 -6.99563L323.88 -1.24762L322.617 -1.29173L322.243 -2.51351L320.061 -2.58973L319.603 -1.39699L318.348 -1.44082ZM320.439 -3.57712L321.943 -3.52463L321.268 -5.74154L320.439 -3.57712ZM326.854 -1.0157C326.337 -1.03375 325.88 -1.16712 325.483 -1.41579C325.091 -1.66427 324.789 -2.01371 324.575 -2.46411C324.367 -2.91433 324.273 -3.44858 324.295 -4.06687C324.316 -4.66917 324.443 -5.1877 324.677 -5.62247C324.911 -6.06256 325.235 -6.39813 325.649 -6.62917C326.063 -6.86021 326.541 -6.96623 327.085 -6.94725C327.826 -6.92137 328.395 -6.71738 328.793 -6.33528C329.196 -5.95831 329.444 -5.42932 329.538 -4.74831L328.273 -4.74445C328.221 -5.1038 328.092 -5.3858 327.886 -5.59046C327.68 -5.80045 327.401 -5.91159 327.049 -5.92387C326.745 -5.93448 326.484 -5.86356 326.265 -5.7111C326.047 -5.55864 325.876 -5.33779 325.754 -5.04854C325.632 -4.7593 325.564 -4.41746 325.55 -4.02304C325.536 -3.62328 325.58 -3.27487 325.682 -2.97781C325.789 -2.68589 325.946 -2.45892 326.154 -2.2969C326.362 -2.13488 326.612 -2.04876 326.906 -2.03852C327.289 -2.02512 327.589 -2.12139 327.804 -2.32733C328.025 -2.53842 328.169 -2.83492 328.235 -3.21682L329.505 -3.12446C329.414 -2.66335 329.254 -2.27404 329.024 -1.95654C328.794 -1.63903 328.497 -1.39857 328.134 -1.23515C327.776 -1.07154 327.349 -0.99839 326.854 -1.0157ZM330.436 -1.01868L330.634 -6.69522L331.85 -6.65278L331.763 -4.17429L333.912 -6.58075L335.328 -6.53133L333.153 -4.10173L335.257 -0.850322L333.874 -0.898623L332.325 -3.31414L331.71 -2.64722L331.651 -0.97624L330.436 -1.01868ZM338.087 -0.751489L338.286 -6.42803L342.203 -6.29122L342.168 -5.26785L338.794 -5.38567L339.49 -6.05779L339.399 -3.45938L338.746 -4.01051L341.976 -3.89771L341.94 -2.89032L338.71 -3.00312L339.4 -3.50735L339.303 -0.709051L338.087 -0.751489ZM342.963 -0.581223L343.161 -6.25776L345.648 -6.17093C346.064 -6.15642 346.421 -6.07456 346.72 -5.92537C347.024 -5.77599 347.255 -5.5705 347.411 -5.30888C347.567 -5.0526 347.64 -4.75123 347.628 -4.40477C347.618 -4.1436 347.554 -3.91369 347.435 -3.71506C347.322 -3.51624 347.167 -3.35622 346.97 -3.235C346.779 -3.11359 346.561 -3.04118 346.314 -3.01776L346.293 -3.09055C346.671 -3.07734 346.956 -2.98467 347.148 -2.81255C347.339 -2.64576 347.443 -2.394 347.458 -2.05728L347.544 -0.421244L346.305 -0.464519L346.252 -1.90727C346.243 -2.12636 346.179 -2.28869 346.06 -2.39424C345.947 -2.50494 345.746 -2.56531 345.458 -2.57536L344.251 -2.61752L344.179 -0.538786L342.963 -0.581223ZM344.287 -3.6329L345.422 -3.59325C345.715 -3.58302 345.944 -3.64173 346.108 -3.7694C346.279 -3.90221 346.368 -4.09388 346.377 -4.34439C346.386 -4.60023 346.31 -4.795 346.149 -4.92869C345.988 -5.06772 345.751 -5.14272 345.436 -5.1537L344.341 -5.19195L344.287 -3.6329ZM348.698 -0.380966L348.896 -6.05751L350.111 -6.01507L349.913 -0.338528L348.698 -0.380966ZM351.145 -0.295495L351.344 -5.97203L353.302 -5.90363C354.225 -5.87143 354.925 -5.59883 355.403 -5.08582C355.882 -4.57814 356.105 -3.86858 356.073 -2.95714C356.042 -2.05102 355.772 -1.36134 355.265 -0.888098C354.762 -0.414668 354.058 -0.193774 353.152 -0.225416L351.145 -0.295495ZM352.396 -1.27643L353.14 -1.25047C353.689 -1.2313 354.099 -1.36373 354.371 -1.64776C354.648 -1.93694 354.797 -2.39067 354.818 -3.00896C354.84 -3.62725 354.723 -4.08763 354.466 -4.39009C354.216 -4.6977 353.816 -4.86108 353.267 -4.88026L352.523 -4.90622L352.396 -1.27643ZM356.284 -0.116046L358.529 -5.72111L359.968 -5.67086L361.817 0.0771578L360.554 0.0330449L360.18 -1.18874L357.997 -1.26496L357.539 -0.072212L356.284 -0.116046ZM358.376 -2.25234L359.879 -2.19985L359.204 -4.41676L358.376 -2.25234ZM363.395 0.132282L363.472 -2.07437L361.619 -5.61322L362.962 -5.56632L364.121 -3.23643L365.432 -5.48004L366.776 -5.43314L364.688 -2.03194L364.611 0.174719L363.395 0.132282Z" fill="#151207"/>
<path d="M371.493 0.54314C371.003 0.526016 370.585 0.428696 370.239 0.251179C369.893 0.0736613 369.626 -0.167783 369.439 -0.473155C369.253 -0.778526 369.153 -1.13422 369.14 -1.54024L370.366 -1.55349C370.39 -1.32851 370.447 -1.13439 370.537 -0.971137C370.633 -0.813028 370.762 -0.691113 370.925 -0.605391C371.093 -0.519484 371.299 -0.472249 371.544 -0.463687C371.747 -0.456614 371.918 -0.474643 372.059 -0.517775C372.204 -0.56072 372.316 -0.62886 372.394 -0.722196C372.472 -0.820862 372.514 -0.942151 372.519 -1.08606C372.523 -1.21932 372.495 -1.33503 372.435 -1.4332C372.374 -1.53671 372.255 -1.6316 372.076 -1.71788C371.898 -1.80949 371.635 -1.90141 371.286 -1.99365C370.804 -2.12252 370.417 -2.26146 370.123 -2.41046C369.835 -2.55928 369.628 -2.73996 369.502 -2.95248C369.376 -3.17034 369.319 -3.43917 369.33 -3.75897C369.342 -4.1001 369.435 -4.3957 369.609 -4.64577C369.789 -4.89566 370.041 -5.08698 370.366 -5.21972C370.69 -5.35247 371.074 -5.41111 371.516 -5.39567C371.985 -5.37929 372.38 -5.2828 372.699 -5.10622C373.018 -4.92963 373.264 -4.69426 373.435 -4.40011C373.611 -4.10577 373.712 -3.77139 373.736 -3.39698L372.519 -3.37546C372.509 -3.57323 372.462 -3.74566 372.377 -3.89273C372.291 -4.04514 372.173 -4.16402 372.021 -4.24937C371.869 -4.33472 371.684 -4.38121 371.465 -4.38884C371.188 -4.39852 370.967 -4.34485 370.803 -4.22784C370.644 -4.11065 370.562 -3.95345 370.555 -3.75623C370.55 -3.61765 370.58 -3.49918 370.646 -3.40082C370.718 -3.3076 370.835 -3.22346 370.998 -3.1484C371.166 -3.07315 371.403 -2.99815 371.71 -2.92339C372.234 -2.79837 372.645 -2.64793 372.943 -2.47209C373.247 -2.30139 373.459 -2.10188 373.579 -1.87355C373.699 -1.64521 373.754 -1.38714 373.744 -1.09931C373.732 -0.747527 373.63 -0.444211 373.44 -0.189365C373.255 0.0603366 372.995 0.248708 372.66 0.375751C372.33 0.502979 371.941 0.558775 371.493 0.54314ZM374.077 0.505307L376.322 -5.09976L377.762 -5.0495L379.61 0.698511L378.347 0.654398L377.973 -0.567385L375.791 -0.643605L375.333 0.549141L374.077 0.505307ZM376.169 -1.63099L377.672 -1.5785L376.997 -3.79541L376.169 -1.63099ZM380.385 0.725556L380.583 -4.95098L381.798 -4.90855L381.611 0.440193L380.964 -0.278835L384.25 -0.164086L384.214 0.859291L380.385 0.725556ZM384.995 0.886551L385.193 -4.78999L389.143 -4.65207L389.107 -3.62869L386.373 -3.72417L386.327 -2.42097L388.965 -2.32883L388.93 -1.32145L386.292 -1.41358L386.246 -0.0943872L389.044 0.00333137L389.008 1.02671L384.995 0.886551Z" fill="white"/>
</g>
</g>
<defs>
<filter id="filter0_dii_16163_47314" x="-558.586" y="6.49219" width="1599.78" height="95.4492" filterUnits="userSpaceOnUse" color-interpolation-filters="sRGB">
<feFlood flood-opacity="0" result="BackgroundImageFix"/>
<feColorMatrix in="SourceAlpha" type="matrix" values="0 0 0 0 0 0 0 0 0 0 0 0 0 0 0 0 0 0 127 0" result="hardAlpha"/>
<feOffset dy="2"/>
<feGaussianBlur stdDeviation="7"/>
<feComposite in2="hardAlpha" operator="out"/>
<feColorMatrix type="matrix" values="0 0 0 0 0.0823529 0 0 0 0 0.0705882 0 0 0 0 0.027451 0 0 0 0.12 0"/>
<feBlend mode="normal" in2="BackgroundImageFix" result="effect1_dropShadow_16163_47314"/>
<feBlend mode="normal" in="SourceGraphic" in2="effect1_dropShadow_16163_47314" result="shape"/>
<feColorMatrix in="SourceAlpha" type="matrix" values="0 0 0 0 0 0 0 0 0 0 0 0 0 0 0 0 0 0 127 0" result="hardAlpha"/>
<feOffset dy="2"/>
<feGaussianBlur stdDeviation="5"/>
<feComposite in2="hardAlpha" operator="arithmetic" k2="-1" k3="1"/>
<feColorMatrix type="matrix" values="0 0 0 0 0.0823529 0 0 0 0 0.0705882 0 0 0 0 0.027451 0 0 0 0.2 0"/>
<feBlend mode="normal" in2="shape" result="effect2_innerShadow_16163_47314"/>
<feColorMatrix in="SourceAlpha" type="matrix" values="0 0 0 0 0 0 0 0 0 0 0 0 0 0 0 0 0 0 127 0" result="hardAlpha"/>
<feOffset dy="2"/>
<feGaussianBlur stdDeviation="2"/>
<feComposite in2="hardAlpha" operator="arithmetic" k2="-1" k3="1"/>
<feColorMatrix type="matrix" values="0 0 0 0 0.0823529 0 0 0 0 0.0705882 0 0 0 0 0.027451 0 0 0 0.12 0"/>
<feBlend mode="normal" in2="effect2_innerShadow_16163_47314" result="effect3_innerShadow_16163_47314"/>
</filter>
<filter id="filter1_dii_16163_47314" x="87.4844" y="-33" width="1012.02" height="80.332" filterUnits="userSpaceOnUse" color-interpolation-filters="sRGB">
<feFlood flood-opacity="0" result="BackgroundImageFix"/>
<feColorMatrix in="SourceAlpha" type="matrix" values="0 0 0 0 0 0 0 0 0 0 0 0 0 0 0 0 0 0 127 0" result="hardAlpha"/>
<feOffset dy="2"/>
<feGaussianBlur stdDeviation="7"/>
<feComposite in2="hardAlpha" operator="out"/>
<feColorMatrix type="matrix" values="0 0 0 0 0.0823529 0 0 0 0 0.0705882 0 0 0 0 0.027451 0 0 0 0.12 0"/>
<feBlend mode="normal" in2="BackgroundImageFix" result="effect1_dropShadow_16163_47314"/>
<feBlend mode="normal" in="SourceGraphic" in2="effect1_dropShadow_16163_47314" result="shape"/>
<feColorMatrix in="SourceAlpha" type="matrix" values="0 0 0 0 0 0 0 0 0 0 0 0 0 0 0 0 0 0 127 0" result="hardAlpha"/>
<feOffset dy="2"/>
<feGaussianBlur stdDeviation="5"/>
<feComposite in2="hardAlpha" operator="arithmetic" k2="-1" k3="1"/>
<feColorMatrix type="matrix" values="0 0 0 0 0.0823529 0 0 0 0 0.0705882 0 0 0 0 0.027451 0 0 0 0.2 0"/>
<feBlend mode="normal" in2="shape" result="effect2_innerShadow_16163_47314"/>
<feColorMatrix in="SourceAlpha" type="matrix" values="0 0 0 0 0 0 0 0 0 0 0 0 0 0 0 0 0 0 127 0" result="hardAlpha"/>
<feOffset dy="2"/>
<feGaussianBlur stdDeviation="2"/>
<feComposite in2="hardAlpha" operator="arithmetic" k2="-1" k3="1"/>
<feColorMatrix type="matrix" values="0 0 0 0 0.0823529 0 0 0 0 0.0705882 0 0 0 0 0.027451 0 0 0 0.12 0"/>
<feBlend mode="normal" in2="effect2_innerShadow_16163_47314" result="effect3_innerShadow_16163_47314"/>
</filter>
<clipPath id="clip0_16163_47314">
<rect width="375" height="44" fill="white"/>
</clipPath>
</defs>
</svg>
