<svg width="639" height="44" viewBox="0 0 639 44" fill="none" xmlns="http://www.w3.org/2000/svg">
<g clip-path="url(#clip0_16161_47254)">
<rect width="639" height="44" fill="#FFEFD1"/>
<g filter="url(#filter0_dii_16161_47254)">
<rect width="1572" height="18" transform="translate(-460.992 21.5) rotate(1.80289)" fill="#D9971C"/>
<path d="M-58.8424 46.1635L-58.6637 40.4863L-56.4568 40.5558C-55.7531 40.578 -55.2187 40.7202 -54.8534 40.9825C-54.488 41.2394 -54.3137 41.6344 -54.3304 42.1675C-54.3378 42.4021 -54.3923 42.6058 -54.4937 42.7787C-54.5951 42.9462 -54.7406 43.0777 -54.9304 43.1731C-55.1148 43.2687 -55.338 43.3231 -55.5998 43.3362L-55.5993 43.3202C-55.1259 43.3671 -54.7678 43.5171 -54.525 43.7702C-54.2766 44.0181 -54.1588 44.342 -54.1714 44.7418C-54.188 45.2695 -54.387 45.6581 -54.7683 45.9076C-55.1442 46.1519 -55.676 46.2632 -56.3636 46.2416L-58.8424 46.1635ZM-57.5958 45.2103L-56.3884 45.2483C-56.0952 45.2575 -55.8588 45.2063 -55.6792 45.0945C-55.4941 44.9776 -55.3978 44.7992 -55.3902 44.5594C-55.3827 44.3195 -55.4676 44.1354 -55.645 44.0071C-55.8169 43.8736 -56.0494 43.8022 -56.3426 43.793L-57.55 43.755L-57.5958 45.2103ZM-57.5223 42.8754L-56.5628 42.9056C-56.2642 42.915 -56.0252 42.8639 -55.8456 42.7521C-55.6606 42.6406 -55.5647 42.4755 -55.5579 42.2569C-55.5505 42.0224 -55.6331 41.849 -55.8056 41.7369C-55.9727 41.6196 -56.2108 41.556 -56.52 41.5463L-57.4795 41.5161L-57.5223 42.8754ZM-53.0603 46.3455L-52.8816 40.6684L-51.6662 40.7066L-51.8345 46.056L-52.4843 45.3392L-49.1979 45.4426L-49.2302 46.4661L-53.0603 46.3455ZM-48.7877 46.48L-46.562 40.8673L-45.1227 40.9126L-43.2544 46.6542L-44.5178 46.6144L-44.8956 45.3939L-47.0785 45.3252L-47.5323 46.5195L-48.7877 46.48ZM-46.7032 44.3365L-45.2 44.3839L-45.8826 42.1693L-46.7032 44.3365ZM-40.2801 46.8759C-40.7972 46.8596 -41.2546 46.7278 -41.6524 46.4805C-42.0448 46.2334 -42.3486 45.885 -42.5639 45.4353C-42.7739 44.9858 -42.8691 44.4519 -42.8497 43.8335C-42.8307 43.2312 -42.705 42.7122 -42.4725 42.2766C-42.2399 41.8357 -41.9171 41.4991 -41.5042 41.2666C-41.0914 41.0341 -40.6131 40.9265 -40.0694 40.9436C-39.3284 40.9669 -38.7585 41.1689 -38.3596 41.5497C-37.9552 41.9252 -37.705 42.4534 -37.6091 43.1341L-38.874 43.1423C-38.9267 42.7831 -39.0566 42.5015 -39.2636 42.2976C-39.4704 42.0883 -39.7498 41.9781 -40.1016 41.9671C-40.4054 41.9575 -40.6665 42.0293 -40.8848 42.1825C-41.103 42.3357 -41.2727 42.5572 -41.3939 42.8468C-41.5151 43.1365 -41.5819 43.4786 -41.5943 43.873C-41.6069 44.2729 -41.5618 44.6211 -41.4591 44.9178C-41.3509 45.2094 -41.1926 45.4358 -40.9842 45.5971C-40.7759 45.7584 -40.5251 45.8437 -40.2319 45.8529C-39.8481 45.865 -39.5489 45.7677 -39.3343 45.561C-39.1142 45.3491 -38.9714 45.0522 -38.906 44.67L-37.6362 44.758C-37.7254 45.2194 -37.8844 45.6093 -38.1132 45.9276C-38.342 46.2459 -38.6377 46.4874 -39.0004 46.652C-39.3578 46.8169 -39.7844 46.8915 -40.2801 46.8759ZM-36.6977 46.8606L-36.519 41.1834L-35.3036 41.2216L-35.3817 43.7004L-33.2407 41.2866L-31.8254 41.3311L-33.9911 43.7682L-31.8761 47.0123L-33.2594 46.9688L-34.8164 44.5586L-35.4297 45.2277L-35.4823 46.8988L-36.6977 46.8606ZM-29.0456 47.1014L-28.8669 41.4243L-24.9488 41.5476L-24.981 42.5711L-28.3554 42.4649L-27.6618 41.7904L-27.7436 44.3891L-28.3987 43.8402L-25.1683 43.9419L-25.2 44.9494L-28.4304 44.8477L-27.7421 44.3411L-27.8302 47.1397L-29.0456 47.1014ZM-24.1693 47.2549L-23.9906 41.5777L-21.5038 41.656C-21.088 41.6691 -20.7304 41.7497 -20.4309 41.8979C-20.126 42.0462 -19.895 42.2509 -19.7378 42.512C-19.5805 42.7678 -19.5072 43.0689 -19.5182 43.4154C-19.5264 43.6766 -19.5896 43.9067 -19.708 44.1057C-19.821 44.3049 -19.9754 44.4655 -20.1714 44.5874C-20.362 44.7095 -20.5804 44.7826 -20.8266 44.8069L-20.8483 44.7342C-20.4698 44.7461 -20.1846 44.8378 -19.9925 45.0092C-19.8003 45.1754 -19.6962 45.4268 -19.6801 45.7634L-19.5875 47.3992L-20.8269 47.3601L-20.8856 45.9176C-20.8947 45.6985 -20.9589 45.5364 -21.0783 45.4313C-21.1923 45.321 -21.3932 45.2613 -21.681 45.2522L-22.8884 45.2142L-22.9539 47.2932L-24.1693 47.2549ZM-22.8565 44.1987L-21.721 44.2345C-21.4278 44.2437 -21.1992 44.1842 -21.0351 44.056C-20.8654 43.9226 -20.7767 43.7306 -20.7688 43.4801C-20.7608 43.2242 -20.8373 43.0297 -20.9986 42.8965C-21.1596 42.7581 -21.3974 42.6839 -21.7119 42.674L-22.8074 42.6395L-22.8565 44.1987ZM-18.434 47.4355L-18.2553 41.7583L-17.0399 41.7965L-17.2186 47.4737L-18.434 47.4355ZM-15.9861 47.5125L-15.8074 41.8353L-13.8484 41.897C-12.9262 41.926 -12.225 42.1962 -11.7449 42.7076C-11.2645 43.2136 -11.0387 43.9224 -11.0674 44.8339C-11.0959 45.7402 -11.3631 46.4308 -11.869 46.9057C-12.3695 47.3809 -13.0729 47.6042 -13.9791 47.5757L-15.9861 47.5125ZM-14.7385 46.5273L-13.9949 46.5507C-13.4458 46.568 -13.0361 46.4341 -12.7656 46.1492C-12.4897 45.859 -12.342 45.4048 -12.3225 44.7864C-12.3031 44.1681 -12.422 43.7081 -12.6793 43.4065C-12.9311 43.0998 -13.3315 42.9378 -13.8806 42.9205L-14.6242 42.8971L-14.7385 46.5273ZM-10.8468 47.6743L-8.6211 42.0615L-7.18182 42.1068L-5.31353 47.8485L-6.57691 47.8087L-6.95469 46.5882L-9.13761 46.5195L-9.59141 47.7138L-10.8468 47.6743ZM-8.76232 45.5308L-7.25907 45.5781L-7.94173 43.3635L-8.76232 45.5308ZM-3.73481 47.8981L-3.66535 45.6912L-5.53114 42.1588L-4.1878 42.2011L-3.0204 44.527L-1.71702 42.2788L-0.373689 42.3211L-2.44995 45.7295L-2.51942 47.9364L-3.73481 47.8981Z" fill="#151207"/>
<path d="M4.36434 48.2811C3.87391 48.2657 3.45539 48.1698 3.10877 47.9935C2.76214 47.8172 2.49491 47.5767 2.30707 47.2719C2.11923 46.9672 2.01836 46.6118 2.00446 46.2059L3.22962 46.1884C3.25455 46.4133 3.31248 46.6072 3.4034 46.7702C3.49982 46.9279 3.62939 47.0494 3.79213 47.1346C3.96019 47.2199 4.16683 47.2664 4.41204 47.2742C4.61461 47.2805 4.78595 47.2619 4.92605 47.2183C5.07149 47.1748 5.18304 47.1063 5.26069 47.0127C5.33851 46.9138 5.37968 46.7924 5.38421 46.6484C5.3884 46.5152 5.36003 46.3995 5.29908 46.3016C5.2383 46.1983 5.11855 46.1038 4.93982 46.0181C4.76126 45.9271 4.49733 45.8361 4.14802 45.7451C3.66645 45.6179 3.27859 45.4803 2.98443 45.3323C2.6956 45.1844 2.48783 45.0045 2.36111 44.7924C2.23455 44.575 2.17631 44.3063 2.18637 43.9865C2.19711 43.6453 2.28914 43.3494 2.46244 43.0987C2.64108 42.8482 2.89258 42.6561 3.21695 42.5222C3.54133 42.3883 3.92474 42.3284 4.36718 42.3423C4.83628 42.3571 5.23082 42.4522 5.55079 42.6277C5.87076 42.8032 6.11684 43.0377 6.28902 43.3313C6.46653 43.625 6.56808 43.959 6.59364 44.3333L5.37623 44.359C5.36645 44.1613 5.31851 43.989 5.23242 43.8423C5.1465 43.6901 5.0275 43.5717 4.87543 43.4869C4.72335 43.402 4.53804 43.3562 4.31948 43.3493C4.04228 43.3406 3.82179 43.395 3.65801 43.5126C3.49956 43.6303 3.41724 43.7878 3.41103 43.985C3.40666 44.1236 3.43762 44.242 3.5039 44.3401C3.57568 44.4331 3.6931 44.5168 3.85617 44.5913C4.02457 44.666 4.26236 44.7402 4.56952 44.8139C5.09391 44.9371 5.50542 45.0861 5.80407 45.2609C6.10822 45.4306 6.32073 45.6294 6.44162 45.8573C6.56251 46.0852 6.61843 46.3431 6.60937 46.631C6.59829 46.9828 6.49802 47.2865 6.30856 47.5419C6.12459 47.7923 5.86517 47.9816 5.53031 48.1097C5.20077 48.2381 4.81212 48.2952 4.36434 48.2811ZM6.94846 48.2344L9.17414 42.6217L10.6134 42.667L12.4817 48.4086L11.2183 48.3688L10.8406 47.1483L8.65764 47.0796L8.20384 48.2739L6.94846 48.2344ZM9.03293 46.0909L10.5362 46.1383L9.85352 43.9237L9.03293 46.0909ZM13.2563 48.433L13.435 42.7558L14.6504 42.794L14.482 48.1434L13.8322 47.4266L17.1186 47.53L17.0864 48.5535L13.2563 48.433ZM17.8671 48.5781L18.0458 42.9009L21.9959 43.0253L21.9636 44.0487L19.229 43.9627L19.188 45.266L21.8267 45.3491L21.7949 46.3566L19.1563 46.2735L19.1147 47.5929L21.9133 47.681L21.8811 48.7045L17.8671 48.5781Z" fill="white"/>
<path d="M39.1107 49.2495L39.2894 43.5723L41.4963 43.6418C42.2 43.6639 42.7344 43.8061 43.0997 44.0684C43.4651 44.3254 43.6395 44.7204 43.6227 45.2534C43.6153 45.488 43.5609 45.6917 43.4594 45.8646C43.3581 46.0322 43.2125 46.1637 43.0227 46.2591C42.8383 46.3546 42.6152 46.409 42.3533 46.4221L42.3538 46.4061C42.8272 46.453 43.1853 46.603 43.4282 46.8561C43.6765 47.1041 43.7944 47.4279 43.7818 47.8277C43.7652 48.3555 43.5662 48.7441 43.1848 48.9935C42.8089 49.2378 42.2772 49.3491 41.5895 49.3275L39.1107 49.2495ZM40.3573 48.2962L41.5647 48.3342C41.8579 48.3435 42.0943 48.2922 42.2739 48.1805C42.459 48.0636 42.5554 47.8852 42.5629 47.6453C42.5705 47.4054 42.4855 47.2213 42.3082 47.093C42.1363 46.9595 41.9037 46.8882 41.6105 46.8789L40.4031 46.8409L40.3573 48.2962ZM40.4308 45.9614L41.3904 45.9916C41.6889 46.001 41.9279 45.9498 42.1075 45.8381C42.2925 45.7265 42.3884 45.5614 42.3953 45.3429C42.4026 45.1083 42.3201 44.935 42.1475 44.8228C41.9804 44.7055 41.7423 44.642 41.4331 44.6323L40.4736 44.6021L40.4308 45.9614ZM44.8929 49.4315L45.0716 43.7543L46.287 43.7925L46.1186 49.1419L45.4688 48.4251L48.7552 48.5285L48.723 49.552L44.8929 49.4315ZM49.1654 49.566L51.3911 43.9532L52.8304 43.9985L54.6987 49.7401L53.4353 49.7004L53.0575 48.4799L50.8746 48.4112L50.4208 49.6055L49.1654 49.566ZM51.2499 47.4225L52.7532 47.4698L52.0705 45.2552L51.2499 47.4225ZM57.673 49.9618C57.1559 49.9455 56.6985 49.8138 56.3008 49.5665C55.9083 49.3193 55.6045 48.9709 55.3892 48.5213C55.1792 48.0718 55.084 47.5378 55.1035 46.9195C55.1224 46.3171 55.2481 45.7981 55.4806 45.3626C55.7133 44.9217 56.036 44.585 56.4489 44.3525C56.8617 44.1201 57.34 44.0124 57.8838 44.0295C58.6247 44.0528 59.1946 44.2549 59.5935 44.6356C59.9979 45.0112 60.2481 45.5393 60.3441 46.22L59.0792 46.2282C59.0264 45.869 58.8966 45.5875 58.6896 45.3835C58.4827 45.1743 58.2034 45.0641 57.8515 45.053C57.5477 45.0434 57.2866 45.1153 57.0684 45.2685C56.8501 45.4217 56.6804 45.6431 56.5592 45.9328C56.438 46.2224 56.3712 46.5645 56.3588 46.959C56.3462 47.3588 56.3913 47.707 56.494 48.0038C56.6022 48.2953 56.7605 48.5217 56.9689 48.683C57.1773 48.8443 57.428 48.9296 57.7212 48.9388C58.105 48.9509 58.4042 48.8536 58.6188 48.6469C58.839 48.4351 58.9817 48.1381 59.0471 47.756L60.3169 47.844C60.2277 48.3054 60.0687 48.6952 59.8399 49.0135C59.6111 49.3318 59.3154 49.5733 58.9527 49.738C58.5953 49.9028 58.1688 49.9774 57.673 49.9618ZM61.2554 49.9465L61.4341 44.2693L62.6495 44.3076L62.5715 46.7864L64.7125 44.3725L66.1278 44.4171L63.962 46.8541L66.077 50.0983L64.6937 50.0547L63.1367 47.6446L62.5234 48.3136L62.4708 49.9848L61.2554 49.9465ZM68.9075 50.1874L69.0862 44.5102L73.0043 44.6335L72.9721 45.657L69.5977 45.5508L70.2913 44.8763L70.2095 47.475L69.5545 46.9261L72.7849 47.0278L72.7531 48.0353L69.5227 47.9336L70.211 47.427L70.1229 50.2256L68.9075 50.1874ZM73.7839 50.3409L73.9626 44.6637L76.4493 44.742C76.8651 44.755 77.2228 44.8357 77.5223 44.9838C77.8271 45.1322 78.0581 45.3369 78.2153 45.5979C78.3726 45.8537 78.4459 46.1548 78.435 46.5013C78.4267 46.7625 78.3635 46.9926 78.2452 47.1917C78.1322 47.3909 77.9777 47.5514 77.7818 47.6733C77.5912 47.7954 77.3728 47.8686 77.1265 47.8928L77.1048 47.8201C77.4833 47.832 77.7686 47.9237 77.9606 48.0952C78.1528 48.2613 78.2569 48.5127 78.273 48.8494L78.3656 50.4851L77.1262 50.4461L77.0676 49.0035C77.0585 48.7845 76.9942 48.6224 76.8748 48.5172C76.7609 48.4069 76.56 48.3472 76.2721 48.3382L75.0647 48.3002L74.9993 50.3791L73.7839 50.3409ZM75.0967 47.2847L76.2321 47.3204C76.5253 47.3296 76.754 47.2701 76.9181 47.1419C77.0877 47.0085 77.1764 46.8165 77.1843 46.566C77.1924 46.3101 77.1158 46.1156 76.9546 45.9825C76.7935 45.844 76.5557 45.7698 76.2412 45.7599L75.1458 45.7254L75.0967 47.2847ZM79.5192 50.5214L79.6979 44.8442L80.9133 44.8825L80.7346 50.5597L79.5192 50.5214ZM81.967 50.5985L82.1457 44.9213L84.1047 44.9829C85.0269 45.012 85.7281 45.2822 86.2083 45.7935C86.6886 46.2995 86.9144 47.0083 86.8857 47.9199C86.8572 48.8261 86.59 49.5167 86.0841 49.9917C85.5836 50.4668 84.8802 50.6902 83.974 50.6616L81.967 50.5985ZM83.2146 49.6132L83.9583 49.6366C84.5073 49.6539 84.9171 49.5201 85.1875 49.2351C85.4634 48.945 85.6111 48.4907 85.6306 47.8724C85.65 47.254 85.5311 46.794 85.2738 46.4925C85.022 46.1857 84.6216 46.0237 84.0725 46.0064L83.3289 45.983L83.2146 49.6132ZM87.1063 50.7602L89.332 45.1475L90.7713 45.1928L92.6396 50.9344L91.3762 50.8946L90.9984 49.6741L88.8155 49.6054L88.3617 50.7997L87.1063 50.7602ZM89.1908 48.6167L90.6941 48.6641L90.0114 46.4495L89.1908 48.6167ZM94.2183 50.9841L94.2878 48.7772L92.422 45.2447L93.7653 45.287L94.9327 47.6129L96.2361 45.3648L97.5794 45.4071L95.5032 48.8154L95.4337 51.0223L94.2183 50.9841Z" fill="#151207"/>
<path d="M102.317 51.3671C101.827 51.3516 101.409 51.2558 101.062 51.0794C100.715 50.9031 100.448 50.6626 100.26 50.3579C100.072 50.0531 99.9715 49.6978 99.9576 49.2918L101.183 49.2743C101.208 49.4992 101.266 49.6932 101.357 49.8561C101.453 50.0139 101.583 50.1354 101.745 50.2205C101.913 50.3058 102.12 50.3524 102.365 50.3601C102.568 50.3665 102.739 50.3478 102.879 50.3042C103.025 50.2608 103.136 50.1923 103.214 50.0987C103.292 49.9997 103.333 49.8783 103.337 49.7344C103.342 49.6011 103.313 49.4855 103.252 49.3875C103.191 49.2842 103.072 49.1897 102.893 49.1041C102.714 49.0131 102.45 48.9221 102.101 48.831C101.62 48.7038 101.232 48.5662 100.938 48.4182C100.649 48.2704 100.441 48.0904 100.314 47.8783C100.188 47.6609 100.129 47.3923 100.139 47.0724C100.15 46.7313 100.242 46.4354 100.416 46.1847C100.594 45.9342 100.846 45.742 101.17 45.6081C101.494 45.4743 101.878 45.4143 102.32 45.4282C102.789 45.443 103.184 45.5381 103.504 45.7136C103.824 45.8891 104.07 46.1236 104.242 46.4172C104.42 46.7109 104.521 47.0449 104.547 47.4193L103.329 47.445C103.32 47.2472 103.272 47.075 103.186 46.9282C103.1 46.7761 102.981 46.6576 102.829 46.5728C102.676 46.488 102.491 46.4421 102.273 46.4352C101.995 46.4265 101.775 46.4809 101.611 46.5985C101.453 46.7162 101.37 46.8737 101.364 47.071C101.36 47.2096 101.391 47.3279 101.457 47.4261C101.529 47.519 101.646 47.6028 101.809 47.6773C101.978 47.7519 102.215 47.8261 102.523 47.8998C103.047 48.023 103.459 48.1721 103.757 48.3469C104.061 48.5165 104.274 48.7153 104.395 48.9432C104.516 49.1712 104.572 49.429 104.562 49.7169C104.551 50.0687 104.451 50.3724 104.262 50.6279C104.078 50.8782 103.818 51.0675 103.483 51.1957C103.154 51.324 102.765 51.3812 102.317 51.3671ZM104.902 51.3204L107.127 45.7076L108.567 45.7529L110.435 51.4945L109.171 51.4548L108.794 50.2343L106.611 50.1656L106.157 51.3599L104.902 51.3204ZM106.986 49.1769L108.489 49.2242L107.807 47.0096L106.986 49.1769ZM111.209 51.5189L111.388 45.8417L112.603 45.88L112.435 51.2293L111.785 50.5125L115.072 50.616L115.04 51.6395L111.209 51.5189ZM115.82 51.664L115.999 45.9869L119.949 46.1112L119.917 47.1347L117.182 47.0486L117.141 48.352L119.78 48.435L119.748 49.4425L117.109 49.3595L117.068 50.6788L119.866 50.7669L119.834 51.7904L115.82 51.664Z" fill="white"/>
</g>
<path d="M109.676 21.0054C110.346 20.9538 111.016 20.9023 111.737 20.9023C112.459 20.9023 113.284 21.0054 114.212 21.2116C115.14 21.4178 115.81 21.7786 116.325 22.2941C116.892 22.8611 117.15 23.5312 117.15 24.2529C117.15 24.9746 116.944 25.6962 116.583 26.3664C116.171 27.088 115.604 27.8097 114.779 28.5314C112.459 30.6448 109.469 31.7273 105.809 31.7273C104.83 31.7273 103.954 31.6243 103.232 31.4181C102.459 31.2119 101.995 31.0572 101.737 30.9026C101.531 30.7479 101.222 30.5417 100.912 30.284C100.603 30.0263 100.5 29.8716 100.706 29.8716C100.809 29.8716 101.067 29.9747 101.479 30.1294C101.943 30.284 102.768 30.3871 103.954 30.3871C105.139 30.3871 106.428 30.2325 107.82 29.9747C109.212 29.717 110.346 29.3046 111.325 28.7376C112.304 28.1705 113.078 27.552 113.645 26.8818C114.315 26.0571 114.676 25.2323 114.676 24.356C114.676 23.8921 114.573 23.4281 114.315 22.9642C114.057 22.5003 113.593 22.1394 112.82 21.8817C112.098 21.624 111.428 21.5209 110.81 21.5209C110.191 21.5209 109.572 21.5209 108.799 21.624C108.026 21.6755 107.098 21.9333 105.913 22.3456C104.727 22.758 103.954 23.2735 103.593 23.789C103.18 24.356 102.871 24.8715 102.562 25.387C102.304 25.8509 101.995 26.3664 101.737 26.9334C101.428 27.5004 101.222 27.9128 101.067 28.1705C100.964 28.4283 100.809 28.5314 100.706 28.5314C100.603 28.5314 100.5 28.4798 100.5 28.3252C100.5 27.7582 101.17 26.3664 102.562 24.2529C103.954 22.1394 105.242 20.2322 106.531 18.5826C107.768 16.9331 108.541 16.1083 108.748 16.1083C108.851 16.1083 108.954 16.1083 109.005 16.263C109.057 16.3661 109.108 16.4692 109.108 16.5723C106.892 19.3559 105.552 21.0569 105.088 21.624C111.583 20.5415 115.552 18.995 116.944 16.9847C117.15 16.6238 117.253 16.3145 117.253 16.0053C117.253 15.696 117.098 15.4382 116.841 15.1805C116.274 14.665 115.191 14.4073 113.645 14.4073C112.098 14.4073 110.036 14.7681 107.511 15.4898C104.985 16.2114 103.232 16.9847 102.201 17.861C101.892 18.1187 101.789 18.2734 101.892 18.428C101.995 18.5826 101.995 18.6857 101.943 18.6857C101.892 18.6857 101.84 18.6857 101.737 18.6342C101.376 18.428 101.119 18.1703 101.015 17.8094C100.912 17.4486 100.861 17.2424 100.861 17.0878C100.861 16.9331 100.861 16.83 101.015 16.7269C101.789 15.6444 103.541 14.665 106.325 13.7887C109.108 12.9124 111.222 12.5 112.717 12.5C115.655 12.5 117.511 13.0155 118.284 13.9949C118.593 14.3557 118.748 14.8197 118.748 15.232C118.748 15.9022 118.387 16.6238 117.562 17.397C115.758 19.0981 113.129 20.3353 109.779 21.1085L109.676 21.0054Z" fill="#151207"/>
<path d="M119.11 29.1008C119.11 29.5647 119.368 29.8225 119.832 29.8225C120.09 29.8225 120.554 29.7194 121.172 29.4617C121.791 29.2555 122.564 28.74 123.543 27.9668C124.523 27.1935 125.193 26.6265 125.502 26.2657C125.863 25.9049 126.018 25.7502 126.121 25.7502C126.172 25.7502 126.224 25.8018 126.224 25.9049C126.224 26.0079 126.172 26.0595 126.069 26.1626C124.574 27.709 123.286 28.7915 122.306 29.5132C121.327 30.1833 120.399 30.4926 119.523 30.4926C118.801 30.4926 118.286 30.338 118.028 29.9771C117.77 29.6163 117.615 29.2555 117.615 28.7915C117.615 28.0183 117.925 27.0389 118.492 25.9049C117.461 26.9874 116.945 27.3482 116.945 26.9874C116.945 26.9358 116.997 26.8327 117.1 26.7296C117.925 26.0595 118.853 25.0801 119.78 23.7914C121.533 21.5233 122.925 19.4614 123.904 17.7603C124.11 17.3995 124.162 17.1933 124.162 16.9871C124.162 16.6262 123.956 16.5231 123.543 16.7809C123.08 16.9871 122.822 17.0902 122.822 17.0386C122.822 16.9871 122.822 16.9355 122.925 16.8324C123.337 16.5231 123.956 16.2139 124.677 15.9561C125.451 15.6984 126.018 15.5437 126.533 15.4922C127.255 15.4922 127.667 15.7499 127.667 16.1623C127.667 16.42 127.564 16.7809 127.306 17.2448C127.049 17.7087 126.327 18.5851 125.09 19.8738C123.853 21.214 123.131 22.0388 122.873 22.3481C121.018 24.7708 119.884 26.6265 119.368 28.0699C119.265 28.4307 119.162 28.74 119.162 28.9977L119.11 29.1008Z" fill="#151207"/>
<path d="M134.727 26.11C134.727 26.11 134.314 26.5739 134.108 26.8316C133.902 27.0894 133.644 27.4502 133.335 27.9141C133.026 28.3781 132.871 28.7389 132.871 29.0997C132.871 29.4606 133.026 29.5637 133.284 29.5637C133.541 29.5637 134.005 29.409 134.624 29.0482C135.861 28.3265 137.253 27.2956 138.748 25.8522C138.902 25.6976 139.057 25.646 139.108 25.7491V25.8522C139.108 25.8522 139.108 25.9553 139.005 26.0584C135.964 28.9451 133.747 30.3884 132.356 30.3884C131.943 30.3884 131.582 30.2338 131.325 29.976C131.067 29.7183 130.912 29.3575 130.912 28.9966C130.912 28.6358 131.067 28.0688 131.376 27.2956C130.551 28.275 129.727 29.0482 128.799 29.6152C127.871 30.1307 127.149 30.44 126.634 30.44C126.118 30.44 125.654 30.2853 125.294 29.976C124.933 29.6668 124.727 29.2544 124.727 28.842C124.727 27.5017 125.294 26.2646 126.479 24.9759C127.356 24.048 128.49 23.3779 129.778 22.9655C130.345 22.7593 130.964 22.6562 131.479 22.6562C131.995 22.6562 132.562 22.8109 133.129 23.1202C133.644 23.4295 134.005 23.7903 134.108 24.2542C134.624 24.2542 135.036 24.4604 135.242 24.8213C135.242 24.8728 135.294 24.9759 135.294 25.079C135.294 25.1821 135.242 25.3367 135.088 25.4914C134.933 25.646 134.778 25.8522 134.624 26.0584L134.727 26.11ZM132.768 23.4295C132.407 23.4295 131.943 23.5326 131.428 23.7903C130.551 24.1511 129.675 24.8728 128.85 25.8007C127.562 27.3471 126.892 28.4296 126.892 29.1513C126.892 29.5121 127.046 29.7183 127.356 29.7183C127.613 29.7183 128.026 29.5637 128.593 29.2544C129.16 28.9451 129.933 28.3265 130.861 27.3471C130.912 27.2956 131.118 27.0894 131.479 26.7801C131.84 26.4708 132.149 26.1615 132.407 25.9038C133.232 25.0275 133.644 24.4089 133.644 24.048C133.644 23.6872 133.335 23.481 132.768 23.481V23.4295Z" fill="#151207"/>
<path d="M145.499 23.8903C145.499 23.5295 145.345 23.3749 144.984 23.3749C144.675 23.3749 144.211 23.5295 143.592 23.7872C142.973 24.045 142.252 24.6635 141.479 25.5399C140.551 26.6739 140.087 27.6533 140.087 28.5296C140.087 29.1998 140.345 29.6121 140.808 29.8699C140.963 29.9214 141.169 29.973 141.376 29.973C142.097 29.973 142.973 29.6637 143.953 29.0451C144.932 28.4265 146.221 27.3956 147.767 25.9522C148.025 25.6945 148.128 25.6945 148.128 25.9522C148.128 26.0553 148.077 26.1584 147.974 26.2615C145.809 28.2719 144.211 29.509 143.18 29.973C142.149 30.4369 141.376 30.6946 140.757 30.6946C138.695 30.6946 137.664 29.973 137.664 28.4265C137.664 26.8801 138.334 25.5914 139.726 24.5089C141.066 23.4264 142.51 22.8594 143.953 22.8594C144.881 22.8594 145.499 23.0656 145.809 23.4779C146.015 23.6841 146.118 23.9419 146.118 24.1481C146.118 24.3543 146.066 24.612 145.912 24.9213C145.757 25.179 145.602 25.2821 145.293 25.2821C144.984 25.2821 144.984 25.1275 145.19 24.7666C145.396 24.4058 145.499 24.1481 145.499 23.8903Z" fill="#151207"/>
<path d="M148.284 27.7552C147.82 28.9408 147.562 29.9203 147.562 30.745C147.562 31.5698 147.665 32.0853 147.923 32.343C147.923 32.3945 147.975 32.4461 147.923 32.4976C147.923 32.4976 147.871 32.4976 147.82 32.4976C147.82 32.4976 147.82 32.4976 147.768 32.4976C147.201 32.0337 146.892 31.5182 146.789 30.9512C146.789 30.745 146.737 30.5388 146.737 30.3326C146.737 29.3017 147.047 28.013 147.665 26.5181C146.789 27.3944 146.325 27.7552 146.273 27.5491C146.273 27.3944 146.428 27.1882 146.634 26.982C146.84 26.7758 147.407 26.1573 148.181 25.1778C149.933 21.2602 152.305 17.9612 155.14 15.2807C156.635 13.8889 157.975 13.2188 159.212 13.2188C160.191 13.2188 160.758 13.6311 160.965 14.4559C160.965 14.559 161.016 14.7136 161.016 14.8683C161.016 16.3632 159.521 18.1673 156.48 20.2293C155.449 20.9509 154.47 21.4664 153.593 21.8788C153.387 21.9819 153.232 21.9303 153.232 21.8788C153.232 21.7757 153.284 21.6726 153.49 21.5695C154.315 21.2087 155.243 20.6416 156.274 19.8684C157.305 19.1468 158.233 18.322 159.057 17.4457C159.882 16.5694 160.346 15.8992 160.346 15.3838C160.346 15.0745 160.191 14.9198 159.831 14.9198C159.47 14.9198 159.006 15.126 158.387 15.4869C156.635 16.5694 154.676 18.4766 152.562 21.2087C151.222 22.9097 150.191 24.4562 149.315 25.848C150.552 24.1984 151.841 23.1159 153.129 22.5489C153.645 22.3943 154.057 22.2912 154.366 22.2912C154.676 22.2912 154.985 22.3427 155.243 22.4458C155.707 22.652 155.964 23.0128 155.964 23.5283C155.964 24.4046 155.449 25.2294 154.366 26.0026C153.748 26.415 153.078 26.7243 152.305 26.9305C151.531 27.0851 150.964 27.1882 150.552 27.1882C150.14 27.1882 149.83 27.1367 149.572 27.0336C150.14 27.7552 150.861 28.3738 151.789 28.9408C152.717 29.4563 153.439 29.7656 154.006 29.7656C154.366 29.7656 154.676 29.6625 154.882 29.5079C155.088 29.3532 155.191 29.1986 155.191 29.0439C155.191 28.9408 155.191 28.8893 155.243 28.8893C155.243 28.8893 155.294 28.8893 155.294 28.9408C155.294 29.5594 154.83 29.9718 153.851 30.2295C153.49 30.3326 152.975 30.3842 152.356 30.3842C151.738 30.3842 151.067 30.178 150.346 29.8172C149.212 29.3017 148.438 28.6831 148.078 27.9099L148.284 27.7552ZM154.16 24.1984C154.16 23.5799 153.851 23.2706 153.284 23.2706C152.614 23.2706 151.841 23.6314 151.016 24.4046C150.191 25.1263 149.572 25.7449 149.212 26.2604C149.212 26.3635 149.315 26.4665 149.418 26.6212C149.624 26.7758 149.882 26.8274 150.14 26.8274C150.397 26.8274 150.861 26.7243 151.48 26.5696C152.098 26.415 152.717 26.1057 153.284 25.6418C153.851 25.1778 154.16 24.7139 154.16 24.1984Z" fill="#151207"/>
<path d="M174.165 15.8251H169.631V20.9985H173.526V23.2655H169.631V31.0546H167.016V13.5H174.165V15.8251Z" fill="#151207"/>
<path d="M184.627 31.0546H181.895L178.989 22.9167V21.3472H181.546V15.767H178.233V31.0546H175.617V13.5H182.593C183.639 13.5 184.162 14.0231 184.162 15.1276V21.5216C184.162 22.2773 183.929 22.7423 183.406 22.9748C183.116 23.0911 182.593 23.1492 181.721 23.1492L184.627 31.1127V31.0546Z" fill="#151207"/>
<path d="M188.928 31.0546H186.312V13.5H188.928V31.0546Z" fill="#151207"/>
<path d="M199.801 27.7413C199.801 28.7876 199.51 29.6014 198.871 30.1827C198.231 30.7639 197.417 31.0546 196.371 31.0546H191.023V13.5H196.371C197.417 13.5 198.231 13.7906 198.871 14.3719C199.51 14.9532 199.801 15.767 199.801 16.8133V27.7413ZM197.185 27.3344V17.2783C197.185 16.2901 196.662 15.8251 195.616 15.8251H193.697V28.8457H195.557C196.604 28.8457 197.185 28.3226 197.185 27.3344Z" fill="#151207"/>
<path d="M210.732 31.0546H208.116L207.593 27.7413H204.28L203.756 31.0546H201.141L204.512 13.5H207.244L210.615 31.0546H210.732ZM207.244 25.4743L205.965 17.5689L204.686 25.4743H207.244Z" fill="#151207"/>
<path d="M221.013 13.6163L218.688 20.9404C218.397 21.6379 218.048 22.8586 217.525 24.6024V31.0546H214.91V24.6024C214.793 24.0211 214.619 23.3817 214.386 22.7423C213.979 21.6379 213.747 20.9985 213.747 20.9404L211.422 13.6163C211.422 13.6163 211.422 13.6163 211.422 13.5H214.096L216.188 21.1147L218.281 13.5H220.955V13.6163H221.013Z" fill="#151207"/>
<path d="M237.095 31C237.095 29.24 237.319 27.52 237.767 25.84C238.231 24.16 238.879 22.552 239.711 21.016C240.559 19.464 241.559 18.016 242.711 16.672H233.519V13.96H245.951V16.504C244.671 17.944 243.607 19.4 242.759 20.872C241.911 22.328 241.279 23.888 240.863 25.552C240.463 27.2 240.263 29.016 240.263 31H237.095ZM247.369 31C247.369 29.624 247.561 28.424 247.945 27.4C248.329 26.36 248.977 25.416 249.889 24.568C250.801 23.704 252.033 22.864 253.585 22.048C254.353 21.632 254.969 21.264 255.433 20.944C255.897 20.624 256.233 20.296 256.441 19.96C256.649 19.608 256.753 19.192 256.753 18.712C256.753 18.232 256.649 17.816 256.441 17.464C256.233 17.096 255.921 16.808 255.505 16.6C255.105 16.392 254.601 16.288 253.993 16.288C253.017 16.288 252.241 16.568 251.665 17.128C251.105 17.672 250.761 18.456 250.633 19.48L247.417 19.288C247.577 17.512 248.225 16.12 249.361 15.112C250.513 14.088 252.057 13.576 253.993 13.576C255.241 13.576 256.313 13.792 257.209 14.224C258.105 14.64 258.785 15.232 259.249 16C259.729 16.768 259.969 17.656 259.969 18.664C259.969 19.528 259.817 20.272 259.513 20.896C259.225 21.52 258.745 22.096 258.073 22.624C257.417 23.136 256.529 23.688 255.409 24.28C254.001 25.032 252.945 25.76 252.241 26.464C251.537 27.152 251.161 27.76 251.113 28.288H259.969V31H247.369ZM266.176 22.216C265.056 22.216 264.128 21.864 263.392 21.16C262.656 20.456 262.288 19.4 262.288 17.992C262.288 16.584 262.656 15.528 263.392 14.824C264.128 14.12 265.056 13.768 266.176 13.768C267.312 13.768 268.24 14.12 268.96 14.824C269.696 15.528 270.064 16.584 270.064 17.992C270.064 19.4 269.696 20.456 268.96 21.16C268.24 21.864 267.312 22.216 266.176 22.216ZM266.176 20.488C266.736 20.488 267.152 20.28 267.424 19.864C267.712 19.432 267.856 18.808 267.856 17.992C267.856 17.176 267.712 16.56 267.424 16.144C267.152 15.712 266.736 15.496 266.176 15.496C265.632 15.496 265.216 15.712 264.928 16.144C264.64 16.56 264.496 17.176 264.496 17.992C264.496 18.808 264.64 19.432 264.928 19.864C265.216 20.28 265.632 20.488 266.176 20.488ZM276.16 31.192C275.04 31.192 274.112 30.84 273.376 30.136C272.64 29.432 272.272 28.376 272.272 26.968C272.272 25.56 272.64 24.504 273.376 23.8C274.112 23.096 275.04 22.744 276.16 22.744C277.296 22.744 278.224 23.096 278.944 23.8C279.664 24.504 280.024 25.56 280.024 26.968C280.024 28.376 279.664 29.432 278.944 30.136C278.224 30.84 277.296 31.192 276.16 31.192ZM276.16 29.464C276.72 29.464 277.136 29.256 277.408 28.84C277.696 28.408 277.84 27.784 277.84 26.968C277.84 26.152 277.696 25.536 277.408 25.12C277.136 24.688 276.72 24.472 276.16 24.472C275.616 24.472 275.2 24.688 274.912 25.12C274.624 25.536 274.48 26.152 274.48 26.968C274.48 27.784 274.624 28.408 274.912 28.84C275.2 29.256 275.616 29.464 276.16 29.464ZM264.376 31L275.848 13.96H277.96L266.488 31H264.376Z" fill="#EC020A"/>
<path d="M291.547 27.944C290.884 27.944 290.276 27.8334 289.723 27.5572C289.171 27.3361 288.729 26.9494 288.287 26.4521C287.844 25.8995 287.568 25.3469 287.347 24.6839C287.126 24.0208 287.016 23.3025 287.016 22.4736C287.016 21.6448 287.126 20.9265 287.347 20.2634C287.568 19.6004 287.9 18.9925 288.287 18.4952C288.673 17.9979 289.115 17.6664 289.668 17.4454C290.22 17.1691 290.828 17.0586 291.491 17.0586C292.154 17.0586 292.762 17.1691 293.315 17.4454C293.867 17.6664 294.309 18.0532 294.696 18.4952C295.083 18.9925 295.414 19.6004 295.636 20.2634C295.857 20.9265 295.967 21.6448 295.967 22.4736C295.967 23.3025 295.857 24.0208 295.636 24.6839C295.414 25.3469 295.138 25.8995 294.696 26.4521C294.309 26.9494 293.867 27.2809 293.315 27.5019C292.762 27.7782 292.21 27.8887 291.491 27.8887L291.547 27.944ZM291.547 25.8995C292.154 25.8995 292.652 25.6232 293.038 24.9602C293.425 24.3523 293.591 23.5235 293.591 22.5289C293.591 21.5343 293.425 20.6502 293.038 20.0424C292.652 19.4346 292.154 19.1583 291.491 19.1583C290.828 19.1583 290.386 19.4346 289.999 20.0977C289.613 20.7055 289.447 21.5343 289.447 22.5289C289.447 23.5235 289.668 24.4076 289.999 24.9602C290.386 25.568 290.884 25.8995 291.547 25.8995Z" fill="#151207"/>
<path d="M297.969 27.6693V17.2812H305.428V19.3257H300.289V21.3702H305.041V23.3041H300.289V27.7246H297.969V27.6693Z" fill="#151207"/>
<path d="M307.43 27.6693V17.2812H314.889V19.3257H309.75V21.3702H314.502V23.3041H309.75V27.7246H307.43V27.6693Z" fill="#151207"/>
<path d="M341.169 26.692C340.513 26.692 339.941 26.564 339.453 26.308C338.973 26.052 338.601 25.688 338.337 25.216C338.081 24.736 337.953 24.172 337.953 23.524V17.968H338.985V23.524C338.985 24.212 339.173 24.744 339.549 25.12C339.933 25.496 340.473 25.684 341.169 25.684C341.857 25.684 342.389 25.496 342.765 25.12C343.149 24.744 343.341 24.212 343.341 23.524V17.968H344.373V23.524C344.373 24.172 344.241 24.736 343.977 25.216C343.721 25.688 343.353 26.052 342.873 26.308C342.393 26.564 341.825 26.692 341.169 26.692ZM348.579 26.644C348.011 26.644 347.527 26.552 347.127 26.368C346.735 26.184 346.427 25.932 346.203 25.612C345.987 25.284 345.863 24.912 345.831 24.496L346.887 24.424C346.951 24.808 347.115 25.116 347.379 25.348C347.643 25.572 348.043 25.684 348.579 25.684C349.011 25.684 349.355 25.616 349.611 25.48C349.875 25.336 350.007 25.108 350.007 24.796C350.007 24.628 349.967 24.488 349.887 24.376C349.807 24.264 349.651 24.168 349.419 24.088C349.187 24 348.843 23.916 348.387 23.836C347.779 23.724 347.299 23.588 346.947 23.428C346.603 23.26 346.355 23.056 346.203 22.816C346.059 22.568 345.987 22.276 345.987 21.94C345.987 21.372 346.195 20.908 346.611 20.548C347.027 20.18 347.619 19.996 348.387 19.996C348.907 19.996 349.343 20.092 349.695 20.284C350.055 20.468 350.335 20.716 350.535 21.028C350.743 21.332 350.879 21.668 350.943 22.036L349.887 22.108C349.839 21.884 349.751 21.688 349.623 21.52C349.495 21.344 349.327 21.208 349.119 21.112C348.911 21.008 348.663 20.956 348.375 20.956C347.919 20.956 347.583 21.044 347.367 21.22C347.151 21.396 347.043 21.62 347.043 21.892C347.043 22.1 347.091 22.272 347.187 22.408C347.291 22.536 347.455 22.644 347.679 22.732C347.903 22.812 348.203 22.884 348.579 22.948C349.227 23.06 349.731 23.196 350.091 23.356C350.451 23.516 350.703 23.712 350.847 23.944C350.991 24.176 351.063 24.46 351.063 24.796C351.063 25.188 350.951 25.524 350.727 25.804C350.511 26.076 350.215 26.284 349.839 26.428C349.471 26.572 349.051 26.644 348.579 26.644ZM354.923 26.644C354.323 26.644 353.803 26.508 353.363 26.236C352.931 25.964 352.595 25.58 352.355 25.084C352.123 24.58 352.007 23.992 352.007 23.32C352.007 22.648 352.123 22.064 352.355 21.568C352.595 21.072 352.927 20.688 353.351 20.416C353.783 20.136 354.291 19.996 354.875 19.996C355.427 19.996 355.915 20.128 356.339 20.392C356.763 20.648 357.091 21.024 357.323 21.52C357.563 22.016 357.683 22.62 357.683 23.332V23.632H353.063C353.103 24.312 353.283 24.824 353.603 25.168C353.931 25.512 354.371 25.684 354.923 25.684C355.339 25.684 355.679 25.588 355.943 25.396C356.215 25.196 356.403 24.936 356.507 24.616L357.587 24.7C357.419 25.268 357.099 25.736 356.627 26.104C356.163 26.464 355.595 26.644 354.923 26.644ZM353.063 22.744H356.579C356.531 22.128 356.351 21.676 356.039 21.388C355.735 21.1 355.347 20.956 354.875 20.956C354.387 20.956 353.983 21.108 353.663 21.412C353.351 21.708 353.151 22.152 353.063 22.744ZM364.493 26.5C363.917 26.5 363.489 26.368 363.209 26.104C362.937 25.84 362.801 25.428 362.801 24.868V18.652H363.809V24.844C363.809 25.132 363.873 25.332 364.001 25.444C364.129 25.556 364.325 25.612 364.589 25.612H365.501V26.5H364.493ZM361.865 21.028V20.14H365.501V21.028H361.865ZM366.794 26.5V17.98H367.802V21.544L367.682 21.52C367.762 21.168 367.898 20.88 368.09 20.656C368.282 20.432 368.518 20.268 368.798 20.164C369.078 20.052 369.386 19.996 369.722 19.996C370.178 19.996 370.562 20.1 370.874 20.308C371.194 20.508 371.434 20.792 371.594 21.16C371.762 21.52 371.846 21.936 371.846 22.408V26.5H370.838V22.696C370.838 22.08 370.726 21.624 370.502 21.328C370.286 21.032 369.954 20.884 369.506 20.884C368.994 20.884 368.582 21.04 368.27 21.352C367.958 21.664 367.802 22.116 367.802 22.708V26.5H366.794ZM373.649 26.5V20.14H374.657V26.5H373.649ZM373.625 19.144V17.968H374.681V19.144H373.625ZM378.778 26.644C378.21 26.644 377.726 26.552 377.326 26.368C376.934 26.184 376.626 25.932 376.402 25.612C376.186 25.284 376.062 24.912 376.03 24.496L377.086 24.424C377.15 24.808 377.314 25.116 377.578 25.348C377.842 25.572 378.242 25.684 378.778 25.684C379.21 25.684 379.554 25.616 379.81 25.48C380.074 25.336 380.206 25.108 380.206 24.796C380.206 24.628 380.166 24.488 380.086 24.376C380.006 24.264 379.85 24.168 379.618 24.088C379.386 24 379.042 23.916 378.586 23.836C377.978 23.724 377.498 23.588 377.146 23.428C376.802 23.26 376.554 23.056 376.402 22.816C376.258 22.568 376.186 22.276 376.186 21.94C376.186 21.372 376.394 20.908 376.81 20.548C377.226 20.18 377.818 19.996 378.586 19.996C379.106 19.996 379.542 20.092 379.894 20.284C380.254 20.468 380.534 20.716 380.734 21.028C380.942 21.332 381.078 21.668 381.142 22.036L380.086 22.108C380.038 21.884 379.95 21.688 379.822 21.52C379.694 21.344 379.526 21.208 379.318 21.112C379.11 21.008 378.862 20.956 378.574 20.956C378.118 20.956 377.782 21.044 377.566 21.22C377.35 21.396 377.242 21.62 377.242 21.892C377.242 22.1 377.29 22.272 377.386 22.408C377.49 22.536 377.654 22.644 377.878 22.732C378.102 22.812 378.402 22.884 378.778 22.948C379.426 23.06 379.93 23.196 380.29 23.356C380.65 23.516 380.902 23.712 381.046 23.944C381.19 24.176 381.262 24.46 381.262 24.796C381.262 25.188 381.15 25.524 380.926 25.804C380.71 26.076 380.414 26.284 380.038 26.428C379.67 26.572 379.25 26.644 378.778 26.644ZM388.239 26.644C387.647 26.644 387.131 26.508 386.691 26.236C386.259 25.964 385.923 25.58 385.683 25.084C385.443 24.58 385.323 23.992 385.323 23.32C385.323 22.648 385.443 22.064 385.683 21.568C385.923 21.072 386.259 20.688 386.691 20.416C387.131 20.136 387.647 19.996 388.239 19.996C388.727 19.996 389.159 20.084 389.535 20.26C389.919 20.428 390.231 20.676 390.471 21.004C390.711 21.332 390.867 21.732 390.939 22.204L389.883 22.276C389.811 21.852 389.627 21.528 389.331 21.304C389.035 21.072 388.671 20.956 388.239 20.956C387.655 20.956 387.199 21.168 386.871 21.592C386.543 22.008 386.379 22.584 386.379 23.32C386.379 24.056 386.543 24.636 386.871 25.06C387.199 25.476 387.655 25.684 388.239 25.684C388.671 25.684 389.035 25.564 389.331 25.324C389.627 25.084 389.811 24.724 389.883 24.244L390.939 24.316C390.867 24.788 390.711 25.2 390.471 25.552C390.231 25.896 389.919 26.164 389.535 26.356C389.159 26.548 388.727 26.644 388.239 26.644ZM394.673 26.644C394.089 26.644 393.577 26.508 393.137 26.236C392.697 25.964 392.357 25.58 392.117 25.084C391.877 24.58 391.757 23.992 391.757 23.32C391.757 22.64 391.877 22.052 392.117 21.556C392.357 21.06 392.697 20.676 393.137 20.404C393.577 20.132 394.089 19.996 394.673 19.996C395.257 19.996 395.765 20.132 396.197 20.404C396.637 20.676 396.977 21.06 397.217 21.556C397.457 22.052 397.577 22.64 397.577 23.32C397.577 23.992 397.457 24.58 397.217 25.084C396.977 25.58 396.637 25.964 396.197 26.236C395.765 26.508 395.257 26.644 394.673 26.644ZM394.673 25.684C395.257 25.684 395.709 25.476 396.029 25.06C396.357 24.636 396.521 24.056 396.521 23.32C396.521 22.584 396.357 22.008 396.029 21.592C395.709 21.168 395.257 20.956 394.673 20.956C394.089 20.956 393.633 21.168 393.305 21.592C392.977 22.008 392.813 22.584 392.813 23.32C392.813 24.056 392.977 24.636 393.305 25.06C393.633 25.476 394.089 25.684 394.673 25.684ZM401.206 26.644C400.654 26.644 400.174 26.508 399.766 26.236C399.366 25.964 399.058 25.58 398.842 25.084C398.626 24.588 398.518 24 398.518 23.32C398.518 22.64 398.626 22.052 398.842 21.556C399.058 21.06 399.366 20.676 399.766 20.404C400.174 20.132 400.654 19.996 401.206 19.996C401.63 19.996 402.018 20.088 402.37 20.272C402.722 20.448 402.986 20.7 403.162 21.028V17.98H404.17V26.5H403.258L403.222 25.54C403.046 25.884 402.778 26.156 402.418 26.356C402.058 26.548 401.654 26.644 401.206 26.644ZM401.41 25.684C401.786 25.684 402.102 25.588 402.358 25.396C402.622 25.204 402.822 24.932 402.958 24.58C403.094 24.22 403.162 23.8 403.162 23.32C403.162 22.824 403.094 22.4 402.958 22.048C402.822 21.696 402.622 21.428 402.358 21.244C402.102 21.052 401.786 20.956 401.41 20.956C400.85 20.956 400.402 21.168 400.066 21.592C399.738 22.008 399.574 22.584 399.574 23.32C399.574 24.048 399.738 24.624 400.066 25.048C400.402 25.472 400.85 25.684 401.41 25.684ZM408.454 26.644C407.854 26.644 407.334 26.508 406.894 26.236C406.462 25.964 406.126 25.58 405.886 25.084C405.654 24.58 405.538 23.992 405.538 23.32C405.538 22.648 405.654 22.064 405.886 21.568C406.126 21.072 406.458 20.688 406.882 20.416C407.314 20.136 407.822 19.996 408.406 19.996C408.958 19.996 409.446 20.128 409.87 20.392C410.294 20.648 410.622 21.024 410.854 21.52C411.094 22.016 411.214 22.62 411.214 23.332V23.632H406.594C406.634 24.312 406.814 24.824 407.134 25.168C407.462 25.512 407.902 25.684 408.454 25.684C408.87 25.684 409.21 25.588 409.474 25.396C409.746 25.196 409.934 24.936 410.038 24.616L411.118 24.7C410.95 25.268 410.63 25.736 410.158 26.104C409.694 26.464 409.126 26.644 408.454 26.644ZM406.594 22.744H410.11C410.062 22.128 409.882 21.676 409.57 21.388C409.266 21.1 408.878 20.956 408.406 20.956C407.918 20.956 407.514 21.108 407.194 21.412C406.882 21.708 406.682 22.152 406.594 22.744Z" fill="#292929"/>
<rect x="417.883" y="8.5" width="120" height="28" rx="14" fill="#151207"/>
<path d="M431.348 26.5V17.98H434.408C435.432 17.98 436.204 18.164 436.724 18.532C437.244 18.9 437.504 19.484 437.504 20.284C437.504 20.644 437.428 20.96 437.276 21.232C437.124 21.504 436.9 21.72 436.604 21.88C436.316 22.032 435.972 22.112 435.572 22.12L435.56 22.072C436.288 22.088 436.852 22.288 437.252 22.672C437.66 23.048 437.864 23.544 437.864 24.16C437.864 24.936 437.604 25.52 437.084 25.912C436.564 26.304 435.824 26.5 434.864 26.5H431.348ZM432.644 25.336H434.828C435.364 25.336 435.78 25.228 436.076 25.012C436.38 24.788 436.532 24.464 436.532 24.04C436.532 23.624 436.38 23.3 436.076 23.068C435.78 22.836 435.364 22.72 434.828 22.72H432.644V25.336ZM432.644 21.616H434.384C434.952 21.616 435.392 21.508 435.704 21.292C436.016 21.076 436.172 20.772 436.172 20.38C436.172 19.964 436.02 19.656 435.716 19.456C435.42 19.248 434.976 19.144 434.384 19.144H432.644V21.616ZM439.61 26.5V17.98H440.906V26.02L440.222 25.312H445.058V26.5H439.61ZM445.58 26.5L448.652 17.98H450.296L453.368 26.5H451.988L451.208 24.28H447.728L446.96 26.5H445.58ZM448.136 23.104H450.812L449.468 19.216L448.136 23.104ZM457.619 26.692C456.851 26.692 456.175 26.516 455.591 26.164C455.007 25.804 454.551 25.292 454.223 24.628C453.895 23.964 453.731 23.172 453.731 22.252C453.731 21.34 453.891 20.552 454.211 19.888C454.539 19.216 454.995 18.7 455.579 18.34C456.163 17.972 456.847 17.788 457.631 17.788C458.687 17.788 459.507 18.052 460.091 18.58C460.675 19.108 461.055 19.84 461.231 20.776L459.875 20.848C459.763 20.264 459.523 19.808 459.155 19.48C458.787 19.144 458.279 18.976 457.631 18.976C457.111 18.976 456.659 19.108 456.275 19.372C455.899 19.636 455.603 20.012 455.387 20.5C455.179 20.988 455.075 21.572 455.075 22.252C455.075 22.932 455.179 23.516 455.387 24.004C455.603 24.492 455.903 24.864 456.287 25.12C456.671 25.376 457.115 25.504 457.619 25.504C458.307 25.504 458.839 25.324 459.215 24.964C459.599 24.596 459.839 24.092 459.935 23.452L461.291 23.524C461.187 24.172 460.979 24.732 460.667 25.204C460.355 25.676 459.943 26.044 459.431 26.308C458.919 26.564 458.315 26.692 457.619 26.692ZM462.684 26.5V17.98H463.98V22.048L467.568 17.98H469.14L465.876 21.7L469.356 26.5H467.832L465.012 22.612L463.98 23.764V26.5H462.684ZM470.442 26.5V17.98H475.974V19.168H471.054L471.738 18.46V22.372L471.054 21.76H475.758V22.912H471.054L471.738 22.3V26.5H470.442ZM477.368 26.5V17.98H480.764C481.372 17.98 481.896 18.084 482.336 18.292C482.776 18.5 483.116 18.796 483.356 19.18C483.596 19.564 483.716 20.02 483.716 20.548C483.716 20.932 483.628 21.276 483.452 21.58C483.284 21.884 483.056 22.128 482.768 22.312C482.488 22.488 482.188 22.588 481.868 22.612L481.808 22.504C482.344 22.504 482.76 22.628 483.056 22.876C483.352 23.116 483.524 23.496 483.572 24.016L483.8 26.5H482.492L482.288 24.184C482.264 23.84 482.148 23.588 481.94 23.428C481.732 23.26 481.392 23.176 480.92 23.176H478.664V26.5H477.368ZM478.664 21.988H480.788C481.276 21.988 481.66 21.868 481.94 21.628C482.228 21.38 482.372 21.032 482.372 20.584C482.372 20.128 482.228 19.78 481.94 19.54C481.652 19.292 481.232 19.168 480.68 19.168H478.664V21.988ZM485.524 26.5V17.98H486.82V26.5H485.524ZM488.677 26.5V17.98H491.413C492.749 17.98 493.777 18.352 494.497 19.096C495.217 19.832 495.577 20.884 495.577 22.252C495.577 23.612 495.221 24.66 494.509 25.396C493.805 26.132 492.797 26.5 491.485 26.5H488.677ZM489.973 25.312H491.413C492.357 25.312 493.061 25.06 493.525 24.556C493.997 24.044 494.233 23.276 494.233 22.252C494.233 21.212 493.997 20.44 493.525 19.936C493.061 19.424 492.357 19.168 491.413 19.168H489.973V25.312ZM495.935 26.5L499.007 17.98H500.651L503.723 26.5H502.343L501.563 24.28H498.083L497.315 26.5H495.935ZM498.491 23.104H501.167L499.823 19.216L498.491 23.104ZM505.994 26.5V23.08L503.006 17.98H504.494L506.642 21.784L508.802 17.98H510.29L507.29 23.08V26.5H505.994ZM510.911 26.5C510.911 25.86 511.007 25.288 511.199 24.784C511.391 24.28 511.719 23.812 512.183 23.38C512.647 22.948 513.287 22.516 514.103 22.084C514.495 21.884 514.807 21.7 515.039 21.532C515.279 21.356 515.451 21.176 515.555 20.992C515.659 20.808 515.711 20.584 515.711 20.32C515.711 20.048 515.651 19.816 515.531 19.624C515.419 19.424 515.251 19.268 515.027 19.156C514.803 19.036 514.519 18.976 514.175 18.976C513.631 18.976 513.199 19.124 512.879 19.42C512.567 19.708 512.371 20.124 512.291 20.668L510.947 20.584C511.043 19.728 511.367 19.048 511.919 18.544C512.479 18.04 513.231 17.788 514.175 17.788C514.783 17.788 515.299 17.896 515.723 18.112C516.155 18.32 516.483 18.612 516.707 18.988C516.939 19.364 517.055 19.8 517.055 20.296C517.055 20.728 516.983 21.1 516.839 21.412C516.695 21.724 516.455 22.016 516.119 22.288C515.783 22.552 515.327 22.836 514.751 23.14C514.015 23.532 513.459 23.92 513.083 24.304C512.707 24.68 512.507 25.016 512.483 25.312H517.055V26.5H510.911ZM521.59 26.692C520.958 26.692 520.418 26.592 519.97 26.392C519.522 26.184 519.17 25.896 518.914 25.528C518.658 25.16 518.51 24.736 518.47 24.256L519.802 24.172C519.866 24.62 520.054 24.956 520.366 25.18C520.686 25.396 521.094 25.504 521.59 25.504C522.15 25.504 522.59 25.348 522.91 25.036C523.238 24.724 523.402 24.288 523.402 23.728C523.402 23.36 523.326 23.044 523.174 22.78C523.03 22.508 522.822 22.3 522.55 22.156C522.278 22.004 521.954 21.928 521.578 21.928C521.202 21.928 520.866 22.008 520.57 22.168C520.274 22.328 520.062 22.548 519.934 22.828H518.59L519.166 17.98H524.158V19.168H520.318L519.958 22.084L519.754 21.904C519.89 21.664 520.062 21.468 520.27 21.316C520.478 21.156 520.718 21.036 520.99 20.956C521.27 20.868 521.566 20.824 521.878 20.824C522.454 20.824 522.954 20.948 523.378 21.196C523.81 21.444 524.146 21.788 524.386 22.228C524.626 22.668 524.746 23.168 524.746 23.728C524.746 24.312 524.614 24.828 524.35 25.276C524.086 25.724 523.718 26.072 523.246 26.32C522.774 26.568 522.222 26.692 521.59 26.692Z" fill="white"/>
<g filter="url(#filter1_dii_16161_47254)">
<rect width="984" height="18" transform="translate(185.125 -25) rotate(2)" fill="#D9971C"/>
<path d="M489.247 -2.37393L489.445 -8.05047L491.652 -7.97341C492.356 -7.94884 492.89 -7.80479 493.254 -7.54124C493.619 -7.28303 493.791 -6.88742 493.773 -6.35441C493.765 -6.11989 493.71 -5.91635 493.607 -5.74381C493.506 -5.5766 493.36 -5.44561 493.169 -5.35086C492.985 -5.25591 492.761 -5.20234 492.499 -5.19014L492.5 -5.20613C492.973 -5.15759 493.331 -5.00635 493.573 -4.75242C493.82 -4.50363 493.937 -4.17936 493.923 -3.7796C493.905 -3.25192 493.704 -2.86401 493.322 -2.61586C492.945 -2.37286 492.413 -2.26337 491.726 -2.28738L489.247 -2.37393ZM490.497 -3.32289L491.704 -3.28073C491.998 -3.27049 492.234 -3.32093 492.414 -3.43205C492.6 -3.54832 492.697 -3.72637 492.705 -3.96623C492.713 -4.20608 492.629 -4.39047 492.452 -4.51939C492.281 -4.65345 492.048 -4.7256 491.755 -4.73584L490.548 -4.778L490.497 -3.32289ZM490.579 -5.65746L491.538 -5.62396C491.837 -5.61354 492.076 -5.66389 492.256 -5.775C492.441 -5.88594 492.538 -6.05067 492.545 -6.26921C492.553 -6.50373 492.471 -6.67736 492.299 -6.79011C492.133 -6.90799 491.895 -6.97234 491.585 -6.98313L490.626 -7.01664L490.579 -5.65746ZM495.029 -2.17204L495.227 -7.84858L496.442 -7.80614L496.255 -2.4574L495.608 -3.17643L498.894 -3.06168L498.858 -2.0383L495.029 -2.17204ZM499.301 -2.02285L501.546 -7.62792L502.985 -7.57766L504.833 -1.82965L503.57 -1.87376L503.197 -3.09554L501.014 -3.17176L500.556 -1.97902L499.301 -2.02285ZM501.393 -4.15915L502.896 -4.10666L502.221 -6.32357L501.393 -4.15915ZM507.807 -1.59773C507.29 -1.61579 506.833 -1.74915 506.436 -1.99782C506.044 -2.2463 505.742 -2.59574 505.528 -3.04614C505.32 -3.49636 505.226 -4.03061 505.248 -4.6489C505.269 -5.2512 505.396 -5.76973 505.63 -6.2045C505.865 -6.64459 506.188 -6.98016 506.602 -7.2112C507.016 -7.44224 507.494 -7.54826 508.038 -7.52928C508.779 -7.50341 509.348 -7.29942 509.746 -6.91731C510.149 -6.54034 510.397 -6.01135 510.491 -5.33034L509.226 -5.32648C509.174 -5.68583 509.046 -5.96783 508.839 -6.17249C508.633 -6.38248 508.354 -6.49362 508.002 -6.5059C507.699 -6.51651 507.437 -6.44559 507.218 -6.29313C507 -6.14067 506.829 -5.91982 506.707 -5.63058C506.585 -5.34133 506.517 -4.99949 506.503 -4.60507C506.489 -4.20531 506.533 -3.8569 506.635 -3.55984C506.742 -3.26792 506.899 -3.04095 507.107 -2.87893C507.315 -2.71691 507.565 -2.63079 507.859 -2.62055C508.242 -2.60715 508.542 -2.70342 508.757 -2.90936C508.978 -3.12045 509.122 -3.41695 509.189 -3.79885L510.458 -3.70649C510.367 -3.24538 510.207 -2.85607 509.977 -2.53857C509.747 -2.22106 509.451 -1.9806 509.087 -1.81718C508.729 -1.65357 508.303 -1.58042 507.807 -1.59773ZM511.389 -1.60071L511.588 -7.27725L512.803 -7.23481L512.716 -4.75632L514.866 -7.16278L516.281 -7.11336L514.107 -4.68376L516.21 -1.43235L514.827 -1.48065L513.279 -3.89617L512.663 -3.22925L512.605 -1.55827L511.389 -1.60071ZM519.041 -1.33352L519.239 -7.01006L523.156 -6.87325L523.121 -5.84988L519.747 -5.9677L520.443 -6.63982L520.352 -4.04141L519.699 -4.59254L522.929 -4.47974L522.894 -3.47236L519.664 -3.58515L520.354 -4.08938L520.256 -1.29108L519.041 -1.33352ZM523.916 -1.16325L524.115 -6.83979L526.601 -6.75296C527.017 -6.73845 527.374 -6.65659 527.673 -6.5074C527.977 -6.35802 528.208 -6.15253 528.364 -5.89091C528.521 -5.63463 528.593 -5.33326 528.581 -4.9868C528.572 -4.72563 528.507 -4.49572 528.388 -4.29709C528.275 -4.09827 528.12 -3.93825 527.923 -3.81703C527.732 -3.69562 527.514 -3.62321 527.267 -3.59979L527.246 -3.67258C527.624 -3.65937 527.909 -3.5667 528.101 -3.39458C528.292 -3.22779 528.396 -2.97603 528.411 -2.63931L528.498 -1.00328L527.258 -1.04655L527.205 -2.4893C527.196 -2.70839 527.133 -2.87072 527.014 -2.97627C526.9 -3.08697 526.699 -3.14734 526.411 -3.15739L525.204 -3.19955L525.132 -1.12082L523.916 -1.16325ZM525.24 -4.21493L526.375 -4.17529C526.668 -4.16505 526.897 -4.22376 527.062 -4.35143C527.232 -4.48424 527.321 -4.67591 527.33 -4.92642C527.339 -5.18227 527.263 -5.37703 527.102 -5.51073C526.941 -5.64975 526.704 -5.72475 526.389 -5.73573L525.294 -5.77398L525.24 -4.21493ZM529.651 -0.962997L529.849 -6.63954L531.065 -6.5971L530.866 -0.920559L529.651 -0.962997ZM532.099 -0.877526L532.297 -6.55407L534.256 -6.48566C535.178 -6.45346 535.878 -6.18086 536.356 -5.66785C536.835 -5.16017 537.058 -4.45061 537.026 -3.53917C536.995 -2.63305 536.725 -1.94337 536.218 -1.47013C535.716 -0.996699 535.011 -0.775805 534.105 -0.807448L532.099 -0.877526ZM533.35 -1.85846L534.093 -1.8325C534.642 -1.81333 535.052 -1.94576 535.324 -2.22979C535.601 -2.51897 535.75 -2.97271 535.772 -3.591C535.793 -4.20929 535.676 -4.66966 535.42 -4.97212C535.169 -5.27973 534.769 -5.44312 534.22 -5.46229L533.476 -5.48825L533.35 -1.85846ZM537.237 -0.698077L539.482 -6.30314L540.921 -6.25289L542.77 -0.504873L541.507 -0.548986L541.133 -1.77077L538.95 -1.84699L538.493 -0.654243L537.237 -0.698077ZM539.329 -2.83437L540.832 -2.78189L540.157 -4.9988L539.329 -2.83437ZM544.348 -0.44975L544.426 -2.6564L542.572 -6.19525L543.915 -6.14835L545.075 -3.81846L546.386 -6.06207L547.729 -6.01517L545.641 -2.61397L545.564 -0.407312L544.348 -0.44975Z" fill="#151207"/>
<path d="M552.446 -0.0388908C551.956 -0.0560148 551.538 -0.153335 551.192 -0.330853C550.846 -0.50837 550.579 -0.749814 550.392 -1.05519C550.206 -1.36056 550.106 -1.71625 550.094 -2.12227L551.319 -2.13552C551.343 -1.91054 551.4 -1.71642 551.491 -1.55317C551.586 -1.39506 551.716 -1.27314 551.878 -1.18742C552.046 -1.10152 552.252 -1.05428 552.497 -1.04572C552.7 -1.03865 552.871 -1.05667 553.012 -1.09981C553.157 -1.14275 553.269 -1.21089 553.347 -1.30423C553.425 -1.40289 553.467 -1.52418 553.472 -1.66809C553.476 -1.80135 553.448 -1.91706 553.388 -2.01524C553.327 -2.11874 553.208 -2.21363 553.03 -2.29991C552.851 -2.39152 552.588 -2.48345 552.239 -2.57568C551.758 -2.70455 551.37 -2.84349 551.077 -2.99249C550.788 -3.14131 550.581 -3.32199 550.455 -3.53451C550.329 -3.75237 550.272 -4.0212 550.283 -4.34101C550.295 -4.68213 550.388 -4.97773 550.562 -5.2278C550.742 -5.47769 550.994 -5.66901 551.319 -5.80175C551.644 -5.9345 552.027 -5.99315 552.47 -5.9777C552.939 -5.96132 553.333 -5.86483 553.652 -5.68825C553.972 -5.51166 554.217 -5.27629 554.388 -4.98214C554.564 -4.6878 554.665 -4.35343 554.689 -3.97902L553.472 -3.95749C553.463 -4.15526 553.415 -4.32769 553.33 -4.47477C553.244 -4.62717 553.126 -4.74605 552.974 -4.8314C552.822 -4.91675 552.637 -4.96324 552.418 -4.97087C552.141 -4.98055 551.921 -4.92688 551.756 -4.80988C551.598 -4.69268 551.515 -4.53548 551.508 -4.33826C551.503 -4.19968 551.533 -4.08121 551.599 -3.98285C551.671 -3.88963 551.788 -3.80549 551.951 -3.73043C552.119 -3.65518 552.356 -3.58018 552.663 -3.50543C553.187 -3.3804 553.598 -3.22996 553.896 -3.05412C554.2 -2.88342 554.412 -2.68391 554.532 -2.45558C554.652 -2.22725 554.707 -1.96917 554.697 -1.68134C554.685 -1.32956 554.583 -1.02624 554.393 -0.771396C554.208 -0.521695 553.948 -0.333323 553.613 -0.206281C553.283 -0.0790524 552.894 -0.0232558 552.446 -0.0388908ZM555.031 -0.0767243L557.276 -5.68179L558.715 -5.63154L560.563 0.116479L559.3 0.0723664L558.926 -1.14942L556.744 -1.22564L556.286 -0.0328905L555.031 -0.0767243ZM557.122 -2.21302L558.625 -2.16053L557.95 -4.37744L557.122 -2.21302ZM561.338 0.143524L561.536 -5.53302L562.751 -5.49058L562.564 -0.141838L561.917 -0.860867L565.203 -0.746117L565.167 0.277259L561.338 0.143524ZM565.948 0.30452L566.146 -5.37202L570.096 -5.2341L570.06 -4.21072L567.326 -4.30621L567.28 -3.003L569.919 -2.91087L569.883 -1.90348L567.245 -1.99561L567.199 -0.676418L569.997 -0.5787L569.962 0.444676L565.948 0.30452Z" fill="white"/>
<path d="M587.193 1.04795L587.391 -4.62859L589.597 -4.55154C590.301 -4.52697 590.835 -4.38291 591.199 -4.11937C591.564 -3.86115 591.737 -3.46554 591.718 -2.93254C591.71 -2.69801 591.655 -2.49448 591.553 -2.32194C591.451 -2.15472 591.305 -2.02374 591.115 -1.92898C590.93 -1.83404 590.707 -1.78047 590.445 -1.76827L590.445 -1.78426C590.919 -1.73571 591.276 -1.58447 591.518 -1.33054C591.766 -1.08175 591.882 -0.75748 591.868 -0.357724C591.85 0.169955 591.65 0.557867 591.267 0.806012C590.891 1.04901 590.359 1.15851 589.671 1.1345L587.193 1.04795ZM588.442 0.0989881L589.65 0.141147C589.943 0.151384 590.179 0.100943 590.359 -0.0101769C590.545 -0.12644 590.642 -0.304499 590.65 -0.544353C590.659 -0.784207 590.574 -0.968594 590.397 -1.09751C590.226 -1.23158 589.994 -1.30373 589.7 -1.31397L588.493 -1.35613L588.442 0.0989881ZM588.524 -2.23559L589.483 -2.20209C589.782 -2.19166 590.021 -2.24201 590.201 -2.35313C590.386 -2.46406 590.483 -2.6288 590.49 -2.84733C590.499 -3.08185 590.417 -3.25549 590.244 -3.36823C590.078 -3.48612 589.84 -3.55046 589.531 -3.56126L588.571 -3.59476L588.524 -2.23559ZM592.974 1.24984L593.172 -4.4267L594.387 -4.38426L594.201 0.964477L593.553 0.245449L596.839 0.360198L596.804 1.38357L592.974 1.24984ZM597.246 1.39902L599.491 -4.20604L600.93 -4.15579L602.779 1.59223L601.515 1.54811L601.142 0.326332L598.959 0.250112L598.501 1.44286L597.246 1.39902ZM599.338 -0.737274L600.841 -0.684785L600.166 -2.90169L599.338 -0.737274ZM605.752 1.82414C605.235 1.80609 604.778 1.67273 604.381 1.42406C603.99 1.17557 603.687 0.826132 603.473 0.375731C603.265 -0.0744836 603.172 -0.608736 603.193 -1.22703C603.214 -1.82933 603.342 -2.34786 603.576 -2.78262C603.81 -3.22272 604.134 -3.55829 604.547 -3.78932C604.961 -4.02036 605.44 -4.12639 605.983 -4.1074C606.724 -4.08153 607.293 -3.87754 607.691 -3.49543C608.094 -3.11847 608.343 -2.58948 608.436 -1.90846L607.171 -1.90461C607.12 -2.26395 606.991 -2.54596 606.785 -2.75062C606.578 -2.96061 606.299 -3.07174 605.948 -3.08403C605.644 -3.09464 605.383 -3.02371 605.164 -2.87125C604.945 -2.7188 604.774 -2.49795 604.652 -2.2087C604.53 -1.91945 604.462 -1.57762 604.448 -1.18319C604.434 -0.783435 604.478 -0.435026 604.58 -0.137962C604.687 0.153957 604.845 0.380926 605.053 0.542944C605.26 0.704961 605.511 0.791089 605.804 0.801326C606.188 0.814727 606.487 0.718456 606.703 0.512511C606.923 0.301423 607.067 0.0049267 607.134 -0.376978L608.403 -0.284615C608.313 0.176496 608.152 0.565804 607.922 0.883308C607.693 1.20081 607.396 1.44127 607.033 1.6047C606.675 1.7683 606.248 1.84145 605.752 1.82414ZM609.335 1.82117L609.533 -3.85537L610.748 -3.81294L610.662 -1.33445L612.811 -3.7409L614.226 -3.69149L612.052 -1.26188L614.156 1.98952L612.773 1.94122L611.224 -0.474298L610.608 0.192622L610.55 1.8636L609.335 1.82117ZM616.986 2.08835L617.184 -3.58819L621.102 -3.45138L621.066 -2.428L617.692 -2.54582L618.388 -3.21795L618.297 -0.619531L617.644 -1.17066L620.874 -1.05787L620.839 -0.050481L617.609 -0.163276L618.299 -0.667502L618.201 2.13079L616.986 2.08835ZM621.862 2.25862L622.06 -3.41792L624.546 -3.33109C624.962 -3.31657 625.32 -3.23472 625.618 -3.08552C625.923 -2.93615 626.153 -2.73065 626.309 -2.46904C626.466 -2.21275 626.538 -1.91138 626.526 -1.56493C626.517 -1.30375 626.453 -1.07385 626.334 -0.875215C626.22 -0.676394 626.065 -0.516373 625.869 -0.395152C625.678 -0.273745 625.459 -0.201332 625.213 -0.177913L625.191 -0.250707C625.57 -0.237492 625.855 -0.144824 626.046 0.0272952C626.238 0.194085 626.341 0.445842 626.356 0.782568L626.443 2.4186L625.204 2.37532L625.15 0.932572C625.142 0.71348 625.078 0.551158 624.959 0.445605C624.845 0.334909 624.645 0.274535 624.357 0.264484L623.15 0.222325L623.077 2.30106L621.862 2.25862ZM623.185 -0.793056L624.32 -0.75341C624.613 -0.743173 624.842 -0.801889 625.007 -0.929557C625.177 -1.06237 625.266 -1.25403 625.275 -1.50455C625.284 -1.76039 625.208 -1.95516 625.047 -2.08885C624.887 -2.22787 624.649 -2.30287 624.335 -2.31386L623.239 -2.35211L623.185 -0.793056ZM627.596 2.45888L627.795 -3.21766L629.01 -3.17522L628.812 2.50132L627.596 2.45888ZM630.044 2.54435L630.242 -3.13219L632.201 -3.06379C633.123 -3.03159 633.823 -2.75898 634.302 -2.24598C634.78 -1.7383 635.004 -1.02874 634.972 -0.117291C634.94 0.788823 634.671 1.4785 634.163 1.95175C633.661 2.42518 632.957 2.64607 632.051 2.61443L630.044 2.54435ZM631.295 1.56341L632.038 1.58938C632.587 1.60855 632.998 1.47612 633.269 1.19208C633.546 0.902903 633.695 0.449169 633.717 -0.16912C633.738 -0.78741 633.621 -1.24779 633.365 -1.55025C633.114 -1.85785 632.714 -2.02124 632.165 -2.04041L631.422 -2.06638L631.295 1.56341ZM635.183 2.7238L637.428 -2.88127L638.867 -2.83101L640.715 2.917L639.452 2.87289L639.078 1.65111L636.896 1.57489L636.438 2.76763L635.183 2.7238ZM637.274 0.5875L638.778 0.639989L638.103 -1.57692L637.274 0.5875ZM642.294 2.97213L642.371 0.76547L640.517 -2.77338L641.86 -2.72647L643.02 -0.39659L644.331 -2.6402L645.674 -2.59329L643.586 0.807908L643.509 3.01456L642.294 2.97213Z" fill="#151207"/>
<path d="M650.392 3.38298C649.901 3.36586 649.483 3.26854 649.137 3.09102C648.791 2.91351 648.525 2.67206 648.338 2.36669C648.151 2.06132 648.051 1.70562 648.039 1.29961L649.264 1.28636C649.288 1.51134 649.345 1.70545 649.436 1.86871C649.532 2.02682 649.661 2.14873 649.823 2.23445C649.991 2.32036 650.198 2.36759 650.443 2.37616C650.645 2.38323 650.817 2.3652 650.957 2.32207C651.103 2.27912 651.214 2.21098 651.292 2.11765C651.37 2.01898 651.412 1.89769 651.417 1.75378C651.422 1.62053 651.394 1.50481 651.333 1.40664C651.273 1.30313 651.153 1.20824 650.975 1.12196C650.797 1.03035 650.533 0.93843 650.184 0.846194C649.703 0.717324 649.315 0.578387 649.022 0.429381C648.734 0.280562 648.526 0.0998886 648.4 -0.112638C648.275 -0.330495 648.217 -0.599325 648.228 -0.919131C648.24 -1.26026 648.333 -1.55586 648.508 -1.80593C648.687 -2.05582 648.939 -2.24713 649.264 -2.37988C649.589 -2.51262 649.972 -2.57127 650.415 -2.55582C650.884 -2.53944 651.278 -2.44296 651.597 -2.26637C651.917 -2.08979 652.162 -1.85442 652.333 -1.56026C652.51 -1.26592 652.61 -0.93155 652.634 -0.557141L651.417 -0.535618C651.408 -0.733389 651.361 -0.905814 651.275 -1.05289C651.19 -1.2053 651.071 -1.32417 650.919 -1.40952C650.767 -1.49487 650.582 -1.54136 650.364 -1.54899C650.087 -1.55867 649.866 -1.50501 649.702 -1.388C649.543 -1.27081 649.46 -1.1136 649.453 -0.916389C649.448 -0.777807 649.479 -0.659335 649.545 -0.560974C649.616 -0.467757 649.733 -0.383618 649.896 -0.308556C650.064 -0.233309 650.302 -0.158307 650.609 -0.0835505C651.133 0.041478 651.544 0.191913 651.842 0.367756C652.145 0.538454 652.357 0.737968 652.477 0.966299C652.597 1.19463 652.652 1.45271 652.642 1.74053C652.63 2.09232 652.529 2.39563 652.338 2.65048C652.154 2.90018 651.893 3.08855 651.558 3.21559C651.228 3.34282 650.839 3.39862 650.392 3.38298ZM652.976 3.34515L655.221 -2.25992L656.66 -2.20966L658.508 3.53835L657.245 3.49424L656.872 2.27246L654.689 2.19624L654.231 3.38898L652.976 3.34515ZM655.068 1.20885L656.571 1.26134L655.896 -0.955567L655.068 1.20885ZM659.283 3.5654L659.481 -2.11114L660.696 -2.0687L660.51 3.28004L659.862 2.56101L663.148 2.67576L663.113 3.69913L659.283 3.5654ZM663.893 3.7264L664.091 -1.95015L668.041 -1.81222L668.005 -0.788846L665.271 -0.884331L665.226 0.418874L667.864 0.511009L667.829 1.5184L665.19 1.42626L665.144 2.74546L667.943 2.84318L667.907 3.86655L663.893 3.7264Z" fill="white"/>
</g>
</g>
<defs>
<filter id="filter0_dii_16161_47254" x="-475.555" y="9.5" width="1599.78" height="95.4492" filterUnits="userSpaceOnUse" color-interpolation-filters="sRGB">
<feFlood flood-opacity="0" result="BackgroundImageFix"/>
<feColorMatrix in="SourceAlpha" type="matrix" values="0 0 0 0 0 0 0 0 0 0 0 0 0 0 0 0 0 0 127 0" result="hardAlpha"/>
<feOffset dy="2"/>
<feGaussianBlur stdDeviation="7"/>
<feComposite in2="hardAlpha" operator="out"/>
<feColorMatrix type="matrix" values="0 0 0 0 0.0823529 0 0 0 0 0.0705882 0 0 0 0 0.027451 0 0 0 0.12 0"/>
<feBlend mode="normal" in2="BackgroundImageFix" result="effect1_dropShadow_16161_47254"/>
<feBlend mode="normal" in="SourceGraphic" in2="effect1_dropShadow_16161_47254" result="shape"/>
<feColorMatrix in="SourceAlpha" type="matrix" values="0 0 0 0 0 0 0 0 0 0 0 0 0 0 0 0 0 0 127 0" result="hardAlpha"/>
<feOffset dy="2"/>
<feGaussianBlur stdDeviation="5"/>
<feComposite in2="hardAlpha" operator="arithmetic" k2="-1" k3="1"/>
<feColorMatrix type="matrix" values="0 0 0 0 0.0823529 0 0 0 0 0.0705882 0 0 0 0 0.027451 0 0 0 0.2 0"/>
<feBlend mode="normal" in2="shape" result="effect2_innerShadow_16161_47254"/>
<feColorMatrix in="SourceAlpha" type="matrix" values="0 0 0 0 0 0 0 0 0 0 0 0 0 0 0 0 0 0 127 0" result="hardAlpha"/>
<feOffset dy="2"/>
<feGaussianBlur stdDeviation="2"/>
<feComposite in2="hardAlpha" operator="arithmetic" k2="-1" k3="1"/>
<feColorMatrix type="matrix" values="0 0 0 0 0.0823529 0 0 0 0 0.0705882 0 0 0 0 0.027451 0 0 0 0.12 0"/>
<feBlend mode="normal" in2="effect2_innerShadow_16161_47254" result="effect3_innerShadow_16161_47254"/>
</filter>
<filter id="filter1_dii_16161_47254" x="170.5" y="-37" width="1012.02" height="80.332" filterUnits="userSpaceOnUse" color-interpolation-filters="sRGB">
<feFlood flood-opacity="0" result="BackgroundImageFix"/>
<feColorMatrix in="SourceAlpha" type="matrix" values="0 0 0 0 0 0 0 0 0 0 0 0 0 0 0 0 0 0 127 0" result="hardAlpha"/>
<feOffset dy="2"/>
<feGaussianBlur stdDeviation="7"/>
<feComposite in2="hardAlpha" operator="out"/>
<feColorMatrix type="matrix" values="0 0 0 0 0.0823529 0 0 0 0 0.0705882 0 0 0 0 0.027451 0 0 0 0.12 0"/>
<feBlend mode="normal" in2="BackgroundImageFix" result="effect1_dropShadow_16161_47254"/>
<feBlend mode="normal" in="SourceGraphic" in2="effect1_dropShadow_16161_47254" result="shape"/>
<feColorMatrix in="SourceAlpha" type="matrix" values="0 0 0 0 0 0 0 0 0 0 0 0 0 0 0 0 0 0 127 0" result="hardAlpha"/>
<feOffset dy="2"/>
<feGaussianBlur stdDeviation="5"/>
<feComposite in2="hardAlpha" operator="arithmetic" k2="-1" k3="1"/>
<feColorMatrix type="matrix" values="0 0 0 0 0.0823529 0 0 0 0 0.0705882 0 0 0 0 0.027451 0 0 0 0.2 0"/>
<feBlend mode="normal" in2="shape" result="effect2_innerShadow_16161_47254"/>
<feColorMatrix in="SourceAlpha" type="matrix" values="0 0 0 0 0 0 0 0 0 0 0 0 0 0 0 0 0 0 127 0" result="hardAlpha"/>
<feOffset dy="2"/>
<feGaussianBlur stdDeviation="2"/>
<feComposite in2="hardAlpha" operator="arithmetic" k2="-1" k3="1"/>
<feColorMatrix type="matrix" values="0 0 0 0 0.0823529 0 0 0 0 0.0705882 0 0 0 0 0.027451 0 0 0 0.12 0"/>
<feBlend mode="normal" in2="effect2_innerShadow_16161_47254" result="effect3_innerShadow_16161_47254"/>
</filter>
<clipPath id="clip0_16161_47254">
<rect width="639" height="44" fill="white"/>
</clipPath>
</defs>
</svg>
