<svg width="639" height="44" viewBox="0 0 639 44" fill="none" xmlns="http://www.w3.org/2000/svg">
<g clip-path="url(#clip0_16161_47254)">
<rect width="639" height="44" fill="#FFEFD1"/>
<g filter="url(#filter0_dii_16161_47254)">
<rect width="1572" height="18" transform="translate(-460.992 21.5) rotate(1.80289)" fill="#D9971C"/>
<path d="M-58.8424 46.1635L-58.6637 40.4863L-56.4568 40.5558C-55.7531 40.578 -55.2187 40.7202 -54.8534 40.9825C-54.488 41.2394 -54.3137 41.6344 -54.3304 42.1675C-54.3378 42.4021 -54.3923 42.6058 -54.4937 42.7787C-54.5951 42.9462 -54.7406 43.0777 -54.9304 43.1731C-55.1148 43.2687 -55.338 43.3231 -55.5998 43.3362L-55.5993 43.3202C-55.1259 43.3671 -54.7678 43.5171 -54.525 43.7702C-54.2766 44.0181 -54.1588 44.342 -54.1714 44.7418C-54.188 45.2695 -54.387 45.6581 -54.7683 45.9076C-55.1442 46.1519 -55.676 46.2632 -56.3636 46.2416L-58.8424 46.1635ZM-57.5958 45.2103L-56.3884 45.2483C-56.0952 45.2575 -55.8588 45.2063 -55.6792 45.0945C-55.4941 44.9776 -55.3978 44.7992 -55.3902 44.5594C-55.3827 44.3195 -55.4676 44.1354 -55.645 44.0071C-55.8169 43.8736 -56.0494 43.8022 -56.3426 43.793L-57.55 43.755L-57.5958 45.2103ZM-57.5223 42.8754L-56.5628 42.9056C-56.2642 42.915 -56.0252 42.8639 -55.8456 42.7521C-55.6606 42.6406 -55.5647 42.4755 -55.5579 42.2569C-55.5505 42.0224 -55.6331 41.849 -55.8056 41.7369C-55.9727 41.6196 -56.2108 41.556 -56.52 41.5463L-57.4795 41.5161L-57.5223 42.8754ZM-53.0603 46.3455L-52.8816 40.6684L-51.6662 40.7066L-51.8345 46.056L-52.4843 45.3392L-49.1979 45.4426L-49.2302 46.4661L-53.0603 46.3455ZM-48.7877 46.48L-46.562 40.8673L-45.1227 40.9126L-43.2544 46.6542L-44.5178 46.6144L-44.8956 45.3939L-47.0785 45.3252L-47.5323 46.5195L-48.7877 46.48ZM-46.7032 44.3365L-45.2 44.3839L-45.8826 42.1693L-46.7032 44.3365ZM-40.2801 46.8759C-40.7972 46.8596 -41.2546 46.7278 -41.6524 46.4805C-42.0448 46.2334 -42.3486 45.885 -42.5639 45.4353C-42.7739 44.9858 -42.8691 44.4519 -42.8497 43.8335C-42.8307 43.2312 -42.705 42.7122 -42.4725 42.2766C-42.2399 41.8357 -41.9171 41.4991 -41.5042 41.2666C-41.0914 41.0341 -40.6131 40.9265 -40.0694 40.9436C-39.3284 40.9669 -38.7585 41.1689 -38.3596 41.5497C-37.9552 41.9252 -37.705 42.4534 -37.6091 43.1341L-38.874 43.1423C-38.9267 42.7831 -39.0566 42.5015 -39.2636 42.2976C-39.4704 42.0883 -39.7498 41.9781 -40.1016 41.9671C-40.4054 41.9575 -40.6665 42.0293 -40.8848 42.1825C-41.103 42.3357 -41.2727 42.5572 -41.3939 42.8468C-41.5151 43.1365 -41.5819 43.4786 -41.5943 43.873C-41.6069 44.2729 -41.5618 44.6211 -41.4591 44.9178C-41.3509 45.2094 -41.1926 45.4358 -40.9842 45.5971C-40.7759 45.7584 -40.5251 45.8437 -40.2319 45.8529C-39.8481 45.865 -39.5489 45.7677 -39.3343 45.561C-39.1142 45.3491 -38.9714 45.0522 -38.906 44.67L-37.6362 44.758C-37.7254 45.2194 -37.8844 45.6093 -38.1132 45.9276C-38.342 46.2459 -38.6377 46.4874 -39.0004 46.652C-39.3578 46.8169 -39.7844 46.8915 -40.2801 46.8759ZM-36.6977 46.8606L-36.519 41.1834L-35.3036 41.2216L-35.3817 43.7004L-33.2407 41.2866L-31.8254 41.3311L-33.9911 43.7682L-31.8761 47.0123L-33.2594 46.9688L-34.8164 44.5586L-35.4297 45.2277L-35.4823 46.8988L-36.6977 46.8606ZM-29.0456 47.1014L-28.8669 41.4243L-24.9488 41.5476L-24.981 42.5711L-28.3554 42.4649L-27.6618 41.7904L-27.7436 44.3891L-28.3987 43.8402L-25.1683 43.9419L-25.2 44.9494L-28.4304 44.8477L-27.7421 44.3411L-27.8302 47.1397L-29.0456 47.1014ZM-24.1693 47.2549L-23.9906 41.5777L-21.5038 41.656C-21.088 41.6691 -20.7304 41.7497 -20.4309 41.8979C-20.126 42.0462 -19.895 42.2509 -19.7378 42.512C-19.5805 42.7678 -19.5072 43.0689 -19.5182 43.4154C-19.5264 43.6766 -19.5896 43.9067 -19.708 44.1057C-19.821 44.3049 -19.9754 44.4655 -20.1714 44.5874C-20.362 44.7095 -20.5804 44.7826 -20.8266 44.8069L-20.8483 44.7342C-20.4698 44.7461 -20.1846 44.8378 -19.9925 45.0092C-19.8003 45.1754 -19.6962 45.4268 -19.6801 45.7634L-19.5875 47.3992L-20.8269 47.3601L-20.8856 45.9176C-20.8947 45.6985 -20.9589 45.5364 -21.0783 45.4313C-21.1923 45.321 -21.3932 45.2613 -21.681 45.2522L-22.8884 45.2142L-22.9539 47.2932L-24.1693 47.2549ZM-22.8565 44.1987L-21.721 44.2345C-21.4278 44.2437 -21.1992 44.1842 -21.0351 44.056C-20.8654 43.9226 -20.7767 43.7306 -20.7688 43.4801C-20.7608 43.2242 -20.8373 43.0297 -20.9986 42.8965C-21.1596 42.7581 -21.3974 42.6839 -21.7119 42.674L-22.8074 42.6395L-22.8565 44.1987ZM-18.434 47.4355L-18.2553 41.7583L-17.0399 41.7965L-17.2186 47.4737L-18.434 47.4355ZM-15.9861 47.5125L-15.8074 41.8353L-13.8484 41.897C-12.9262 41.926 -12.225 42.1962 -11.7449 42.7076C-11.2645 43.2136 -11.0387 43.9224 -11.0674 44.8339C-11.0959 45.7402 -11.3631 46.4308 -11.869 46.9057C-12.3695 47.3809 -13.0729 47.6042 -13.9791 47.5757L-15.9861 47.5125ZM-14.7385 46.5273L-13.9949 46.5507C-13.4458 46.568 -13.0361 46.4341 -12.7656 46.1492C-12.4897 45.859 -12.342 45.4048 -12.3225 44.7864C-12.3031 44.1681 -12.422 43.7081 -12.6793 43.4065C-12.9311 43.0998 -13.3315 42.9378 -13.8806 42.9205L-14.6242 42.8971L-14.7385 46.5273ZM-10.8468 47.6743L-8.6211 42.0615L-7.18182 42.1068L-5.31353 47.8485L-6.57691 47.8087L-6.95469 46.5882L-9.13761 46.5195L-9.59141 47.7138L-10.8468 47.6743ZM-8.76232 45.5308L-7.25907 45.5781L-7.94173 43.3635L-8.76232 45.5308ZM-3.73481 47.8981L-3.66535 45.6912L-5.53114 42.1588L-4.1878 42.2011L-3.0204 44.527L-1.71702 42.2788L-0.373689 42.3211L-2.44995 45.7295L-2.51942 47.9364L-3.73481 47.8981Z" fill="#151207"/>
<path d="M4.36434 48.2811C3.87391 48.2657 3.45539 48.1698 3.10877 47.9935C2.76214 47.8172 2.49491 47.5767 2.30707 47.2719C2.11923 46.9672 2.01836 46.6118 2.00446 46.2059L3.22962 46.1884C3.25455 46.4133 3.31248 46.6072 3.4034 46.7702C3.49982 46.9279 3.62939 47.0494 3.79213 47.1346C3.96019 47.2199 4.16683 47.2664 4.41204 47.2742C4.61461 47.2805 4.78595 47.2619 4.92605 47.2183C5.07149 47.1748 5.18304 47.1063 5.26069 47.0127C5.33851 46.9138 5.37968 46.7924 5.38421 46.6484C5.3884 46.5152 5.36003 46.3995 5.29908 46.3016C5.2383 46.1983 5.11855 46.1038 4.93982 46.0181C4.76126 45.9271 4.49733 45.8361 4.14802 45.7451C3.66645 45.6179 3.27859 45.4803 2.98443 45.3323C2.6956 45.1844 2.48783 45.0045 2.36111 44.7924C2.23455 44.575 2.17631 44.3063 2.18637 43.9865C2.19711 43.6453 2.28914 43.3494 2.46244 43.0987C2.64108 42.8482 2.89258 42.6561 3.21695 42.5222C3.54133 42.3883 3.92474 42.3284 4.36718 42.3423C4.83628 42.3571 5.23082 42.4522 5.55079 42.6277C5.87076 42.8032 6.11684 43.0377 6.28902 43.3313C6.46653 43.625 6.56808 43.959 6.59364 44.3333L5.37623 44.359C5.36645 44.1613 5.31851 43.989 5.23242 43.8423C5.1465 43.6901 5.0275 43.5717 4.87543 43.4869C4.72335 43.402 4.53804 43.3562 4.31948 43.3493C4.04228 43.3406 3.82179 43.395 3.65801 43.5126C3.49956 43.6303 3.41724 43.7878 3.41103 43.985C3.40666 44.1236 3.43762 44.242 3.5039 44.3401C3.57568 44.4331 3.6931 44.5168 3.85617 44.5913C4.02457 44.666 4.26236 44.7402 4.56952 44.8139C5.09391 44.9371 5.50542 45.0861 5.80407 45.2609C6.10822 45.4306 6.32073 45.6294 6.44162 45.8573C6.56251 46.0852 6.61843 46.3431 6.60937 46.631C6.59829 46.9828 6.49802 47.2865 6.30856 47.5419C6.12459 47.7923 5.86517 47.9816 5.53031 48.1097C5.20077 48.2381 4.81212 48.2952 4.36434 48.2811ZM6.94846 48.2344L9.17414 42.6217L10.6134 42.667L12.4817 48.4086L11.2183 48.3688L10.8406 47.1483L8.65764 47.0796L8.20384 48.2739L6.94846 48.2344ZM9.03293 46.0909L10.5362 46.1383L9.85352 43.9237L9.03293 46.0909ZM13.2563 48.433L13.435 42.7558L14.6504 42.794L14.482 48.1434L13.8322 47.4266L17.1186 47.53L17.0864 48.5535L13.2563 48.433ZM17.8671 48.5781L18.0458 42.9009L21.9959 43.0253L21.9636 44.0487L19.229 43.9627L19.188 45.266L21.8267 45.3491L21.7949 46.3566L19.1563 46.2735L19.1147 47.5929L21.9133 47.681L21.8811 48.7045L17.8671 48.5781Z" fill="white"/>
<path d="M39.1107 49.2495L39.2894 43.5723L41.4963 43.6418C42.2 43.6639 42.7344 43.8061 43.0997 44.0684C43.4651 44.3254 43.6395 44.7204 43.6227 45.2534C43.6153 45.488 43.5609 45.6917 43.4594 45.8646C43.3581 46.0322 43.2125 46.1637 43.0227 46.2591C42.8383 46.3546 42.6152 46.409 42.3533 46.4221L42.3538 46.4061C42.8272 46.453 43.1853 46.603 43.4282 46.8561C43.6765 47.1041 43.7944 47.4279 43.7818 47.8277C43.7652 48.3555 43.5662 48.7441 43.1848 48.9935C42.8089 49.2378 42.2772 49.3491 41.5895 49.3275L39.1107 49.2495ZM40.3573 48.2962L41.5647 48.3342C41.8579 48.3435 42.0943 48.2922 42.2739 48.1805C42.459 48.0636 42.5554 47.8852 42.5629 47.6453C42.5705 47.4054 42.4855 47.2213 42.3082 47.093C42.1363 46.9595 41.9037 46.8882 41.6105 46.8789L40.4031 46.8409L40.3573 48.2962ZM40.4308 45.9614L41.3904 45.9916C41.6889 46.001 41.9279 45.9498 42.1075 45.8381C42.2925 45.7265 42.3884 45.5614 42.3953 45.3429C42.4026 45.1083 42.3201 44.935 42.1475 44.8228C41.9804 44.7055 41.7423 44.642 41.4331 44.6323L40.4736 44.6021L40.4308 45.9614ZM44.8929 49.4315L45.0716 43.7543L46.287 43.7925L46.1186 49.1419L45.4688 48.4251L48.7552 48.5285L48.723 49.552L44.8929 49.4315ZM49.1654 49.566L51.3911 43.9532L52.8304 43.9985L54.6987 49.7401L53.4353 49.7004L53.0575 48.4799L50.8746 48.4112L50.4208 49.6055L49.1654 49.566ZM51.2499 47.4225L52.7532 47.4698L52.0705 45.2552L51.2499 47.4225ZM57.673 49.9618C57.1559 49.9455 56.6985 49.8138 56.3008 49.5665C55.9083 49.3193 55.6045 48.9709 55.3892 48.5213C55.1792 48.0718 55.084 47.5378 55.1035 46.9195C55.1224 46.3171 55.2481 45.7981 55.4806 45.3626C55.7133 44.9217 56.036 44.585 56.4489 44.3525C56.8617 44.1201 57.34 44.0124 57.8838 44.0295C58.6247 44.0528 59.1946 44.2549 59.5935 44.6356C59.9979 45.0112 60.2481 45.5393 60.3441 46.22L59.0792 46.2282C59.0264 45.869 58.8966 45.5875 58.6896 45.3835C58.4827 45.1743 58.2034 45.0641 57.8515 45.053C57.5477 45.0434 57.2866 45.1153 57.0684 45.2685C56.8501 45.4217 56.6804 45.6431 56.5592 45.9328C56.438 46.2224 56.3712 46.5645 56.3588 46.959C56.3462 47.3588 56.3913 47.707 56.494 48.0038C56.6022 48.2953 56.7605 48.5217 56.9689 48.683C57.1773 48.8443 57.428 48.9296 57.7212 48.9388C58.105 48.9509 58.4042 48.8536 58.6188 48.6469C58.839 48.4351 58.9817 48.1381 59.0471 47.756L60.3169 47.844C60.2277 48.3054 60.0687 48.6952 59.8399 49.0135C59.6111 49.3318 59.3154 49.5733 58.9527 49.738C58.5953 49.9028 58.1688 49.9774 57.673 49.9618ZM61.2554 49.9465L61.4341 44.2693L62.6495 44.3076L62.5715 46.7864L64.7125 44.3725L66.1278 44.4171L63.962 46.8541L66.077 50.0983L64.6937 50.0547L63.1367 47.6446L62.5234 48.3136L62.4708 49.9848L61.2554 49.9465ZM68.9075 50.1874L69.0862 44.5102L73.0043 44.6335L72.9721 45.657L69.5977 45.5508L70.2913 44.8763L70.2095 47.475L69.5545 46.9261L72.7849 47.0278L72.7531 48.0353L69.5227 47.9336L70.211 47.427L70.1229 50.2256L68.9075 50.1874ZM73.7839 50.3409L73.9626 44.6637L76.4493 44.742C76.8651 44.755 77.2228 44.8357 77.5223 44.9838C77.8271 45.1322 78.0581 45.3369 78.2153 45.5979C78.3726 45.8537 78.4459 46.1548 78.435 46.5013C78.4267 46.7625 78.3635 46.9926 78.2452 47.1917C78.1322 47.3909 77.9777 47.5514 77.7818 47.6733C77.5912 47.7954 77.3728 47.8686 77.1265 47.8928L77.1048 47.8201C77.4833 47.832 77.7686 47.9237 77.9606 48.0952C78.1528 48.2613 78.2569 48.5127 78.273 48.8494L78.3656 50.4851L77.1262 50.4461L77.0676 49.0035C77.0585 48.7845 76.9942 48.6224 76.8748 48.5172C76.7609 48.4069 76.56 48.3472 76.2721 48.3382L75.0647 48.3002L74.9993 50.3791L73.7839 50.3409ZM75.0967 47.2847L76.2321 47.3204C76.5253 47.3296 76.754 47.2701 76.9181 47.1419C77.0877 47.0085 77.1764 46.8165 77.1843 46.566C77.1924 46.3101 77.1158 46.1156 76.9546 45.9825C76.7935 45.844 76.5557 45.7698 76.2412 45.7599L75.1458 45.7254L75.0967 47.2847ZM79.5192 50.5214L79.6979 44.8442L80.9133 44.8825L80.7346 50.5597L79.5192 50.5214ZM81.967 50.5985L82.1457 44.9213L84.1047 44.9829C85.0269 45.012 85.7281 45.2822 86.2083 45.7935C86.6886 46.2995 86.9144 47.0083 86.8857 47.9199C86.8572 48.8261 86.59 49.5167 86.0841 49.9917C85.5836 50.4668 84.8802 50.6902 83.974 50.6616L81.967 50.5985ZM83.2146 49.6132L83.9583 49.6366C84.5073 49.6539 84.9171 49.5201 85.1875 49.2351C85.4634 48.945 85.6111 48.4907 85.6306 47.8724C85.65 47.254 85.5311 46.794 85.2738 46.4925C85.022 46.1857 84.6216 46.0237 84.0725 46.0064L83.3289 45.983L83.2146 49.6132ZM87.1063 50.7602L89.332 45.1475L90.7713 45.1928L92.6396 50.9344L91.3762 50.8946L90.9984 49.6741L88.8155 49.6054L88.3617 50.7997L87.1063 50.7602ZM89.1908 48.6167L90.6941 48.6641L90.0114 46.4495L89.1908 48.6167ZM94.2183 50.9841L94.2878 48.7772L92.422 45.2447L93.7653 45.287L94.9327 47.6129L96.2361 45.3648L97.5794 45.4071L95.5032 48.8154L95.4337 51.0223L94.2183 50.9841Z" fill="#151207"/>
<path d="M102.317 51.3671C101.827 51.3516 101.409 51.2558 101.062 51.0794C100.715 50.9031 100.448 50.6626 100.26 50.3579C100.072 50.0531 99.9715 49.6978 99.9576 49.2918L101.183 49.2743C101.208 49.4992 101.266 49.6932 101.357 49.8561C101.453 50.0139 101.583 50.1354 101.745 50.2205C101.913 50.3058 102.12 50.3524 102.365 50.3601C102.568 50.3665 102.739 50.3478 102.879 50.3042C103.025 50.2608 103.136 50.1923 103.214 50.0987C103.292 49.9997 103.333 49.8783 103.337 49.7344C103.342 49.6011 103.313 49.4855 103.252 49.3875C103.191 49.2842 103.072 49.1897 102.893 49.1041C102.714 49.0131 102.45 48.9221 102.101 48.831C101.62 48.7038 101.232 48.5662 100.938 48.4182C100.649 48.2704 100.441 48.0904 100.314 47.8783C100.188 47.6609 100.129 47.3923 100.139 47.0724C100.15 46.7313 100.242 46.4354 100.416 46.1847C100.594 45.9342 100.846 45.742 101.17 45.6081C101.494 45.4743 101.878 45.4143 102.32 45.4282C102.789 45.443 103.184 45.5381 103.504 45.7136C103.824 45.8891 104.07 46.1236 104.242 46.4172C104.42 46.7109 104.521 47.0449 104.547 47.4193L103.329 47.445C103.32 47.2472 103.272 47.075 103.186 46.9282C103.1 46.7761 102.981 46.6576 102.829 46.5728C102.676 46.488 102.491 46.4421 102.273 46.4352C101.995 46.4265 101.775 46.4809 101.611 46.5985C101.453 46.7162 101.37 46.8737 101.364 47.071C101.36 47.2096 101.391 47.3279 101.457 47.4261C101.529 47.519 101.646 47.6028 101.809 47.6773C101.978 47.7519 102.215 47.8261 102.523 47.8998C103.047 48.023 103.459 48.1721 103.757 48.3469C104.061 48.5165 104.274 48.7153 104.395 48.9432C104.516 49.1712 104.572 49.429 104.562 49.7169C104.551 50.0687 104.451 50.3724 104.262 50.6279C104.078 50.8782 103.818 51.0675 103.483 51.1957C103.154 51.324 102.765 51.3812 102.317 51.3671ZM104.902 51.3204L107.127 45.7076L108.567 45.7529L110.435 51.4945L109.171 51.4548L108.794 50.2343L106.611 50.1656L106.157 51.3599L104.902 51.3204ZM106.986 49.1769L108.489 49.2242L107.807 47.0096L106.986 49.1769ZM111.209 51.5189L111.388 45.8417L112.603 45.88L112.435 51.2293L111.785 50.5125L115.072 50.616L115.04 51.6395L111.209 51.5189ZM115.82 51.664L115.999 45.9869L119.949 46.1112L119.917 47.1347L117.182 47.0486L117.141 48.352L119.78 48.435L119.748 49.4425L117.109 49.3595L117.068 50.6788L119.866 50.7669L119.834 51.7904L115.82 51.664Z" fill="white"/>
</g>
<path d="M107.676 21.0054C108.346 20.9538 109.016 20.9023 109.737 20.9023C110.459 20.9023 111.284 21.0054 112.212 21.2116C113.14 21.4178 113.81 21.7786 114.325 22.2941C114.892 22.8611 115.15 23.5312 115.15 24.2529C115.15 24.9746 114.944 25.6962 114.583 26.3664C114.171 27.088 113.604 27.8097 112.779 28.5314C110.459 30.6448 107.469 31.7273 103.809 31.7273C102.83 31.7273 101.954 31.6243 101.232 31.4181C100.459 31.2119 99.9949 31.0572 99.7371 30.9026C99.531 30.7479 99.2217 30.5417 98.9124 30.284C98.6031 30.0263 98.5 29.8716 98.7062 29.8716C98.8093 29.8716 99.067 29.9747 99.4794 30.1294C99.9433 30.284 100.768 30.3871 101.954 30.3871C103.139 30.3871 104.428 30.2325 105.82 29.9747C107.212 29.717 108.346 29.3046 109.325 28.7376C110.304 28.1705 111.078 27.552 111.645 26.8818C112.315 26.0571 112.676 25.2323 112.676 24.356C112.676 23.8921 112.573 23.4281 112.315 22.9642C112.057 22.5003 111.593 22.1394 110.82 21.8817C110.098 21.624 109.428 21.5209 108.81 21.5209C108.191 21.5209 107.572 21.5209 106.799 21.624C106.026 21.6755 105.098 21.9333 103.913 22.3456C102.727 22.758 101.954 23.2735 101.593 23.789C101.18 24.356 100.871 24.8715 100.562 25.387C100.304 25.8509 99.9949 26.3664 99.7371 26.9334C99.4279 27.5004 99.2217 27.9128 99.067 28.1705C98.9639 28.4283 98.8093 28.5314 98.7062 28.5314C98.6031 28.5314 98.5 28.4798 98.5 28.3252C98.5 27.7582 99.1701 26.3664 100.562 24.2529C101.954 22.1394 103.242 20.2322 104.531 18.5826C105.768 16.9331 106.541 16.1083 106.748 16.1083C106.851 16.1083 106.954 16.1083 107.005 16.263C107.057 16.3661 107.108 16.4692 107.108 16.5723C104.892 19.3559 103.552 21.0569 103.088 21.624C109.583 20.5415 113.552 18.995 114.944 16.9847C115.15 16.6238 115.253 16.3145 115.253 16.0053C115.253 15.696 115.098 15.4382 114.841 15.1805C114.274 14.665 113.191 14.4073 111.645 14.4073C110.098 14.4073 108.036 14.7681 105.511 15.4898C102.985 16.2114 101.232 16.9847 100.201 17.861C99.8918 18.1187 99.7887 18.2734 99.8918 18.428C99.9949 18.5826 99.9949 18.6857 99.9433 18.6857C99.8918 18.6857 99.8402 18.6857 99.7371 18.6342C99.3763 18.428 99.1186 18.1703 99.0155 17.8094C98.9124 17.4486 98.8608 17.2424 98.8608 17.0878C98.8608 16.9331 98.8608 16.83 99.0155 16.7269C99.7887 15.6444 101.541 14.665 104.325 13.7887C107.108 12.9124 109.222 12.5 110.717 12.5C113.655 12.5 115.511 13.0155 116.284 13.9949C116.593 14.3557 116.748 14.8197 116.748 15.232C116.748 15.9022 116.387 16.6238 115.562 17.397C113.758 19.0981 111.129 20.3353 107.779 21.1085L107.676 21.0054Z" fill="#151207"/>
<path d="M117.11 29.1008C117.11 29.5647 117.368 29.8225 117.832 29.8225C118.09 29.8225 118.554 29.7194 119.172 29.4617C119.791 29.2555 120.564 28.74 121.543 27.9668C122.523 27.1935 123.193 26.6265 123.502 26.2657C123.863 25.9049 124.018 25.7502 124.121 25.7502C124.172 25.7502 124.224 25.8018 124.224 25.9049C124.224 26.0079 124.172 26.0595 124.069 26.1626C122.574 27.709 121.286 28.7915 120.306 29.5132C119.327 30.1833 118.399 30.4926 117.523 30.4926C116.801 30.4926 116.286 30.338 116.028 29.9771C115.77 29.6163 115.615 29.2555 115.615 28.7915C115.615 28.0183 115.925 27.0389 116.492 25.9049C115.461 26.9874 114.945 27.3482 114.945 26.9874C114.945 26.9358 114.997 26.8327 115.1 26.7296C115.925 26.0595 116.853 25.0801 117.78 23.7914C119.533 21.5233 120.925 19.4614 121.904 17.7603C122.11 17.3995 122.162 17.1933 122.162 16.9871C122.162 16.6262 121.956 16.5231 121.543 16.7809C121.08 16.9871 120.822 17.0902 120.822 17.0386C120.822 16.9871 120.822 16.9355 120.925 16.8324C121.337 16.5231 121.956 16.2139 122.677 15.9561C123.451 15.6984 124.018 15.5437 124.533 15.4922C125.255 15.4922 125.667 15.7499 125.667 16.1623C125.667 16.42 125.564 16.7809 125.306 17.2448C125.049 17.7087 124.327 18.5851 123.09 19.8738C121.853 21.214 121.131 22.0388 120.873 22.3481C119.018 24.7708 117.884 26.6265 117.368 28.0699C117.265 28.4307 117.162 28.74 117.162 28.9977L117.11 29.1008Z" fill="#151207"/>
<path d="M132.727 26.11C132.727 26.11 132.314 26.5739 132.108 26.8316C131.902 27.0894 131.644 27.4502 131.335 27.9141C131.026 28.3781 130.871 28.7389 130.871 29.0997C130.871 29.4606 131.026 29.5637 131.284 29.5637C131.541 29.5637 132.005 29.409 132.624 29.0482C133.861 28.3265 135.253 27.2956 136.748 25.8522C136.902 25.6976 137.057 25.646 137.108 25.7491V25.8522C137.108 25.8522 137.108 25.9553 137.005 26.0584C133.964 28.9451 131.747 30.3884 130.356 30.3884C129.943 30.3884 129.582 30.2338 129.325 29.976C129.067 29.7183 128.912 29.3575 128.912 28.9966C128.912 28.6358 129.067 28.0688 129.376 27.2956C128.551 28.275 127.727 29.0482 126.799 29.6152C125.871 30.1307 125.149 30.44 124.634 30.44C124.118 30.44 123.654 30.2853 123.294 29.976C122.933 29.6668 122.727 29.2544 122.727 28.842C122.727 27.5017 123.294 26.2646 124.479 24.9759C125.356 24.048 126.49 23.3779 127.778 22.9655C128.345 22.7593 128.964 22.6562 129.479 22.6562C129.995 22.6562 130.562 22.8109 131.129 23.1202C131.644 23.4295 132.005 23.7903 132.108 24.2542C132.624 24.2542 133.036 24.4604 133.242 24.8213C133.242 24.8728 133.294 24.9759 133.294 25.079C133.294 25.1821 133.242 25.3367 133.088 25.4914C132.933 25.646 132.778 25.8522 132.624 26.0584L132.727 26.11ZM130.768 23.4295C130.407 23.4295 129.943 23.5326 129.428 23.7903C128.551 24.1511 127.675 24.8728 126.85 25.8007C125.562 27.3471 124.892 28.4296 124.892 29.1513C124.892 29.5121 125.046 29.7183 125.356 29.7183C125.613 29.7183 126.026 29.5637 126.593 29.2544C127.16 28.9451 127.933 28.3265 128.861 27.3471C128.912 27.2956 129.118 27.0894 129.479 26.7801C129.84 26.4708 130.149 26.1615 130.407 25.9038C131.232 25.0275 131.644 24.4089 131.644 24.048C131.644 23.6872 131.335 23.481 130.768 23.481V23.4295Z" fill="#151207"/>
<path d="M143.499 23.8903C143.499 23.5295 143.345 23.3749 142.984 23.3749C142.675 23.3749 142.211 23.5295 141.592 23.7872C140.973 24.045 140.252 24.6635 139.479 25.5399C138.551 26.6739 138.087 27.6533 138.087 28.5296C138.087 29.1998 138.345 29.6121 138.808 29.8699C138.963 29.9214 139.169 29.973 139.376 29.973C140.097 29.973 140.973 29.6637 141.953 29.0451C142.932 28.4265 144.221 27.3956 145.767 25.9522C146.025 25.6945 146.128 25.6945 146.128 25.9522C146.128 26.0553 146.077 26.1584 145.974 26.2615C143.809 28.2719 142.211 29.509 141.18 29.973C140.149 30.4369 139.376 30.6946 138.757 30.6946C136.695 30.6946 135.664 29.973 135.664 28.4265C135.664 26.8801 136.334 25.5914 137.726 24.5089C139.066 23.4264 140.51 22.8594 141.953 22.8594C142.881 22.8594 143.499 23.0656 143.809 23.4779C144.015 23.6841 144.118 23.9419 144.118 24.1481C144.118 24.3543 144.066 24.612 143.912 24.9213C143.757 25.179 143.602 25.2821 143.293 25.2821C142.984 25.2821 142.984 25.1275 143.19 24.7666C143.396 24.4058 143.499 24.1481 143.499 23.8903Z" fill="#151207"/>
<path d="M146.284 27.7552C145.82 28.9408 145.562 29.9203 145.562 30.745C145.562 31.5698 145.665 32.0853 145.923 32.343C145.923 32.3945 145.975 32.4461 145.923 32.4976C145.923 32.4976 145.871 32.4976 145.82 32.4976C145.82 32.4976 145.82 32.4976 145.768 32.4976C145.201 32.0337 144.892 31.5182 144.789 30.9512C144.789 30.745 144.737 30.5388 144.737 30.3326C144.737 29.3017 145.047 28.013 145.665 26.5181C144.789 27.3944 144.325 27.7552 144.273 27.5491C144.273 27.3944 144.428 27.1882 144.634 26.982C144.84 26.7758 145.407 26.1573 146.181 25.1778C147.933 21.2602 150.305 17.9612 153.14 15.2807C154.635 13.8889 155.975 13.2188 157.212 13.2188C158.191 13.2188 158.758 13.6311 158.965 14.4559C158.965 14.559 159.016 14.7136 159.016 14.8683C159.016 16.3632 157.521 18.1673 154.48 20.2293C153.449 20.9509 152.47 21.4664 151.593 21.8788C151.387 21.9819 151.232 21.9303 151.232 21.8788C151.232 21.7757 151.284 21.6726 151.49 21.5695C152.315 21.2087 153.243 20.6416 154.274 19.8684C155.305 19.1468 156.233 18.322 157.057 17.4457C157.882 16.5694 158.346 15.8992 158.346 15.3838C158.346 15.0745 158.191 14.9198 157.831 14.9198C157.47 14.9198 157.006 15.126 156.387 15.4869C154.635 16.5694 152.676 18.4766 150.562 21.2087C149.222 22.9097 148.191 24.4562 147.315 25.848C148.552 24.1984 149.841 23.1159 151.129 22.5489C151.645 22.3943 152.057 22.2912 152.366 22.2912C152.676 22.2912 152.985 22.3427 153.243 22.4458C153.707 22.652 153.964 23.0128 153.964 23.5283C153.964 24.4046 153.449 25.2294 152.366 26.0026C151.748 26.415 151.078 26.7243 150.305 26.9305C149.531 27.0851 148.964 27.1882 148.552 27.1882C148.14 27.1882 147.83 27.1367 147.572 27.0336C148.14 27.7552 148.861 28.3738 149.789 28.9408C150.717 29.4563 151.439 29.7656 152.006 29.7656C152.366 29.7656 152.676 29.6625 152.882 29.5079C153.088 29.3532 153.191 29.1986 153.191 29.0439C153.191 28.9408 153.191 28.8893 153.243 28.8893C153.243 28.8893 153.294 28.8893 153.294 28.9408C153.294 29.5594 152.83 29.9718 151.851 30.2295C151.49 30.3326 150.975 30.3842 150.356 30.3842C149.738 30.3842 149.067 30.178 148.346 29.8172C147.212 29.3017 146.438 28.6831 146.078 27.9099L146.284 27.7552ZM152.16 24.1984C152.16 23.5799 151.851 23.2706 151.284 23.2706C150.614 23.2706 149.841 23.6314 149.016 24.4046C148.191 25.1263 147.572 25.7449 147.212 26.2604C147.212 26.3635 147.315 26.4665 147.418 26.6212C147.624 26.7758 147.882 26.8274 148.14 26.8274C148.397 26.8274 148.861 26.7243 149.48 26.5696C150.098 26.415 150.717 26.1057 151.284 25.6418C151.851 25.1778 152.16 24.7139 152.16 24.1984Z" fill="#151207"/>
<path d="M172.165 15.8251H167.631V20.9985H171.526V23.2655H167.631V31.0546H165.016V13.5H172.165V15.8251Z" fill="#151207"/>
<path d="M182.627 31.0546H179.895L176.989 22.9167V21.3472H179.546V15.767H176.233V31.0546H173.617V13.5H180.593C181.639 13.5 182.162 14.0231 182.162 15.1276V21.5216C182.162 22.2773 181.929 22.7423 181.406 22.9748C181.116 23.0911 180.593 23.1492 179.721 23.1492L182.627 31.1127V31.0546Z" fill="#151207"/>
<path d="M186.928 31.0546H184.312V13.5H186.928V31.0546Z" fill="#151207"/>
<path d="M197.801 27.7413C197.801 28.7876 197.51 29.6014 196.871 30.1827C196.231 30.7639 195.417 31.0546 194.371 31.0546H189.023V13.5H194.371C195.417 13.5 196.231 13.7906 196.871 14.3719C197.51 14.9532 197.801 15.767 197.801 16.8133V27.7413ZM195.185 27.3344V17.2783C195.185 16.2901 194.662 15.8251 193.616 15.8251H191.697V28.8457H193.557C194.604 28.8457 195.185 28.3226 195.185 27.3344Z" fill="#151207"/>
<path d="M208.732 31.0546H206.116L205.593 27.7413H202.28L201.756 31.0546H199.141L202.512 13.5H205.244L208.615 31.0546H208.732ZM205.244 25.4743L203.965 17.5689L202.686 25.4743H205.244Z" fill="#151207"/>
<path d="M219.013 13.6163L216.688 20.9404C216.397 21.6379 216.048 22.8586 215.525 24.6024V31.0546H212.91V24.6024C212.793 24.0211 212.619 23.3817 212.386 22.7423C211.979 21.6379 211.747 20.9985 211.747 20.9404L209.422 13.6163C209.422 13.6163 209.422 13.6163 209.422 13.5H212.096L214.188 21.1147L216.281 13.5H218.955V13.6163H219.013Z" fill="#151207"/>
<path d="M232.814 31C232.814 29.624 233.006 28.424 233.39 27.4C233.774 26.36 234.422 25.416 235.334 24.568C236.246 23.704 237.478 22.864 239.03 22.048C239.798 21.632 240.414 21.264 240.878 20.944C241.342 20.624 241.678 20.296 241.886 19.96C242.094 19.608 242.198 19.192 242.198 18.712C242.198 18.232 242.094 17.816 241.886 17.464C241.678 17.096 241.366 16.808 240.95 16.6C240.55 16.392 240.046 16.288 239.438 16.288C238.462 16.288 237.686 16.568 237.11 17.128C236.55 17.672 236.206 18.456 236.078 19.48L232.862 19.288C233.022 17.512 233.67 16.12 234.806 15.112C235.958 14.088 237.502 13.576 239.438 13.576C240.686 13.576 241.758 13.792 242.654 14.224C243.55 14.64 244.23 15.232 244.694 16C245.174 16.768 245.414 17.656 245.414 18.664C245.414 19.528 245.262 20.272 244.958 20.896C244.67 21.52 244.19 22.096 243.518 22.624C242.862 23.136 241.974 23.688 240.854 24.28C239.446 25.032 238.39 25.76 237.686 26.464C236.982 27.152 236.606 27.76 236.558 28.288H245.414V31H232.814ZM254.748 31.384C253.308 31.384 252.052 31.024 250.98 30.304C249.924 29.584 249.108 28.56 248.532 27.232C247.956 25.904 247.668 24.328 247.668 22.504C247.668 20.68 247.956 19.104 248.532 17.776C249.108 16.432 249.924 15.4 250.98 14.68C252.052 13.944 253.308 13.576 254.748 13.576C256.22 13.576 257.484 13.944 258.54 14.68C259.596 15.4 260.412 16.424 260.988 17.752C261.564 19.08 261.852 20.664 261.852 22.504C261.852 24.328 261.564 25.904 260.988 27.232C260.412 28.56 259.596 29.584 258.54 30.304C257.484 31.024 256.22 31.384 254.748 31.384ZM254.748 28.672C255.996 28.672 256.956 28.152 257.628 27.112C258.3 26.056 258.636 24.52 258.636 22.504C258.636 21.16 258.484 20.024 258.18 19.096C257.876 18.168 257.436 17.472 256.86 17.008C256.3 16.528 255.596 16.288 254.748 16.288C253.932 16.288 253.236 16.528 252.66 17.008C252.084 17.472 251.644 18.168 251.34 19.096C251.036 20.024 250.884 21.16 250.884 22.504C250.884 24.52 251.22 26.056 251.892 27.112C252.564 28.152 253.516 28.672 254.748 28.672ZM267.816 22.216C266.696 22.216 265.768 21.864 265.032 21.16C264.296 20.456 263.928 19.4 263.928 17.992C263.928 16.584 264.296 15.528 265.032 14.824C265.768 14.12 266.696 13.768 267.816 13.768C268.952 13.768 269.88 14.12 270.6 14.824C271.336 15.528 271.704 16.584 271.704 17.992C271.704 19.4 271.336 20.456 270.6 21.16C269.88 21.864 268.952 22.216 267.816 22.216ZM267.816 20.488C268.376 20.488 268.792 20.28 269.064 19.864C269.352 19.432 269.496 18.808 269.496 17.992C269.496 17.176 269.352 16.56 269.064 16.144C268.792 15.712 268.376 15.496 267.816 15.496C267.272 15.496 266.856 15.712 266.568 16.144C266.28 16.56 266.136 17.176 266.136 17.992C266.136 18.808 266.28 19.432 266.568 19.864C266.856 20.28 267.272 20.488 267.816 20.488ZM277.8 31.192C276.68 31.192 275.752 30.84 275.016 30.136C274.28 29.432 273.912 28.376 273.912 26.968C273.912 25.56 274.28 24.504 275.016 23.8C275.752 23.096 276.68 22.744 277.8 22.744C278.936 22.744 279.864 23.096 280.584 23.8C281.304 24.504 281.664 25.56 281.664 26.968C281.664 28.376 281.304 29.432 280.584 30.136C279.864 30.84 278.936 31.192 277.8 31.192ZM277.8 29.464C278.36 29.464 278.776 29.256 279.048 28.84C279.336 28.408 279.48 27.784 279.48 26.968C279.48 26.152 279.336 25.536 279.048 25.12C278.776 24.688 278.36 24.472 277.8 24.472C277.256 24.472 276.84 24.688 276.552 25.12C276.264 25.536 276.12 26.152 276.12 26.968C276.12 27.784 276.264 28.408 276.552 28.84C276.84 29.256 277.256 29.464 277.8 29.464ZM266.016 31L277.488 13.96H279.6L268.128 31H266.016Z" fill="#EC020A"/>
<path d="M293.547 27.944C292.884 27.944 292.276 27.8334 291.723 27.5572C291.171 27.3361 290.729 26.9494 290.287 26.4521C289.844 25.8995 289.568 25.3469 289.347 24.6839C289.126 24.0208 289.016 23.3025 289.016 22.4736C289.016 21.6448 289.126 20.9265 289.347 20.2634C289.568 19.6004 289.9 18.9925 290.287 18.4952C290.673 17.9979 291.115 17.6664 291.668 17.4454C292.22 17.1691 292.828 17.0586 293.491 17.0586C294.154 17.0586 294.762 17.1691 295.315 17.4454C295.867 17.6664 296.309 18.0532 296.696 18.4952C297.083 18.9925 297.414 19.6004 297.636 20.2634C297.857 20.9265 297.967 21.6448 297.967 22.4736C297.967 23.3025 297.857 24.0208 297.636 24.6839C297.414 25.3469 297.138 25.8995 296.696 26.4521C296.309 26.9494 295.867 27.2809 295.315 27.5019C294.762 27.7782 294.21 27.8887 293.491 27.8887L293.547 27.944ZM293.547 25.8995C294.154 25.8995 294.652 25.6232 295.038 24.9602C295.425 24.3523 295.591 23.5235 295.591 22.5289C295.591 21.5343 295.425 20.6502 295.038 20.0424C294.652 19.4346 294.154 19.1583 293.491 19.1583C292.828 19.1583 292.386 19.4346 291.999 20.0977C291.613 20.7055 291.447 21.5343 291.447 22.5289C291.447 23.5235 291.668 24.4076 291.999 24.9602C292.386 25.568 292.884 25.8995 293.547 25.8995Z" fill="#151207"/>
<path d="M299.969 27.6693V17.2812H307.428V19.3257H302.289V21.3702H307.041V23.3041H302.289V27.7246H299.969V27.6693Z" fill="#151207"/>
<path d="M309.43 27.6693V17.2812H316.889V19.3257H311.75V21.3702H316.502V23.3041H311.75V27.7246H309.43V27.6693Z" fill="#151207"/>
<path d="M343.169 26.692C342.513 26.692 341.941 26.564 341.453 26.308C340.973 26.052 340.601 25.688 340.337 25.216C340.081 24.736 339.953 24.172 339.953 23.524V17.968H340.985V23.524C340.985 24.212 341.173 24.744 341.549 25.12C341.933 25.496 342.473 25.684 343.169 25.684C343.857 25.684 344.389 25.496 344.765 25.12C345.149 24.744 345.341 24.212 345.341 23.524V17.968H346.373V23.524C346.373 24.172 346.241 24.736 345.977 25.216C345.721 25.688 345.353 26.052 344.873 26.308C344.393 26.564 343.825 26.692 343.169 26.692ZM350.579 26.644C350.011 26.644 349.527 26.552 349.127 26.368C348.735 26.184 348.427 25.932 348.203 25.612C347.987 25.284 347.863 24.912 347.831 24.496L348.887 24.424C348.951 24.808 349.115 25.116 349.379 25.348C349.643 25.572 350.043 25.684 350.579 25.684C351.011 25.684 351.355 25.616 351.611 25.48C351.875 25.336 352.007 25.108 352.007 24.796C352.007 24.628 351.967 24.488 351.887 24.376C351.807 24.264 351.651 24.168 351.419 24.088C351.187 24 350.843 23.916 350.387 23.836C349.779 23.724 349.299 23.588 348.947 23.428C348.603 23.26 348.355 23.056 348.203 22.816C348.059 22.568 347.987 22.276 347.987 21.94C347.987 21.372 348.195 20.908 348.611 20.548C349.027 20.18 349.619 19.996 350.387 19.996C350.907 19.996 351.343 20.092 351.695 20.284C352.055 20.468 352.335 20.716 352.535 21.028C352.743 21.332 352.879 21.668 352.943 22.036L351.887 22.108C351.839 21.884 351.751 21.688 351.623 21.52C351.495 21.344 351.327 21.208 351.119 21.112C350.911 21.008 350.663 20.956 350.375 20.956C349.919 20.956 349.583 21.044 349.367 21.22C349.151 21.396 349.043 21.62 349.043 21.892C349.043 22.1 349.091 22.272 349.187 22.408C349.291 22.536 349.455 22.644 349.679 22.732C349.903 22.812 350.203 22.884 350.579 22.948C351.227 23.06 351.731 23.196 352.091 23.356C352.451 23.516 352.703 23.712 352.847 23.944C352.991 24.176 353.063 24.46 353.063 24.796C353.063 25.188 352.951 25.524 352.727 25.804C352.511 26.076 352.215 26.284 351.839 26.428C351.471 26.572 351.051 26.644 350.579 26.644ZM356.923 26.644C356.323 26.644 355.803 26.508 355.363 26.236C354.931 25.964 354.595 25.58 354.355 25.084C354.123 24.58 354.007 23.992 354.007 23.32C354.007 22.648 354.123 22.064 354.355 21.568C354.595 21.072 354.927 20.688 355.351 20.416C355.783 20.136 356.291 19.996 356.875 19.996C357.427 19.996 357.915 20.128 358.339 20.392C358.763 20.648 359.091 21.024 359.323 21.52C359.563 22.016 359.683 22.62 359.683 23.332V23.632H355.063C355.103 24.312 355.283 24.824 355.603 25.168C355.931 25.512 356.371 25.684 356.923 25.684C357.339 25.684 357.679 25.588 357.943 25.396C358.215 25.196 358.403 24.936 358.507 24.616L359.587 24.7C359.419 25.268 359.099 25.736 358.627 26.104C358.163 26.464 357.595 26.644 356.923 26.644ZM355.063 22.744H358.579C358.531 22.128 358.351 21.676 358.039 21.388C357.735 21.1 357.347 20.956 356.875 20.956C356.387 20.956 355.983 21.108 355.663 21.412C355.351 21.708 355.151 22.152 355.063 22.744ZM366.493 26.5C365.917 26.5 365.489 26.368 365.209 26.104C364.937 25.84 364.801 25.428 364.801 24.868V18.652H365.809V24.844C365.809 25.132 365.873 25.332 366.001 25.444C366.129 25.556 366.325 25.612 366.589 25.612H367.501V26.5H366.493ZM363.865 21.028V20.14H367.501V21.028H363.865ZM368.794 26.5V17.98H369.802V21.544L369.682 21.52C369.762 21.168 369.898 20.88 370.09 20.656C370.282 20.432 370.518 20.268 370.798 20.164C371.078 20.052 371.386 19.996 371.722 19.996C372.178 19.996 372.562 20.1 372.874 20.308C373.194 20.508 373.434 20.792 373.594 21.16C373.762 21.52 373.846 21.936 373.846 22.408V26.5H372.838V22.696C372.838 22.08 372.726 21.624 372.502 21.328C372.286 21.032 371.954 20.884 371.506 20.884C370.994 20.884 370.582 21.04 370.27 21.352C369.958 21.664 369.802 22.116 369.802 22.708V26.5H368.794ZM375.649 26.5V20.14H376.657V26.5H375.649ZM375.625 19.144V17.968H376.681V19.144H375.625ZM380.778 26.644C380.21 26.644 379.726 26.552 379.326 26.368C378.934 26.184 378.626 25.932 378.402 25.612C378.186 25.284 378.062 24.912 378.03 24.496L379.086 24.424C379.15 24.808 379.314 25.116 379.578 25.348C379.842 25.572 380.242 25.684 380.778 25.684C381.21 25.684 381.554 25.616 381.81 25.48C382.074 25.336 382.206 25.108 382.206 24.796C382.206 24.628 382.166 24.488 382.086 24.376C382.006 24.264 381.85 24.168 381.618 24.088C381.386 24 381.042 23.916 380.586 23.836C379.978 23.724 379.498 23.588 379.146 23.428C378.802 23.26 378.554 23.056 378.402 22.816C378.258 22.568 378.186 22.276 378.186 21.94C378.186 21.372 378.394 20.908 378.81 20.548C379.226 20.18 379.818 19.996 380.586 19.996C381.106 19.996 381.542 20.092 381.894 20.284C382.254 20.468 382.534 20.716 382.734 21.028C382.942 21.332 383.078 21.668 383.142 22.036L382.086 22.108C382.038 21.884 381.95 21.688 381.822 21.52C381.694 21.344 381.526 21.208 381.318 21.112C381.11 21.008 380.862 20.956 380.574 20.956C380.118 20.956 379.782 21.044 379.566 21.22C379.35 21.396 379.242 21.62 379.242 21.892C379.242 22.1 379.29 22.272 379.386 22.408C379.49 22.536 379.654 22.644 379.878 22.732C380.102 22.812 380.402 22.884 380.778 22.948C381.426 23.06 381.93 23.196 382.29 23.356C382.65 23.516 382.902 23.712 383.046 23.944C383.19 24.176 383.262 24.46 383.262 24.796C383.262 25.188 383.15 25.524 382.926 25.804C382.71 26.076 382.414 26.284 382.038 26.428C381.67 26.572 381.25 26.644 380.778 26.644ZM390.239 26.644C389.647 26.644 389.131 26.508 388.691 26.236C388.259 25.964 387.923 25.58 387.683 25.084C387.443 24.58 387.323 23.992 387.323 23.32C387.323 22.648 387.443 22.064 387.683 21.568C387.923 21.072 388.259 20.688 388.691 20.416C389.131 20.136 389.647 19.996 390.239 19.996C390.727 19.996 391.159 20.084 391.535 20.26C391.919 20.428 392.231 20.676 392.471 21.004C392.711 21.332 392.867 21.732 392.939 22.204L391.883 22.276C391.811 21.852 391.627 21.528 391.331 21.304C391.035 21.072 390.671 20.956 390.239 20.956C389.655 20.956 389.199 21.168 388.871 21.592C388.543 22.008 388.379 22.584 388.379 23.32C388.379 24.056 388.543 24.636 388.871 25.06C389.199 25.476 389.655 25.684 390.239 25.684C390.671 25.684 391.035 25.564 391.331 25.324C391.627 25.084 391.811 24.724 391.883 24.244L392.939 24.316C392.867 24.788 392.711 25.2 392.471 25.552C392.231 25.896 391.919 26.164 391.535 26.356C391.159 26.548 390.727 26.644 390.239 26.644ZM396.673 26.644C396.089 26.644 395.577 26.508 395.137 26.236C394.697 25.964 394.357 25.58 394.117 25.084C393.877 24.58 393.757 23.992 393.757 23.32C393.757 22.64 393.877 22.052 394.117 21.556C394.357 21.06 394.697 20.676 395.137 20.404C395.577 20.132 396.089 19.996 396.673 19.996C397.257 19.996 397.765 20.132 398.197 20.404C398.637 20.676 398.977 21.06 399.217 21.556C399.457 22.052 399.577 22.64 399.577 23.32C399.577 23.992 399.457 24.58 399.217 25.084C398.977 25.58 398.637 25.964 398.197 26.236C397.765 26.508 397.257 26.644 396.673 26.644ZM396.673 25.684C397.257 25.684 397.709 25.476 398.029 25.06C398.357 24.636 398.521 24.056 398.521 23.32C398.521 22.584 398.357 22.008 398.029 21.592C397.709 21.168 397.257 20.956 396.673 20.956C396.089 20.956 395.633 21.168 395.305 21.592C394.977 22.008 394.813 22.584 394.813 23.32C394.813 24.056 394.977 24.636 395.305 25.06C395.633 25.476 396.089 25.684 396.673 25.684ZM403.206 26.644C402.654 26.644 402.174 26.508 401.766 26.236C401.366 25.964 401.058 25.58 400.842 25.084C400.626 24.588 400.518 24 400.518 23.32C400.518 22.64 400.626 22.052 400.842 21.556C401.058 21.06 401.366 20.676 401.766 20.404C402.174 20.132 402.654 19.996 403.206 19.996C403.63 19.996 404.018 20.088 404.37 20.272C404.722 20.448 404.986 20.7 405.162 21.028V17.98H406.17V26.5H405.258L405.222 25.54C405.046 25.884 404.778 26.156 404.418 26.356C404.058 26.548 403.654 26.644 403.206 26.644ZM403.41 25.684C403.786 25.684 404.102 25.588 404.358 25.396C404.622 25.204 404.822 24.932 404.958 24.58C405.094 24.22 405.162 23.8 405.162 23.32C405.162 22.824 405.094 22.4 404.958 22.048C404.822 21.696 404.622 21.428 404.358 21.244C404.102 21.052 403.786 20.956 403.41 20.956C402.85 20.956 402.402 21.168 402.066 21.592C401.738 22.008 401.574 22.584 401.574 23.32C401.574 24.048 401.738 24.624 402.066 25.048C402.402 25.472 402.85 25.684 403.41 25.684ZM410.454 26.644C409.854 26.644 409.334 26.508 408.894 26.236C408.462 25.964 408.126 25.58 407.886 25.084C407.654 24.58 407.538 23.992 407.538 23.32C407.538 22.648 407.654 22.064 407.886 21.568C408.126 21.072 408.458 20.688 408.882 20.416C409.314 20.136 409.822 19.996 410.406 19.996C410.958 19.996 411.446 20.128 411.87 20.392C412.294 20.648 412.622 21.024 412.854 21.52C413.094 22.016 413.214 22.62 413.214 23.332V23.632H408.594C408.634 24.312 408.814 24.824 409.134 25.168C409.462 25.512 409.902 25.684 410.454 25.684C410.87 25.684 411.21 25.588 411.474 25.396C411.746 25.196 411.934 24.936 412.038 24.616L413.118 24.7C412.95 25.268 412.63 25.736 412.158 26.104C411.694 26.464 411.126 26.644 410.454 26.644ZM408.594 22.744H412.11C412.062 22.128 411.882 21.676 411.57 21.388C411.266 21.1 410.878 20.956 410.406 20.956C409.918 20.956 409.514 21.108 409.194 21.412C408.882 21.708 408.682 22.152 408.594 22.744Z" fill="#292929"/>
<rect x="419.883" y="8.5" width="120" height="28" rx="14" fill="#151207"/>
<path d="M433.208 26.5V17.98H436.268C437.292 17.98 438.064 18.164 438.584 18.532C439.104 18.9 439.364 19.484 439.364 20.284C439.364 20.644 439.288 20.96 439.136 21.232C438.984 21.504 438.76 21.72 438.464 21.88C438.176 22.032 437.832 22.112 437.432 22.12L437.42 22.072C438.148 22.088 438.712 22.288 439.112 22.672C439.52 23.048 439.724 23.544 439.724 24.16C439.724 24.936 439.464 25.52 438.944 25.912C438.424 26.304 437.684 26.5 436.724 26.5H433.208ZM434.504 25.336H436.688C437.224 25.336 437.64 25.228 437.936 25.012C438.24 24.788 438.392 24.464 438.392 24.04C438.392 23.624 438.24 23.3 437.936 23.068C437.64 22.836 437.224 22.72 436.688 22.72H434.504V25.336ZM434.504 21.616H436.244C436.812 21.616 437.252 21.508 437.564 21.292C437.876 21.076 438.032 20.772 438.032 20.38C438.032 19.964 437.88 19.656 437.576 19.456C437.28 19.248 436.836 19.144 436.244 19.144H434.504V21.616ZM441.47 26.5V17.98H442.766V26.02L442.082 25.312H446.918V26.5H441.47ZM447.439 26.5L450.511 17.98H452.155L455.227 26.5H453.847L453.067 24.28H449.587L448.819 26.5H447.439ZM449.995 23.104H452.671L451.327 19.216L449.995 23.104ZM459.479 26.692C458.711 26.692 458.035 26.516 457.451 26.164C456.867 25.804 456.411 25.292 456.083 24.628C455.755 23.964 455.591 23.172 455.591 22.252C455.591 21.34 455.751 20.552 456.071 19.888C456.399 19.216 456.855 18.7 457.439 18.34C458.023 17.972 458.707 17.788 459.491 17.788C460.547 17.788 461.367 18.052 461.951 18.58C462.535 19.108 462.915 19.84 463.091 20.776L461.735 20.848C461.623 20.264 461.383 19.808 461.015 19.48C460.647 19.144 460.139 18.976 459.491 18.976C458.971 18.976 458.519 19.108 458.135 19.372C457.759 19.636 457.463 20.012 457.247 20.5C457.039 20.988 456.935 21.572 456.935 22.252C456.935 22.932 457.039 23.516 457.247 24.004C457.463 24.492 457.763 24.864 458.146 25.12C458.531 25.376 458.975 25.504 459.479 25.504C460.167 25.504 460.699 25.324 461.075 24.964C461.459 24.596 461.699 24.092 461.795 23.452L463.151 23.524C463.047 24.172 462.839 24.732 462.527 25.204C462.215 25.676 461.803 26.044 461.291 26.308C460.779 26.564 460.175 26.692 459.479 26.692ZM464.544 26.5V17.98H465.84V22.048L469.428 17.98H471L467.736 21.7L471.216 26.5H469.692L466.872 22.612L465.84 23.764V26.5H464.544ZM472.302 26.5V17.98H477.834V19.168H472.914L473.598 18.46V22.372L472.914 21.76H477.618V22.912H472.914L473.598 22.3V26.5H472.302ZM479.227 26.5V17.98H482.623C483.231 17.98 483.755 18.084 484.195 18.292C484.635 18.5 484.975 18.796 485.215 19.18C485.455 19.564 485.575 20.02 485.575 20.548C485.575 20.932 485.487 21.276 485.311 21.58C485.143 21.884 484.915 22.128 484.627 22.312C484.347 22.488 484.047 22.588 483.727 22.612L483.667 22.504C484.203 22.504 484.619 22.628 484.915 22.876C485.211 23.116 485.383 23.496 485.431 24.016L485.659 26.5H484.351L484.147 24.184C484.123 23.84 484.007 23.588 483.799 23.428C483.591 23.26 483.251 23.176 482.779 23.176H480.523V26.5H479.227ZM480.523 21.988H482.647C483.135 21.988 483.519 21.868 483.799 21.628C484.087 21.38 484.231 21.032 484.231 20.584C484.231 20.128 484.087 19.78 483.799 19.54C483.511 19.292 483.091 19.168 482.539 19.168H480.523V21.988ZM487.384 26.5V17.98H488.68V26.5H487.384ZM490.536 26.5V17.98H493.272C494.608 17.98 495.636 18.352 496.356 19.096C497.076 19.832 497.436 20.884 497.436 22.252C497.436 23.612 497.08 24.66 496.368 25.396C495.664 26.132 494.656 26.5 493.344 26.5H490.536ZM491.832 25.312H493.272C494.216 25.312 494.92 25.06 495.384 24.556C495.856 24.044 496.092 23.276 496.092 22.252C496.092 21.212 495.856 20.44 495.384 19.936C494.92 19.424 494.216 19.168 493.272 19.168H491.832V25.312ZM497.795 26.5L500.867 17.98H502.511L505.583 26.5H504.203L503.423 24.28H499.943L499.175 26.5H497.795ZM500.351 23.104H503.027L501.683 19.216L500.351 23.104ZM507.854 26.5V23.08L504.865 17.98H506.354L508.502 21.784L510.662 17.98H512.15L509.15 23.08V26.5H507.854ZM512.771 26.5C512.771 25.86 512.867 25.288 513.059 24.784C513.251 24.28 513.579 23.812 514.043 23.38C514.507 22.948 515.147 22.516 515.963 22.084C516.355 21.884 516.667 21.7 516.899 21.532C517.139 21.356 517.311 21.176 517.415 20.992C517.519 20.808 517.571 20.584 517.571 20.32C517.571 20.048 517.511 19.816 517.391 19.624C517.279 19.424 517.111 19.268 516.887 19.156C516.663 19.036 516.379 18.976 516.035 18.976C515.491 18.976 515.059 19.124 514.739 19.42C514.427 19.708 514.231 20.124 514.151 20.668L512.807 20.584C512.903 19.728 513.227 19.048 513.779 18.544C514.339 18.04 515.091 17.788 516.035 17.788C516.643 17.788 517.159 17.896 517.583 18.112C518.015 18.32 518.343 18.612 518.567 18.988C518.799 19.364 518.915 19.8 518.915 20.296C518.915 20.728 518.843 21.1 518.699 21.412C518.555 21.724 518.315 22.016 517.979 22.288C517.643 22.552 517.187 22.836 516.611 23.14C515.875 23.532 515.319 23.92 514.943 24.304C514.567 24.68 514.367 25.016 514.343 25.312H518.915V26.5H512.771ZM523.536 26.692C522.832 26.692 522.22 26.512 521.7 26.152C521.18 25.792 520.78 25.28 520.5 24.616C520.22 23.952 520.08 23.164 520.08 22.252C520.08 21.34 520.22 20.552 520.5 19.888C520.788 19.216 521.188 18.7 521.7 18.34C522.22 17.972 522.832 17.788 523.536 17.788C524.248 17.788 524.86 17.972 525.372 18.34C525.892 18.7 526.292 19.212 526.572 19.876C526.86 20.54 527.004 21.332 527.004 22.252C527.004 23.164 526.864 23.952 526.584 24.616C526.304 25.28 525.904 25.792 525.384 26.152C524.864 26.512 524.248 26.692 523.536 26.692ZM523.536 25.504C524.216 25.504 524.74 25.224 525.108 24.664C525.476 24.104 525.66 23.3 525.66 22.252C525.66 21.548 525.576 20.952 525.408 20.464C525.248 19.976 525.008 19.608 524.688 19.36C524.376 19.104 523.992 18.976 523.536 18.976C523.088 18.976 522.704 19.104 522.384 19.36C522.072 19.608 521.832 19.976 521.664 20.464C521.504 20.952 521.424 21.548 521.424 22.252C521.424 23.3 521.608 24.104 521.976 24.664C522.344 25.224 522.864 25.504 523.536 25.504Z" fill="white"/>
<g filter="url(#filter1_dii_16161_47254)">
<rect width="984" height="18" transform="translate(185.125 -25) rotate(2)" fill="#D9971C"/>
<path d="M489.247 -2.37393L489.445 -8.05047L491.652 -7.97341C492.356 -7.94884 492.89 -7.80479 493.254 -7.54124C493.619 -7.28303 493.791 -6.88742 493.773 -6.35441C493.765 -6.11989 493.71 -5.91635 493.607 -5.74381C493.506 -5.5766 493.36 -5.44561 493.169 -5.35086C492.985 -5.25591 492.761 -5.20234 492.499 -5.19014L492.5 -5.20613C492.973 -5.15759 493.331 -5.00635 493.573 -4.75242C493.82 -4.50363 493.937 -4.17936 493.923 -3.7796C493.905 -3.25192 493.704 -2.86401 493.322 -2.61586C492.945 -2.37286 492.413 -2.26337 491.726 -2.28738L489.247 -2.37393ZM490.497 -3.32289L491.704 -3.28073C491.998 -3.27049 492.234 -3.32093 492.414 -3.43205C492.6 -3.54832 492.697 -3.72637 492.705 -3.96623C492.713 -4.20608 492.629 -4.39047 492.452 -4.51939C492.281 -4.65345 492.048 -4.7256 491.755 -4.73584L490.548 -4.778L490.497 -3.32289ZM490.579 -5.65746L491.538 -5.62396C491.837 -5.61354 492.076 -5.66389 492.256 -5.775C492.441 -5.88594 492.538 -6.05067 492.545 -6.26921C492.553 -6.50373 492.471 -6.67736 492.299 -6.79011C492.133 -6.90799 491.895 -6.97234 491.585 -6.98313L490.626 -7.01664L490.579 -5.65746ZM495.029 -2.17204L495.227 -7.84858L496.442 -7.80614L496.255 -2.4574L495.608 -3.17643L498.894 -3.06168L498.858 -2.0383L495.029 -2.17204ZM499.301 -2.02285L501.546 -7.62792L502.985 -7.57766L504.833 -1.82965L503.57 -1.87376L503.197 -3.09554L501.014 -3.17176L500.556 -1.97902L499.301 -2.02285ZM501.393 -4.15915L502.896 -4.10666L502.221 -6.32357L501.393 -4.15915ZM507.807 -1.59773C507.29 -1.61579 506.833 -1.74915 506.436 -1.99782C506.044 -2.2463 505.742 -2.59574 505.528 -3.04614C505.32 -3.49636 505.226 -4.03061 505.248 -4.6489C505.269 -5.2512 505.396 -5.76973 505.63 -6.2045C505.865 -6.64459 506.188 -6.98016 506.602 -7.2112C507.016 -7.44224 507.494 -7.54826 508.038 -7.52928C508.779 -7.50341 509.348 -7.29942 509.746 -6.91731C510.149 -6.54034 510.397 -6.01135 510.491 -5.33034L509.226 -5.32648C509.174 -5.68583 509.046 -5.96783 508.839 -6.17249C508.633 -6.38248 508.354 -6.49362 508.002 -6.5059C507.699 -6.51651 507.437 -6.44559 507.218 -6.29313C507 -6.14067 506.829 -5.91982 506.707 -5.63058C506.585 -5.34133 506.517 -4.99949 506.503 -4.60507C506.489 -4.20531 506.533 -3.8569 506.635 -3.55984C506.742 -3.26792 506.899 -3.04095 507.107 -2.87893C507.315 -2.71691 507.565 -2.63079 507.859 -2.62055C508.242 -2.60715 508.542 -2.70342 508.757 -2.90936C508.978 -3.12045 509.122 -3.41695 509.189 -3.79885L510.458 -3.70649C510.367 -3.24538 510.207 -2.85607 509.977 -2.53857C509.747 -2.22106 509.451 -1.9806 509.087 -1.81718C508.729 -1.65357 508.303 -1.58042 507.807 -1.59773ZM511.389 -1.60071L511.588 -7.27725L512.803 -7.23481L512.716 -4.75632L514.866 -7.16278L516.281 -7.11336L514.107 -4.68376L516.21 -1.43235L514.827 -1.48065L513.279 -3.89617L512.663 -3.22925L512.605 -1.55827L511.389 -1.60071ZM519.041 -1.33352L519.239 -7.01006L523.156 -6.87325L523.121 -5.84988L519.747 -5.9677L520.443 -6.63982L520.352 -4.04141L519.699 -4.59254L522.929 -4.47974L522.894 -3.47236L519.664 -3.58515L520.354 -4.08938L520.256 -1.29108L519.041 -1.33352ZM523.916 -1.16325L524.115 -6.83979L526.601 -6.75296C527.017 -6.73845 527.374 -6.65659 527.673 -6.5074C527.977 -6.35802 528.208 -6.15253 528.364 -5.89091C528.521 -5.63463 528.593 -5.33326 528.581 -4.9868C528.572 -4.72563 528.507 -4.49572 528.388 -4.29709C528.275 -4.09827 528.12 -3.93825 527.923 -3.81703C527.732 -3.69562 527.514 -3.62321 527.267 -3.59979L527.246 -3.67258C527.624 -3.65937 527.909 -3.5667 528.101 -3.39458C528.292 -3.22779 528.396 -2.97603 528.411 -2.63931L528.498 -1.00328L527.258 -1.04655L527.205 -2.4893C527.196 -2.70839 527.133 -2.87072 527.014 -2.97627C526.9 -3.08697 526.699 -3.14734 526.411 -3.15739L525.204 -3.19955L525.132 -1.12082L523.916 -1.16325ZM525.24 -4.21493L526.375 -4.17529C526.668 -4.16505 526.897 -4.22376 527.062 -4.35143C527.232 -4.48424 527.321 -4.67591 527.33 -4.92642C527.339 -5.18227 527.263 -5.37703 527.102 -5.51073C526.941 -5.64975 526.704 -5.72475 526.389 -5.73573L525.294 -5.77398L525.24 -4.21493ZM529.651 -0.962997L529.849 -6.63954L531.065 -6.5971L530.866 -0.920559L529.651 -0.962997ZM532.099 -0.877526L532.297 -6.55407L534.256 -6.48566C535.178 -6.45346 535.878 -6.18086 536.356 -5.66785C536.835 -5.16017 537.058 -4.45061 537.026 -3.53917C536.995 -2.63305 536.725 -1.94337 536.218 -1.47013C535.716 -0.996699 535.011 -0.775805 534.105 -0.807448L532.099 -0.877526ZM533.35 -1.85846L534.093 -1.8325C534.642 -1.81333 535.052 -1.94576 535.324 -2.22979C535.601 -2.51897 535.75 -2.97271 535.772 -3.591C535.793 -4.20929 535.676 -4.66966 535.42 -4.97212C535.169 -5.27973 534.769 -5.44312 534.22 -5.46229L533.476 -5.48825L533.35 -1.85846ZM537.237 -0.698077L539.482 -6.30314L540.921 -6.25289L542.77 -0.504873L541.507 -0.548986L541.133 -1.77077L538.95 -1.84699L538.493 -0.654243L537.237 -0.698077ZM539.329 -2.83437L540.832 -2.78189L540.157 -4.9988L539.329 -2.83437ZM544.348 -0.44975L544.426 -2.6564L542.572 -6.19525L543.915 -6.14835L545.075 -3.81846L546.386 -6.06207L547.729 -6.01517L545.641 -2.61397L545.564 -0.407312L544.348 -0.44975Z" fill="#151207"/>
<path d="M552.446 -0.0388908C551.956 -0.0560148 551.538 -0.153335 551.192 -0.330853C550.846 -0.50837 550.579 -0.749814 550.392 -1.05519C550.206 -1.36056 550.106 -1.71625 550.094 -2.12227L551.319 -2.13552C551.343 -1.91054 551.4 -1.71642 551.491 -1.55317C551.586 -1.39506 551.716 -1.27314 551.878 -1.18742C552.046 -1.10152 552.252 -1.05428 552.497 -1.04572C552.7 -1.03865 552.871 -1.05667 553.012 -1.09981C553.157 -1.14275 553.269 -1.21089 553.347 -1.30423C553.425 -1.40289 553.467 -1.52418 553.472 -1.66809C553.476 -1.80135 553.448 -1.91706 553.388 -2.01524C553.327 -2.11874 553.208 -2.21363 553.03 -2.29991C552.851 -2.39152 552.588 -2.48345 552.239 -2.57568C551.758 -2.70455 551.37 -2.84349 551.077 -2.99249C550.788 -3.14131 550.581 -3.32199 550.455 -3.53451C550.329 -3.75237 550.272 -4.0212 550.283 -4.34101C550.295 -4.68213 550.388 -4.97773 550.562 -5.2278C550.742 -5.47769 550.994 -5.66901 551.319 -5.80175C551.644 -5.9345 552.027 -5.99315 552.47 -5.9777C552.939 -5.96132 553.333 -5.86483 553.652 -5.68825C553.972 -5.51166 554.217 -5.27629 554.388 -4.98214C554.564 -4.6878 554.665 -4.35343 554.689 -3.97902L553.472 -3.95749C553.463 -4.15526 553.415 -4.32769 553.33 -4.47477C553.244 -4.62717 553.126 -4.74605 552.974 -4.8314C552.822 -4.91675 552.637 -4.96324 552.418 -4.97087C552.141 -4.98055 551.921 -4.92688 551.756 -4.80988C551.598 -4.69268 551.515 -4.53548 551.508 -4.33826C551.503 -4.19968 551.533 -4.08121 551.599 -3.98285C551.671 -3.88963 551.788 -3.80549 551.951 -3.73043C552.119 -3.65518 552.356 -3.58018 552.663 -3.50543C553.187 -3.3804 553.598 -3.22996 553.896 -3.05412C554.2 -2.88342 554.412 -2.68391 554.532 -2.45558C554.652 -2.22725 554.707 -1.96917 554.697 -1.68134C554.685 -1.32956 554.583 -1.02624 554.393 -0.771396C554.208 -0.521695 553.948 -0.333323 553.613 -0.206281C553.283 -0.0790524 552.894 -0.0232558 552.446 -0.0388908ZM555.031 -0.0767243L557.276 -5.68179L558.715 -5.63154L560.563 0.116479L559.3 0.0723664L558.926 -1.14942L556.744 -1.22564L556.286 -0.0328905L555.031 -0.0767243ZM557.122 -2.21302L558.625 -2.16053L557.95 -4.37744L557.122 -2.21302ZM561.338 0.143524L561.536 -5.53302L562.751 -5.49058L562.564 -0.141838L561.917 -0.860867L565.203 -0.746117L565.167 0.277259L561.338 0.143524ZM565.948 0.30452L566.146 -5.37202L570.096 -5.2341L570.06 -4.21072L567.326 -4.30621L567.28 -3.003L569.919 -2.91087L569.883 -1.90348L567.245 -1.99561L567.199 -0.676418L569.997 -0.5787L569.962 0.444676L565.948 0.30452Z" fill="white"/>
<path d="M587.193 1.04795L587.391 -4.62859L589.597 -4.55154C590.301 -4.52697 590.835 -4.38291 591.199 -4.11937C591.564 -3.86115 591.737 -3.46554 591.718 -2.93254C591.71 -2.69801 591.655 -2.49448 591.553 -2.32194C591.451 -2.15472 591.305 -2.02374 591.115 -1.92898C590.93 -1.83404 590.707 -1.78047 590.445 -1.76827L590.445 -1.78426C590.919 -1.73571 591.276 -1.58447 591.518 -1.33054C591.766 -1.08175 591.882 -0.75748 591.868 -0.357724C591.85 0.169955 591.65 0.557867 591.267 0.806012C590.891 1.04901 590.359 1.15851 589.671 1.1345L587.193 1.04795ZM588.442 0.0989881L589.65 0.141147C589.943 0.151384 590.179 0.100943 590.359 -0.0101769C590.545 -0.12644 590.642 -0.304499 590.65 -0.544353C590.659 -0.784207 590.574 -0.968594 590.397 -1.09751C590.226 -1.23158 589.994 -1.30373 589.7 -1.31397L588.493 -1.35613L588.442 0.0989881ZM588.524 -2.23559L589.483 -2.20209C589.782 -2.19166 590.021 -2.24201 590.201 -2.35313C590.386 -2.46406 590.483 -2.6288 590.49 -2.84733C590.499 -3.08185 590.417 -3.25549 590.244 -3.36823C590.078 -3.48612 589.84 -3.55046 589.531 -3.56126L588.571 -3.59476L588.524 -2.23559ZM592.974 1.24984L593.172 -4.4267L594.387 -4.38426L594.201 0.964477L593.553 0.245449L596.839 0.360198L596.804 1.38357L592.974 1.24984ZM597.246 1.39902L599.491 -4.20604L600.93 -4.15579L602.779 1.59223L601.515 1.54811L601.142 0.326332L598.959 0.250112L598.501 1.44286L597.246 1.39902ZM599.338 -0.737274L600.841 -0.684785L600.166 -2.90169L599.338 -0.737274ZM605.752 1.82414C605.235 1.80609 604.778 1.67273 604.381 1.42406C603.99 1.17557 603.687 0.826132 603.473 0.375731C603.265 -0.0744836 603.172 -0.608736 603.193 -1.22703C603.214 -1.82933 603.342 -2.34786 603.576 -2.78262C603.81 -3.22272 604.134 -3.55829 604.547 -3.78932C604.961 -4.02036 605.44 -4.12639 605.983 -4.1074C606.724 -4.08153 607.293 -3.87754 607.691 -3.49543C608.094 -3.11847 608.343 -2.58948 608.436 -1.90846L607.171 -1.90461C607.12 -2.26395 606.991 -2.54596 606.785 -2.75062C606.578 -2.96061 606.299 -3.07174 605.948 -3.08403C605.644 -3.09464 605.383 -3.02371 605.164 -2.87125C604.945 -2.7188 604.774 -2.49795 604.652 -2.2087C604.53 -1.91945 604.462 -1.57762 604.448 -1.18319C604.434 -0.783435 604.478 -0.435026 604.58 -0.137962C604.687 0.153957 604.845 0.380926 605.053 0.542944C605.26 0.704961 605.511 0.791089 605.804 0.801326C606.188 0.814727 606.487 0.718456 606.703 0.512511C606.923 0.301423 607.067 0.0049267 607.134 -0.376978L608.403 -0.284615C608.313 0.176496 608.152 0.565804 607.922 0.883308C607.693 1.20081 607.396 1.44127 607.033 1.6047C606.675 1.7683 606.248 1.84145 605.752 1.82414ZM609.335 1.82117L609.533 -3.85537L610.748 -3.81294L610.662 -1.33445L612.811 -3.7409L614.226 -3.69149L612.052 -1.26188L614.156 1.98952L612.773 1.94122L611.224 -0.474298L610.608 0.192622L610.55 1.8636L609.335 1.82117ZM616.986 2.08835L617.184 -3.58819L621.102 -3.45138L621.066 -2.428L617.692 -2.54582L618.388 -3.21795L618.297 -0.619531L617.644 -1.17066L620.874 -1.05787L620.839 -0.050481L617.609 -0.163276L618.299 -0.667502L618.201 2.13079L616.986 2.08835ZM621.862 2.25862L622.06 -3.41792L624.546 -3.33109C624.962 -3.31657 625.32 -3.23472 625.618 -3.08552C625.923 -2.93615 626.153 -2.73065 626.309 -2.46904C626.466 -2.21275 626.538 -1.91138 626.526 -1.56493C626.517 -1.30375 626.453 -1.07385 626.334 -0.875215C626.22 -0.676394 626.065 -0.516373 625.869 -0.395152C625.678 -0.273745 625.459 -0.201332 625.213 -0.177913L625.191 -0.250707C625.57 -0.237492 625.855 -0.144824 626.046 0.0272952C626.238 0.194085 626.341 0.445842 626.356 0.782568L626.443 2.4186L625.204 2.37532L625.15 0.932572C625.142 0.71348 625.078 0.551158 624.959 0.445605C624.845 0.334909 624.645 0.274535 624.357 0.264484L623.15 0.222325L623.077 2.30106L621.862 2.25862ZM623.185 -0.793056L624.32 -0.75341C624.613 -0.743173 624.842 -0.801889 625.007 -0.929557C625.177 -1.06237 625.266 -1.25403 625.275 -1.50455C625.284 -1.76039 625.208 -1.95516 625.047 -2.08885C624.887 -2.22787 624.649 -2.30287 624.335 -2.31386L623.239 -2.35211L623.185 -0.793056ZM627.596 2.45888L627.795 -3.21766L629.01 -3.17522L628.812 2.50132L627.596 2.45888ZM630.044 2.54435L630.242 -3.13219L632.201 -3.06379C633.123 -3.03159 633.823 -2.75898 634.302 -2.24598C634.78 -1.7383 635.004 -1.02874 634.972 -0.117291C634.94 0.788823 634.671 1.4785 634.163 1.95175C633.661 2.42518 632.957 2.64607 632.051 2.61443L630.044 2.54435ZM631.295 1.56341L632.038 1.58938C632.587 1.60855 632.998 1.47612 633.269 1.19208C633.546 0.902903 633.695 0.449169 633.717 -0.16912C633.738 -0.78741 633.621 -1.24779 633.365 -1.55025C633.114 -1.85785 632.714 -2.02124 632.165 -2.04041L631.422 -2.06638L631.295 1.56341ZM635.183 2.7238L637.428 -2.88127L638.867 -2.83101L640.715 2.917L639.452 2.87289L639.078 1.65111L636.896 1.57489L636.438 2.76763L635.183 2.7238ZM637.274 0.5875L638.778 0.639989L638.103 -1.57692L637.274 0.5875ZM642.294 2.97213L642.371 0.76547L640.517 -2.77338L641.86 -2.72647L643.02 -0.39659L644.331 -2.6402L645.674 -2.59329L643.586 0.807908L643.509 3.01456L642.294 2.97213Z" fill="#151207"/>
<path d="M650.392 3.38298C649.901 3.36586 649.483 3.26854 649.137 3.09102C648.791 2.91351 648.525 2.67206 648.338 2.36669C648.151 2.06132 648.051 1.70562 648.039 1.29961L649.264 1.28636C649.288 1.51134 649.345 1.70545 649.436 1.86871C649.532 2.02682 649.661 2.14873 649.823 2.23445C649.991 2.32036 650.198 2.36759 650.443 2.37616C650.645 2.38323 650.817 2.3652 650.957 2.32207C651.103 2.27912 651.214 2.21098 651.292 2.11765C651.37 2.01898 651.412 1.89769 651.417 1.75378C651.422 1.62053 651.394 1.50481 651.333 1.40664C651.273 1.30313 651.153 1.20824 650.975 1.12196C650.797 1.03035 650.533 0.93843 650.184 0.846194C649.703 0.717324 649.315 0.578387 649.022 0.429381C648.734 0.280562 648.526 0.0998886 648.4 -0.112638C648.275 -0.330495 648.217 -0.599325 648.228 -0.919131C648.24 -1.26026 648.333 -1.55586 648.508 -1.80593C648.687 -2.05582 648.939 -2.24713 649.264 -2.37988C649.589 -2.51262 649.972 -2.57127 650.415 -2.55582C650.884 -2.53944 651.278 -2.44296 651.597 -2.26637C651.917 -2.08979 652.162 -1.85442 652.333 -1.56026C652.51 -1.26592 652.61 -0.93155 652.634 -0.557141L651.417 -0.535618C651.408 -0.733389 651.361 -0.905814 651.275 -1.05289C651.19 -1.2053 651.071 -1.32417 650.919 -1.40952C650.767 -1.49487 650.582 -1.54136 650.364 -1.54899C650.087 -1.55867 649.866 -1.50501 649.702 -1.388C649.543 -1.27081 649.46 -1.1136 649.453 -0.916389C649.448 -0.777807 649.479 -0.659335 649.545 -0.560974C649.616 -0.467757 649.733 -0.383618 649.896 -0.308556C650.064 -0.233309 650.302 -0.158307 650.609 -0.0835505C651.133 0.041478 651.544 0.191913 651.842 0.367756C652.145 0.538454 652.357 0.737968 652.477 0.966299C652.597 1.19463 652.652 1.45271 652.642 1.74053C652.63 2.09232 652.529 2.39563 652.338 2.65048C652.154 2.90018 651.893 3.08855 651.558 3.21559C651.228 3.34282 650.839 3.39862 650.392 3.38298ZM652.976 3.34515L655.221 -2.25992L656.66 -2.20966L658.508 3.53835L657.245 3.49424L656.872 2.27246L654.689 2.19624L654.231 3.38898L652.976 3.34515ZM655.068 1.20885L656.571 1.26134L655.896 -0.955567L655.068 1.20885ZM659.283 3.5654L659.481 -2.11114L660.696 -2.0687L660.51 3.28004L659.862 2.56101L663.148 2.67576L663.113 3.69913L659.283 3.5654ZM663.893 3.7264L664.091 -1.95015L668.041 -1.81222L668.005 -0.788846L665.271 -0.884331L665.226 0.418874L667.864 0.511009L667.829 1.5184L665.19 1.42626L665.144 2.74546L667.943 2.84318L667.907 3.86655L663.893 3.7264Z" fill="white"/>
</g>
</g>
<defs>
<filter id="filter0_dii_16161_47254" x="-475.555" y="9.5" width="1599.78" height="95.4492" filterUnits="userSpaceOnUse" color-interpolation-filters="sRGB">
<feFlood flood-opacity="0" result="BackgroundImageFix"/>
<feColorMatrix in="SourceAlpha" type="matrix" values="0 0 0 0 0 0 0 0 0 0 0 0 0 0 0 0 0 0 127 0" result="hardAlpha"/>
<feOffset dy="2"/>
<feGaussianBlur stdDeviation="7"/>
<feComposite in2="hardAlpha" operator="out"/>
<feColorMatrix type="matrix" values="0 0 0 0 0.0823529 0 0 0 0 0.0705882 0 0 0 0 0.027451 0 0 0 0.12 0"/>
<feBlend mode="normal" in2="BackgroundImageFix" result="effect1_dropShadow_16161_47254"/>
<feBlend mode="normal" in="SourceGraphic" in2="effect1_dropShadow_16161_47254" result="shape"/>
<feColorMatrix in="SourceAlpha" type="matrix" values="0 0 0 0 0 0 0 0 0 0 0 0 0 0 0 0 0 0 127 0" result="hardAlpha"/>
<feOffset dy="2"/>
<feGaussianBlur stdDeviation="5"/>
<feComposite in2="hardAlpha" operator="arithmetic" k2="-1" k3="1"/>
<feColorMatrix type="matrix" values="0 0 0 0 0.0823529 0 0 0 0 0.0705882 0 0 0 0 0.027451 0 0 0 0.2 0"/>
<feBlend mode="normal" in2="shape" result="effect2_innerShadow_16161_47254"/>
<feColorMatrix in="SourceAlpha" type="matrix" values="0 0 0 0 0 0 0 0 0 0 0 0 0 0 0 0 0 0 127 0" result="hardAlpha"/>
<feOffset dy="2"/>
<feGaussianBlur stdDeviation="2"/>
<feComposite in2="hardAlpha" operator="arithmetic" k2="-1" k3="1"/>
<feColorMatrix type="matrix" values="0 0 0 0 0.0823529 0 0 0 0 0.0705882 0 0 0 0 0.027451 0 0 0 0.12 0"/>
<feBlend mode="normal" in2="effect2_innerShadow_16161_47254" result="effect3_innerShadow_16161_47254"/>
</filter>
<filter id="filter1_dii_16161_47254" x="170.5" y="-37" width="1012.02" height="80.332" filterUnits="userSpaceOnUse" color-interpolation-filters="sRGB">
<feFlood flood-opacity="0" result="BackgroundImageFix"/>
<feColorMatrix in="SourceAlpha" type="matrix" values="0 0 0 0 0 0 0 0 0 0 0 0 0 0 0 0 0 0 127 0" result="hardAlpha"/>
<feOffset dy="2"/>
<feGaussianBlur stdDeviation="7"/>
<feComposite in2="hardAlpha" operator="out"/>
<feColorMatrix type="matrix" values="0 0 0 0 0.0823529 0 0 0 0 0.0705882 0 0 0 0 0.027451 0 0 0 0.12 0"/>
<feBlend mode="normal" in2="BackgroundImageFix" result="effect1_dropShadow_16161_47254"/>
<feBlend mode="normal" in="SourceGraphic" in2="effect1_dropShadow_16161_47254" result="shape"/>
<feColorMatrix in="SourceAlpha" type="matrix" values="0 0 0 0 0 0 0 0 0 0 0 0 0 0 0 0 0 0 127 0" result="hardAlpha"/>
<feOffset dy="2"/>
<feGaussianBlur stdDeviation="5"/>
<feComposite in2="hardAlpha" operator="arithmetic" k2="-1" k3="1"/>
<feColorMatrix type="matrix" values="0 0 0 0 0.0823529 0 0 0 0 0.0705882 0 0 0 0 0.027451 0 0 0 0.2 0"/>
<feBlend mode="normal" in2="shape" result="effect2_innerShadow_16161_47254"/>
<feColorMatrix in="SourceAlpha" type="matrix" values="0 0 0 0 0 0 0 0 0 0 0 0 0 0 0 0 0 0 127 0" result="hardAlpha"/>
<feOffset dy="2"/>
<feGaussianBlur stdDeviation="2"/>
<feComposite in2="hardAlpha" operator="arithmetic" k2="-1" k3="1"/>
<feColorMatrix type="matrix" values="0 0 0 0 0.0823529 0 0 0 0 0.0705882 0 0 0 0 0.027451 0 0 0 0.12 0"/>
<feBlend mode="normal" in2="effect2_innerShadow_16161_47254" result="effect3_innerShadow_16161_47254"/>
</filter>
<clipPath id="clip0_16161_47254">
<rect width="639" height="44" fill="white"/>
</clipPath>
</defs>
</svg>
