<svg width="375" height="38" viewBox="0 0 375 38" fill="none" xmlns="http://www.w3.org/2000/svg">
<g clip-path="url(#clip0_16163_47314)">
<rect width="375" height="38" fill="#FFEFD1"/>
<g filter="url(#filter0_dii_16163_47314)">
<rect width="1572" height="18" transform="translate(-544.008 11.4961) rotate(1.80289)" fill="#D9971C"/>
<path d="M-43.9049 39.2456L-43.7262 33.5684L-41.5193 33.6378C-40.8156 33.66 -40.2812 33.8022 -39.9159 34.0645C-39.5505 34.3215 -39.3762 34.7165 -39.3929 35.2495C-39.4003 35.4841 -39.4548 35.6878 -39.5562 35.8607C-39.6576 36.0283 -39.8031 36.1598 -39.9929 36.2552C-40.1773 36.3507 -40.4005 36.4051 -40.6623 36.4182L-40.6618 36.4022C-40.1884 36.4491 -39.8303 36.5991 -39.5875 36.8522C-39.3391 37.1002 -39.2213 37.424 -39.2339 37.8238C-39.2505 38.3516 -39.4495 38.7402 -39.8308 38.9896C-40.2067 39.2339 -40.7385 39.3452 -41.4261 39.3236L-43.9049 39.2456ZM-42.6583 38.2923L-41.4509 38.3303C-41.1577 38.3395 -40.9213 38.2883 -40.7417 38.1766C-40.5566 38.0597 -40.4603 37.8813 -40.4527 37.6414C-40.4452 37.4015 -40.5301 37.2174 -40.7075 37.0891C-40.8794 36.9556 -41.1119 36.8843 -41.4051 36.875L-42.6125 36.837L-42.6583 38.2923ZM-42.5848 35.9575L-41.6253 35.9877C-41.3267 35.9971 -41.0877 35.9459 -40.9081 35.8342C-40.7231 35.7226 -40.6272 35.5575 -40.6204 35.339C-40.613 35.1044 -40.6956 34.9311 -40.8681 34.8189C-41.0352 34.7016 -41.2733 34.6381 -41.5825 34.6283L-42.542 34.5981L-42.5848 35.9575ZM-38.1228 39.4276L-37.9441 33.7504L-36.7287 33.7886L-36.897 39.138L-37.5468 38.4212L-34.2604 38.5246L-34.2927 39.5481L-38.1228 39.4276ZM-33.8502 39.5621L-31.6245 33.9493L-30.1852 33.9946L-28.3169 39.7362L-29.5803 39.6965L-29.9581 38.476L-32.141 38.4073L-32.5948 39.6016L-33.8502 39.5621ZM-31.7657 37.4186L-30.2625 37.4659L-30.9451 35.2513L-31.7657 37.4186ZM-25.3426 39.9579C-25.8597 39.9416 -26.3171 39.8098 -26.7149 39.5625C-27.1073 39.3154 -27.4111 38.967 -27.6264 38.5173C-27.8364 38.0679 -27.9316 37.5339 -27.9122 36.9156C-27.8932 36.3132 -27.7675 35.7942 -27.535 35.3587C-27.3024 34.9178 -26.9796 34.5811 -26.5667 34.3486C-26.1539 34.1162 -25.6756 34.0085 -25.1319 34.0256C-24.3909 34.0489 -23.821 34.251 -23.4221 34.6317C-23.0177 35.0073 -22.7675 35.5354 -22.6716 36.2161L-23.9365 36.2243C-23.9892 35.8651 -24.1191 35.5836 -24.3261 35.3796C-24.5329 35.1704 -24.8123 35.0602 -25.1641 35.0491C-25.4679 35.0395 -25.729 35.1114 -25.9473 35.2646C-26.1655 35.4178 -26.3352 35.6392 -26.4564 35.9289C-26.5776 36.2185 -26.6444 36.5606 -26.6568 36.9551C-26.6694 37.3549 -26.6243 37.7031 -26.5216 37.9999C-26.4134 38.2914 -26.2551 38.5178 -26.0467 38.6791C-25.8384 38.8404 -25.5876 38.9257 -25.2944 38.9349C-24.9106 38.947 -24.6114 38.8497 -24.3968 38.643C-24.1767 38.4312 -24.0339 38.1342 -23.9685 37.7521L-22.6987 37.84C-22.7879 38.3015 -22.9469 38.6913 -23.1757 39.0096C-23.4045 39.3279 -23.7002 39.5694 -24.0629 39.7341C-24.4203 39.8989 -24.8469 39.9735 -25.3426 39.9579ZM-21.7602 39.9426L-21.5815 34.2654L-20.3661 34.3037L-20.4442 36.7825L-18.3032 34.3686L-16.8879 34.4132L-19.0536 36.8502L-16.9386 40.0944L-18.3219 40.0508L-19.8789 37.6407L-20.4922 38.3097L-20.5448 39.9809L-21.7602 39.9426ZM-14.1081 40.1835L-13.9294 34.5063L-10.0113 34.6296L-10.0435 35.6531L-13.4179 35.5469L-12.7243 34.8724L-12.8061 37.4711L-13.4612 36.9222L-10.2308 37.0239L-10.2625 38.0314L-13.4929 37.9297L-12.8046 37.4231L-12.8927 40.2217L-14.1081 40.1835ZM-9.23175 40.337L-9.05305 34.6598L-6.56629 34.7381C-6.15049 34.7511 -5.79285 34.8318 -5.49336 34.9799C-5.18855 35.1283 -4.95754 35.333 -4.80034 35.594C-4.64298 35.8498 -4.56975 36.1509 -4.58065 36.4974C-4.58888 36.7586 -4.65215 36.9887 -4.77047 37.1878C-4.88346 37.387 -5.03792 37.5475 -5.23385 37.6694C-5.42445 37.7915 -5.64286 37.8647 -5.88908 37.8889L-5.9108 37.8162C-5.53232 37.8281 -5.24707 37.9198 -5.05503 38.0913C-4.86283 38.2574 -4.75869 38.5088 -4.74261 38.8455L-4.65002 40.4812L-5.88941 40.4422L-5.94805 38.9996C-5.95717 38.7806 -6.02143 38.6185 -6.14085 38.5133C-6.25477 38.403 -6.45566 38.3433 -6.74352 38.3343L-7.95092 38.2963L-8.01636 40.3752L-9.23175 40.337ZM-7.91895 37.2808L-6.78351 37.3165C-6.49033 37.3257 -6.26167 37.2662 -6.09756 37.138C-5.92795 37.0046 -5.83919 36.8126 -5.83131 36.5621C-5.82325 36.3062 -5.89984 36.1117 -6.06106 35.9786C-6.22212 35.8401 -6.4599 35.7659 -6.77442 35.756L-7.86987 35.7215L-7.91895 37.2808ZM-3.49647 40.5175L-3.31777 34.8403L-2.10237 34.8786L-2.28107 40.5558L-3.49647 40.5175ZM-1.04862 40.5945L-0.86992 34.9174L1.08911 34.979C2.01132 35.0081 2.7125 35.2782 3.19265 35.7896C3.67297 36.2956 3.89878 37.0044 3.87009 37.916C3.84156 38.8222 3.57437 39.5128 3.06851 39.9878C2.56798 40.4629 1.8646 40.6862 0.958386 40.6577L-1.04862 40.5945ZM0.198994 39.6093L0.942626 39.6327C1.49169 39.65 1.90143 39.5162 2.17187 39.2312C2.4478 38.9411 2.5955 38.4868 2.61496 37.8685C2.63442 37.2501 2.5155 36.7901 2.2582 36.4886C2.00639 36.1818 1.60595 36.0198 1.05689 36.0025L0.313261 35.9791L0.198994 39.6093ZM4.09071 40.7563L6.3164 35.1436L7.75568 35.1889L9.62397 40.9305L8.36059 40.8907L7.98281 39.6702L5.79989 39.6015L5.34609 40.7958L4.09071 40.7563ZM6.17518 38.6128L7.67843 38.6602L6.99577 36.4456L6.17518 38.6128ZM11.2027 40.9802L11.2722 38.7733L9.40636 35.2408L10.7497 35.2831L11.9171 37.609L13.2205 35.3609L14.5638 35.4032L12.4876 38.8115L12.4181 41.0184L11.2027 40.9802Z" fill="#151207"/>
<path d="M19.3018 41.3632C18.8114 41.3477 18.3929 41.2519 18.0463 41.0755C17.6996 40.8992 17.4324 40.6587 17.2446 40.354C17.0567 40.0492 16.9559 39.6939 16.942 39.2879L18.1671 39.2704C18.1921 39.4953 18.25 39.6893 18.3409 39.8522C18.4373 40.01 18.5669 40.1314 18.7296 40.2166C18.8977 40.3019 19.1043 40.3485 19.3495 40.3562C19.5521 40.3626 19.7234 40.3439 19.8636 40.3003C20.009 40.2569 20.1205 40.1884 20.1982 40.0948C20.276 39.9958 20.3172 39.8744 20.3217 39.7305C20.3259 39.5972 20.2975 39.4816 20.2366 39.3836C20.1758 39.2803 20.056 39.1858 19.8773 39.1002C19.6988 39.0092 19.4348 38.9182 19.0855 38.8271C18.6039 38.6999 18.2161 38.5623 17.9219 38.4143C17.6331 38.2665 17.4253 38.0865 17.2986 37.8744C17.1721 37.657 17.1138 37.3884 17.1239 37.0685C17.1346 36.7274 17.2266 36.4314 17.3999 36.1808C17.5786 35.9303 17.8301 35.7381 18.1545 35.6042C18.4788 35.4704 18.8622 35.4104 19.3047 35.4243C19.7738 35.4391 20.1683 35.5342 20.4883 35.7097C20.8083 35.8852 21.0543 36.1197 21.2265 36.4133C21.404 36.707 21.5056 37.041 21.5311 37.4154L20.3137 37.4411C20.3039 37.2433 20.256 37.0711 20.1699 36.9243C20.084 36.7722 19.965 36.6537 19.8129 36.5689C19.6609 36.4841 19.4755 36.4382 19.257 36.4313C18.9798 36.4226 18.7593 36.477 18.5955 36.5946C18.4371 36.7123 18.3547 36.8698 18.3485 37.0671C18.3442 37.2057 18.3751 37.324 18.4414 37.4222C18.5132 37.5151 18.6306 37.5989 18.7937 37.6734C18.9621 37.748 19.1999 37.8222 19.507 37.8959C20.0314 38.0191 20.4429 38.1682 20.7416 38.343C21.0457 38.5126 21.2582 38.7114 21.3791 38.9393C21.5 39.1672 21.5559 39.4251 21.5469 39.713C21.5358 40.0648 21.4355 40.3685 21.2461 40.624C21.0621 40.8743 20.8027 41.0636 20.4678 41.1918C20.1383 41.3201 19.7496 41.3773 19.3018 41.3632ZM21.886 41.3165L24.1116 35.7037L25.5509 35.749L27.4192 41.4906L26.1558 41.4509L25.7781 40.2304L23.5951 40.1617L23.1413 41.356L21.886 41.3165ZM23.9704 39.173L25.4737 39.2203L24.791 37.0057L23.9704 39.173ZM28.1938 41.515L28.3725 35.8378L29.5879 35.8761L29.4195 41.2254L28.7697 40.5086L32.0561 40.6121L32.0239 41.6356L28.1938 41.515ZM32.8046 41.6601L32.9833 35.983L36.9334 36.1073L36.9011 37.1308L34.1665 37.0447L34.1255 38.3481L36.7642 38.4311L36.7324 39.4386L34.0938 39.3556L34.0522 40.6749L36.8508 40.763L36.8186 41.7865L32.8046 41.6601Z" fill="white"/>
<path d="M54.0482 42.3276L54.2269 36.6504L56.4338 36.7199C57.1375 36.742 57.6719 36.8842 58.0372 37.1465C58.4026 37.4035 58.577 37.7985 58.5602 38.3316C58.5528 38.5661 58.4984 38.7698 58.3969 38.9427C58.2956 39.1103 58.15 39.2418 57.9602 39.3372C57.7758 39.4328 57.5527 39.4871 57.2908 39.5002L57.2913 39.4842C57.7647 39.5311 58.1228 39.6811 58.3657 39.9342C58.614 40.1822 58.7319 40.5061 58.7193 40.9059C58.7027 41.4336 58.5037 41.8222 58.1223 42.0716C57.7464 42.3159 57.2147 42.4273 56.527 42.4056L54.0482 42.3276ZM55.2948 41.3743L56.5022 41.4124C56.7954 41.4216 57.0318 41.3703 57.2114 41.2586C57.3965 41.1417 57.4929 40.9633 57.5004 40.7234C57.508 40.4835 57.423 40.2994 57.2457 40.1711C57.0738 40.0377 56.8412 39.9663 56.548 39.9571L55.3406 39.9191L55.2948 41.3743ZM55.3683 39.0395L56.3279 39.0697C56.6264 39.0791 56.8654 39.0279 57.045 38.9162C57.23 38.8046 57.3259 38.6396 57.3328 38.421C57.3401 38.1865 57.2576 38.0131 57.085 37.9009C56.9179 37.7836 56.6798 37.7201 56.3706 37.7104L55.4111 37.6802L55.3683 39.0395ZM59.8304 42.5096L60.0091 36.8324L61.2245 36.8707L61.0561 42.22L60.4063 41.5032L63.6927 41.6067L63.6605 42.6302L59.8304 42.5096ZM64.1029 42.6441L66.3286 37.0313L67.7679 37.0766L69.6362 42.8183L68.3728 42.7785L67.995 41.558L65.8121 41.4893L65.3583 42.6836L64.1029 42.6441ZM66.1874 40.5006L67.6907 40.5479L67.008 38.3334L66.1874 40.5006ZM72.6105 43.0399C72.0934 43.0237 71.636 42.8919 71.2383 42.6446C70.8458 42.3974 70.542 42.049 70.3267 41.5994C70.1167 41.1499 70.0215 40.616 70.041 39.9976C70.0599 39.3952 70.1856 38.8763 70.4181 38.4407C70.6508 37.9998 70.9735 37.6631 71.3864 37.4307C71.7992 37.1982 72.2775 37.0905 72.8213 37.1076C73.5622 37.131 74.1321 37.333 74.531 37.7137C74.9354 38.0893 75.1856 38.6174 75.2816 39.2981L74.0167 39.3063C73.9639 38.9472 73.8341 38.6656 73.6271 38.4617C73.4202 38.2524 73.1409 38.1422 72.789 38.1311C72.4852 38.1216 72.2241 38.1934 72.0059 38.3466C71.7876 38.4998 71.6179 38.7212 71.4967 39.0109C71.3755 39.3006 71.3087 39.6426 71.2963 40.0371C71.2837 40.4369 71.3288 40.7852 71.4315 41.0819C71.5397 41.3734 71.698 41.5999 71.9064 41.7612C72.1148 41.9225 72.3655 42.0077 72.6587 42.017C73.0425 42.029 73.3417 41.9317 73.5563 41.7251C73.7765 41.5132 73.9192 41.2162 73.9846 40.8341L75.2544 40.9221C75.1652 41.3835 75.0062 41.7734 74.7774 42.0916C74.5486 42.4099 74.2529 42.6514 73.8902 42.8161C73.5328 42.9809 73.1063 43.0555 72.6105 43.0399ZM76.1929 43.0246L76.3716 37.3475L77.587 37.3857L77.509 39.8645L79.65 37.4506L81.0653 37.4952L78.8995 39.9323L81.0145 43.1764L79.6312 43.1329L78.0742 40.7227L77.4609 41.3917L77.4083 43.0629L76.1929 43.0246ZM83.845 43.2655L84.0237 37.5883L87.9418 37.7116L87.9096 38.7351L84.5352 38.6289L85.2288 37.9544L85.147 40.5531L84.492 40.0042L87.7224 40.1059L87.6906 41.1134L84.4602 41.0117L85.1485 40.5052L85.0604 43.3038L83.845 43.2655ZM88.7214 43.419L88.9001 37.7418L91.3868 37.8201C91.8026 37.8332 92.1603 37.9138 92.4598 38.062C92.7646 38.2103 92.9956 38.415 93.1528 38.6761C93.3101 38.9318 93.3834 39.2329 93.3725 39.5794C93.3642 39.8406 93.301 40.0708 93.1827 40.2698C93.0697 40.469 92.9152 40.6296 92.7193 40.7515C92.5287 40.8735 92.3103 40.9467 92.064 40.971L92.0423 40.8982C92.4208 40.9101 92.7061 41.0018 92.8981 41.1733C93.0903 41.3394 93.1944 41.5908 93.2105 41.9275L93.3031 43.5632L92.0637 43.5242L92.0051 42.0816C91.996 41.8626 91.9317 41.7005 91.8123 41.5953C91.6984 41.485 91.4975 41.4254 91.2096 41.4163L90.0022 41.3783L89.9368 43.4573L88.7214 43.419ZM90.0342 40.3628L91.1696 40.3985C91.4628 40.4078 91.6915 40.3483 91.8556 40.22C92.0252 40.0866 92.1139 39.8947 92.1218 39.6441C92.1299 39.3882 92.0533 39.1937 91.8921 39.0606C91.731 38.9221 91.4932 38.8479 91.1787 38.838L90.0833 38.8036L90.0342 40.3628ZM94.4567 43.5995L94.6354 37.9223L95.8508 37.9606L95.6721 43.6378L94.4567 43.5995ZM96.9045 43.6766L97.0832 37.9994L99.0422 38.0611C99.9644 38.0901 100.666 38.3603 101.146 38.8716C101.626 39.3777 101.852 40.0865 101.823 40.998C101.795 41.9042 101.527 42.5948 101.022 43.0698C100.521 43.545 99.8177 43.7683 98.9115 43.7398L96.9045 43.6766ZM98.1521 42.6913L98.8958 42.7147C99.4448 42.732 99.8546 42.5982 100.125 42.3132C100.401 42.0231 100.549 41.5689 100.568 40.9505C100.588 40.3321 100.469 39.8722 100.211 39.5706C99.9595 39.2638 99.5591 39.1018 99.01 39.0845L98.2664 39.0611L98.1521 42.6913ZM102.044 43.8383L104.27 38.2256L105.709 38.2709L107.577 44.0125L106.314 43.9728L105.936 42.7523L103.753 42.6836L103.299 43.8779L102.044 43.8383ZM104.128 41.6949L105.632 41.7422L104.949 39.5276L104.128 41.6949ZM109.156 44.0622L109.225 41.8553L107.359 38.3229L108.703 38.3651L109.87 40.691L111.174 38.4429L112.517 38.4852L110.441 41.8936L110.371 44.1005L109.156 44.0622Z" fill="#151207"/>
<path d="M117.255 44.4452C116.765 44.4298 116.346 44.3339 115.999 44.1576C115.653 43.9812 115.386 43.7407 115.198 43.436C115.01 43.1313 114.909 42.7759 114.895 42.3699L116.12 42.3525C116.145 42.5774 116.203 42.7713 116.294 42.9342C116.39 43.092 116.52 43.2135 116.683 43.2986C116.851 43.384 117.057 43.4305 117.303 43.4382C117.505 43.4446 117.677 43.426 117.817 43.3824C117.962 43.3389 118.074 43.2704 118.151 43.1768C118.229 43.0778 118.27 42.9564 118.275 42.8125C118.279 42.6792 118.251 42.5636 118.19 42.4656C118.129 42.3623 118.009 42.2679 117.83 42.1822C117.652 42.0912 117.388 42.0002 117.039 41.9091C116.557 41.7819 116.169 41.6443 115.875 41.4963C115.586 41.3485 115.378 41.1686 115.252 40.9565C115.125 40.739 115.067 40.4704 115.077 40.1506C115.088 39.8094 115.18 39.5135 115.353 39.2628C115.532 39.0123 115.783 38.8201 116.108 38.6863C116.432 38.5524 116.815 38.4924 117.258 38.5064C117.727 38.5211 118.121 38.6163 118.441 38.7917C118.761 38.9672 119.007 39.2018 119.18 39.4953C119.357 39.789 119.459 40.1231 119.484 40.4974L118.267 40.5231C118.257 40.3254 118.209 40.1531 118.123 40.0063C118.037 39.8542 117.918 39.7357 117.766 39.6509C117.614 39.5661 117.429 39.5202 117.21 39.5134C116.933 39.5046 116.712 39.5591 116.549 39.6766C116.39 39.7944 116.308 39.9519 116.302 40.1491C116.297 40.2877 116.328 40.4061 116.395 40.5042C116.466 40.5972 116.584 40.6809 116.747 40.7554C116.915 40.8301 117.153 40.9042 117.46 40.9779C117.985 41.1012 118.396 41.2502 118.695 41.425C118.999 41.5947 119.211 41.7934 119.332 42.0214C119.453 42.2493 119.509 42.5072 119.5 42.795C119.489 43.1469 119.389 43.4505 119.199 43.706C119.015 43.9563 118.756 44.1456 118.421 44.2738C118.091 44.4022 117.703 44.4593 117.255 44.4452ZM119.839 44.3985L122.065 38.7857L123.504 38.831L125.372 44.5727L124.109 44.5329L123.731 43.3124L121.548 43.2437L121.094 44.438L119.839 44.3985ZM121.924 42.255L123.427 42.3023L122.744 40.0877L121.924 42.255ZM126.147 44.597L126.326 38.9198L127.541 38.9581L127.373 44.3075L126.723 43.5907L130.009 43.6941L129.977 44.7176L126.147 44.597ZM130.758 44.7422L130.936 39.065L134.886 39.1893L134.854 40.2128L132.12 40.1267L132.079 41.4301L134.717 41.5131L134.686 42.5206L132.047 42.4376L132.005 43.7569L134.804 43.845L134.772 44.8685L130.758 44.7422Z" fill="white"/>
</g>
<path d="M43.2643 18.4826C43.7218 18.4474 44.1793 18.4122 44.672 18.4122C45.1647 18.4122 45.7278 18.4826 46.3613 18.6234C46.9948 18.7641 47.4523 19.0105 47.8042 19.3624C48.1913 19.7495 48.3673 20.207 48.3673 20.6997C48.3673 21.1924 48.2265 21.6851 47.9802 22.1426C47.6986 22.6353 47.3115 23.128 46.7484 23.6207C45.1647 25.0637 43.1235 25.8027 40.6249 25.8027C39.9562 25.8027 39.3579 25.7323 38.8652 25.5915C38.3373 25.4508 38.0206 25.3452 37.8446 25.2396C37.7039 25.134 37.4927 24.9933 37.2815 24.8173C37.0704 24.6413 37 24.5358 37.1408 24.5358C37.2112 24.5358 37.3871 24.6061 37.6687 24.7117C37.9854 24.8173 38.5485 24.8877 39.3579 24.8877C40.1674 24.8877 41.0472 24.7821 41.9974 24.6061C42.9476 24.4302 43.7218 24.1486 44.3905 23.7615C45.0592 23.3744 45.587 22.9521 45.9742 22.4946C46.4317 21.9315 46.678 21.3684 46.678 20.7701C46.678 20.4534 46.6076 20.1367 46.4317 19.8199C46.2557 19.5032 45.939 19.2568 45.4111 19.0809C44.9184 18.9049 44.4609 18.8345 44.0386 18.8345C43.6162 18.8345 43.1939 18.8345 42.666 18.9049C42.1382 18.9401 41.5047 19.1161 40.6952 19.3976C39.8858 19.6792 39.3579 20.0311 39.1116 20.383C38.83 20.7701 38.6189 21.1221 38.4077 21.474C38.2317 21.7907 38.0206 22.1426 37.8446 22.5298C37.6335 22.9169 37.4927 23.1984 37.3871 23.3744C37.3167 23.5504 37.2112 23.6207 37.1408 23.6207C37.0704 23.6207 37 23.5856 37 23.48C37 23.0929 37.4575 22.1426 38.4077 20.6997C39.3579 19.2568 40.2377 17.9547 41.1176 16.8285C41.9622 15.7024 42.4901 15.1393 42.6309 15.1393C42.7012 15.1393 42.7716 15.1393 42.8068 15.2449C42.842 15.3152 42.8772 15.3856 42.8772 15.456C41.3639 17.3564 40.4489 18.5178 40.1322 18.9049C44.5665 18.1659 47.2763 17.1101 48.2265 15.7376C48.3673 15.4912 48.4377 15.28 48.4377 15.0689C48.4377 14.8577 48.3321 14.6818 48.1561 14.5058C47.769 14.1539 47.03 13.9779 45.9742 13.9779C44.9184 13.9779 43.5107 14.2243 41.7862 14.717C40.0618 15.2097 38.8652 15.7376 38.1614 16.3358C37.9502 16.5118 37.8798 16.6174 37.9502 16.723C38.0206 16.8285 38.0206 16.8989 37.9854 16.8989C37.9502 16.8989 37.915 16.8989 37.8446 16.8637C37.5983 16.723 37.4223 16.547 37.3519 16.3006C37.2815 16.0543 37.2463 15.9135 37.2463 15.8079C37.2463 15.7024 37.2463 15.632 37.3519 15.5616C37.8798 14.8225 39.0764 14.1539 40.9768 13.5556C42.8772 12.9573 44.3201 12.6758 45.3407 12.6758C47.3467 12.6758 48.6136 13.0277 49.1415 13.6964C49.3527 13.9427 49.4583 14.2595 49.4583 14.541C49.4583 14.9985 49.2119 15.4912 48.6488 16.0191C47.4171 17.1805 45.6222 18.0251 43.3347 18.553L43.2643 18.4826Z" fill="#151207"/>
<path d="M49.7047 24.0097C49.7047 24.3264 49.8806 24.5024 50.1974 24.5024C50.3733 24.5024 50.6901 24.432 51.1124 24.256C51.5347 24.1152 52.0626 23.7633 52.7312 23.2354C53.3999 22.7075 53.8574 22.3204 54.0686 22.074C54.3149 21.8277 54.4205 21.7221 54.4909 21.7221C54.5261 21.7221 54.5613 21.7573 54.5613 21.8277C54.5613 21.8981 54.5261 21.9333 54.4557 22.0037C53.4351 23.0594 52.5553 23.7985 51.8866 24.2912C51.218 24.7487 50.5845 24.9599 49.9862 24.9599C49.4935 24.9599 49.1416 24.8543 48.9656 24.6079C48.7896 24.3616 48.6841 24.1152 48.6841 23.7985C48.6841 23.2706 48.8952 22.6019 49.2823 21.8277C48.5785 22.5667 48.2266 22.8131 48.2266 22.5667C48.2266 22.5316 48.2618 22.4612 48.3321 22.3908C48.8952 21.9333 49.5287 21.2646 50.1622 20.3848C51.3587 18.8363 52.3089 17.4286 52.9776 16.2672C53.1184 16.0209 53.1536 15.8801 53.1536 15.7393C53.1536 15.493 53.0128 15.4226 52.7312 15.5986C52.4145 15.7393 52.2385 15.8097 52.2385 15.7745C52.2385 15.7393 52.2385 15.7041 52.3089 15.6338C52.5905 15.4226 53.0128 15.2114 53.5055 15.0355C54.0334 14.8595 54.4205 14.7539 54.7724 14.7188C55.2651 14.7188 55.5467 14.8947 55.5467 15.1763C55.5467 15.3522 55.4763 15.5986 55.3003 15.9153C55.1244 16.232 54.6317 16.8303 53.787 17.7101C52.9424 18.6252 52.4497 19.1882 52.2737 19.3994C51.0068 21.0535 50.2326 22.3204 49.8806 23.3058C49.8102 23.5521 49.7399 23.7633 49.7399 23.9393L49.7047 24.0097Z" fill="#151207"/>
<path d="M60.3743 21.9673C60.3743 21.9673 60.0927 22.284 59.952 22.46C59.8112 22.636 59.6352 22.8823 59.4241 23.199C59.2129 23.5158 59.1073 23.7621 59.1073 24.0085C59.1073 24.2548 59.2129 24.3252 59.3889 24.3252C59.5648 24.3252 59.8816 24.2196 60.3039 23.9733C61.1485 23.4806 62.0987 22.7767 63.1193 21.7913C63.2249 21.6858 63.3305 21.6506 63.3657 21.7209V21.7913C63.3657 21.7913 63.3657 21.8617 63.2953 21.9321C61.2189 23.9029 59.7056 24.8883 58.7554 24.8883C58.4739 24.8883 58.2275 24.7827 58.0516 24.6068C57.8756 24.4308 57.77 24.1844 57.77 23.9381C57.77 23.6917 57.8756 23.3046 58.0867 22.7767C57.5237 23.4454 56.9606 23.9733 56.3271 24.3604C55.6936 24.7123 55.2009 24.9235 54.849 24.9235C54.4971 24.9235 54.1803 24.8179 53.934 24.6068C53.6876 24.3956 53.5469 24.1141 53.5469 23.8325C53.5469 22.9175 53.934 22.0729 54.7434 21.1931C55.3417 20.5596 56.116 20.1021 56.9958 19.8205C57.3829 19.6798 57.8052 19.6094 58.1571 19.6094C58.5091 19.6094 58.8962 19.715 59.2833 19.9261C59.6352 20.1373 59.8816 20.3836 59.952 20.7004C60.3039 20.7004 60.5854 20.8411 60.7262 21.0875C60.7262 21.1227 60.7614 21.1931 60.7614 21.2634C60.7614 21.3338 60.7262 21.4394 60.6206 21.545C60.5151 21.6506 60.4095 21.7913 60.3039 21.9321L60.3743 21.9673ZM59.037 20.1373C58.7906 20.1373 58.4739 20.2077 58.1219 20.3836C57.5237 20.63 56.9254 21.1227 56.3623 21.7561C55.4825 22.8119 55.025 23.551 55.025 24.0437C55.025 24.29 55.1306 24.4308 55.3417 24.4308C55.5177 24.4308 55.7992 24.3252 56.1863 24.1141C56.5735 23.9029 57.1013 23.4806 57.7348 22.8119C57.77 22.7767 57.9108 22.636 58.1571 22.4248C58.4035 22.2136 58.6146 22.0025 58.7906 21.8265C59.3537 21.2282 59.6352 20.8059 59.6352 20.5596C59.6352 20.3132 59.4241 20.1725 59.037 20.1725V20.1373Z" fill="#151207"/>
<path d="M67.7165 20.4539C67.7165 20.2075 67.6109 20.1019 67.3646 20.1019C67.1534 20.1019 66.8367 20.2075 66.4144 20.3835C65.992 20.5594 65.4993 20.9817 64.9715 21.58C64.338 22.3543 64.0213 23.0229 64.0213 23.6212C64.0213 24.0787 64.1972 24.3603 64.5139 24.5362C64.6195 24.5714 64.7603 24.6066 64.9011 24.6066C65.3938 24.6066 65.992 24.3955 66.6607 23.9731C67.3294 23.5508 68.2092 22.847 69.265 21.8616C69.4409 21.6856 69.5113 21.6856 69.5113 21.8616C69.5113 21.932 69.4761 22.0023 69.4058 22.0727C67.9277 23.4452 66.8367 24.2899 66.1328 24.6066C65.429 24.9233 64.9011 25.0993 64.4788 25.0993C63.071 25.0993 62.3672 24.6066 62.3672 23.5508C62.3672 22.495 62.8247 21.6152 63.7749 20.8762C64.6899 20.1371 65.6753 19.75 66.6607 19.75C67.2942 19.75 67.7165 19.8908 67.9277 20.1723C68.0684 20.3131 68.1388 20.489 68.1388 20.6298C68.1388 20.7706 68.1036 20.9466 67.998 21.1577C67.8925 21.3337 67.7869 21.4041 67.5757 21.4041C67.3646 21.4041 67.3646 21.2985 67.5053 21.0521C67.6461 20.8058 67.7165 20.6298 67.7165 20.4539Z" fill="#151207"/>
<path d="M69.6225 23.0884C69.3058 23.8979 69.1298 24.5665 69.1298 25.1296C69.1298 25.6927 69.2002 26.0446 69.3762 26.2206C69.3762 26.2558 69.4114 26.291 69.3762 26.3262C69.3762 26.3262 69.341 26.3262 69.3058 26.3262C69.3058 26.3262 69.3058 26.3262 69.2706 26.3262C68.8835 26.0094 68.6723 25.6575 68.6019 25.2704C68.6019 25.1296 68.5667 24.9888 68.5667 24.8481C68.5667 24.1442 68.7779 23.2644 69.2002 22.2438C68.6019 22.8421 68.2852 23.0884 68.25 22.9477C68.25 22.8421 68.3556 22.7013 68.4963 22.5605C68.6371 22.4198 69.0242 21.9975 69.5521 21.3288C70.7487 18.6541 72.3676 16.4018 74.3032 14.5718C75.3238 13.6216 76.2388 13.1641 77.0834 13.1641C77.7521 13.1641 78.1392 13.4456 78.2799 14.0087C78.2799 14.0791 78.3151 14.1847 78.3151 14.2902C78.3151 15.3108 77.2946 16.5426 75.2182 17.9503C74.5143 18.443 73.8457 18.7949 73.2474 19.0765C73.1066 19.1468 73.001 19.1116 73.001 19.0765C73.001 19.0061 73.0362 18.9357 73.177 18.8653C73.7401 18.6189 74.3735 18.2318 75.0774 17.7039C75.7813 17.2112 76.4147 16.6482 76.9778 16.0499C77.5409 15.4516 77.8576 14.9941 77.8576 14.6422C77.8576 14.431 77.7521 14.3254 77.5057 14.3254C77.2594 14.3254 76.9426 14.4662 76.5203 14.7125C75.3238 15.4516 73.9864 16.7537 72.5435 18.6189C71.6285 19.7803 70.9247 20.8361 70.3264 21.7863C71.171 20.6601 72.0508 19.9211 72.9306 19.534C73.2826 19.4284 73.5641 19.358 73.7753 19.358C73.9864 19.358 74.1976 19.3932 74.3735 19.4636C74.6903 19.6043 74.8662 19.8507 74.8662 20.2026C74.8662 20.8009 74.5143 21.364 73.7753 21.8919C73.353 22.1734 72.8955 22.3846 72.3676 22.5254C71.8397 22.6309 71.4525 22.7013 71.171 22.7013C70.8895 22.7013 70.6783 22.6661 70.5023 22.5957C70.8895 23.0884 71.3822 23.5108 72.0156 23.8979C72.6491 24.2498 73.1418 24.461 73.5289 24.461C73.7753 24.461 73.9864 24.3906 74.1272 24.285C74.268 24.1794 74.3384 24.0738 74.3384 23.9683C74.3384 23.8979 74.3384 23.8627 74.3735 23.8627C74.3735 23.8627 74.4087 23.8627 74.4087 23.8979C74.4087 24.3202 74.092 24.6017 73.4233 24.7777C73.177 24.8481 72.8251 24.8833 72.4027 24.8833C71.9804 24.8833 71.5229 24.7425 71.0302 24.4961C70.256 24.1442 69.7281 23.7219 69.4817 23.194L69.6225 23.0884ZM73.6345 20.6601C73.6345 20.2378 73.4233 20.0267 73.0362 20.0267C72.5787 20.0267 72.0508 20.273 71.4877 20.8009C70.9247 21.2936 70.5023 21.7159 70.256 22.0678C70.256 22.1382 70.3264 22.2086 70.3968 22.3142C70.5375 22.4198 70.7135 22.455 70.8895 22.455C71.0654 22.455 71.3822 22.3846 71.8045 22.279C72.2268 22.1734 72.6491 21.9623 73.0362 21.6455C73.4233 21.3288 73.6345 21.0121 73.6345 20.6601Z" fill="#151207"/>
<path d="M87.2953 14.9468H84.1999V18.4787H86.8588V20.0265H84.1999V25.3443H82.4141V13.3594H87.2953V14.9468Z" fill="#151207"/>
<path d="M94.4324 25.3443H92.5672L90.583 19.7884V18.7169H92.3291V14.9071H90.0671V25.3443H88.2812V13.3594H93.0435C93.7578 13.3594 94.115 13.7165 94.115 14.4706V18.8359C94.115 19.3518 93.9562 19.6693 93.599 19.828C93.4006 19.9074 93.0435 19.9471 92.4482 19.9471L94.4324 25.3839V25.3443Z" fill="#151207"/>
<path d="M97.3796 25.3443H95.5938V13.3594H97.3796V25.3443Z" fill="#151207"/>
<path d="M104.789 23.0822C104.789 23.7965 104.591 24.3521 104.154 24.749C103.718 25.1458 103.162 25.3443 102.448 25.3443H98.7969V13.3594H102.448C103.162 13.3594 103.718 13.5578 104.154 13.9547C104.591 14.3515 104.789 14.9071 104.789 15.6214V23.0822ZM103.003 22.8044V15.9389C103.003 15.2643 102.646 14.9468 101.932 14.9468H100.622V23.8362H101.892C102.607 23.8362 103.003 23.4791 103.003 22.8044Z" fill="#151207"/>
<path d="M112.259 25.3443H110.473L110.116 23.0822H107.854L107.497 25.3443H105.711L108.013 13.3594H109.878L112.18 25.3443H112.259ZM109.878 21.5345L109.005 16.1373L108.132 21.5345H109.878Z" fill="#151207"/>
<path d="M119.275 13.4387L117.687 18.4391C117.489 18.9153 117.251 19.7487 116.893 20.9392V25.3443H115.108V20.9392C115.028 20.5424 114.909 20.1058 114.751 19.6693C114.473 18.9153 114.314 18.4787 114.314 18.4391L112.727 13.4387C112.727 13.4387 112.727 13.4387 112.727 13.3594H114.552L115.981 18.5581L117.409 13.3594H119.235V13.4387H119.275Z" fill="#151207"/>
<path d="M130.369 25C130.369 23.7984 130.521 22.6241 130.827 21.4772C131.144 20.3302 131.587 19.2324 132.155 18.1837C132.734 17.1241 133.416 16.1355 134.203 15.218H127.927V13.3664H136.415V15.1033C135.541 16.0864 134.814 17.0804 134.235 18.0854C133.657 19.0794 133.225 20.1445 132.941 21.2805C132.668 22.4057 132.531 23.6455 132.531 25H130.369ZM137.383 25C137.383 24.0606 137.514 23.2413 137.776 22.5422C138.038 21.8322 138.481 21.1877 139.103 20.6087C139.726 20.0189 140.567 19.4454 141.627 18.8883C142.151 18.6043 142.572 18.353 142.888 18.1346C143.205 17.9161 143.435 17.6922 143.577 17.4628C143.719 17.2224 143.79 16.9384 143.79 16.6107C143.79 16.283 143.719 15.999 143.577 15.7587C143.435 15.5074 143.222 15.3108 142.937 15.1688C142.664 15.0268 142.32 14.9558 141.905 14.9558C141.239 14.9558 140.709 15.147 140.316 15.5293C139.934 15.9007 139.699 16.4359 139.611 17.1351L137.416 17.004C137.525 15.7915 137.967 14.8411 138.743 14.1529C139.529 13.4538 140.583 13.1043 141.905 13.1043C142.757 13.1043 143.489 13.2517 144.101 13.5467C144.713 13.8307 145.177 14.2349 145.494 14.7592C145.821 15.2835 145.985 15.8898 145.985 16.578C145.985 17.1678 145.881 17.6758 145.674 18.1018C145.477 18.5278 145.15 18.921 144.691 19.2815C144.243 19.6311 143.637 20.0079 142.872 20.4121C141.911 20.9255 141.19 21.4225 140.709 21.9032C140.228 22.3729 139.972 22.788 139.939 23.1485H145.985V25H137.383ZM150.222 19.003C149.458 19.003 148.824 18.7627 148.322 18.282C147.819 17.8014 147.568 17.0804 147.568 16.1192C147.568 15.1579 147.819 14.4369 148.322 13.9563C148.824 13.4757 149.458 13.2353 150.222 13.2353C150.998 13.2353 151.632 13.4757 152.123 13.9563C152.626 14.4369 152.877 15.1579 152.877 16.1192C152.877 17.0804 152.626 17.8014 152.123 18.282C151.632 18.7627 150.998 19.003 150.222 19.003ZM150.222 17.8232C150.605 17.8232 150.889 17.6812 151.074 17.3972C151.271 17.1023 151.369 16.6763 151.369 16.1192C151.369 15.5621 151.271 15.1415 151.074 14.8575C150.889 14.5626 150.605 14.4151 150.222 14.4151C149.851 14.4151 149.567 14.5626 149.37 14.8575C149.174 15.1415 149.075 15.5621 149.075 16.1192C149.075 16.6763 149.174 17.1023 149.37 17.3972C149.567 17.6812 149.851 17.8232 150.222 17.8232ZM157.039 25.1311C156.274 25.1311 155.641 24.8908 155.138 24.4101C154.636 23.9295 154.384 23.2085 154.384 22.2473C154.384 21.286 154.636 20.565 155.138 20.0844C155.641 19.6038 156.274 19.3635 157.039 19.3635C157.814 19.3635 158.448 19.6038 158.939 20.0844C159.431 20.565 159.677 21.286 159.677 22.2473C159.677 23.2085 159.431 23.9295 158.939 24.4101C158.448 24.8908 157.814 25.1311 157.039 25.1311ZM157.039 23.9513C157.421 23.9513 157.705 23.8093 157.891 23.5253C158.087 23.2304 158.186 22.8044 158.186 22.2473C158.186 21.6902 158.087 21.2696 157.891 20.9856C157.705 20.6907 157.421 20.5432 157.039 20.5432C156.667 20.5432 156.383 20.6907 156.187 20.9856C155.99 21.2696 155.892 21.6902 155.892 22.2473C155.892 22.8044 155.99 23.2304 156.187 23.5253C156.383 23.8093 156.667 23.9513 157.039 23.9513ZM148.994 25L156.826 13.3664H158.268L150.435 25H148.994Z" fill="#EC020A"/>
<path d="M167.656 23.2168C167.203 23.2168 166.788 23.1414 166.411 22.9528C166.034 22.8019 165.732 22.5378 165.43 22.1983C165.128 21.821 164.94 21.4438 164.789 20.9911C164.638 20.5384 164.562 20.048 164.562 19.4821C164.562 18.9163 164.638 18.4259 164.789 17.9732C164.94 17.5205 165.166 17.1055 165.43 16.766C165.694 16.4265 165.996 16.2001 166.373 16.0492C166.751 15.8606 167.165 15.7852 167.618 15.7852C168.071 15.7852 168.486 15.8606 168.863 16.0492C169.24 16.2001 169.542 16.4642 169.806 16.766C170.07 17.1055 170.297 17.5205 170.447 17.9732C170.598 18.4259 170.674 18.9163 170.674 19.4821C170.674 20.048 170.598 20.5384 170.447 20.9911C170.297 21.4438 170.108 21.821 169.806 22.1983C169.542 22.5378 169.24 22.7641 168.863 22.915C168.486 23.1037 168.109 23.1791 167.618 23.1791L167.656 23.2168ZM167.656 21.821C168.071 21.821 168.41 21.6324 168.674 21.1797C168.939 20.7648 169.052 20.1989 169.052 19.5199C169.052 18.8408 168.939 18.2372 168.674 17.8223C168.41 17.4073 168.071 17.2187 167.618 17.2187C167.165 17.2187 166.864 17.4073 166.6 17.86C166.336 18.275 166.222 18.8408 166.222 19.5199C166.222 20.1989 166.373 20.8025 166.6 21.1797C166.864 21.5947 167.203 21.821 167.656 21.821Z" fill="#151207"/>
<path d="M172.039 23.0297V15.9375H177.132V17.3333H173.623V18.7291H176.868V20.0494H173.623V23.0674H172.039V23.0297Z" fill="#151207"/>
<path d="M178.5 23.0297V15.9375H183.593V17.3333H180.084V18.7291H183.329V20.0494H180.084V23.0674H178.5V23.0297Z" fill="#151207"/>
<path d="M193.567 23.1413C193.084 23.1413 192.663 23.0471 192.304 22.8587C191.951 22.6703 191.677 22.4025 191.483 22.0551C191.294 21.7019 191.2 21.2869 191.2 20.81V16.7215H191.96V20.81C191.96 21.3163 192.098 21.7078 192.375 21.9845C192.657 22.2612 193.055 22.3995 193.567 22.3995C194.073 22.3995 194.464 22.2612 194.741 21.9845C195.024 21.7078 195.165 21.3163 195.165 20.81V16.7215H195.924V20.81C195.924 21.2869 195.827 21.7019 195.633 22.0551C195.445 22.4025 195.174 22.6703 194.821 22.8587C194.467 23.0471 194.049 23.1413 193.567 23.1413ZM199.019 23.106C198.601 23.106 198.245 23.0383 197.951 22.9029C197.662 22.7675 197.436 22.582 197.271 22.3465C197.112 22.1052 197.021 21.8314 196.997 21.5253L197.774 21.4723C197.821 21.7549 197.942 21.9815 198.136 22.1523C198.33 22.3171 198.625 22.3995 199.019 22.3995C199.337 22.3995 199.59 22.3495 199.779 22.2494C199.973 22.1434 200.07 21.9757 200.07 21.7461C200.07 21.6224 200.041 21.5194 199.982 21.437C199.923 21.3546 199.808 21.2839 199.637 21.2251C199.467 21.1603 199.213 21.0985 198.878 21.0396C198.43 20.9572 198.077 20.8571 197.818 20.7394C197.565 20.6158 197.383 20.4656 197.271 20.289C197.165 20.1065 197.112 19.8917 197.112 19.6444C197.112 19.2264 197.265 18.885 197.571 18.6201C197.877 18.3493 198.313 18.2138 198.878 18.2138C199.261 18.2138 199.581 18.2845 199.84 18.4258C200.105 18.5612 200.311 18.7437 200.459 18.9733C200.612 19.197 200.712 19.4442 200.759 19.715L199.982 19.768C199.946 19.6032 199.882 19.459 199.787 19.3353C199.693 19.2058 199.57 19.1057 199.417 19.0351C199.263 18.9586 199.081 18.9203 198.869 18.9203C198.533 18.9203 198.286 18.985 198.127 19.1146C197.968 19.2441 197.889 19.4089 197.889 19.6091C197.889 19.7621 197.924 19.8887 197.995 19.9888C198.071 20.083 198.192 20.1625 198.357 20.2272C198.522 20.2861 198.742 20.3391 199.019 20.3862C199.496 20.4686 199.867 20.5687 200.132 20.6864C200.397 20.8041 200.582 20.9484 200.688 21.1191C200.794 21.2898 200.847 21.4988 200.847 21.7461C200.847 22.0345 200.765 22.2818 200.6 22.4878C200.441 22.688 200.223 22.8411 199.946 22.947C199.676 23.053 199.366 23.106 199.019 23.106ZM203.687 23.106C203.246 23.106 202.863 23.0059 202.539 22.8057C202.222 22.6056 201.974 22.323 201.798 21.958C201.627 21.5871 201.542 21.1544 201.542 20.6599C201.542 20.1654 201.627 19.7356 201.798 19.3707C201.974 19.0057 202.219 18.7231 202.531 18.5229C202.849 18.3169 203.222 18.2138 203.652 18.2138C204.058 18.2138 204.417 18.311 204.729 18.5053C205.041 18.6936 205.283 18.9703 205.454 19.3353C205.63 19.7003 205.718 20.1448 205.718 20.6687V20.8895H202.319C202.348 21.3899 202.481 21.7667 202.716 22.0198C202.957 22.273 203.281 22.3995 203.687 22.3995C203.994 22.3995 204.244 22.3289 204.438 22.1876C204.638 22.0404 204.777 21.8491 204.853 21.6136L205.648 21.6754C205.524 22.0934 205.289 22.4378 204.941 22.7086C204.6 22.9735 204.182 23.106 203.687 23.106ZM202.319 20.236H204.906C204.871 19.7827 204.738 19.4501 204.509 19.2382C204.285 19.0263 203.999 18.9203 203.652 18.9203C203.293 18.9203 202.996 19.0321 202.76 19.2559C202.531 19.4737 202.383 19.8004 202.319 20.236ZM210.73 23C210.306 23 209.991 22.9029 209.785 22.7086C209.585 22.5143 209.485 22.2111 209.485 21.799V17.2248H210.227V21.7814C210.227 21.9933 210.274 22.1405 210.368 22.2229C210.462 22.3053 210.607 22.3465 210.801 22.3465H211.472V23H210.73ZM208.796 18.9733V18.3198H211.472V18.9733H208.796ZM212.423 23V16.7303H213.165V19.353L213.077 19.3353C213.136 19.0763 213.236 18.8644 213.377 18.6995C213.518 18.5347 213.692 18.414 213.898 18.3375C214.104 18.2551 214.331 18.2138 214.578 18.2138C214.914 18.2138 215.196 18.2904 215.426 18.4434C215.661 18.5906 215.838 18.7996 215.956 19.0704C216.079 19.3353 216.141 19.6415 216.141 19.9888V23H215.399V20.2007C215.399 19.7474 215.317 19.4119 215.152 19.194C214.993 18.9762 214.749 18.8673 214.419 18.8673C214.042 18.8673 213.739 18.9821 213.51 19.2117C213.28 19.4413 213.165 19.7739 213.165 20.2096V23H212.423ZM217.468 23V18.3198H218.21V23H217.468ZM217.45 17.5869V16.7215H218.228V17.5869H217.45ZM221.242 23.106C220.824 23.106 220.468 23.0383 220.174 22.9029C219.885 22.7675 219.658 22.582 219.494 22.3465C219.335 22.1052 219.243 21.8314 219.22 21.5253L219.997 21.4723C220.044 21.7549 220.165 21.9815 220.359 22.1523C220.553 22.3171 220.848 22.3995 221.242 22.3995C221.56 22.3995 221.813 22.3495 222.002 22.2494C222.196 22.1434 222.293 21.9757 222.293 21.7461C222.293 21.6224 222.263 21.5194 222.205 21.437C222.146 21.3546 222.031 21.2839 221.86 21.2251C221.69 21.1603 221.436 21.0985 221.101 21.0396C220.653 20.9572 220.3 20.8571 220.041 20.7394C219.788 20.6158 219.606 20.4656 219.494 20.289C219.388 20.1065 219.335 19.8917 219.335 19.6444C219.335 19.2264 219.488 18.885 219.794 18.6201C220.1 18.3493 220.536 18.2138 221.101 18.2138C221.483 18.2138 221.804 18.2845 222.063 18.4258C222.328 18.5612 222.534 18.7437 222.681 18.9733C222.835 19.197 222.935 19.4442 222.982 19.715L222.205 19.768C222.169 19.6032 222.105 19.459 222.01 19.3353C221.916 19.2058 221.793 19.1057 221.639 19.0351C221.486 18.9586 221.304 18.9203 221.092 18.9203C220.756 18.9203 220.509 18.985 220.35 19.1146C220.191 19.2441 220.112 19.4089 220.112 19.6091C220.112 19.7621 220.147 19.8887 220.218 19.9888C220.294 20.083 220.415 20.1625 220.58 20.2272C220.745 20.2861 220.965 20.3391 221.242 20.3862C221.719 20.4686 222.09 20.5687 222.355 20.6864C222.62 20.8041 222.805 20.9484 222.911 21.1191C223.017 21.2898 223.07 21.4988 223.07 21.7461C223.07 22.0345 222.988 22.2818 222.823 22.4878C222.664 22.688 222.446 22.8411 222.169 22.947C221.899 23.053 221.589 23.106 221.242 23.106ZM228.204 23.106C227.769 23.106 227.389 23.0059 227.065 22.8057C226.747 22.6056 226.5 22.323 226.323 21.958C226.147 21.5871 226.058 21.1544 226.058 20.6599C226.058 20.1654 226.147 19.7356 226.323 19.3707C226.5 19.0057 226.747 18.7231 227.065 18.5229C227.389 18.3169 227.769 18.2138 228.204 18.2138C228.563 18.2138 228.881 18.2786 229.158 18.4081C229.44 18.5317 229.67 18.7142 229.847 18.9556C230.023 19.197 230.138 19.4913 230.191 19.8387L229.414 19.8917C229.361 19.5796 229.226 19.3412 229.008 19.1764C228.79 19.0057 228.522 18.9203 228.204 18.9203C227.774 18.9203 227.439 19.0763 227.198 19.3883C226.956 19.6944 226.835 20.1183 226.835 20.6599C226.835 21.2015 226.956 21.6283 227.198 21.9403C227.439 22.2465 227.774 22.3995 228.204 22.3995C228.522 22.3995 228.79 22.3112 229.008 22.1346C229.226 21.958 229.361 21.6931 229.414 21.3399L230.191 21.3928C230.138 21.7402 230.023 22.0434 229.847 22.3024C229.67 22.5555 229.44 22.7527 229.158 22.894C228.881 23.0353 228.563 23.106 228.204 23.106ZM232.939 23.106C232.509 23.106 232.132 23.0059 231.808 22.8057C231.484 22.6056 231.234 22.323 231.058 21.958C230.881 21.5871 230.793 21.1544 230.793 20.6599C230.793 20.1595 230.881 19.7268 231.058 19.3618C231.234 18.9968 231.484 18.7142 231.808 18.5141C232.132 18.3139 232.509 18.2138 232.939 18.2138C233.368 18.2138 233.742 18.3139 234.06 18.5141C234.384 18.7142 234.634 18.9968 234.811 19.3618C234.987 19.7268 235.076 20.1595 235.076 20.6599C235.076 21.1544 234.987 21.5871 234.811 21.958C234.634 22.323 234.384 22.6056 234.06 22.8057C233.742 23.0059 233.368 23.106 232.939 23.106ZM232.939 22.3995C233.368 22.3995 233.701 22.2465 233.936 21.9403C234.178 21.6283 234.298 21.2015 234.298 20.6599C234.298 20.1183 234.178 19.6944 233.936 19.3883C233.701 19.0763 233.368 18.9203 232.939 18.9203C232.509 18.9203 232.173 19.0763 231.932 19.3883C231.691 19.6944 231.57 20.1183 231.57 20.6599C231.57 21.2015 231.691 21.6283 231.932 21.9403C232.173 22.2465 232.509 22.3995 232.939 22.3995ZM237.747 23.106C237.34 23.106 236.987 23.0059 236.687 22.8057C236.393 22.6056 236.166 22.323 236.007 21.958C235.848 21.593 235.769 21.1603 235.769 20.6599C235.769 20.1595 235.848 19.7268 236.007 19.3618C236.166 18.9968 236.393 18.7142 236.687 18.5141C236.987 18.3139 237.34 18.2138 237.747 18.2138C238.059 18.2138 238.344 18.2816 238.603 18.417C238.862 18.5465 239.056 18.7319 239.186 18.9733V16.7303H239.928V23H239.257L239.23 22.2936C239.101 22.5467 238.903 22.7469 238.638 22.894C238.374 23.0353 238.076 23.106 237.747 23.106ZM237.897 22.3995C238.173 22.3995 238.406 22.3289 238.594 22.1876C238.789 22.0463 238.936 21.8461 239.036 21.5871C239.136 21.3222 239.186 21.0131 239.186 20.6599C239.186 20.2949 239.136 19.9829 239.036 19.7239C238.936 19.4648 238.789 19.2676 238.594 19.1322C238.406 18.9909 238.173 18.9203 237.897 18.9203C237.485 18.9203 237.155 19.0763 236.908 19.3883C236.666 19.6944 236.546 20.1183 236.546 20.6599C236.546 21.1956 236.666 21.6195 236.908 21.9315C237.155 22.2435 237.485 22.3995 237.897 22.3995ZM243.08 23.106C242.638 23.106 242.256 23.0059 241.932 22.8057C241.614 22.6056 241.367 22.323 241.19 21.958C241.019 21.5871 240.934 21.1544 240.934 20.6599C240.934 20.1654 241.019 19.7356 241.19 19.3707C241.367 19.0057 241.611 18.7231 241.923 18.5229C242.241 18.3169 242.615 18.2138 243.045 18.2138C243.451 18.2138 243.81 18.311 244.122 18.5053C244.434 18.6936 244.675 18.9703 244.846 19.3353C245.023 19.7003 245.111 20.1448 245.111 20.6687V20.8895H241.711C241.741 21.3899 241.873 21.7667 242.109 22.0198C242.35 22.273 242.674 22.3995 243.08 22.3995C243.386 22.3995 243.636 22.3289 243.83 22.1876C244.031 22.0404 244.169 21.8491 244.246 21.6136L245.04 21.6754C244.917 22.0934 244.681 22.4378 244.334 22.7086C243.992 22.9735 243.574 23.106 243.08 23.106ZM241.711 20.236H244.298C244.263 19.7827 244.131 19.4501 243.901 19.2382C243.677 19.0263 243.392 18.9203 243.045 18.9203C242.685 18.9203 242.388 19.0321 242.153 19.2559C241.923 19.4737 241.776 19.8004 241.711 20.236Z" fill="#292929"/>
<rect x="249.922" y="9.58594" width="88.6611" height="19.8305" rx="9.91527" fill="#151207"/>
<path d="M260.006 23V16.7303H262.258C263.012 16.7303 263.58 16.8657 263.962 17.1365C264.345 17.4073 264.536 17.8371 264.536 18.4258C264.536 18.6907 264.48 18.9232 264.369 19.1234C264.257 19.3236 264.092 19.4825 263.874 19.6002C263.662 19.7121 263.409 19.771 263.115 19.7769L263.106 19.7415C263.642 19.7533 264.057 19.9005 264.351 20.1831C264.651 20.4597 264.801 20.8247 264.801 21.278C264.801 21.8491 264.61 22.2788 264.227 22.5673C263.845 22.8558 263.3 23 262.594 23H260.006ZM260.96 22.1434H262.567C262.962 22.1434 263.268 22.064 263.486 21.905C263.709 21.7402 263.821 21.5018 263.821 21.1897C263.821 20.8836 263.709 20.6452 263.486 20.4745C263.268 20.3037 262.962 20.2184 262.567 20.2184H260.96V22.1434ZM260.96 19.406H262.24C262.658 19.406 262.982 19.3265 263.212 19.1675C263.441 19.0086 263.556 18.7849 263.556 18.4964C263.556 18.1903 263.444 17.9637 263.221 17.8165C263.003 17.6634 262.676 17.5869 262.24 17.5869H260.96V19.406ZM266.086 23V16.7303H267.04V22.6468L266.536 22.1258H270.095V23H266.086ZM270.479 23L272.74 16.7303H273.949L276.21 23H275.194L274.62 21.3664H272.06L271.494 23H270.479ZM272.36 20.501H274.329L273.34 17.6399L272.36 20.501ZM279.338 23.1413C278.773 23.1413 278.276 23.0118 277.846 22.7527C277.416 22.4878 277.081 22.1111 276.839 21.6224C276.598 21.1338 276.477 20.551 276.477 19.874C276.477 19.2029 276.595 18.623 276.831 18.1344C277.072 17.6399 277.407 17.2602 277.837 16.9952C278.267 16.7244 278.77 16.589 279.347 16.589C280.124 16.589 280.728 16.7833 281.157 17.1718C281.587 17.5604 281.867 18.0991 281.996 18.7878L280.999 18.8408C280.916 18.4111 280.74 18.0755 280.469 17.8341C280.198 17.5869 279.824 17.4633 279.347 17.4633C278.965 17.4633 278.632 17.5604 278.349 17.7547C278.073 17.9489 277.855 18.2256 277.696 18.5847C277.543 18.9438 277.466 19.3736 277.466 19.874C277.466 20.3744 277.543 20.8041 277.696 21.1632C277.855 21.5224 278.076 21.7961 278.358 21.9845C278.641 22.1729 278.968 22.2671 279.338 22.2671C279.845 22.2671 280.236 22.1346 280.513 21.8697C280.795 21.5989 280.972 21.228 281.043 20.757L282.041 20.81C281.964 21.2869 281.811 21.699 281.581 22.0463C281.352 22.3936 281.049 22.6644 280.672 22.8587C280.295 23.0471 279.851 23.1413 279.338 23.1413ZM283.066 23V16.7303H284.019V19.7239L286.66 16.7303H287.817L285.415 19.4678L287.976 23H286.854L284.779 20.1389L284.019 20.9866V23H283.066ZM288.775 23V16.7303H292.845V17.6045H289.225L289.728 17.0835V19.9623L289.225 19.5119H292.687V20.3597H289.225L289.728 19.9093V23H288.775ZM293.871 23V16.7303H296.37C296.818 16.7303 297.203 16.8069 297.527 16.9599C297.851 17.113 298.101 17.3308 298.278 17.6134C298.454 17.896 298.542 18.2315 298.542 18.6201C298.542 18.9026 298.478 19.1558 298.348 19.3795C298.225 19.6032 298.057 19.7827 297.845 19.9181C297.639 20.0477 297.418 20.1212 297.183 20.1389L297.138 20.0594C297.533 20.0594 297.839 20.1507 298.057 20.3332C298.275 20.5098 298.401 20.7894 298.437 21.1721L298.604 23H297.642L297.492 21.2957C297.474 21.0426 297.389 20.8571 297.236 20.7394C297.082 20.6158 296.832 20.5539 296.485 20.5539H294.825V23H293.871ZM294.825 19.6797H296.388C296.747 19.6797 297.03 19.5914 297.236 19.4148C297.447 19.2323 297.553 18.9762 297.553 18.6465C297.553 18.311 297.447 18.0549 297.236 17.8783C297.024 17.6958 296.715 17.6045 296.308 17.6045H294.825V19.6797ZM299.873 23V16.7303H300.827V23H299.873ZM302.193 23V16.7303H304.206C305.189 16.7303 305.946 17.0041 306.476 17.5516C307.006 18.0932 307.27 18.8673 307.27 19.874C307.27 20.8748 307.008 21.646 306.484 22.1876C305.966 22.7292 305.225 23 304.259 23H302.193ZM303.147 22.1258H304.206C304.901 22.1258 305.419 21.9403 305.76 21.5695C306.108 21.1927 306.281 20.6275 306.281 19.874C306.281 19.1087 306.108 18.5406 305.76 18.1697C305.419 17.7929 304.901 17.6045 304.206 17.6045H303.147V22.1258ZM307.534 23L309.795 16.7303H311.005L313.265 23H312.25L311.676 21.3664H309.115L308.55 23H307.534ZM309.415 20.501H311.385L310.396 17.6399L309.415 20.501ZM314.936 23V20.4833L312.738 16.7303H313.833L315.413 19.5296L317.003 16.7303H318.098L315.89 20.4833V23H314.936ZM318.555 23C318.555 22.529 318.625 22.1081 318.767 21.7372C318.908 21.3664 319.149 21.022 319.491 20.7041C319.832 20.3862 320.303 20.0683 320.904 19.7504C321.192 19.6032 321.422 19.4678 321.593 19.3442C321.769 19.2146 321.896 19.0822 321.972 18.9468C322.049 18.8114 322.087 18.6465 322.087 18.4523C322.087 18.2521 322.043 18.0814 321.955 17.9401C321.872 17.7929 321.749 17.6781 321.584 17.5957C321.419 17.5074 321.21 17.4633 320.957 17.4633C320.556 17.4633 320.238 17.5722 320.003 17.79C319.773 18.0019 319.629 18.308 319.57 18.7084L318.581 18.6465C318.652 18.0166 318.89 17.5162 319.297 17.1454C319.709 16.7745 320.262 16.589 320.957 16.589C321.404 16.589 321.784 16.6685 322.096 16.8275C322.414 16.9805 322.655 17.1954 322.82 17.4721C322.991 17.7488 323.076 18.0696 323.076 18.4346C323.076 18.7525 323.023 19.0263 322.917 19.2559C322.811 19.4854 322.635 19.7003 322.387 19.9005C322.14 20.0948 321.804 20.3037 321.381 20.5275C320.839 20.8159 320.43 21.1014 320.153 21.384C319.876 21.6607 319.729 21.908 319.712 22.1258H323.076V23H318.555ZM326.413 23.1413C325.948 23.1413 325.551 23.0677 325.221 22.9205C324.891 22.7675 324.632 22.5555 324.444 22.2847C324.255 22.0139 324.146 21.7019 324.117 21.3487L325.097 21.2869C325.144 21.6165 325.283 21.8638 325.512 22.0286C325.748 22.1876 326.048 22.2671 326.413 22.2671C326.825 22.2671 327.149 22.1523 327.384 21.9227C327.626 21.6931 327.746 21.3722 327.746 20.9601C327.746 20.6893 327.69 20.4568 327.579 20.2625C327.473 20.0624 327.32 19.9093 327.119 19.8033C326.919 19.6915 326.681 19.6356 326.404 19.6356C326.127 19.6356 325.88 19.6944 325.662 19.8122C325.445 19.9299 325.289 20.0918 325.194 20.2979H324.205L324.629 16.7303H328.303V17.6045H325.477L325.212 19.7504L325.062 19.6179C325.162 19.4413 325.289 19.2971 325.442 19.1852C325.595 19.0675 325.771 18.9792 325.971 18.9203C326.177 18.8555 326.395 18.8232 326.625 18.8232C327.049 18.8232 327.417 18.9144 327.729 19.0969C328.047 19.2794 328.294 19.5325 328.47 19.8563C328.647 20.1801 328.735 20.5481 328.735 20.9601C328.735 21.3899 328.638 21.7696 328.444 22.0993C328.25 22.429 327.979 22.685 327.632 22.8675C327.284 23.05 326.878 23.1413 326.413 23.1413Z" fill="white"/>
<g filter="url(#filter1_dii_16163_47314)">
<rect width="984" height="18" transform="translate(102.148 -20) rotate(2)" fill="#D9971C"/>
<path d="M308.333 -0.791898L308.531 -6.46844L310.738 -6.39138C311.442 -6.36681 311.976 -6.22275 312.34 -5.95921C312.704 -5.701 312.877 -5.30539 312.859 -4.77238C312.851 -4.53786 312.795 -4.33432 312.693 -4.16178C312.592 -3.99457 312.446 -3.86358 312.255 -3.76883C312.071 -3.67388 311.847 -3.62031 311.585 -3.60811L311.586 -3.6241C312.059 -3.57556 312.417 -3.42432 312.659 -3.17038C312.906 -2.9216 313.023 -2.59732 313.009 -2.19757C312.991 -1.66989 312.79 -1.28198 312.408 -1.03383C312.031 -0.790831 311.499 -0.681336 310.812 -0.705347L308.333 -0.791898ZM309.583 -1.74086L310.79 -1.6987C311.083 -1.68846 311.32 -1.7389 311.5 -1.85002C311.686 -1.96628 311.782 -2.14434 311.791 -2.3842C311.799 -2.62405 311.715 -2.80844 311.538 -2.93736C311.367 -3.07142 311.134 -3.14357 310.841 -3.15381L309.634 -3.19597L309.583 -1.74086ZM309.665 -4.07543L310.624 -4.04193C310.922 -4.03151 311.162 -4.08185 311.342 -4.19297C311.527 -4.30391 311.623 -4.46864 311.631 -4.68717C311.639 -4.9217 311.557 -5.09533 311.385 -5.20808C311.218 -5.32596 310.981 -5.39031 310.671 -5.4011L309.712 -5.4346L309.665 -4.07543ZM314.115 -0.590004L314.313 -6.26654L315.528 -6.22411L315.341 -0.875367L314.694 -1.5944L317.98 -1.47965L317.944 -0.456269L314.115 -0.590004ZM318.387 -0.44082L320.632 -6.04589L322.071 -5.99563L323.919 -0.247616L322.656 -0.291729L322.283 -1.51351L320.1 -1.58973L319.642 -0.396986L318.387 -0.44082ZM320.479 -2.57712L321.982 -2.52463L321.307 -4.74154L320.479 -2.57712ZM326.893 -0.0157001C326.376 -0.0337548 325.919 -0.167117 325.522 -0.415787C325.13 -0.66427 324.828 -1.01371 324.614 -1.46411C324.406 -1.91433 324.312 -2.44858 324.334 -3.06687C324.355 -3.66917 324.482 -4.1877 324.716 -4.62247C324.95 -5.06256 325.274 -5.39813 325.688 -5.62917C326.102 -5.86021 326.58 -5.96623 327.124 -5.94725C327.865 -5.92137 328.434 -5.71738 328.832 -5.33528C329.235 -4.95831 329.483 -4.42932 329.577 -3.74831L328.312 -3.74445C328.26 -4.1038 328.131 -4.3858 327.925 -4.59046C327.719 -4.80045 327.44 -4.91159 327.088 -4.92387C326.784 -4.93448 326.523 -4.86356 326.304 -4.7111C326.086 -4.55864 325.915 -4.33779 325.793 -4.04854C325.671 -3.7593 325.603 -3.41746 325.589 -3.02304C325.575 -2.62328 325.619 -2.27487 325.721 -1.97781C325.828 -1.68589 325.985 -1.45892 326.193 -1.2969C326.401 -1.13488 326.651 -1.04876 326.945 -1.03852C327.328 -1.02512 327.628 -1.12139 327.843 -1.32733C328.064 -1.53842 328.208 -1.83492 328.275 -2.21682L329.544 -2.12446C329.453 -1.66335 329.293 -1.27404 329.063 -0.956536C328.833 -0.639032 328.537 -0.398569 328.173 -0.235147C327.815 -0.0715389 327.389 0.00161006 326.893 -0.0157001ZM330.475 -0.0186776L330.673 -5.69522L331.889 -5.65278L331.802 -3.17429L333.952 -5.58075L335.367 -5.53133L333.193 -3.10173L335.296 0.149678L333.913 0.101377L332.365 -2.31414L331.749 -1.64722L331.691 0.0237602L330.475 -0.0186776ZM338.127 0.248511L338.325 -5.42803L342.242 -5.29122L342.207 -4.26785L338.833 -4.38567L339.529 -5.05779L339.438 -2.45938L338.785 -3.01051L342.015 -2.89771L341.98 -1.89032L338.75 -2.00312L339.44 -2.50735L339.342 0.290949L338.127 0.248511ZM343.002 0.418777L343.201 -5.25776L345.687 -5.17093C346.103 -5.15642 346.46 -5.07456 346.759 -4.92537C347.063 -4.77599 347.294 -4.5705 347.45 -4.30888C347.607 -4.0526 347.679 -3.75123 347.667 -3.40477C347.657 -3.1436 347.593 -2.91369 347.474 -2.71506C347.361 -2.51624 347.206 -2.35622 347.009 -2.235C346.818 -2.11359 346.6 -2.04118 346.353 -2.01776L346.332 -2.09055C346.71 -2.07734 346.995 -1.98467 347.187 -1.81255C347.378 -1.64576 347.482 -1.394 347.497 -1.05728L347.584 0.578756L346.344 0.535481L346.291 -0.907272C346.282 -1.12636 346.219 -1.28869 346.099 -1.39424C345.986 -1.50494 345.785 -1.56531 345.497 -1.57536L344.29 -1.61752L344.218 0.461214L343.002 0.418777ZM344.326 -2.6329L345.461 -2.59325C345.754 -2.58302 345.983 -2.64173 346.148 -2.7694C346.318 -2.90221 346.407 -3.09388 346.416 -3.34439C346.425 -3.60023 346.349 -3.795 346.188 -3.92869C346.027 -4.06772 345.79 -4.14272 345.475 -4.1537L344.38 -4.19195L344.326 -2.6329ZM348.737 0.619034L348.935 -5.05751L350.15 -5.01507L349.952 0.661472L348.737 0.619034ZM351.185 0.704505L351.383 -4.97203L353.342 -4.90363C354.264 -4.87143 354.964 -4.59883 355.442 -4.08582C355.921 -3.57814 356.144 -2.86858 356.112 -1.95714C356.081 -1.05102 355.811 -0.361342 355.304 0.111902C354.802 0.585332 354.097 0.806226 353.191 0.774584L351.185 0.704505ZM352.436 -0.276433L353.179 -0.250468C353.728 -0.231296 354.138 -0.363728 354.41 -0.647762C354.687 -0.93694 354.836 -1.39067 354.857 -2.00896C354.879 -2.62725 354.762 -3.08763 354.505 -3.39009C354.255 -3.6977 353.855 -3.86108 353.306 -3.88026L352.562 -3.90622L352.436 -0.276433ZM356.323 0.883954L358.568 -4.72111L360.007 -4.67086L361.856 1.07716L360.593 1.03304L360.219 -0.188738L358.036 -0.264958L357.578 0.927788L356.323 0.883954ZM358.415 -1.25234L359.918 -1.19985L359.243 -3.41676L358.415 -1.25234ZM363.434 1.13228L363.511 -1.07437L361.658 -4.61322L363.001 -4.56632L364.16 -2.23643L365.472 -4.48004L366.815 -4.43314L364.727 -1.03194L364.65 1.17472L363.434 1.13228Z" fill="#151207"/>
<path d="M371.532 1.54314C371.042 1.52602 370.624 1.4287 370.278 1.25118C369.932 1.07366 369.665 0.832217 369.478 0.526845C369.292 0.221474 369.192 -0.134221 369.179 -0.540238L370.405 -0.553487C370.429 -0.328506 370.486 -0.13439 370.576 0.0288632C370.672 0.186972 370.802 0.308887 370.964 0.394609C371.132 0.480516 371.338 0.527751 371.583 0.536313C371.786 0.543386 371.957 0.525357 372.098 0.482225C372.243 0.43928 372.355 0.37114 372.433 0.277804C372.511 0.179138 372.553 0.0578491 372.558 -0.0860632C372.562 -0.219315 372.534 -0.335029 372.474 -0.433204C372.413 -0.536709 372.294 -0.631602 372.115 -0.717881C371.937 -0.809491 371.674 -0.901414 371.325 -0.99365C370.843 -1.12252 370.456 -1.26146 370.162 -1.41046C369.874 -1.55928 369.667 -1.73996 369.541 -1.95248C369.415 -2.17034 369.358 -2.43917 369.369 -2.75897C369.381 -3.1001 369.474 -3.3957 369.648 -3.64577C369.828 -3.89566 370.08 -4.08698 370.405 -4.21972C370.729 -4.35247 371.113 -4.41111 371.555 -4.39567C372.025 -4.37929 372.419 -4.2828 372.738 -4.10622C373.057 -3.92963 373.303 -3.69426 373.474 -3.40011C373.65 -3.10577 373.751 -2.77139 373.775 -2.39698L372.558 -2.37546C372.548 -2.57323 372.501 -2.74566 372.416 -2.89273C372.33 -3.04514 372.212 -3.16402 372.06 -3.24937C371.908 -3.33472 371.723 -3.38121 371.504 -3.38884C371.227 -3.39852 371.006 -3.34485 370.842 -3.22784C370.683 -3.11065 370.601 -2.95345 370.594 -2.75623C370.589 -2.61765 370.619 -2.49918 370.685 -2.40082C370.757 -2.3076 370.874 -2.22346 371.037 -2.1484C371.205 -2.07315 371.442 -1.99815 371.749 -1.92339C372.273 -1.79837 372.684 -1.64793 372.982 -1.47209C373.286 -1.30139 373.498 -1.10188 373.618 -0.873545C373.738 -0.645214 373.793 -0.387137 373.783 -0.0993122C373.771 0.252473 373.669 0.555789 373.479 0.810635C373.294 1.06034 373.034 1.24871 372.699 1.37575C372.369 1.50298 371.98 1.55878 371.532 1.54314ZM374.116 1.50531L376.361 -4.09976L377.801 -4.0495L379.649 1.69851L378.386 1.6544L378.012 0.432615L375.83 0.356395L375.372 1.54914L374.116 1.50531ZM376.208 -0.630991L377.711 -0.578502L377.036 -2.79541L376.208 -0.630991ZM380.424 1.72556L380.622 -3.95098L381.837 -3.90855L381.65 1.44019L381.003 0.721165L384.289 0.835914L384.253 1.85929L380.424 1.72556ZM385.034 1.88655L385.232 -3.78999L389.182 -3.65207L389.146 -2.62869L386.412 -2.72417L386.366 -1.42097L389.005 -1.32883L388.969 -0.321449L386.331 -0.413583L386.285 0.905613L389.083 1.00333L389.047 2.02671L385.034 1.88655Z" fill="white"/>
</g>
</g>
<defs>
<filter id="filter0_dii_16163_47314" x="-558.57" y="-0.503906" width="1599.78" height="95.4492" filterUnits="userSpaceOnUse" color-interpolation-filters="sRGB">
<feFlood flood-opacity="0" result="BackgroundImageFix"/>
<feColorMatrix in="SourceAlpha" type="matrix" values="0 0 0 0 0 0 0 0 0 0 0 0 0 0 0 0 0 0 127 0" result="hardAlpha"/>
<feOffset dy="2"/>
<feGaussianBlur stdDeviation="7"/>
<feComposite in2="hardAlpha" operator="out"/>
<feColorMatrix type="matrix" values="0 0 0 0 0.0823529 0 0 0 0 0.0705882 0 0 0 0 0.027451 0 0 0 0.12 0"/>
<feBlend mode="normal" in2="BackgroundImageFix" result="effect1_dropShadow_16163_47314"/>
<feBlend mode="normal" in="SourceGraphic" in2="effect1_dropShadow_16163_47314" result="shape"/>
<feColorMatrix in="SourceAlpha" type="matrix" values="0 0 0 0 0 0 0 0 0 0 0 0 0 0 0 0 0 0 127 0" result="hardAlpha"/>
<feOffset dy="2"/>
<feGaussianBlur stdDeviation="5"/>
<feComposite in2="hardAlpha" operator="arithmetic" k2="-1" k3="1"/>
<feColorMatrix type="matrix" values="0 0 0 0 0.0823529 0 0 0 0 0.0705882 0 0 0 0 0.027451 0 0 0 0.2 0"/>
<feBlend mode="normal" in2="shape" result="effect2_innerShadow_16163_47314"/>
<feColorMatrix in="SourceAlpha" type="matrix" values="0 0 0 0 0 0 0 0 0 0 0 0 0 0 0 0 0 0 127 0" result="hardAlpha"/>
<feOffset dy="2"/>
<feGaussianBlur stdDeviation="2"/>
<feComposite in2="hardAlpha" operator="arithmetic" k2="-1" k3="1"/>
<feColorMatrix type="matrix" values="0 0 0 0 0.0823529 0 0 0 0 0.0705882 0 0 0 0 0.027451 0 0 0 0.12 0"/>
<feBlend mode="normal" in2="effect2_innerShadow_16163_47314" result="effect3_innerShadow_16163_47314"/>
</filter>
<filter id="filter1_dii_16163_47314" x="87.5234" y="-32" width="1012.02" height="80.332" filterUnits="userSpaceOnUse" color-interpolation-filters="sRGB">
<feFlood flood-opacity="0" result="BackgroundImageFix"/>
<feColorMatrix in="SourceAlpha" type="matrix" values="0 0 0 0 0 0 0 0 0 0 0 0 0 0 0 0 0 0 127 0" result="hardAlpha"/>
<feOffset dy="2"/>
<feGaussianBlur stdDeviation="7"/>
<feComposite in2="hardAlpha" operator="out"/>
<feColorMatrix type="matrix" values="0 0 0 0 0.0823529 0 0 0 0 0.0705882 0 0 0 0 0.027451 0 0 0 0.12 0"/>
<feBlend mode="normal" in2="BackgroundImageFix" result="effect1_dropShadow_16163_47314"/>
<feBlend mode="normal" in="SourceGraphic" in2="effect1_dropShadow_16163_47314" result="shape"/>
<feColorMatrix in="SourceAlpha" type="matrix" values="0 0 0 0 0 0 0 0 0 0 0 0 0 0 0 0 0 0 127 0" result="hardAlpha"/>
<feOffset dy="2"/>
<feGaussianBlur stdDeviation="5"/>
<feComposite in2="hardAlpha" operator="arithmetic" k2="-1" k3="1"/>
<feColorMatrix type="matrix" values="0 0 0 0 0.0823529 0 0 0 0 0.0705882 0 0 0 0 0.027451 0 0 0 0.2 0"/>
<feBlend mode="normal" in2="shape" result="effect2_innerShadow_16163_47314"/>
<feColorMatrix in="SourceAlpha" type="matrix" values="0 0 0 0 0 0 0 0 0 0 0 0 0 0 0 0 0 0 127 0" result="hardAlpha"/>
<feOffset dy="2"/>
<feGaussianBlur stdDeviation="2"/>
<feComposite in2="hardAlpha" operator="arithmetic" k2="-1" k3="1"/>
<feColorMatrix type="matrix" values="0 0 0 0 0.0823529 0 0 0 0 0.0705882 0 0 0 0 0.027451 0 0 0 0.12 0"/>
<feBlend mode="normal" in2="effect2_innerShadow_16163_47314" result="effect3_innerShadow_16163_47314"/>
</filter>
<clipPath id="clip0_16163_47314">
<rect width="375" height="38" fill="white"/>
</clipPath>
</defs>
</svg>
