<svg width="375" height="38" viewBox="0 0 375 38" fill="none" xmlns="http://www.w3.org/2000/svg">
<g clip-path="url(#clip0_16163_47314)">
<rect width="375" height="38" fill="#FFEFD1"/>
<g filter="url(#filter0_dii_16163_47314)">
<rect width="1572" height="18" transform="translate(-544.008 11.4961) rotate(1.80289)" fill="#D9971C"/>
<path d="M-43.9049 39.2456L-43.7262 33.5684L-41.5193 33.6378C-40.8156 33.66 -40.2812 33.8022 -39.9159 34.0645C-39.5505 34.3215 -39.3762 34.7165 -39.3929 35.2495C-39.4003 35.4841 -39.4548 35.6878 -39.5562 35.8607C-39.6576 36.0283 -39.8031 36.1598 -39.9929 36.2552C-40.1773 36.3507 -40.4005 36.4051 -40.6623 36.4182L-40.6618 36.4022C-40.1884 36.4491 -39.8303 36.5991 -39.5875 36.8522C-39.3391 37.1002 -39.2213 37.424 -39.2339 37.8238C-39.2505 38.3516 -39.4495 38.7402 -39.8308 38.9896C-40.2067 39.2339 -40.7385 39.3452 -41.4261 39.3236L-43.9049 39.2456ZM-42.6583 38.2923L-41.4509 38.3303C-41.1577 38.3395 -40.9213 38.2883 -40.7417 38.1766C-40.5566 38.0597 -40.4603 37.8813 -40.4527 37.6414C-40.4452 37.4015 -40.5301 37.2174 -40.7075 37.0891C-40.8794 36.9556 -41.1119 36.8843 -41.4051 36.875L-42.6125 36.837L-42.6583 38.2923ZM-42.5848 35.9575L-41.6253 35.9877C-41.3267 35.9971 -41.0877 35.9459 -40.9081 35.8342C-40.7231 35.7226 -40.6272 35.5575 -40.6204 35.339C-40.613 35.1044 -40.6956 34.9311 -40.8681 34.8189C-41.0352 34.7016 -41.2733 34.6381 -41.5825 34.6283L-42.542 34.5981L-42.5848 35.9575ZM-38.1228 39.4276L-37.9441 33.7504L-36.7287 33.7886L-36.897 39.138L-37.5468 38.4212L-34.2604 38.5246L-34.2927 39.5481L-38.1228 39.4276ZM-33.8502 39.5621L-31.6245 33.9493L-30.1852 33.9946L-28.3169 39.7362L-29.5803 39.6965L-29.9581 38.476L-32.141 38.4073L-32.5948 39.6016L-33.8502 39.5621ZM-31.7657 37.4186L-30.2625 37.4659L-30.9451 35.2513L-31.7657 37.4186ZM-25.3426 39.9579C-25.8597 39.9416 -26.3171 39.8098 -26.7149 39.5625C-27.1073 39.3154 -27.4111 38.967 -27.6264 38.5173C-27.8364 38.0679 -27.9316 37.5339 -27.9122 36.9156C-27.8932 36.3132 -27.7675 35.7942 -27.535 35.3587C-27.3024 34.9178 -26.9796 34.5811 -26.5667 34.3486C-26.1539 34.1162 -25.6756 34.0085 -25.1319 34.0256C-24.3909 34.0489 -23.821 34.251 -23.4221 34.6317C-23.0177 35.0073 -22.7675 35.5354 -22.6716 36.2161L-23.9365 36.2243C-23.9892 35.8651 -24.1191 35.5836 -24.3261 35.3796C-24.5329 35.1704 -24.8123 35.0602 -25.1641 35.0491C-25.4679 35.0395 -25.729 35.1114 -25.9473 35.2646C-26.1655 35.4178 -26.3352 35.6392 -26.4564 35.9289C-26.5776 36.2185 -26.6444 36.5606 -26.6568 36.9551C-26.6694 37.3549 -26.6243 37.7031 -26.5216 37.9999C-26.4134 38.2914 -26.2551 38.5178 -26.0467 38.6791C-25.8384 38.8404 -25.5876 38.9257 -25.2944 38.9349C-24.9106 38.947 -24.6114 38.8497 -24.3968 38.643C-24.1767 38.4312 -24.0339 38.1342 -23.9685 37.7521L-22.6987 37.84C-22.7879 38.3015 -22.9469 38.6913 -23.1757 39.0096C-23.4045 39.3279 -23.7002 39.5694 -24.0629 39.7341C-24.4203 39.8989 -24.8469 39.9735 -25.3426 39.9579ZM-21.7602 39.9426L-21.5815 34.2654L-20.3661 34.3037L-20.4442 36.7825L-18.3032 34.3686L-16.8879 34.4132L-19.0536 36.8502L-16.9386 40.0944L-18.3219 40.0508L-19.8789 37.6407L-20.4922 38.3097L-20.5448 39.9809L-21.7602 39.9426ZM-14.1081 40.1835L-13.9294 34.5063L-10.0113 34.6296L-10.0435 35.6531L-13.4179 35.5469L-12.7243 34.8724L-12.8061 37.4711L-13.4612 36.9222L-10.2308 37.0239L-10.2625 38.0314L-13.4929 37.9297L-12.8046 37.4231L-12.8927 40.2217L-14.1081 40.1835ZM-9.23175 40.337L-9.05305 34.6598L-6.56629 34.7381C-6.15049 34.7511 -5.79285 34.8318 -5.49336 34.9799C-5.18855 35.1283 -4.95754 35.333 -4.80034 35.594C-4.64298 35.8498 -4.56975 36.1509 -4.58065 36.4974C-4.58888 36.7586 -4.65215 36.9887 -4.77047 37.1878C-4.88346 37.387 -5.03792 37.5475 -5.23385 37.6694C-5.42445 37.7915 -5.64286 37.8647 -5.88908 37.8889L-5.9108 37.8162C-5.53232 37.8281 -5.24707 37.9198 -5.05503 38.0913C-4.86283 38.2574 -4.75869 38.5088 -4.74261 38.8455L-4.65002 40.4812L-5.88941 40.4422L-5.94805 38.9996C-5.95717 38.7806 -6.02143 38.6185 -6.14085 38.5133C-6.25477 38.403 -6.45566 38.3433 -6.74352 38.3343L-7.95092 38.2963L-8.01636 40.3752L-9.23175 40.337ZM-7.91895 37.2808L-6.78351 37.3165C-6.49033 37.3257 -6.26167 37.2662 -6.09756 37.138C-5.92795 37.0046 -5.83919 36.8126 -5.83131 36.5621C-5.82325 36.3062 -5.89984 36.1117 -6.06106 35.9786C-6.22212 35.8401 -6.4599 35.7659 -6.77442 35.756L-7.86987 35.7215L-7.91895 37.2808ZM-3.49647 40.5175L-3.31777 34.8403L-2.10237 34.8786L-2.28107 40.5558L-3.49647 40.5175ZM-1.04862 40.5945L-0.86992 34.9174L1.08911 34.979C2.01132 35.0081 2.7125 35.2782 3.19265 35.7896C3.67297 36.2956 3.89878 37.0044 3.87009 37.916C3.84156 38.8222 3.57437 39.5128 3.06851 39.9878C2.56798 40.4629 1.8646 40.6862 0.958386 40.6577L-1.04862 40.5945ZM0.198994 39.6093L0.942626 39.6327C1.49169 39.65 1.90143 39.5162 2.17187 39.2312C2.4478 38.9411 2.5955 38.4868 2.61496 37.8685C2.63442 37.2501 2.5155 36.7901 2.2582 36.4886C2.00639 36.1818 1.60595 36.0198 1.05689 36.0025L0.313261 35.9791L0.198994 39.6093ZM4.09071 40.7563L6.3164 35.1436L7.75568 35.1889L9.62397 40.9305L8.36059 40.8907L7.98281 39.6702L5.79989 39.6015L5.34609 40.7958L4.09071 40.7563ZM6.17518 38.6128L7.67843 38.6602L6.99577 36.4456L6.17518 38.6128ZM11.2027 40.9802L11.2722 38.7733L9.40636 35.2408L10.7497 35.2831L11.9171 37.609L13.2205 35.3609L14.5638 35.4032L12.4876 38.8115L12.4181 41.0184L11.2027 40.9802Z" fill="#151207"/>
<path d="M19.3018 41.3632C18.8114 41.3477 18.3929 41.2519 18.0463 41.0755C17.6996 40.8992 17.4324 40.6587 17.2446 40.354C17.0567 40.0492 16.9559 39.6939 16.942 39.2879L18.1671 39.2704C18.1921 39.4953 18.25 39.6893 18.3409 39.8522C18.4373 40.01 18.5669 40.1314 18.7296 40.2166C18.8977 40.3019 19.1043 40.3485 19.3495 40.3562C19.5521 40.3626 19.7234 40.3439 19.8636 40.3003C20.009 40.2569 20.1205 40.1884 20.1982 40.0948C20.276 39.9958 20.3172 39.8744 20.3217 39.7305C20.3259 39.5972 20.2975 39.4816 20.2366 39.3836C20.1758 39.2803 20.056 39.1858 19.8773 39.1002C19.6988 39.0092 19.4348 38.9182 19.0855 38.8271C18.6039 38.6999 18.2161 38.5623 17.9219 38.4143C17.6331 38.2665 17.4253 38.0865 17.2986 37.8744C17.1721 37.657 17.1138 37.3884 17.1239 37.0685C17.1346 36.7274 17.2266 36.4314 17.3999 36.1808C17.5786 35.9303 17.8301 35.7381 18.1545 35.6042C18.4788 35.4704 18.8622 35.4104 19.3047 35.4243C19.7738 35.4391 20.1683 35.5342 20.4883 35.7097C20.8083 35.8852 21.0543 36.1197 21.2265 36.4133C21.404 36.707 21.5056 37.041 21.5311 37.4154L20.3137 37.4411C20.3039 37.2433 20.256 37.0711 20.1699 36.9243C20.084 36.7722 19.965 36.6537 19.8129 36.5689C19.6609 36.4841 19.4755 36.4382 19.257 36.4313C18.9798 36.4226 18.7593 36.477 18.5955 36.5946C18.4371 36.7123 18.3547 36.8698 18.3485 37.0671C18.3442 37.2057 18.3751 37.324 18.4414 37.4222C18.5132 37.5151 18.6306 37.5989 18.7937 37.6734C18.9621 37.748 19.1999 37.8222 19.507 37.8959C20.0314 38.0191 20.4429 38.1682 20.7416 38.343C21.0457 38.5126 21.2582 38.7114 21.3791 38.9393C21.5 39.1672 21.5559 39.4251 21.5469 39.713C21.5358 40.0648 21.4355 40.3685 21.2461 40.624C21.0621 40.8743 20.8027 41.0636 20.4678 41.1918C20.1383 41.3201 19.7496 41.3773 19.3018 41.3632ZM21.886 41.3165L24.1116 35.7037L25.5509 35.749L27.4192 41.4906L26.1558 41.4509L25.7781 40.2304L23.5951 40.1617L23.1413 41.356L21.886 41.3165ZM23.9704 39.173L25.4737 39.2203L24.791 37.0057L23.9704 39.173ZM28.1938 41.515L28.3725 35.8378L29.5879 35.8761L29.4195 41.2254L28.7697 40.5086L32.0561 40.6121L32.0239 41.6356L28.1938 41.515ZM32.8046 41.6601L32.9833 35.983L36.9334 36.1073L36.9011 37.1308L34.1665 37.0447L34.1255 38.3481L36.7642 38.4311L36.7324 39.4386L34.0938 39.3556L34.0522 40.6749L36.8508 40.763L36.8186 41.7865L32.8046 41.6601Z" fill="white"/>
<path d="M54.0482 42.3276L54.2269 36.6504L56.4338 36.7199C57.1375 36.742 57.6719 36.8842 58.0372 37.1465C58.4026 37.4035 58.577 37.7985 58.5602 38.3316C58.5528 38.5661 58.4984 38.7698 58.3969 38.9427C58.2956 39.1103 58.15 39.2418 57.9602 39.3372C57.7758 39.4328 57.5527 39.4871 57.2908 39.5002L57.2913 39.4842C57.7647 39.5311 58.1228 39.6811 58.3657 39.9342C58.614 40.1822 58.7319 40.5061 58.7193 40.9059C58.7027 41.4336 58.5037 41.8222 58.1223 42.0716C57.7464 42.3159 57.2147 42.4273 56.527 42.4056L54.0482 42.3276ZM55.2948 41.3743L56.5022 41.4124C56.7954 41.4216 57.0318 41.3703 57.2114 41.2586C57.3965 41.1417 57.4929 40.9633 57.5004 40.7234C57.508 40.4835 57.423 40.2994 57.2457 40.1711C57.0738 40.0377 56.8412 39.9663 56.548 39.9571L55.3406 39.9191L55.2948 41.3743ZM55.3683 39.0395L56.3279 39.0697C56.6264 39.0791 56.8654 39.0279 57.045 38.9162C57.23 38.8046 57.3259 38.6396 57.3328 38.421C57.3401 38.1865 57.2576 38.0131 57.085 37.9009C56.9179 37.7836 56.6798 37.7201 56.3706 37.7104L55.4111 37.6802L55.3683 39.0395ZM59.8304 42.5096L60.0091 36.8324L61.2245 36.8707L61.0561 42.22L60.4063 41.5032L63.6927 41.6067L63.6605 42.6302L59.8304 42.5096ZM64.1029 42.6441L66.3286 37.0313L67.7679 37.0766L69.6362 42.8183L68.3728 42.7785L67.995 41.558L65.8121 41.4893L65.3583 42.6836L64.1029 42.6441ZM66.1874 40.5006L67.6907 40.5479L67.008 38.3334L66.1874 40.5006ZM72.6105 43.0399C72.0934 43.0237 71.636 42.8919 71.2383 42.6446C70.8458 42.3974 70.542 42.049 70.3267 41.5994C70.1167 41.1499 70.0215 40.616 70.041 39.9976C70.0599 39.3952 70.1856 38.8763 70.4181 38.4407C70.6508 37.9998 70.9735 37.6631 71.3864 37.4307C71.7992 37.1982 72.2775 37.0905 72.8213 37.1076C73.5622 37.131 74.1321 37.333 74.531 37.7137C74.9354 38.0893 75.1856 38.6174 75.2816 39.2981L74.0167 39.3063C73.9639 38.9472 73.8341 38.6656 73.6271 38.4617C73.4202 38.2524 73.1409 38.1422 72.789 38.1311C72.4852 38.1216 72.2241 38.1934 72.0059 38.3466C71.7876 38.4998 71.6179 38.7212 71.4967 39.0109C71.3755 39.3006 71.3087 39.6426 71.2963 40.0371C71.2837 40.4369 71.3288 40.7852 71.4315 41.0819C71.5397 41.3734 71.698 41.5999 71.9064 41.7612C72.1148 41.9225 72.3655 42.0077 72.6587 42.017C73.0425 42.029 73.3417 41.9317 73.5563 41.7251C73.7765 41.5132 73.9192 41.2162 73.9846 40.8341L75.2544 40.9221C75.1652 41.3835 75.0062 41.7734 74.7774 42.0916C74.5486 42.4099 74.2529 42.6514 73.8902 42.8161C73.5328 42.9809 73.1063 43.0555 72.6105 43.0399ZM76.1929 43.0246L76.3716 37.3475L77.587 37.3857L77.509 39.8645L79.65 37.4506L81.0653 37.4952L78.8995 39.9323L81.0145 43.1764L79.6312 43.1329L78.0742 40.7227L77.4609 41.3917L77.4083 43.0629L76.1929 43.0246ZM83.845 43.2655L84.0237 37.5883L87.9418 37.7116L87.9096 38.7351L84.5352 38.6289L85.2288 37.9544L85.147 40.5531L84.492 40.0042L87.7224 40.1059L87.6906 41.1134L84.4602 41.0117L85.1485 40.5052L85.0604 43.3038L83.845 43.2655ZM88.7214 43.419L88.9001 37.7418L91.3868 37.8201C91.8026 37.8332 92.1603 37.9138 92.4598 38.062C92.7646 38.2103 92.9956 38.415 93.1528 38.6761C93.3101 38.9318 93.3834 39.2329 93.3725 39.5794C93.3642 39.8406 93.301 40.0708 93.1827 40.2698C93.0697 40.469 92.9152 40.6296 92.7193 40.7515C92.5287 40.8735 92.3103 40.9467 92.064 40.971L92.0423 40.8982C92.4208 40.9101 92.7061 41.0018 92.8981 41.1733C93.0903 41.3394 93.1944 41.5908 93.2105 41.9275L93.3031 43.5632L92.0637 43.5242L92.0051 42.0816C91.996 41.8626 91.9317 41.7005 91.8123 41.5953C91.6984 41.485 91.4975 41.4254 91.2096 41.4163L90.0022 41.3783L89.9368 43.4573L88.7214 43.419ZM90.0342 40.3628L91.1696 40.3985C91.4628 40.4078 91.6915 40.3483 91.8556 40.22C92.0252 40.0866 92.1139 39.8947 92.1218 39.6441C92.1299 39.3882 92.0533 39.1937 91.8921 39.0606C91.731 38.9221 91.4932 38.8479 91.1787 38.838L90.0833 38.8036L90.0342 40.3628ZM94.4567 43.5995L94.6354 37.9223L95.8508 37.9606L95.6721 43.6378L94.4567 43.5995ZM96.9045 43.6766L97.0832 37.9994L99.0422 38.0611C99.9644 38.0901 100.666 38.3603 101.146 38.8716C101.626 39.3777 101.852 40.0865 101.823 40.998C101.795 41.9042 101.527 42.5948 101.022 43.0698C100.521 43.545 99.8177 43.7683 98.9115 43.7398L96.9045 43.6766ZM98.1521 42.6913L98.8958 42.7147C99.4448 42.732 99.8546 42.5982 100.125 42.3132C100.401 42.0231 100.549 41.5689 100.568 40.9505C100.588 40.3321 100.469 39.8722 100.211 39.5706C99.9595 39.2638 99.5591 39.1018 99.01 39.0845L98.2664 39.0611L98.1521 42.6913ZM102.044 43.8383L104.27 38.2256L105.709 38.2709L107.577 44.0125L106.314 43.9728L105.936 42.7523L103.753 42.6836L103.299 43.8779L102.044 43.8383ZM104.128 41.6949L105.632 41.7422L104.949 39.5276L104.128 41.6949ZM109.156 44.0622L109.225 41.8553L107.359 38.3229L108.703 38.3651L109.87 40.691L111.174 38.4429L112.517 38.4852L110.441 41.8936L110.371 44.1005L109.156 44.0622Z" fill="#151207"/>
<path d="M117.255 44.4452C116.765 44.4298 116.346 44.3339 115.999 44.1576C115.653 43.9812 115.386 43.7407 115.198 43.436C115.01 43.1313 114.909 42.7759 114.895 42.3699L116.12 42.3525C116.145 42.5774 116.203 42.7713 116.294 42.9342C116.39 43.092 116.52 43.2135 116.683 43.2986C116.851 43.384 117.057 43.4305 117.303 43.4382C117.505 43.4446 117.677 43.426 117.817 43.3824C117.962 43.3389 118.074 43.2704 118.151 43.1768C118.229 43.0778 118.27 42.9564 118.275 42.8125C118.279 42.6792 118.251 42.5636 118.19 42.4656C118.129 42.3623 118.009 42.2679 117.83 42.1822C117.652 42.0912 117.388 42.0002 117.039 41.9091C116.557 41.7819 116.169 41.6443 115.875 41.4963C115.586 41.3485 115.378 41.1686 115.252 40.9565C115.125 40.739 115.067 40.4704 115.077 40.1506C115.088 39.8094 115.18 39.5135 115.353 39.2628C115.532 39.0123 115.783 38.8201 116.108 38.6863C116.432 38.5524 116.815 38.4924 117.258 38.5064C117.727 38.5211 118.121 38.6163 118.441 38.7917C118.761 38.9672 119.007 39.2018 119.18 39.4953C119.357 39.789 119.459 40.1231 119.484 40.4974L118.267 40.5231C118.257 40.3254 118.209 40.1531 118.123 40.0063C118.037 39.8542 117.918 39.7357 117.766 39.6509C117.614 39.5661 117.429 39.5202 117.21 39.5134C116.933 39.5046 116.712 39.5591 116.549 39.6766C116.39 39.7944 116.308 39.9519 116.302 40.1491C116.297 40.2877 116.328 40.4061 116.395 40.5042C116.466 40.5972 116.584 40.6809 116.747 40.7554C116.915 40.8301 117.153 40.9042 117.46 40.9779C117.985 41.1012 118.396 41.2502 118.695 41.425C118.999 41.5947 119.211 41.7934 119.332 42.0214C119.453 42.2493 119.509 42.5072 119.5 42.795C119.489 43.1469 119.389 43.4505 119.199 43.706C119.015 43.9563 118.756 44.1456 118.421 44.2738C118.091 44.4022 117.703 44.4593 117.255 44.4452ZM119.839 44.3985L122.065 38.7857L123.504 38.831L125.372 44.5727L124.109 44.5329L123.731 43.3124L121.548 43.2437L121.094 44.438L119.839 44.3985ZM121.924 42.255L123.427 42.3023L122.744 40.0877L121.924 42.255ZM126.147 44.597L126.326 38.9198L127.541 38.9581L127.373 44.3075L126.723 43.5907L130.009 43.6941L129.977 44.7176L126.147 44.597ZM130.758 44.7422L130.936 39.065L134.886 39.1893L134.854 40.2128L132.12 40.1267L132.079 41.4301L134.717 41.5131L134.686 42.5206L132.047 42.4376L132.005 43.7569L134.804 43.845L134.772 44.8685L130.758 44.7422Z" fill="white"/>
</g>
<path d="M42.2643 18.4826C42.7218 18.4474 43.1793 18.4122 43.672 18.4122C44.1647 18.4122 44.7278 18.4826 45.3613 18.6234C45.9948 18.7641 46.4523 19.0105 46.8042 19.3624C47.1913 19.7495 47.3673 20.207 47.3673 20.6997C47.3673 21.1924 47.2265 21.6851 46.9802 22.1426C46.6986 22.6353 46.3115 23.128 45.7484 23.6207C44.1647 25.0637 42.1235 25.8027 39.6249 25.8027C38.9562 25.8027 38.3579 25.7323 37.8652 25.5915C37.3373 25.4508 37.0206 25.3452 36.8446 25.2396C36.7039 25.134 36.4927 24.9933 36.2815 24.8173C36.0704 24.6413 36 24.5358 36.1408 24.5358C36.2112 24.5358 36.3871 24.6061 36.6687 24.7117C36.9854 24.8173 37.5485 24.8877 38.3579 24.8877C39.1674 24.8877 40.0472 24.7821 40.9974 24.6061C41.9476 24.4302 42.7218 24.1486 43.3905 23.7615C44.0592 23.3744 44.587 22.9521 44.9742 22.4946C45.4317 21.9315 45.678 21.3684 45.678 20.7701C45.678 20.4534 45.6076 20.1367 45.4317 19.8199C45.2557 19.5032 44.939 19.2568 44.4111 19.0809C43.9184 18.9049 43.4609 18.8345 43.0386 18.8345C42.6162 18.8345 42.1939 18.8345 41.666 18.9049C41.1382 18.9401 40.5047 19.1161 39.6952 19.3976C38.8858 19.6792 38.3579 20.0311 38.1116 20.383C37.83 20.7701 37.6189 21.1221 37.4077 21.474C37.2317 21.7907 37.0206 22.1426 36.8446 22.5298C36.6335 22.9169 36.4927 23.1984 36.3871 23.3744C36.3167 23.5504 36.2112 23.6207 36.1408 23.6207C36.0704 23.6207 36 23.5856 36 23.48C36 23.0929 36.4575 22.1426 37.4077 20.6997C38.3579 19.2568 39.2377 17.9547 40.1176 16.8285C40.9622 15.7024 41.4901 15.1393 41.6309 15.1393C41.7012 15.1393 41.7716 15.1393 41.8068 15.2449C41.842 15.3152 41.8772 15.3856 41.8772 15.456C40.3639 17.3564 39.4489 18.5178 39.1322 18.9049C43.5665 18.1659 46.2763 17.1101 47.2265 15.7376C47.3673 15.4912 47.4377 15.28 47.4377 15.0689C47.4377 14.8577 47.3321 14.6818 47.1561 14.5058C46.769 14.1539 46.03 13.9779 44.9742 13.9779C43.9184 13.9779 42.5107 14.2243 40.7862 14.717C39.0618 15.2097 37.8652 15.7376 37.1614 16.3358C36.9502 16.5118 36.8798 16.6174 36.9502 16.723C37.0206 16.8285 37.0206 16.8989 36.9854 16.8989C36.9502 16.8989 36.915 16.8989 36.8446 16.8637C36.5983 16.723 36.4223 16.547 36.3519 16.3006C36.2815 16.0543 36.2463 15.9135 36.2463 15.8079C36.2463 15.7024 36.2463 15.632 36.3519 15.5616C36.8798 14.8225 38.0764 14.1539 39.9768 13.5556C41.8772 12.9573 43.3201 12.6758 44.3407 12.6758C46.3467 12.6758 47.6136 13.0277 48.1415 13.6964C48.3527 13.9427 48.4583 14.2595 48.4583 14.541C48.4583 14.9985 48.2119 15.4912 47.6488 16.0191C46.4171 17.1805 44.6222 18.0251 42.3347 18.553L42.2643 18.4826Z" fill="#151207"/>
<path d="M48.7047 24.0097C48.7047 24.3264 48.8806 24.5024 49.1974 24.5024C49.3733 24.5024 49.6901 24.432 50.1124 24.256C50.5347 24.1152 51.0626 23.7633 51.7312 23.2354C52.3999 22.7075 52.8574 22.3204 53.0686 22.074C53.3149 21.8277 53.4205 21.7221 53.4909 21.7221C53.5261 21.7221 53.5613 21.7573 53.5613 21.8277C53.5613 21.8981 53.5261 21.9333 53.4557 22.0037C52.4351 23.0594 51.5553 23.7985 50.8866 24.2912C50.218 24.7487 49.5845 24.9599 48.9862 24.9599C48.4935 24.9599 48.1416 24.8543 47.9656 24.6079C47.7896 24.3616 47.6841 24.1152 47.6841 23.7985C47.6841 23.2706 47.8952 22.6019 48.2823 21.8277C47.5785 22.5667 47.2266 22.8131 47.2266 22.5667C47.2266 22.5316 47.2618 22.4612 47.3321 22.3908C47.8952 21.9333 48.5287 21.2646 49.1622 20.3848C50.3587 18.8363 51.3089 17.4286 51.9776 16.2672C52.1184 16.0209 52.1536 15.8801 52.1536 15.7393C52.1536 15.493 52.0128 15.4226 51.7312 15.5986C51.4145 15.7393 51.2385 15.8097 51.2385 15.7745C51.2385 15.7393 51.2385 15.7041 51.3089 15.6338C51.5905 15.4226 52.0128 15.2114 52.5055 15.0355C53.0334 14.8595 53.4205 14.7539 53.7724 14.7188C54.2651 14.7188 54.5467 14.8947 54.5467 15.1763C54.5467 15.3522 54.4763 15.5986 54.3003 15.9153C54.1244 16.232 53.6317 16.8303 52.787 17.7101C51.9424 18.6252 51.4497 19.1882 51.2737 19.3994C50.0068 21.0535 49.2326 22.3204 48.8806 23.3058C48.8102 23.5521 48.7399 23.7633 48.7399 23.9393L48.7047 24.0097Z" fill="#151207"/>
<path d="M59.3743 21.9673C59.3743 21.9673 59.0927 22.284 58.952 22.46C58.8112 22.636 58.6352 22.8823 58.4241 23.199C58.2129 23.5158 58.1073 23.7621 58.1073 24.0085C58.1073 24.2548 58.2129 24.3252 58.3889 24.3252C58.5648 24.3252 58.8816 24.2196 59.3039 23.9733C60.1485 23.4806 61.0987 22.7767 62.1193 21.7913C62.2249 21.6858 62.3305 21.6506 62.3657 21.7209V21.7913C62.3657 21.7913 62.3657 21.8617 62.2953 21.9321C60.2189 23.9029 58.7056 24.8883 57.7554 24.8883C57.4739 24.8883 57.2275 24.7827 57.0516 24.6068C56.8756 24.4308 56.77 24.1844 56.77 23.9381C56.77 23.6917 56.8756 23.3046 57.0867 22.7767C56.5237 23.4454 55.9606 23.9733 55.3271 24.3604C54.6936 24.7123 54.2009 24.9235 53.849 24.9235C53.4971 24.9235 53.1803 24.8179 52.934 24.6068C52.6876 24.3956 52.5469 24.1141 52.5469 23.8325C52.5469 22.9175 52.934 22.0729 53.7434 21.1931C54.3417 20.5596 55.116 20.1021 55.9958 19.8205C56.3829 19.6798 56.8052 19.6094 57.1571 19.6094C57.5091 19.6094 57.8962 19.715 58.2833 19.9261C58.6352 20.1373 58.8816 20.3836 58.952 20.7004C59.3039 20.7004 59.5854 20.8411 59.7262 21.0875C59.7262 21.1227 59.7614 21.1931 59.7614 21.2634C59.7614 21.3338 59.7262 21.4394 59.6206 21.545C59.5151 21.6506 59.4095 21.7913 59.3039 21.9321L59.3743 21.9673ZM58.037 20.1373C57.7906 20.1373 57.4739 20.2077 57.1219 20.3836C56.5237 20.63 55.9254 21.1227 55.3623 21.7561C54.4825 22.8119 54.025 23.551 54.025 24.0437C54.025 24.29 54.1306 24.4308 54.3417 24.4308C54.5177 24.4308 54.7992 24.3252 55.1863 24.1141C55.5735 23.9029 56.1013 23.4806 56.7348 22.8119C56.77 22.7767 56.9108 22.636 57.1571 22.4248C57.4035 22.2136 57.6146 22.0025 57.7906 21.8265C58.3537 21.2282 58.6352 20.8059 58.6352 20.5596C58.6352 20.3132 58.4241 20.1725 58.037 20.1725V20.1373Z" fill="#151207"/>
<path d="M66.7165 20.4539C66.7165 20.2075 66.6109 20.1019 66.3646 20.1019C66.1534 20.1019 65.8367 20.2075 65.4144 20.3835C64.992 20.5594 64.4993 20.9817 63.9715 21.58C63.338 22.3543 63.0213 23.0229 63.0213 23.6212C63.0213 24.0787 63.1972 24.3603 63.5139 24.5362C63.6195 24.5714 63.7603 24.6066 63.9011 24.6066C64.3938 24.6066 64.992 24.3955 65.6607 23.9731C66.3294 23.5508 67.2092 22.847 68.265 21.8616C68.4409 21.6856 68.5113 21.6856 68.5113 21.8616C68.5113 21.932 68.4761 22.0023 68.4058 22.0727C66.9277 23.4452 65.8367 24.2899 65.1328 24.6066C64.429 24.9233 63.9011 25.0993 63.4788 25.0993C62.071 25.0993 61.3672 24.6066 61.3672 23.5508C61.3672 22.495 61.8247 21.6152 62.7749 20.8762C63.6899 20.1371 64.6753 19.75 65.6607 19.75C66.2942 19.75 66.7165 19.8908 66.9277 20.1723C67.0684 20.3131 67.1388 20.489 67.1388 20.6298C67.1388 20.7706 67.1036 20.9466 66.998 21.1577C66.8925 21.3337 66.7869 21.4041 66.5757 21.4041C66.3646 21.4041 66.3646 21.2985 66.5053 21.0521C66.6461 20.8058 66.7165 20.6298 66.7165 20.4539Z" fill="#151207"/>
<path d="M68.6225 23.0884C68.3058 23.8979 68.1298 24.5665 68.1298 25.1296C68.1298 25.6927 68.2002 26.0446 68.3762 26.2206C68.3762 26.2558 68.4114 26.291 68.3762 26.3262C68.3762 26.3262 68.341 26.3262 68.3058 26.3262C68.3058 26.3262 68.3058 26.3262 68.2706 26.3262C67.8835 26.0094 67.6723 25.6575 67.6019 25.2704C67.6019 25.1296 67.5667 24.9888 67.5667 24.8481C67.5667 24.1442 67.7779 23.2644 68.2002 22.2438C67.6019 22.8421 67.2852 23.0884 67.25 22.9477C67.25 22.8421 67.3556 22.7013 67.4963 22.5605C67.6371 22.4198 68.0242 21.9975 68.5521 21.3288C69.7487 18.6541 71.3676 16.4018 73.3032 14.5718C74.3238 13.6216 75.2388 13.1641 76.0834 13.1641C76.7521 13.1641 77.1392 13.4456 77.2799 14.0087C77.2799 14.0791 77.3151 14.1847 77.3151 14.2902C77.3151 15.3108 76.2946 16.5426 74.2182 17.9503C73.5143 18.443 72.8457 18.7949 72.2474 19.0765C72.1066 19.1468 72.001 19.1116 72.001 19.0765C72.001 19.0061 72.0362 18.9357 72.177 18.8653C72.7401 18.6189 73.3735 18.2318 74.0774 17.7039C74.7813 17.2112 75.4147 16.6482 75.9778 16.0499C76.5409 15.4516 76.8576 14.9941 76.8576 14.6422C76.8576 14.431 76.7521 14.3254 76.5057 14.3254C76.2594 14.3254 75.9426 14.4662 75.5203 14.7125C74.3238 15.4516 72.9864 16.7537 71.5435 18.6189C70.6285 19.7803 69.9247 20.8361 69.3264 21.7863C70.171 20.6601 71.0508 19.9211 71.9306 19.534C72.2826 19.4284 72.5641 19.358 72.7753 19.358C72.9864 19.358 73.1976 19.3932 73.3735 19.4636C73.6903 19.6043 73.8662 19.8507 73.8662 20.2026C73.8662 20.8009 73.5143 21.364 72.7753 21.8919C72.353 22.1734 71.8955 22.3846 71.3676 22.5254C70.8397 22.6309 70.4525 22.7013 70.171 22.7013C69.8895 22.7013 69.6783 22.6661 69.5023 22.5957C69.8895 23.0884 70.3822 23.5108 71.0156 23.8979C71.6491 24.2498 72.1418 24.461 72.5289 24.461C72.7753 24.461 72.9864 24.3906 73.1272 24.285C73.268 24.1794 73.3384 24.0738 73.3384 23.9683C73.3384 23.8979 73.3384 23.8627 73.3735 23.8627C73.3735 23.8627 73.4087 23.8627 73.4087 23.8979C73.4087 24.3202 73.092 24.6017 72.4233 24.7777C72.177 24.8481 71.8251 24.8833 71.4027 24.8833C70.9804 24.8833 70.5229 24.7425 70.0302 24.4961C69.256 24.1442 68.7281 23.7219 68.4817 23.194L68.6225 23.0884ZM72.6345 20.6601C72.6345 20.2378 72.4233 20.0267 72.0362 20.0267C71.5787 20.0267 71.0508 20.273 70.4877 20.8009C69.9247 21.2936 69.5023 21.7159 69.256 22.0678C69.256 22.1382 69.3264 22.2086 69.3968 22.3142C69.5375 22.4198 69.7135 22.455 69.8895 22.455C70.0654 22.455 70.3822 22.3846 70.8045 22.279C71.2268 22.1734 71.6491 21.9623 72.0362 21.6455C72.4233 21.3288 72.6345 21.0121 72.6345 20.6601Z" fill="#151207"/>
<path d="M86.2953 14.9468H83.1999V18.4787H85.8588V20.0265H83.1999V25.3443H81.4141V13.3594H86.2953V14.9468Z" fill="#151207"/>
<path d="M93.4324 25.3443H91.5672L89.583 19.7884V18.7169H91.3291V14.9071H89.0671V25.3443H87.2812V13.3594H92.0435C92.7578 13.3594 93.115 13.7165 93.115 14.4706V18.8359C93.115 19.3518 92.9562 19.6693 92.599 19.828C92.4006 19.9074 92.0435 19.9471 91.4482 19.9471L93.4324 25.3839V25.3443Z" fill="#151207"/>
<path d="M96.3796 25.3443H94.5938V13.3594H96.3796V25.3443Z" fill="#151207"/>
<path d="M103.789 23.0822C103.789 23.7965 103.591 24.3521 103.154 24.749C102.718 25.1458 102.162 25.3443 101.448 25.3443H97.7969V13.3594H101.448C102.162 13.3594 102.718 13.5578 103.154 13.9547C103.591 14.3515 103.789 14.9071 103.789 15.6214V23.0822ZM102.003 22.8044V15.9389C102.003 15.2643 101.646 14.9468 100.932 14.9468H99.6224V23.8362H100.892C101.607 23.8362 102.003 23.4791 102.003 22.8044Z" fill="#151207"/>
<path d="M111.259 25.3443H109.473L109.116 23.0822H106.854L106.497 25.3443H104.711L107.013 13.3594H108.878L111.18 25.3443H111.259ZM108.878 21.5345L108.005 16.1373L107.132 21.5345H108.878Z" fill="#151207"/>
<path d="M118.275 13.4387L116.687 18.4391C116.489 18.9153 116.251 19.7487 115.893 20.9392V25.3443H114.108V20.9392C114.028 20.5424 113.909 20.1058 113.751 19.6693C113.473 18.9153 113.314 18.4787 113.314 18.4391L111.727 13.4387C111.727 13.4387 111.727 13.4387 111.727 13.3594H113.552L114.981 18.5581L116.409 13.3594H118.235V13.4387H118.275Z" fill="#151207"/>
<path d="M127.446 25C127.446 24.0606 127.577 23.2413 127.839 22.5422C128.101 21.8322 128.544 21.1877 129.167 20.6087C129.789 20.0189 130.63 19.4454 131.69 18.8883C132.214 18.6043 132.635 18.353 132.952 18.1346C133.268 17.9161 133.498 17.6922 133.64 17.4628C133.782 17.2224 133.853 16.9384 133.853 16.6107C133.853 16.283 133.782 15.999 133.64 15.7587C133.498 15.5074 133.285 15.3108 133.001 15.1688C132.728 15.0268 132.384 14.9558 131.968 14.9558C131.302 14.9558 130.772 15.147 130.379 15.5293C129.997 15.9007 129.762 16.4359 129.674 17.1351L127.479 17.004C127.588 15.7915 128.03 14.8411 128.806 14.1529C129.593 13.4538 130.647 13.1043 131.968 13.1043C132.82 13.1043 133.552 13.2517 134.164 13.5467C134.776 13.8307 135.24 14.2349 135.557 14.7592C135.885 15.2835 136.048 15.8898 136.048 16.578C136.048 17.1678 135.945 17.6758 135.737 18.1018C135.54 18.5278 135.213 18.921 134.754 19.2815C134.306 19.6311 133.7 20.0079 132.935 20.4121C131.974 20.9255 131.253 21.4225 130.772 21.9032C130.292 22.3729 130.035 22.788 130.002 23.1485H136.048V25H127.446ZM142.42 25.2622C141.437 25.2622 140.58 25.0164 139.848 24.5248C139.127 24.0333 138.57 23.3342 138.177 22.4275C137.783 21.5209 137.587 20.4449 137.587 19.1996C137.587 17.9543 137.783 16.8783 138.177 15.9717C138.57 15.0541 139.127 14.3495 139.848 13.858C140.58 13.3555 141.437 13.1043 142.42 13.1043C143.425 13.1043 144.288 13.3555 145.009 13.858C145.73 14.3495 146.287 15.0487 146.681 15.9553C147.074 16.862 147.27 17.9434 147.27 19.1996C147.27 20.4449 147.074 21.5209 146.681 22.4275C146.287 23.3342 145.73 24.0333 145.009 24.5248C144.288 25.0164 143.425 25.2622 142.42 25.2622ZM142.42 23.4106C143.272 23.4106 143.928 23.0556 144.387 22.3456C144.845 21.6246 145.075 20.576 145.075 19.1996C145.075 18.282 144.971 17.5065 144.763 16.8729C144.556 16.2393 144.255 15.7641 143.862 15.4474C143.48 15.1197 142.999 14.9558 142.42 14.9558C141.863 14.9558 141.388 15.1197 140.995 15.4474C140.602 15.7641 140.301 16.2393 140.094 16.8729C139.886 17.5065 139.782 18.282 139.782 19.1996C139.782 20.576 140.012 21.6246 140.47 22.3456C140.929 23.0556 141.579 23.4106 142.42 23.4106ZM151.343 19.003C150.578 19.003 149.944 18.7627 149.442 18.282C148.939 17.8014 148.688 17.0804 148.688 16.1192C148.688 15.1579 148.939 14.4369 149.442 13.9563C149.944 13.4757 150.578 13.2353 151.343 13.2353C152.118 13.2353 152.752 13.4757 153.243 13.9563C153.746 14.4369 153.997 15.1579 153.997 16.1192C153.997 17.0804 153.746 17.8014 153.243 18.282C152.752 18.7627 152.118 19.003 151.343 19.003ZM151.343 17.8232C151.725 17.8232 152.009 17.6812 152.195 17.3972C152.391 17.1023 152.489 16.6763 152.489 16.1192C152.489 15.5621 152.391 15.1415 152.195 14.8575C152.009 14.5626 151.725 14.4151 151.343 14.4151C150.971 14.4151 150.687 14.5626 150.49 14.8575C150.294 15.1415 150.196 15.5621 150.196 16.1192C150.196 16.6763 150.294 17.1023 150.49 17.3972C150.687 17.6812 150.971 17.8232 151.343 17.8232ZM158.159 25.1311C157.394 25.1311 156.761 24.8908 156.258 24.4101C155.756 23.9295 155.504 23.2085 155.504 22.2473C155.504 21.286 155.756 20.565 156.258 20.0844C156.761 19.6038 157.394 19.3635 158.159 19.3635C158.934 19.3635 159.568 19.6038 160.06 20.0844C160.551 20.565 160.797 21.286 160.797 22.2473C160.797 23.2085 160.551 23.9295 160.06 24.4101C159.568 24.8908 158.934 25.1311 158.159 25.1311ZM158.159 23.9513C158.541 23.9513 158.825 23.8093 159.011 23.5253C159.207 23.2304 159.306 22.8044 159.306 22.2473C159.306 21.6902 159.207 21.2696 159.011 20.9856C158.825 20.6907 158.541 20.5432 158.159 20.5432C157.787 20.5432 157.503 20.6907 157.307 20.9856C157.11 21.2696 157.012 21.6902 157.012 22.2473C157.012 22.8044 157.11 23.2304 157.307 23.5253C157.503 23.8093 157.787 23.9513 158.159 23.9513ZM150.114 25L157.946 13.3664H159.388L151.556 25H150.114Z" fill="#EC020A"/>
<path d="M168.656 23.2168C168.203 23.2168 167.788 23.1414 167.411 22.9528C167.034 22.8019 166.732 22.5378 166.43 22.1983C166.128 21.821 165.94 21.4438 165.789 20.9911C165.638 20.5384 165.562 20.048 165.562 19.4821C165.562 18.9163 165.638 18.4259 165.789 17.9732C165.94 17.5205 166.166 17.1055 166.43 16.766C166.694 16.4265 166.996 16.2001 167.373 16.0492C167.751 15.8606 168.165 15.7852 168.618 15.7852C169.071 15.7852 169.486 15.8606 169.863 16.0492C170.24 16.2001 170.542 16.4642 170.806 16.766C171.07 17.1055 171.297 17.5205 171.447 17.9732C171.598 18.4259 171.674 18.9163 171.674 19.4821C171.674 20.048 171.598 20.5384 171.447 20.9911C171.297 21.4438 171.108 21.821 170.806 22.1983C170.542 22.5378 170.24 22.7641 169.863 22.915C169.486 23.1037 169.109 23.1791 168.618 23.1791L168.656 23.2168ZM168.656 21.821C169.071 21.821 169.41 21.6324 169.674 21.1797C169.939 20.7648 170.052 20.1989 170.052 19.5199C170.052 18.8408 169.939 18.2372 169.674 17.8223C169.41 17.4073 169.071 17.2187 168.618 17.2187C168.165 17.2187 167.864 17.4073 167.6 17.86C167.336 18.275 167.222 18.8408 167.222 19.5199C167.222 20.1989 167.373 20.8025 167.6 21.1797C167.864 21.5947 168.203 21.821 168.656 21.821Z" fill="#151207"/>
<path d="M173.039 23.0297V15.9375H178.132V17.3333H174.623V18.7291H177.868V20.0494H174.623V23.0674H173.039V23.0297Z" fill="#151207"/>
<path d="M179.5 23.0297V15.9375H184.593V17.3333H181.084V18.7291H184.329V20.0494H181.084V23.0674H179.5V23.0297Z" fill="#151207"/>
<path d="M194.567 23.1413C194.084 23.1413 193.663 23.0471 193.304 22.8587C192.951 22.6703 192.677 22.4025 192.483 22.0551C192.294 21.7019 192.2 21.2869 192.2 20.81V16.7215H192.96V20.81C192.96 21.3163 193.098 21.7078 193.375 21.9845C193.657 22.2612 194.055 22.3995 194.567 22.3995C195.073 22.3995 195.464 22.2612 195.741 21.9845C196.024 21.7078 196.165 21.3163 196.165 20.81V16.7215H196.924V20.81C196.924 21.2869 196.827 21.7019 196.633 22.0551C196.445 22.4025 196.174 22.6703 195.821 22.8587C195.467 23.0471 195.049 23.1413 194.567 23.1413ZM200.019 23.106C199.601 23.106 199.245 23.0383 198.951 22.9029C198.662 22.7675 198.436 22.582 198.271 22.3465C198.112 22.1052 198.021 21.8314 197.997 21.5253L198.774 21.4723C198.821 21.7549 198.942 21.9815 199.136 22.1523C199.33 22.3171 199.625 22.3995 200.019 22.3995C200.337 22.3995 200.59 22.3495 200.779 22.2494C200.973 22.1434 201.07 21.9757 201.07 21.7461C201.07 21.6224 201.041 21.5194 200.982 21.437C200.923 21.3546 200.808 21.2839 200.637 21.2251C200.467 21.1603 200.213 21.0985 199.878 21.0396C199.43 20.9572 199.077 20.8571 198.818 20.7394C198.565 20.6158 198.383 20.4656 198.271 20.289C198.165 20.1065 198.112 19.8917 198.112 19.6444C198.112 19.2264 198.265 18.885 198.571 18.6201C198.877 18.3493 199.313 18.2138 199.878 18.2138C200.261 18.2138 200.581 18.2845 200.84 18.4258C201.105 18.5612 201.311 18.7437 201.459 18.9733C201.612 19.197 201.712 19.4442 201.759 19.715L200.982 19.768C200.946 19.6032 200.882 19.459 200.787 19.3353C200.693 19.2058 200.57 19.1057 200.417 19.0351C200.263 18.9586 200.081 18.9203 199.869 18.9203C199.533 18.9203 199.286 18.985 199.127 19.1146C198.968 19.2441 198.889 19.4089 198.889 19.6091C198.889 19.7621 198.924 19.8887 198.995 19.9888C199.071 20.083 199.192 20.1625 199.357 20.2272C199.522 20.2861 199.742 20.3391 200.019 20.3862C200.496 20.4686 200.867 20.5687 201.132 20.6864C201.397 20.8041 201.582 20.9484 201.688 21.1191C201.794 21.2898 201.847 21.4988 201.847 21.7461C201.847 22.0345 201.765 22.2818 201.6 22.4878C201.441 22.688 201.223 22.8411 200.946 22.947C200.676 23.053 200.366 23.106 200.019 23.106ZM204.687 23.106C204.246 23.106 203.863 23.0059 203.539 22.8057C203.222 22.6056 202.974 22.323 202.798 21.958C202.627 21.5871 202.542 21.1544 202.542 20.6599C202.542 20.1654 202.627 19.7356 202.798 19.3707C202.974 19.0057 203.219 18.7231 203.531 18.5229C203.849 18.3169 204.222 18.2138 204.652 18.2138C205.058 18.2138 205.417 18.311 205.729 18.5053C206.041 18.6936 206.283 18.9703 206.454 19.3353C206.63 19.7003 206.718 20.1448 206.718 20.6687V20.8895H203.319C203.348 21.3899 203.481 21.7667 203.716 22.0198C203.957 22.273 204.281 22.3995 204.687 22.3995C204.994 22.3995 205.244 22.3289 205.438 22.1876C205.638 22.0404 205.777 21.8491 205.853 21.6136L206.648 21.6754C206.524 22.0934 206.289 22.4378 205.941 22.7086C205.6 22.9735 205.182 23.106 204.687 23.106ZM203.319 20.236H205.906C205.871 19.7827 205.738 19.4501 205.509 19.2382C205.285 19.0263 204.999 18.9203 204.652 18.9203C204.293 18.9203 203.996 19.0321 203.76 19.2559C203.531 19.4737 203.383 19.8004 203.319 20.236ZM211.73 23C211.306 23 210.991 22.9029 210.785 22.7086C210.585 22.5143 210.485 22.2111 210.485 21.799V17.2248H211.227V21.7814C211.227 21.9933 211.274 22.1405 211.368 22.2229C211.462 22.3053 211.607 22.3465 211.801 22.3465H212.472V23H211.73ZM209.796 18.9733V18.3198H212.472V18.9733H209.796ZM213.423 23V16.7303H214.165V19.353L214.077 19.3353C214.136 19.0763 214.236 18.8644 214.377 18.6995C214.518 18.5347 214.692 18.414 214.898 18.3375C215.104 18.2551 215.331 18.2138 215.578 18.2138C215.914 18.2138 216.196 18.2904 216.426 18.4434C216.661 18.5906 216.838 18.7996 216.956 19.0704C217.079 19.3353 217.141 19.6415 217.141 19.9888V23H216.399V20.2007C216.399 19.7474 216.317 19.4119 216.152 19.194C215.993 18.9762 215.749 18.8673 215.419 18.8673C215.042 18.8673 214.739 18.9821 214.51 19.2117C214.28 19.4413 214.165 19.7739 214.165 20.2096V23H213.423ZM218.468 23V18.3198H219.21V23H218.468ZM218.45 17.5869V16.7215H219.228V17.5869H218.45ZM222.242 23.106C221.824 23.106 221.468 23.0383 221.174 22.9029C220.885 22.7675 220.658 22.582 220.494 22.3465C220.335 22.1052 220.243 21.8314 220.22 21.5253L220.997 21.4723C221.044 21.7549 221.165 21.9815 221.359 22.1523C221.553 22.3171 221.848 22.3995 222.242 22.3995C222.56 22.3995 222.813 22.3495 223.002 22.2494C223.196 22.1434 223.293 21.9757 223.293 21.7461C223.293 21.6224 223.263 21.5194 223.205 21.437C223.146 21.3546 223.031 21.2839 222.86 21.2251C222.69 21.1603 222.436 21.0985 222.101 21.0396C221.653 20.9572 221.3 20.8571 221.041 20.7394C220.788 20.6158 220.606 20.4656 220.494 20.289C220.388 20.1065 220.335 19.8917 220.335 19.6444C220.335 19.2264 220.488 18.885 220.794 18.6201C221.1 18.3493 221.536 18.2138 222.101 18.2138C222.483 18.2138 222.804 18.2845 223.063 18.4258C223.328 18.5612 223.534 18.7437 223.681 18.9733C223.835 19.197 223.935 19.4442 223.982 19.715L223.205 19.768C223.169 19.6032 223.105 19.459 223.01 19.3353C222.916 19.2058 222.793 19.1057 222.639 19.0351C222.486 18.9586 222.304 18.9203 222.092 18.9203C221.756 18.9203 221.509 18.985 221.35 19.1146C221.191 19.2441 221.112 19.4089 221.112 19.6091C221.112 19.7621 221.147 19.8887 221.218 19.9888C221.294 20.083 221.415 20.1625 221.58 20.2272C221.745 20.2861 221.965 20.3391 222.242 20.3862C222.719 20.4686 223.09 20.5687 223.355 20.6864C223.62 20.8041 223.805 20.9484 223.911 21.1191C224.017 21.2898 224.07 21.4988 224.07 21.7461C224.07 22.0345 223.988 22.2818 223.823 22.4878C223.664 22.688 223.446 22.8411 223.169 22.947C222.899 23.053 222.589 23.106 222.242 23.106ZM229.204 23.106C228.769 23.106 228.389 23.0059 228.065 22.8057C227.747 22.6056 227.5 22.323 227.323 21.958C227.147 21.5871 227.058 21.1544 227.058 20.6599C227.058 20.1654 227.147 19.7356 227.323 19.3707C227.5 19.0057 227.747 18.7231 228.065 18.5229C228.389 18.3169 228.769 18.2138 229.204 18.2138C229.563 18.2138 229.881 18.2786 230.158 18.4081C230.44 18.5317 230.67 18.7142 230.847 18.9556C231.023 19.197 231.138 19.4913 231.191 19.8387L230.414 19.8917C230.361 19.5796 230.226 19.3412 230.008 19.1764C229.79 19.0057 229.522 18.9203 229.204 18.9203C228.774 18.9203 228.439 19.0763 228.198 19.3883C227.956 19.6944 227.835 20.1183 227.835 20.6599C227.835 21.2015 227.956 21.6283 228.198 21.9403C228.439 22.2465 228.774 22.3995 229.204 22.3995C229.522 22.3995 229.79 22.3112 230.008 22.1346C230.226 21.958 230.361 21.6931 230.414 21.3399L231.191 21.3928C231.138 21.7402 231.023 22.0434 230.847 22.3024C230.67 22.5555 230.44 22.7527 230.158 22.894C229.881 23.0353 229.563 23.106 229.204 23.106ZM233.939 23.106C233.509 23.106 233.132 23.0059 232.808 22.8057C232.484 22.6056 232.234 22.323 232.058 21.958C231.881 21.5871 231.793 21.1544 231.793 20.6599C231.793 20.1595 231.881 19.7268 232.058 19.3618C232.234 18.9968 232.484 18.7142 232.808 18.5141C233.132 18.3139 233.509 18.2138 233.939 18.2138C234.368 18.2138 234.742 18.3139 235.06 18.5141C235.384 18.7142 235.634 18.9968 235.811 19.3618C235.987 19.7268 236.076 20.1595 236.076 20.6599C236.076 21.1544 235.987 21.5871 235.811 21.958C235.634 22.323 235.384 22.6056 235.06 22.8057C234.742 23.0059 234.368 23.106 233.939 23.106ZM233.939 22.3995C234.368 22.3995 234.701 22.2465 234.936 21.9403C235.178 21.6283 235.298 21.2015 235.298 20.6599C235.298 20.1183 235.178 19.6944 234.936 19.3883C234.701 19.0763 234.368 18.9203 233.939 18.9203C233.509 18.9203 233.173 19.0763 232.932 19.3883C232.691 19.6944 232.57 20.1183 232.57 20.6599C232.57 21.2015 232.691 21.6283 232.932 21.9403C233.173 22.2465 233.509 22.3995 233.939 22.3995ZM238.747 23.106C238.34 23.106 237.987 23.0059 237.687 22.8057C237.393 22.6056 237.166 22.323 237.007 21.958C236.848 21.593 236.769 21.1603 236.769 20.6599C236.769 20.1595 236.848 19.7268 237.007 19.3618C237.166 18.9968 237.393 18.7142 237.687 18.5141C237.987 18.3139 238.34 18.2138 238.747 18.2138C239.059 18.2138 239.344 18.2816 239.603 18.417C239.862 18.5465 240.056 18.7319 240.186 18.9733V16.7303H240.928V23H240.257L240.23 22.2936C240.101 22.5467 239.903 22.7469 239.638 22.894C239.374 23.0353 239.076 23.106 238.747 23.106ZM238.897 22.3995C239.173 22.3995 239.406 22.3289 239.594 22.1876C239.789 22.0463 239.936 21.8461 240.036 21.5871C240.136 21.3222 240.186 21.0131 240.186 20.6599C240.186 20.2949 240.136 19.9829 240.036 19.7239C239.936 19.4648 239.789 19.2676 239.594 19.1322C239.406 18.9909 239.173 18.9203 238.897 18.9203C238.485 18.9203 238.155 19.0763 237.908 19.3883C237.666 19.6944 237.546 20.1183 237.546 20.6599C237.546 21.1956 237.666 21.6195 237.908 21.9315C238.155 22.2435 238.485 22.3995 238.897 22.3995ZM244.08 23.106C243.638 23.106 243.256 23.0059 242.932 22.8057C242.614 22.6056 242.367 22.323 242.19 21.958C242.019 21.5871 241.934 21.1544 241.934 20.6599C241.934 20.1654 242.019 19.7356 242.19 19.3707C242.367 19.0057 242.611 18.7231 242.923 18.5229C243.241 18.3169 243.615 18.2138 244.045 18.2138C244.451 18.2138 244.81 18.311 245.122 18.5053C245.434 18.6936 245.675 18.9703 245.846 19.3353C246.023 19.7003 246.111 20.1448 246.111 20.6687V20.8895H242.711C242.741 21.3899 242.873 21.7667 243.109 22.0198C243.35 22.273 243.674 22.3995 244.08 22.3995C244.386 22.3995 244.636 22.3289 244.83 22.1876C245.031 22.0404 245.169 21.8491 245.246 21.6136L246.04 21.6754C245.917 22.0934 245.681 22.4378 245.334 22.7086C244.992 22.9735 244.574 23.106 244.08 23.106ZM242.711 20.236H245.298C245.263 19.7827 245.131 19.4501 244.901 19.2382C244.677 19.0263 244.392 18.9203 244.045 18.9203C243.685 18.9203 243.388 19.0321 243.153 19.2559C242.923 19.4737 242.776 19.8004 242.711 20.236Z" fill="#292929"/>
<rect x="250.922" y="9.58594" width="88.6611" height="19.8305" rx="9.91527" fill="#151207"/>
<path d="M260.903 23V16.7303H263.155C263.908 16.7303 264.476 16.8657 264.859 17.1365C265.242 17.4073 265.433 17.8371 265.433 18.4258C265.433 18.6907 265.377 18.9232 265.265 19.1234C265.153 19.3236 264.988 19.4825 264.771 19.6002C264.559 19.7121 264.306 19.771 264.011 19.7769L264.002 19.7415C264.538 19.7533 264.953 19.9005 265.247 20.1831C265.548 20.4597 265.698 20.8247 265.698 21.278C265.698 21.8491 265.507 22.2788 265.124 22.5673C264.741 22.8558 264.197 23 263.49 23H260.903ZM261.857 22.1434H263.464C263.858 22.1434 264.164 22.064 264.382 21.905C264.606 21.7402 264.718 21.5018 264.718 21.1897C264.718 20.8836 264.606 20.6452 264.382 20.4745C264.164 20.3037 263.858 20.2184 263.464 20.2184H261.857V22.1434ZM261.857 19.406H263.137C263.555 19.406 263.879 19.3265 264.108 19.1675C264.338 19.0086 264.453 18.7849 264.453 18.4964C264.453 18.1903 264.341 17.9637 264.117 17.8165C263.899 17.6634 263.573 17.5869 263.137 17.5869H261.857V19.406ZM266.982 23V16.7303H267.936V22.6468L267.433 22.1258H270.992V23H266.982ZM271.375 23L273.636 16.7303H274.846L277.106 23H276.091L275.517 21.3664H272.956L272.391 23H271.375ZM273.256 20.501H275.226L274.237 17.6399L273.256 20.501ZM280.235 23.1413C279.67 23.1413 279.172 23.0118 278.743 22.7527C278.313 22.4878 277.977 22.1111 277.736 21.6224C277.495 21.1338 277.374 20.551 277.374 19.874C277.374 19.2029 277.492 18.623 277.727 18.1344C277.968 17.6399 278.304 17.2602 278.734 16.9952C279.163 16.7244 279.667 16.589 280.244 16.589C281.021 16.589 281.624 16.7833 282.054 17.1718C282.484 17.5604 282.763 18.0991 282.893 18.7878L281.895 18.8408C281.813 18.4111 281.636 18.0755 281.365 17.8341C281.094 17.5869 280.721 17.4633 280.244 17.4633C279.861 17.4633 279.528 17.5604 279.246 17.7547C278.969 17.9489 278.751 18.2256 278.592 18.5847C278.439 18.9438 278.363 19.3736 278.363 19.874C278.363 20.3744 278.439 20.8041 278.592 21.1632C278.751 21.5224 278.972 21.7961 279.255 21.9845C279.537 22.1729 279.864 22.2671 280.235 22.2671C280.741 22.2671 281.133 22.1346 281.409 21.8697C281.692 21.5989 281.869 21.228 281.939 20.757L282.937 20.81C282.861 21.2869 282.707 21.699 282.478 22.0463C282.248 22.3936 281.945 22.6644 281.568 22.8587C281.192 23.0471 280.747 23.1413 280.235 23.1413ZM283.962 23V16.7303H284.916V19.7239L287.556 16.7303H288.713L286.311 19.4678L288.872 23H287.751L285.675 20.1389L284.916 20.9866V23H283.962ZM289.671 23V16.7303H293.742V17.6045H290.121L290.625 17.0835V19.9623L290.121 19.5119H293.583V20.3597H290.121L290.625 19.9093V23H289.671ZM294.768 23V16.7303H297.267C297.714 16.7303 298.1 16.8069 298.423 16.9599C298.747 17.113 298.997 17.3308 299.174 17.6134C299.351 17.896 299.439 18.2315 299.439 18.6201C299.439 18.9026 299.374 19.1558 299.245 19.3795C299.121 19.6032 298.953 19.7827 298.741 19.9181C298.535 20.0477 298.315 20.1212 298.079 20.1389L298.035 20.0594C298.429 20.0594 298.735 20.1507 298.953 20.3332C299.171 20.5098 299.298 20.7894 299.333 21.1721L299.501 23H298.538L298.388 21.2957C298.37 21.0426 298.285 20.8571 298.132 20.7394C297.979 20.6158 297.729 20.5539 297.381 20.5539H295.721V23H294.768ZM295.721 19.6797H297.284C297.643 19.6797 297.926 19.5914 298.132 19.4148C298.344 19.2323 298.45 18.9762 298.45 18.6465C298.45 18.311 298.344 18.0549 298.132 17.8783C297.92 17.6958 297.611 17.6045 297.205 17.6045H295.721V19.6797ZM300.77 23V16.7303H301.723V23H300.77ZM303.089 23V16.7303H305.103C306.086 16.7303 306.842 17.0041 307.372 17.5516C307.902 18.0932 308.167 18.8673 308.167 19.874C308.167 20.8748 307.905 21.646 307.381 22.1876C306.863 22.7292 306.121 23 305.156 23H303.089ZM304.043 22.1258H305.103C305.797 22.1258 306.315 21.9403 306.657 21.5695C307.004 21.1927 307.178 20.6275 307.178 19.874C307.178 19.1087 307.004 18.5406 306.657 18.1697C306.315 17.7929 305.797 17.6045 305.103 17.6045H304.043V22.1258ZM308.431 23L310.692 16.7303H311.901L314.162 23H313.146L312.572 21.3664H310.012L309.446 23H308.431ZM310.312 20.501H312.281L311.292 17.6399L310.312 20.501ZM315.833 23V20.4833L313.634 16.7303H314.729L316.31 19.5296L317.899 16.7303H318.994L316.787 20.4833V23H315.833ZM319.451 23C319.451 22.529 319.522 22.1081 319.663 21.7372C319.805 21.3664 320.046 21.022 320.387 20.7041C320.729 20.3862 321.2 20.0683 321.8 19.7504C322.089 19.6032 322.318 19.4678 322.489 19.3442C322.666 19.2146 322.792 19.0822 322.869 18.9468C322.945 18.8114 322.984 18.6465 322.984 18.4523C322.984 18.2521 322.939 18.0814 322.851 17.9401C322.769 17.7929 322.645 17.6781 322.48 17.5957C322.315 17.5074 322.106 17.4633 321.853 17.4633C321.453 17.4633 321.135 17.5722 320.9 17.79C320.67 18.0019 320.526 18.308 320.467 18.7084L319.478 18.6465C319.548 18.0166 319.787 17.5162 320.193 17.1454C320.605 16.7745 321.159 16.589 321.853 16.589C322.301 16.589 322.68 16.6685 322.992 16.8275C323.31 16.9805 323.552 17.1954 323.716 17.4721C323.887 17.7488 323.973 18.0696 323.973 18.4346C323.973 18.7525 323.92 19.0263 323.814 19.2559C323.708 19.4854 323.531 19.7003 323.284 19.9005C323.037 20.0948 322.701 20.3037 322.277 20.5275C321.735 20.8159 321.326 21.1014 321.05 21.384C320.773 21.6607 320.626 21.908 320.608 22.1258H323.973V23H319.451ZM327.374 23.1413C326.855 23.1413 326.405 23.0088 326.022 22.7439C325.64 22.479 325.345 22.1022 325.139 21.6136C324.933 21.125 324.83 20.5451 324.83 19.874C324.83 19.2029 324.933 18.623 325.139 18.1344C325.351 17.6399 325.646 17.2602 326.022 16.9952C326.405 16.7244 326.855 16.589 327.374 16.589C327.897 16.589 328.348 16.7244 328.725 16.9952C329.107 17.2602 329.402 17.6369 329.608 18.1255C329.82 18.6142 329.926 19.197 329.926 19.874C329.926 20.5451 329.823 21.125 329.617 21.6136C329.41 22.1022 329.116 22.479 328.733 22.7439C328.351 23.0088 327.897 23.1413 327.374 23.1413ZM327.374 22.2671C327.874 22.2671 328.26 22.061 328.53 21.6489C328.801 21.2368 328.937 20.6452 328.937 19.874C328.937 19.3559 328.875 18.9173 328.751 18.5582C328.633 18.1991 328.457 17.9283 328.221 17.7458C327.992 17.5574 327.709 17.4633 327.374 17.4633C327.044 17.4633 326.761 17.5574 326.526 17.7458C326.296 17.9283 326.12 18.1991 325.996 18.5582C325.878 18.9173 325.819 19.3559 325.819 19.874C325.819 20.6452 325.955 21.2368 326.226 21.6489C326.496 22.061 326.879 22.2671 327.374 22.2671Z" fill="white"/>
<g filter="url(#filter1_dii_16163_47314)">
<rect width="984" height="18" transform="translate(102.148 -20) rotate(2)" fill="#D9971C"/>
<path d="M308.333 -0.791898L308.531 -6.46844L310.738 -6.39138C311.442 -6.36681 311.976 -6.22275 312.34 -5.95921C312.704 -5.701 312.877 -5.30539 312.859 -4.77238C312.851 -4.53786 312.795 -4.33432 312.693 -4.16178C312.592 -3.99457 312.446 -3.86358 312.255 -3.76883C312.071 -3.67388 311.847 -3.62031 311.585 -3.60811L311.586 -3.6241C312.059 -3.57556 312.417 -3.42432 312.659 -3.17038C312.906 -2.9216 313.023 -2.59732 313.009 -2.19757C312.991 -1.66989 312.79 -1.28198 312.408 -1.03383C312.031 -0.790831 311.499 -0.681336 310.812 -0.705347L308.333 -0.791898ZM309.583 -1.74086L310.79 -1.6987C311.083 -1.68846 311.32 -1.7389 311.5 -1.85002C311.686 -1.96628 311.782 -2.14434 311.791 -2.3842C311.799 -2.62405 311.715 -2.80844 311.538 -2.93736C311.367 -3.07142 311.134 -3.14357 310.841 -3.15381L309.634 -3.19597L309.583 -1.74086ZM309.665 -4.07543L310.624 -4.04193C310.922 -4.03151 311.162 -4.08185 311.342 -4.19297C311.527 -4.30391 311.623 -4.46864 311.631 -4.68717C311.639 -4.9217 311.557 -5.09533 311.385 -5.20808C311.218 -5.32596 310.981 -5.39031 310.671 -5.4011L309.712 -5.4346L309.665 -4.07543ZM314.115 -0.590004L314.313 -6.26654L315.528 -6.22411L315.341 -0.875367L314.694 -1.5944L317.98 -1.47965L317.944 -0.456269L314.115 -0.590004ZM318.387 -0.44082L320.632 -6.04589L322.071 -5.99563L323.919 -0.247616L322.656 -0.291729L322.283 -1.51351L320.1 -1.58973L319.642 -0.396986L318.387 -0.44082ZM320.479 -2.57712L321.982 -2.52463L321.307 -4.74154L320.479 -2.57712ZM326.893 -0.0157001C326.376 -0.0337548 325.919 -0.167117 325.522 -0.415787C325.13 -0.66427 324.828 -1.01371 324.614 -1.46411C324.406 -1.91433 324.312 -2.44858 324.334 -3.06687C324.355 -3.66917 324.482 -4.1877 324.716 -4.62247C324.95 -5.06256 325.274 -5.39813 325.688 -5.62917C326.102 -5.86021 326.58 -5.96623 327.124 -5.94725C327.865 -5.92137 328.434 -5.71738 328.832 -5.33528C329.235 -4.95831 329.483 -4.42932 329.577 -3.74831L328.312 -3.74445C328.26 -4.1038 328.131 -4.3858 327.925 -4.59046C327.719 -4.80045 327.44 -4.91159 327.088 -4.92387C326.784 -4.93448 326.523 -4.86356 326.304 -4.7111C326.086 -4.55864 325.915 -4.33779 325.793 -4.04854C325.671 -3.7593 325.603 -3.41746 325.589 -3.02304C325.575 -2.62328 325.619 -2.27487 325.721 -1.97781C325.828 -1.68589 325.985 -1.45892 326.193 -1.2969C326.401 -1.13488 326.651 -1.04876 326.945 -1.03852C327.328 -1.02512 327.628 -1.12139 327.843 -1.32733C328.064 -1.53842 328.208 -1.83492 328.275 -2.21682L329.544 -2.12446C329.453 -1.66335 329.293 -1.27404 329.063 -0.956536C328.833 -0.639032 328.537 -0.398569 328.173 -0.235147C327.815 -0.0715389 327.389 0.00161006 326.893 -0.0157001ZM330.475 -0.0186776L330.673 -5.69522L331.889 -5.65278L331.802 -3.17429L333.952 -5.58075L335.367 -5.53133L333.193 -3.10173L335.296 0.149678L333.913 0.101377L332.365 -2.31414L331.749 -1.64722L331.691 0.0237602L330.475 -0.0186776ZM338.127 0.248511L338.325 -5.42803L342.242 -5.29122L342.207 -4.26785L338.833 -4.38567L339.529 -5.05779L339.438 -2.45938L338.785 -3.01051L342.015 -2.89771L341.98 -1.89032L338.75 -2.00312L339.44 -2.50735L339.342 0.290949L338.127 0.248511ZM343.002 0.418777L343.201 -5.25776L345.687 -5.17093C346.103 -5.15642 346.46 -5.07456 346.759 -4.92537C347.063 -4.77599 347.294 -4.5705 347.45 -4.30888C347.607 -4.0526 347.679 -3.75123 347.667 -3.40477C347.657 -3.1436 347.593 -2.91369 347.474 -2.71506C347.361 -2.51624 347.206 -2.35622 347.009 -2.235C346.818 -2.11359 346.6 -2.04118 346.353 -2.01776L346.332 -2.09055C346.71 -2.07734 346.995 -1.98467 347.187 -1.81255C347.378 -1.64576 347.482 -1.394 347.497 -1.05728L347.584 0.578756L346.344 0.535481L346.291 -0.907272C346.282 -1.12636 346.219 -1.28869 346.099 -1.39424C345.986 -1.50494 345.785 -1.56531 345.497 -1.57536L344.29 -1.61752L344.218 0.461214L343.002 0.418777ZM344.326 -2.6329L345.461 -2.59325C345.754 -2.58302 345.983 -2.64173 346.148 -2.7694C346.318 -2.90221 346.407 -3.09388 346.416 -3.34439C346.425 -3.60023 346.349 -3.795 346.188 -3.92869C346.027 -4.06772 345.79 -4.14272 345.475 -4.1537L344.38 -4.19195L344.326 -2.6329ZM348.737 0.619034L348.935 -5.05751L350.15 -5.01507L349.952 0.661472L348.737 0.619034ZM351.185 0.704505L351.383 -4.97203L353.342 -4.90363C354.264 -4.87143 354.964 -4.59883 355.442 -4.08582C355.921 -3.57814 356.144 -2.86858 356.112 -1.95714C356.081 -1.05102 355.811 -0.361342 355.304 0.111902C354.802 0.585332 354.097 0.806226 353.191 0.774584L351.185 0.704505ZM352.436 -0.276433L353.179 -0.250468C353.728 -0.231296 354.138 -0.363728 354.41 -0.647762C354.687 -0.93694 354.836 -1.39067 354.857 -2.00896C354.879 -2.62725 354.762 -3.08763 354.505 -3.39009C354.255 -3.6977 353.855 -3.86108 353.306 -3.88026L352.562 -3.90622L352.436 -0.276433ZM356.323 0.883954L358.568 -4.72111L360.007 -4.67086L361.856 1.07716L360.593 1.03304L360.219 -0.188738L358.036 -0.264958L357.578 0.927788L356.323 0.883954ZM358.415 -1.25234L359.918 -1.19985L359.243 -3.41676L358.415 -1.25234ZM363.434 1.13228L363.511 -1.07437L361.658 -4.61322L363.001 -4.56632L364.16 -2.23643L365.472 -4.48004L366.815 -4.43314L364.727 -1.03194L364.65 1.17472L363.434 1.13228Z" fill="#151207"/>
<path d="M371.532 1.54314C371.042 1.52602 370.624 1.4287 370.278 1.25118C369.932 1.07366 369.665 0.832217 369.478 0.526845C369.292 0.221474 369.192 -0.134221 369.179 -0.540238L370.405 -0.553487C370.429 -0.328506 370.486 -0.13439 370.576 0.0288632C370.672 0.186972 370.802 0.308887 370.964 0.394609C371.132 0.480516 371.338 0.527751 371.583 0.536313C371.786 0.543386 371.957 0.525357 372.098 0.482225C372.243 0.43928 372.355 0.37114 372.433 0.277804C372.511 0.179138 372.553 0.0578491 372.558 -0.0860632C372.562 -0.219315 372.534 -0.335029 372.474 -0.433204C372.413 -0.536709 372.294 -0.631602 372.115 -0.717881C371.937 -0.809491 371.674 -0.901414 371.325 -0.99365C370.843 -1.12252 370.456 -1.26146 370.162 -1.41046C369.874 -1.55928 369.667 -1.73996 369.541 -1.95248C369.415 -2.17034 369.358 -2.43917 369.369 -2.75897C369.381 -3.1001 369.474 -3.3957 369.648 -3.64577C369.828 -3.89566 370.08 -4.08698 370.405 -4.21972C370.729 -4.35247 371.113 -4.41111 371.555 -4.39567C372.025 -4.37929 372.419 -4.2828 372.738 -4.10622C373.057 -3.92963 373.303 -3.69426 373.474 -3.40011C373.65 -3.10577 373.751 -2.77139 373.775 -2.39698L372.558 -2.37546C372.548 -2.57323 372.501 -2.74566 372.416 -2.89273C372.33 -3.04514 372.212 -3.16402 372.06 -3.24937C371.908 -3.33472 371.723 -3.38121 371.504 -3.38884C371.227 -3.39852 371.006 -3.34485 370.842 -3.22784C370.683 -3.11065 370.601 -2.95345 370.594 -2.75623C370.589 -2.61765 370.619 -2.49918 370.685 -2.40082C370.757 -2.3076 370.874 -2.22346 371.037 -2.1484C371.205 -2.07315 371.442 -1.99815 371.749 -1.92339C372.273 -1.79837 372.684 -1.64793 372.982 -1.47209C373.286 -1.30139 373.498 -1.10188 373.618 -0.873545C373.738 -0.645214 373.793 -0.387137 373.783 -0.0993122C373.771 0.252473 373.669 0.555789 373.479 0.810635C373.294 1.06034 373.034 1.24871 372.699 1.37575C372.369 1.50298 371.98 1.55878 371.532 1.54314ZM374.116 1.50531L376.361 -4.09976L377.801 -4.0495L379.649 1.69851L378.386 1.6544L378.012 0.432615L375.83 0.356395L375.372 1.54914L374.116 1.50531ZM376.208 -0.630991L377.711 -0.578502L377.036 -2.79541L376.208 -0.630991ZM380.424 1.72556L380.622 -3.95098L381.837 -3.90855L381.65 1.44019L381.003 0.721165L384.289 0.835914L384.253 1.85929L380.424 1.72556ZM385.034 1.88655L385.232 -3.78999L389.182 -3.65207L389.146 -2.62869L386.412 -2.72417L386.366 -1.42097L389.005 -1.32883L388.969 -0.321449L386.331 -0.413583L386.285 0.905613L389.083 1.00333L389.047 2.02671L385.034 1.88655Z" fill="white"/>
</g>
</g>
<defs>
<filter id="filter0_dii_16163_47314" x="-558.57" y="-0.503906" width="1599.78" height="95.4492" filterUnits="userSpaceOnUse" color-interpolation-filters="sRGB">
<feFlood flood-opacity="0" result="BackgroundImageFix"/>
<feColorMatrix in="SourceAlpha" type="matrix" values="0 0 0 0 0 0 0 0 0 0 0 0 0 0 0 0 0 0 127 0" result="hardAlpha"/>
<feOffset dy="2"/>
<feGaussianBlur stdDeviation="7"/>
<feComposite in2="hardAlpha" operator="out"/>
<feColorMatrix type="matrix" values="0 0 0 0 0.0823529 0 0 0 0 0.0705882 0 0 0 0 0.027451 0 0 0 0.12 0"/>
<feBlend mode="normal" in2="BackgroundImageFix" result="effect1_dropShadow_16163_47314"/>
<feBlend mode="normal" in="SourceGraphic" in2="effect1_dropShadow_16163_47314" result="shape"/>
<feColorMatrix in="SourceAlpha" type="matrix" values="0 0 0 0 0 0 0 0 0 0 0 0 0 0 0 0 0 0 127 0" result="hardAlpha"/>
<feOffset dy="2"/>
<feGaussianBlur stdDeviation="5"/>
<feComposite in2="hardAlpha" operator="arithmetic" k2="-1" k3="1"/>
<feColorMatrix type="matrix" values="0 0 0 0 0.0823529 0 0 0 0 0.0705882 0 0 0 0 0.027451 0 0 0 0.2 0"/>
<feBlend mode="normal" in2="shape" result="effect2_innerShadow_16163_47314"/>
<feColorMatrix in="SourceAlpha" type="matrix" values="0 0 0 0 0 0 0 0 0 0 0 0 0 0 0 0 0 0 127 0" result="hardAlpha"/>
<feOffset dy="2"/>
<feGaussianBlur stdDeviation="2"/>
<feComposite in2="hardAlpha" operator="arithmetic" k2="-1" k3="1"/>
<feColorMatrix type="matrix" values="0 0 0 0 0.0823529 0 0 0 0 0.0705882 0 0 0 0 0.027451 0 0 0 0.12 0"/>
<feBlend mode="normal" in2="effect2_innerShadow_16163_47314" result="effect3_innerShadow_16163_47314"/>
</filter>
<filter id="filter1_dii_16163_47314" x="87.5234" y="-32" width="1012.02" height="80.332" filterUnits="userSpaceOnUse" color-interpolation-filters="sRGB">
<feFlood flood-opacity="0" result="BackgroundImageFix"/>
<feColorMatrix in="SourceAlpha" type="matrix" values="0 0 0 0 0 0 0 0 0 0 0 0 0 0 0 0 0 0 127 0" result="hardAlpha"/>
<feOffset dy="2"/>
<feGaussianBlur stdDeviation="7"/>
<feComposite in2="hardAlpha" operator="out"/>
<feColorMatrix type="matrix" values="0 0 0 0 0.0823529 0 0 0 0 0.0705882 0 0 0 0 0.027451 0 0 0 0.12 0"/>
<feBlend mode="normal" in2="BackgroundImageFix" result="effect1_dropShadow_16163_47314"/>
<feBlend mode="normal" in="SourceGraphic" in2="effect1_dropShadow_16163_47314" result="shape"/>
<feColorMatrix in="SourceAlpha" type="matrix" values="0 0 0 0 0 0 0 0 0 0 0 0 0 0 0 0 0 0 127 0" result="hardAlpha"/>
<feOffset dy="2"/>
<feGaussianBlur stdDeviation="5"/>
<feComposite in2="hardAlpha" operator="arithmetic" k2="-1" k3="1"/>
<feColorMatrix type="matrix" values="0 0 0 0 0.0823529 0 0 0 0 0.0705882 0 0 0 0 0.027451 0 0 0 0.2 0"/>
<feBlend mode="normal" in2="shape" result="effect2_innerShadow_16163_47314"/>
<feColorMatrix in="SourceAlpha" type="matrix" values="0 0 0 0 0 0 0 0 0 0 0 0 0 0 0 0 0 0 127 0" result="hardAlpha"/>
<feOffset dy="2"/>
<feGaussianBlur stdDeviation="2"/>
<feComposite in2="hardAlpha" operator="arithmetic" k2="-1" k3="1"/>
<feColorMatrix type="matrix" values="0 0 0 0 0.0823529 0 0 0 0 0.0705882 0 0 0 0 0.027451 0 0 0 0.12 0"/>
<feBlend mode="normal" in2="effect2_innerShadow_16163_47314" result="effect3_innerShadow_16163_47314"/>
</filter>
<clipPath id="clip0_16163_47314">
<rect width="375" height="38" fill="white"/>
</clipPath>
</defs>
</svg>
