<svg width="22" height="22" viewBox="0 0 22 22" fill="none" xmlns="http://www.w3.org/2000/svg">
<path d="M20.092 11.285C20.0484 11.1964 20.0256 11.0989 20.0256 11.0001C20.0256 10.9013 20.0484 10.8038 20.092 10.7151L20.9126 9.03657C21.3694 8.10196 21.0074 6.98801 20.0885 6.50044L18.4381 5.62474C18.3507 5.57871 18.275 5.51319 18.2169 5.43326C18.1588 5.35332 18.1199 5.26111 18.1031 5.16373L17.7803 3.32344C17.6006 2.29881 16.6528 1.61028 15.623 1.75599L13.773 2.01767C13.6752 2.0318 13.5755 2.02327 13.4815 1.99273C13.3876 1.9622 13.3019 1.91047 13.2311 1.84154L11.8883 0.542515C11.1406 -0.180817 9.96925 -0.18086 9.2216 0.542515L7.87875 1.84167C7.80794 1.91058 7.72224 1.9623 7.62827 1.99284C7.53431 2.02337 7.43458 2.03191 7.33679 2.0178L5.48686 1.75612C4.45669 1.61033 3.50924 2.29894 3.3295 3.32357L3.00672 5.16378C2.98994 5.26115 2.95102 5.35337 2.89294 5.43331C2.83487 5.51325 2.7592 5.57878 2.67178 5.62483L1.02136 6.50053C0.102437 6.98805 -0.25953 8.10209 0.197312 9.0367L1.0178 10.7152C1.06147 10.8039 1.08418 10.9014 1.08418 11.0002C1.08418 11.099 1.06147 11.1965 1.0178 11.2851L0.197269 12.9636C-0.259572 13.8982 0.102394 15.0122 1.02132 15.4998L2.67174 16.3755C2.75917 16.4215 2.83484 16.487 2.89293 16.5669C2.95101 16.6469 2.98994 16.7391 3.00672 16.8365L3.3295 18.6768C3.49312 19.6095 4.29294 20.2637 5.21217 20.2636C5.3027 20.2636 5.39457 20.2572 5.48691 20.2442L7.33683 19.9825C7.43462 19.9683 7.53436 19.9769 7.62833 20.0074C7.72231 20.038 7.808 20.0897 7.87879 20.1586L9.2216 21.4576C9.59551 21.8194 10.0751 22.0002 10.5549 22.0001C11.0346 22.0001 11.5145 21.8193 11.8882 21.4576L13.2311 20.1586C13.376 20.0185 13.5734 19.9545 13.773 19.9825L15.623 20.2442C16.6533 20.3899 17.6006 19.7014 17.7803 18.6767L18.1031 16.8365C18.1199 16.7391 18.1588 16.6469 18.2169 16.567C18.275 16.487 18.3507 16.4215 18.4381 16.3755L20.0885 15.4998C21.0074 15.0122 21.3694 13.8982 20.9126 12.9636L20.092 11.285ZM8.01715 5.29019C9.29984 5.29019 10.3434 6.33377 10.3434 7.61646C10.3434 8.89916 9.29984 9.94273 8.01715 9.94273C6.73445 9.94273 5.69088 8.89916 5.69088 7.61646C5.69088 6.33377 6.73445 5.29019 8.01715 5.29019ZM6.81644 15.6357C6.69256 15.7596 6.53018 15.8216 6.36785 15.8216C6.20551 15.8216 6.04309 15.7596 5.91926 15.6357C5.6715 15.388 5.6715 14.9862 5.91926 14.7385L14.2933 6.3644C14.5411 6.11665 14.9428 6.11665 15.1906 6.3644C15.4383 6.61216 15.4383 7.01387 15.1906 7.26163L6.81644 15.6357ZM13.0926 16.71C11.8099 16.71 10.7663 15.6664 10.7663 14.3837C10.7663 13.101 11.8099 12.0575 13.0926 12.0575C14.3753 12.0575 15.4189 13.101 15.4189 14.3837C15.4189 15.6664 14.3753 16.71 13.0926 16.71Z" fill="#F58F00"/>
</svg>
