<svg width="177" height="70" viewBox="0 0 177 70" fill="none" xmlns="http://www.w3.org/2000/svg">
<g clip-path="url(#clip0_14609_36807)">
<g opacity="0.04">
<path d="M161.5 43.6512L127.976 55.186L114.459 47.436V22.7442L127.976 14.9942L161.5 26.5291C163.843 27.4302 166.546 25.9884 167.267 23.6453C168.168 21.3023 166.726 18.5988 164.383 17.8779L138.43 9.04651L162.761 -5.01163C164.924 -6.27326 165.645 -9.15698 164.383 -11.3198C163.122 -13.4826 160.238 -14.2035 158.075 -12.9419L133.744 1.11627L138.971 -25.7384C139.511 -28.2616 137.889 -30.6047 135.366 -31.1454C132.843 -31.686 130.5 -30.064 129.959 -27.5407L123.11 7.24418L109.593 14.9942L99.3194 9.04651L99.1392 8.86627L88.6857 2.73837V-12.7616L115.36 -36.0116C117.343 -37.6337 117.523 -40.5174 115.721 -42.5C114.098 -44.4826 111.215 -44.6628 109.232 -42.8605L88.6857 -24.8372V-53.314C88.6857 -55.8372 86.7031 -58 83.9996 -58C81.4764 -58 79.3136 -56.0174 79.3136 -53.314V-25.1977L58.7671 -43.0407C56.7845 -44.6628 53.9008 -44.4826 52.2787 -42.6802C50.6566 -40.6977 50.8368 -37.814 52.6392 -36.1919L79.3136 -12.9419V2.55813L68.8601 8.68604L58.4066 14.814L44.8892 7.06395L38.0403 -27.7209C37.4996 -30.2442 35.1566 -31.8663 32.6333 -31.3256C30.1101 -30.7849 28.488 -28.4419 29.0287 -25.9186L34.2554 0.936045L9.92404 -13.1221C7.76125 -14.3837 4.87753 -13.6628 3.6159 -11.5C2.35427 -9.33721 3.0752 -6.45349 5.23799 -5.19186L29.5694 8.86627L3.6159 17.6977C1.27288 18.5988 -0.168985 21.1221 0.732178 23.4651C1.63334 25.8081 4.1566 27.25 6.49962 26.3488L40.0229 14.814L53.5403 22.564V47.2558H53.7206L40.2031 55.0058L6.67985 43.4709C4.33683 42.5698 1.63334 44.0116 0.912411 46.3546C0.0112478 48.6977 1.45311 51.4012 3.79613 52.1221L29.7496 60.9535L5.41822 75.0116C3.25543 76.2733 2.5345 79.157 3.79613 81.3198C5.05776 83.4826 7.94148 84.2035 10.1043 82.9418L34.4357 68.8837L29.2089 95.7384C28.6682 98.2616 30.2903 100.605 32.8136 101.145C35.3368 101.686 37.6799 100.064 38.2206 97.5407L45.0694 62.7558L58.5868 55.0058L69.2206 61.1337L79.674 67.2616V82.7616L52.9996 106.012C51.0171 107.634 50.8368 110.517 52.6392 112.5C54.2613 114.483 57.145 114.663 59.1275 112.86L79.674 94.8372V123.314C79.674 125.837 81.6566 128 84.3601 128C86.8833 128 89.0461 126.017 89.0461 123.314V95.1977L109.593 113.221C111.575 114.843 114.459 114.663 116.081 112.86C117.703 110.878 117.523 107.994 115.721 106.372L88.6857 82.9418V67.4419L99.1392 61.3139L109.593 55.186L123.11 62.936L129.959 97.7209C130.5 100.244 132.843 101.866 135.366 101.326C137.889 100.785 139.511 98.4419 138.971 95.9186L133.744 69.0639L158.075 83.1221C160.238 84.3837 163.122 83.6628 164.383 81.5C165.645 79.3372 164.924 76.4535 162.761 75.1919L138.43 61.1337L164.383 52.3023C166.726 51.4012 168.168 48.8779 167.267 46.5349C166.366 44.1919 163.843 42.75 161.5 43.6512ZM104.726 35V47.2558L94.2729 53.3837L83.9996 59.3314L73.3659 53.2035L62.9124 47.0756V22.7442L73.3659 16.6163L83.8194 10.4884L94.2729 16.6163L94.4531 16.7965L104.726 22.7442V35Z" fill="black"/>
</g>
</g>
<defs>
<clipPath id="clip0_14609_36807">
<rect width="177" height="70" rx="8" fill="white"/>
</clipPath>
</defs>
</svg>
