<svg width="179" height="118" viewBox="0 0 179 118" fill="none" xmlns="http://www.w3.org/2000/svg">
<g opacity="0.04">
<path d="M164.084 66.8256L131.822 77.9263L118.813 70.468V46.7054L131.822 39.2471L164.084 50.3479C166.338 51.2151 168.94 49.8275 169.634 47.5727C170.501 45.3178 169.114 42.7161 166.859 42.0223L141.882 33.5233L165.298 19.9942C167.379 18.78 168.073 16.0048 166.859 13.9234C165.645 11.842 162.869 11.1483 160.788 12.3624L137.372 25.8915L142.402 0.0474777C142.923 -2.38082 141.362 -4.63566 138.933 -5.15601C136.505 -5.67636 134.25 -4.11531 133.73 -1.68702L127.139 31.7888L114.13 39.2471L104.243 33.5233L104.07 33.3498L94.0099 27.4525V12.5359L119.68 -9.83915C121.588 -11.4002 121.762 -14.1754 120.027 -16.0833C118.466 -17.9913 115.691 -18.1647 113.783 -16.4302L94.0099 0.914726V-26.4903C94.0099 -28.9186 92.102 -31 89.5002 -31C87.0719 -31 84.9905 -29.0921 84.9905 -26.4903V0.567829L65.2173 -16.6037C63.3093 -18.1647 60.5341 -17.9913 58.9731 -16.2568C57.412 -14.3488 57.5855 -11.5736 59.32 -10.0126L84.9905 12.3624V27.2791L74.9305 33.1764L64.8704 39.0736L51.8617 31.6153L45.2706 -1.86047C44.7502 -4.28876 42.4954 -5.84981 40.0671 -5.32946C37.6388 -4.80911 36.0777 -2.55427 36.5981 -0.125973L41.6281 25.718L18.2124 12.1889C16.131 10.9748 13.3558 11.6686 12.1417 13.75C10.9275 15.8314 11.6213 18.6066 13.7027 19.8207L37.1184 33.3498L12.1417 41.8488C9.88685 42.7161 8.49925 45.1444 9.3665 47.3992C10.2337 49.6541 12.662 51.0417 14.9169 50.1744L47.1785 39.0736L60.1872 46.532V70.2946H60.3607L47.352 77.7529L15.0903 66.6521C12.8355 65.7849 10.2337 67.1725 9.53995 69.4273C8.6727 71.6822 10.0603 74.2839 12.3151 74.9777L37.2919 83.4767L13.8762 97.0058C11.7948 98.22 11.101 100.995 12.3151 103.077C13.5293 105.158 16.3045 105.852 18.3859 104.638L41.8016 91.1085L36.7715 116.953C36.2512 119.381 37.8122 121.636 40.2405 122.156C42.6688 122.676 44.9237 121.115 45.444 118.687L52.0351 85.2112L65.0438 77.7529L75.2774 83.6502L85.3374 89.5475V104.464L59.6669 126.839C57.7589 128.4 57.5855 131.175 59.32 133.083C60.881 134.991 63.6562 135.165 65.5642 133.43L85.3374 116.085V143.49C85.3374 145.919 87.2454 148 89.8471 148C92.2754 148 94.3568 146.092 94.3568 143.49V116.432L114.13 133.777C116.038 135.338 118.813 135.165 120.374 133.43C121.935 131.522 121.762 128.747 120.027 127.186L94.0099 104.638V89.7209L104.07 83.8236L114.13 77.9263L127.139 85.3847L133.73 118.86C134.25 121.289 136.505 122.85 138.933 122.329C141.362 121.809 142.923 119.554 142.402 117.126L137.372 91.282L160.788 104.811C162.869 106.025 165.645 105.331 166.859 103.25C168.073 101.169 167.379 98.3934 165.298 97.1793L141.882 83.6502L166.859 75.1512C169.114 74.2839 170.501 71.8556 169.634 69.6008C168.767 67.3459 166.338 65.9583 164.084 66.8256ZM109.447 58.5V70.2946L99.3869 76.1918L89.5002 81.9157L79.2667 76.0184L69.2066 70.1211V46.7054L79.2667 40.8081L89.3268 34.9109L99.3869 40.8081L99.5603 40.9816L109.447 46.7054V58.5Z" fill="black"/>
</g>
</svg>
