<svg width="1512" height="44" viewBox="0 0 1512 44" fill="none" xmlns="http://www.w3.org/2000/svg">
<g clip-path="url(#clip0_16504_32870)">
<rect width="1512" height="44" fill="url(#paint0_linear_16504_32870)"/>
<path d="M29.2336 22.144C29.3684 22.1086 29.4864 22.1617 29.5876 22.2415L31.6018 21.6745L30.1269 20.5847L30.3039 20.3189L31.9895 21.5593L34.7538 20.7796L32.8576 19.3798L32.6974 19.4507L32.5963 19.1849V19.1761V19.1583L32.6132 19.1495L32.7648 18.9191L32.9081 19.0254L34.9898 18.1395L32.5373 16.6511L30.6832 17.4484L30.5652 17.1561L32.2002 16.4562L30.4641 15.4019C30.3461 15.455 30.2196 15.4727 30.1016 15.4019C29.9078 15.2867 29.8404 15.0209 29.95 14.8171C30.0595 14.6134 30.3124 14.5425 30.5062 14.6577C30.6242 14.7285 30.6747 14.8526 30.6832 14.9943L32.4867 16.0929L32.1749 14.2235L32.4699 14.1704L32.8238 16.3055L35.3016 17.8117L34.9055 15.4107L34.737 15.3398L34.8465 15.0652V15.0475L34.8802 15.0563L35.1415 15.012L35.1752 15.1892L37.24 16.1018L36.5068 13.2224L34.6611 12.4073L34.7791 12.1149L36.4057 12.8326L35.8916 10.8037C35.7736 10.7594 35.664 10.6708 35.6303 10.5379C35.5713 10.3076 35.6978 10.0772 35.9169 10.0152C36.136 9.9532 36.3551 10.0861 36.4141 10.3164C36.4478 10.4582 36.3972 10.5822 36.3214 10.6885L36.8608 12.806L37.8974 11.2556L38.1503 11.4416L36.9704 13.2135L37.712 16.1195L39.0436 14.1261L38.9846 13.9489L39.229 13.8514V13.8337H39.2543H39.2711L39.2796 13.8514L39.4903 14.002L39.3891 14.1615L40.1814 16.4473L41.6141 13.8426L40.9061 11.8049L41.1927 11.6985L41.8079 13.4793L42.853 11.5834C42.8024 11.4593 42.7855 11.3264 42.853 11.2024C42.9625 10.9986 43.2154 10.9278 43.4092 11.0429C43.6031 11.1581 43.6705 11.4239 43.5609 11.6277C43.4935 11.7517 43.3755 11.8049 43.2407 11.8137L42.2378 13.6388L43.9823 13.3907L44.0245 13.7097L42.0439 13.9932L40.628 16.5713L42.853 16.2524L42.9288 16.0929L43.1648 16.2081H43.1985V16.2258L43.2322 16.5182L43.0553 16.5448L42.0776 18.7508L44.842 17.9712L45.71 16.0043L45.9881 16.1372L45.2212 17.856L47.2355 17.289C47.2776 17.1649 47.3619 17.0586 47.4883 17.0143C47.7074 16.9523 47.9265 17.0852 47.9855 17.3155C48.0445 17.5459 47.9181 17.7762 47.699 17.8383C47.5641 17.8737 47.4462 17.8205 47.345 17.7408L45.415 18.2812L46.8225 19.4064L46.6371 19.6633L45.0442 18.3875L42.3052 19.1583L44.0919 20.5847L44.252 20.5227L44.3447 20.7885L44.3616 20.8062V20.8239H44.3531L44.1846 21.0632L44.0413 20.948L41.8669 21.7808L44.3447 23.2869L46.2831 22.5427L46.3842 22.8439L44.6902 23.4907L46.4938 24.5893C46.6118 24.5361 46.7382 24.5184 46.8562 24.5893C47.05 24.7045 47.1175 24.9702 47.0079 25.174C46.8983 25.3778 46.6455 25.4487 46.4517 25.3335C46.3337 25.2626 46.2831 25.1386 46.2747 24.9968L44.5385 23.9425L44.7745 25.7765L44.4711 25.8208L44.2014 23.7388L41.7405 22.2503L42.0439 24.5893L42.1956 24.669L42.086 24.9171V24.9437H42.0692L41.7995 24.9791L41.7742 24.793L39.6757 23.7653L40.4173 26.6713L42.2883 27.5927L42.1619 27.8851L40.5269 27.0788L41.0663 29.1963C41.1843 29.2406 41.2938 29.3292 41.3275 29.4621C41.3865 29.6924 41.2601 29.9228 41.041 29.9848C40.8219 30.0468 40.6027 29.9139 40.5438 29.6836C40.51 29.5418 40.5606 29.4178 40.6364 29.3115L40.1224 27.2826L39.0604 28.7622L38.8161 28.5672L40.0212 26.8928L39.288 24.0134L37.9311 25.8916L37.9901 26.0511L37.7289 26.1663L37.5013 25.9802L37.6024 25.8385L36.7512 23.6502L35.3269 26.2372L36.077 28.1863L35.7989 28.3103L35.1331 26.5915L34.1302 28.4166C34.1807 28.5407 34.1976 28.6736 34.1302 28.7976C34.0206 29.0014 33.7678 29.0722 33.5739 28.9571C33.3801 28.8419 33.3127 28.5761 33.4222 28.3723C33.4896 28.2483 33.6076 28.1951 33.7425 28.1863L34.7875 26.2903L33.0093 26.6181L32.9587 26.308L34.9898 25.9359L36.4225 23.3312L34.1386 23.7565L34.0712 23.9337L33.8183 23.8185H33.8015L33.8099 23.7742L33.7678 23.4995L33.9363 23.473L34.8044 21.3024L32.0653 22.0731L31.29 24.0134L31.0119 23.8894L31.6945 22.1795L29.7645 22.7199C29.7224 22.8439 29.6381 22.9591 29.5117 22.9945C29.2926 23.0566 29.0735 22.9237 29.0145 22.6933C28.9555 22.463 29.0819 22.2326 29.301 22.1706L29.2336 22.144ZM33.1862 19.2469L35.1331 20.6822L37.5856 19.9911C37.5856 19.9025 37.594 19.8228 37.6193 19.7431L35.3016 18.3344L33.1862 19.2381V19.2469ZM35.2258 15.5525L35.6387 18.0154L37.8384 19.3532C37.8974 19.2912 37.9564 19.2469 38.0238 19.2026L37.3327 16.4916L35.2258 15.5613V15.5525ZM39.1447 14.4716L37.7879 16.5005L38.4452 19.0786C38.5295 19.0786 38.6054 19.0786 38.6812 19.114L39.9538 16.8017L39.1447 14.4716ZM42.6676 16.5802L40.4089 16.908L39.0689 19.3444C39.1279 19.4064 39.17 19.4684 39.2121 19.5393L41.6646 18.8483L42.6676 16.589V16.5802ZM43.721 20.7176L41.9006 19.2647L39.3217 19.9911C39.3217 20.0797 39.3217 20.1595 39.2964 20.2392L41.4961 21.577L43.7295 20.7265L43.721 20.7176ZM41.6984 24.4209L41.3865 22.0377L39.0689 20.629C39.0099 20.6911 38.9509 20.7353 38.8835 20.7796L39.5408 23.3578L41.6984 24.4121V24.4209ZM37.7541 25.5461L39.1447 23.6236L38.4536 20.9125C38.3694 20.9125 38.2935 20.9125 38.2177 20.886L36.8776 23.3135L37.7457 25.555L37.7541 25.5461ZM34.2313 23.3844L36.5742 22.9502L37.8468 20.6468C37.7878 20.5847 37.7457 20.5227 37.7036 20.4518L35.1162 21.1783L34.2313 23.3932V23.3844Z" fill="white"/>
<path d="M177.187 43.3196C177.291 43.2848 177.395 43.3195 177.465 43.4064L179.097 42.9723L177.899 42.1389L178.038 41.9306L179.409 42.8855L181.649 42.2778L180.104 41.2014L179.965 41.2535L179.878 41.0451L179.896 41.0278L180.017 40.8541L180.139 40.941L181.823 40.2464L179.826 39.1005L178.316 39.7082L178.229 39.4825L179.548 38.9443L178.142 38.1283C178.055 38.1803 177.951 38.1803 177.847 38.1283C177.691 38.0415 177.638 37.8331 177.725 37.6769C177.812 37.5206 178.02 37.4685 178.177 37.5553C178.281 37.6074 178.316 37.7116 178.316 37.8158L179.774 38.6665L179.514 37.2255L179.757 37.1907L180.052 38.8401L182.066 40.0034L181.736 38.1456L181.597 38.0936L181.684 37.8852H181.701L181.91 37.8505V37.9894L183.611 38.7012L183.021 36.4789L181.528 35.8538L181.632 35.6281L182.951 36.1837L182.535 34.6211C182.43 34.5864 182.361 34.517 182.326 34.4128C182.274 34.2392 182.378 34.0482 182.552 34.0135C182.726 33.9614 182.917 34.0655 182.951 34.2392C182.986 34.3433 182.951 34.4475 182.864 34.517L183.299 36.149L184.132 34.951L184.34 35.0899L183.385 36.4615L183.993 38.7012L185.069 37.156L185.017 37.0171L185.208 36.9477L185.382 37.0692L185.295 37.1907L185.938 38.9617L187.101 36.9477L186.528 35.3677L186.754 35.2809L187.257 36.6525L188.108 35.1941C188.056 35.1073 188.056 35.0031 188.108 34.8989C188.195 34.7427 188.403 34.6906 188.559 34.7774C188.715 34.8642 188.768 35.0726 188.681 35.2288C188.629 35.333 188.524 35.3677 188.42 35.3677L187.604 36.774L189.028 36.5831L189.063 36.8261L187.448 37.0518L186.302 39.0485L188.108 38.8054L188.16 38.6839L188.351 38.7707H188.386L188.42 38.9964H188.281L187.483 40.7153L189.722 40.1076L190.434 38.5971L190.66 38.7012L190.035 40.0207L191.667 39.5867C191.702 39.4825 191.771 39.4131 191.875 39.3783C192.049 39.3263 192.223 39.4304 192.275 39.6041C192.327 39.7777 192.223 39.9687 192.049 40.0034C191.945 40.0381 191.841 40.0034 191.771 39.9166L190.209 40.3333L191.355 41.2014L191.198 41.3923L189.913 40.4027L187.691 40.9931L189.15 42.0868L189.288 42.0347L189.358 42.2431V42.2605L189.219 42.4341L189.097 42.3473L187.327 42.9897L189.341 44.1529L190.92 43.58L191.007 43.8057L189.636 44.3092L191.094 45.1599C191.181 45.1079 191.285 45.1079 191.389 45.1599C191.546 45.2468 191.598 45.4551 191.511 45.6113C191.424 45.7676 191.216 45.8197 191.059 45.7329C190.955 45.6808 190.92 45.5766 190.92 45.4725L189.514 44.6564L189.705 46.0801L189.462 46.1148L189.236 44.5002L187.24 43.3543L187.483 45.1599L187.604 45.212L187.518 45.403V45.4204L187.292 45.4551V45.3162L185.573 44.5176L186.181 46.7572L187.691 47.4691L187.587 47.6948L186.267 47.0698L186.701 48.7018C186.806 48.7365 186.875 48.806 186.91 48.9102C186.962 49.0838 186.858 49.2574 186.684 49.3095C186.51 49.3615 186.337 49.2574 186.285 49.0837C186.25 48.9796 186.285 48.8754 186.372 48.806L185.955 47.2434L185.087 48.3893L184.896 48.233L185.885 46.9482L185.295 44.7259L184.201 46.1843L184.253 46.3059L184.045 46.3926L183.854 46.2538L183.941 46.1496L183.246 44.4655L182.101 46.4621L182.708 47.9552L182.483 48.0421L181.944 46.7225L181.128 48.1288C181.18 48.2157 181.18 48.3199 181.128 48.424C181.041 48.5803 180.833 48.6323 180.677 48.5455C180.521 48.4587 180.468 48.2504 180.555 48.0941C180.607 47.99 180.712 47.9552 180.816 47.9552L181.666 46.4968L180.225 46.7572L180.191 46.5142L181.84 46.219L183.003 44.205L181.146 44.5349L181.094 44.6738L180.885 44.587V44.5523L180.85 44.3439H180.989L181.701 42.6424L179.479 43.2327L178.854 44.7259L178.628 44.6217L179.184 43.3022L177.621 43.7189C177.586 43.823 177.517 43.8925 177.413 43.9272C177.239 43.9793 177.048 43.8752 177.013 43.7015C176.961 43.5279 177.066 43.3543 177.239 43.3022L177.187 43.3196ZM180.382 41.0798L181.962 42.191L183.958 41.6528C183.958 41.6528 183.958 41.5313 183.976 41.4618L182.101 40.3854L180.382 41.0798ZM182.048 38.2324L182.378 40.1249L184.167 41.1493C184.167 41.1493 184.253 41.0625 184.323 41.0278L183.767 38.927L182.066 38.2151L182.048 38.2324ZM185.226 37.3991L184.132 38.9617L184.67 40.9583C184.67 40.9583 184.792 40.9583 184.861 40.9757L185.885 39.1874L185.226 37.3817V37.3991ZM188.073 39.0311L186.233 39.2742L185.139 41.1493C185.139 41.1493 185.226 41.2361 185.26 41.3056L187.257 40.7673L188.073 39.0137V39.0311ZM188.941 42.2084L187.465 41.0798L185.365 41.6354C185.365 41.6354 185.365 41.757 185.347 41.8264L187.136 42.8508L188.941 42.191V42.2084ZM187.292 45.0731L187.049 43.2327L185.174 42.1563C185.174 42.1563 185.069 42.2431 185.017 42.2778L185.556 44.2745L187.309 45.0905L187.292 45.0731ZM184.097 45.9412L185.226 44.4481L184.67 42.3473C184.67 42.3473 184.549 42.3473 184.479 42.3299L183.403 44.205L184.115 45.9412H184.097ZM181.232 44.2745L183.142 43.9446L184.167 42.1563C184.167 42.1563 184.08 42.0521 184.045 42L181.944 42.5556L181.232 44.2571V44.2745Z" fill="white"/>
<path d="M290.252 6.08567C290.252 6.08567 290.391 6.08567 290.443 6.13776L291.502 5.85996L290.721 5.32174L290.808 5.18281L291.693 5.80787L293.151 5.42591L292.144 4.73143L292.058 4.76614L292.006 4.62721L292.092 4.50572L292.162 4.5578L293.256 4.10637L291.953 3.35981L290.981 3.75911L290.912 3.60285L291.78 3.25564L290.86 2.73475C290.86 2.73475 290.738 2.76947 290.669 2.73475C290.565 2.68266 290.53 2.5438 290.582 2.43962C290.634 2.33545 290.773 2.30069 290.877 2.35278C290.946 2.3875 290.964 2.45696 290.964 2.52641L291.919 3.08201L291.763 2.14444L291.919 2.10974L292.11 3.18618L293.412 3.93274L293.204 2.73475L293.117 2.70004L293.169 2.56117H293.308V2.63058L294.402 3.08201L294.02 1.64093L293.047 1.22425L293.117 1.068L293.967 1.43259L293.69 0.408234C293.69 0.408234 293.568 0.338808 293.551 0.26936C293.516 0.147825 293.586 0.0436634 293.707 0.00893917C293.829 -0.025785 293.933 0.043657 293.967 0.165192C293.985 0.23464 293.967 0.304063 293.915 0.356149L294.193 1.41527L294.731 0.633949L294.87 0.720739L294.245 1.60622L294.627 3.06463L295.322 2.07498L295.287 1.98819L295.409 1.93611L295.513 2.00557L295.461 2.07498L295.877 3.22089L296.624 1.91873L296.259 0.89437L296.416 0.842286L296.745 1.72777L297.301 0.772823C297.301 0.772823 297.266 0.651314 297.301 0.581865C297.353 0.477693 297.492 0.44299 297.596 0.495076C297.7 0.547162 297.735 0.686029 297.666 0.790202C297.631 0.85965 297.561 0.877044 297.492 0.877044L296.971 1.79723L297.891 1.67569V1.83194L296.867 1.97081L296.12 3.27297L297.284 3.11672L297.318 3.02993L297.44 3.08201V3.22089H297.37L296.85 4.33209L298.308 3.95012L298.759 2.96046L298.898 3.02993L298.499 3.89803L299.558 3.62023C299.558 3.62023 299.628 3.49872 299.697 3.48136C299.819 3.44664 299.923 3.51608 299.957 3.63761C299.992 3.75915 299.923 3.86331 299.801 3.89803C299.732 3.9154 299.662 3.89804 299.61 3.84595L298.586 4.12375L299.332 4.6793L299.228 4.80084L298.395 4.15845L296.954 4.54042L297.891 5.25227L297.978 5.21757L298.03 5.35644L297.943 5.47799L297.874 5.42591L296.728 5.84258L298.03 6.60652L299.055 6.24193L299.107 6.39818L298.204 6.72806L299.159 7.28361C299.159 7.28361 299.28 7.24889 299.35 7.28361C299.454 7.3357 299.489 7.47462 299.437 7.57879C299.384 7.68296 299.246 7.71767 299.141 7.66558C299.072 7.63086 299.055 7.56145 299.055 7.492L298.134 6.97111L298.256 7.8913H298.1L297.961 6.86694L296.659 6.12038L296.815 7.30099L296.902 7.33575L296.85 7.45724H296.711V7.38783L295.6 6.86694L295.982 8.32535L296.971 8.77678L296.902 8.91565L296.034 8.51636L296.311 9.57542C296.311 9.57542 296.433 9.6449 296.45 9.71435C296.485 9.83588 296.416 9.94004 296.294 9.97477C296.172 10.0095 296.068 9.94005 296.034 9.81852C296.016 9.74907 296.034 9.67959 296.086 9.62751L295.808 8.60315L295.252 9.34971L295.131 9.24554L295.773 8.41219L295.391 6.97111L294.679 7.90867L294.714 7.99546L294.575 8.04755L294.454 7.96076L294.506 7.8913L294.054 6.79747L293.308 8.09963L293.707 9.07196L293.551 9.12404L293.204 8.25594L292.683 9.17613C292.683 9.17613 292.717 9.29764 292.683 9.36708C292.631 9.47126 292.492 9.50596 292.388 9.45387C292.283 9.40179 292.249 9.26292 292.318 9.15875C292.353 9.0893 292.422 9.07196 292.492 9.07196L293.047 8.11701L292.11 8.27326L292.075 8.11701L293.151 7.92605L293.915 6.6239L292.717 6.83223L292.683 6.91902L292.544 6.86694V6.84956V6.71068H292.613L293.065 5.61686L291.624 5.99883L291.224 6.97111L291.068 6.9017L291.433 6.05092L290.408 6.32872C290.408 6.32872 290.339 6.45028 290.269 6.46764C290.148 6.50237 290.044 6.43287 290.009 6.31134C289.974 6.1898 290.044 6.08564 290.165 6.05092L290.252 6.08567ZM292.335 4.64459L293.36 5.35644L294.645 5.00918C294.645 5.00918 294.645 4.92241 294.645 4.88769L293.429 4.17583L292.318 4.62721L292.335 4.64459ZM293.412 2.78683L293.62 4.01958L294.784 4.69667C294.784 4.69667 294.853 4.64457 294.888 4.62721L294.523 3.27297L293.412 2.80421V2.78683ZM295.478 2.24861L294.766 3.27297L295.113 4.5578C295.113 4.5578 295.2 4.5578 295.235 4.5578L295.912 3.39452L295.495 2.23129L295.478 2.24861ZM297.336 3.30773L296.138 3.46398L295.426 4.6793C295.426 4.6793 295.478 4.74879 295.495 4.78352L296.78 4.43625L297.301 3.30773H297.336ZM297.891 5.37382L296.936 4.64459L295.582 5.00918C295.582 5.00918 295.582 5.096 295.582 5.13073L296.745 5.80787L297.926 5.37382H297.891ZM296.815 7.23153L296.659 6.03359L295.443 5.32174C295.443 5.32174 295.374 5.37379 295.339 5.39115L295.686 6.67598L296.815 7.2142V7.23153ZM294.749 7.78713L295.478 6.81485L295.113 5.46061C295.113 5.46061 295.027 5.46061 294.992 5.46061L294.28 6.67598L294.731 7.80451L294.749 7.78713ZM292.891 6.71068L294.124 6.50235L294.801 5.33906C294.801 5.33906 294.749 5.26962 294.731 5.2349L293.377 5.59954L292.908 6.71068H292.891Z" fill="white"/>
<path d="M1396.77 18.856C1396.63 18.8914 1396.51 18.8383 1396.41 18.7585L1394.4 19.3255L1395.87 20.4153L1395.7 20.6811L1394.01 19.4407L1391.25 20.2204L1393.14 21.6202L1393.3 21.5493L1393.4 21.8151V21.8239V21.8417L1393.39 21.8505L1393.24 22.0809L1393.09 21.9746L1391.01 22.8605L1393.46 24.3489L1395.32 23.5516L1395.43 23.8439L1393.8 24.5438L1395.54 25.5981C1395.65 25.545 1395.78 25.5273 1395.9 25.5981C1396.09 25.7133 1396.16 25.9791 1396.05 26.1829C1395.94 26.3866 1395.69 26.4575 1395.49 26.3423C1395.38 26.2715 1395.33 26.1474 1395.32 26.0057L1393.51 24.9071L1393.83 26.7765L1393.53 26.8296L1393.18 24.6945L1390.7 23.1883L1391.09 25.5893L1391.26 25.6602L1391.15 25.9348V25.9525L1391.12 25.9437L1390.86 25.988L1390.82 25.8108L1388.76 24.8982L1389.49 27.7776L1391.34 28.5927L1391.22 28.8851L1389.59 28.1674L1390.11 30.1963C1390.23 30.2406 1390.34 30.3292 1390.37 30.4621C1390.43 30.6924 1390.3 30.9228 1390.08 30.9848C1389.86 31.0468 1389.64 30.9139 1389.59 30.6836C1389.55 30.5418 1389.6 30.4178 1389.68 30.3115L1389.14 28.194L1388.1 29.7444L1387.85 29.5584L1389.03 27.7865L1388.29 24.8805L1386.96 26.8739L1387.02 27.0511L1386.77 27.1486V27.1663H1386.75H1386.73L1386.72 27.1486L1386.51 26.998L1386.61 26.8385L1385.82 24.5527L1384.39 27.1574L1385.09 29.1951L1384.81 29.3015L1384.19 27.5207L1383.15 29.4166C1383.2 29.5407 1383.21 29.6736 1383.15 29.7976C1383.04 30.0014 1382.78 30.0722 1382.59 29.9571C1382.4 29.8419 1382.33 29.5761 1382.44 29.3723C1382.51 29.2483 1382.62 29.1951 1382.76 29.1863L1383.76 27.3612L1382.02 27.6093L1381.98 27.2903L1383.96 27.0068L1385.37 24.4287L1383.15 24.7476L1383.07 24.9071L1382.84 24.7919H1382.8V24.7742L1382.77 24.4818L1382.94 24.4552L1383.92 22.2492L1381.16 23.0288L1380.29 24.9957L1380.01 24.8628L1380.78 23.144L1378.76 23.711C1378.72 23.8351 1378.64 23.9414 1378.51 23.9857C1378.29 24.0477 1378.07 23.9148 1378.01 23.6845C1377.96 23.4541 1378.08 23.2238 1378.3 23.1617C1378.44 23.1263 1378.55 23.1795 1378.65 23.2592L1380.58 22.7188L1379.18 21.5936L1379.36 21.3367L1380.96 22.6125L1383.69 21.8417L1381.91 20.4153L1381.75 20.4773L1381.66 20.2115L1381.64 20.1938V20.1761H1381.65L1381.82 19.9368L1381.96 20.052L1384.13 19.2192L1381.66 17.7131L1379.72 18.4573L1379.62 18.1561L1381.31 17.5093L1379.51 16.4107C1379.39 16.4639 1379.26 16.4816 1379.14 16.4107C1378.95 16.2955 1378.88 16.0298 1378.99 15.826C1379.1 15.6222 1379.35 15.5513 1379.55 15.6665C1379.67 15.7374 1379.72 15.8614 1379.73 16.0032L1381.46 17.0575L1381.23 15.2235L1381.53 15.1792L1381.8 17.2612L1384.26 18.7497L1383.96 16.4107L1383.8 16.331L1383.91 16.0829V16.0563H1383.93L1384.2 16.0209L1384.23 16.207L1386.32 17.2347L1385.58 14.3287L1383.71 13.4073L1383.84 13.1149L1385.47 13.9212L1384.93 11.8037C1384.82 11.7594 1384.71 11.6708 1384.67 11.5379C1384.61 11.3076 1384.74 11.0772 1384.96 11.0152C1385.18 10.9532 1385.4 11.0861 1385.46 11.3164C1385.49 11.4582 1385.44 11.5822 1385.36 11.6885L1385.88 13.7174L1386.94 12.2378L1387.18 12.4328L1385.98 14.1072L1386.71 16.9866L1388.07 15.1084L1388.01 14.9489L1388.27 14.8337L1388.5 15.0198L1388.4 15.1615L1389.25 17.3498L1390.67 14.7628L1389.92 12.8137L1390.2 12.6897L1390.87 14.4085L1391.87 12.5834C1391.82 12.4593 1391.8 12.3264 1391.87 12.2024C1391.98 11.9986 1392.23 11.9278 1392.43 12.0429C1392.62 12.1581 1392.69 12.4239 1392.58 12.6277C1392.51 12.7517 1392.39 12.8049 1392.26 12.8137L1391.21 14.7097L1392.99 14.3819L1393.04 14.692L1391.01 15.0641L1389.58 17.6688L1391.86 17.2435L1391.93 17.0663L1392.18 17.1815H1392.2L1392.19 17.2258L1392.23 17.5005L1392.06 17.527L1391.2 19.6976L1393.93 18.9269L1394.71 16.9866L1394.99 17.1106L1394.31 18.8205L1396.24 18.2801C1396.28 18.1561 1396.36 18.0409 1396.49 18.0055C1396.71 17.9434 1396.93 18.0763 1396.99 18.3067C1397.04 18.537 1396.92 18.7674 1396.7 18.8294L1396.77 18.856ZM1392.81 21.7531L1390.87 20.3178L1388.41 21.0089C1388.41 21.0975 1388.41 21.1772 1388.38 21.2569L1390.7 22.6656L1392.81 21.7619V21.7531ZM1390.77 25.4475L1390.36 22.9846L1388.16 21.6468C1388.1 21.7088 1388.04 21.7531 1387.98 21.7974L1388.67 24.5084L1390.77 25.4387V25.4475ZM1386.86 26.5284L1388.21 24.4995L1387.55 21.9214C1387.47 21.9214 1387.39 21.9214 1387.32 21.886L1386.05 24.1983L1386.86 26.5284ZM1383.33 24.4198L1385.59 24.092L1386.93 21.6556C1386.87 21.5936 1386.83 21.5316 1386.79 21.4607L1384.34 22.1517L1383.33 24.411V24.4198ZM1382.28 20.2824L1384.1 21.7353L1386.68 21.0089C1386.68 20.9203 1386.68 20.8405 1386.7 20.7608L1384.5 19.423L1382.27 20.2735L1382.28 20.2824ZM1384.3 16.5791L1384.61 18.9623L1386.93 20.371C1386.99 20.3089 1387.05 20.2647 1387.12 20.2204L1386.46 17.6422L1384.3 16.5879V16.5791ZM1388.25 15.4539L1386.86 17.3764L1387.55 20.0875C1387.63 20.0875 1387.71 20.0875 1387.78 20.114L1389.12 17.6865L1388.25 15.445L1388.25 15.4539ZM1391.77 17.6156L1389.43 18.0498L1388.15 20.3532C1388.21 20.4153 1388.25 20.4773 1388.3 20.5482L1390.88 19.8217L1391.77 17.6068V17.6156Z" fill="white"/>
<path d="M1331.78 2.00465C1331.68 2.03938 1331.57 2.00467 1331.5 1.91786L1329.87 2.35192L1331.07 3.18532L1330.93 3.39365L1329.56 2.4387L1327.32 3.04639L1328.86 4.12283L1329 4.07075L1329.09 4.27908L1329.07 4.29646L1328.95 4.47009L1328.83 4.38325L1327.15 5.07778L1329.14 6.22368L1330.65 5.616L1330.74 5.84171L1329.42 6.37993L1330.83 7.19596C1330.91 7.14387 1331.02 7.14387 1331.12 7.19596C1331.28 7.28277 1331.33 7.49108 1331.24 7.64733C1331.16 7.80359 1330.95 7.85569 1330.79 7.76888C1330.69 7.7168 1330.65 7.61263 1330.65 7.50846L1329.19 6.65773L1329.46 8.09877L1329.21 8.13347L1328.92 6.4841L1326.9 5.32082L1327.23 7.17858L1327.37 7.23066L1327.28 7.439H1327.27L1327.06 7.47376V7.33483L1325.36 6.62298L1325.95 8.84532L1327.44 9.47039L1327.34 9.6961L1326.02 9.1405L1326.43 10.7031C1326.54 10.7378 1326.61 10.8072 1326.64 10.9114C1326.69 11.085 1326.59 11.276 1326.42 11.3108C1326.24 11.3629 1326.05 11.2587 1326.02 11.085C1325.98 10.9809 1326.02 10.8767 1326.1 10.8072L1325.67 9.17521L1324.84 10.3732L1324.63 10.2343L1325.58 8.8627L1324.98 6.62298L1323.9 8.16823L1323.95 8.3071L1323.76 8.37657L1323.59 8.25502L1323.67 8.13347L1323.03 6.36256L1321.87 8.37657L1322.44 9.95652L1322.22 10.0433L1321.71 8.67169L1320.86 10.1302C1320.91 10.217 1320.91 10.3211 1320.86 10.4253C1320.77 10.5815 1320.57 10.6336 1320.41 10.5468C1320.25 10.46 1320.2 10.2517 1320.29 10.0954C1320.34 9.99122 1320.44 9.95652 1320.55 9.95652L1321.36 8.5502L1319.94 8.74116L1319.91 8.49811L1321.52 8.2724L1322.67 6.27577L1320.86 6.51881L1320.81 6.64036L1320.62 6.55351H1320.58L1320.55 6.32785H1320.69L1321.49 4.60897L1319.25 5.21665L1318.53 6.72715L1318.31 6.62298L1318.93 5.30349L1317.3 5.73755C1317.27 5.84172 1317.2 5.91116 1317.09 5.94588C1316.92 5.99797 1316.75 5.89379 1316.69 5.72017C1316.64 5.54655 1316.75 5.35554 1316.92 5.32082C1317.02 5.28609 1317.13 5.32085 1317.2 5.40766L1318.76 4.99093L1317.61 4.12283L1317.77 3.93187L1319.06 4.92152L1321.28 4.33117L1319.82 3.2374L1319.68 3.28948L1319.61 3.08109V3.06377L1319.75 2.89014L1319.87 2.97692L1321.64 2.33454L1319.63 1.1713L1318.05 1.74423L1317.96 1.51851L1319.33 1.01505L1317.87 0.164273C1317.79 0.21636 1317.68 0.21636 1317.58 0.164273C1317.42 0.0774632 1317.37 -0.130846 1317.46 -0.287106C1317.54 -0.443364 1317.75 -0.495463 1317.91 -0.408652C1318.01 -0.356566 1318.05 -0.252404 1318.05 -0.148232L1319.45 0.667789L1319.26 -0.755916L1319.51 -0.790621L1319.73 0.824041L1321.73 1.96995L1321.49 0.164273L1321.36 0.112189L1321.45 -0.0787687V-0.0961475L1321.68 -0.130853V0.0080204L1323.4 0.806663L1322.79 -1.43301L1321.28 -2.14486L1321.38 -2.37058L1322.7 -1.74557L1322.27 -3.37756C1322.16 -3.41228 1322.09 -3.48177 1322.06 -3.58595C1322.01 -3.75957 1322.11 -3.93316 1322.28 -3.98524C1322.46 -4.03733 1322.63 -3.93315 1322.68 -3.75953C1322.72 -3.65535 1322.68 -3.55123 1322.6 -3.48178L1323.01 -1.91915L1323.88 -3.06505L1324.07 -2.9088L1323.08 -1.62402L1323.67 0.598326L1324.77 -0.860085L1324.72 -0.981631L1324.92 -1.06842L1325.11 -0.929547L1325.03 -0.825379L1325.72 0.858747L1326.87 -1.13788L1326.26 -2.631L1326.49 -2.71784L1327.02 -1.3983L1327.84 -2.80463C1327.79 -2.89144 1327.79 -2.99564 1327.84 -3.09981C1327.93 -3.25607 1328.14 -3.30812 1328.29 -3.2213C1328.45 -3.13449 1328.5 -2.92618 1328.41 -2.76993C1328.36 -2.66575 1328.26 -2.631 1328.15 -2.631L1327.3 -1.17259L1328.74 -1.43301L1328.78 -1.18997L1327.13 -0.89479L1325.97 1.11922L1327.82 0.789336L1327.88 0.65041L1328.08 0.737252V0.771957L1328.12 0.980294H1327.98L1327.27 2.6818L1329.49 2.09149L1330.11 0.598326L1330.34 0.702495L1329.79 2.02203L1331.35 1.60536C1331.38 1.50118 1331.45 1.43174 1331.56 1.39702C1331.73 1.34493 1331.92 1.44906 1331.96 1.62268C1332.01 1.7963 1331.9 1.96994 1331.73 2.02203L1331.78 2.00465ZM1328.59 4.24438L1327.01 3.13323L1325.01 3.67145C1325.01 3.67145 1325.01 3.79296 1324.99 3.86241L1326.87 4.93885L1328.59 4.24438ZM1326.92 7.09179L1326.59 5.19927L1324.8 4.17491C1324.8 4.17491 1324.72 4.26174 1324.65 4.29646L1325.2 6.39726L1326.9 7.10911L1326.92 7.09179ZM1323.74 7.92513L1324.84 6.36256L1324.3 4.36593C1324.3 4.36593 1324.18 4.36591 1324.11 4.34855L1323.08 6.13684L1323.74 7.94251V7.92513ZM1320.9 6.29309L1322.74 6.05005L1323.83 4.17491C1323.83 4.17491 1323.74 4.08811 1323.71 4.01866L1321.71 4.55688L1320.9 6.31047V6.29309ZM1320.03 3.11585L1321.5 4.24438L1323.6 3.68878C1323.6 3.68878 1323.6 3.56727 1323.62 3.49782L1321.83 2.47346L1320.03 3.13323V3.11585ZM1321.68 0.251116L1321.92 2.09149L1323.8 3.16794C1323.8 3.16794 1323.9 3.08111 1323.95 3.04639L1323.41 1.04976L1321.66 0.233737L1321.68 0.251116ZM1324.87 -0.616989L1323.74 0.876126L1324.3 2.97692C1324.3 2.97692 1324.42 2.97694 1324.49 2.9943L1325.57 1.11922L1324.85 -0.616989H1324.87ZM1327.74 1.04976L1325.83 1.37964L1324.8 3.16794C1324.8 3.16794 1324.89 3.2721 1324.92 3.32419L1327.02 2.76859L1327.74 1.06714V1.04976Z" fill="white"/>
<path d="M1218.72 39.2385C1218.72 39.2385 1218.58 39.2385 1218.53 39.1865L1217.47 39.4643L1218.25 40.0025L1218.16 40.1414L1217.28 39.5163L1215.82 39.8983L1216.82 40.5928L1216.91 40.5581L1216.96 40.697L1216.88 40.8185L1216.81 40.7664L1215.71 41.2178L1217.02 41.9644L1217.99 41.5651L1218.06 41.7214L1217.19 42.0686L1218.11 42.5895C1218.11 42.5895 1218.23 42.5547 1218.3 42.5895C1218.4 42.6416 1218.44 42.7804 1218.39 42.8846C1218.33 42.9888 1218.2 43.0235 1218.09 42.9714C1218.02 42.9367 1218 42.8673 1218 42.7978L1217.05 42.2422L1217.21 43.1798L1217.05 43.2145L1216.86 42.138L1215.56 41.3915L1215.77 42.5895L1215.85 42.6242L1215.8 42.763H1215.66V42.6936L1214.57 42.2422L1214.95 43.6833L1215.92 44.1L1215.85 44.2562L1215 43.8916L1215.28 44.916C1215.28 44.916 1215.4 44.9854 1215.42 45.0549C1215.45 45.1764 1215.38 45.2806 1215.26 45.3153C1215.14 45.35 1215.04 45.2806 1215 45.159C1214.98 45.0896 1215 45.0202 1215.05 44.9681L1214.78 43.909L1214.24 44.6903L1214.1 44.6035L1214.72 43.718L1214.34 42.2596L1213.65 43.2492L1213.68 43.336L1213.56 43.3881L1213.46 43.3186L1213.51 43.2492L1213.09 42.1033L1212.34 43.4055L1212.71 44.4298L1212.55 44.4819L1212.22 43.5964L1211.67 44.5514C1211.67 44.5514 1211.7 44.6729 1211.67 44.7424C1211.62 44.8465 1211.48 44.8812 1211.37 44.8291C1211.27 44.7771 1211.23 44.6382 1211.3 44.534C1211.34 44.4646 1211.41 44.4472 1211.48 44.4472L1212 43.527L1211.08 43.6485V43.4923L1212.1 43.3534L1212.85 42.0512L1211.69 42.2075L1211.65 42.2943L1211.53 42.2422V42.1033H1211.6L1212.12 40.9921L1210.66 41.3741L1210.21 42.3638L1210.07 42.2943L1210.47 41.4262L1209.41 41.704C1209.41 41.704 1209.34 41.8255 1209.27 41.8429C1209.15 41.8776 1209.05 41.8081 1209.01 41.6866C1208.98 41.5651 1209.05 41.4609 1209.17 41.4262C1209.24 41.4088 1209.31 41.4262 1209.36 41.4783L1210.38 41.2005L1209.64 40.6449L1209.74 40.5234L1210.57 41.1658L1212.01 40.7838L1211.08 40.0719L1210.99 40.1066L1210.94 39.9678L1211.03 39.8462L1211.09 39.8983L1212.24 39.4816L1210.94 38.7177L1209.91 39.0823L1209.86 38.926L1210.76 38.5962L1209.81 38.0406C1209.81 38.0406 1209.69 38.0753 1209.62 38.0406C1209.51 37.9885 1209.48 37.8496 1209.53 37.7454C1209.58 37.6413 1209.72 37.6066 1209.83 37.6586C1209.9 37.6934 1209.91 37.7628 1209.91 37.8322L1210.83 38.3531L1210.71 37.4329H1210.87L1211.01 38.4573L1212.31 39.2038L1212.15 38.0232L1212.07 37.9885L1212.12 37.867H1212.26V37.9364L1213.37 38.4573L1212.99 36.9989L1212 36.5474L1212.07 36.4086L1212.94 36.8079L1212.66 35.7488C1212.66 35.7488 1212.54 35.6793 1212.52 35.6099C1212.48 35.4883 1212.55 35.3842 1212.67 35.3495C1212.8 35.3147 1212.9 35.3842 1212.94 35.5057C1212.95 35.5752 1212.94 35.6446 1212.88 35.6967L1213.16 36.7211L1213.72 35.9745L1213.84 36.0787L1213.2 36.912L1213.58 38.3531L1214.29 37.4155L1214.25 37.3288L1214.39 37.2767L1214.52 37.3635L1214.46 37.4329L1214.91 38.5267L1215.66 37.2246L1215.26 36.2523L1215.42 36.2002L1215.77 37.0683L1216.29 36.1481C1216.29 36.1481 1216.25 36.0266 1216.29 35.9571C1216.34 35.853 1216.48 35.8183 1216.58 35.8703C1216.69 35.9224 1216.72 36.0613 1216.65 36.1655C1216.62 36.2349 1216.55 36.2523 1216.48 36.2523L1215.92 37.2072L1216.86 37.051L1216.89 37.2072L1215.82 37.3982L1215.05 38.7003L1216.25 38.492L1216.29 38.4052L1216.42 38.4573V38.4747V38.6135H1216.36L1215.9 39.7074L1217.35 39.3254L1217.74 38.3531L1217.9 38.4225L1217.54 39.2733L1218.56 38.9955C1218.56 38.9955 1218.63 38.8739 1218.7 38.8566C1218.82 38.8219 1218.93 38.8913 1218.96 39.0129C1218.99 39.1344 1218.93 39.2386 1218.8 39.2733L1218.72 39.2385ZM1216.63 40.6796L1215.61 39.9678L1214.32 40.315C1214.32 40.315 1214.32 40.4018 1214.32 40.4365L1215.54 41.1484L1216.65 40.697L1216.63 40.6796ZM1215.56 42.5374L1215.35 41.3046L1214.19 40.6275C1214.19 40.6275 1214.12 40.6796 1214.08 40.697L1214.45 42.0512L1215.56 42.52V42.5374ZM1213.49 43.0756L1214.2 42.0512L1213.86 40.7664C1213.86 40.7664 1213.77 40.7664 1213.73 40.7664L1213.06 41.9297L1213.47 43.0929L1213.49 43.0756ZM1211.63 42.0165L1212.83 41.8602L1213.54 40.6449C1213.54 40.6449 1213.49 40.5754 1213.47 40.5407L1212.19 40.888L1211.67 42.0165H1211.63ZM1211.08 39.9504L1212.03 40.6796L1213.39 40.315C1213.39 40.315 1213.39 40.2282 1213.39 40.1935L1212.22 39.5163L1211.04 39.9504H1211.08ZM1212.15 38.0927L1212.31 39.2906L1213.53 40.0025C1213.53 40.0025 1213.59 39.9504 1213.63 39.9331L1213.28 38.6482L1212.15 38.11V38.0927ZM1214.22 37.5371L1213.49 38.5094L1213.86 39.8636C1213.86 39.8636 1213.94 39.8636 1213.98 39.8636L1214.69 38.6482L1214.24 37.5197L1214.22 37.5371ZM1216.08 38.6135L1214.84 38.8219L1214.17 39.9852C1214.17 39.9852 1214.22 40.0546 1214.24 40.0893L1215.59 39.7247L1216.06 38.6135H1216.08Z" fill="white"/>
<path d="M523.782 2.00465C523.677 2.03938 523.573 2.00467 523.504 1.91786L521.872 2.35192L523.07 3.18532L522.931 3.39365L521.559 2.4387L519.32 3.04639L520.865 4.12283L521.004 4.07075L521.091 4.27908L521.073 4.29646L520.952 4.47009L520.83 4.38325L519.146 5.07778L521.143 6.22368L522.653 5.616L522.74 5.84171L521.42 6.37993L522.827 7.19596C522.914 7.14387 523.018 7.14387 523.122 7.19596C523.278 7.28277 523.33 7.49108 523.243 7.64733C523.157 7.80359 522.948 7.85569 522.792 7.76888C522.688 7.7168 522.653 7.61263 522.653 7.50846L521.195 6.65773L521.455 8.09877L521.212 8.13347L520.917 6.4841L518.903 5.32082L519.233 7.17858L519.372 7.23066L519.285 7.439H519.268L519.059 7.47376V7.33483L517.358 6.62298L517.948 8.84532L519.441 9.47039L519.337 9.6961L518.017 9.1405L518.434 10.7031C518.538 10.7378 518.608 10.8072 518.642 10.9114C518.695 11.085 518.59 11.276 518.417 11.3108C518.243 11.3629 518.052 11.2587 518.017 11.085C517.983 10.9809 518.017 10.8767 518.104 10.8072L517.67 9.17521L516.837 10.3732L516.628 10.2343L517.583 8.8627L516.976 6.62298L515.899 8.16823L515.951 8.3071L515.76 8.37657L515.587 8.25502L515.674 8.13347L515.031 6.36256L513.868 8.37657L514.441 9.95652L514.215 10.0433L513.712 8.67169L512.861 10.1302C512.913 10.217 512.913 10.3211 512.861 10.4253C512.774 10.5815 512.566 10.6336 512.41 10.5468C512.253 10.46 512.201 10.2517 512.288 10.0954C512.34 9.99122 512.444 9.95652 512.548 9.95652L513.364 8.5502L511.941 8.74116L511.906 8.49811L513.521 8.2724L514.667 6.27577L512.861 6.51881L512.809 6.64036L512.618 6.55351H512.583L512.548 6.32785H512.687L513.486 4.60897L511.246 5.21665L510.534 6.72715L510.309 6.62298L510.934 5.30349L509.302 5.73755C509.267 5.84172 509.198 5.91116 509.093 5.94588C508.92 5.99797 508.746 5.89379 508.694 5.72017C508.642 5.54655 508.746 5.35554 508.92 5.32082C509.024 5.28609 509.128 5.32085 509.198 5.40766L510.76 4.99093L509.614 4.12283L509.77 3.93187L511.055 4.92152L513.278 4.33117L511.819 3.2374L511.68 3.28948L511.611 3.08109V3.06377L511.75 2.89014L511.871 2.97692L513.642 2.33454L511.628 1.1713L510.048 1.74423L509.961 1.51851L511.333 1.01505L509.875 0.164273C509.788 0.21636 509.684 0.21636 509.579 0.164273C509.423 0.0774632 509.371 -0.130846 509.458 -0.287106C509.545 -0.443364 509.753 -0.495463 509.909 -0.408652C510.014 -0.356566 510.048 -0.252404 510.048 -0.148232L511.455 0.667789L511.264 -0.755916L511.507 -0.790621L511.732 0.824041L513.729 1.96995L513.486 0.164273L513.364 0.112189L513.451 -0.0787687V-0.0961475L513.677 -0.130853V0.0080204L515.396 0.806663L514.788 -1.43301L513.278 -2.14486L513.382 -2.37058L514.701 -1.74557L514.267 -3.37756C514.163 -3.41228 514.094 -3.48177 514.059 -3.58595C514.007 -3.75957 514.111 -3.93316 514.285 -3.98524C514.458 -4.03733 514.632 -3.93315 514.684 -3.75953C514.719 -3.65535 514.684 -3.55123 514.597 -3.48178L515.014 -1.91915L515.882 -3.06505L516.073 -2.9088L515.083 -1.62402L515.674 0.598326L516.767 -0.860085L516.715 -0.981631L516.924 -1.06842L517.115 -0.929547L517.028 -0.825379L517.722 0.858747L518.868 -1.13788L518.261 -2.631L518.486 -2.71784L519.024 -1.3983L519.84 -2.80463C519.788 -2.89144 519.788 -2.99564 519.84 -3.09981C519.927 -3.25607 520.136 -3.30812 520.292 -3.2213C520.448 -3.13449 520.5 -2.92618 520.413 -2.76993C520.361 -2.66575 520.257 -2.631 520.153 -2.631L519.302 -1.17259L520.743 -1.43301L520.778 -1.18997L519.129 -0.89479L517.965 1.11922L519.823 0.789336L519.875 0.65041L520.084 0.737252V0.771957L520.118 0.980294H519.979L519.268 2.6818L521.49 2.09149L522.115 0.598326L522.341 0.702495L521.785 2.02203L523.348 1.60536C523.382 1.50118 523.452 1.43174 523.556 1.39702C523.73 1.34493 523.921 1.44906 523.955 1.62268C524.007 1.7963 523.903 1.96994 523.73 2.02203L523.782 2.00465ZM520.587 4.24438L519.007 3.13323L517.01 3.67145C517.01 3.67145 517.01 3.79296 516.993 3.86241L518.868 4.93885L520.587 4.24438ZM518.92 7.09179L518.59 5.19927L516.802 4.17491C516.802 4.17491 516.715 4.26174 516.646 4.29646L517.201 6.39726L518.903 7.10911L518.92 7.09179ZM515.743 7.92513L516.837 6.36256L516.299 4.36593C516.299 4.36593 516.177 4.36591 516.108 4.34855L515.083 6.13684L515.743 7.94251V7.92513ZM512.896 6.29309L514.736 6.05005L515.83 4.17491C515.83 4.17491 515.743 4.08811 515.708 4.01866L513.712 4.55688L512.896 6.31047V6.29309ZM512.028 3.11585L513.503 4.24438L515.604 3.68878C515.604 3.68878 515.604 3.56727 515.622 3.49782L513.833 2.47346L512.028 3.13323V3.11585ZM513.677 0.251116L513.92 2.09149L515.795 3.16794C515.795 3.16794 515.899 3.08111 515.951 3.04639L515.413 1.04976L513.66 0.233737L513.677 0.251116ZM516.872 -0.616989L515.743 0.876126L516.299 2.97692C516.299 2.97692 516.42 2.97694 516.49 2.9943L517.566 1.11922L516.854 -0.616989H516.872ZM519.736 1.04976L517.826 1.37964L516.802 3.16794C516.802 3.16794 516.889 3.2721 516.924 3.32419L519.024 2.76859L519.736 1.06714V1.04976Z" fill="white"/>
<path d="M410.717 39.2385C410.717 39.2385 410.578 39.2385 410.526 39.1865L409.467 39.4643L410.248 40.0025L410.161 40.1414L409.276 39.5163L407.817 39.8983L408.824 40.5928L408.911 40.5581L408.963 40.697L408.876 40.8185L408.807 40.7664L407.713 41.2178L409.015 41.9644L409.988 41.5651L410.057 41.7214L409.189 42.0686L410.109 42.5895C410.109 42.5895 410.231 42.5547 410.3 42.5895C410.404 42.6416 410.439 42.7804 410.387 42.8846C410.335 42.9888 410.196 43.0235 410.092 42.9714C410.022 42.9367 410.005 42.8673 410.005 42.7978L409.05 42.2422L409.206 43.1798L409.05 43.2145L408.859 42.138L407.557 41.3915L407.765 42.5895L407.852 42.6242L407.8 42.763H407.661V42.6936L406.567 42.2422L406.949 43.6833L407.921 44.1L407.852 44.2562L407.001 43.8916L407.279 44.916C407.279 44.916 407.401 44.9854 407.418 45.0549C407.453 45.1764 407.383 45.2806 407.262 45.3153C407.14 45.35 407.036 45.2806 407.001 45.159C406.984 45.0896 407.001 45.0202 407.053 44.9681L406.776 43.909L406.237 44.6903L406.098 44.6035L406.723 43.718L406.341 42.2596L405.647 43.2492L405.682 43.336L405.56 43.3881L405.456 43.3186L405.508 43.2492L405.091 42.1033L404.345 43.4055L404.709 44.4298L404.553 44.4819L404.223 43.5964L403.668 44.5514C403.668 44.5514 403.702 44.6729 403.668 44.7424C403.616 44.8465 403.477 44.8812 403.373 44.8291C403.268 44.7771 403.234 44.6382 403.303 44.534C403.338 44.4646 403.407 44.4472 403.477 44.4472L403.998 43.527L403.077 43.6485V43.4923L404.102 43.3534L404.848 42.0512L403.685 42.2075L403.65 42.2943L403.529 42.2422V42.1033H403.598L404.119 40.9921L402.661 41.3741L402.209 42.3638L402.07 42.2943L402.47 41.4262L401.411 41.704C401.411 41.704 401.341 41.8255 401.272 41.8429C401.15 41.8776 401.046 41.8081 401.011 41.6866C400.977 41.5651 401.046 41.4609 401.168 41.4262C401.237 41.4088 401.306 41.4262 401.359 41.4783L402.383 41.2005L401.636 40.6449L401.741 40.5234L402.574 41.1658L404.015 40.7838L403.077 40.0719L402.991 40.1066L402.939 39.9678L403.025 39.8462L403.095 39.8983L404.241 39.4816L402.939 38.7177L401.914 39.0823L401.862 38.926L402.765 38.5962L401.81 38.0406C401.81 38.0406 401.688 38.0753 401.619 38.0406C401.515 37.9885 401.48 37.8496 401.532 37.7454C401.584 37.6413 401.723 37.6066 401.827 37.6586C401.897 37.6934 401.914 37.7628 401.914 37.8322L402.834 38.3531L402.713 37.4329H402.869L403.008 38.4573L404.31 39.2038L404.154 38.0232L404.067 37.9885L404.119 37.867H404.258V37.9364L405.369 38.4573L404.987 36.9989L403.998 36.5474L404.067 36.4086L404.935 36.8079L404.657 35.7488C404.657 35.7488 404.536 35.6793 404.518 35.6099C404.484 35.4883 404.553 35.3842 404.675 35.3495C404.796 35.3147 404.9 35.3842 404.935 35.5057C404.953 35.5752 404.935 35.6446 404.883 35.6967L405.161 36.7211L405.716 35.9745L405.838 36.0787L405.196 36.912L405.578 38.3531L406.289 37.4155L406.255 37.3288L406.394 37.2767L406.515 37.3635L406.463 37.4329L406.914 38.5267L407.661 37.2246L407.262 36.2523L407.418 36.2002L407.765 37.0683L408.286 36.1481C408.286 36.1481 408.251 36.0266 408.286 35.9571C408.338 35.853 408.477 35.8183 408.581 35.8703C408.685 35.9224 408.72 36.0613 408.651 36.1655C408.616 36.2349 408.546 36.2523 408.477 36.2523L407.921 37.2072L408.859 37.051L408.894 37.2072L407.817 37.3982L407.053 38.7003L408.251 38.492L408.286 38.4052L408.425 38.4573V38.4747V38.6135H408.355L407.904 39.7074L409.345 39.3254L409.744 38.3531L409.901 38.4225L409.536 39.2733L410.56 38.9955C410.56 38.9955 410.63 38.8739 410.699 38.8566C410.821 38.8219 410.925 38.8913 410.96 39.0129C410.995 39.1344 410.925 39.2386 410.804 39.2733L410.717 39.2385ZM408.633 40.6796L407.609 39.9678L406.324 40.315C406.324 40.315 406.324 40.4018 406.324 40.4365L407.539 41.1484L408.651 40.697L408.633 40.6796ZM407.557 42.5374L407.348 41.3046L406.185 40.6275C406.185 40.6275 406.116 40.6796 406.081 40.697L406.446 42.0512L407.557 42.52V42.5374ZM405.491 43.0756L406.203 42.0512L405.855 40.7664C405.855 40.7664 405.769 40.7664 405.734 40.7664L405.057 41.9297L405.473 43.0929L405.491 43.0756ZM403.633 42.0165L404.831 41.8602L405.543 40.6449C405.543 40.6449 405.491 40.5754 405.473 40.5407L404.189 40.888L403.668 42.0165H403.633ZM403.077 39.9504L404.032 40.6796L405.387 40.315C405.387 40.315 405.387 40.2282 405.387 40.1935L404.223 39.5163L403.043 39.9504H403.077ZM404.154 38.0927L404.31 39.2906L405.525 40.0025C405.525 40.0025 405.595 39.9504 405.63 39.9331L405.282 38.6482L404.154 38.11V38.0927ZM406.22 37.5371L405.491 38.5094L405.855 39.8636C405.855 39.8636 405.942 39.8636 405.977 39.8636L406.689 38.6482L406.237 37.5197L406.22 37.5371ZM408.078 38.6135L406.845 38.8219L406.168 39.9852C406.168 39.9852 406.22 40.0546 406.237 40.0893L407.592 39.7247L408.06 38.6135H408.078Z" fill="white"/>
<path d="M985.187 43.3196C985.291 43.2848 985.395 43.3195 985.465 43.4064L987.097 42.9723L985.899 42.1389L986.038 41.9306L987.409 42.8855L989.649 42.2778L988.104 41.2014L987.965 41.2535L987.878 41.0451L987.896 41.0278L988.017 40.8541L988.139 40.941L989.823 40.2464L987.826 39.1005L986.316 39.7082L986.229 39.4825L987.548 38.9443L986.142 38.1283C986.055 38.1803 985.951 38.1803 985.847 38.1283C985.691 38.0415 985.638 37.8331 985.725 37.6769C985.812 37.5206 986.02 37.4685 986.177 37.5553C986.281 37.6074 986.316 37.7116 986.316 37.8158L987.774 38.6665L987.514 37.2255L987.757 37.1907L988.052 38.8401L990.066 40.0034L989.736 38.1456L989.597 38.0936L989.684 37.8852H989.701L989.91 37.8505V37.9894L991.611 38.7012L991.021 36.4789L989.528 35.8538L989.632 35.6281L990.951 36.1837L990.535 34.6211C990.43 34.5864 990.361 34.517 990.326 34.4128C990.274 34.2392 990.378 34.0482 990.552 34.0135C990.726 33.9614 990.917 34.0655 990.951 34.2392C990.986 34.3433 990.951 34.4475 990.864 34.517L991.299 36.149L992.132 34.951L992.34 35.0899L991.385 36.4615L991.993 38.7012L993.069 37.156L993.017 37.0171L993.208 36.9477L993.382 37.0692L993.295 37.1907L993.938 38.9617L995.101 36.9477L994.528 35.3677L994.754 35.2809L995.257 36.6525L996.108 35.1941C996.056 35.1073 996.056 35.0031 996.108 34.8989C996.195 34.7427 996.403 34.6906 996.559 34.7774C996.715 34.8642 996.768 35.0726 996.681 35.2288C996.629 35.333 996.524 35.3677 996.42 35.3677L995.604 36.774L997.028 36.5831L997.063 36.8261L995.448 37.0518L994.302 39.0485L996.108 38.8054L996.16 38.6839L996.351 38.7707H996.386L996.42 38.9964H996.281L995.483 40.7153L997.722 40.1076L998.434 38.5971L998.66 38.7012L998.035 40.0207L999.667 39.5867C999.702 39.4825 999.771 39.4131 999.875 39.3783C1000.05 39.3263 1000.22 39.4304 1000.27 39.6041C1000.33 39.7777 1000.22 39.9687 1000.05 40.0034C999.945 40.0381 999.841 40.0034 999.771 39.9166L998.209 40.3333L999.355 41.2014L999.198 41.3923L997.913 40.4027L995.691 40.9931L997.15 42.0868L997.288 42.0347L997.358 42.2431V42.2605L997.219 42.4341L997.097 42.3473L995.327 42.9897L997.341 44.1529L998.92 43.58L999.007 43.8057L997.636 44.3092L999.094 45.1599C999.181 45.1079 999.285 45.1079 999.389 45.1599C999.546 45.2468 999.598 45.4551 999.511 45.6113C999.424 45.7676 999.216 45.8197 999.059 45.7329C998.955 45.6808 998.92 45.5766 998.92 45.4725L997.514 44.6564L997.705 46.0801L997.462 46.1148L997.236 44.5002L995.24 43.3543L995.483 45.1599L995.604 45.212L995.518 45.403V45.4204L995.292 45.4551V45.3162L993.573 44.5176L994.181 46.7572L995.691 47.4691L995.587 47.6948L994.267 47.0698L994.701 48.7018C994.806 48.7365 994.875 48.806 994.91 48.9102C994.962 49.0838 994.858 49.2574 994.684 49.3095C994.51 49.3615 994.337 49.2574 994.285 49.0837C994.25 48.9796 994.285 48.8754 994.372 48.806L993.955 47.2434L993.087 48.3893L992.896 48.233L993.885 46.9482L993.295 44.7259L992.201 46.1843L992.253 46.3059L992.045 46.3926L991.854 46.2538L991.941 46.1496L991.246 44.4655L990.101 46.4621L990.708 47.9552L990.483 48.0421L989.944 46.7225L989.128 48.1288C989.18 48.2157 989.18 48.3199 989.128 48.424C989.041 48.5803 988.833 48.6323 988.677 48.5455C988.521 48.4587 988.468 48.2504 988.555 48.0941C988.607 47.99 988.712 47.9552 988.816 47.9552L989.666 46.4968L988.225 46.7572L988.191 46.5142L989.84 46.219L991.003 44.205L989.146 44.5349L989.094 44.6738L988.885 44.587V44.5523L988.85 44.3439H988.989L989.701 42.6424L987.479 43.2327L986.854 44.7259L986.628 44.6217L987.184 43.3022L985.621 43.7189C985.586 43.823 985.517 43.8925 985.413 43.9272C985.239 43.9793 985.048 43.8752 985.013 43.7015C984.961 43.5279 985.066 43.3543 985.239 43.3022L985.187 43.3196ZM988.382 41.0798L989.962 42.191L991.958 41.6528C991.958 41.6528 991.958 41.5313 991.976 41.4618L990.101 40.3854L988.382 41.0798ZM990.048 38.2324L990.378 40.1249L992.167 41.1493C992.167 41.1493 992.253 41.0625 992.323 41.0278L991.767 38.927L990.066 38.2151L990.048 38.2324ZM993.226 37.3991L992.132 38.9617L992.67 40.9583C992.67 40.9583 992.792 40.9583 992.861 40.9757L993.885 39.1874L993.226 37.3817V37.3991ZM996.073 39.0311L994.233 39.2742L993.139 41.1493C993.139 41.1493 993.226 41.2361 993.26 41.3056L995.257 40.7673L996.073 39.0137V39.0311ZM996.941 42.2084L995.465 41.0798L993.365 41.6354C993.365 41.6354 993.365 41.757 993.347 41.8264L995.136 42.8508L996.941 42.191V42.2084ZM995.292 45.0731L995.049 43.2327L993.174 42.1563C993.174 42.1563 993.069 42.2431 993.017 42.2778L993.556 44.2745L995.309 45.0905L995.292 45.0731ZM992.097 45.9412L993.226 44.4481L992.67 42.3473C992.67 42.3473 992.549 42.3473 992.479 42.3299L991.403 44.205L992.115 45.9412H992.097ZM989.232 44.2745L991.142 43.9446L992.167 42.1563C992.167 42.1563 992.08 42.0521 992.045 42L989.944 42.5556L989.232 44.2571V44.2745Z" fill="white"/>
<path d="M1098.25 6.08567C1098.25 6.08567 1098.39 6.08567 1098.44 6.13776L1099.5 5.85996L1098.72 5.32174L1098.81 5.18281L1099.69 5.80787L1101.15 5.42591L1100.14 4.73143L1100.06 4.76614L1100.01 4.62721L1100.09 4.50572L1100.16 4.5578L1101.26 4.10637L1099.95 3.35981L1098.98 3.75911L1098.91 3.60285L1099.78 3.25564L1098.86 2.73475C1098.86 2.73475 1098.74 2.76947 1098.67 2.73475C1098.56 2.68266 1098.53 2.5438 1098.58 2.43962C1098.63 2.33545 1098.77 2.30069 1098.88 2.35278C1098.95 2.3875 1098.96 2.45696 1098.96 2.52641L1099.92 3.08201L1099.76 2.14444L1099.92 2.10974L1100.11 3.18618L1101.41 3.93274L1101.2 2.73475L1101.12 2.70004L1101.17 2.56117H1101.31V2.63058L1102.4 3.08201L1102.02 1.64093L1101.05 1.22425L1101.12 1.068L1101.97 1.43259L1101.69 0.408234C1101.69 0.408234 1101.57 0.338808 1101.55 0.26936C1101.52 0.147825 1101.59 0.0436634 1101.71 0.00893917C1101.83 -0.025785 1101.93 0.043657 1101.97 0.165192C1101.98 0.23464 1101.97 0.304063 1101.92 0.356149L1102.19 1.41527L1102.73 0.633949L1102.87 0.720739L1102.25 1.60622L1102.63 3.06463L1103.32 2.07498L1103.29 1.98819L1103.41 1.93611L1103.51 2.00557L1103.46 2.07498L1103.88 3.22089L1104.62 1.91873L1104.26 0.89437L1104.42 0.842286L1104.75 1.72777L1105.3 0.772823C1105.3 0.772823 1105.27 0.651314 1105.3 0.581865C1105.35 0.477693 1105.49 0.44299 1105.6 0.495076C1105.7 0.547162 1105.74 0.686029 1105.67 0.790202C1105.63 0.85965 1105.56 0.877044 1105.49 0.877044L1104.97 1.79723L1105.89 1.67569V1.83194L1104.87 1.97081L1104.12 3.27297L1105.28 3.11672L1105.32 3.02993L1105.44 3.08201V3.22089H1105.37L1104.85 4.33209L1106.31 3.95012L1106.76 2.96046L1106.9 3.02993L1106.5 3.89803L1107.56 3.62023C1107.56 3.62023 1107.63 3.49872 1107.7 3.48136C1107.82 3.44664 1107.92 3.51608 1107.96 3.63761C1107.99 3.75915 1107.92 3.86331 1107.8 3.89803C1107.73 3.9154 1107.66 3.89804 1107.61 3.84595L1106.59 4.12375L1107.33 4.6793L1107.23 4.80084L1106.39 4.15845L1104.95 4.54042L1105.89 5.25227L1105.98 5.21757L1106.03 5.35644L1105.94 5.47799L1105.87 5.42591L1104.73 5.84258L1106.03 6.60652L1107.05 6.24193L1107.11 6.39818L1106.2 6.72806L1107.16 7.28361C1107.16 7.28361 1107.28 7.24889 1107.35 7.28361C1107.45 7.3357 1107.49 7.47462 1107.44 7.57879C1107.38 7.68296 1107.25 7.71767 1107.14 7.66558C1107.07 7.63086 1107.05 7.56145 1107.05 7.492L1106.13 6.97111L1106.26 7.8913H1106.1L1105.96 6.86694L1104.66 6.12038L1104.81 7.30099L1104.9 7.33575L1104.85 7.45724H1104.71V7.38783L1103.6 6.86694L1103.98 8.32535L1104.97 8.77678L1104.9 8.91565L1104.03 8.51636L1104.31 9.57542C1104.31 9.57542 1104.43 9.6449 1104.45 9.71435C1104.49 9.83588 1104.42 9.94004 1104.29 9.97477C1104.17 10.0095 1104.07 9.94005 1104.03 9.81852C1104.02 9.74907 1104.03 9.67959 1104.09 9.62751L1103.81 8.60315L1103.25 9.34971L1103.13 9.24554L1103.77 8.41219L1103.39 6.97111L1102.68 7.90867L1102.71 7.99546L1102.58 8.04755L1102.45 7.96076L1102.51 7.8913L1102.05 6.79747L1101.31 8.09963L1101.71 9.07196L1101.55 9.12404L1101.2 8.25594L1100.68 9.17613C1100.68 9.17613 1100.72 9.29764 1100.68 9.36708C1100.63 9.47126 1100.49 9.50596 1100.39 9.45387C1100.28 9.40179 1100.25 9.26292 1100.32 9.15875C1100.35 9.0893 1100.42 9.07196 1100.49 9.07196L1101.05 8.11701L1100.11 8.27326L1100.08 8.11701L1101.15 7.92605L1101.92 6.6239L1100.72 6.83223L1100.68 6.91902L1100.54 6.86694V6.84956V6.71068H1100.61L1101.06 5.61686L1099.62 5.99883L1099.22 6.97111L1099.07 6.9017L1099.43 6.05092L1098.41 6.32872C1098.41 6.32872 1098.34 6.45028 1098.27 6.46764C1098.15 6.50237 1098.04 6.43287 1098.01 6.31134C1097.97 6.1898 1098.04 6.08564 1098.17 6.05092L1098.25 6.08567ZM1100.34 4.64459L1101.36 5.35644L1102.64 5.00918C1102.64 5.00918 1102.64 4.92241 1102.64 4.88769L1101.43 4.17583L1100.32 4.62721L1100.34 4.64459ZM1101.41 2.78683L1101.62 4.01958L1102.78 4.69667C1102.78 4.69667 1102.85 4.64457 1102.89 4.62721L1102.52 3.27297L1101.41 2.80421V2.78683ZM1103.48 2.24861L1102.77 3.27297L1103.11 4.5578C1103.11 4.5578 1103.2 4.5578 1103.23 4.5578L1103.91 3.39452L1103.5 2.23129L1103.48 2.24861ZM1105.34 3.30773L1104.14 3.46398L1103.43 4.6793C1103.43 4.6793 1103.48 4.74879 1103.5 4.78352L1104.78 4.43625L1105.3 3.30773H1105.34ZM1105.89 5.37382L1104.94 4.64459L1103.58 5.00918C1103.58 5.00918 1103.58 5.096 1103.58 5.13073L1104.75 5.80787L1105.93 5.37382H1105.89ZM1104.81 7.23153L1104.66 6.03359L1103.44 5.32174C1103.44 5.32174 1103.37 5.37379 1103.34 5.39115L1103.69 6.67598L1104.81 7.2142V7.23153ZM1102.75 7.78713L1103.48 6.81485L1103.11 5.46061C1103.11 5.46061 1103.03 5.46061 1102.99 5.46061L1102.28 6.67598L1102.73 7.80451L1102.75 7.78713ZM1100.89 6.71068L1102.12 6.50235L1102.8 5.33906C1102.8 5.33906 1102.75 5.26962 1102.73 5.2349L1101.38 5.59954L1100.91 6.71068H1100.89Z" fill="white"/>
</g>
<defs>
<linearGradient id="paint0_linear_16504_32870" x1="257" y1="21.9997" x2="1386.5" y2="29.1592" gradientUnits="userSpaceOnUse">
<stop stop-color="#A61D2A"/>
<stop offset="1" stop-color="#A92636"/>
</linearGradient>
<clipPath id="clip0_16504_32870">
<rect width="1512" height="44" fill="white"/>
</clipPath>
</defs>
</svg>
