<svg width="46" height="46" viewBox="0 0 46 46" fill="none" xmlns="http://www.w3.org/2000/svg">
<rect width="46" height="46" rx="23" fill="#FFF5F6"/>
<path d="M32.2257 30.4145L29.9258 26.7333C29.3075 27.2503 27.8785 28.3587 25.7666 29.4817C24.2111 30.309 22.5834 30.9841 20.9239 31.4906V34.2971C20.9239 34.6852 21.2389 35 21.6271 35H24.3693C24.7576 35 25.0724 34.6852 25.0724 34.2971V31.49H31.6293C31.7548 31.49 31.878 31.4564 31.9861 31.3928C32.0942 31.3291 32.1834 31.2376 32.2442 31.1279C32.3051 31.0181 32.3354 30.8941 32.3322 30.7686C32.3289 30.6432 32.2922 30.5209 32.2257 30.4145ZM25.064 28.2626C26.1819 27.6708 27.1033 27.0783 27.7989 26.5873C26.9169 26.4887 26.0195 26.2824 25.114 25.9695C23.8376 25.5283 22.5425 24.875 21.2646 24.0275C19.5988 22.9228 18.4095 21.7878 17.924 21.2948L16.3518 23.5767C16.279 23.6823 16.2365 23.8057 16.2289 23.9336C16.2212 24.0616 16.2486 24.1892 16.3082 24.3027C16.3679 24.4162 16.4574 24.5112 16.5671 24.5775C16.6769 24.6438 16.8026 24.6788 16.9308 24.6788H17.3543L13.7709 30.4145C13.6959 30.5344 13.6589 30.6742 13.6646 30.8156C13.6704 30.9569 13.7187 31.0933 13.8031 31.2068C18.6483 31.1357 22.6012 29.5665 25.064 28.2626ZM20.5226 26.0304C21.0404 26.0304 21.4601 26.4524 21.4601 26.973C21.4601 27.4938 21.0404 27.9158 20.5226 27.9158C20.005 27.9158 19.5851 27.4937 19.5851 26.973C19.5851 26.4524 20.005 26.0304 20.5226 26.0304ZM24.8344 14.9198L23.6156 13.239C23.9664 13.0284 24.2014 12.6441 24.2014 12.2048C24.2014 11.5394 23.6627 11 22.9982 11C22.3339 11 21.7952 11.5394 21.7952 12.2048C21.7952 12.6441 22.0301 13.0284 22.3809 13.2389L18.3256 18.8315C18.2495 18.9364 18.2039 19.0603 18.1938 19.1895C18.1838 19.3188 18.2096 19.4483 18.2685 19.5637C18.3216 19.6676 18.3996 19.7566 18.4958 19.8226C22.2451 19.2585 24.0851 16.4786 24.8344 14.9198ZM23.6597 18.8478C22.4996 19.9102 21.1634 20.6369 19.6741 21.018C20.2543 21.5396 21.0757 22.2175 22.0706 22.8747C23.7515 23.985 26.2628 25.2452 28.9973 25.2472L28.6421 24.6788H29.0658C29.3271 24.6788 29.5668 24.534 29.6883 24.3027C29.7479 24.1892 29.7754 24.0616 29.7677 23.9336C29.76 23.8057 29.7175 23.6823 29.6448 23.5767L27.1434 19.9462C27.2692 19.9387 27.3907 19.8975 27.4952 19.8269C27.5997 19.7564 27.6832 19.659 27.7372 19.545C27.7911 19.4311 27.8134 19.3047 27.8017 19.1792C27.7901 19.0537 27.7449 18.9336 27.6709 18.8315L25.7565 16.1916C25.2843 17.0292 24.6084 17.9791 23.6597 18.8478ZM24.3283 22.915C23.8106 22.915 23.3908 22.4929 23.3908 21.9723C23.3908 21.4515 23.8106 21.0295 24.3283 21.0295C24.8461 21.0295 25.2658 21.4516 25.2658 21.9723C25.2658 22.4929 24.8461 22.915 24.3283 22.915Z" fill="#A61D2A"/>
</svg>
