<svg width="430" height="54" viewBox="0 0 430 54" fill="none" xmlns="http://www.w3.org/2000/svg">
<g clip-path="url(#clip0_16546_33854)">
<rect width="430" height="54" fill="url(#paint0_linear_16546_33854)"/>
<path d="M317.187 43.3196C317.291 43.2848 317.395 43.3195 317.465 43.4064L319.097 42.9723L317.899 42.1389L318.038 41.9306L319.409 42.8855L321.649 42.2778L320.104 41.2014L319.965 41.2535L319.878 41.0451L319.896 41.0278L320.017 40.8541L320.139 40.941L321.823 40.2464L319.826 39.1005L318.316 39.7082L318.229 39.4825L319.548 38.9443L318.142 38.1283C318.055 38.1803 317.951 38.1803 317.847 38.1283C317.691 38.0415 317.638 37.8331 317.725 37.6769C317.812 37.5206 318.02 37.4685 318.177 37.5553C318.281 37.6074 318.316 37.7116 318.316 37.8158L319.774 38.6665L319.514 37.2255L319.757 37.1907L320.052 38.8401L322.066 40.0034L321.736 38.1456L321.597 38.0936L321.684 37.8852H321.701L321.91 37.8505V37.9894L323.611 38.7012L323.021 36.4789L321.528 35.8538L321.632 35.6281L322.951 36.1837L322.535 34.6211C322.43 34.5864 322.361 34.517 322.326 34.4128C322.274 34.2392 322.378 34.0482 322.552 34.0135C322.726 33.9614 322.917 34.0655 322.951 34.2392C322.986 34.3433 322.951 34.4475 322.864 34.517L323.299 36.149L324.132 34.951L324.34 35.0899L323.385 36.4615L323.993 38.7012L325.069 37.156L325.017 37.0171L325.208 36.9477L325.382 37.0692L325.295 37.1907L325.938 38.9617L327.101 36.9477L326.528 35.3677L326.754 35.2809L327.257 36.6525L328.108 35.1941C328.056 35.1073 328.056 35.0031 328.108 34.8989C328.195 34.7427 328.403 34.6906 328.559 34.7774C328.715 34.8642 328.768 35.0726 328.681 35.2288C328.629 35.333 328.524 35.3677 328.42 35.3677L327.604 36.774L329.028 36.5831L329.063 36.8261L327.448 37.0518L326.302 39.0485L328.108 38.8054L328.16 38.6839L328.351 38.7707H328.386L328.42 38.9964H328.281L327.483 40.7153L329.722 40.1076L330.434 38.5971L330.66 38.7012L330.035 40.0207L331.667 39.5867C331.702 39.4825 331.771 39.4131 331.875 39.3783C332.049 39.3263 332.223 39.4304 332.275 39.6041C332.327 39.7777 332.223 39.9687 332.049 40.0034C331.945 40.0381 331.841 40.0034 331.771 39.9166L330.209 40.3333L331.355 41.2014L331.198 41.3923L329.913 40.4027L327.691 40.9931L329.15 42.0868L329.288 42.0347L329.358 42.2431V42.2605L329.219 42.4341L329.097 42.3473L327.327 42.9897L329.341 44.1529L330.92 43.58L331.007 43.8057L329.636 44.3092L331.094 45.1599C331.181 45.1079 331.285 45.1079 331.389 45.1599C331.546 45.2468 331.598 45.4551 331.511 45.6113C331.424 45.7676 331.216 45.8197 331.059 45.7329C330.955 45.6808 330.92 45.5766 330.92 45.4725L329.514 44.6564L329.705 46.0801L329.462 46.1148L329.236 44.5002L327.24 43.3543L327.483 45.1599L327.604 45.212L327.518 45.403V45.4204L327.292 45.4551V45.3162L325.573 44.5176L326.181 46.7572L327.691 47.4691L327.587 47.6948L326.267 47.0698L326.701 48.7018C326.806 48.7365 326.875 48.806 326.91 48.9102C326.962 49.0838 326.858 49.2574 326.684 49.3095C326.51 49.3615 326.337 49.2574 326.285 49.0837C326.25 48.9796 326.285 48.8754 326.372 48.806L325.955 47.2434L325.087 48.3893L324.896 48.233L325.885 46.9482L325.295 44.7259L324.201 46.1843L324.253 46.3059L324.045 46.3926L323.854 46.2538L323.941 46.1496L323.246 44.4655L322.101 46.4621L322.708 47.9552L322.483 48.0421L321.944 46.7225L321.128 48.1288C321.18 48.2157 321.18 48.3199 321.128 48.424C321.041 48.5803 320.833 48.6323 320.677 48.5455C320.521 48.4587 320.468 48.2504 320.555 48.0941C320.607 47.99 320.712 47.9552 320.816 47.9552L321.666 46.4968L320.225 46.7572L320.191 46.5142L321.84 46.219L323.003 44.205L321.146 44.5349L321.094 44.6738L320.885 44.587V44.5523L320.85 44.3439H320.989L321.701 42.6424L319.479 43.2327L318.854 44.7259L318.628 44.6217L319.184 43.3022L317.621 43.7189C317.586 43.823 317.517 43.8925 317.413 43.9272C317.239 43.9793 317.048 43.8752 317.013 43.7015C316.961 43.5279 317.066 43.3543 317.239 43.3022L317.187 43.3196ZM320.382 41.0798L321.962 42.191L323.958 41.6528C323.958 41.6528 323.958 41.5313 323.976 41.4618L322.101 40.3854L320.382 41.0798ZM322.048 38.2324L322.378 40.1249L324.167 41.1493C324.167 41.1493 324.253 41.0625 324.323 41.0278L323.767 38.927L322.066 38.2151L322.048 38.2324ZM325.226 37.3991L324.132 38.9617L324.67 40.9583C324.67 40.9583 324.792 40.9583 324.861 40.9757L325.885 39.1874L325.226 37.3817V37.3991ZM328.073 39.0311L326.233 39.2742L325.139 41.1493C325.139 41.1493 325.226 41.2361 325.26 41.3056L327.257 40.7673L328.073 39.0137V39.0311ZM328.941 42.2084L327.465 41.0798L325.365 41.6354C325.365 41.6354 325.365 41.757 325.347 41.8264L327.136 42.8508L328.941 42.191V42.2084ZM327.292 45.0731L327.049 43.2327L325.174 42.1563C325.174 42.1563 325.069 42.2431 325.017 42.2778L325.556 44.2745L327.309 45.0905L327.292 45.0731ZM324.097 45.9412L325.226 44.4481L324.67 42.3473C324.67 42.3473 324.549 42.3473 324.479 42.3299L323.403 44.205L324.115 45.9412H324.097ZM321.232 44.2745L323.142 43.9446L324.167 42.1563C324.167 42.1563 324.08 42.0521 324.045 42L321.944 42.5556L321.232 44.2571V44.2745Z" fill="white"/>
<path d="M312.252 2.08567C312.252 2.08567 312.391 2.08567 312.443 2.13776L313.502 1.85996L312.721 1.32174L312.808 1.18281L313.693 1.80787L315.151 1.42591L314.144 0.731433L314.058 0.766138L314.006 0.627212L314.092 0.505717L314.162 0.557801L315.256 0.106369L313.953 -0.640188L312.981 -0.240894L312.912 -0.397146L313.78 -0.744356L312.86 -1.26525C312.86 -1.26525 312.738 -1.23053 312.669 -1.26525C312.565 -1.31734 312.53 -1.4562 312.582 -1.56038C312.634 -1.66455 312.773 -1.69931 312.877 -1.64722C312.946 -1.6125 312.964 -1.54304 312.964 -1.47359L313.919 -0.917988L313.763 -1.85556L313.919 -1.89026L314.11 -0.81382L315.412 -0.0672619L315.204 -1.26525L315.117 -1.29996L315.169 -1.43883H315.308V-1.36942L316.402 -0.917988L316.02 -2.35907L315.047 -2.77575L315.117 -2.932L315.967 -2.56741L315.69 -3.59177C315.69 -3.59177 315.568 -3.66119 315.551 -3.73064C315.516 -3.85217 315.586 -3.95634 315.707 -3.99106C315.829 -4.02579 315.933 -3.95634 315.967 -3.83481C315.985 -3.76536 315.967 -3.69594 315.915 -3.64385L316.193 -2.58473L316.731 -3.36605L316.87 -3.27926L316.245 -2.39378L316.627 -0.935367L317.322 -1.92502L317.287 -2.01181L317.409 -2.06389L317.513 -1.99443L317.461 -1.92502L317.877 -0.779114L318.624 -2.08127L318.259 -3.10563L318.416 -3.15771L318.745 -2.27223L319.301 -3.22718C319.301 -3.22718 319.266 -3.34869 319.301 -3.41813C319.353 -3.52231 319.492 -3.55701 319.596 -3.50492C319.7 -3.45284 319.735 -3.31397 319.666 -3.2098C319.631 -3.14035 319.561 -3.12296 319.492 -3.12296L318.971 -2.20277L319.891 -2.32431V-2.16806L318.867 -2.02919L318.12 -0.72703L319.284 -0.883283L319.318 -0.970072L319.44 -0.917988V-0.779114H319.37L318.85 0.332085L320.308 -0.0498829L320.759 -1.03954L320.898 -0.970072L320.499 -0.101967L321.558 -0.379767C321.558 -0.379767 321.628 -0.501279 321.697 -0.518641C321.819 -0.553365 321.923 -0.483923 321.957 -0.362388C321.992 -0.240853 321.923 -0.136691 321.801 -0.101967C321.732 -0.084605 321.662 -0.101965 321.61 -0.154051L320.586 0.123749L321.332 0.679296L321.228 0.800843L320.395 0.158454L318.954 0.540422L319.891 1.25227L319.978 1.21757L320.03 1.35644L319.943 1.47799L319.874 1.42591L318.728 1.84258L320.03 2.60652L321.055 2.24193L321.107 2.39818L320.204 2.72806L321.159 3.28361C321.159 3.28361 321.28 3.24889 321.35 3.28361C321.454 3.3357 321.489 3.47462 321.437 3.57879C321.384 3.68296 321.246 3.71767 321.141 3.66558C321.072 3.63086 321.055 3.56145 321.055 3.492L320.134 2.97111L320.256 3.8913H320.1L319.961 2.86694L318.659 2.12038L318.815 3.30099L318.902 3.33575L318.85 3.45724H318.711V3.38783L317.6 2.86694L317.982 4.32535L318.971 4.77678L318.902 4.91565L318.034 4.51636L318.311 5.57542C318.311 5.57542 318.433 5.6449 318.45 5.71435C318.485 5.83588 318.416 5.94004 318.294 5.97477C318.172 6.00949 318.068 5.94005 318.034 5.81852C318.016 5.74907 318.034 5.67959 318.086 5.62751L317.808 4.60315L317.252 5.34971L317.131 5.24554L317.773 4.41219L317.391 2.97111L316.679 3.90867L316.714 3.99546L316.575 4.04755L316.454 3.96076L316.506 3.8913L316.054 2.79747L315.308 4.09963L315.707 5.07196L315.551 5.12404L315.204 4.25594L314.683 5.17613C314.683 5.17613 314.717 5.29764 314.683 5.36708C314.631 5.47126 314.492 5.50596 314.388 5.45387C314.283 5.40179 314.249 5.26292 314.318 5.15875C314.353 5.0893 314.422 5.07196 314.492 5.07196L315.047 4.11701L314.11 4.27326L314.075 4.11701L315.151 3.92605L315.915 2.6239L314.717 2.83223L314.683 2.91902L314.544 2.86694V2.84956V2.71068H314.613L315.065 1.61686L313.624 1.99883L313.224 2.97111L313.068 2.9017L313.433 2.05092L312.408 2.32872C312.408 2.32872 312.339 2.45028 312.269 2.46764C312.148 2.50237 312.044 2.43287 312.009 2.31134C311.974 2.1898 312.044 2.08564 312.165 2.05092L312.252 2.08567ZM314.335 0.64459L315.36 1.35644L316.645 1.00918C316.645 1.00918 316.645 0.92241 316.645 0.887685L315.429 0.175833L314.318 0.627212L314.335 0.64459ZM315.412 -1.21317L315.62 0.0195804L316.784 0.696675C316.784 0.696675 316.853 0.644574 316.888 0.627212L316.523 -0.72703L315.412 -1.19579V-1.21317ZM317.478 -1.75139L316.766 -0.72703L317.113 0.557801C317.113 0.557801 317.2 0.557801 317.235 0.557801L317.912 -0.605483L317.495 -1.76871L317.478 -1.75139ZM319.336 -0.692272L318.138 -0.53602L317.426 0.679296C317.426 0.679296 317.478 0.748793 317.495 0.783517L318.78 0.436254L319.301 -0.692272H319.336ZM319.891 1.37382L318.936 0.64459L317.582 1.00918C317.582 1.00918 317.582 1.096 317.582 1.13073L318.745 1.80787L319.926 1.37382H319.891ZM318.815 3.23153L318.659 2.03359L317.443 1.32174C317.443 1.32174 317.374 1.37379 317.339 1.39115L317.686 2.67598L318.815 3.2142V3.23153ZM316.749 3.78713L317.478 2.81485L317.113 1.46061C317.113 1.46061 317.027 1.46061 316.992 1.46061L316.28 2.67598L316.731 3.80451L316.749 3.78713ZM314.891 2.71068L316.124 2.50235L316.801 1.33906C316.801 1.33906 316.749 1.26962 316.731 1.2349L315.377 1.59954L314.908 2.71068H314.891Z" fill="white"/>
<path d="M381.717 7.8987C381.717 7.8987 381.578 7.8987 381.526 7.84662L380.467 8.12442L381.248 8.66264L381.161 8.80156L380.276 8.1765L378.817 8.55847L379.824 9.25294L379.911 9.21824L379.963 9.35716L379.876 9.47866L379.807 9.42657L378.713 9.87801L380.015 10.6246L380.988 10.2253L381.057 10.3815L380.189 10.7287L381.109 11.2496C381.109 11.2496 381.231 11.2149 381.3 11.2496C381.404 11.3017 381.439 11.4406 381.387 11.5448C381.335 11.6489 381.196 11.6837 381.092 11.6316C381.022 11.5969 381.005 11.5274 381.005 11.458L380.05 10.9024L380.206 11.8399L380.05 11.8746L379.859 10.7982L378.557 10.0516L378.765 11.2496L378.852 11.2843L378.8 11.4232H378.661V11.3538L377.567 10.9024L377.949 12.3434L378.921 12.7601L378.852 12.9164L378.001 12.5518L378.279 13.5761C378.279 13.5761 378.401 13.6456 378.418 13.715C378.453 13.8365 378.383 13.9407 378.262 13.9754C378.14 14.0102 378.036 13.9407 378.001 13.8192C377.984 13.7497 378.001 13.6803 378.053 13.6282L377.776 12.5691L377.237 13.3504L377.098 13.2636L377.723 12.3782L377.341 10.9197L376.647 11.9094L376.682 11.9962L376.56 12.0483L376.456 11.9788L376.508 11.9094L376.091 10.7635L375.345 12.0656L375.709 13.09L375.553 13.1421L375.223 12.2566L374.668 13.2116C374.668 13.2116 374.702 13.3331 374.668 13.4025C374.616 13.5067 374.477 13.5414 374.373 13.4893C374.268 13.4372 374.234 13.2983 374.303 13.1942C374.338 13.1247 374.407 13.1073 374.477 13.1073L374.998 12.1871L374.077 12.3087V12.1524L375.102 12.0136L375.848 10.7114L374.685 10.8677L374.65 10.9544L374.529 10.9024V10.7635H374.598L375.119 9.65229L373.661 10.0343L373.209 11.0239L373.07 10.9544L373.47 10.0863L372.411 10.3641C372.411 10.3641 372.341 10.4857 372.272 10.503C372.15 10.5377 372.046 10.4683 372.011 10.3468C371.977 10.2252 372.046 10.1211 372.168 10.0863C372.237 10.069 372.306 10.0863 372.359 10.1384L373.383 9.86063L372.636 9.30508L372.741 9.18353L373.574 9.82592L375.015 9.44395L374.077 8.7321L373.991 8.76681L373.939 8.62793L374.025 8.50638L374.095 8.55847L375.241 8.1418L373.939 7.37786L372.914 7.74245L372.862 7.5862L373.765 7.25631L372.81 6.70076C372.81 6.70076 372.688 6.73549 372.619 6.70076C372.515 6.64868 372.48 6.50976 372.532 6.40558C372.584 6.30141 372.723 6.26671 372.827 6.3188C372.897 6.35352 372.914 6.42293 372.914 6.49237L373.834 7.01327L373.713 6.09308H373.869L374.008 7.11744L375.31 7.864L375.154 6.68338L375.067 6.64863L375.119 6.52713H375.258V6.59654L376.369 7.11744L375.987 5.65903L374.998 5.2076L375.067 5.06872L375.935 5.46802L375.657 4.40895C375.657 4.40895 375.536 4.33948 375.518 4.27003C375.484 4.14849 375.553 4.04433 375.675 4.00961C375.796 3.97488 375.9 4.04432 375.935 4.16586C375.953 4.23531 375.935 4.30478 375.883 4.35687L376.161 5.38123L376.716 4.63467L376.838 4.73884L376.196 5.57218L376.578 7.01327L377.289 6.0757L377.255 5.98891L377.394 5.93683L377.515 6.02362L377.463 6.09308L377.914 7.1869L378.661 5.88474L378.262 4.91242L378.418 4.86033L378.765 5.72844L379.286 4.80825C379.286 4.80825 379.251 4.68674 379.286 4.61729C379.338 4.51312 379.477 4.47841 379.581 4.5305C379.685 4.58259 379.72 4.72145 379.651 4.82563C379.616 4.89508 379.546 4.91242 379.477 4.91242L378.921 5.86736L379.859 5.71111L379.894 5.86736L378.817 6.05832L378.053 7.36048L379.251 7.15214L379.286 7.06535L379.425 7.11744V7.13482V7.27369H379.355L378.904 8.36751L380.345 7.98554L380.744 7.01327L380.901 7.08268L380.536 7.93346L381.56 7.65566C381.56 7.65566 381.63 7.53409 381.699 7.51673C381.821 7.48201 381.925 7.5515 381.96 7.67304C381.995 7.79457 381.925 7.89873 381.804 7.93346L381.717 7.8987ZM379.633 9.33978L378.609 8.62793L377.324 8.9752C377.324 8.9752 377.324 9.06197 377.324 9.09669L378.539 9.80854L379.651 9.35716L379.633 9.33978ZM378.557 11.1975L378.348 9.96479L377.185 9.2877C377.185 9.2877 377.116 9.3398 377.081 9.35716L377.446 10.7114L378.557 11.1802V11.1975ZM376.491 11.7358L377.203 10.7114L376.855 9.42657C376.855 9.42657 376.769 9.42657 376.734 9.42657L376.057 10.5899L376.473 11.7531L376.491 11.7358ZM374.633 10.6766L375.831 10.5204L376.543 9.30508C376.543 9.30508 376.491 9.23558 376.473 9.20086L375.189 9.54812L374.668 10.6766H374.633ZM374.077 8.61055L375.032 9.33978L376.387 8.9752C376.387 8.9752 376.387 8.88837 376.387 8.85365L375.223 8.1765L374.043 8.61055H374.077ZM375.154 6.75285L375.31 7.95078L376.525 8.66264C376.525 8.66264 376.595 8.61059 376.63 8.59323L376.282 7.3084L375.154 6.77017V6.75285ZM377.22 6.19725L376.491 7.16952L376.855 8.52376C376.855 8.52376 376.942 8.52376 376.977 8.52376L377.689 7.3084L377.237 6.17987L377.22 6.19725ZM379.078 7.27369L377.845 7.48203L377.168 8.64531C377.168 8.64531 377.22 8.71476 377.237 8.74948L378.592 8.38484L379.06 7.27369H379.078Z" fill="white"/>
</g>
<defs>
<linearGradient id="paint0_linear_16546_33854" x1="73.0886" y1="26.9996" x2="394.322" y2="27.4714" gradientUnits="userSpaceOnUse">
<stop stop-color="#A61D2A"/>
<stop offset="1" stop-color="#A92636"/>
</linearGradient>
<clipPath id="clip0_16546_33854">
<rect width="430" height="54" fill="white"/>
</clipPath>
</defs>
</svg>
